<svg width="60" height="60" viewBox="0 0 60 60" fill="none" xmlns="http://www.w3.org/2000/svg">
<path d="M7.12024 58.6577C8.10051 58.6577 9.05689 58.3552 9.85881 57.7914C10.6607 57.2276 11.2691 56.43 11.6009 55.5076C11.9327 54.5852 11.9717 53.5829 11.7126 52.6375C11.4535 51.6921 10.9089 50.8496 10.1532 50.2252C10.0818 50.1661 9.99943 50.1217 9.91082 50.0944C9.82221 50.0672 9.72909 50.0576 9.6368 50.0664C9.5445 50.0751 9.45482 50.1019 9.37289 50.1453C9.29095 50.1887 9.21837 50.2478 9.15927 50.3192C9.10018 50.3906 9.05573 50.473 9.02847 50.5616C9.00121 50.6503 8.99167 50.7434 9.0004 50.8357C9.00913 50.928 9.03595 51.0176 9.07933 51.0996C9.12271 51.1815 9.18181 51.2541 9.25324 51.3132C9.86138 51.8154 10.2728 52.5161 10.4151 53.2919C10.5574 54.0676 10.4214 54.8687 10.0311 55.5541C9.64073 56.2394 9.0211 56.7651 8.28129 57.0384C7.54148 57.3118 6.72894 57.3154 5.98674 57.0486C5.24455 56.7817 4.6203 56.2616 4.22394 55.5797C3.82757 54.8978 3.6845 54.098 3.81993 53.321C3.95536 52.544 4.36059 51.8397 4.96427 51.3321C5.56795 50.8245 6.33136 50.5463 7.12007 50.5462C7.30728 50.5462 7.48682 50.4719 7.6192 50.3395C7.75158 50.2071 7.82595 50.0276 7.82595 49.8404V39.9432C7.82595 39.756 7.75158 39.5764 7.6192 39.4441C7.48682 39.3117 7.30728 39.2373 7.12007 39.2373C6.93286 39.2373 6.75331 39.3117 6.62093 39.4441C6.48855 39.5764 6.41418 39.756 6.41418 39.9432V49.1871C5.22606 49.3654 4.14927 49.9863 3.39972 50.9253C2.65016 51.8642 2.28325 53.0518 2.37255 54.2499C2.46185 55.4481 3.00076 56.5681 3.88123 57.3856C4.76169 58.203 5.91863 58.6575 7.12007 58.6577H7.12024Z" fill="#F16522"/>
<path d="M7.12094 37.728C7.78344 37.727 8.43264 37.5419 8.99609 37.1935C9.55954 36.845 10.0151 36.3468 10.3119 35.7545L40.6692 45.7389C40.8471 45.7974 41.0409 45.7828 41.208 45.6984C41.3752 45.614 41.5019 45.4667 41.5604 45.2888C41.6189 45.111 41.6044 44.9172 41.52 44.7501C41.4356 44.5829 41.2883 44.4562 41.1104 44.3977L10.6826 34.3902C10.6878 34.3118 10.6946 34.2338 10.6946 34.1543C10.6947 33.4474 10.4851 32.7564 10.0924 32.1687C9.69972 31.5809 9.14156 31.1228 8.48851 30.8523C7.83546 30.5818 7.11686 30.511 6.42357 30.6489C5.73029 30.7868 5.09347 31.1271 4.59364 31.627C4.09382 32.1268 3.75343 32.7636 3.61554 33.4569C3.47765 34.1502 3.54844 34.8688 3.81896 35.5218C4.08948 36.1749 4.54758 36.733 5.13533 37.1257C5.72308 37.5184 6.41407 37.728 7.12094 37.728ZM7.12094 31.9927C7.54855 31.9926 7.96657 32.1194 8.32213 32.357C8.67769 32.5945 8.95482 32.9322 9.11847 33.3272C9.28212 33.7223 9.32494 34.157 9.24151 34.5764C9.15808 34.9958 8.95216 35.381 8.64977 35.6834C8.34739 35.9858 7.96214 36.1917 7.54273 36.275C7.12333 36.3584 6.68862 36.3156 6.29357 36.1519C5.89852 35.9882 5.56089 35.7111 5.32336 35.3555C5.08584 34.9999 4.9591 34.5819 4.95917 34.1543C4.95982 33.5811 5.18779 33.0316 5.59305 32.6263C5.99831 32.221 6.54778 31.993 7.12094 31.9923V31.9927Z" fill="#F16522"/>
<path d="M46.7235 49.9805C47.2115 49.9812 47.6936 49.8737 48.1351 49.6657C48.5765 49.4577 48.9664 49.1544 49.2766 48.7777C49.5868 48.401 49.8097 47.9601 49.9291 47.4869C50.0485 47.0138 50.0615 46.52 49.9672 46.0412C49.8729 45.5624 49.6736 45.1104 49.3837 44.7178C49.0938 44.3253 48.7204 44.0019 48.2905 43.7709C47.8606 43.5399 47.3849 43.4071 46.8975 43.3821C46.4101 43.357 45.9232 43.4403 45.4719 43.626L32.7613 27.426C32.6457 27.2787 32.4763 27.1834 32.2905 27.161C32.1046 27.1385 31.9174 27.1909 31.7701 27.3065C31.6228 27.422 31.5275 27.5914 31.5051 27.7773C31.4827 27.9631 31.535 28.1503 31.6506 28.2976L44.3116 44.4332C43.8724 44.9028 43.5802 45.4906 43.4708 46.1242C43.3615 46.7578 43.4399 47.4095 43.6963 47.9992C43.9528 48.5888 44.3761 49.0905 44.9141 49.4426C45.4521 49.7946 46.0814 49.9816 46.7243 49.9805H46.7235ZM46.7235 44.7897C47.0972 44.7897 47.4625 44.9005 47.7733 45.1081C48.084 45.3158 48.3262 45.6109 48.4693 45.9562C48.6123 46.3015 48.6497 46.6814 48.5768 47.048C48.5039 47.4145 48.3239 47.7512 48.0596 48.0155C47.7954 48.2798 47.4587 48.4597 47.0921 48.5326C46.7256 48.6056 46.3456 48.5681 46.0003 48.4251C45.655 48.2821 45.3599 48.0399 45.1523 47.7291C44.9446 47.4184 44.8338 47.053 44.8338 46.6793C44.8344 46.1783 45.0337 45.698 45.3879 45.3438C45.7422 44.9895 46.2225 44.7903 46.7235 44.7897Z" fill="#F16522"/>
<path d="M28.8295 26.0648C29.2772 26.0681 29.7203 25.9744 30.1284 25.7901C30.5364 25.6057 30.8997 25.3352 31.1931 24.9971C31.4866 24.659 31.7034 24.2613 31.8285 23.8314C31.9535 23.4015 31.984 22.9496 31.9177 22.5068L41.1431 18.9339C41.23 18.9008 41.3096 18.8509 41.3771 18.7869C41.4447 18.723 41.499 18.6463 41.5368 18.5613C41.5746 18.4763 41.5953 18.3846 41.5976 18.2916C41.5999 18.1986 41.5838 18.1061 41.5502 18.0193C41.5166 17.9326 41.4662 17.8533 41.4018 17.7861C41.3375 17.7189 41.2605 17.6651 41.1753 17.6277C41.0901 17.5904 40.9983 17.5702 40.9053 17.5685C40.8123 17.5667 40.7198 17.5834 40.6333 17.6175L31.4113 21.189C31.1088 20.7437 30.6963 20.3841 30.2138 20.1453C29.7313 19.9064 29.1953 19.7964 28.6578 19.8259C28.1202 19.8554 27.5994 20.0234 27.146 20.3136C26.6926 20.6038 26.3219 21.0064 26.0699 21.4821C25.818 21.9579 25.6934 22.4907 25.7082 23.0289C25.723 23.567 25.8768 24.0922 26.1545 24.5534C26.4322 25.0146 26.8245 25.3961 27.2932 25.661C27.7619 25.9258 28.2911 26.0649 28.8295 26.0648ZM28.8295 21.2316C29.1679 21.2315 29.4987 21.3319 29.7801 21.5199C30.0614 21.7079 30.2807 21.9751 30.4102 22.2877C30.5397 22.6004 30.5735 22.9444 30.5074 23.2763C30.4414 23.6082 30.2784 23.913 30.039 24.1522C29.7997 24.3915 29.4947 24.5543 29.1628 24.6202C28.8309 24.6861 28.4869 24.6521 28.1743 24.5225C27.8617 24.3928 27.5946 24.1734 27.4068 23.8919C27.2189 23.6105 27.1188 23.2796 27.119 22.9412C27.1196 22.4878 27.3 22.053 27.6206 21.7324C27.9413 21.4117 28.376 21.2313 28.8295 21.2307V21.2316Z" fill="#F16522"/>
<path d="M47.0218 18.5536C49.3362 18.5536 51.1495 17.3515 51.1495 15.8171C51.1495 14.4426 49.6943 13.3356 47.7277 13.1196V2.99016C48.4025 2.7918 49.755 2.52445 50.8366 3.13133C51.8631 3.72803 53.0341 4.03061 54.2211 4.00592C54.9031 4.00802 55.581 3.89961 56.2283 3.68492V8.61392C55.6085 8.99863 54.924 9.05704 54.1684 9.08527C53.2407 9.09923 52.327 8.85849 51.5266 8.38927C51.1768 8.19473 50.8012 8.05054 50.4111 7.96098C50.3208 7.93996 50.2273 7.93693 50.1358 7.95206C50.0444 7.9672 49.9568 8.00019 49.8781 8.04917C49.7994 8.09815 49.7311 8.16216 49.6771 8.23753C49.6232 8.3129 49.5846 8.39816 49.5635 8.48845C49.5425 8.57874 49.5395 8.67228 49.5546 8.76374C49.5697 8.8552 49.6027 8.94278 49.6517 9.02149C49.7007 9.10019 49.7647 9.16848 49.8401 9.22245C49.9155 9.27642 50.0007 9.31502 50.091 9.33604C50.3517 9.39545 50.6027 9.49139 50.8366 9.62104C51.8042 10.1807 52.8989 10.4833 54.0166 10.5C54.0851 10.5 54.153 10.4988 54.2211 10.4963C55.0364 10.4658 56.2682 10.4199 57.3771 9.5268C57.4592 9.46063 57.5255 9.37691 57.571 9.28178C57.6165 9.18666 57.6401 9.08255 57.6401 8.9771V2.4858C57.6401 2.35262 57.6024 2.22214 57.5314 2.10945C57.4604 1.99676 57.359 1.90646 57.2389 1.84897C57.1187 1.79148 56.9848 1.76916 56.8525 1.78457C56.7202 1.79999 56.5949 1.85252 56.4912 1.9361C55.803 2.49022 55.0325 2.56204 54.1684 2.59433C53.2406 2.60885 52.3267 2.36808 51.5266 1.89833C49.4005 0.707334 46.8482 1.79245 46.7404 1.83975C46.6144 1.89471 46.5073 1.98523 46.432 2.10021C46.3568 2.21519 46.3168 2.34963 46.3168 2.48704V17.0903C45.1304 16.92 44.3068 16.3432 44.3068 15.8171C44.3068 15.5092 44.5925 15.2494 44.7626 15.122C44.9124 15.0097 45.0114 14.8424 45.0379 14.6571C45.0644 14.4718 45.0162 14.2835 44.9038 14.1337C44.7915 13.984 44.6243 13.885 44.4389 13.8585C44.2536 13.832 44.0654 13.8802 43.9156 13.9926C43.2572 14.4867 42.8945 15.134 42.8945 15.8176C42.8942 17.3515 44.7074 18.5536 47.0218 18.5536ZM47.7277 14.5437C48.9143 14.7142 49.7377 15.291 49.7377 15.8171C49.7377 16.3432 48.9143 16.92 47.7277 17.0903V14.5437Z" fill="#F16522"/>
</svg>
