<svg width="44" height="44" viewBox="0 0 44 44" fill="none" xmlns="http://www.w3.org/2000/svg">
<circle cx="22" cy="22" r="21.75" stroke="#F16522" stroke-width="0.5"/>
<path d="M27.1992 22.3984C24.0006 22.3984 21.3984 25.0006 21.3984 28.1992C21.3984 31.3979 24.0006 34 27.1992 34C30.3979 34 33 31.3979 33 28.1992C33 25.0006 30.3979 22.3984 27.1992 22.3984ZM29.7773 28.8438H27.1992C26.843 28.8438 26.5547 28.5554 26.5547 28.1992V25.6211C26.5547 25.2649 26.843 24.9766 27.1992 24.9766C27.5554 24.9766 27.8438 25.2649 27.8438 25.6211V27.5547H29.7773C30.1335 27.5547 30.4219 27.843 30.4219 28.1992C30.4219 28.5554 30.1335 28.8438 29.7773 28.8438Z" fill="#F16522"/>
<path d="M31.668 13.9766C31.668 13.6155 31.3845 13.332 31.0234 13.332H27.8008V15.2656C27.8008 15.6265 27.5173 15.9102 27.1562 15.9102C26.7952 15.9102 26.5117 15.6265 26.5117 15.2656V13.332H23.9336V15.2656C23.9336 15.6265 23.6501 15.9102 23.2891 15.9102C22.928 15.9102 22.6445 15.6265 22.6445 15.2656V13.332H20.0664V15.2656C20.0664 15.6265 19.7829 15.9102 19.4219 15.9102C19.0608 15.9102 18.7773 15.6265 18.7773 15.2656V13.332H16.1992V15.2656C16.1992 15.6265 15.9157 15.9102 15.5547 15.9102C15.1936 15.9102 14.9102 15.6265 14.9102 15.2656V13.332H11.6445C11.2835 13.332 11 13.6155 11 13.9766V17.1992H31.668V13.9766Z" fill="#F16522"/>
<path d="M20.7109 24.9336H20.8657C21.101 24.4764 21.3665 24.0375 21.6915 23.6445H20.7109C20.3548 23.6445 20.0664 23.3562 20.0664 23C20.0664 22.6438 20.3548 22.3555 20.7109 22.3555H22C22.264 22.3555 22.4894 22.5148 22.5891 22.7419C23.824 21.6987 25.4169 21.0664 27.1562 21.0664H25.8672C25.511 21.0664 25.2227 20.778 25.2227 20.4219C25.2227 20.0657 25.511 19.7773 25.8672 19.7773H27.1562C27.5124 19.7773 27.8008 20.0657 27.8008 20.4219C27.8008 20.778 27.5124 21.0664 27.1562 21.0664C28.8688 21.0664 30.4413 21.677 31.668 22.6915V18.4883H11V30.7344C11 31.0905 11.2884 31.3789 11.6445 31.3789H20.8491C20.3524 30.4108 20.0664 29.3171 20.0664 28.1562C20.0664 27.4468 20.1936 26.7707 20.3885 26.124C20.1993 26.0117 20.0664 25.8143 20.0664 25.5781C20.0664 25.222 20.3548 24.9336 20.7109 24.9336ZM20.7109 19.7773H22C22.3562 19.7773 22.6445 20.0657 22.6445 20.4219C22.6445 20.778 22.3562 21.0664 22 21.0664H20.7109C20.3548 21.0664 20.0664 20.778 20.0664 20.4219C20.0664 20.0657 20.3548 19.7773 20.7109 19.7773ZM16.8438 28.8008H15.5547C15.1985 28.8008 14.9102 28.5124 14.9102 28.1562C14.9102 27.8001 15.1985 27.5117 15.5547 27.5117H16.8438C17.1999 27.5117 17.4883 27.8001 17.4883 28.1562C17.4883 28.5124 17.1999 28.8008 16.8438 28.8008ZM16.8438 26.2227H15.5547C15.1985 26.2227 14.9102 25.9343 14.9102 25.5781C14.9102 25.222 15.1985 24.9336 15.5547 24.9336H16.8438C17.1999 24.9336 17.4883 25.222 17.4883 25.5781C17.4883 25.9343 17.1999 26.2227 16.8438 26.2227ZM16.8438 23.6445H15.5547C15.1985 23.6445 14.9102 23.3562 14.9102 23C14.9102 22.6438 15.1985 22.3555 15.5547 22.3555H16.8438C17.1999 22.3555 17.4883 22.6438 17.4883 23C17.4883 23.3562 17.1999 23.6445 16.8438 23.6445ZM16.8438 21.0664H15.5547C15.1985 21.0664 14.9102 20.778 14.9102 20.4219C14.9102 20.0657 15.1985 19.7773 15.5547 19.7773H16.8438C17.1999 19.7773 17.4883 20.0657 17.4883 20.4219C17.4883 20.778 17.1999 21.0664 16.8438 21.0664Z" fill="#F16522"/>
<path d="M16.1992 12.6445C16.1992 12.2835 15.9157 12 15.5547 12C15.1936 12 14.9102 12.2835 14.9102 12.6445V13.332H16.1992V12.6445Z" fill="#F16522"/>
<path d="M20.0664 12.6445C20.0664 12.2835 19.7829 12 19.4219 12C19.0608 12 18.7773 12.2835 18.7773 12.6445V13.332H20.0664V12.6445Z" fill="#F16522"/>
<path d="M23.9336 12.6445C23.9336 12.2835 23.6501 12 23.2891 12C22.928 12 22.6445 12.2835 22.6445 12.6445V13.332H23.9336V12.6445Z" fill="#F16522"/>
<path d="M27.8008 12.6445C27.8008 12.2835 27.5173 12 27.1562 12C26.7952 12 26.5117 12.2835 26.5117 12.6445V13.332H27.8008V12.6445Z" fill="#F16522"/>
</svg>
