<svg width="22" height="22" viewBox="0 0 22 22" fill="none" xmlns="http://www.w3.org/2000/svg">
<path d="M8.37891 10.3555H10.3125V12.2891C10.3125 12.8643 11.0092 13.1487 11.4129 12.745L13.802 10.3555H18.6914C19.0472 10.3555 19.3359 10.0667 19.3359 9.71094V1.97656C19.3359 1.62078 19.0472 1.33203 18.6914 1.33203H8.37891C8.02313 1.33203 7.73438 1.62078 7.73438 1.97656V9.71094C7.73438 10.0667 8.02313 10.3555 8.37891 10.3555V10.3555ZM16.1133 5.19922C16.4691 5.19922 16.7578 5.48797 16.7578 5.84375C16.7578 6.19953 16.4691 6.48828 16.1133 6.48828C15.7575 6.48828 15.4688 6.19953 15.4688 5.84375C15.4688 5.48797 15.7575 5.19922 16.1133 5.19922ZM13.5352 5.19922C13.8909 5.19922 14.1797 5.48797 14.1797 5.84375C14.1797 6.19953 13.8909 6.48828 13.5352 6.48828C13.1794 6.48828 12.8906 6.19953 12.8906 5.84375C12.8906 5.48797 13.1794 5.19922 13.5352 5.19922ZM10.957 5.19922C11.3128 5.19922 11.6016 5.48797 11.6016 5.84375C11.6016 6.19953 11.3128 6.48828 10.957 6.48828C10.6013 6.48828 10.3125 6.19953 10.3125 5.84375C10.3125 5.48797 10.6013 5.19922 10.957 5.19922Z" fill="white"/>
<path d="M16.3711 18.5V18.0898V16.1562C16.3711 15.8791 16.1936 15.6329 15.9307 15.5448L12.0729 14.2557C11.8839 14.193 11.6768 14.2205 11.5109 14.3309L9.87078 15.4245C8.13355 14.5961 6.07191 12.5344 5.24348 10.7972L6.33703 9.15707C6.44746 8.99121 6.47496 8.7841 6.41223 8.59504L5.12316 4.7373C5.03508 4.47434 4.78887 4.29688 4.51172 4.29688H1.93359C0.867539 4.29688 0 5.16012 0 6.22145C0 9.78441 1.6109 13.4389 4.4202 16.2478C7.22906 19.0571 10.8836 20.668 14.4465 20.668C15.2831 20.668 15.9964 20.1291 16.2611 19.3789V19C16.617 19 16.2611 19.1713 16.2611 18.8153C16.2611 18.4594 16.727 18.5 16.3711 18.5Z" fill="white"/>
</svg>
