<svg width="44" height="44" viewBox="0 0 44 44" fill="none" xmlns="http://www.w3.org/2000/svg">
<circle cx="22" cy="22" r="21.75" stroke="#F16522" stroke-width="0.5"/>
<path d="M34.2969 28.1654H28.8594V26.0394C28.8594 25.7346 28.6658 25.4639 28.3789 25.3671L24.1705 23.9498C23.9642 23.8808 23.7383 23.911 23.5573 24.0324L21.7681 25.2348C19.873 24.3239 17.6239 22.0572 16.7202 20.1471L17.9131 18.3438C18.0336 18.1614 18.0636 17.9337 17.9952 17.7258L16.5889 13.4843C16.4928 13.1951 16.2242 13 15.9219 13H13.1094C11.9464 13 11 13.9491 11 15.1161C11 19.0335 12.7573 23.0517 15.822 26.14C18.8863 29.2288 22.873 31 26.7598 31C27.6725 31 28.4506 30.4076 28.7394 29.5827H34.2969C34.6852 29.5827 35 29.2654 35 28.874C35 28.4826 34.6852 28.1654 34.2969 28.1654Z" fill="#F16522"/>
</svg>
