<svg width="20" height="20" viewBox="0 0 20 20" fill="none" xmlns="http://www.w3.org/2000/svg">
<g clip-path="url(#clip0_247_3452)">
<path d="M13.7656 7.53125C10.328 7.53125 7.53125 10.328 7.53125 13.7656C7.53125 17.2032 10.328 20 13.7656 20C17.2033 20 19.9999 17.2032 19.9999 13.7656C19.9999 10.328 17.2032 7.53125 13.7656 7.53125ZM13.7656 18.8281C10.9742 18.8281 8.70312 16.557 8.70312 13.7656C8.70312 10.9741 10.9742 8.70308 13.7656 8.70308C16.5571 8.70308 18.8281 10.9741 18.8281 13.7656C18.8281 16.557 16.5571 18.8281 13.7656 18.8281Z" fill="white"/>
<path d="M19.414 1.88277H16.2344V0.585936C16.2344 0.262343 15.9721 0 15.6485 0C15.3249 0 15.0625 0.262343 15.0625 0.585936V1.88277H12.4688V0.585936C12.4688 0.262343 12.2065 0 11.8829 0C11.5593 0 11.2969 0.262343 11.2969 0.585936V1.88277H8.70319V0.585936C8.70319 0.262343 8.44084 0 8.11725 0C7.79366 0 7.53131 0.262343 7.53131 0.585936V1.88277H4.93757V0.585936C4.93757 0.262343 4.67523 0 4.35163 0C4.02804 0 3.7657 0.262343 3.7657 0.585936V1.88277H0.585936C0.262382 1.88277 0 2.14511 0 2.46871V19.414C0 19.7376 0.262382 20 0.585936 20H9.77139C7.72061 18.6814 6.35936 16.3795 6.35936 13.7656C6.35936 9.68178 9.68182 6.35936 13.7656 6.35936C16.3795 6.35936 18.6815 7.72057 20 9.77135V2.46871C20 2.14511 19.7377 1.88277 19.414 1.88277Z" fill="white"/>
<path d="M15.6484 13.1796H14.3516V11.8828C14.3516 11.5592 14.0892 11.2969 13.7656 11.2969C13.442 11.2969 13.1797 11.5592 13.1797 11.8828V13.7656C13.1797 14.0891 13.442 14.3515 13.7656 14.3515H15.6484C15.972 14.3515 16.2344 14.0891 16.2344 13.7656C16.2344 13.4419 15.972 13.1796 15.6484 13.1796Z" fill="white"/>
</g>
<defs>
<clipPath id="clip0_247_3452">
<rect width="20" height="20" fill="white"/>
</clipPath>
</defs>
</svg>
