<svg width="38" height="38" viewBox="0 0 38 38" fill="none" xmlns="http://www.w3.org/2000/svg">
<circle cx="19" cy="19" r="18.75" stroke="#3E3E3E" stroke-width="0.5"/>
<path d="M15.0286 19.652H17.221V28.6774C17.221 28.8556 17.3653 29 17.5435 29H21.2607C21.4389 29 21.5833 28.8556 21.5833 28.6774V19.6945H24.1035C24.2674 19.6945 24.4053 19.5715 24.424 19.4088L24.8068 16.0861C24.8173 15.9946 24.7883 15.9031 24.7272 15.8345C24.6659 15.7659 24.5783 15.7266 24.4864 15.7266H21.5834V13.6437C21.5834 13.0159 21.9215 12.6975 22.5883 12.6975C22.6833 12.6975 24.4864 12.6975 24.4864 12.6975C24.6646 12.6975 24.809 12.553 24.809 12.3749V9.32497C24.809 9.14677 24.6646 9.00239 24.4864 9.00239H21.8706C21.8521 9.00148 21.8112 9 21.7508 9C21.2969 9 19.7193 9.0891 18.4731 10.2355C17.0923 11.506 17.2842 13.0272 17.3301 13.2909V15.7265H15.0286C14.8504 15.7265 14.7061 15.8709 14.7061 16.0491V19.3294C14.7061 19.5075 14.8504 19.652 15.0286 19.652Z" fill="#3E3E3E"/>
</svg>
