<svg width="20" height="20" viewBox="0 0 20 20" fill="none" xmlns="http://www.w3.org/2000/svg">
<path d="M17.0826 2.26404H16.4978V16.6312C16.4978 17.5857 15.7209 18.3626 14.7664 18.3626H8.84118H4.12939V18.8952C4.12939 19.5051 4.62438 20 5.23424 20H11.1574H17.0805C17.6904 20 18.1854 19.5051 18.1854 18.8952V3.36888C18.1854 2.75903 17.6925 2.26404 17.0826 2.26404Z" fill="white"/>
<path d="M8.84085 17.736H14.764C15.3739 17.736 15.8688 17.241 15.8688 16.6312V2.26399V1.10485C15.8688 0.494987 15.3739 0 14.764 0H8.84085H6.87134V0.365497C6.87549 0.403091 6.8776 0.442774 6.8776 0.482456V2.89056V3.50877C6.8776 4.36717 6.18003 5.06474 5.32163 5.06474H4.70342H2.29531C2.26398 5.06474 2.23056 5.06266 2.19924 5.06057H1.81494V16.6312C1.81494 17.241 2.30993 17.736 2.91979 17.736H4.13115H8.84085ZM9.06432 13.9808H5.20258C4.91436 13.9808 4.68044 13.7468 4.68044 13.4586C4.68044 13.1704 4.91436 12.9365 5.20258 12.9365H9.06641C9.35463 12.9365 9.58855 13.1704 9.58855 13.4586C9.58855 13.7468 9.35254 13.9808 9.06432 13.9808ZM12.9282 11.3158H5.20258C4.91436 11.3158 4.68044 11.0819 4.68044 10.7937C4.68044 10.5054 4.91436 10.2715 5.20258 10.2715H12.9282C13.2164 10.2715 13.4503 10.5054 13.4503 10.7937C13.4503 11.0819 13.2164 11.3158 12.9282 11.3158ZM5.20258 7.44152H12.9282C13.2164 7.44152 13.4503 7.67544 13.4503 7.96366C13.4503 8.25188 13.2164 8.4858 12.9282 8.4858H5.20258C4.91436 8.4858 4.68044 8.25188 4.68044 7.96366C4.68044 7.67544 4.91436 7.44152 5.20258 7.44152Z" fill="white"/>
<path d="M2.29647 4.43941H5.32278C5.32487 4.43941 5.32905 4.43941 5.33114 4.43941C5.83657 4.43524 6.24593 4.02588 6.2501 3.52045C6.2501 3.51836 6.2501 3.51418 6.2501 3.5121V0.483692C6.2501 0.203826 6.02036 0.0179443 5.78229 0.0179443C5.66742 0.0179443 5.55255 0.0597154 5.45647 0.155789L1.96647 3.64576C1.67408 3.93816 1.88084 4.43941 2.29647 4.43941Z" fill="white"/>
</svg>
