<svg width="60" height="60" viewBox="0 0 60 60" fill="none" xmlns="http://www.w3.org/2000/svg">
<path d="M35.758 35.3226H13.8103C13.3244 35.3226 12.9307 35.7165 12.9307 36.2022C12.9307 36.6881 13.3245 37.0819 13.8103 37.0819H35.758C36.2439 37.0819 36.6376 36.688 36.6376 36.2022C36.6376 35.7164 36.2439 35.3226 35.758 35.3226Z" fill="#F16522"/>
<path d="M28.9427 39.463H13.8103C13.3244 39.463 12.9307 39.8569 12.9307 40.3426C12.9307 40.8284 13.3245 41.2222 13.8103 41.2222H28.9427C29.4285 41.2222 29.8223 40.8284 29.8223 40.3426C29.8223 39.8569 29.4285 39.463 28.9427 39.463Z" fill="#F16522"/>
<path d="M54.4706 18.0219C54.9564 18.0219 55.3502 17.628 55.3502 17.1423V9.18526C55.3502 8.69951 54.9564 8.30565 54.4706 8.30565H44.4952V0.879608C44.4952 0.393866 44.1015 0 43.6156 0H5.52951C5.04365 0 4.6499 0.393866 4.6499 0.879608V31.0907C4.6499 31.5765 5.04365 31.9703 5.52951 31.9703C6.01537 31.9703 6.40912 31.5765 6.40912 31.0907V1.75933H42.736V42.4145H36.0951C35.6093 42.4145 35.2155 42.8084 35.2155 43.2941V49.935L6.40923 49.9351V34.6093C6.40923 34.1235 6.01549 33.7297 5.52963 33.7297C5.04377 33.7297 4.65002 34.1235 4.65002 34.6093V50.8147C4.65002 51.3006 5.04377 51.6944 5.52963 51.6944H15.505V59.1203C15.505 59.6061 15.8987 59.9999 16.3846 59.9999H46.9503C46.9574 59.9999 46.9643 59.9991 46.9714 59.9988C46.9929 59.9982 47.0145 59.9978 47.036 59.9957C47.0527 59.994 47.0692 59.991 47.0858 59.9883C47.0974 59.9865 47.1092 59.9854 47.1208 59.983C47.1385 59.9795 47.1557 59.9746 47.1731 59.9701C47.1834 59.9674 47.1938 59.9654 47.2039 59.9624C47.2206 59.9573 47.237 59.9509 47.2535 59.9448C47.2639 59.9409 47.2744 59.9378 47.2847 59.9336C47.3006 59.927 47.3158 59.9193 47.3311 59.9119C47.3416 59.9068 47.3522 59.9025 47.3626 59.8971C47.3788 59.8884 47.3945 59.8785 47.4102 59.8688C47.4189 59.8634 47.4279 59.8587 47.4365 59.8531C47.4577 59.839 47.4781 59.8235 47.4981 59.8076C47.5007 59.8055 47.5035 59.8038 47.5061 59.8016C47.5288 59.7831 47.5508 59.7634 47.5717 59.7424L55.0922 52.2218C55.1201 52.1939 55.1451 52.1638 55.1689 52.1326C55.1746 52.1251 55.1802 52.1176 55.1856 52.11C55.2079 52.0787 55.2287 52.0466 55.2467 52.0129C55.2475 52.0113 55.2481 52.0097 55.2489 52.0082C55.2659 51.9758 55.2802 51.9422 55.293 51.908C55.2964 51.8991 55.2995 51.8902 55.3026 51.8811C55.3146 51.8453 55.3253 51.8087 55.3328 51.7715C55.3328 51.7712 55.3329 51.771 55.3329 51.7708C55.3402 51.7341 55.3443 51.6966 55.3469 51.659C55.3476 51.6491 55.348 51.6394 55.3483 51.6296C55.3486 51.6196 55.3497 51.6099 55.3497 51.5999V20.6608C55.3497 20.1751 54.9559 19.7812 54.4701 19.7812C53.9842 19.7812 53.5905 20.1751 53.5905 20.6608V50.7201H46.9499C46.4641 50.7201 46.0703 51.1139 46.0703 51.5997V58.2406H17.2639V51.6942H36.0951C36.1023 51.6942 36.1092 51.6933 36.1162 51.6932C36.1378 51.6927 36.1593 51.6921 36.1808 51.69C36.1975 51.6884 36.2141 51.6853 36.2306 51.6826C36.2422 51.6809 36.254 51.6797 36.2656 51.6774C36.2833 51.6738 36.3005 51.6689 36.3179 51.6644C36.3281 51.6617 36.3386 51.6597 36.3487 51.6566C36.3655 51.6516 36.3819 51.6451 36.3983 51.639C36.4087 51.6352 36.4193 51.632 36.4296 51.6278C36.4454 51.6212 36.4606 51.6135 36.476 51.6061C36.4864 51.6011 36.4971 51.5967 36.5074 51.5913C36.5237 51.5827 36.5394 51.5727 36.5551 51.563C36.5637 51.5576 36.5728 51.5529 36.5813 51.5473C36.6025 51.5332 36.6229 51.5179 36.643 51.5018C36.6455 51.4997 36.6484 51.498 36.6509 51.496C36.6737 51.4774 36.6956 51.4576 36.7166 51.4368L44.237 43.9162C44.2649 43.8883 44.29 43.8582 44.3138 43.827C44.3195 43.8196 44.3251 43.8121 44.3304 43.8046C44.3528 43.7733 44.3737 43.7411 44.3916 43.7072C44.3923 43.7058 44.3929 43.7044 44.3936 43.703C44.4107 43.6705 44.425 43.6368 44.4379 43.6023C44.4412 43.5934 44.4445 43.5846 44.4474 43.5756C44.4596 43.5398 44.4703 43.5033 44.4776 43.4658C44.4776 43.4656 44.4776 43.4653 44.4778 43.4651C44.485 43.4284 44.4891 43.3908 44.4917 43.3532C44.4924 43.3434 44.4928 43.3336 44.4931 43.3238C44.4935 43.3138 44.4946 43.3041 44.4946 43.2941V10.0649H53.5904V17.1423C53.5909 17.628 53.9847 18.0219 54.4706 18.0219ZM47.8297 52.4793H52.347L47.8297 56.9966V52.4793ZM36.9746 48.6911V44.1737H41.4919L36.9746 48.6911Z" fill="#F16522"/>
<path d="M30.8244 14.5205C30.3725 14.0686 29.7716 13.8197 29.1326 13.8197C28.4935 13.8198 27.8927 14.0687 27.4407 14.5206L22.2505 19.7108L20.5012 17.9616C20.0495 17.5097 19.4485 17.2608 18.8094 17.2608C18.1703 17.2608 17.5695 17.5097 17.1176 17.9616C16.1848 18.8945 16.1848 20.4123 17.1176 21.3451L20.5588 24.7863C21.0108 25.2382 21.6116 25.4871 22.2505 25.4871C22.8896 25.4871 23.4905 25.2381 23.9423 24.7862L30.8243 17.9043C31.2761 17.4524 31.5252 16.8515 31.5252 16.2124C31.5252 15.5732 31.2764 14.9724 30.8244 14.5205ZM29.5802 16.6601L22.6982 23.5422C22.5785 23.6618 22.4196 23.7277 22.2505 23.7277C22.0839 23.7277 21.9206 23.6599 21.8028 23.5423L18.3618 20.1012C18.1147 19.8541 18.1147 19.4523 18.3618 19.2055C18.4814 19.0859 18.6403 19.0201 18.8094 19.0201C18.9785 19.0201 19.1375 19.0859 19.2571 19.2055L21.6283 21.5768C21.7933 21.7418 22.0171 21.8345 22.2504 21.8345C22.4837 21.8345 22.7073 21.7418 22.8724 21.5768L28.6848 15.7644C28.8044 15.6448 28.9635 15.5789 29.1326 15.5789C29.3015 15.5789 29.4606 15.6448 29.5802 15.7644C29.6999 15.8841 29.7656 16.0431 29.7656 16.2122C29.7658 16.3814 29.6999 16.5404 29.5802 16.6601Z" fill="#F16522"/>
<path d="M23.9704 6.55688C21.271 6.55688 18.6849 7.38071 16.4917 8.9393C16.0958 9.22067 16.0028 9.76981 16.2842 10.1659C16.5656 10.5619 17.1145 10.6548 17.5108 10.3733C19.4046 9.02743 21.6383 8.3161 23.9703 8.3161C30.1263 8.3161 35.1346 13.3245 35.1346 19.4804C35.1346 25.6364 30.1263 30.6448 23.9703 30.6448C17.8143 30.6448 12.806 25.6365 12.806 19.4804C12.806 16.978 13.6148 14.6132 15.145 12.6415C15.443 12.2577 15.3734 11.705 14.9896 11.4073C14.606 11.1095 14.0534 11.179 13.7554 11.5628C11.9834 13.8458 11.0469 16.5838 11.0469 19.4804C11.0469 26.6066 16.8444 32.4041 23.9704 32.4041C31.0964 32.4041 36.8939 26.6066 36.8939 19.4804C36.8939 12.3543 31.0966 6.55688 23.9704 6.55688Z" fill="#F16522"/>
</svg>
