<svg width="60" height="60" viewBox="0 0 60 60" fill="none" xmlns="http://www.w3.org/2000/svg">
<g clip-path="url(#clip0_256_3949)">
<path d="M47.3772 32.1838H16.8275C16.3421 32.1838 15.9487 32.5774 15.9487 33.0626C15.9487 33.5479 16.3422 33.9414 16.8275 33.9414H47.3774C47.8628 33.9414 48.2562 33.5479 48.2562 33.0626C48.2562 32.5774 47.8626 32.1838 47.3772 32.1838Z" fill="#F16522"/>
<path d="M47.3772 37.847H16.8275C16.3421 37.847 15.9487 38.2406 15.9487 38.7258C15.9487 39.2111 16.3422 39.6046 16.8275 39.6046H47.3774C47.8628 39.6046 48.2562 39.2111 48.2562 38.7258C48.2562 38.2406 47.8626 37.847 47.3772 37.847Z" fill="#F16522"/>
<path d="M47.3772 43.51H16.8275C16.3421 43.51 15.9487 43.9035 15.9487 44.3888C15.9487 44.8741 16.3422 45.2676 16.8275 45.2676H47.3774C47.8628 45.2676 48.2562 44.8741 48.2562 44.3888C48.2562 43.9035 47.8626 43.51 47.3772 43.51Z" fill="#F16522"/>
<path d="M47.3772 49.1732H16.8275C16.3421 49.1732 15.9487 49.5667 15.9487 50.052C15.9487 50.5373 16.3422 50.9308 16.8275 50.9308H47.3774C47.8628 50.9308 48.2562 50.5373 48.2562 50.052C48.2562 49.5667 47.8626 49.1732 47.3772 49.1732Z" fill="#F16522"/>
<path d="M47.3775 20.5901H36.1517C35.6663 20.5901 35.2729 20.9836 35.2729 21.4689C35.2729 21.9541 35.6665 22.3477 36.1517 22.3477H47.3775C47.8629 22.3477 48.2563 21.9541 48.2563 21.4689C48.2563 20.9836 47.8629 20.5901 47.3775 20.5901Z" fill="#F16522"/>
<path d="M47.3775 15.9446H36.1517C35.6663 15.9446 35.2729 16.3381 35.2729 16.8234C35.2729 17.3086 35.6665 17.7022 36.1517 17.7022H47.3775C47.8629 17.7022 48.2563 17.3086 48.2563 16.8234C48.2563 16.3381 47.8629 15.9446 47.3775 15.9446Z" fill="#F16522"/>
<path d="M53.4642 48.8766C53.9496 48.8766 54.343 48.483 54.343 47.9978V8.58375C54.343 6.67805 52.7926 5.12766 50.8869 5.12766H49.2153V3.45609C49.2155 1.55039 47.6651 0 45.7594 0H9.11283C7.20713 0 5.65674 1.55039 5.65674 3.45609V51.4163C5.65674 53.322 7.20713 54.8723 9.11283 54.8723H10.7843V56.5438C10.7843 58.4495 12.3347 59.9999 14.2404 59.9999H50.8868C52.7925 59.9999 54.3429 58.4495 54.3429 56.5438V52.1063C54.3429 51.6209 53.9494 51.2275 53.4641 51.2275C52.9788 51.2275 52.5853 51.621 52.5853 52.1063V56.5439C52.5853 57.4805 51.8233 58.2423 50.8869 58.2423H14.2405C13.3039 58.2423 12.5421 57.4805 12.5421 56.5439V8.58375C12.5421 7.64719 13.304 6.88535 14.2405 6.88535H50.8869C51.8235 6.88535 52.5853 7.64731 52.5853 8.58375V47.9978C52.5853 48.483 52.9788 48.8766 53.4642 48.8766ZM10.7843 8.58375V53.1148H9.11283C8.17627 53.1148 7.41443 52.3528 7.41443 51.4164V3.45609C7.41443 2.51953 8.17639 1.7577 9.11283 1.7577H45.7594C46.6959 1.7577 47.4578 2.51965 47.4578 3.45609V5.12754H14.2405C12.3348 5.12766 10.7843 6.67805 10.7843 8.58375Z" fill="#F16522"/>
<path d="M16.7573 17.3615C16.2719 17.3615 15.8785 17.755 15.8785 18.2403V24.8774C15.8785 26.2557 16.909 27.4041 18.2769 27.5524C18.6084 27.5886 28.0806 27.5537 28.0946 27.5535C28.0978 27.5532 28.1011 27.5528 28.1042 27.5525C29.4729 27.4048 30.5039 26.2562 30.5039 24.8774V13.415C30.5039 11.9313 29.2969 10.7242 27.8131 10.7242H18.5692C17.0854 10.7242 15.8784 11.9313 15.8784 13.415V14.103C15.8784 14.5884 16.2719 14.9818 16.7572 14.9818C17.2425 14.9818 17.636 14.5883 17.636 14.103V13.415C17.636 12.9005 18.0546 12.4819 18.569 12.4819H27.813C28.3275 12.4819 28.7461 12.9004 28.7461 13.415V22.4125C28.0746 21.7013 27.2694 21.1224 26.3695 20.7123C26.7467 20.118 26.9559 19.4218 26.9559 18.6957C26.9559 16.6198 25.267 14.9309 23.191 14.9309C21.1152 14.9309 19.4263 16.6198 19.4263 18.6957C19.4263 19.4219 19.6354 20.118 20.0127 20.7123C19.1127 21.1224 18.3075 21.7013 17.636 22.4126V18.2403C17.6361 17.7549 17.2427 17.3615 16.7573 17.3615ZM23.1912 16.6885C24.298 16.6885 25.1983 17.5889 25.1983 18.6957C25.1983 19.3661 24.8653 19.9898 24.3076 20.3641C23.9772 20.5857 23.5912 20.7029 23.1912 20.7029C22.7911 20.7029 22.4051 20.5858 22.0748 20.3641C21.517 19.9898 21.1841 19.3661 21.1841 18.6957C21.1841 17.5889 22.0844 16.6885 23.1912 16.6885ZM21.4639 22.0387C21.9957 22.3141 22.5846 22.4605 23.1912 22.4605C23.7976 22.4605 24.3865 22.3141 24.9184 22.0387C26.5821 22.5473 27.9285 23.7622 28.6079 25.3679C28.4613 25.6062 28.2099 25.7738 27.913 25.8051C27.8563 25.8086 18.6231 25.818 18.4895 25.807L18.4703 25.8052C18.4698 25.8052 18.4693 25.8051 18.4688 25.8051C18.172 25.7737 17.9209 25.6061 17.7743 25.3679C18.4538 23.7622 19.8002 22.5473 21.4639 22.0387Z" fill="#F16522"/>
</g>
<defs>
<clipPath id="clip0_256_3949">
<rect width="60" height="60" fill="white"/>
</clipPath>
</defs>
</svg>
