<svg width="16" height="22" viewBox="0 0 16 22" fill="none" xmlns="http://www.w3.org/2000/svg">
<path d="M14.0771 3.76739C12.7419 1.46324 10.3704 0.0555371 7.73315 0.00174023C7.62057 -0.000580078 7.50726 -0.000580078 7.39464 0.00174023C4.75748 0.0555371 2.38594 1.46324 1.05073 3.76739C-0.314041 6.1226 -0.351381 8.95166 0.95083 11.3352L6.40627 21.3206C6.40872 21.325 6.41117 21.3294 6.41371 21.3338C6.65373 21.751 7.08372 22 7.56398 22C8.0442 22 8.47419 21.7509 8.71417 21.3338C8.7167 21.3294 8.71915 21.325 8.7216 21.3206L14.177 11.3352C15.4792 8.95166 15.4418 6.1226 14.0771 3.76739V3.76739ZM7.56389 9.96877C5.85799 9.96877 4.47014 8.58092 4.47014 6.87502C4.47014 5.16912 5.85799 3.78127 7.56389 3.78127C9.2698 3.78127 10.6576 5.16912 10.6576 6.87502C10.6576 8.58092 9.26984 9.96877 7.56389 9.96877Z" fill="white"/>
</svg>
