<svg width="44" height="44" viewBox="0 0 44 44" fill="none" xmlns="http://www.w3.org/2000/svg">
<circle cx="22" cy="22" r="21.75" stroke="#F16522" stroke-width="0.5"/>
<g clip-path="url(#clip0_173:32)">
<path d="M28.5131 14.7674C27.1779 12.4632 24.8064 11.0555 22.1692 11.0017C22.0566 10.9994 21.9433 10.9994 21.8307 11.0017C19.1935 11.0555 16.822 12.4632 15.4868 14.7674C14.122 17.1226 14.0847 19.9517 15.3869 22.3352L20.8423 32.3206C20.8448 32.325 20.8472 32.3294 20.8497 32.3338C21.0898 32.751 21.5198 33 22 33C22.4802 33 22.9102 32.7509 23.1502 32.3338C23.1527 32.3294 23.1552 32.325 23.1576 32.3206L28.6131 22.3352C29.9152 19.9517 29.8779 17.1226 28.5131 14.7674ZM21.9999 20.9688C20.294 20.9688 18.9062 19.5809 18.9062 17.875C18.9062 16.1691 20.294 14.7813 21.9999 14.7813C23.7058 14.7813 25.0937 16.1691 25.0937 17.875C25.0937 19.5809 23.7059 20.9688 21.9999 20.9688Z" fill="#F16522"/>
</g>
<defs>
<clipPath id="clip0_173:32">
<rect width="22" height="22" fill="white" transform="translate(11 11)"/>
</clipPath>
</defs>
</svg>
