<svg width="66" height="36" viewBox="0 0 66 36" fill="none" xmlns="http://www.w3.org/2000/svg">
<mask id="path-1-inside-1_158:323" fill="white">
<path d="M36.0559 24.6647C35.4296 24.6647 34.9221 25.1683 34.9221 25.7897C34.9221 26.9531 33.968 27.8998 32.7954 27.8998H25.6678C25.3446 27.8998 25.0367 28.0367 24.8216 28.2761L21.5432 31.9232V29.025C21.5432 28.4037 21.0355 27.9 20.4093 27.9H4.39457C3.2218 27.9 2.26783 26.9533 2.26783 25.7898V11.5602C2.26783 10.3965 3.22194 9.45001 4.39457 9.45001H26.0783C26.7044 9.45001 27.2121 8.94631 27.2121 8.325C27.2121 7.70369 26.7044 7.19999 26.0783 7.19999H4.39457C1.97132 7.19999 0 9.1561 0 11.5603V25.7898C0 28.194 1.97147 30.1501 4.39457 30.1501H19.2752V34.875C19.2752 35.3417 19.5657 35.7601 20.0053 35.9263C20.1369 35.976 20.2735 36 20.409 36C20.726 36 21.036 35.8679 21.2555 35.6237L26.1759 30.15H32.7955C35.2186 30.15 37.1901 28.1939 37.1901 25.7897C37.1899 25.1683 36.6821 24.6647 36.0559 24.6647Z"/>
<path d="M61.6053 0H59.0271C58.4007 0 57.8932 0.503693 57.8932 1.12501C57.8932 1.74632 58.4007 2.25001 59.0271 2.25001H61.6053C62.7781 2.25001 63.732 3.19668 63.732 4.36017V18.5897C63.732 19.7531 62.7779 20.6998 61.6053 20.6998H45.5907C44.9643 20.6998 44.4568 21.2035 44.4568 21.8248V24.7231L41.1784 21.0759C40.9631 20.8368 40.6553 20.6997 40.3321 20.6997H33.2045C32.0317 20.6997 31.0778 19.753 31.0778 18.5895V4.36017C31.0778 3.19654 32.0317 2.25001 33.2045 2.25001H55.3989C56.0253 2.25001 56.5328 1.74632 56.5328 1.12501C56.5328 0.503693 56.0253 0 55.3989 0H33.2044C30.7813 0 28.8098 1.95611 28.8098 4.36031V18.5898C28.8098 20.994 30.7813 22.95 33.2044 22.95H39.824L44.7443 28.4237C44.9639 28.6678 45.2738 28.8 45.591 28.8C45.7265 28.8 45.8632 28.7759 45.9945 28.7261C46.4342 28.5599 46.7247 28.1415 46.7247 27.6749V22.95H61.6054C64.0285 22.95 66 20.9939 66 18.5897V4.36017C65.9999 1.95581 64.0284 0 61.6053 0Z"/>
<path d="M58.9699 5.6998H46.1852C45.5589 5.6998 45.0514 6.20349 45.0514 6.82481C45.0514 7.44612 45.5589 7.94981 46.1852 7.94981H58.9699C59.5963 7.94981 60.1038 7.44612 60.1038 6.82481C60.1038 6.20349 59.5963 5.6998 58.9699 5.6998Z"/>
<path d="M42.4055 5.6998H35.8398C35.2135 5.6998 34.706 6.20349 34.706 6.82481C34.706 7.44612 35.2135 7.94981 35.8398 7.94981H42.4055C43.0319 7.94981 43.5394 7.44612 43.5394 6.82481C43.5394 6.20349 43.0319 5.6998 42.4055 5.6998Z"/>
<path d="M58.9701 10.3123H55.0295C54.4032 10.3123 53.8957 10.816 53.8957 11.4373C53.8957 12.0586 54.4032 12.5623 55.0295 12.5623H58.9701C59.5964 12.5623 60.1039 12.0586 60.1039 11.4373C60.1039 10.816 59.5964 10.3123 58.9701 10.3123Z"/>
<path d="M51.2495 10.3123H35.8398C35.2135 10.3123 34.706 10.816 34.706 11.4373C34.706 12.0586 35.2135 12.5623 35.8398 12.5623H51.2495C51.8758 12.5623 52.3833 12.0586 52.3833 11.4373C52.3833 10.816 51.8758 10.3123 51.2495 10.3123Z"/>
<path d="M51.9298 14.9248H35.8398C35.2135 14.9248 34.706 15.4285 34.706 16.0498C34.706 16.6711 35.2135 17.1748 35.8398 17.1748H51.9298C52.5561 17.1748 53.0637 16.6711 53.0637 16.0498C53.0637 15.4285 52.5561 14.9248 51.9298 14.9248Z"/>
<path d="M13.2278 12.4498H6.66214C6.03595 12.4498 5.5283 12.9535 5.5283 13.5748C5.5283 14.1961 6.03595 14.6998 6.66214 14.6998H13.2278C13.854 14.6998 14.3617 14.1961 14.3617 13.5748C14.3618 12.9535 13.854 12.4498 13.2278 12.4498Z"/>
<path d="M24.3395 12.4498H17.7738C17.1476 12.4498 16.64 12.9535 16.64 13.5748C16.64 14.1961 17.1476 14.6998 17.7738 14.6998H24.3395C24.9657 14.6998 25.4733 14.1961 25.4733 13.5748C25.4733 12.9535 24.9657 12.4498 24.3395 12.4498Z"/>
<path d="M26.5318 17.0623H6.66214C6.03595 17.0623 5.5283 17.566 5.5283 18.1873C5.5283 18.8086 6.03595 19.3123 6.66214 19.3123H26.5317C27.1579 19.3123 27.6655 18.8086 27.6655 18.1873C27.6657 17.566 27.158 17.0623 26.5318 17.0623Z"/>
<path d="M22.7522 21.6748H13.6817C13.0555 21.6748 12.5479 22.1785 12.5479 22.7998C12.5479 23.4211 13.0555 23.9248 13.6817 23.9248H22.7522C23.3784 23.9248 23.886 23.4211 23.886 22.7998C23.886 22.1786 23.3784 21.6748 22.7522 21.6748Z"/>
<path d="M9.90178 21.6748H6.66214C6.03595 21.6748 5.5283 22.1785 5.5283 22.7998C5.5283 23.4211 6.03595 23.9248 6.66214 23.9248H9.90178C10.528 23.9248 11.0356 23.4211 11.0356 22.7998C11.0356 22.1786 10.528 21.6748 9.90178 21.6748Z"/>
</mask>
<path d="M36.0559 24.6647C35.4296 24.6647 34.9221 25.1683 34.9221 25.7897C34.9221 26.9531 33.968 27.8998 32.7954 27.8998H25.6678C25.3446 27.8998 25.0367 28.0367 24.8216 28.2761L21.5432 31.9232V29.025C21.5432 28.4037 21.0355 27.9 20.4093 27.9H4.39457C3.2218 27.9 2.26783 26.9533 2.26783 25.7898V11.5602C2.26783 10.3965 3.22194 9.45001 4.39457 9.45001H26.0783C26.7044 9.45001 27.2121 8.94631 27.2121 8.325C27.2121 7.70369 26.7044 7.19999 26.0783 7.19999H4.39457C1.97132 7.19999 0 9.1561 0 11.5603V25.7898C0 28.194 1.97147 30.1501 4.39457 30.1501H19.2752V34.875C19.2752 35.3417 19.5657 35.7601 20.0053 35.9263C20.1369 35.976 20.2735 36 20.409 36C20.726 36 21.036 35.8679 21.2555 35.6237L26.1759 30.15H32.7955C35.2186 30.15 37.1901 28.1939 37.1901 25.7897C37.1899 25.1683 36.6821 24.6647 36.0559 24.6647Z" fill="#F16522"/>
<path d="M61.6053 0H59.0271C58.4007 0 57.8932 0.503693 57.8932 1.12501C57.8932 1.74632 58.4007 2.25001 59.0271 2.25001H61.6053C62.7781 2.25001 63.732 3.19668 63.732 4.36017V18.5897C63.732 19.7531 62.7779 20.6998 61.6053 20.6998H45.5907C44.9643 20.6998 44.4568 21.2035 44.4568 21.8248V24.7231L41.1784 21.0759C40.9631 20.8368 40.6553 20.6997 40.3321 20.6997H33.2045C32.0317 20.6997 31.0778 19.753 31.0778 18.5895V4.36017C31.0778 3.19654 32.0317 2.25001 33.2045 2.25001H55.3989C56.0253 2.25001 56.5328 1.74632 56.5328 1.12501C56.5328 0.503693 56.0253 0 55.3989 0H33.2044C30.7813 0 28.8098 1.95611 28.8098 4.36031V18.5898C28.8098 20.994 30.7813 22.95 33.2044 22.95H39.824L44.7443 28.4237C44.9639 28.6678 45.2738 28.8 45.591 28.8C45.7265 28.8 45.8632 28.7759 45.9945 28.7261C46.4342 28.5599 46.7247 28.1415 46.7247 27.6749V22.95H61.6054C64.0285 22.95 66 20.9939 66 18.5897V4.36017C65.9999 1.95581 64.0284 0 61.6053 0Z" fill="#F16522"/>
<path d="M58.9699 5.6998H46.1852C45.5589 5.6998 45.0514 6.20349 45.0514 6.82481C45.0514 7.44612 45.5589 7.94981 46.1852 7.94981H58.9699C59.5963 7.94981 60.1038 7.44612 60.1038 6.82481C60.1038 6.20349 59.5963 5.6998 58.9699 5.6998Z" fill="#F16522"/>
<path d="M42.4055 5.6998H35.8398C35.2135 5.6998 34.706 6.20349 34.706 6.82481C34.706 7.44612 35.2135 7.94981 35.8398 7.94981H42.4055C43.0319 7.94981 43.5394 7.44612 43.5394 6.82481C43.5394 6.20349 43.0319 5.6998 42.4055 5.6998Z" fill="#F16522"/>
<path d="M58.9701 10.3123H55.0295C54.4032 10.3123 53.8957 10.816 53.8957 11.4373C53.8957 12.0586 54.4032 12.5623 55.0295 12.5623H58.9701C59.5964 12.5623 60.1039 12.0586 60.1039 11.4373C60.1039 10.816 59.5964 10.3123 58.9701 10.3123Z" fill="#F16522"/>
<path d="M51.2495 10.3123H35.8398C35.2135 10.3123 34.706 10.816 34.706 11.4373C34.706 12.0586 35.2135 12.5623 35.8398 12.5623H51.2495C51.8758 12.5623 52.3833 12.0586 52.3833 11.4373C52.3833 10.816 51.8758 10.3123 51.2495 10.3123Z" fill="#F16522"/>
<path d="M51.9298 14.9248H35.8398C35.2135 14.9248 34.706 15.4285 34.706 16.0498C34.706 16.6711 35.2135 17.1748 35.8398 17.1748H51.9298C52.5561 17.1748 53.0637 16.6711 53.0637 16.0498C53.0637 15.4285 52.5561 14.9248 51.9298 14.9248Z" fill="#F16522"/>
<path d="M13.2278 12.4498H6.66214C6.03595 12.4498 5.5283 12.9535 5.5283 13.5748C5.5283 14.1961 6.03595 14.6998 6.66214 14.6998H13.2278C13.854 14.6998 14.3617 14.1961 14.3617 13.5748C14.3618 12.9535 13.854 12.4498 13.2278 12.4498Z" fill="#F16522"/>
<path d="M24.3395 12.4498H17.7738C17.1476 12.4498 16.64 12.9535 16.64 13.5748C16.64 14.1961 17.1476 14.6998 17.7738 14.6998H24.3395C24.9657 14.6998 25.4733 14.1961 25.4733 13.5748C25.4733 12.9535 24.9657 12.4498 24.3395 12.4498Z" fill="#F16522"/>
<path d="M26.5318 17.0623H6.66214C6.03595 17.0623 5.5283 17.566 5.5283 18.1873C5.5283 18.8086 6.03595 19.3123 6.66214 19.3123H26.5317C27.1579 19.3123 27.6655 18.8086 27.6655 18.1873C27.6657 17.566 27.158 17.0623 26.5318 17.0623Z" fill="#F16522"/>
<path d="M22.7522 21.6748H13.6817C13.0555 21.6748 12.5479 22.1785 12.5479 22.7998C12.5479 23.4211 13.0555 23.9248 13.6817 23.9248H22.7522C23.3784 23.9248 23.886 23.4211 23.886 22.7998C23.886 22.1786 23.3784 21.6748 22.7522 21.6748Z" fill="#F16522"/>
<path d="M9.90178 21.6748H6.66214C6.03595 21.6748 5.5283 22.1785 5.5283 22.7998C5.5283 23.4211 6.03595 23.9248 6.66214 23.9248H9.90178C10.528 23.9248 11.0356 23.4211 11.0356 22.7998C11.0356 22.1786 10.528 21.6748 9.90178 21.6748Z" fill="#F16522"/>
<path d="M36.0559 24.6647C35.4296 24.6647 34.9221 25.1683 34.9221 25.7897C34.9221 26.9531 33.968 27.8998 32.7954 27.8998H25.6678C25.3446 27.8998 25.0367 28.0367 24.8216 28.2761L21.5432 31.9232V29.025C21.5432 28.4037 21.0355 27.9 20.4093 27.9H4.39457C3.2218 27.9 2.26783 26.9533 2.26783 25.7898V11.5602C2.26783 10.3965 3.22194 9.45001 4.39457 9.45001H26.0783C26.7044 9.45001 27.2121 8.94631 27.2121 8.325C27.2121 7.70369 26.7044 7.19999 26.0783 7.19999H4.39457C1.97132 7.19999 0 9.1561 0 11.5603V25.7898C0 28.194 1.97147 30.1501 4.39457 30.1501H19.2752V34.875C19.2752 35.3417 19.5657 35.7601 20.0053 35.9263C20.1369 35.976 20.2735 36 20.409 36C20.726 36 21.036 35.8679 21.2555 35.6237L26.1759 30.15H32.7955C35.2186 30.15 37.1901 28.1939 37.1901 25.7897C37.1899 25.1683 36.6821 24.6647 36.0559 24.6647Z" stroke="#F16522" stroke-width="2" mask="url(#path-1-inside-1_158:323)"/>
<path d="M61.6053 0H59.0271C58.4007 0 57.8932 0.503693 57.8932 1.12501C57.8932 1.74632 58.4007 2.25001 59.0271 2.25001H61.6053C62.7781 2.25001 63.732 3.19668 63.732 4.36017V18.5897C63.732 19.7531 62.7779 20.6998 61.6053 20.6998H45.5907C44.9643 20.6998 44.4568 21.2035 44.4568 21.8248V24.7231L41.1784 21.0759C40.9631 20.8368 40.6553 20.6997 40.3321 20.6997H33.2045C32.0317 20.6997 31.0778 19.753 31.0778 18.5895V4.36017C31.0778 3.19654 32.0317 2.25001 33.2045 2.25001H55.3989C56.0253 2.25001 56.5328 1.74632 56.5328 1.12501C56.5328 0.503693 56.0253 0 55.3989 0H33.2044C30.7813 0 28.8098 1.95611 28.8098 4.36031V18.5898C28.8098 20.994 30.7813 22.95 33.2044 22.95H39.824L44.7443 28.4237C44.9639 28.6678 45.2738 28.8 45.591 28.8C45.7265 28.8 45.8632 28.7759 45.9945 28.7261C46.4342 28.5599 46.7247 28.1415 46.7247 27.6749V22.95H61.6054C64.0285 22.95 66 20.9939 66 18.5897V4.36017C65.9999 1.95581 64.0284 0 61.6053 0Z" stroke="#F16522" stroke-width="2" mask="url(#path-1-inside-1_158:323)"/>
<path d="M58.9699 5.6998H46.1852C45.5589 5.6998 45.0514 6.20349 45.0514 6.82481C45.0514 7.44612 45.5589 7.94981 46.1852 7.94981H58.9699C59.5963 7.94981 60.1038 7.44612 60.1038 6.82481C60.1038 6.20349 59.5963 5.6998 58.9699 5.6998Z" stroke="#F16522" stroke-width="2" mask="url(#path-1-inside-1_158:323)"/>
<path d="M42.4055 5.6998H35.8398C35.2135 5.6998 34.706 6.20349 34.706 6.82481C34.706 7.44612 35.2135 7.94981 35.8398 7.94981H42.4055C43.0319 7.94981 43.5394 7.44612 43.5394 6.82481C43.5394 6.20349 43.0319 5.6998 42.4055 5.6998Z" stroke="#F16522" stroke-width="2" mask="url(#path-1-inside-1_158:323)"/>
<path d="M58.9701 10.3123H55.0295C54.4032 10.3123 53.8957 10.816 53.8957 11.4373C53.8957 12.0586 54.4032 12.5623 55.0295 12.5623H58.9701C59.5964 12.5623 60.1039 12.0586 60.1039 11.4373C60.1039 10.816 59.5964 10.3123 58.9701 10.3123Z" stroke="#F16522" stroke-width="2" mask="url(#path-1-inside-1_158:323)"/>
<path d="M51.2495 10.3123H35.8398C35.2135 10.3123 34.706 10.816 34.706 11.4373C34.706 12.0586 35.2135 12.5623 35.8398 12.5623H51.2495C51.8758 12.5623 52.3833 12.0586 52.3833 11.4373C52.3833 10.816 51.8758 10.3123 51.2495 10.3123Z" stroke="#F16522" stroke-width="2" mask="url(#path-1-inside-1_158:323)"/>
<path d="M51.9298 14.9248H35.8398C35.2135 14.9248 34.706 15.4285 34.706 16.0498C34.706 16.6711 35.2135 17.1748 35.8398 17.1748H51.9298C52.5561 17.1748 53.0637 16.6711 53.0637 16.0498C53.0637 15.4285 52.5561 14.9248 51.9298 14.9248Z" stroke="#F16522" stroke-width="2" mask="url(#path-1-inside-1_158:323)"/>
<path d="M13.2278 12.4498H6.66214C6.03595 12.4498 5.5283 12.9535 5.5283 13.5748C5.5283 14.1961 6.03595 14.6998 6.66214 14.6998H13.2278C13.854 14.6998 14.3617 14.1961 14.3617 13.5748C14.3618 12.9535 13.854 12.4498 13.2278 12.4498Z" stroke="#F16522" stroke-width="2" mask="url(#path-1-inside-1_158:323)"/>
<path d="M24.3395 12.4498H17.7738C17.1476 12.4498 16.64 12.9535 16.64 13.5748C16.64 14.1961 17.1476 14.6998 17.7738 14.6998H24.3395C24.9657 14.6998 25.4733 14.1961 25.4733 13.5748C25.4733 12.9535 24.9657 12.4498 24.3395 12.4498Z" stroke="#F16522" stroke-width="2" mask="url(#path-1-inside-1_158:323)"/>
<path d="M26.5318 17.0623H6.66214C6.03595 17.0623 5.5283 17.566 5.5283 18.1873C5.5283 18.8086 6.03595 19.3123 6.66214 19.3123H26.5317C27.1579 19.3123 27.6655 18.8086 27.6655 18.1873C27.6657 17.566 27.158 17.0623 26.5318 17.0623Z" stroke="#F16522" stroke-width="2" mask="url(#path-1-inside-1_158:323)"/>
<path d="M22.7522 21.6748H13.6817C13.0555 21.6748 12.5479 22.1785 12.5479 22.7998C12.5479 23.4211 13.0555 23.9248 13.6817 23.9248H22.7522C23.3784 23.9248 23.886 23.4211 23.886 22.7998C23.886 22.1786 23.3784 21.6748 22.7522 21.6748Z" stroke="#F16522" stroke-width="2" mask="url(#path-1-inside-1_158:323)"/>
<path d="M9.90178 21.6748H6.66214C6.03595 21.6748 5.5283 22.1785 5.5283 22.7998C5.5283 23.4211 6.03595 23.9248 6.66214 23.9248H9.90178C10.528 23.9248 11.0356 23.4211 11.0356 22.7998C11.0356 22.1786 10.528 21.6748 9.90178 21.6748Z" stroke="#F16522" stroke-width="2" mask="url(#path-1-inside-1_158:323)"/>
</svg>
