<svg width="44" height="44" viewBox="0 0 44 44" fill="none" xmlns="http://www.w3.org/2000/svg">
<circle cx="22" cy="22" r="21.75" stroke="#F16522" stroke-width="0.5"/>
<path d="M25.2552 22.9131L23.4127 24.7619C22.6655 25.5117 21.3508 25.5278 20.5875 24.7619L18.7448 22.9131L12.127 29.5524C12.3733 29.6664 12.6449 29.7343 12.9336 29.7343H31.0665C31.3552 29.7343 31.6267 29.6664 31.873 29.5525L25.2552 22.9131Z" fill="#F16522"/>
<path d="M31.0664 14.2656H12.9336C12.6448 14.2656 12.3732 14.3336 12.127 14.4475L19.1986 21.5426C19.1991 21.5431 19.1997 21.5432 19.2001 21.5437C19.2006 21.5441 19.2007 21.5448 19.2007 21.5448L21.5001 23.8518C21.7443 24.096 22.2557 24.096 22.5 23.8518L24.7989 21.5452C24.7989 21.5452 24.7994 21.5441 24.7999 21.5437C24.7999 21.5437 24.8009 21.5431 24.8014 21.5426L31.8729 14.4475C31.6266 14.3335 31.3551 14.2656 31.0664 14.2656Z" fill="#F16522"/>
<path d="M11.2056 15.3489C11.0782 15.6066 11 15.8927 11 16.1991V27.8007C11 28.1072 11.0781 28.3932 11.2056 28.651L17.835 22.0001L11.2056 15.3489Z" fill="#F16522"/>
<path d="M32.7933 15.3489L26.1641 22.0002L32.7933 28.6511C32.9208 28.3934 32.999 28.1073 32.999 27.8008V16.1992C32.999 15.8927 32.9208 15.6066 32.7933 15.3489Z" fill="#F16522"/>
</svg>
