<svg width="44" height="44" viewBox="0 0 44 44" fill="none" xmlns="http://www.w3.org/2000/svg">
<circle cx="22" cy="22" r="21.75" stroke="#F16522" stroke-width="0.5"/>
<path d="M17.3867 25.1453C18.1063 25.7438 18.9368 26.1947 19.8308 26.4722C19.2601 25.8645 18.8099 25.1541 18.5039 24.3787C18.1076 24.5975 17.7334 24.8542 17.3867 25.1453Z" fill="#F16522"/>
<path d="M19.8136 12.7153C18.9277 12.997 18.1047 13.4476 17.3901 14.0421C17.7351 14.3297 18.1056 14.5852 18.497 14.8053C18.7987 14.0311 19.2456 13.3217 19.8136 12.7153Z" fill="#F16522"/>
<path d="M18.2531 15.455C17.8565 16.6817 17.6456 17.9609 17.6274 19.25H14.7915C14.8361 18.2864 15.0746 17.3417 15.4928 16.4725L15.7815 16.5H15.8124C15.9038 16.5002 15.9915 16.4644 16.0565 16.4003C16.0919 16.3643 16.1191 16.3211 16.1363 16.2736C16.1535 16.2262 16.1603 16.1756 16.1562 16.1253L16.0943 15.4481C16.3291 15.113 16.5912 14.798 16.8781 14.5062C17.301 14.871 17.762 15.189 18.2531 15.455Z" fill="#F16522"/>
<path d="M17.6343 19.9375H14.7983C14.8785 21.7221 15.6198 23.4131 16.878 24.6813C17.3026 24.3135 17.766 23.9931 18.2599 23.7256C17.8628 22.5014 17.6519 21.2244 17.6343 19.9375Z" fill="#F16522"/>
<path d="M25.6816 19.9375H22.3438V22H25.4684C25.5947 21.3193 25.666 20.6296 25.6816 19.9375Z" fill="#F16522"/>
<path d="M26.3722 19.25H29.2013C29.1176 17.4665 28.3753 15.7774 27.1181 14.5096C26.6963 14.8732 26.2365 15.1902 25.7466 15.455C26.1432 16.6817 26.354 17.9608 26.3722 19.25Z" fill="#F16522"/>
<path d="M26.1694 22H28.7991C29.036 21.3366 29.1715 20.6413 29.2013 19.9375H26.3688C26.354 20.629 26.2873 21.3184 26.1694 22Z" fill="#F16522"/>
<path d="M25.1041 15.7678C24.2295 16.1419 23.2942 16.3539 22.3438 16.3934V19.2499H25.6781C25.6563 18.0676 25.4629 16.8946 25.1041 15.7678Z" fill="#F16522"/>
<path d="M26.606 14.0421C25.893 13.4472 25.0711 12.9965 24.186 12.7153C24.7533 13.3223 25.2 14.0315 25.5026 14.8053C25.8935 14.586 26.2629 14.3305 26.606 14.0421Z" fill="#F16522"/>
<path d="M22.3438 12.4093V15.7059C23.2133 15.6661 24.0683 15.468 24.8669 15.1215C24.255 13.6296 23.3509 12.6018 22.3438 12.4093Z" fill="#F16522"/>
<path d="M22 28.5312C22 28.6224 22.0362 28.7098 22.1007 28.7743C22.1651 28.8387 22.2526 28.8749 22.3438 28.8749H31.2812C31.3724 28.8749 31.4599 28.8387 31.5243 28.7743C31.5888 28.7098 31.625 28.6224 31.625 28.5312V28.1874H22V28.5312Z" fill="#F16522"/>
<path d="M31.2812 22.6875H22.3438C22.2526 22.6875 22.1651 22.7237 22.1007 22.7882C22.0362 22.8526 22 22.9401 22 23.0312V27.5H31.625V23.0312C31.625 22.9401 31.5888 22.8526 31.5243 22.7882C31.4599 22.7237 31.3724 22.6875 31.2812 22.6875Z" fill="#F16522"/>
<path d="M18.3218 19.2499H21.6562V16.3934C20.7057 16.3539 19.7704 16.1419 18.8958 15.7678C18.537 16.8946 18.3436 18.0676 18.3218 19.2499Z" fill="#F16522"/>
<path d="M21.3123 26.6784V23.509C20.5565 23.5803 19.8165 23.7694 19.1191 24.0693C19.6588 25.3928 20.4288 26.345 21.3123 26.6784Z" fill="#F16522"/>
<path d="M18.8821 23.4231C19.6617 23.0889 20.4908 22.8845 21.3365 22.8181C21.3823 22.6056 21.4942 22.4131 21.6562 22.2681V19.9375H18.3184C18.3418 21.1201 18.5316 22.2935 18.8821 23.4231Z" fill="#F16522"/>
<path d="M19.1328 15.1215C19.9313 15.468 20.7864 15.6661 21.6559 15.7059V12.4093C20.6488 12.6018 19.7447 13.6296 19.1328 15.1215Z" fill="#F16522"/>
<path d="M16.1562 16.1253C16.1602 16.1756 16.1534 16.2262 16.1362 16.2736C16.119 16.3211 16.0918 16.3643 16.0565 16.4003C15.9914 16.4644 15.9037 16.5002 15.8124 16.5H15.7815L15.4927 16.4725L13.1071 16.2559C13.042 16.2495 12.98 16.2248 12.9283 16.1846C12.8766 16.1445 12.8373 16.0905 12.8149 16.029C12.7931 15.968 12.7889 15.9021 12.8029 15.8389C12.8169 15.7756 12.8484 15.7176 12.894 15.6715L13.3821 15.1834L11.6805 13.4818C11.6165 13.4174 11.5806 13.3303 11.5806 13.2395C11.5806 13.1487 11.6165 13.0616 11.6805 12.9971L12.6533 12.0243C12.7177 11.9603 12.8049 11.9244 12.8957 11.9244C12.9865 11.9244 13.0736 11.9603 13.138 12.0243L14.8396 13.7259L15.3277 13.2378C15.374 13.1919 15.4325 13.1601 15.4962 13.1461C15.5599 13.1321 15.6262 13.1366 15.6875 13.1589C15.7488 13.1813 15.8024 13.2206 15.8422 13.2723C15.882 13.324 15.9062 13.3859 15.9121 13.4509L16.0943 15.4481L16.1562 16.1253Z" fill="#F16522"/>
<path d="M29.3357 30.4768C29.312 30.4102 29.2682 30.3525 29.2103 30.3119C29.1524 30.2712 29.0833 30.2496 29.0126 30.2499H28.112L27.9401 29.5624H25.6851L25.5132 30.2499H24.6126C24.5418 30.2496 24.4727 30.2712 24.4149 30.3119C24.357 30.3525 24.3131 30.4102 24.2895 30.4768L23.7841 31.8518C23.7654 31.9037 23.7594 31.9594 23.7667 32.0141C23.774 32.0688 23.7943 32.1209 23.826 32.1661C23.8577 32.2113 23.8998 32.2482 23.9488 32.2736C23.9977 32.2991 24.0521 32.3124 24.1073 32.3124H29.5179C29.5731 32.3124 29.6274 32.2991 29.6764 32.2736C29.7254 32.2482 29.7675 32.2113 29.7992 32.1661C29.8309 32.1209 29.8512 32.0688 29.8585 32.0141C29.8658 31.9594 29.8598 31.9037 29.841 31.8518L29.3357 30.4768Z" fill="#F16522"/>
</svg>
