<svg width="30" height="30" viewBox="0 0 30 30" fill="none" xmlns="http://www.w3.org/2000/svg">
<g filter="url(#filter0_d_3_3)">
<path d="M10.3868 14.1453C11.1064 14.7439 11.9369 15.1947 12.8308 15.4722C12.2602 14.8645 11.8099 14.1541 11.5039 13.3787C11.1076 13.5975 10.7335 13.8542 10.3868 14.1453V14.1453Z" fill="white"/>
<path d="M12.8136 1.7153C11.9278 1.99704 11.1048 2.44763 10.3902 3.04218C10.7351 3.32976 11.1056 3.5852 11.4971 3.8053C11.7988 3.03113 12.2457 2.32174 12.8136 1.7153V1.7153Z" fill="white"/>
<path d="M11.2531 4.45497C10.8565 5.6817 10.6457 6.96085 10.6275 8.24997H7.79155C7.83618 7.28641 8.07469 6.34174 8.4928 5.47247L8.78155 5.49997H8.81249C8.90381 5.50023 8.99153 5.4644 9.05655 5.40028C9.09191 5.36427 9.11912 5.32107 9.13632 5.27363C9.15352 5.22618 9.16031 5.17559 9.15624 5.12528L9.09437 4.44809C9.32912 4.113 9.59127 3.79796 9.87812 3.50622C10.301 3.87094 10.762 4.18903 11.2531 4.45497V4.45497Z" fill="white"/>
<path d="M10.6344 8.9375H7.79843C7.8786 10.7221 8.61992 12.4131 9.87812 13.6813C10.3027 13.3135 10.766 12.9931 11.26 12.7256C10.8629 11.5014 10.652 10.2244 10.6344 8.9375V8.9375Z" fill="white"/>
<path d="M18.6816 8.9375H15.3438V11H18.4684C18.5947 10.3193 18.666 9.62961 18.6816 8.9375V8.9375Z" fill="white"/>
<path d="M19.3724 8.24997H22.2015C22.1178 6.46649 21.3755 4.77744 20.1183 3.50966C19.6966 3.87326 19.2367 4.1902 18.7468 4.45497C19.1434 5.68171 19.3542 6.96085 19.3724 8.24997V8.24997Z" fill="white"/>
<path d="M19.1697 11H21.7994C22.0362 10.3366 22.1718 9.64129 22.2016 8.9375H19.3691C19.3542 9.62902 19.2876 10.3184 19.1697 11V11Z" fill="white"/>
<path d="M18.1041 4.7678C17.2295 5.14194 16.2942 5.35393 15.3438 5.39342V8.24999H18.6781C18.6563 7.06759 18.4629 5.89464 18.1041 4.7678V4.7678Z" fill="white"/>
<path d="M19.6063 3.04218C18.8933 2.4472 18.0714 1.99654 17.1863 1.7153C17.7536 2.32232 18.2003 3.03155 18.5029 3.8053C18.8938 3.586 19.2632 3.3305 19.6063 3.04218V3.04218Z" fill="white"/>
<path d="M15.3438 1.40933V4.70589C16.2133 4.6661 17.0683 4.46807 17.8669 4.12152C17.255 2.62964 16.3509 1.60183 15.3438 1.40933V1.40933Z" fill="white"/>
<path d="M15 17.5312C15 17.6224 15.0362 17.7098 15.1007 17.7743C15.1651 17.8388 15.2526 17.875 15.3438 17.875H24.2812C24.3724 17.875 24.4599 17.8388 24.5243 17.7743C24.5888 17.7098 24.625 17.6224 24.625 17.5312V17.1875H15V17.5312Z" fill="white"/>
<path d="M24.2812 11.6875H15.3438C15.2526 11.6875 15.1651 11.7237 15.1007 11.7882C15.0362 11.8526 15 11.9401 15 12.0312V16.5H24.625V12.0312C24.625 11.9401 24.5888 11.8526 24.5243 11.7882C24.4599 11.7237 24.3724 11.6875 24.2812 11.6875Z" fill="white"/>
<path d="M11.3219 8.24999H14.6562V5.39342C13.7058 5.35393 12.7705 5.14194 11.8959 4.7678C11.5371 5.89464 11.3437 7.06759 11.3219 8.24999V8.24999Z" fill="white"/>
<path d="M14.3125 15.6784V12.509C13.5567 12.5803 12.8167 12.7694 12.1194 13.0693C12.6591 14.3928 13.4291 15.345 14.3125 15.6784Z" fill="white"/>
<path d="M11.8823 12.4231C12.6619 12.0889 13.491 11.8845 14.3367 11.8181C14.3825 11.6056 14.4944 11.4131 14.6564 11.2681V8.9375H11.3185C11.342 10.1201 11.5318 11.2935 11.8823 12.4231V12.4231Z" fill="white"/>
<path d="M12.1331 4.12152C12.9316 4.46807 13.7867 4.6661 14.6562 4.70589V1.40933C13.649 1.60183 12.745 2.62964 12.1331 4.12152V4.12152Z" fill="white"/>
<path d="M9.15623 5.12529C9.1603 5.1756 9.15351 5.22619 9.13631 5.27364C9.11911 5.32108 9.09191 5.36428 9.05655 5.40029C8.99153 5.46441 8.9038 5.50024 8.81248 5.49998H8.78155L8.4928 5.47248L6.10717 5.25592C6.04204 5.24949 5.98004 5.22478 5.92835 5.18463C5.87665 5.14449 5.83735 5.09055 5.81499 5.02904C5.79314 4.96806 5.78897 4.90214 5.80296 4.83889C5.81695 4.77564 5.84852 4.71763 5.89405 4.67154L6.38217 4.18342L4.68061 2.48185C4.61659 2.41745 4.58065 2.33032 4.58065 2.23951C4.58065 2.1487 4.61659 2.06157 4.68061 1.99717L5.65342 1.02435C5.71783 0.960329 5.80495 0.924393 5.89577 0.924393C5.98658 0.924393 6.0737 0.960329 6.13811 1.02435L7.83967 2.72592L8.3278 2.23779C8.37411 2.19187 8.43254 2.16007 8.49625 2.14611C8.55996 2.13215 8.62633 2.13661 8.6876 2.15895C8.74887 2.1813 8.80253 2.22062 8.84229 2.27232C8.88206 2.32402 8.90629 2.38596 8.91217 2.45092L9.09436 4.4481L9.15623 5.12529Z" fill="white"/>
<path d="M22.3355 19.4769C22.3119 19.4102 22.2681 19.3526 22.2102 19.3119C22.1523 19.2713 22.0832 19.2496 22.0124 19.25H21.1118L20.9399 18.5625H18.6849L18.5131 19.25H17.6124C17.5417 19.2496 17.4726 19.2713 17.4147 19.3119C17.3568 19.3526 17.313 19.4102 17.2893 19.4769L16.784 20.8519C16.7652 20.9038 16.7592 20.9594 16.7665 21.0141C16.7738 21.0688 16.7942 21.121 16.8259 21.1661C16.8575 21.2113 16.8996 21.2482 16.9486 21.2737C16.9976 21.2992 17.0519 21.3125 17.1071 21.3125H22.5177C22.5729 21.3125 22.6273 21.2992 22.6762 21.2737C22.7252 21.2482 22.7673 21.2113 22.799 21.1661C22.8307 21.121 22.851 21.0688 22.8583 21.0141C22.8656 20.9594 22.8596 20.9038 22.8409 20.8519L22.3355 19.4769Z" fill="white"/>
</g>
<defs>
<filter id="filter0_d_3_3" x="0" y="0" width="30" height="30" filterUnits="userSpaceOnUse" color-interpolation-filters="sRGB">
<feFlood flood-opacity="0" result="BackgroundImageFix"/>
<feColorMatrix in="SourceAlpha" type="matrix" values="0 0 0 0 0 0 0 0 0 0 0 0 0 0 0 0 0 0 127 0" result="hardAlpha"/>
<feOffset dy="4"/>
<feGaussianBlur stdDeviation="2"/>
<feComposite in2="hardAlpha" operator="out"/>
<feColorMatrix type="matrix" values="0 0 0 0 0 0 0 0 0 0 0 0 0 0 0 0 0 0 0.25 0"/>
<feBlend mode="normal" in2="BackgroundImageFix" result="effect1_dropShadow_3_3"/>
<feBlend mode="normal" in="SourceGraphic" in2="effect1_dropShadow_3_3" result="shape"/>
</filter>
</defs>
</svg>
