<svg width="14" height="22" viewBox="0 0 14 22" fill="none" xmlns="http://www.w3.org/2000/svg">
<path d="M5.34002 14.8799C4.68002 14.1599 4.35002 13.2799 4.35002 12.2399C4.35002 11.4399 4.58002 10.7199 5.04002 10.0799C5.50002 9.43994 6.00002 8.95994 6.54002 8.63994C7.08002 8.31994 7.58002 7.93994 8.04002 7.49994C8.50002 7.05994 8.73002 6.61994 8.73002 6.17994C8.73002 5.67994 8.53002 5.26994 8.13002 4.94994C7.75002 4.62994 7.17002 4.46994 6.39002 4.46994C4.97002 4.46994 3.74002 5.08994 2.70002 6.32994L0.27002 3.59994C1.93002 1.65994 4.12002 0.689941 6.84002 0.689941C8.76002 0.689941 10.28 1.12994 11.4 2.00994C12.52 2.86994 13.08 4.00994 13.08 5.42994C13.08 6.22994 12.91 6.94994 12.57 7.58994C12.23 8.22994 11.81 8.74994 11.31 9.14994C10.83 9.54994 10.34 9.91994 9.84002 10.2599C9.34002 10.5999 8.92002 10.9699 8.58002 11.3699C8.24002 11.7699 8.07002 12.1999 8.07002 12.6599C8.07002 13.1799 8.25002 13.5999 8.61002 13.9199L5.34002 14.8799ZM8.49002 20.6099C8.01002 21.0899 7.44002 21.3299 6.78002 21.3299C6.12002 21.3299 5.55002 21.0899 5.07002 20.6099C4.59002 20.1299 4.35002 19.5599 4.35002 18.8999C4.35002 18.2399 4.59002 17.6699 5.07002 17.1899C5.55002 16.7099 6.12002 16.4699 6.78002 16.4699C7.44002 16.4699 8.01002 16.7099 8.49002 17.1899C8.97002 17.6699 9.21002 18.2399 9.21002 18.8999C9.21002 19.5599 8.97002 20.1299 8.49002 20.6099Z" fill="white"/>
</svg>
