<svg width="42" height="42" viewBox="0 0 42 42" fill="none" xmlns="http://www.w3.org/2000/svg">
<g clip-path="url(#clip0_158:687)">
<path d="M33.6934 20.3276V16.6069H5.83691V33.8129L18.8828 33.8131V32.5829H17.7176C17.7176 32.0705 17.7176 28.9997 17.7176 28.4875H19.5454V27.2574H17.7176V23.1628L23.0429 23.1623L23.0431 17.8371H27.1378V20.4572H28.3679V17.8371H32.4633V20.3276H33.6934ZM12.3923 23.1623H16.4873V27.2574H12.3923V23.1623ZM17.7176 17.8371H21.8128V21.9322H17.7176V17.8371ZM12.3923 17.8371H16.4875V21.9322H12.3923V17.8371ZM7.06704 17.8371H11.1623V21.9322H7.06704V17.8371ZM7.06704 23.1623H11.1623V27.2574H7.06704V23.1623ZM11.1622 32.5828H7.06704V28.4875H11.1623V32.5828H11.1622ZM12.3923 32.5828V28.4875H16.4873V32.5828H12.3923Z" fill="#035297"/>
<path d="M30.6978 21.9326C25.1652 21.9326 20.6641 26.4337 20.6641 31.9663C20.6641 34.4885 21.6039 36.8993 23.3105 38.7547L24.2159 37.922C22.7187 36.2942 21.8942 34.1792 21.8942 31.9663C21.8942 27.1121 25.8435 23.1627 30.6978 23.1627C35.5521 23.1627 39.5014 27.112 39.5014 31.9663C39.5014 36.8206 35.5522 40.7699 30.6978 40.7699C28.6334 40.7699 26.627 40.0407 25.0481 38.7167L24.2577 39.6593C26.0577 41.1687 28.3448 42 30.6977 42C36.2303 42 40.7315 37.4989 40.7315 31.9663C40.7315 26.4337 36.2304 21.9326 30.6978 21.9326Z" fill="#035297"/>
<path d="M30.0439 25.1743V33.1845H35.797V31.9544H31.2741V25.1743H30.0439Z" fill="#035297"/>
<path d="M2.49819 14.41H5.83674V13.1799H2.49819V4.00561H5.17658V7.06369H5.17666V7.06394H10.1142V7.06369H10.1143V4.00561H13.256V7.06369H13.2564V7.06394H18.1939V4.00561H21.3361V7.06394H26.2736V7.06369H26.274V4.00561H29.4157V7.06369H29.4158V7.06394H34.3534V7.06369H34.3535V4.00561H37.0318V13.1799H7.06687V14.41H37.0318V22.3377H38.262V2.77549H34.3534V1.53183L33.214 0H30.5551L29.4157 1.53183V2.77549H26.2736V1.53183L25.1343 0H22.4754L21.336 1.53183V2.77549H18.1938V1.53183L17.0546 0H14.3957L13.2564 1.53183V2.77549H10.1142V1.53183L8.97487 0H6.316L5.17666 1.53183V2.77549H1.26807V37.0394H19.6863V35.8093H2.49819V14.41ZM31.1732 1.23012H32.5959L33.1232 1.93917V5.83357H30.6459V1.93917L31.1732 1.23012ZM22.5662 1.93917L23.0936 1.23012H24.5162L25.0436 1.93917V5.83357H22.5665V2.77549H22.5663V1.93917H22.5662ZM15.0138 1.23012H16.4365L16.9638 1.93917V2.77549H16.9636V5.83357H14.4866V1.93917L15.0138 1.23012ZM6.93409 1.23012H8.35685L8.88417 1.93917V5.83357H6.40678V1.93917L6.93409 1.23012Z" fill="#035297"/>
<path d="M24.0293 11.1583H22.7992V9.92822H24.0293V11.1583ZM20.3389 11.1583H19.1088V9.92822H20.3389V11.1583ZM16.6486 11.1583H15.4185V9.92822H16.6486V11.1583Z" fill="#035297"/>
<path d="M23.5864 31.9541H24.8165V33.1842H23.5864V31.9541Z" fill="#035297"/>
<path d="M30.0908 37.9116H31.3209V39.1417H30.0908V37.9116Z" fill="#035297"/>
</g>
<defs>
<clipPath id="clip0_158:687">
<rect width="42" height="42" fill="white"/>
</clipPath>
</defs>
</svg>
