<svg width="32" height="42" viewBox="0 0 32 42" fill="none" xmlns="http://www.w3.org/2000/svg">
<path d="M30.625 42H0.874999C0.392 42 0 41.608 0 41.125V0.874999C0 0.392 0.392 0 0.874999 0H30.625C31.108 0 31.5 0.392 31.5 0.874999V41.125C31.5 41.608 31.108 42 30.625 42ZM1.75 40.25H29.75V1.75H1.75V40.25Z" fill="#035297"/>
<path d="M23.2102 16.0579C23.1227 16.0579 23.0335 16.0457 22.946 16.0177C22.4857 15.8724 22.2302 15.3807 22.3755 14.9204C22.3807 14.9012 22.9687 13.0164 22.9687 11.2664C22.9687 9.59341 21.672 5.25167 15.75 5.25167C12.6122 5.25167 12.3007 6.19667 12.299 6.20542C12.299 6.68842 11.914 6.99991 11.4292 6.99991C8.5645 6.99991 8.53125 11.2227 8.53125 11.2664C8.53125 13.0164 9.11925 14.9012 9.1245 14.9204C9.26975 15.3807 9.01425 15.8724 8.554 16.0177C8.09725 16.1629 7.60375 15.9092 7.45675 15.4472C7.42875 15.3597 6.78125 13.2929 6.78125 11.2664C6.78125 9.30991 7.6405 5.71542 10.7975 5.29192C11.2315 4.51842 12.432 3.50342 15.75 3.50342C23.107 3.50342 24.7187 9.10866 24.7187 11.2682C24.7187 13.2947 24.0712 15.3614 24.0432 15.4489C23.926 15.8199 23.5812 16.0579 23.2102 16.0579Z" fill="#035297"/>
<path d="M15.75 27.9997C13.0147 27.9997 9.786 27.1667 8.834 20.8037C7.98175 20.431 7 19.4772 7 17.4997C7 14.5422 8.21625 14.0837 8.589 14.0155C9.072 13.928 9.52175 14.2395 9.60925 14.7137C9.68625 15.1267 9.4605 15.5275 9.086 15.6832C9.0125 15.7742 8.75 16.1942 8.75 17.4997C8.75 19.0345 9.56375 19.2322 9.72825 19.255C10.1185 19.3127 10.4475 19.626 10.4947 20.018C11.2542 26.2497 13.9597 26.2497 15.75 26.2497C17.5402 26.2497 20.2457 26.2497 21.007 20.018C21.056 19.6102 21.3832 19.29 21.7927 19.2515C21.9362 19.2322 22.75 19.0345 22.75 17.4997C22.75 16.1942 22.4875 15.7742 22.414 15.6815C22.0412 15.5275 21.8137 15.1267 21.8907 14.712C21.98 14.2377 22.435 13.9262 22.911 14.0137C23.2837 14.0837 24.5 14.5422 24.5 17.4997C24.5 19.4772 23.5182 20.431 22.666 20.8037C21.714 27.1667 18.4852 27.9997 15.75 27.9997ZM22.5837 15.734C22.5837 15.734 22.5855 15.734 22.5837 15.734V15.734ZM8.91625 15.734C8.9145 15.734 8.91625 15.734 8.91625 15.734V15.734Z" fill="#035297"/>
<path d="M22.7505 15.7497C22.3007 15.7497 22.0277 15.4802 21.536 14.9937C20.9742 14.4372 20.0345 13.5045 18.9302 13.0617C18.358 12.8325 17.7105 12.7397 17.0262 12.6417C15.8257 12.4702 14.508 12.2812 13.395 11.3135C12.6022 13.06 11.015 15.7497 8.75049 15.7497C8.26749 15.7497 7.87549 15.3577 7.87549 14.8747C7.87549 14.3917 8.26749 13.9997 8.75049 13.9997C10.252 13.9997 11.7867 10.8655 12.296 9.34823C12.4045 9.02448 12.6915 8.79348 13.0292 8.75498C13.3757 8.71473 13.6977 8.88098 13.8745 9.17498C14.6952 10.5417 15.8327 10.7045 17.273 10.9092C18.0307 11.0177 18.813 11.1297 19.5812 11.4377C21.0127 12.0135 22.11 13.1002 22.7662 13.7495C22.9045 13.8842 23.013 13.9997 23.097 14.0715C23.4067 14.2062 23.6237 14.5142 23.6237 14.873C23.6255 15.3577 23.2335 15.7497 22.7505 15.7497Z" fill="#035297"/>
<path d="M20.1247 36.7501C19.9357 36.7501 19.7449 36.6888 19.5892 36.5663L15.7497 33.5913L11.9102 36.5663C11.6302 36.7851 11.247 36.8096 10.9407 36.6346C6.50271 34.0988 5.34946 31.0538 5.30221 30.9243C5.18496 30.6041 5.26546 30.2453 5.50521 30.0056L9.00696 26.5056C9.25721 26.2553 9.63171 26.1783 9.96071 26.3166C10.288 26.4531 10.5015 26.7716 10.5015 27.1251C10.5085 27.9791 13.3872 31.5001 15.7497 31.5001C18.1122 31.5001 20.9909 27.9791 20.9979 27.1251C21.0014 26.7716 21.2167 26.4531 21.5422 26.3201C21.8694 26.1871 22.2439 26.2571 22.4924 26.5073L25.9942 30.0073C26.2357 30.2471 26.3144 30.6058 26.1972 30.9261C26.1499 31.0556 24.9967 34.0988 20.5587 36.6363C20.4239 36.7116 20.2734 36.7501 20.1247 36.7501ZM7.18521 30.8018C7.63671 31.5998 8.80746 33.2693 11.3082 34.8181L13.8597 32.8406C11.9295 32.0408 10.1445 30.2173 9.28521 28.7018L7.18521 30.8018ZM17.638 32.8406L20.1894 34.8181C22.6884 33.2711 23.8592 31.6016 24.3124 30.8018L22.2107 28.7018C21.3532 30.2173 19.5664 32.0408 17.638 32.8406Z" fill="#035297"/>
<path d="M16.8716 38.5001H14.6298C14.2693 38.5001 13.9473 38.2813 13.8161 37.9471L12.5263 34.6763C12.3496 34.2266 12.5701 33.7191 13.0198 33.5406C13.4713 33.3656 13.9771 33.5843 14.1556 34.0341L15.2248 36.7501H16.2748L17.3458 34.0323C17.5226 33.5843 18.0283 33.3656 18.4816 33.5388C18.9313 33.7173 19.1518 34.2248 18.9751 34.6746L17.6853 37.9453C17.5523 38.2813 17.2303 38.5001 16.8716 38.5001Z" fill="#035297"/>
<path d="M18.1615 41.9997C17.8045 41.9997 17.4702 41.7809 17.3407 41.4274L16.051 37.9274C15.8847 37.4742 16.1157 36.9719 16.569 36.8039C17.0222 36.6377 17.5245 36.8687 17.6925 37.3219L18.9822 40.8219C19.1485 41.2752 18.9175 41.7774 18.4642 41.9454C18.3645 41.9822 18.263 41.9997 18.1615 41.9997Z" fill="#035297"/>
<path d="M13.3387 42.0004C13.2372 42.0004 13.1357 41.9829 13.036 41.9462C12.5827 41.7782 12.35 41.2759 12.518 40.8227L13.8077 37.3227C13.9757 36.8694 14.4797 36.6402 14.9312 36.8047C15.3845 36.9727 15.6172 37.4749 15.4492 37.9282L14.1595 41.4282C14.03 41.7817 13.6957 42.0004 13.3387 42.0004Z" fill="#035297"/>
<path d="M28 32.375C27.909 32.375 27.8162 32.361 27.7235 32.3295L25.0985 31.4545C24.64 31.3022 24.3932 30.807 24.5455 30.3485C24.6977 29.89 25.1912 29.6432 25.6515 29.7955L28.2765 30.6705C28.735 30.8227 28.9817 31.318 28.8295 31.7765C28.707 32.144 28.3657 32.375 28 32.375Z" fill="#035297"/>
<path d="M3.49996 32.375C3.13421 32.375 2.79296 32.144 2.67046 31.7765C2.51821 31.318 2.76496 30.8227 3.22346 30.6705L5.84845 29.7955C6.31045 29.6432 6.8022 29.89 6.95445 30.3485C7.1067 30.807 6.85995 31.3022 6.40145 31.4545L3.77645 32.3295C3.6837 32.361 3.59096 32.375 3.49996 32.375Z" fill="#035297"/>
</svg>
