<svg width="42" height="42" viewBox="0 0 42 42" fill="none" xmlns="http://www.w3.org/2000/svg">
<path d="M22.9688 34.125C22.9688 33.0396 22.0854 32.1562 21 32.1562C19.9146 32.1562 19.0312 33.0396 19.0312 34.125C19.0312 35.2104 19.9146 36.0938 21 36.0938C22.0854 36.0938 22.9688 35.2104 22.9688 34.125ZM21 34.7812C20.6384 34.7812 20.3438 34.4873 20.3438 34.125C20.3438 33.7628 20.6384 33.4688 21 33.4688C21.3616 33.4688 21.6562 33.7628 21.6562 34.125C21.6562 34.4873 21.3616 34.7812 21 34.7812Z" fill="#035297"/>
<path d="M20.7493 15.0938L22.0618 12.4688H26.9062V15.0938H29.9368L31.2493 12.4688H35.1205C36.3812 12.4688 37.4062 11.4437 37.4062 10.183C37.4062 7.82513 35.488 5.90625 33.1295 5.90625C32.8821 5.90625 32.632 5.92791 32.3866 5.97188L22.1248 7.78247L20.8386 3.28125H17.7188V15.0938H20.7493ZM19.9382 13.7812H19.0312V12.4688H20.5944L19.9382 13.7812ZM29.1257 13.7812H28.2188V11.1562H30.4382L29.1257 13.7812ZM19.8489 4.59375L21.1883 9.28069L32.615 7.26469C32.7849 7.23384 32.9582 7.21875 33.1295 7.21875C34.7642 7.21875 36.0938 8.54831 36.0938 10.183C36.0938 10.7198 35.6573 11.1562 35.1205 11.1562H31.9056L32.5618 9.84375H26.9062V11.1562H19.0312V4.59375H19.8489Z" fill="#035297"/>
<path d="M41.3438 0.65625H0.65625V4.59375H1.3125C1.67409 4.59375 1.96875 4.88775 1.96875 5.25C1.96875 5.61225 1.67409 5.90625 1.3125 5.90625H0.65625V12.4688H1.3125C1.67409 12.4688 1.96875 12.7627 1.96875 13.125C1.96875 13.4873 1.67409 13.7812 1.3125 13.7812H0.65625V17.7188H3.28125V34.125C3.28125 35.9343 4.75322 37.4062 6.5625 37.4062H13.7812V40.0312H11.1562V41.3438H30.8438V40.0312H28.2188V37.4062H35.4375C37.2468 37.4062 38.7188 35.9343 38.7188 34.125V17.7188H41.3438V0.65625ZM26.9062 40.0312H15.0938V37.4062H26.9062V40.0312ZM37.4062 34.125C37.4062 35.2104 36.5229 36.0938 35.4375 36.0938H21H6.5625C5.47706 36.0938 4.59375 35.2104 4.59375 34.125V17.7188H5.90625V30.8438C5.90625 31.5676 6.49491 32.1562 7.21875 32.1562H21H34.7812C35.5051 32.1562 36.0938 31.5676 36.0938 30.8438V17.7188H37.4062V34.125ZM34.7812 17.7188V30.8438H7.21875V17.7188H34.7812ZM40.0312 16.4062H15.0938V15.0938H13.7812V16.4062H1.96875V14.9815C2.73263 14.7105 3.28125 13.9808 3.28125 13.125C3.28125 12.2692 2.73263 11.5395 1.96875 11.2685V7.10653C2.73263 6.8355 3.28125 6.10575 3.28125 5.25C3.28125 4.39425 2.73263 3.6645 1.96875 3.39347V1.96875H13.7812V3.28125H15.0938V1.96875H40.0312V16.4062Z" fill="#035297"/>
<path d="M13.7812 4.59375H15.0938V5.90625H13.7812V4.59375Z" fill="#035297"/>
<path d="M13.7812 12.4688H15.0938V13.7812H13.7812V12.4688Z" fill="#035297"/>
<path d="M13.7812 7.21875H15.0938V8.53125H13.7812V7.21875Z" fill="#035297"/>
<path d="M13.7812 9.84375H15.0938V11.1562H13.7812V9.84375Z" fill="#035297"/>
<path d="M4.59375 7.21875H12.4688V3.28125H4.59375V7.21875ZM5.90625 4.59375H11.1562V5.90625H5.90625V4.59375Z" fill="#035297"/>
<path d="M4.59375 8.53125H12.4688V9.84375H4.59375V8.53125Z" fill="#035297"/>
<path d="M4.59375 11.1562H5.90625V12.4688H4.59375V11.1562Z" fill="#035297"/>
<path d="M7.21875 11.1562H12.4688V12.4688H7.21875V11.1562Z" fill="#035297"/>
<path d="M4.59375 13.7812H12.4688V15.0938H4.59375V13.7812Z" fill="#035297"/>
<path d="M9.84349 24.2812V29.5312H20.3435V24.2812H21.91L20.1597 19.0312H10.0266L8.27637 24.2812H9.84349ZM16.406 28.2188H13.781V26.9062H16.406V28.2188ZM19.031 28.2188H17.7185V25.5938H12.4685V28.2188H11.156V24.2812H19.031V28.2188ZM10.9729 20.3438H19.2147L20.0895 22.9688H10.0975L10.9729 20.3438Z" fill="#035297"/>
<path d="M33.4688 24.2812H24.2812V29.5312H33.4688V24.2812ZM32.1562 28.2188H25.5938V25.5938H32.1562V28.2188Z" fill="#035297"/>
<path d="M24.2812 21.6562H33.4688V22.9688H24.2812V21.6562Z" fill="#035297"/>
<path d="M24.2812 19.0312H33.4688V20.3438H24.2812V19.0312Z" fill="#035297"/>
</svg>
