<svg width="42" height="42" viewBox="0 0 42 42" fill="none" xmlns="http://www.w3.org/2000/svg">
<g clip-path="url(#clip0_158:754)">
<path d="M38.5547 14.7656H27.0174C27.054 14.3609 27.0738 13.9511 27.0738 13.5368C27.0738 6.07256 21.001 0 13.5368 0C11.1591 0 8.82028 0.625488 6.77303 1.80853C6.38081 2.03508 6.24655 2.53688 6.4731 2.92909C6.69997 3.32162 7.20177 3.45557 7.59398 3.22902C9.39194 2.18985 11.4469 1.64062 13.5368 1.64062C20.0964 1.64062 25.4332 6.97714 25.4332 13.5368C25.4332 20.0964 20.0964 25.4332 13.5368 25.4332C10.791 25.4332 8.21146 24.5235 6.07704 22.8028C5.86299 22.6304 5.57941 22.5788 5.32114 22.6579L3.14378 23.2273L3.99678 21.3528C4.11951 21.0836 4.08746 20.7696 3.91347 20.5302C2.42665 18.4881 1.64062 16.0698 1.64062 13.5368C1.64062 11.4414 2.19273 9.38136 3.23735 7.57956C3.46454 7.18735 3.33092 6.68555 2.93903 6.45836C2.54713 6.23117 2.04533 6.36447 1.81783 6.75668C0.628693 8.8081 0 11.1527 0 13.5368C0 16.2569 0.796921 18.8617 2.30937 21.1L0.935989 24.1175C0.804611 24.4056 0.851074 24.7433 1.05487 24.9856C1.25867 25.2278 1.58359 25.331 1.88992 25.2509L5.37849 24.3389C7.71703 26.1055 10.5974 27.0738 13.5368 27.0738C14.1767 27.0738 14.8057 27.028 15.4219 26.9418V34.125C15.4219 36.0245 16.9673 37.5703 18.8669 37.5703H30.4688L35.6564 41.8145C35.8057 41.9369 35.9899 41.9997 36.1758 41.9997C36.2953 41.9997 36.4151 41.9737 36.527 41.9208C36.8134 41.785 36.9961 41.4966 36.9961 41.1794V37.5703H38.5547C40.4545 37.5703 42 36.0245 42 34.125V18.2109C42 16.3111 40.4545 14.7656 38.5547 14.7656ZM40.3594 34.125C40.3594 35.1199 39.55 35.9297 38.5547 35.9297H36.1758C35.7227 35.9297 35.3555 36.2969 35.3555 36.75V39.4484L31.3039 36.1335C31.0806 35.9297 30.8851 35.9297 30.4458 35.9297H18.8669C17.8719 35.9297 17.0625 35.1199 17.0625 34.125V26.607C21.9148 25.2967 25.6953 21.3509 26.7665 16.4062H38.5547C39.55 16.4062 40.3594 17.2157 40.3594 18.2109V34.125Z" fill="#035297"/>
<path d="M32.7931 28.5966C33.0712 28.4656 33.2641 28.1833 33.2641 27.8552C33.2641 27.4024 32.8969 27.0349 32.4438 27.0349H32.108L29.4625 21.0056C29.3314 20.7072 29.0366 20.5146 28.7111 20.5146C28.3855 20.5146 28.0907 20.7072 27.96 21.0056L25.3145 27.0349H24.9786C24.5255 27.0349 24.1583 27.4024 24.1583 27.8552C24.1583 28.1833 24.3512 28.4656 24.6294 28.5966L23.644 30.8423C23.462 31.2572 23.6508 31.7411 24.0654 31.9231C24.4804 32.1051 24.9642 31.9164 25.1462 31.5014L26.3863 28.6755H31.0361L32.2762 31.5014C32.4111 31.809 32.712 31.9923 33.028 31.9923C33.1379 31.9923 33.2497 31.9702 33.3571 31.9231C33.7717 31.7411 33.9608 31.2572 33.7784 30.8423L32.7931 28.5966ZM27.106 27.0349L28.7111 23.3768L30.3161 27.0349H27.106Z" fill="#035297"/>
<path d="M4.54492 5.36475C4.76057 5.36475 4.97206 5.27695 5.12491 5.12442C5.27743 4.97189 5.36523 4.76041 5.36523 4.54443C5.36523 4.32878 5.27743 4.11729 5.12491 3.96445C4.97206 3.81192 4.76057 3.72412 4.54492 3.72412C4.32831 3.72412 4.11746 3.81192 3.96494 3.96445C3.81241 4.11729 3.72461 4.32878 3.72461 4.54443C3.72461 4.76041 3.81241 4.97189 3.96494 5.12442C4.11746 5.27727 4.32895 5.36475 4.54492 5.36475Z" fill="#035297"/>
<path d="M8.64051 18.529C8.24317 18.7469 8.09769 19.2455 8.31559 19.6428C8.46491 19.9149 8.74593 20.069 9.0356 20.069C9.1689 20.069 9.30413 20.0363 9.42942 19.9677C11.2588 18.9645 12.6661 17.4039 13.4893 15.5637C14.3128 17.4039 15.7199 18.9645 17.5492 19.9677C17.6745 20.0363 17.8097 20.069 17.943 20.069C18.2327 20.069 18.5137 19.9149 18.6631 19.6428C18.881 19.2455 18.7355 18.7469 18.3381 18.529C16.1967 17.3546 14.7554 15.2558 14.3974 12.8842H18.0395C18.4926 12.8842 18.8598 12.517 18.8598 12.0639C18.8598 11.6108 18.4926 11.2436 18.0395 11.2436H14.3096V7.8252C14.3096 7.3721 13.9424 7.00488 13.4893 7.00488C13.0362 7.00488 12.669 7.3721 12.669 7.8252V11.2436H9.70563C9.25254 11.2436 8.88532 11.6108 8.88532 12.0639C8.88532 12.517 9.25254 12.8842 9.70563 12.8842H12.5812C12.2233 15.2558 10.782 17.3549 8.64051 18.529Z" fill="#035297"/>
</g>
<defs>
<clipPath id="clip0_158:754">
<rect width="42" height="42" fill="white"/>
</clipPath>
</defs>
</svg>
