<svg width="38" height="38" viewBox="0 0 38 38" fill="none" xmlns="http://www.w3.org/2000/svg">
<circle cx="19" cy="19" r="18.75" stroke="#3E3E3E" stroke-width="0.5"/>
<g clip-path="url(#clip0_426_3600)">
<path d="M29 13.6088C28.2934 13.9188 27.5406 14.1242 26.7556 14.2239C27.5631 13.7418 28.1794 12.9842 28.4692 12.071C27.7163 12.5199 26.8851 12.8369 25.9992 13.0139C25.2843 12.2527 24.2654 11.7812 23.1539 11.7812C20.9974 11.7812 19.2613 13.5316 19.2613 15.6774C19.2613 15.9862 19.2874 16.2831 19.3516 16.5657C16.1132 16.4077 13.2478 14.8557 11.3229 12.4914C10.9868 13.0744 10.7897 13.7418 10.7897 14.4603C10.7897 15.8092 11.4844 17.0051 12.5199 17.6974C11.8941 17.6855 11.2801 17.5038 10.76 17.2176C10.76 17.2295 10.76 17.2449 10.76 17.2604C10.76 19.1532 12.1102 20.7255 13.8807 21.0877C13.5637 21.1744 13.2181 21.2159 12.8595 21.2159C12.6101 21.2159 12.3584 21.2017 12.1221 21.1494C12.6267 22.692 14.0589 23.8261 15.7618 23.8629C14.4365 24.8996 12.7538 25.5242 10.9322 25.5242C10.6128 25.5242 10.3064 25.5099 10 25.4707C11.7254 26.5834 13.7703 27.2188 15.9755 27.2188C23.1432 27.2188 27.062 21.2812 27.062 16.1346C27.062 15.9624 27.0561 15.7962 27.0478 15.6311C27.8208 15.0825 28.4704 14.3973 29 13.6088Z" fill="#3E3E3E"/>
</g>
<defs>
<clipPath id="clip0_426_3600">
<rect width="19" height="19" fill="white" transform="translate(10 10)"/>
</clipPath>
</defs>
</svg>
