<svg width="61" height="22" viewBox="0 0 61 22" fill="none" xmlns="http://www.w3.org/2000/svg">
<path d="M3.77141 4.55807L6.0475 20.8646H11.636L22.0559 0.673096H16.1835L11.759 10.0377C11.1344 11.3674 10.5902 12.5694 10.1218 13.6719C10.0366 12.522 9.94194 11.4053 9.82837 10.2649L8.93402 0.677827H0L9.28892 8.02663L3.77141 4.55807Z" fill="#F16522"/>
<path d="M26.0686 20.8691L29.8968 0.677612H24.6396L20.8066 20.8691H26.0686Z" fill="#F16522"/>
<path d="M29.1495 19.6767C30.3798 20.5995 32.5471 21.1484 34.9462 21.1484C39.9196 21.1484 43.2604 18.3376 43.2604 14.1592C43.2604 11.8736 41.9259 10.0613 39.1861 8.62749C37.6529 7.76627 36.7207 7.18896 36.7207 6.46023C36.7207 5.77883 37.4353 5.04537 39.1293 5.04537C40.7808 5.04537 42.0395 5.69365 42.2808 5.82141L42.8771 6.14792L44.5569 1.65252L44.1168 1.40645C42.8581 0.71085 41.2966 0.374878 39.3423 0.374878C34.5819 0.374878 31.2553 3.1573 31.2553 7.14164C31.2553 10.0282 33.5266 11.6323 35.5235 12.7112C37.3974 13.686 37.7665 14.2396 37.7665 14.869C37.7665 16.0804 36.4605 16.511 35.339 16.511C33.8768 16.511 32.3531 16.0993 31.1559 15.3801L30.5644 15.0299L28.7852 19.4117L29.1495 19.6767Z" fill="#F16522"/>
<path d="M48.3327 20.8691L50.5899 15.9336H55.1421L55.5396 20.8691H61.0003L58.6343 0.677612H52.5253L42.7017 20.8691H48.3327ZM53.8219 8.39551C54.0301 7.94124 54.243 7.42072 54.4607 6.886C54.4986 7.36393 54.5317 7.81347 54.5601 8.2015L54.8676 11.6511H52.3124L53.8219 8.39551Z" fill="#F16522"/>
</svg>
