<svg width="27" height="27" viewBox="0 0 27 27" fill="none" xmlns="http://www.w3.org/2000/svg">
<g clip-path="url(#clip0_247_3517)">
<path d="M10.8111 9.48242L9.43896 17.5349H11.6336L13.0069 9.48242H10.8111Z" fill="white"/>
<path d="M7.59892 9.49144L5.44948 14.983L5.22031 14.1538C4.79641 13.1547 3.593 11.7199 2.18018 10.8156L4.1456 17.5309L6.46775 17.527L9.92389 9.48975L7.59892 9.49144Z" fill="white"/>
<path d="M4.38692 10.0678C4.25936 9.57727 3.88964 9.43107 3.43074 9.41357H0.0282226L0 9.57388C2.64784 10.2162 4.3999 11.764 5.12692 13.625L4.38692 10.0678Z" fill="white"/>
<path d="M17.4542 11.0258C18.1722 11.0145 18.6926 11.1714 19.0968 11.334L19.2949 11.4271L19.5918 9.68186C19.1572 9.51873 18.4759 9.34375 17.6258 9.34375C15.4572 9.34375 13.9287 10.436 13.9168 12.0012C13.9027 13.1578 15.0056 13.8035 15.8388 14.189C16.6939 14.5841 16.9807 14.8353 16.9767 15.1881C16.9699 15.7271 16.2948 15.9744 15.6644 15.9744C14.7855 15.9744 14.3187 15.853 13.5979 15.5527L13.3151 15.424L13.0063 17.2263C13.52 17.4515 14.4677 17.6451 15.4516 17.6553C17.7585 17.6553 19.2577 16.5761 19.2735 14.9036C19.2831 13.9886 18.6977 13.2904 17.4294 12.7175C16.6617 12.3438 16.1921 12.0955 16.1966 11.7184C16.1966 11.3837 16.5951 11.0258 17.4542 11.0258Z" fill="white"/>
<path d="M25.2241 9.49121H23.5285C23.0019 9.49121 22.6101 9.63458 22.3787 10.1595L19.1201 17.5392H21.4248C21.4248 17.5392 21.8007 16.5469 21.8859 16.3295C22.1382 16.3295 24.3774 16.3329 24.6963 16.3329C24.7618 16.614 24.9639 17.5392 24.9639 17.5392H26.9999L25.2241 9.49121ZM22.5176 14.6813C22.6982 14.2191 23.3919 12.4309 23.3919 12.4309C23.38 12.4529 23.5708 11.9652 23.6843 11.6621L23.8322 12.3564C23.8322 12.3564 24.2527 14.2789 24.3407 14.6813H22.5176Z" fill="white"/>
</g>
<defs>
<clipPath id="clip0_247_3517">
<rect width="27" height="27" fill="white"/>
</clipPath>
</defs>
</svg>
