<svg width="38" height="38" viewBox="0 0 38 38" fill="none" xmlns="http://www.w3.org/2000/svg">
<g clip-path="url(#clip0_426_3578)">
<path fill-rule="evenodd" clip-rule="evenodd" d="M26.2128 20.5374C26.8763 21.1852 27.5765 21.7946 28.1715 22.5076C28.4344 22.8245 28.6832 23.1514 28.8736 23.5192C29.1433 24.0419 28.899 24.6171 28.4303 24.6484L25.5166 24.647C24.7652 24.7094 24.1657 24.4069 23.6616 23.8931C23.2582 23.4822 22.8846 23.0449 22.4967 22.6201C22.3377 22.4465 22.1713 22.2831 21.9724 22.154C21.5747 21.8958 21.2294 21.9749 21.0021 22.3897C20.7706 22.8116 20.7181 23.2789 20.6954 23.7491C20.6642 24.4352 20.4568 24.6156 19.7676 24.647C18.2947 24.7164 16.8969 24.4936 15.5984 23.7506C14.4535 23.0956 13.5658 22.1709 12.7931 21.124C11.2886 19.0856 10.1365 16.8457 9.10101 14.543C8.86793 14.0242 9.03838 13.7457 9.6108 13.7359C10.5613 13.7174 11.5117 13.7187 12.4633 13.7346C12.8497 13.7402 13.1054 13.9618 13.2546 14.3268C13.7688 15.5912 14.3981 16.7943 15.1879 17.9094C15.3983 18.2063 15.6128 18.5032 15.9182 18.7122C16.2561 18.9435 16.5133 18.8668 16.6723 18.4904C16.7732 18.2518 16.8173 17.9947 16.8401 17.7391C16.9154 16.8597 16.9253 15.9818 16.7932 15.1054C16.7121 14.5585 16.4041 14.2045 15.8583 14.101C15.5798 14.0482 15.6213 13.9446 15.7562 13.7856C15.9903 13.5115 16.2106 13.3408 16.6497 13.3408H19.9426C20.461 13.4431 20.5761 13.676 20.6471 14.1976L20.6499 17.8553C20.6442 18.0573 20.7508 18.6565 21.1145 18.7902C21.4056 18.8853 21.5975 18.6524 21.7721 18.4678C22.5605 17.6311 23.1232 16.6422 23.6259 15.6182C23.849 15.1679 24.0408 14.7003 24.2267 14.2331C24.3644 13.8864 24.5806 13.7158 24.9711 13.7234L28.1403 13.7262C28.2343 13.7262 28.3294 13.7276 28.4204 13.7432C28.9544 13.8342 29.1007 14.0639 28.9358 14.5854C28.6759 15.4036 28.1703 16.0854 27.6759 16.7704C27.1473 17.5017 26.5821 18.208 26.058 18.9436C25.5764 19.6154 25.6147 19.954 26.2128 20.5374Z" fill="#3E3E3E"/>
</g>
<circle cx="19" cy="19" r="18.75" stroke="#3E3E3E" stroke-width="0.5"/>
<defs>
<clipPath id="clip0_426_3578">
<rect width="20" height="20" fill="white" transform="translate(9 9)"/>
</clipPath>
</defs>
</svg>
