<svg width="38" height="38" viewBox="0 0 38 38" fill="none" xmlns="http://www.w3.org/2000/svg">
<circle cx="19" cy="19" r="18.75" stroke="#3E3E3E" stroke-width="0.5"/>
<path d="M18.5024 9H18.4976C13.2596 9 9 13.2607 9 18.5C9 20.5781 9.66975 22.5043 10.8086 24.0682L9.62463 27.5974L13.2762 26.4301C14.7784 27.4253 16.5703 28 18.5024 28C23.7404 28 28 23.7381 28 18.5C28 13.2619 23.7404 9 18.5024 9ZM24.0302 22.4152C23.801 23.0624 22.8914 23.5991 22.1658 23.7559C21.6694 23.8616 21.0211 23.9459 18.8384 23.041C16.0466 21.8844 14.2488 19.0474 14.1086 18.8634C13.9744 18.6793 12.9805 17.3612 12.9805 15.9979C12.9805 14.6347 13.6728 13.9709 13.9519 13.6859C14.1811 13.4519 14.5599 13.3451 14.9232 13.3451C15.0408 13.3451 15.1465 13.351 15.2415 13.3557C15.5206 13.3676 15.6607 13.3843 15.8447 13.8248C16.0739 14.377 16.6321 15.7403 16.6986 15.8804C16.7662 16.0205 16.8339 16.2105 16.7389 16.3946C16.6499 16.5846 16.5715 16.6689 16.4314 16.8304C16.2912 16.9919 16.1582 17.1154 16.0181 17.2888C15.8899 17.4396 15.745 17.6011 15.9065 17.8801C16.068 18.1533 16.6261 19.0641 17.4479 19.7956C18.5083 20.7396 19.3681 21.0413 19.6756 21.1695C19.9048 21.2645 20.1779 21.2419 20.3454 21.0638C20.5579 20.8346 20.8204 20.4546 21.0876 20.0806C21.2776 19.8122 21.5174 19.7789 21.7692 19.8739C22.0257 19.963 23.383 20.6339 23.6621 20.7729C23.9411 20.913 24.1252 20.9795 24.1929 21.0971C24.2594 21.2146 24.2594 21.7668 24.0302 22.4152Z" fill="#3E3E3E"/>
</svg>
