<svg width="61" height="61" viewBox="0 0 61 61" fill="none" xmlns="http://www.w3.org/2000/svg">
<g clip-path="url(#clip0_158:656)">
<path d="M56.9334 24.4001H48.8002V9.15009C48.8002 7.46537 47.4343 6.09991 45.75 6.09991H42.6998V3.05019C42.6998 1.36546 41.3344 0 39.6501 0H11.1834C11.162 0 11.1424 0.0111694 11.1201 0.0121002C11.0307 0.0181504 10.9428 0.0358352 10.8581 0.065155C10.8255 0.0763245 10.7929 0.0842361 10.7613 0.0986633C10.6515 0.14846 10.5509 0.217339 10.4644 0.30204L0.297852 10.4686C0.212685 10.5551 0.143806 10.6561 0.0944748 10.7664C0.080513 10.7971 0.072136 10.8297 0.0609665 10.8609C0.0316467 10.946 0.0139619 11.0345 0.00791168 11.1243C0.0111694 11.1424 0 11.162 0 11.1834V51.8499C0 53.5346 1.36546 54.9001 3.05019 54.9001H6.09991V57.9498C6.09991 59.6345 7.46537 61 9.15009 61H45.75C47.4343 61 48.8002 59.6345 48.8002 57.9498V32.5333H56.9334C59.1794 32.5333 61 30.7127 61 28.4667C61 26.2207 59.1794 24.4001 56.9334 24.4001ZM45.75 8.13321C46.3113 8.13321 46.7669 8.58836 46.7669 9.15009V24.4001H43.0782C43.0721 24.3796 43.0628 24.3591 43.0558 24.3391C43.0414 24.2963 43.0284 24.2526 43.013 24.2097C42.9804 24.1143 42.9409 24.0199 42.9116 23.9231C42.8446 23.7392 42.7813 23.554 42.7082 23.3711V8.13321H45.75ZM21.8795 35.5835H27.4498C28.0115 35.5835 28.4667 35.1283 28.4667 34.5666C28.4667 34.0053 28.0115 33.5502 27.4498 33.5502H20.5508C19.8988 32.2829 19.4976 30.9021 19.3687 29.4831H35.5835C36.1448 29.4831 36.5999 29.028 36.5999 28.4667C36.5999 27.905 36.1448 27.4498 35.5835 27.4498H19.3687C19.4976 26.0308 19.8988 24.6505 20.5508 23.3832H25.4165C25.9782 23.3832 26.4334 22.9281 26.4334 22.3668C26.4334 21.8051 25.9782 21.3499 25.4165 21.3499H21.8795C25.2173 17.3136 30.9091 16.1342 35.5756 18.5119C40.2421 20.8901 42.6333 26.1881 41.3297 31.2605C41.1798 31.8366 40.9872 32.4002 40.7521 32.947C39.1949 36.5073 35.9014 39.0041 32.053 39.5417C28.2042 40.0792 24.3526 38.5806 21.8795 35.5835ZM10.1665 3.4709V9.15009C10.1665 9.71136 9.71136 10.1665 9.15009 10.1665H3.4709L10.1665 3.4709ZM2.0333 51.8499V12.1998H9.15009C10.8344 12.1998 12.1998 10.8344 12.1998 9.15009V2.0333H39.6501C40.2114 2.0333 40.6665 2.48846 40.6665 3.05019V20.0203C36.4417 14.9182 29.0857 13.7468 23.4851 17.2833H7.11679C6.55506 17.2833 6.09991 17.7385 6.09991 18.3002C6.09991 18.8615 6.55506 19.3166 7.11679 19.3166H20.985C20.2753 20.0556 19.6535 20.8743 19.1328 21.7567C19.0709 21.8311 19.0201 21.914 18.982 22.0029C18.915 22.1225 18.8512 22.2425 18.787 22.3645H7.11679C6.55506 22.3645 6.09991 22.8196 6.09991 23.3813C6.09991 23.9426 6.55506 24.3978 7.11679 24.3978H17.9297C17.6114 25.3877 17.4118 26.4115 17.335 27.448H17.2833C16.722 27.448 16.2669 27.9031 16.2669 28.4648C16.2669 29.0261 16.722 29.4813 17.2833 29.4813H17.335C17.4118 30.5182 17.6114 31.542 17.9297 32.5314H15.25C14.6887 32.5314 14.2331 32.9866 14.2331 33.5479C14.2331 34.1096 14.6887 34.5647 15.25 34.5647H18.787C18.8512 34.6867 18.915 34.8067 18.982 34.9264C19.0206 35.0152 19.0709 35.0981 19.1328 35.1725C19.6535 36.0559 20.2753 36.8764 20.985 37.6168H7.11679C6.55506 37.6168 6.09991 38.0719 6.09991 38.6332C6.09991 39.1949 6.55506 39.6501 7.11679 39.6501H23.4851C29.0871 43.188 36.4459 42.0124 40.6665 36.9052V51.8499C40.6665 52.4116 40.2114 52.8668 39.6501 52.8668H3.05019C2.48846 52.8668 2.0333 52.4116 2.0333 51.8499ZM46.7669 57.9498C46.7669 58.5115 46.3113 58.9667 45.75 58.9667H9.15009C8.58836 58.9667 8.13321 58.5115 8.13321 57.9498V54.9001H39.6501C41.3344 54.9001 42.6998 53.5346 42.6998 51.8499V33.5623C42.7733 33.3845 42.8352 33.2021 42.9032 33.0224C42.939 32.9256 42.9777 32.8312 43.0112 32.7348L43.0558 32.5985C43.0628 32.577 43.0721 32.5556 43.0791 32.5333H46.7669V57.9498ZM56.9334 30.5H43.5613C43.5734 30.4218 43.5775 30.3413 43.5887 30.2622C43.6017 30.1603 43.6111 30.0649 43.6222 29.9653C43.6823 29.4678 43.7139 28.9675 43.7167 28.4667C43.7134 27.9659 43.6823 27.4661 43.6232 26.9691C43.6111 26.8676 43.6017 26.7657 43.5887 26.6712C43.5775 26.5921 43.5734 26.5116 43.5613 26.4334H56.9334C58.0564 26.4334 58.9667 27.3437 58.9667 28.4667C58.9667 29.5897 58.0564 30.5 56.9334 30.5Z" fill="#F16522"/>
<path fill-rule="evenodd" clip-rule="evenodd" d="M35.5838 21.3501H30.5003C29.939 21.3501 29.4834 21.8053 29.4834 22.367C29.4834 22.9282 29.939 23.3834 30.5003 23.3834H35.5838C36.145 23.3834 36.6002 22.9282 36.6002 22.367C36.6002 21.8053 36.145 21.3501 35.5838 21.3501Z" fill="#F16522"/>
<path fill-rule="evenodd" clip-rule="evenodd" d="M18.3006 44.7335H19.317C19.8787 44.7335 20.3339 44.2783 20.3339 43.7171C20.3339 43.1553 19.8787 42.7002 19.317 42.7002H18.3006C17.7388 42.7002 17.2837 43.1553 17.2837 43.7171C17.2837 44.2783 17.7388 44.7335 18.3006 44.7335Z" fill="#F16522"/>
<path fill-rule="evenodd" clip-rule="evenodd" d="M13.2169 44.7335C13.7782 44.7335 14.2333 44.2783 14.2333 43.7171C14.2333 43.1553 13.7782 42.7002 13.2169 42.7002H7.11698C6.55525 42.7002 6.1001 43.1553 6.1001 43.7171C6.1001 44.2783 6.55525 44.7335 7.11698 44.7335H13.2169Z" fill="#F16522"/>
<path fill-rule="evenodd" clip-rule="evenodd" d="M7.11698 29.4835H12.2C12.7617 29.4835 13.2169 29.0283 13.2169 28.4671C13.2169 27.9053 12.7617 27.4502 12.2 27.4502H7.11698C6.55525 27.4502 6.1001 27.9053 6.1001 28.4671C6.1001 29.0283 6.55525 29.4835 7.11698 29.4835Z" fill="#F16522"/>
<path fill-rule="evenodd" clip-rule="evenodd" d="M7.11698 34.567H10.1667C10.7284 34.567 11.1836 34.1118 11.1836 33.5506C11.1836 32.9888 10.7284 32.5337 10.1667 32.5337H7.11698C6.55525 32.5337 6.1001 32.9888 6.1001 33.5506C6.1001 34.1118 6.55525 34.567 7.11698 34.567Z" fill="#F16522"/>
<path fill-rule="evenodd" clip-rule="evenodd" d="M32.5335 35.5836H35.5837C36.145 35.5836 36.6001 35.1284 36.6001 34.5667C36.6001 34.0054 36.145 33.5503 35.5837 33.5503H32.5335C31.9722 33.5503 31.5171 34.0054 31.5171 34.5667C31.5171 35.1284 31.9722 35.5836 32.5335 35.5836Z" fill="#F16522"/>
</g>
<defs>
<clipPath id="clip0_158:656">
<rect width="61" height="61" fill="white"/>
</clipPath>
</defs>
</svg>
