<svg width="61" height="61" viewBox="0 0 61 61" fill="none" xmlns="http://www.w3.org/2000/svg">
<g clip-path="url(#clip0_158:665)">
<path d="M58.3192 27.1197H54.0301V15.3129C54.0301 12.8493 52.0259 10.8451 49.5623 10.8451H37.5187C37.7764 9.73784 37.945 8.53596 38.0238 7.24054C38.0521 6.7672 37.8157 6.32328 37.407 6.08202C36.9968 5.84005 36.4922 5.84779 36.0902 6.1018C35.3868 6.54584 34.7638 6.87049 34.1593 7.10401C34.6681 4.9042 34.2328 2.41369 33.4865 0.743103C33.2965 0.319797 32.8912 0.0361242 32.4286 0.002884C31.9636 -0.031071 31.5198 0.193389 31.2707 0.585838C30.154 2.33863 28.5267 3.36824 26.2958 3.73353C24.0764 4.09679 21.2608 3.81764 17.6874 2.88001C15.6071 2.33398 13.5323 2.32088 11.5206 2.84093C11.0427 2.96448 10.7556 3.452 10.8791 3.92975C11.0027 4.40762 11.4904 4.69451 11.9678 4.57132C13.6807 4.1286 15.4526 4.14123 17.2338 4.60861C24.6241 6.54834 29.4138 5.84184 32.1879 2.37294C32.6462 3.88352 32.8062 5.87174 32.1904 7.44487C32.0165 7.88605 32.1027 8.38167 32.4152 8.73861C32.7261 9.09389 33.2037 9.24365 33.6591 9.13142C34.4905 8.92817 35.2873 8.6128 36.1575 8.13684C35.2467 16.8328 29.6247 19.6045 21.1325 18.0208C17.0493 17.2598 13.739 15.7162 13.375 15.5427C13.053 15.3893 12.6708 15.4419 12.4022 15.6768C12.1338 15.9116 12.0306 16.2834 12.1398 16.6229C13.0947 19.5922 12.4444 23.3121 10.4881 26.2212H8.32381C8.3088 26.2212 8.29379 26.2213 8.27877 26.2214C8.27591 26.2214 8.27294 26.2214 8.27008 26.2215C8.25673 26.2216 8.24339 26.2219 8.23005 26.2222C8.22802 26.2222 8.22599 26.2223 8.22397 26.2223C8.20836 26.2227 8.19264 26.2232 8.17703 26.2238C8.17655 26.2238 8.17607 26.2238 8.1756 26.2238C8.16035 26.2244 8.14522 26.225 8.12997 26.2257C8.12854 26.2258 8.12711 26.2258 8.12568 26.2259C7.44765 26.2595 6.80203 26.4654 6.23885 26.8228C1.20505 21.7421 1.32181 16.9787 2.34463 13.8334C3.39259 10.6107 5.55046 8.68333 6.18405 8.53202C6.39719 8.58266 6.62344 8.55323 6.81823 8.44684C7.04865 8.32103 7.21211 8.10026 7.26513 7.84327C7.35091 7.42736 7.92659 6.64579 8.98754 5.91249C9.39345 5.63191 9.49508 5.07529 9.2145 4.66926C8.93393 4.26323 8.3773 4.16148 7.97139 4.44229C6.91998 5.16905 6.14557 5.9985 5.75502 6.79794C5.31778 6.91136 4.83443 7.18276 4.30925 7.61095C3.53186 8.24466 2.74053 9.17026 2.08073 10.2173C1.19028 11.6303 -0.258826 14.561 0.0398588 18.3123C0.315907 21.7789 1.97923 25.0678 4.98669 28.0979C4.61735 28.7034 4.41994 29.4004 4.41994 30.1263C4.41994 32.2798 6.17142 34.0318 8.32417 34.0318H9.47745V40.7616C7.7866 41.1938 6.25506 42.1408 5.10535 43.4782C3.77288 45.0281 3.0391 47.0088 3.0391 49.0554V58.3185C3.0391 59.7966 4.24158 60.9992 5.71976 60.9992H26.2333C27.7115 60.9992 28.914 59.7966 28.914 58.3185V50.9842C28.914 49.9196 28.7548 48.8701 28.4409 47.8644C28.2939 47.3935 27.7929 47.1309 27.3217 47.2778C26.8506 47.4248 26.5879 47.9259 26.7351 48.3971C26.9951 49.23 27.1269 50.1005 27.1269 50.9842V58.3185C27.1269 58.8113 26.7261 59.2121 26.2333 59.2121H12.2297V51.4862C12.2297 48.9523 10.1683 46.8911 7.63458 46.8911C6.63261 46.8911 5.70451 47.2135 4.94856 47.7599C5.41571 45.3185 7.18268 43.3294 9.57133 42.59C9.76553 42.9831 10.3617 43.7052 12.1925 45.3957C13.9151 46.9863 15.7277 48.4538 17.1658 49.4223C18.7598 50.4957 19.9244 51.0074 20.8098 51.0072C21.0711 51.0072 21.3083 50.9627 21.5247 50.8749C23.4009 50.1145 23.2226 47.2798 23.1641 46.3484C23.1001 45.3312 22.9323 44.2876 22.7691 43.4422C23.6602 43.9562 24.4583 44.6279 25.1243 45.43C25.301 45.6429 25.5557 45.7529 25.8123 45.7529C26.0134 45.7529 26.2157 45.6855 26.3826 45.5469C26.7623 45.2317 26.8146 44.6684 26.4994 44.2887C25.4225 42.9914 24.0576 41.9771 22.5197 41.3252C24.898 40.9197 27.0884 39.7926 28.8288 38.052C30.4929 36.3879 31.5963 34.3126 32.0444 32.0552H34.6611C34.5941 33.2279 34.3439 34.3702 33.9144 35.4599C33.6973 36.0126 33.8297 36.6403 34.252 37.0591C34.5371 37.3418 34.9158 37.492 35.3015 37.492C35.4879 37.492 35.6762 37.4568 35.8558 37.3845C38.4581 36.3399 40.6564 34.4586 42.0972 32.0553H44.6776V38.0005C44.6776 39.4785 45.8802 40.6811 47.3582 40.6811H51.6398C52.6496 42.5354 54.1004 44.1281 55.8631 45.3109C56.1146 45.4795 56.4042 45.564 56.694 45.564C56.9744 45.564 57.255 45.4847 57.5009 45.326C58.0017 45.0026 58.2615 44.4131 58.1631 43.8256C58.0596 43.2012 58.007 42.567 58.007 41.9404C58.007 41.5209 58.0304 41.0996 58.0767 40.6811H58.3192C59.7972 40.6811 60.9998 39.4785 60.9998 38.0005V29.8C60.9998 28.3223 59.7972 27.1197 58.3192 27.1197ZM5.72012 59.2126C5.22735 59.2126 4.82656 58.8118 4.82656 58.319V57.068H10.4426V59.2126H5.72012ZM7.63458 48.6786C9.18293 48.6786 10.4426 49.9383 10.4426 51.4867V55.2809H4.82656V51.4867C4.82656 49.9383 6.08623 48.6786 7.63458 48.6786ZM33.1449 17.9836C33.5533 18.861 33.7727 19.8693 33.7727 20.9065C33.7727 22.5608 33.2027 24.1144 32.2704 25.175V22.0646C32.2704 20.956 32.1054 19.8697 31.7789 18.8248C31.959 18.7319 32.1357 18.6345 32.3089 18.5324C32.5983 18.3618 32.877 18.1787 33.1449 17.9836ZM20.8629 49.2157C20.8526 49.2186 19.7907 49.4332 15.7277 46.106C13.5749 44.3431 11.7349 42.5205 11.2647 41.9339C11.2647 41.3883 11.2647 37.896 11.2647 36.9945C13.5012 39.853 16.9428 41.5247 20.622 41.4934C20.6273 41.992 20.5926 41.8382 20.7254 42.4232C22.1084 48.5183 20.9859 49.1653 20.8629 49.2157ZM27.5651 36.7888C25.913 38.4409 23.7826 39.4413 21.4861 39.6609C21.4506 39.6621 21.4157 39.6653 21.3814 39.6704C21.0964 39.6947 20.8089 39.707 20.5195 39.707C16.3717 39.707 12.696 37.1648 11.2209 33.3305C11.212 33.3031 11.2019 33.2763 11.1904 33.2502C11.1422 33.1214 11.0963 32.9913 11.0531 32.8598C10.9325 32.4932 10.5902 32.2454 10.2042 32.2454H8.32429C7.15695 32.2454 6.20716 31.295 6.20716 30.1271C6.20716 29.5675 6.42352 29.0394 6.81633 28.6404C7.21759 28.233 7.75313 28.0086 8.32429 28.0086H10.9532C11.2388 28.0086 11.5072 27.8721 11.6755 27.6412C13.3808 25.3004 14.8114 21.6519 14.2569 17.8677C15.7602 18.4644 18.1054 19.2748 20.8048 19.7779C24.434 20.4543 27.5557 20.366 30.1213 19.5181C30.3617 20.3413 30.4832 21.1946 30.4832 22.0647V26.9782C30.4831 26.9887 30.483 26.9991 30.4832 27.0096V29.7433C30.4832 30.174 30.456 30.6004 30.4025 31.0207C30.3998 31.0378 30.3975 31.0549 30.3959 31.0723C30.1102 33.2301 29.1299 35.2238 27.5651 36.7888ZM41.5787 30.2686C41.2514 30.2686 40.9503 30.4477 40.7937 30.7353C39.6733 32.7953 37.9226 34.4495 35.8178 35.4512C36.2961 34.0095 36.487 32.5905 36.4638 31.1483C36.4563 30.6602 36.0585 30.2686 35.5704 30.2686H32.2588C32.2664 30.0942 32.2702 29.919 32.2702 29.7433V27.5122C34.285 26.2391 35.5595 23.7131 35.5595 20.9067C35.5595 19.4272 35.1975 17.9839 34.5297 16.7655C35.5871 15.6477 36.4102 14.2679 36.9961 12.6324H49.5623C51.0404 12.6324 52.243 13.835 52.243 15.313V27.5879C52.243 27.6837 52.2379 27.7783 52.2281 27.8715C52.2244 27.8948 52.2216 27.9184 52.2197 27.9424C52.0457 29.2535 50.9203 30.2686 49.5623 30.2686H41.5787ZM59.2127 38.0008C59.2127 38.4936 58.8119 38.8944 58.3192 38.8944H57.3029C56.8695 38.8944 56.4987 39.2053 56.423 39.632C56.2882 40.3927 56.2199 41.1695 56.2199 41.9408C56.2199 42.4353 56.2481 42.9339 56.3043 43.4305C54.9011 42.3616 53.7613 40.9779 52.9858 39.3949C52.8357 39.0886 52.5245 38.8944 52.1834 38.8944H47.3582C46.8655 38.8944 46.4647 38.4936 46.4647 38.0008V32.0557H49.5623C51.567 32.0557 53.2675 30.7286 53.8314 28.9068H58.3192C58.8119 28.9068 59.2127 29.3076 59.2127 29.8004V38.0008Z" fill="#F16522"/>
<path d="M26.8872 24.5708C26.3937 24.5708 25.9937 24.9708 25.9937 25.4644V26.4622C25.9937 26.9558 26.3937 27.3557 26.8872 27.3557C27.3807 27.3557 27.7808 26.9558 27.7808 26.4622V25.4644C27.7808 24.9709 27.3808 24.5708 26.8872 24.5708Z" fill="#F16522"/>
<path d="M19.6621 26.4622V25.4644C19.6621 24.9708 19.262 24.5708 18.7686 24.5708C18.2751 24.5708 17.875 24.9708 17.875 25.4644V26.4622C17.875 26.9558 18.2751 27.3557 18.7686 27.3557C19.262 27.3557 19.6621 26.9558 19.6621 26.4622Z" fill="#F16522"/>
<path d="M26.185 30.1872C25.718 30.0292 25.2103 30.2792 25.0518 30.7467C24.7287 31.6999 23.8349 32.3404 22.8278 32.3404C21.8207 32.3404 20.9269 31.6999 20.6038 30.7467C20.4454 30.2793 19.9383 30.0287 19.4707 30.1872C19.0033 30.3456 18.7529 30.8529 18.9113 31.3203C19.4805 32.9995 21.0544 34.1276 22.8278 34.1276C24.6012 34.1276 26.1752 32.9995 26.7443 31.3203C26.9028 30.8529 26.6524 30.3456 26.185 30.1872Z" fill="#F16522"/>
<path d="M19.9645 23.5954C20.1248 23.7149 20.3119 23.7724 20.4975 23.7723C20.7702 23.7723 21.0395 23.6479 21.2148 23.4124C21.5096 23.0167 21.4278 22.4568 21.032 22.1621C19.4877 21.0117 17.855 21.0117 16.3105 22.1621C15.9148 22.4569 15.8329 23.0167 16.1277 23.4124C16.4225 23.8083 16.9824 23.8902 17.378 23.5953C18.2843 22.9205 19.0579 22.9202 19.9645 23.5954Z" fill="#F16522"/>
<path d="M29.3454 22.1625C27.8009 21.0121 26.1683 21.0123 24.624 22.1625C24.2282 22.4573 24.1464 23.0171 24.4411 23.4128C24.736 23.8087 25.2958 23.8905 25.6915 23.5957C26.5979 22.9206 27.3715 22.9206 28.2779 23.5957C28.4382 23.715 28.6255 23.7727 28.811 23.7726C29.0837 23.7726 29.3529 23.6483 29.5283 23.4127C29.8231 23.017 29.7412 22.4572 29.3454 22.1625Z" fill="#F16522"/>
<path d="M47.0903 22.2798H47.2095C47.7031 22.2798 48.103 21.8798 48.103 21.3862C48.103 20.8926 47.7031 20.4927 47.2095 20.4927H47.0903C46.5967 20.4927 46.1968 20.8926 46.1968 21.3862C46.1968 21.8798 46.5967 22.2798 47.0903 22.2798Z" fill="#F16522"/>
<path d="M42.5928 20.4927H42.4736C41.98 20.4927 41.5801 20.8926 41.5801 21.3862C41.5801 21.8798 41.98 22.2798 42.4736 22.2798H42.5928C43.0864 22.2798 43.4863 21.8798 43.4863 21.3862C43.4863 20.8926 43.0863 20.4927 42.5928 20.4927Z" fill="#F16522"/>
<path d="M37.9761 20.4927H37.8569C37.3633 20.4927 36.9634 20.8926 36.9634 21.3862C36.9634 21.8798 37.3633 22.2798 37.8569 22.2798H37.9761C38.4697 22.2798 38.8696 21.8798 38.8696 21.3862C38.8696 20.8926 38.4696 20.4927 37.9761 20.4927Z" fill="#F16522"/>
<path d="M49.4629 33.002H49.3438C48.8502 33.002 48.4502 33.4019 48.4502 33.8955C48.4502 34.3891 48.8502 34.7891 49.3438 34.7891H49.4629C49.9565 34.7891 50.3564 34.3891 50.3564 33.8955C50.3564 33.4019 49.9564 33.002 49.4629 33.002Z" fill="#F16522"/>
<path d="M52.8984 33.002H52.7793C52.2857 33.002 51.8857 33.4019 51.8857 33.8955C51.8857 34.3891 52.2857 34.7891 52.7793 34.7891H52.8984C53.392 34.7891 53.792 34.3891 53.792 33.8955C53.792 33.4019 53.3919 33.002 52.8984 33.002Z" fill="#F16522"/>
<path d="M56.3335 33.002H56.2144C55.7208 33.002 55.3208 33.4019 55.3208 33.8955C55.3208 34.3891 55.7208 34.7891 56.2144 34.7891H56.3335C56.8271 34.7891 57.2271 34.3891 57.2271 33.8955C57.2271 33.4019 56.827 33.002 56.3335 33.002Z" fill="#F16522"/>
</g>
<defs>
<clipPath id="clip0_158:665">
<rect width="61" height="61" fill="white"/>
</clipPath>
</defs>
</svg>
