<svg width="61" height="61" viewBox="0 0 61 61" fill="none" xmlns="http://www.w3.org/2000/svg">
<g clip-path="url(#clip0_158:641)">
<path d="M26.1307 4.99432C26.1307 5.92464 25.3768 6.67904 24.4464 6.67904C23.5161 6.67904 22.7617 5.92464 22.7617 4.99432C22.7617 4.064 23.5161 3.31006 24.4464 3.31006C25.3768 3.31006 26.1307 4.064 26.1307 4.99432Z" fill="#F16522"/>
<path d="M41.7719 8.30309H29.9211V5.35529C29.9211 2.33674 27.4652 -0.119141 24.4467 -0.119141C21.4281 -0.119141 18.9722 2.33674 18.9722 5.35529V8.30309H7.12099C5.29664 8.30309 3.8125 9.78724 3.8125 11.6116V57.572C3.8125 59.3964 5.29664 60.881 7.12099 60.881H41.7719C43.5962 60.881 45.0808 59.3964 45.0808 57.572V39.2243C45.0808 38.7259 44.6769 38.3219 44.1785 38.3219C43.68 38.3219 43.2761 38.7259 43.2761 39.2243V57.5725C43.2761 58.4018 42.6012 59.0762 41.7719 59.0762H7.12099C6.29165 59.0762 5.6173 58.4014 5.6173 57.5725V11.6116C5.6173 10.7822 6.29165 10.1079 7.12099 10.1079H41.7719C42.6012 10.1079 43.2761 10.7827 43.2761 11.6116V35.0283C43.2761 35.5263 43.68 35.9303 44.1785 35.9303C44.6769 35.9303 45.0808 35.5263 45.0808 35.0283V11.6116C45.0808 9.78724 43.5962 8.30309 41.7719 8.30309ZM20.777 5.35529C20.777 3.33176 22.4231 1.68566 24.4467 1.68566C26.4702 1.68566 28.1163 3.33176 28.1163 5.35529V8.30309H20.777V5.35529Z" fill="#F16522"/>
<path d="M32.628 17.2065H16.2647C15.7663 17.2065 15.3623 17.6105 15.3623 18.1085C15.3623 18.6069 15.7663 19.0109 16.2647 19.0109H32.6275C33.1259 19.0109 33.5299 18.6069 33.5299 18.1085C33.5299 17.6105 33.1259 17.2065 32.628 17.2065Z" fill="#F16522"/>
<path d="M8.56453 27.5085C8.06656 27.5085 7.6626 27.9125 7.6626 28.4109V56.1284C7.6626 56.6268 8.06656 57.0308 8.56453 57.0308H40.3281C40.8266 57.0308 41.2305 56.6268 41.2305 56.1284V13.0553C41.2305 12.5573 40.8266 12.1533 40.3281 12.1533H8.56453C8.06656 12.1533 7.6626 12.5573 7.6626 13.0553V24.1959C7.6626 24.6943 8.06656 25.0983 8.56453 25.0983C9.06297 25.0983 9.46693 24.6943 9.46693 24.1959V13.9577H39.4257V55.226H9.46693V28.4109C9.46693 27.9125 9.06297 27.5085 8.56453 27.5085Z" fill="#F16522"/>
<path d="M12.1138 24.3653V29.1779C12.1138 29.6764 12.5177 30.0803 13.0162 30.0803H17.9489C18.4473 30.0803 18.8513 29.6764 18.8513 29.1779V24.3653C18.8513 23.8669 18.4473 23.4629 17.9489 23.4629H13.0162C12.5177 23.4629 12.1138 23.8669 12.1138 24.3653ZM13.9186 25.2677H17.0465V28.2755H13.9186V25.2677Z" fill="#F16522"/>
<path d="M35.8768 23.583H21.1983C20.6999 23.583 20.2959 23.9874 20.2959 24.4854C20.2959 24.9838 20.6999 25.3878 21.1983 25.3878H35.8768C36.3748 25.3878 36.7792 24.9838 36.7792 24.4854C36.7792 23.987 36.3748 23.583 35.8768 23.583Z" fill="#F16522"/>
<path d="M21.1983 30.0802H29.8607C30.3591 30.0802 30.7631 29.6762 30.7631 29.1778C30.7631 28.6794 30.3591 28.2754 29.8607 28.2754H21.1983C20.6999 28.2754 20.2959 28.6794 20.2959 29.1778C20.2959 29.6762 20.6999 30.0802 21.1983 30.0802Z" fill="#F16522"/>
<path d="M12.1138 39.8855C12.1138 40.3839 12.5177 40.7879 13.0162 40.7879H17.9489C18.4473 40.7879 18.8513 40.3839 18.8513 39.8855V35.0733C18.8513 34.5749 18.4473 34.1709 17.9489 34.1709H13.0162C12.5177 34.1709 12.1138 34.5749 12.1138 35.0733V39.8855ZM13.9186 35.9757H17.0465V38.9835H13.9186V35.9757Z" fill="#F16522"/>
<path d="M35.8768 34.291H21.1983C20.6999 34.291 20.2959 34.695 20.2959 35.1934C20.2959 35.6918 20.6999 36.0958 21.1983 36.0958H35.8768C36.3748 36.0958 36.7792 35.6918 36.7792 35.1934C36.7792 34.695 36.3748 34.291 35.8768 34.291Z" fill="#F16522"/>
<path d="M21.1983 40.7882H29.8607C30.3591 40.7882 30.7631 40.3842 30.7631 39.8858C30.7631 39.3878 30.3591 38.9834 29.8607 38.9834H21.1983C20.6999 38.9834 20.2959 39.3878 20.2959 39.8858C20.2959 40.3847 20.6999 40.7882 21.1983 40.7882Z" fill="#F16522"/>
<path d="M12.1138 50.5939C12.1138 51.0924 12.5177 51.4963 13.0162 51.4963H17.9489C18.4473 51.4963 18.8513 51.0924 18.8513 50.5939V45.7813C18.8513 45.2829 18.4473 44.8789 17.9489 44.8789H13.0162C12.5177 44.8789 12.1138 45.2829 12.1138 45.7813V50.5939ZM13.9186 46.6837H17.0465V49.6915H13.9186V46.6837Z" fill="#F16522"/>
<path d="M36.7792 45.9019C36.7792 45.4035 36.3748 44.9995 35.8768 44.9995H21.1983C20.6999 44.9995 20.2959 45.4035 20.2959 45.9019C20.2959 46.3999 20.6999 46.8043 21.1983 46.8043H35.8768C36.3748 46.8043 36.7792 46.4003 36.7792 45.9019Z" fill="#F16522"/>
<path d="M21.1983 49.6914C20.6999 49.6914 20.2959 50.0954 20.2959 50.5938C20.2959 51.0922 20.6999 51.4962 21.1983 51.4962H29.8607C30.3591 51.4962 30.7631 51.0922 30.7631 50.5938C30.7631 50.0954 30.3591 49.6914 29.8607 49.6914H21.1983Z" fill="#F16522"/>
<path d="M54.6454 8.30273H51.0363C49.5433 8.30273 48.3291 9.51695 48.3291 11.0095V51.1953C48.3291 51.4019 48.4003 51.603 48.5306 51.7635L52.1397 56.215C52.3115 56.4263 52.5688 56.5492 52.8406 56.5492C53.1129 56.5492 53.3702 56.4263 53.542 56.215L57.1511 51.7635C57.2819 51.603 57.3526 51.4019 57.3526 51.1953V24.7856C57.3526 24.2876 56.9487 23.8837 56.4502 23.8837C55.9518 23.8837 55.5478 24.2876 55.5478 24.7856V50.8751L52.8406 54.2143L50.1339 50.8751V16.9651H51.9387V51.1953C51.9387 51.6937 52.3427 52.0977 52.8406 52.0977C53.3391 52.0977 53.743 51.6937 53.743 51.1953V16.9651H55.5478V20.5849C55.5478 21.0834 55.9518 21.4873 56.4502 21.4873C56.9487 21.4873 57.3526 21.0834 57.3526 20.5849V11.0095C57.3526 9.51695 56.1384 8.30273 54.6454 8.30273ZM50.1339 15.1608V11.0095C50.1339 10.512 50.5388 10.1075 51.0363 10.1075H54.6459C55.1434 10.1075 55.5483 10.512 55.5483 11.0095V15.1608H50.1339Z" fill="#F16522"/>
</g>
<defs>
<clipPath id="clip0_158:641">
<rect width="61" height="61" fill="white"/>
</clipPath>
</defs>
</svg>
