<svg width="552" height="279" viewBox="0 0 552 279" fill="none" xmlns="http://www.w3.org/2000/svg">
<path d="M59.5996 20.4854L25.1514 123H0.996094L46.1523 2.14062H61.5918L59.5996 20.4854ZM88.4033 123L53.7891 20.4854L51.7139 2.14062H67.2363L112.642 123H88.4033ZM86.8262 78.0928V96.1055H21.9971V78.0928H86.8262ZM171.411 69.1279H140.532L140.366 53.0244H166.846C171.383 53.0244 175.174 52.388 178.218 51.1152C181.261 49.8424 183.558 47.9886 185.107 45.5537C186.712 43.1188 187.515 40.1582 187.515 36.6719C187.515 32.7982 186.768 29.6439 185.273 27.209C183.835 24.7741 181.566 23.0033 178.467 21.8965C175.368 20.7344 171.439 20.1533 166.68 20.1533H147.92V123H125.093V2.14062H166.68C173.542 2.14062 179.657 2.80469 185.024 4.13281C190.448 5.4056 195.041 7.39779 198.804 10.1094C202.567 12.821 205.417 16.2243 207.354 20.3193C209.346 24.4144 210.342 29.2842 210.342 34.9287C210.342 39.9092 209.18 44.5023 206.855 48.708C204.587 52.8584 201.073 56.234 196.313 58.835C191.61 61.4359 185.633 62.93 178.384 63.3174L171.411 69.1279ZM170.415 123H133.809L143.354 105.07H170.415C174.953 105.07 178.688 104.323 181.621 102.829C184.609 101.335 186.823 99.2874 188.262 96.6865C189.756 94.0303 190.503 90.9867 190.503 87.5557C190.503 83.7926 189.839 80.5277 188.511 77.7607C187.238 74.9938 185.19 72.8633 182.368 71.3691C179.601 69.875 175.949 69.1279 171.411 69.1279H147.671L147.837 53.0244H178.052L183.281 59.25C190.254 59.3053 195.926 60.6888 200.298 63.4004C204.725 66.112 207.99 69.5983 210.093 73.8594C212.196 78.1204 213.247 82.7135 213.247 87.6387C213.247 95.3861 211.559 101.888 208.184 107.146C204.863 112.403 199.993 116.359 193.574 119.016C187.21 121.672 179.491 123 170.415 123ZM330.869 59.499V65.7246C330.869 74.8555 329.652 83.0732 327.217 90.3779C324.782 97.6273 321.323 103.798 316.841 108.889C312.358 113.98 307.018 117.881 300.82 120.593C294.622 123.304 287.733 124.66 280.151 124.66C272.681 124.66 265.819 123.304 259.565 120.593C253.368 117.881 248 113.98 243.462 108.889C238.924 103.798 235.41 97.6273 232.92 90.3779C230.43 83.0732 229.185 74.8555 229.185 65.7246V59.499C229.185 50.3128 230.43 42.0951 232.92 34.8457C235.41 27.5964 238.896 21.4261 243.379 16.335C247.861 11.1885 253.201 7.25944 259.399 4.54785C265.653 1.83626 272.515 0.480469 279.985 0.480469C287.567 0.480469 294.456 1.83626 300.654 4.54785C306.852 7.25944 312.192 11.1885 316.675 16.335C321.213 21.4261 324.699 27.5964 327.134 34.8457C329.624 42.0951 330.869 50.3128 330.869 59.499ZM307.793 65.7246V59.333C307.793 52.7477 307.184 46.9648 305.967 41.9844C304.749 36.9486 302.951 32.7152 300.571 29.2842C298.192 25.8532 295.259 23.2799 291.772 21.5645C288.286 19.7936 284.357 18.9082 279.985 18.9082C275.558 18.9082 271.629 19.7936 268.198 21.5645C264.823 23.2799 261.945 25.8532 259.565 29.2842C257.186 32.7152 255.36 36.9486 254.087 41.9844C252.869 46.9648 252.261 52.7477 252.261 59.333V65.7246C252.261 72.2546 252.869 78.0374 254.087 83.0732C255.36 88.109 257.186 92.3701 259.565 95.8564C262 99.2874 264.933 101.888 268.364 103.659C271.795 105.43 275.724 106.315 280.151 106.315C284.578 106.315 288.507 105.43 291.938 103.659C295.369 101.888 298.247 99.2874 300.571 95.8564C302.951 92.3701 304.749 88.109 305.967 83.0732C307.184 78.0374 307.793 72.2546 307.793 65.7246ZM417.446 2.14062H440.273V82.4092C440.273 91.6507 438.281 99.4258 434.297 105.734C430.312 111.988 424.889 116.719 418.027 119.929C411.165 123.083 403.363 124.66 394.619 124.66C385.765 124.66 377.879 123.083 370.962 119.929C364.045 116.719 358.621 111.988 354.692 105.734C350.763 99.4258 348.799 91.6507 348.799 82.4092V2.14062H371.626V82.4092C371.626 88.0537 372.567 92.6745 374.448 96.2715C376.33 99.8132 378.986 102.442 382.417 104.157C385.848 105.873 389.915 106.73 394.619 106.73C399.378 106.73 403.446 105.873 406.821 104.157C410.252 102.442 412.881 99.8132 414.707 96.2715C416.533 92.6745 417.446 88.0537 417.446 82.4092V2.14062ZM513.818 2.14062V123H491.074V2.14062H513.818ZM551.338 2.14062V20.1533H453.97V2.14062H551.338ZM78.7744 156.141H101.602V236.409C101.602 245.651 99.6094 253.426 95.625 259.734C91.6406 265.988 86.2174 270.719 79.3555 273.929C72.4935 277.083 64.6908 278.66 55.9473 278.66C47.0931 278.66 39.2074 277.083 32.29 273.929C25.3727 270.719 19.9495 265.988 16.0205 259.734C12.0915 253.426 10.127 245.651 10.127 236.409V156.141H32.9541V236.409C32.9541 242.054 33.8949 246.674 35.7764 250.271C37.6579 253.813 40.3141 256.442 43.7451 258.157C47.1761 259.873 51.2435 260.73 55.9473 260.73C60.7064 260.73 64.7738 259.873 68.1494 258.157C71.5804 256.442 74.209 253.813 76.0352 250.271C77.8613 246.674 78.7744 242.054 78.7744 236.409V156.141ZM186.519 245.623C186.519 243.299 186.159 241.224 185.439 239.397C184.775 237.516 183.53 235.828 181.704 234.334C179.933 232.785 177.415 231.29 174.15 229.852C170.941 228.357 166.79 226.808 161.699 225.203C156.055 223.432 150.798 221.44 145.928 219.227C141.058 217.013 136.769 214.44 133.062 211.507C129.409 208.574 126.559 205.198 124.512 201.38C122.464 197.506 121.44 193.024 121.44 187.933C121.44 182.952 122.492 178.414 124.595 174.319C126.753 170.224 129.797 166.71 133.726 163.777C137.655 160.789 142.275 158.493 147.588 156.888C152.956 155.283 158.877 154.48 165.352 154.48C174.316 154.48 182.064 156.113 188.594 159.378C195.179 162.643 200.27 167.07 203.867 172.659C207.464 178.248 209.263 184.529 209.263 191.502H186.519C186.519 187.739 185.716 184.419 184.111 181.541C182.562 178.663 180.182 176.395 176.973 174.734C173.818 173.074 169.834 172.244 165.02 172.244C160.371 172.244 156.497 172.936 153.398 174.319C150.355 175.703 148.058 177.584 146.509 179.964C145.015 182.343 144.268 185 144.268 187.933C144.268 190.146 144.793 192.138 145.845 193.909C146.896 195.625 148.473 197.257 150.576 198.807C152.679 200.301 155.28 201.712 158.379 203.04C161.533 204.313 165.186 205.586 169.336 206.858C175.977 208.851 181.787 211.064 186.768 213.499C191.803 215.934 195.981 218.701 199.302 221.8C202.677 224.899 205.195 228.385 206.855 232.259C208.571 236.132 209.429 240.532 209.429 245.457C209.429 250.659 208.405 255.307 206.357 259.402C204.31 263.497 201.377 266.984 197.559 269.861C193.74 272.739 189.147 274.925 183.779 276.419C178.467 277.913 172.518 278.66 165.933 278.66C160.067 278.66 154.256 277.885 148.501 276.336C142.801 274.731 137.627 272.352 132.979 269.197C128.33 265.988 124.622 261.948 121.855 257.078C119.089 252.153 117.705 246.398 117.705 239.812H140.615C140.615 243.631 141.224 246.896 142.441 249.607C143.714 252.264 145.485 254.45 147.754 256.165C150.078 257.825 152.79 259.043 155.889 259.817C158.988 260.592 162.336 260.979 165.933 260.979C170.581 260.979 174.399 260.343 177.388 259.07C180.431 257.742 182.7 255.916 184.194 253.592C185.744 251.268 186.519 248.611 186.519 245.623Z" fill="url(#paint0_linear_2_50)"/>
<defs>
<linearGradient id="paint0_linear_2_50" x1="-11.0043" y1="154.017" x2="446.392" y2="154.017" gradientUnits="userSpaceOnUse">
<stop stop-color="#7161FF"/>
<stop offset="1" stop-color="#EA82FF"/>
</linearGradient>
</defs>
</svg>
