<svg width="292" height="292" viewBox="0 0 292 292" fill="none" xmlns="http://www.w3.org/2000/svg">
<path fill-rule="evenodd" clip-rule="evenodd" d="M146 0C186.316 0 222.818 16.3439 249.233 42.7668C275.656 69.1821 292 105.684 292 146C292 186.316 275.656 222.818 249.233 249.233C222.818 275.656 186.316 292 146 292C105.684 292 69.1821 275.656 42.7668 249.233C16.3439 222.818 0 186.316 0 146C0 112.569 11.2431 81.7502 30.1451 57.1424L35.3914 62.3811C17.7914 85.6256 7.3448 114.591 7.3448 146C7.3448 184.286 22.8692 218.95 47.9595 244.041C73.0498 269.131 107.714 284.655 146 284.655C184.286 284.655 218.95 269.131 244.041 244.041C269.131 218.95 284.655 184.286 284.655 146C284.655 107.714 269.131 73.0498 244.041 47.9595C218.95 22.8692 184.286 7.3448 146 7.3448C116.36 7.3448 88.8959 16.6503 66.3636 32.4887L61.0944 27.2194C85.0205 10.0867 114.331 0 146 0Z" fill="url(#paint0_linear_7_63)"/>
<defs>
<linearGradient id="paint0_linear_7_63" x1="0" y1="146" x2="292" y2="146" gradientUnits="userSpaceOnUse">
<stop stop-color="#9B61FF"/>
<stop offset="1" stop-color="#8CCBFF"/>
</linearGradient>
</defs>
</svg>
