<svg width="428" height="95" viewBox="0 0 428 95" fill="none" xmlns="http://www.w3.org/2000/svg">
<g clip-path="url(#clip0_23_931)">
<path d="M368.079 1.73425H384.599L412.162 66.8085L410.61 68.8163V1.73425H425.852V92.4548H409.15L381.769 29.6623L383.321 27.5631V92.4548H368.079V1.73425Z" stroke="white" stroke-width="1.95837" stroke-miterlimit="22.9256"/>
<path d="M354.663 42.6223V65.0743C354.663 70.8242 353.568 75.8439 351.286 80.1336C349.004 84.4232 345.81 87.7088 341.611 89.9905C337.413 92.3635 332.576 93.4587 326.917 93.4587C321.259 93.4587 316.239 92.3635 312.041 90.1731C307.751 88.0739 304.465 84.8795 302.184 80.7724C299.902 76.7566 298.807 71.9194 298.807 66.4433V29.4797C298.807 23.6386 299.902 18.5276 302.184 14.238C304.465 9.94835 307.66 6.66269 311.858 4.28972C315.965 2.00802 320.894 0.821533 326.552 0.821533C332.12 0.821533 336.865 1.82548 340.79 3.92465C344.715 6.02382 347.818 9.2182 350.008 13.4165C352.198 17.6149 353.568 22.8172 353.933 29.1147H336.957C336.683 26.4679 336.135 24.2774 335.314 22.6346C334.401 20.9005 333.215 19.6228 331.754 18.8014C330.203 17.9799 328.56 17.5236 326.552 17.5236C324.362 17.5236 322.445 17.9799 320.802 18.9839C319.068 19.9878 317.79 21.3569 316.878 23.1822C315.965 25.0076 315.6 27.1068 315.6 29.4797V66.4433C315.6 68.5425 316.056 70.3679 316.969 71.9194C317.882 73.471 319.159 74.6575 320.894 75.4789C322.628 76.3003 324.636 76.7566 326.917 76.7566C329.199 76.7566 331.207 76.3003 332.941 75.3876C334.675 74.4749 335.953 73.1972 336.865 71.4631C337.778 69.729 338.234 67.7211 338.234 65.3481V58.3205H327.556V42.6223H354.663V42.6223Z" stroke="white" stroke-width="1.95837" stroke-miterlimit="22.9256"/>
<path d="M285.481 92.5461H268.871V1.73425H285.481V92.5461Z" stroke="white" stroke-width="1.95837" stroke-miterlimit="22.9256"/>
<path d="M229.443 93.4587C224.332 93.4587 219.769 92.7286 215.935 91.177C212.102 89.7167 208.908 87.435 206.352 84.5144C203.797 81.5026 202.063 77.7606 200.967 73.2884L216.209 66.5346C217.396 70.2766 219.13 73.0146 221.594 74.84C224.058 76.7566 226.979 77.6693 230.447 77.6693C234.006 77.6693 236.744 76.9392 238.752 75.2963C240.76 73.7448 241.764 71.5543 241.764 68.725V64.618C241.764 62.6101 241.217 60.876 240.03 59.5982C238.844 58.3205 237.383 57.2252 235.467 56.4951C233.641 55.6737 231.177 54.761 228.074 53.8483C227.983 53.7571 227.891 53.7571 227.709 53.7571C227.709 53.6658 227.526 53.6658 227.435 53.6658L226.705 53.392C221.776 51.9317 217.761 50.3801 214.566 48.8286C211.463 47.277 208.725 44.8128 206.535 41.5271C204.344 38.1502 203.158 33.7693 203.158 28.1107V25.7377C203.158 20.5355 204.253 16.0633 206.443 12.3213C208.634 8.57933 211.828 5.65874 216.027 3.74211C220.225 1.73421 225.245 0.821533 231.177 0.821533C235.74 0.821533 239.665 1.55168 243.133 3.01197C246.51 4.47226 249.431 6.57143 251.712 9.49201C254.085 12.3213 255.728 15.972 256.823 20.1704L242.494 27.0155C241.217 23.5473 239.574 20.9918 237.566 19.1664C235.467 17.3411 233.002 16.5197 230.264 16.5197C226.796 16.5197 224.149 17.2498 222.233 18.6188C220.407 20.1704 219.403 22.1783 219.403 24.7338V27.7456C219.403 30.0273 220.042 31.8527 221.229 33.313C222.507 34.682 224.058 35.7772 225.883 36.6899C227.709 37.5113 230.264 38.424 233.55 39.428C233.824 39.428 234.006 39.5192 234.28 39.6105C234.554 39.7018 234.828 39.793 235.102 39.8843C235.284 39.9756 235.467 39.9756 235.649 40.0668C235.832 40.1581 236.014 40.1581 236.197 40.2494C240.76 41.6184 244.502 43.17 247.514 44.8128C250.435 46.3643 252.99 48.8286 254.907 52.023C256.915 55.2173 257.919 59.4157 257.919 64.618V68.5425C257.919 73.7448 256.823 78.2169 254.633 81.9589C252.351 85.7922 249.157 88.6215 244.867 90.5381C240.578 92.546 235.467 93.4587 229.443 93.4587V93.4587Z" stroke="white" stroke-width="1.95837" stroke-miterlimit="22.9256"/>
<path d="M148.579 1.73425H158.345H192.662V17.5236H158.345V39.5193H187.642V55.3087H158.345V76.7567H192.662V92.5461H158.345H148.579H142.099V1.73425H148.579Z" stroke="white" stroke-width="1.95837" stroke-miterlimit="22.9256"/>
<path d="M73.7393 1.73425H83.2311H90.0763H100.481C106.413 1.73425 111.524 2.7382 115.723 4.83737C120.012 6.84527 123.207 9.94839 125.397 13.8729C127.587 17.8887 128.683 22.6347 128.683 28.1107V66.0783C128.683 71.4631 127.679 76.1178 125.488 80.1336C123.298 84.0581 120.103 87.1613 115.905 89.3517C111.616 91.4509 106.505 92.5461 100.39 92.5461H90.0763H83.2311H73.7393V1.73425V1.73425ZM90.0763 17.4324V76.848H99.9332C103.766 76.848 106.778 75.844 108.786 73.8361C110.977 71.9195 111.981 69.0902 111.981 65.4394V28.7496C111.981 25.1902 110.977 22.3609 108.786 20.353C106.778 18.4363 103.766 17.4324 99.9332 17.4324H90.0763V17.4324Z" stroke="white" stroke-width="1.95837" stroke-miterlimit="22.9256"/>
<path d="M59.319 58.0467V71.2806H46.9978L43.8947 92.5461H31.1171L34.2203 71.2806H21.7165L18.6134 92.5461H5.83587L8.93898 71.2806H1.27246V58.0467H10.8556L14.05 35.8685H4.19304V22.6347H15.9666L19.0697 1.73425H31.8473L28.7442 22.6347H41.3392L44.351 1.73425H57.2198L54.1167 22.6347H62.1483V35.8685H52.2001L48.9144 58.0467H59.319V58.0467ZM39.4225 35.8685H26.8275L23.6332 58.0467H36.2282L39.4225 35.8685Z" stroke="white" stroke-width="1.95837" stroke-miterlimit="22.9256"/>
</g>
<defs>
<clipPath id="clip0_23_931">
<rect width="427.033" height="94.28" fill="white"/>
</clipPath>
</defs>
</svg>
