<svg width="394" height="96" viewBox="0 0 394 96" fill="none" xmlns="http://www.w3.org/2000/svg">
<path d="M335.384 1.84839H392.13V17.7978H372.033V94.1516H355.482V17.7978H335.384V1.84839Z" stroke="white" stroke-width="2.09386" stroke-miterlimit="22.9256"/>
<path d="M265.634 1.84839H282.354L310.22 68.0217L308.7 70.0578V1.84839H324.069V94.1516H307.18L279.483 30.1841L281.003 28.148V94.1516H265.634V1.84839Z" stroke="white" stroke-width="2.09386" stroke-miterlimit="22.9256"/>
<path d="M209.056 1.84839H219.021H253.643V17.7978H219.021V40.195H248.576V56.3141H219.021V78.2022H253.643V94.1516H219.021H209.056H202.47V1.84839H209.056Z" stroke="white" stroke-width="2.09386" stroke-miterlimit="22.9256"/>
<path d="M131.03 1.84839H148.088L162.274 64.4585L176.461 1.84839H193.688L169.874 94.1516H154.675L131.03 1.84839Z" stroke="white" stroke-width="2.09386" stroke-miterlimit="22.9256"/>
<path d="M82.0527 1.84839H91.8482H126.639V17.7978H91.8482V40.195H121.572V56.3141H91.8482V78.2022H126.639V94.1516H91.8482H82.0527H75.4661V1.84839H82.0527Z" stroke="white" stroke-width="2.09386" stroke-miterlimit="22.9256"/>
<path d="M60.7729 59.0289V72.6029H48.2752L45.0664 94.1516H32.2309L35.4398 72.6029H22.6043L19.5643 94.1516H6.55997L9.76883 72.6029H2V59.0289H11.6266L15.0044 36.6318H4.87109V23.0578H16.8621L19.9021 1.84839H32.9064L29.8665 23.0578H42.533L45.573 1.84839H58.5774L55.5374 23.0578H63.644V36.6318H53.5107L50.3019 59.0289H60.7729V59.0289ZM40.6753 36.6318H27.8398L24.631 59.0289H37.2975L40.6753 36.6318Z" stroke="white" stroke-width="2.09386" stroke-miterlimit="22.9256"/>
</svg>
