<svg width="25" height="25" viewBox="0 0 25 25" fill="none" xmlns="http://www.w3.org/2000/svg">
<path d="M6.28558 13.315H9.02598V24.5968C9.02598 24.8195 9.20647 25 9.42921 25H14.0757C14.2984 25 14.4789 24.8195 14.4789 24.5968V13.3681H17.6292C17.834 13.3681 18.0064 13.2144 18.0298 13.011L18.5082 8.85758C18.5214 8.74331 18.4852 8.62887 18.4087 8.54315C18.3322 8.45734 18.2227 8.40823 18.1078 8.40823H14.479V5.80468C14.479 5.01984 14.9016 4.62185 15.7352 4.62185C15.854 4.62185 18.1078 4.62185 18.1078 4.62185C18.3305 4.62185 18.511 4.44129 18.511 4.21863V0.40621C18.511 0.183468 18.3305 0.00298387 18.1078 0.00298387H14.838C14.8149 0.00185484 14.7637 0 14.6882 0C14.1209 0 12.1489 0.111371 10.5911 1.54444C8.86518 3.1325 9.1051 5.03395 9.16244 5.36363V8.40814H6.28558C6.06284 8.40814 5.88235 8.58863 5.88235 8.81137V12.9117C5.88235 13.1344 6.06284 13.315 6.28558 13.315Z" fill="white"/>
</svg>
