<svg width="353" height="232" viewBox="0 0 353 232" fill="none" xmlns="http://www.w3.org/2000/svg">
<g clip-path="url(#clip0_29_1330)">
<path d="M16.9596 54.7474V131.063H26.419C31.7608 131.063 34.9726 128.315 34.9726 120.69V65.1196C34.9726 57.4948 31.7608 54.7474 26.419 54.7474H16.9596ZM0.166809 39.502H26.7293C43.5263 39.502 51.7739 48.7904 51.7739 65.9094V119.938C51.7739 137.02 43.5263 146.308 26.7293 146.308H0.166809V39.502Z" fill="white"/>
<path d="M78.4831 39.502V121.9C78.4831 129.521 81.85 132.273 87.1835 132.273C92.5253 132.273 95.8965 129.521 95.8965 121.9V39.502H111.767V120.816C111.767 137.936 103.217 147.686 86.7306 147.686C70.2397 147.686 61.6861 137.936 61.6861 120.816V39.502H78.4831Z" fill="white"/>
<path d="M140.015 84.5324H163.059V99.7779H140.015V131.063H169.013V146.308H123.218V39.502H169.013V54.7474H140.015V84.5324Z" fill="white"/>
<path d="M194.364 68.9509V146.308H179.249V39.502H200.314L217.568 103.445V39.502H232.537V146.308H215.283L194.364 68.9509Z" fill="white"/>
<path d="M261.389 54.7474V131.063H270.852C276.198 131.063 279.402 128.315 279.402 120.69V65.1196C279.402 57.4948 276.198 54.7474 270.852 54.7474H261.389ZM244.592 39.502H271.158C287.955 39.502 296.195 48.7904 296.195 65.9094V119.938C296.195 137.02 287.955 146.308 271.158 146.308H244.592V39.502Z" fill="white"/>
<path d="M323.675 84.5324H346.724V99.7779H323.675V131.063H352.674V146.308H306.874V39.502H352.674V54.7474H323.675V84.5324Z" fill="white"/>
<path d="M0.166809 185.802H352.674V168.628H0.166809V185.802Z" fill="white"/>
<path d="M0.166809 17.1737H352.833V0H0.166809V17.1737Z" fill="white"/>
<path d="M12.4732 211.877L7.29905 222.502H17.3999L12.4732 211.877ZM21.6851 231.748L18.3559 224.623H6.27596L2.87966 231.748H0.347107L11.5046 208.546H13.425L24.1883 231.748H21.6851Z" fill="white"/>
<path d="M43.8449 213.087C42.2726 211.461 39.8574 210.63 36.6163 210.63H29.3247V229.664H35.4632C38.8637 229.664 41.4969 228.875 43.3921 227.291C45.2748 225.665 46.2098 223.291 46.2098 220.166C46.2098 217.087 45.4257 214.709 43.8449 213.087ZM44.8051 228.833C42.499 230.79 39.3543 231.748 35.35 231.748H27.0647V208.546H36.6582C40.5283 208.546 43.5053 209.588 45.5347 211.667C47.4928 213.709 48.4824 216.545 48.4824 220.166C48.4824 223.917 47.2496 226.791 44.8051 228.833Z" fill="white"/>
<path d="M90.3408 213.087C88.76 211.461 86.3491 210.63 83.1037 210.63H75.8038V229.664H81.9465C85.3428 229.664 87.9885 228.875 89.8796 227.291C91.7622 225.665 92.7014 223.291 92.7014 220.166C92.7014 217.087 91.9132 214.709 90.3408 213.087ZM91.301 228.833C88.9865 230.79 85.8417 231.748 81.8374 231.748H73.5438V208.546H83.1457C87.0158 208.546 89.976 209.588 92.0138 211.667C93.9677 213.709 94.9614 216.545 94.9614 220.166C94.9614 223.917 93.7287 226.791 91.301 228.833Z" fill="white"/>
<path d="M99.5443 231.748V208.546H117.742V210.63H101.775V218.628H115.914V220.708H101.775V229.664H117.91V231.748H99.5443Z" fill="white"/>
<path d="M142.447 214.167C140.656 211.629 137.897 210.377 134.149 210.377C130.933 210.377 128.367 211.293 126.476 213.045C124.581 214.835 123.629 217.208 123.629 220.166C123.629 223.165 124.53 225.543 126.346 227.291C128.145 229.038 130.631 229.916 133.776 229.916C137.378 229.916 140.183 228.622 142.162 226.085L144.044 227.291C141.587 230.416 138.166 232 133.813 232C129.998 232 126.966 230.958 124.727 228.832C122.492 226.707 121.369 223.875 121.369 220.334C121.369 216.666 122.522 213.709 124.832 211.545C127.134 209.378 130.249 208.294 134.149 208.294C138.69 208.294 142.09 209.835 144.35 212.961L142.447 214.167Z" fill="white"/>
<path d="M168.322 213.171C166.502 211.545 163.965 210.714 160.699 210.714C157.462 210.714 154.929 211.545 153.126 213.209C151.323 214.835 150.418 217.171 150.418 220.166C150.418 223.165 151.328 225.543 153.143 227.291C154.963 229.038 157.474 229.916 160.699 229.916C163.965 229.916 166.502 229.038 168.322 227.333C170.141 225.585 171.051 223.207 171.051 220.166C171.051 217.129 170.141 214.835 168.322 213.171ZM169.919 228.833C167.663 230.916 164.586 232 160.699 232C156.795 232 153.73 230.958 151.499 228.833C149.277 226.749 148.158 223.833 148.158 220.166C148.158 216.503 149.294 213.671 151.554 211.629C153.772 209.63 156.824 208.63 160.699 208.63C164.586 208.63 167.642 209.63 169.869 211.629C172.167 213.671 173.307 216.503 173.307 220.166C173.307 223.791 172.175 226.665 169.919 228.833Z" fill="white"/>
<path d="M189.056 210.63H179.81V219.46H188.507C190.444 219.46 191.97 219.128 193.144 218.46C194.482 217.628 195.165 216.461 195.165 214.835C195.165 212.045 193.119 210.63 189.056 210.63ZM193.853 220.418C196.004 221.46 197.081 223.207 197.081 225.749V231.748H194.821V225.833C194.821 223.002 192.775 221.586 188.683 221.586H179.81V231.748H177.546V208.546H188.989C194.612 208.546 197.425 210.63 197.425 214.793C197.425 217.46 196.234 219.334 193.853 220.418Z" fill="white"/>
<path d="M239.527 213.087C237.954 211.461 235.539 210.63 232.302 210.63H224.998V229.664H231.132C234.533 229.664 237.187 228.875 239.07 227.291C240.952 225.665 241.896 223.291 241.896 220.166C241.896 217.087 241.103 214.709 239.527 213.087ZM240.483 228.833C238.181 230.79 235.028 231.748 231.04 231.748H222.734V208.546H232.336C236.214 208.546 239.166 209.588 241.204 211.667C243.162 213.709 244.151 216.545 244.151 220.166C244.151 223.917 242.931 226.791 240.483 228.833Z" fill="white"/>
<path d="M248.739 231.748V208.546H266.932V210.63H250.965V218.628H265.116V220.708H250.965V229.664H267.104V231.748H248.739Z" fill="white"/>
<path d="M280.865 232C277.842 232 275.393 231.458 273.536 230.374C271.209 229.038 270.06 227.001 270.06 224.165V223.085H272.307V224.001C272.307 227.959 275.171 229.916 280.915 229.916C282.915 229.916 284.588 229.622 285.913 229.038C287.574 228.29 288.408 227.165 288.408 225.623C288.408 224.581 288.111 223.791 287.511 223.207C287.025 222.749 286.144 222.333 284.92 222.002C284.232 221.792 282.601 221.418 280.052 220.918C277.112 220.292 275.104 219.708 274.056 219.208C271.888 218.128 270.802 216.502 270.802 214.377C270.802 210.335 273.951 208.294 280.215 208.294C286.773 208.294 290.098 210.877 290.19 216.129H287.964C287.8 213.709 287.025 212.129 285.599 211.335C284.417 210.713 282.618 210.377 280.215 210.377C275.456 210.377 273.062 211.709 273.062 214.377C273.062 215.671 273.687 216.628 274.953 217.292C275.834 217.75 277.393 218.166 279.611 218.544C283.804 219.292 286.614 220.086 288.031 220.918C289.796 221.918 290.664 223.543 290.664 225.749C290.664 227.959 289.519 229.622 287.205 230.748C285.456 231.58 283.343 232 280.865 232Z" fill="white"/>
<path d="M295.469 231.748H297.733V208.537H295.469V231.748Z" fill="white"/>
<path d="M322.669 229.832C320.514 231.29 317.948 232 314.966 232C311.004 232 307.876 231 305.578 229C303.176 226.917 301.977 223.959 301.977 220.208C301.977 216.544 303.121 213.629 305.411 211.503C307.713 209.378 310.807 208.294 314.719 208.294C317.616 208.294 320.044 208.878 321.977 210.004C324.191 211.335 325.654 213.587 326.359 216.792H324.036C323.512 214.587 322.501 212.961 321.004 211.919C319.507 210.877 317.428 210.377 314.761 210.377C311.486 210.377 308.92 211.251 307.038 213.003C305.172 214.751 304.232 217.128 304.232 220.166C304.232 223.291 305.188 225.665 307.084 227.375C308.975 229.038 311.604 229.916 314.966 229.916C317.545 229.916 319.721 229.248 321.495 228.001C323.399 226.665 324.338 224.833 324.338 222.586V222.249H314.379V220.166H326.472C326.581 221.044 326.644 221.75 326.644 222.207C326.644 225.543 325.311 228.08 322.669 229.832Z" fill="white"/>
<path d="M350.141 231.748L333.696 212.087V231.748H331.441V208.546H333.629C335.596 211.003 338.338 214.293 341.89 218.46C345.81 223.044 348.561 226.249 350.108 228.165V208.546H352.364V231.748H350.141Z" fill="white"/>
<path d="M57.3505 222.586H63.1494V216.805H57.3505V222.586Z" fill="white"/>
<path d="M207.601 222.586H213.396V216.805H207.601V222.586Z" fill="white"/>
</g>
<defs>
<clipPath id="clip0_29_1330">
<rect width="353" height="232" fill="white"/>
</clipPath>
</defs>
</svg>
