<svg width="25" height="25" viewBox="0 0 25 25" fill="none" xmlns="http://www.w3.org/2000/svg">
<path fill-rule="evenodd" clip-rule="evenodd" d="M18.7499 0H6.25021C2.8131 0 0.000366211 2.8125 0.000366211 6.25V18.75C0.000366211 22.1865 2.8131 25 6.25021 25H18.7499C22.187 25 24.9998 22.1865 24.9998 18.75V6.25C24.9998 2.8125 22.187 0 18.7499 0ZM22.9164 18.75C22.9164 21.0469 21.048 22.9165 18.7499 22.9165H6.25021C3.95309 22.9165 2.08376 21.0469 2.08376 18.75V6.25C2.08376 3.95264 3.95309 2.0835 6.25021 2.0835H18.7499C21.048 2.0835 22.9164 3.95264 22.9164 6.25V18.75ZM19.2717 7.2915C20.1346 7.2915 20.8342 6.5918 20.8342 5.729C20.8342 4.86621 20.1346 4.1665 19.2717 4.1665C18.4088 4.1665 17.7092 4.86621 17.7092 5.729C17.7092 6.5918 18.4088 7.2915 19.2717 7.2915ZM6.25012 12.5C6.25012 9.04785 9.04755 6.25 12.5 6.25C15.9514 6.25 18.7498 9.04785 18.7498 12.5C18.7498 15.9507 15.9514 18.7505 12.5 18.7505C9.04755 18.7505 6.25012 15.9507 6.25012 12.5ZM8.33351 12.5C8.33351 14.8013 10.1991 16.667 12.5 16.667C14.8009 16.667 16.6664 14.8013 16.6664 12.5C16.6664 10.1982 14.8009 8.3335 12.5 8.3335C10.1991 8.3335 8.33351 10.1982 8.33351 12.5Z" fill="url(#paint0_linear_302_3)"/>
<defs>
<linearGradient id="paint0_linear_302_3" x1="1.5" y1="25" x2="33.5" y2="9.5" gradientUnits="userSpaceOnUse">
<stop stop-color="#7963FF"/>
<stop offset="1" stop-color="#EA82FF"/>
</linearGradient>
</defs>
</svg>
