<svg width="1435" height="980" viewBox="0 0 1435 980" fill="none" xmlns="http://www.w3.org/2000/svg">
<g id="preloder">
<g id="text">
<path id="Vector" d="M554.306 585.877L549.132 596.502H559.233L554.306 585.877V585.877ZM563.518 605.748L560.189 598.623H548.109L544.713 605.748H542.18L553.338 582.546H555.258L566.022 605.748H563.518V605.748Z" fill="white"/>
<path id="Vector_2" d="M585.678 587.087C584.106 585.461 581.691 584.629 578.449 584.629H571.158V603.664H577.296C580.697 603.664 583.33 602.874 585.225 601.291C587.108 599.665 588.043 597.291 588.043 594.166C588.043 591.086 587.259 588.709 585.678 587.087ZM586.638 602.832C584.332 604.79 581.187 605.748 577.183 605.748H568.898V582.546H578.491C582.362 582.546 585.339 583.588 587.368 585.667C589.326 587.709 590.316 590.545 590.316 594.166C590.316 597.917 589.083 600.791 586.638 602.832Z" fill="white"/>
<path id="Vector_3" d="M632.174 587.087C630.593 585.461 628.182 584.629 624.937 584.629H617.637V603.664H623.78C627.176 603.664 629.822 602.874 631.713 601.291C633.595 599.665 634.535 597.291 634.535 594.166C634.535 591.086 633.746 588.709 632.174 587.087V587.087ZM633.134 602.832C630.82 604.79 627.675 605.748 623.671 605.748H615.377V582.546H624.979C628.849 582.546 631.809 583.588 633.847 585.667C635.801 587.709 636.795 590.545 636.795 594.166C636.795 597.917 635.562 600.791 633.134 602.832V602.832Z" fill="white"/>
<path id="Vector_4" d="M641.378 605.748V582.546H659.575V584.629H643.608V592.628H657.747V594.708H643.608V603.664H659.743V605.748H641.378Z" fill="white"/>
<path id="Vector_5" d="M684.28 588.167C682.49 585.629 679.731 584.377 675.982 584.377C672.766 584.377 670.2 585.293 668.309 587.045C666.414 588.835 665.462 591.208 665.462 594.166C665.462 597.165 666.363 599.543 668.179 601.291C669.978 603.038 672.464 603.916 675.609 603.916C679.211 603.916 682.016 602.622 683.995 600.085L685.878 601.291C683.42 604.416 679.999 606 675.647 606C671.831 606 668.8 604.958 666.561 602.832C664.326 600.707 663.202 597.875 663.202 594.334C663.202 590.666 664.355 587.709 666.665 585.545C668.967 583.378 672.083 582.294 675.982 582.294C680.523 582.294 683.924 583.836 686.184 586.961L684.28 588.167V588.167Z" fill="white"/>
<path id="Vector_6" d="M710.155 587.171C708.335 585.545 705.798 584.714 702.532 584.714C699.295 584.714 696.762 585.545 694.959 587.209C693.157 588.835 692.251 591.17 692.251 594.166C692.251 597.165 693.161 599.543 694.976 601.291C696.796 603.038 699.308 603.916 702.532 603.916C705.798 603.916 708.335 603.038 710.155 601.333C711.975 599.585 712.884 597.207 712.884 594.166C712.884 591.128 711.975 588.835 710.155 587.171V587.171ZM711.752 602.832C709.497 604.916 706.419 606 702.532 606C698.628 606 695.563 604.958 693.333 602.832C691.11 600.749 689.991 597.833 689.991 594.166C689.991 590.503 691.127 587.671 693.387 585.629C695.605 583.63 698.658 582.63 702.532 582.63C706.419 582.63 709.476 583.63 711.702 585.629C714 587.671 715.14 590.503 715.14 594.166C715.14 597.791 714.008 600.665 711.752 602.832Z" fill="white"/>
<path id="Vector_7" d="M730.889 584.629H721.644V593.46H730.34C732.277 593.46 733.803 593.128 734.977 592.46C736.315 591.628 736.998 590.46 736.998 588.835C736.998 586.045 734.952 584.629 730.889 584.629ZM735.686 594.418C737.837 595.46 738.914 597.207 738.914 599.749V605.748H736.654V599.833C736.654 597.001 734.608 595.586 730.516 595.586H721.644V605.748H719.379V582.546H730.822C736.445 582.546 739.258 584.63 739.258 588.793C739.258 591.46 738.067 593.334 735.686 594.418V594.418Z" fill="white"/>
<path id="Vector_8" d="M781.36 587.087C779.787 585.461 777.372 584.629 774.135 584.629H766.831V603.664H772.966C776.366 603.664 779.02 602.874 780.903 601.291C782.785 599.665 783.729 597.291 783.729 594.166C783.729 591.086 782.936 588.709 781.36 587.087ZM782.316 602.832C780.014 604.79 776.861 605.748 772.873 605.748H764.567V582.546H774.169C778.047 582.546 780.999 583.588 783.037 585.667C784.995 587.709 785.985 590.545 785.985 594.166C785.985 597.917 784.765 600.791 782.316 602.832Z" fill="white"/>
<path id="Vector_9" d="M790.572 605.748V582.546H808.765V584.629H792.798V592.628H806.95V594.708H792.798V603.664H808.937V605.748H790.572Z" fill="white"/>
<path id="Vector_10" d="M822.698 606C819.675 606 817.226 605.458 815.369 604.374C813.042 603.038 811.893 601.001 811.893 598.165V597.086H814.14V598.001C814.14 601.959 817.004 603.916 822.749 603.916C824.749 603.916 826.422 603.622 827.747 603.038C829.407 602.291 830.241 601.165 830.241 599.623C830.241 598.581 829.944 597.791 829.344 597.207C828.858 596.749 827.977 596.334 826.753 596.002C826.065 595.792 824.434 595.418 821.885 594.918C818.946 594.292 816.937 593.708 815.889 593.208C813.721 592.128 812.635 590.503 812.635 588.377C812.635 584.335 815.784 582.294 822.048 582.294C828.606 582.294 831.931 584.877 832.023 590.129H829.797C829.633 587.709 828.858 586.129 827.432 585.335C826.25 584.714 824.451 584.377 822.048 584.377C817.289 584.377 814.895 585.709 814.895 588.377C814.895 589.671 815.52 590.629 816.786 591.292C817.667 591.75 819.226 592.166 821.445 592.544C825.638 593.292 828.447 594.086 829.864 594.918C831.629 595.918 832.497 597.543 832.497 599.749C832.497 601.959 831.353 603.622 829.038 604.748C827.29 605.58 825.176 606 822.698 606V606Z" fill="white"/>
<path id="Vector_11" d="M837.302 605.748H839.567V582.537H837.302V605.748Z" fill="white"/>
<path id="Vector_12" d="M864.502 603.832C862.347 605.29 859.781 606 856.8 606C852.837 606 849.709 605 847.412 603C845.009 600.917 843.81 597.959 843.81 594.208C843.81 590.545 844.954 587.629 847.244 585.503C849.546 583.378 852.64 582.294 856.552 582.294C859.45 582.294 861.877 582.878 863.81 584.004C866.024 585.335 867.488 587.587 868.192 590.792H865.869C865.345 588.587 864.334 586.961 862.838 585.919C861.341 584.877 859.261 584.377 856.594 584.377C853.319 584.377 850.753 585.251 848.871 587.003C847.005 588.751 846.066 591.128 846.066 594.166C846.066 597.291 847.022 599.665 848.917 601.375C850.808 603.038 853.437 603.916 856.8 603.916C859.378 603.916 861.554 603.248 863.328 602.001C865.232 600.665 866.171 598.833 866.171 596.586V596.249H856.213V594.166H868.305C868.414 595.044 868.477 595.75 868.477 596.207C868.477 599.543 867.144 602.08 864.502 603.832Z" fill="white"/>
<path id="Vector_13" d="M891.974 605.748L875.53 586.087V605.748H873.274V582.546H875.463C877.429 585.003 880.171 588.293 883.723 592.46C887.643 597.043 890.394 600.249 891.941 602.164V582.546H894.197V605.748H891.974V605.748Z" fill="white"/>
<path id="Vector_14" d="M599.184 596.586H604.983V590.805H599.184V596.586Z" fill="white"/>
<path id="Vector_15" d="M749.435 596.586H755.229V590.805H749.435V596.586Z" fill="white"/>
</g>
<path id="d" d="M558.793 428.747V505.063H568.252C573.594 505.063 576.806 502.315 576.806 494.69V439.12C576.806 431.495 573.594 428.747 568.252 428.747H558.793V428.747ZM542 413.502H568.562C585.359 413.502 593.607 422.79 593.607 439.909V493.938C593.607 511.02 585.359 520.308 568.562 520.308H542V413.502V413.502Z" fill="white"/>
<path id="u" d="M620.316 413.502V495.9C620.316 503.521 623.683 506.273 629.017 506.273C634.359 506.273 637.73 503.521 637.73 495.9V413.502H653.6V494.816C653.6 511.936 645.051 521.686 628.564 521.686C612.073 521.686 603.519 511.936 603.519 494.816V413.502H620.316V413.502Z" fill="white"/>
<path id="e" d="M681.848 458.532H704.893V473.778H681.848V505.063H710.847V520.308H665.051V413.502H710.847V428.747H681.848V458.532Z" fill="white"/>
<path id="n" d="M736.197 442.951V520.308H721.082V413.502H742.147L759.401 477.445V413.502H774.37V520.308H757.116L736.197 442.951Z" fill="white"/>
<path id="d_2" d="M803.222 428.747V505.063H812.685C818.032 505.063 821.235 502.315 821.235 494.69V439.12C821.235 431.495 818.032 428.747 812.685 428.747H803.222V428.747ZM786.425 413.502H812.992C829.789 413.502 838.028 422.79 838.028 439.909V493.938C838.028 511.02 829.789 520.308 812.992 520.308H786.425V413.502V413.502Z" fill="white"/>
<path id="e_2" d="M865.508 458.532H888.557V473.778H865.508V505.063H894.507V520.308H848.707V413.502H894.507V428.747H865.508V458.532Z" fill="white"/>
<g id="wrapper">
<path id="Vector_16" d="M542 559.802H894.507V542.628H542V559.802Z" fill="white"/>
<path id="Vector_17" d="M542 391.174H894.666V374H542V391.174Z" fill="white"/>
</g>
</g>
</svg>
