<svg width="578" height="98" viewBox="0 0 578 98" fill="none" xmlns="http://www.w3.org/2000/svg">
<path d="M547.078 96.2814C541.83 96.2814 537.213 95.4838 533.351 93.9307C529.405 92.4195 526.173 90.1107 523.57 87.0883C521.009 84.066 519.204 80.288 518.113 75.7544L533.561 68.8701C534.736 72.6061 536.541 75.4186 539.018 77.3496C541.536 79.2386 544.517 80.204 548.043 80.204C551.653 80.204 554.508 79.4065 556.522 77.7694C558.537 76.1742 559.587 73.9494 559.587 71.053V66.8972C559.587 64.8403 558.999 63.1192 557.782 61.8179C556.606 60.4746 555.095 59.4252 553.206 58.5856C551.317 57.7881 548.799 56.9065 545.692 55.9411C545.566 55.8991 545.44 55.8571 545.314 55.8151C545.231 55.8151 545.105 55.7731 545.021 55.7312L544.265 55.4793C539.27 53.9681 535.114 52.415 531.924 50.8198C528.733 49.2247 526.005 46.748 523.738 43.3898C521.471 40.0316 520.338 35.498 520.338 29.8311V27.3964C520.338 22.0652 521.471 17.4897 523.654 13.6697C525.921 9.89177 529.111 6.99532 533.393 4.9804C537.633 3.00746 542.796 2 548.841 2C553.416 2 557.446 2.71362 560.93 4.22481C564.414 5.69402 567.353 7.91882 569.703 10.8572C572.054 13.7537 573.775 17.4057 574.867 21.7294L560.258 28.6977C559.041 25.1716 557.404 22.485 555.263 20.68C553.122 18.8749 550.688 17.9514 547.875 17.9514C544.391 17.9514 541.662 18.707 539.731 20.1762C537.8 21.6455 536.835 23.7024 536.835 26.3889V29.4533C536.835 31.7201 537.465 33.5671 538.724 35.0363C539.983 36.4635 541.536 37.5969 543.425 38.4784C545.272 39.318 547.917 40.2415 551.233 41.2489C551.485 41.2909 551.695 41.3749 551.989 41.4588C552.283 41.5428 552.535 41.6267 552.786 41.7527C552.996 41.7946 553.164 41.8786 553.374 41.9206C553.542 42.0045 553.71 42.0465 553.92 42.0885C558.537 43.5157 562.357 45.0689 565.38 46.706C568.402 48.3851 570.963 50.8198 572.978 54.0521C574.993 57.2843 576 61.566 576 66.8972V70.8431C576 76.1742 574.909 80.7497 572.6 84.5697C570.375 88.3896 567.059 91.2861 562.693 93.259C558.369 95.274 553.164 96.2814 547.078 96.2814V96.2814Z" stroke="white" stroke-width="2.0162" stroke-miterlimit="22.9256"/>
<path d="M458.379 2.96533H515.343V18.9168H495.151V95.3158H478.57V18.9168H458.379V2.96533Z" stroke="white" stroke-width="2.0162" stroke-miterlimit="22.9256"/>
<path d="M427.316 96.2814C421.439 96.2814 416.444 95.148 412.288 92.8393C408.174 90.6145 404.984 87.2982 402.801 82.9746C400.576 78.6509 399.485 73.4457 399.485 67.317V31.0064C399.485 24.8777 400.576 19.6305 402.801 15.3069C404.984 10.9832 408.174 7.66696 412.288 5.40018C416.444 3.13339 421.439 2 427.316 2C433.025 2 437.894 3.13339 441.798 5.40018C445.744 7.70894 448.808 11.1931 450.991 15.8106C453.174 20.4281 454.475 26.305 454.895 33.4411H437.894C437.642 30.0829 437.055 27.3544 436.215 25.2135C435.334 23.0307 434.158 21.3936 432.689 20.3442C431.178 19.2527 429.415 18.707 427.316 18.707C425.049 18.707 423.118 19.1688 421.523 20.1343C419.928 21.0998 418.669 22.485 417.829 24.332C416.989 26.179 416.528 28.4038 416.528 31.0064V67.317C416.528 69.9196 416.989 72.1444 417.829 73.9914C418.669 75.7964 419.928 77.1817 421.523 78.1471C423.118 79.0707 425.049 79.5324 427.316 79.5324C429.415 79.5324 431.22 79.0287 432.731 77.9792C434.2 76.8878 435.418 75.2927 436.257 73.1098C437.139 70.927 437.684 68.1565 437.894 64.8403H454.895C454.433 71.9345 453.132 77.8113 450.949 82.4708C448.808 87.0883 445.744 90.5305 441.798 92.8393C437.894 95.106 433.025 96.2814 427.316 96.2814V96.2814Z" stroke="white" stroke-width="2.0162" stroke-miterlimit="22.9256"/>
<path d="M353.645 2.96533H388.487V19.0007H353.645V41.3747H383.407V57.4521H353.645V79.2384H388.487V95.3158H353.645H343.697H337.064V2.96533H353.645Z" stroke="white" stroke-width="2.0162" stroke-miterlimit="22.9256"/>
<path d="M295.884 96.2813C291.057 96.2813 286.733 95.3158 282.829 93.3848C278.967 91.4539 275.903 88.7253 273.594 85.1992L285.936 74.5369C287.237 76.258 288.748 77.6013 290.427 78.4828C292.19 79.3643 293.953 79.8261 295.842 79.8261C298.571 79.8261 300.712 78.9446 302.181 77.2235C303.65 75.4604 304.406 72.9838 304.406 69.7515V2.96533H321.281V70.717C321.281 76.0901 320.273 80.7076 318.3 84.5276C316.285 88.3055 313.431 91.244 309.611 93.2589C305.833 95.2738 301.257 96.2813 295.884 96.2813V96.2813Z" stroke="white" stroke-width="2.0162" stroke-miterlimit="22.9256"/>
<path d="M240.222 79.6583C242.573 79.6583 244.672 79.1965 246.435 78.189C248.24 77.2236 249.541 75.7963 250.507 73.9913C251.43 72.1443 251.892 70.0034 251.892 67.5687V30.5866C251.892 28.1519 251.43 26.053 250.507 24.248C249.541 22.401 248.24 21.0157 246.435 20.0083C244.672 19.0008 242.573 18.4971 240.222 18.4971C237.83 18.4971 235.773 19.0008 234.01 20.0083C232.288 21.0157 230.945 22.401 229.98 24.248C229.056 26.053 228.594 28.1519 228.594 30.5866V67.5687C228.594 70.0034 229.056 72.1443 229.98 73.9913C230.945 75.7963 232.288 77.2236 234.01 78.189C235.773 79.1965 237.83 79.6583 240.222 79.6583Z" stroke="white" stroke-width="2.0162" stroke-miterlimit="22.9256"/>
<path d="M240.222 96.2814C234.429 96.2814 229.35 95.148 225.027 92.8393C220.703 90.6145 217.429 87.3822 215.078 83.1844C212.769 78.9867 211.594 74.0753 211.594 68.3664V29.873C211.594 24.2061 212.769 19.2947 215.078 15.055C217.429 10.8572 220.703 7.62498 225.027 5.3582C229.35 3.13339 234.429 2 240.222 2C246.057 2 251.137 3.13339 255.46 5.3582C259.784 7.62498 263.1 10.8572 265.409 15.055C267.76 19.2947 268.893 24.2061 268.893 29.873V68.3664C268.893 74.0753 267.76 78.9867 265.409 83.1844C263.1 87.3822 259.784 90.6145 255.46 92.8393C251.137 95.148 246.057 96.2814 240.222 96.2814Z" stroke="white" stroke-width="2.0162" stroke-miterlimit="22.9256"/>
<path d="M166.971 57.2004C169.238 57.3264 171.589 57.3264 173.814 57.2004H166.971ZM183.93 55.8991L184.14 55.8572L202.778 95.316H183.762C178.389 83.1425 172.345 69.3739 166.971 57.2004H159.751V95.316H143.338V2.88159H159.751H174.905C179.942 2.88159 184.308 3.84707 188.002 5.82001C191.696 7.75098 194.551 10.5635 196.524 14.2155C198.539 17.8676 199.546 22.1912 199.546 27.1446V32.5597C199.546 37.597 198.539 41.9626 196.524 45.6566C194.551 49.3507 191.696 52.2471 188.002 54.22C186.701 54.8917 185.358 55.4374 183.93 55.8991V55.8991ZM159.751 41.249H174.695C176.29 41.249 177.634 40.9132 178.809 40.1996C179.984 39.486 180.866 38.5205 181.496 37.2611C182.125 36.0018 182.461 34.4906 182.461 32.7276V27.6063C182.461 25.8013 182.167 24.2481 181.538 22.9468C180.908 21.6035 180.026 20.5961 178.851 19.8825C177.634 19.1689 176.29 18.833 174.695 18.833H159.751V41.249V41.249Z" stroke="white" stroke-width="2.0162" stroke-miterlimit="22.9256"/>
<path d="M75.7544 2.96533H92.3355H106.272C111.435 2.96533 115.927 3.93081 119.789 5.90376C123.609 7.8767 126.547 10.7312 128.604 14.4252C130.661 18.1192 131.668 22.4849 131.668 27.4802V35.246C131.668 40.1574 130.619 44.4811 128.562 48.0911C126.505 51.7432 123.567 54.5557 119.747 56.5286C115.927 58.5015 111.435 59.509 106.272 59.509H92.3355V95.3158H75.7544V2.96533V2.96533ZM92.3355 18.9168V43.5156H106.272C107.993 43.5156 109.42 43.1378 110.68 42.3822C111.939 41.5846 112.946 40.4932 113.618 39.024C114.332 37.5968 114.668 35.9177 114.668 34.0287V28.6136C114.668 26.6406 114.332 24.8776 113.66 23.4503C112.988 21.9811 112.023 20.8477 110.764 20.0921C109.504 19.2946 107.993 18.9168 106.272 18.9168H92.3355Z" stroke="white" stroke-width="2.0162" stroke-miterlimit="22.9256"/>
<path d="M61.0203 60.1806V73.6554H48.511L45.3627 95.3158H32.4337L35.582 73.6554H22.8208L19.6725 95.3158H6.61752L9.80781 73.6554H2V60.1806H11.7388L15.013 37.7227H4.9804V24.2479H16.986L20.0923 2.96533H33.1053L29.999 24.2479H42.7601L45.8665 2.96533H58.8795L55.7731 24.2479H63.9588V37.7227H53.8002L50.484 60.1806H61.0203V60.1806ZM40.7872 37.7227H28.026L24.7518 60.1806H37.5129L40.7872 37.7227V37.7227Z" stroke="white" stroke-width="2.0162" stroke-miterlimit="22.9256"/>
</svg>
