<svg width="824" height="125" viewBox="0 0 824 125" fill="none" xmlns="http://www.w3.org/2000/svg">
<path d="M47.0225 78.9229H15.8945V60.9932H47.0225C52.1136 60.9932 56.2363 60.1631 59.3906 58.5029C62.6003 56.7874 64.9521 54.4632 66.4463 51.5303C67.9404 48.542 68.6875 45.1387 68.6875 41.3203C68.6875 37.6126 67.9404 34.154 66.4463 30.9443C64.9521 27.7347 62.6003 25.1338 59.3906 23.1416C56.2363 21.1494 52.1136 20.1533 47.0225 20.1533H23.3652V123H0.538086V2.14062H47.0225C56.43 2.14062 64.4541 3.82845 71.0947 7.2041C77.7907 10.5244 82.8818 15.1452 86.3682 21.0664C89.9098 26.9323 91.6807 33.6283 91.6807 41.1543C91.6807 48.957 89.9098 55.6807 86.3682 61.3252C82.8818 66.9697 77.7907 71.3138 71.0947 74.3574C64.4541 77.401 56.43 78.9229 47.0225 78.9229ZM109.61 2.14062H153.521C162.708 2.14062 170.593 3.52409 177.179 6.29102C183.764 9.05794 188.827 13.153 192.369 18.5762C195.911 23.9993 197.682 30.6676 197.682 38.5811C197.682 44.8343 196.575 50.2575 194.361 54.8506C192.148 59.4437 189.021 63.2897 184.981 66.3887C180.997 69.4876 176.293 71.9225 170.87 73.6934L163.731 77.3457H124.967L124.801 59.333H153.771C158.474 59.333 162.376 58.5029 165.475 56.8428C168.574 55.1826 170.898 52.8861 172.447 49.9531C174.052 47.0202 174.854 43.6722 174.854 39.9092C174.854 35.8695 174.08 32.3831 172.53 29.4502C170.981 26.4619 168.629 24.1654 165.475 22.5605C162.32 20.9557 158.336 20.1533 153.521 20.1533H132.438V123H109.61V2.14062ZM177.843 123L149.869 68.8789L174.024 68.7959L202.33 121.838V123H177.843ZM315.553 59.499V65.7246C315.553 74.8555 314.335 83.0732 311.9 90.3779C309.465 97.6273 306.007 103.798 301.524 108.889C297.042 113.98 291.702 117.881 285.504 120.593C279.306 123.304 272.416 124.66 264.835 124.66C257.364 124.66 250.502 123.304 244.249 120.593C238.051 117.881 232.683 113.98 228.146 108.889C223.608 103.798 220.094 97.6273 217.604 90.3779C215.113 83.0732 213.868 74.8555 213.868 65.7246V59.499C213.868 50.3128 215.113 42.0951 217.604 34.8457C220.094 27.5964 223.58 21.4261 228.062 16.335C232.545 11.1885 237.885 7.25944 244.083 4.54785C250.336 1.83626 257.198 0.480469 264.669 0.480469C272.25 0.480469 279.14 1.83626 285.338 4.54785C291.536 7.25944 296.876 11.1885 301.358 16.335C305.896 21.4261 309.382 27.5964 311.817 34.8457C314.308 42.0951 315.553 50.3128 315.553 59.499ZM292.477 65.7246V59.333C292.477 52.7477 291.868 46.9648 290.65 41.9844C289.433 36.9486 287.634 32.7152 285.255 29.2842C282.875 25.8532 279.942 23.2799 276.456 21.5645C272.97 19.7936 269.041 18.9082 264.669 18.9082C260.242 18.9082 256.313 19.7936 252.882 21.5645C249.506 23.2799 246.629 25.8532 244.249 29.2842C241.869 32.7152 240.043 36.9486 238.771 41.9844C237.553 46.9648 236.944 52.7477 236.944 59.333V65.7246C236.944 72.2546 237.553 78.0374 238.771 83.0732C240.043 88.109 241.869 92.3701 244.249 95.8564C246.684 99.2874 249.617 101.888 253.048 103.659C256.479 105.43 260.408 106.315 264.835 106.315C269.262 106.315 273.191 105.43 276.622 103.659C280.053 101.888 282.931 99.2874 285.255 95.8564C287.634 92.3701 289.433 88.109 290.65 83.0732C291.868 78.0374 292.477 72.2546 292.477 65.7246ZM384.2 86.3105V2.14062H407.027V86.3105C407.027 94.3346 405.284 101.224 401.798 106.979C398.312 112.679 393.552 117.051 387.521 120.095C381.489 123.138 374.682 124.66 367.101 124.66C359.298 124.66 352.381 123.36 346.349 120.759C340.317 118.103 335.585 114.063 332.154 108.64C328.779 103.216 327.091 96.3268 327.091 87.9707H350.001C350.001 92.5085 350.693 96.1608 352.076 98.9277C353.46 101.695 355.424 103.687 357.97 104.904C360.571 106.122 363.614 106.73 367.101 106.73C370.476 106.73 373.437 105.956 375.982 104.406C378.583 102.801 380.603 100.477 382.042 97.4336C383.481 94.39 384.2 90.6823 384.2 86.3105ZM509.791 105.07V123H445.543V105.07H509.791ZM452.516 2.14062V123H429.688V2.14062H452.516ZM501.407 52.0283V69.543H445.543V52.0283H501.407ZM509.542 2.14062V20.1533H445.543V2.14062H509.542ZM596.368 83.2393H619.195C618.587 91.3187 616.345 98.485 612.472 104.738C608.598 110.936 603.202 115.806 596.285 119.348C589.368 122.889 580.984 124.66 571.134 124.66C563.552 124.66 556.718 123.332 550.631 120.676C544.599 117.964 539.425 114.118 535.108 109.138C530.847 104.102 527.582 98.07 525.313 91.042C523.045 83.9587 521.91 76.0176 521.91 67.2188V58.0049C521.91 49.2061 523.072 41.265 525.396 34.1816C527.721 27.0983 531.041 21.0664 535.357 16.0859C539.729 11.0501 544.959 7.17643 551.046 4.46484C557.188 1.75326 564.05 0.397461 571.632 0.397461C581.482 0.397461 589.811 2.22363 596.617 5.87598C603.424 9.47298 608.709 14.4258 612.472 20.7344C616.235 27.043 618.504 34.2923 619.278 42.4824H596.451C596.008 37.3913 594.902 33.0749 593.131 29.5332C591.415 25.9915 588.814 23.3076 585.328 21.4814C581.897 19.5999 577.332 18.6592 571.632 18.6592C567.205 18.6592 563.303 19.4893 559.928 21.1494C556.607 22.8096 553.84 25.2998 551.627 28.6201C549.413 31.8851 547.753 35.9801 546.646 40.9053C545.54 45.7751 544.986 51.4196 544.986 57.8389V67.2188C544.986 73.3613 545.484 78.8675 546.48 83.7373C547.477 88.6071 549.026 92.7298 551.129 96.1055C553.232 99.4811 555.943 102.054 559.264 103.825C562.584 105.596 566.541 106.481 571.134 106.481C576.723 106.481 581.261 105.596 584.747 103.825C588.289 102.054 590.973 99.4535 592.799 96.0225C594.68 92.5915 595.87 88.3304 596.368 83.2393ZM686.266 2.14062V123H663.521V2.14062H686.266ZM723.785 2.14062V20.1533H626.417V2.14062H723.785ZM800.899 91.623C800.899 89.2988 800.54 87.2236 799.82 85.3975C799.156 83.516 797.911 81.8281 796.085 80.334C794.314 78.7845 791.796 77.2904 788.531 75.8516C785.322 74.3574 781.171 72.8079 776.08 71.2031C770.436 69.4323 765.178 67.4401 760.309 65.2266C755.439 63.013 751.15 60.4398 747.442 57.5068C743.79 54.5739 740.94 51.1982 738.893 47.3799C736.845 43.5062 735.821 39.0238 735.821 33.9326C735.821 28.9521 736.873 24.4144 738.976 20.3193C741.134 16.2243 744.177 12.7103 748.106 9.77734C752.035 6.78906 756.656 4.49251 761.969 2.8877C767.337 1.28288 773.258 0.480469 779.732 0.480469C788.697 0.480469 796.445 2.11296 802.975 5.37793C809.56 8.6429 814.651 13.07 818.248 18.6592C821.845 24.2484 823.644 30.5293 823.644 37.502H800.899C800.899 33.7389 800.097 30.4186 798.492 27.541C796.943 24.6634 794.563 22.3945 791.354 20.7344C788.199 19.0742 784.215 18.2441 779.4 18.2441C774.752 18.2441 770.878 18.9359 767.779 20.3193C764.736 21.7028 762.439 23.5843 760.89 25.9639C759.396 28.3434 758.648 30.9997 758.648 33.9326C758.648 36.1462 759.174 38.1383 760.226 39.9092C761.277 41.6247 762.854 43.2572 764.957 44.8066C767.06 46.3008 769.661 47.7119 772.76 49.04C775.914 50.3128 779.566 51.5856 783.717 52.8584C790.357 54.8506 796.168 57.0641 801.148 59.499C806.184 61.9339 810.362 64.7008 813.683 67.7998C817.058 70.8988 819.576 74.3851 821.236 78.2588C822.952 82.1325 823.81 86.5319 823.81 91.457C823.81 96.6589 822.786 101.307 820.738 105.402C818.691 109.497 815.758 112.984 811.939 115.861C808.121 118.739 803.528 120.925 798.16 122.419C792.848 123.913 786.899 124.66 780.313 124.66C774.448 124.66 768.637 123.885 762.882 122.336C757.182 120.731 752.008 118.352 747.359 115.197C742.711 111.988 739.003 107.948 736.236 103.078C733.469 98.153 732.086 92.3978 732.086 85.8125H754.996C754.996 89.6309 755.605 92.8958 756.822 95.6074C758.095 98.2637 759.866 100.45 762.135 102.165C764.459 103.825 767.171 105.043 770.27 105.817C773.368 106.592 776.716 106.979 780.313 106.979C784.962 106.979 788.78 106.343 791.769 105.07C794.812 103.742 797.081 101.916 798.575 99.5918C800.125 97.2676 800.899 94.6113 800.899 91.623Z" fill="url(#paint0_linear_7_75)"/>
<defs>
<linearGradient id="paint0_linear_7_75" x1="-27.675" y1="70.0014" x2="665.425" y2="70.0014" gradientUnits="userSpaceOnUse">
<stop stop-color="#6461FF"/>
<stop offset="1" stop-color="#8CCBFF"/>
</linearGradient>
</defs>
</svg>
