<svg width="766" height="125" viewBox="0 0 766 125" fill="none" xmlns="http://www.w3.org/2000/svg">
<path d="M69.79 91.623C69.79 89.2988 69.4303 87.2236 68.7109 85.3975C68.0469 83.516 66.8018 81.8281 64.9756 80.334C63.2048 78.7845 60.6868 77.2904 57.4219 75.8516C54.2122 74.3574 50.0618 72.8079 44.9707 71.2031C39.3262 69.4323 34.069 67.4401 29.1992 65.2266C24.3294 63.013 20.0407 60.4398 16.333 57.5068C12.6807 54.5739 9.83073 51.1982 7.7832 47.3799C5.73568 43.5062 4.71191 39.0238 4.71191 33.9326C4.71191 28.9521 5.76335 24.4144 7.86621 20.3193C10.0244 16.2243 13.068 12.7103 16.9971 9.77734C20.9261 6.78906 25.5469 4.49251 30.8594 2.8877C36.2272 1.28288 42.1484 0.480469 48.623 0.480469C57.5879 0.480469 65.3353 2.11296 71.8652 5.37793C78.4505 8.6429 83.5417 13.07 87.1387 18.6592C90.7357 24.2484 92.5342 30.5293 92.5342 37.502H69.79C69.79 33.7389 68.9876 30.4186 67.3828 27.541C65.8333 24.6634 63.4538 22.3945 60.2441 20.7344C57.0898 19.0742 53.1055 18.2441 48.291 18.2441C43.6426 18.2441 39.7689 18.9359 36.6699 20.3193C33.6263 21.7028 31.3298 23.5843 29.7803 25.9639C28.2861 28.3434 27.5391 30.9997 27.5391 33.9326C27.5391 36.1462 28.0648 38.1383 29.1162 39.9092C30.1676 41.6247 31.7448 43.2572 33.8477 44.8066C35.9505 46.3008 38.5514 47.7119 41.6504 49.04C44.8047 50.3128 48.457 51.5856 52.6074 52.8584C59.248 54.8506 65.0586 57.0641 70.0391 59.499C75.0749 61.9339 79.2529 64.7008 82.5732 67.7998C85.9489 70.8988 88.4668 74.3851 90.127 78.2588C91.8424 82.1325 92.7002 86.5319 92.7002 91.457C92.7002 96.6589 91.6764 101.307 89.6289 105.402C87.5814 109.497 84.6484 112.984 80.8301 115.861C77.0117 118.739 72.4186 120.925 67.0508 122.419C61.7383 123.913 55.7894 124.66 49.2041 124.66C43.3382 124.66 37.5277 123.885 31.7725 122.336C26.0726 120.731 20.8984 118.352 16.25 115.197C11.6016 111.988 7.89388 107.948 5.12695 103.078C2.36003 98.153 0.976562 92.3978 0.976562 85.8125H23.8867C23.8867 89.6309 24.4954 92.8958 25.7129 95.6074C26.9857 98.2637 28.7565 100.45 31.0254 102.165C33.3496 103.825 36.0612 105.043 39.1602 105.817C42.2591 106.592 45.6071 106.979 49.2041 106.979C53.8525 106.979 57.6709 106.343 60.6592 105.07C63.7028 103.742 65.9717 101.916 67.4658 99.5918C69.0153 97.2676 69.79 94.6113 69.79 91.623ZM190.4 105.07V123H126.152V105.07H190.4ZM133.125 2.14062V123H110.298V2.14062H133.125ZM182.017 52.0283V69.543H126.152V52.0283H182.017ZM190.151 2.14062V20.1533H126.152V2.14062H190.151ZM206.255 2.14062H250.166C259.352 2.14062 267.238 3.52409 273.823 6.29102C280.409 9.05794 285.472 13.153 289.014 18.5762C292.555 23.9993 294.326 30.6676 294.326 38.5811C294.326 44.8343 293.219 50.2575 291.006 54.8506C288.792 59.4437 285.666 63.2897 281.626 66.3887C277.642 69.4876 272.938 71.9225 267.515 73.6934L260.376 77.3457H221.611L221.445 59.333H250.415C255.119 59.333 259.02 58.5029 262.119 56.8428C265.218 55.1826 267.542 52.8861 269.092 49.9531C270.697 47.0202 271.499 43.6722 271.499 39.9092C271.499 35.8695 270.724 32.3831 269.175 29.4502C267.625 26.4619 265.273 24.1654 262.119 22.5605C258.965 20.9557 254.98 20.1533 250.166 20.1533H229.082V123H206.255V2.14062ZM274.487 123L246.514 68.8789L270.669 68.7959L298.975 121.838V123H274.487ZM355.171 99.3428L385.303 2.14062H410.62L367.954 123H351.104L355.171 99.3428ZM327.363 2.14062L357.329 99.3428L361.646 123H344.629L302.129 2.14062H327.363ZM447.393 2.14062V123H424.565V2.14062H447.393ZM542.769 83.2393H565.596C564.987 91.3187 562.746 98.485 558.872 104.738C554.998 110.936 549.603 115.806 542.686 119.348C535.768 122.889 527.384 124.66 517.534 124.66C509.953 124.66 503.118 123.332 497.031 120.676C490.999 117.964 485.825 114.118 481.509 109.138C477.248 104.102 473.983 98.07 471.714 91.042C469.445 83.9587 468.311 76.0176 468.311 67.2188V58.0049C468.311 49.2061 469.473 41.265 471.797 34.1816C474.121 27.0983 477.441 21.0664 481.758 16.0859C486.13 11.0501 491.359 7.17643 497.446 4.46484C503.589 1.75326 510.451 0.397461 518.032 0.397461C527.882 0.397461 536.211 2.22363 543.018 5.87598C549.824 9.47298 555.109 14.4258 558.872 20.7344C562.635 27.043 564.904 34.2923 565.679 42.4824H542.852C542.409 37.3913 541.302 33.0749 539.531 29.5332C537.816 25.9915 535.215 23.3076 531.729 21.4814C528.298 19.5999 523.732 18.6592 518.032 18.6592C513.605 18.6592 509.704 19.4893 506.328 21.1494C503.008 22.8096 500.241 25.2998 498.027 28.6201C495.814 31.8851 494.154 35.9801 493.047 40.9053C491.94 45.7751 491.387 51.4196 491.387 57.8389V67.2188C491.387 73.3613 491.885 78.8675 492.881 83.7373C493.877 88.6071 495.426 92.7298 497.529 96.1055C499.632 99.4811 502.344 102.054 505.664 103.825C508.984 105.596 512.941 106.481 517.534 106.481C523.123 106.481 527.661 105.596 531.147 103.825C534.689 102.054 537.373 99.4535 539.199 96.0225C541.081 92.5915 542.271 88.3304 542.769 83.2393ZM663.379 105.07V123H599.131V105.07H663.379ZM606.104 2.14062V123H583.276V2.14062H606.104ZM654.995 52.0283V69.543H599.131V52.0283H654.995ZM663.13 2.14062V20.1533H599.131V2.14062H663.13ZM742.485 91.623C742.485 89.2988 742.126 87.2236 741.406 85.3975C740.742 83.516 739.497 81.8281 737.671 80.334C735.9 78.7845 733.382 77.2904 730.117 75.8516C726.908 74.3574 722.757 72.8079 717.666 71.2031C712.021 69.4323 706.764 67.4401 701.895 65.2266C697.025 63.013 692.736 60.4398 689.028 57.5068C685.376 54.5739 682.526 51.1982 680.479 47.3799C678.431 43.5062 677.407 39.0238 677.407 33.9326C677.407 28.9521 678.459 24.4144 680.562 20.3193C682.72 16.2243 685.763 12.7103 689.692 9.77734C693.621 6.78906 698.242 4.49251 703.555 2.8877C708.923 1.28288 714.844 0.480469 721.318 0.480469C730.283 0.480469 738.031 2.11296 744.561 5.37793C751.146 8.6429 756.237 13.07 759.834 18.6592C763.431 24.2484 765.229 30.5293 765.229 37.502H742.485C742.485 33.7389 741.683 30.4186 740.078 27.541C738.529 24.6634 736.149 22.3945 732.939 20.7344C729.785 19.0742 725.801 18.2441 720.986 18.2441C716.338 18.2441 712.464 18.9359 709.365 20.3193C706.322 21.7028 704.025 23.5843 702.476 25.9639C700.981 28.3434 700.234 30.9997 700.234 33.9326C700.234 36.1462 700.76 38.1383 701.812 39.9092C702.863 41.6247 704.44 43.2572 706.543 44.8066C708.646 46.3008 711.247 47.7119 714.346 49.04C717.5 50.3128 721.152 51.5856 725.303 52.8584C731.943 54.8506 737.754 57.0641 742.734 59.499C747.77 61.9339 751.948 64.7008 755.269 67.7998C758.644 70.8988 761.162 74.3851 762.822 78.2588C764.538 82.1325 765.396 86.5319 765.396 91.457C765.396 96.6589 764.372 101.307 762.324 105.402C760.277 109.497 757.344 112.984 753.525 115.861C749.707 118.739 745.114 120.925 739.746 122.419C734.434 123.913 728.485 124.66 721.899 124.66C716.034 124.66 710.223 123.885 704.468 122.336C698.768 120.731 693.594 118.352 688.945 115.197C684.297 111.988 680.589 107.948 677.822 103.078C675.055 98.153 673.672 92.3978 673.672 85.8125H696.582C696.582 89.6309 697.191 92.8958 698.408 95.6074C699.681 98.2637 701.452 100.45 703.721 102.165C706.045 103.825 708.757 105.043 711.855 105.817C714.954 106.592 718.302 106.979 721.899 106.979C726.548 106.979 730.366 106.343 733.354 105.07C736.398 103.742 738.667 101.916 740.161 99.5918C741.711 97.2676 742.485 94.6113 742.485 91.623Z" fill="url(#paint0_linear_7_86)"/>
<defs>
<linearGradient id="paint0_linear_7_86" x1="-20.406" y1="70.0014" x2="619.949" y2="70.0014" gradientUnits="userSpaceOnUse">
<stop stop-color="#61D2FF"/>
<stop offset="1" stop-color="#8CCBFF"/>
</linearGradient>
</defs>
</svg>
