<svg width="1014" height="93" viewBox="0 0 1014 93" fill="none" xmlns="http://www.w3.org/2000/svg">
<g clip-path="url(#clip0_23_1051)">
<path d="M1012.31 42.0492V64.1759C1012.31 69.9407 1011.21 74.8577 1008.93 79.0966C1006.73 83.3354 1003.51 86.5569 999.443 88.8459C995.294 91.1349 990.467 92.237 984.963 92.237C979.29 92.237 974.379 91.1349 970.229 89.0155C966.08 86.896 962.862 83.7593 960.576 79.69C958.29 75.7055 957.189 70.958 957.189 65.5323V29.0783C957.189 23.3135 958.29 18.3117 960.576 14.0729C962.778 9.83404 965.911 6.52775 970.06 4.23878C974.125 1.94981 978.951 0.762939 984.54 0.762939C990.044 0.762939 994.786 1.86504 998.596 3.89968C1002.49 5.93432 1005.54 9.07105 1007.74 13.2251C1009.86 17.2944 1011.13 22.5505 1011.55 28.7392H994.786C994.617 26.1112 994.024 23.9917 993.177 22.2962C992.246 20.6007 991.06 19.329 989.621 18.566C988.181 17.7183 986.488 17.2944 984.54 17.2944C982.423 17.2944 980.475 17.8031 978.866 18.7356C977.173 19.7529 975.903 21.1093 975.056 22.8897C974.125 24.67 973.701 26.7046 973.701 29.0783V65.5323C973.701 67.567 974.209 69.432 975.056 70.958C975.987 72.484 977.258 73.6709 979.036 74.5186C980.729 75.2816 982.677 75.7055 984.963 75.7055C987.165 75.7055 989.197 75.2816 990.806 74.4339C992.5 73.5013 993.77 72.2297 994.701 70.5341C995.633 68.8386 996.056 66.804 996.056 64.4302V57.5633H985.556V42.0492H1012.31V42.0492Z" stroke="white" stroke-width="1.9526" stroke-miterlimit="22.9256"/>
<path d="M885.975 1.69543H902.233L929.414 65.9562L927.805 67.906V1.69543H942.878V91.2196H926.451L899.438 29.2479L900.963 27.2132V91.2196H885.975V1.69543Z" stroke="white" stroke-width="1.9526" stroke-miterlimit="22.9256"/>
<path d="M871.834 91.3044H855.491V1.69543H871.834V91.3044Z" stroke="white" stroke-width="1.9526" stroke-miterlimit="22.9256"/>
<path d="M792.999 1.69543H848.209V17.2096H828.648V91.3044H812.56V17.2096H792.999V1.69543Z" stroke="white" stroke-width="1.9526" stroke-miterlimit="22.9256"/>
<path d="M744.732 1.69543H754.386H788.087V17.2943H754.386V38.9972H783.176V54.5961H754.386V75.7055H788.087V91.3044H754.386H744.732H738.297V1.69543H744.732Z" stroke="white" stroke-width="1.9526" stroke-miterlimit="22.9256"/>
<path d="M705.188 38.319L730.083 91.3044H711.623L695.619 54.5113L685.797 71.0428V91.3044H669.792V1.69543H685.797V43.5751L707.559 1.69543H726.696L705.188 38.319Z" stroke="white" stroke-width="1.9526" stroke-miterlimit="22.9256"/>
<path d="M640.41 52.8158L657.853 91.3044H639.394L623.813 54.3418H616.107V91.3044H600.272V1.61072H606.962H616.107H630.841C635.668 1.61072 639.902 2.62804 643.543 4.49312C647.099 6.35821 649.894 9.07106 651.757 12.6317C653.704 16.1923 654.72 20.3464 654.72 25.1786V30.4348C654.72 35.3518 653.704 39.5907 651.757 43.1513C649.894 46.7119 647.099 49.5095 643.458 51.4594C642.527 51.9681 641.51 52.3919 640.41 52.8158V52.8158ZM616.107 38.9125H630.587C632.196 38.9125 633.466 38.5733 634.567 37.8104C635.752 37.1321 636.599 36.1996 637.192 35.0127C637.785 33.7411 638.123 32.2999 638.123 30.6043V25.6025C638.123 23.907 637.869 22.381 637.277 21.1094C636.684 19.8377 635.752 18.8204 634.652 18.1422C633.466 17.464 632.196 17.1248 630.587 17.1248H616.107V38.9125Z" stroke="white" stroke-width="1.9526" stroke-miterlimit="22.9256"/>
<path d="M549.804 61.8869H566.655L558.187 31.3673L549.804 61.8869ZM570.804 77.1467H545.655L541.76 91.3044H525.163L552.853 1.69543H563.607L591.381 91.3044H574.7L570.804 77.1467Z" stroke="white" stroke-width="1.9526" stroke-miterlimit="22.9256"/>
<path d="M499.252 1.69543H517.542V91.3044H503.062V25.2633L503.74 29.1631L488.752 78.4183H477.489L462.417 30.4347L463.348 25.2633V91.3044H448.784V1.69543H467.159L483.078 56.2916L499.252 1.69543Z" stroke="white" stroke-width="1.9526" stroke-miterlimit="22.9256"/>
<path d="M336.501 1.52588H346.155H379.941V17.1248H346.155V38.8276H375.03V54.4265H346.155V75.6207H379.941V91.1348H346.155H336.501H330.066V1.52588H336.501Z" stroke="white" stroke-width="1.9526" stroke-miterlimit="22.9256"/>
<path d="M262.747 1.52588H272.062H278.836H289.082C295.009 1.52588 300.005 2.62798 304.154 4.57784C308.304 6.61248 311.521 9.66444 313.638 13.5642C315.84 17.4639 316.941 22.2114 316.941 27.6371V65.0236C316.941 70.3645 315.84 75.0273 313.723 78.927C311.606 82.8267 308.473 85.7939 304.239 87.9981C300.09 90.1175 295.009 91.1348 289.082 91.1348H278.836H272.062H262.747V1.52588V1.52588ZM278.836 17.04V75.7055H288.574C292.3 75.7055 295.263 74.6881 297.296 72.7383C299.413 70.7884 300.429 67.9908 300.429 64.4302V28.2305C300.429 24.6699 299.413 21.9571 297.296 20.0072C295.263 17.9726 292.3 17.04 288.574 17.04H278.836Z" stroke="white" stroke-width="1.9526" stroke-miterlimit="22.9256"/>
<path d="M212.364 61.7173H229.13L220.747 31.1977L212.364 61.7173V61.7173ZM233.364 76.9771H208.214L204.319 91.1348H187.638L215.412 1.52588H226.166L253.94 91.1348H237.259L233.364 76.9771V76.9771Z" stroke="white" stroke-width="1.9526" stroke-miterlimit="22.9256"/>
<path d="M167.908 52.6462L185.267 91.1348H166.892L151.226 54.1722H143.521V91.1348H127.686V1.52588H134.46H143.521H158.255C163.166 1.52588 167.4 2.45842 170.956 4.32351C174.597 6.1886 177.307 8.90145 179.255 12.4621C181.202 16.0227 182.134 20.2615 182.134 25.009V30.2652C182.134 35.1822 181.202 39.4211 179.255 42.9817C177.307 46.6271 174.597 49.3399 170.956 51.2898C169.94 51.7985 168.924 52.2223 167.908 52.6462V52.6462ZM143.521 38.7428H158.085C159.61 38.7428 160.964 38.4037 162.065 37.7255C163.166 37.0473 164.097 36.1148 164.69 34.8431C165.283 33.6562 165.622 32.1303 165.622 30.4347V25.5177C165.622 23.7374 165.283 22.2114 164.69 20.9397C164.097 19.6681 163.251 18.6508 162.065 17.9726C160.964 17.2943 159.61 16.9552 158.085 16.9552H143.521V38.7428Z" stroke="white" stroke-width="1.9526" stroke-miterlimit="22.9256"/>
<path d="M63.9238 1.52588H119.134V17.04H99.5731V91.1348H83.4844V17.04H63.9238V1.52588Z" stroke="white" stroke-width="1.9526" stroke-miterlimit="22.9256"/>
<path d="M58.9277 57.0546V70.195H46.8188L43.6857 91.1348H31.1534L34.2018 70.195H21.8388L18.7904 91.1348H6.17347L9.22186 70.195H1.68555V57.0546H11.1695L14.3025 35.267H4.56459V22.2114H16.2501L19.2138 1.52588H31.8308L28.8671 22.2114H41.23L44.1938 1.52588H56.8107L53.7623 22.2114H61.7221V35.267H51.8994L48.6817 57.0546H58.9277V57.0546ZM39.2825 35.267H26.9195L23.7864 57.0546H36.1494L39.2825 35.267Z" stroke="white" stroke-width="1.9526" stroke-miterlimit="22.9256"/>
</g>
<defs>
<clipPath id="clip0_23_1051">
<rect width="1014" height="93" fill="white"/>
</clipPath>
</defs>
</svg>
