<svg width="25" height="25" viewBox="0 0 25 25" fill="none" xmlns="http://www.w3.org/2000/svg">
<g clip-path="url(#clip0_18_245)">
<path fill-rule="evenodd" clip-rule="evenodd" d="M3.9106 19.8324C4.05026 19.553 4.18993 19.1341 4.32959 18.8547C4.46926 18.1564 4.60892 18.1564 4.32959 17.8771C3.63127 16.7597 3.07261 15.5028 2.79328 14.1061C2.09496 10.8938 3.35194 7.68154 4.88825 5.72623C5.86591 4.74857 6.56423 4.05025 7.82121 3.35193C10.4748 1.81561 13.6871 1.67595 16.4804 2.79327C18.9944 3.77092 20.9497 5.72623 21.9274 8.10053C23.8827 12.2905 22.486 17.0391 19.4134 19.8324C17.4581 21.5084 14.8045 22.6257 11.3128 22.2067C9.91619 21.9273 8.24021 21.3687 7.40222 20.6704C7.12289 20.5307 7.12289 20.6704 6.84356 20.6704L3.35194 21.7877L3.9106 19.8324ZM0.139648 25C0.418978 24.8603 5.72624 23.1843 6.42456 22.905C6.70389 22.905 6.84356 22.7653 6.98322 22.905C7.96088 23.324 9.0782 23.743 10.0559 24.0223C14.1061 24.8603 17.8771 23.743 20.2514 21.648C22.905 19.553 24.581 16.6201 24.8603 12.9888C25.1397 9.35751 23.743 5.86589 21.229 3.49159C19.1341 1.39662 15.7821 -0.419023 11.4525 -2.86028e-05C9.63686 0.279301 8.10054 0.83796 6.56423 1.67595C5.72624 2.09494 4.46926 3.21226 3.77093 3.91059C2.51395 5.4469 1.39663 7.12288 0.977637 9.35751C0.279313 12.1508 0.558643 15.0838 1.81563 17.5977C1.95529 17.8771 2.09496 18.0167 2.23462 18.1564C2.37429 18.5754 2.37429 18.4357 2.23462 18.8547L0.977637 22.486C0.698308 23.1843 0.279313 24.4413 0.139648 25H0.139648Z" fill="url(#paint0_linear_18_245)"/>
<path fill-rule="evenodd" clip-rule="evenodd" d="M6.70387 9.49714C6.70387 10.4748 7.12286 11.3128 7.54186 12.0111C8.79884 14.1061 10.4748 16.0614 12.5698 17.039C13.2681 17.458 14.2458 17.877 15.0838 18.0167C16.0614 18.4357 16.8994 18.296 17.7374 17.7374C18.4357 17.3184 18.9944 16.8994 18.9944 15.6424C19.134 15.2234 18.8547 15.2234 18.2961 14.8044C17.8771 14.6647 16.3407 13.6871 15.9217 13.6871C15.7821 13.8268 15.2234 14.3854 15.0838 14.6647C14.8044 14.9441 14.5251 15.3631 14.1061 15.2234C13.9664 15.2234 13.2681 14.8044 12.9888 14.6647C12.2905 14.2457 11.5921 13.6871 11.1731 13.1284C10.7542 12.8491 9.7765 11.5921 9.7765 11.1731C9.7765 10.8938 10.1955 10.6145 10.4748 10.1955C10.6145 10.0558 10.7541 9.77647 10.8938 9.63681C11.0335 9.35748 10.8938 9.21781 10.7542 8.93848C10.6145 8.51949 9.91616 6.70385 9.7765 6.56418C9.63683 6.28485 9.63683 6.28485 9.21784 6.28485C8.93851 6.28485 8.79884 6.14519 8.51951 6.28485C7.54186 6.42452 6.56421 8.10049 6.70387 9.49714Z" fill="url(#paint1_linear_18_245)"/>
</g>
<defs>
<linearGradient id="paint0_linear_18_245" x1="0.139648" y1="12.4697" x2="24.8956" y2="12.4697" gradientUnits="userSpaceOnUse">
<stop stop-color="#008190"/>
<stop offset="1" stop-color="#DDF0FF"/>
</linearGradient>
<linearGradient id="paint1_linear_18_245" x1="6.69049" y1="12.2415" x2="19.03" y2="12.2415" gradientUnits="userSpaceOnUse">
<stop stop-color="#008190"/>
<stop offset="1" stop-color="#DDF0FF"/>
</linearGradient>
<clipPath id="clip0_18_245">
<rect width="25" height="25" fill="white"/>
</clipPath>
</defs>
</svg>
