<svg width="156" height="62" viewBox="0 0 156 62" fill="none" xmlns="http://www.w3.org/2000/svg">
<path d="M155.959 30.9999H88.8823V32.515H155.959V30.9999Z" fill="#898989"/>
<path fill-rule="evenodd" clip-rule="evenodd" d="M41.8807 5.27504L47.6626 5.26695L58.7449 32.5608L52.6151 32.5682C51.2954 32.5659 50.9486 28.941 50.1642 27.5726C49.9527 27.2038 50.0803 27.2995 49.7204 27.1146L39.512 27.1328L37.5173 32.5676L30.7309 32.5577L41.8807 5.27504ZM9.20528 5.27617C15.1147 5.2568 20.3196 4.56352 24.8055 7.47592C33.5389 13.146 32.7615 25.4777 24.7411 30.4268C20.101 33.29 15.1964 32.5825 9.15077 32.5663L9.20528 5.27617ZM59.9473 5.27617C63.3004 5.2652 66.8247 5.17859 70.1602 5.28406C73.3732 5.38563 75.533 6.48848 77.1229 8.27856C80.1667 11.7054 78.9184 20.0075 73.1465 21.2163L79.0046 28.355C80.0753 29.603 81.6369 31.2865 82.4982 32.5678L74.508 32.5663C73.5799 31.1215 69.7333 26.4219 68.3449 24.5702L66.5335 22.2794C66.2298 21.9742 66.6182 22.26 66.1753 21.9962L66.1738 32.5584L59.8927 32.5663L59.9473 5.27617ZM88.8843 0.00177002H0.159807L0.172115 38.1344L0 38.3455L88.8843 38.3442L88.8826 38.1344L88.8843 0.00177002ZM15.4359 27.0058C20.8493 27.0267 24.224 24.0483 24.2288 18.8989C24.2312 16.162 23.1532 14.1674 21.749 12.8696C20.0804 11.3275 18.4642 10.8513 15.4365 10.8407L15.4359 27.0058ZM66.1752 17.212L66.1736 17.3815C69.3863 17.3815 72.0846 17.2765 72.1014 13.8382C72.1182 10.376 69.2948 10.2456 66.178 10.2546L66.1752 17.212ZM41.7118 21.6484L47.7975 21.6428L44.8209 13.8249C44.2791 14.4466 41.8019 21.2957 41.7118 21.6484Z" fill="#D93724"/>
<path fill-rule="evenodd" clip-rule="evenodd" d="M99.5454 17.3802L99.5472 10.2548C102.674 10.2411 105.489 10.3616 105.475 13.8377C105.461 17.2794 102.758 17.3802 99.5454 17.3802ZM93.2681 32.397L99.5455 32.5563L99.5469 22.0005C100.056 22.2938 100.233 22.7032 100.669 23.2507L105.869 29.908C106.554 30.8357 107.307 31.6472 107.878 32.5657H115.869C114.36 30.3446 107.494 22.9017 106.525 21.2169C108.826 20.709 110.963 18.5599 111.661 16.3301C113.433 10.6743 110.337 5.4697 103.521 5.28306C100.168 5.19122 96.6919 5.27496 93.3252 5.27496L93.2681 32.397ZM130.125 25.3104C128.805 29.9636 120.703 28.3561 122.543 22.7206C124.017 18.2059 131.645 19.9536 130.125 25.3104ZM136.069 15.7055L130.247 15.6951L130.185 17.1897L129.948 16.9615C128.697 16.3207 128.261 15.4332 125.668 15.1594C123.616 14.9429 121.919 15.2946 120.351 16.1647C117.973 17.484 115.916 20.4893 116.047 24.4687C116.174 28.3439 118.289 30.9621 120.86 32.2682C123.088 33.3999 126.086 33.3665 128.398 32.0754C129.709 31.3434 129.462 31.0615 130.227 30.7161L130.228 32.5763H136.071L136.069 15.7055ZM155.959 32.5598L155.969 4.18134L150.122 4.18718L150.141 32.397L150.139 32.566L155.959 32.5598ZM145.742 32.5598L145.753 15.6774L139.917 15.6827L139.925 32.397L139.922 32.566L145.742 32.5598ZM142.274 5.21551C137.601 6.24979 139.228 12.9974 143.849 11.9567C145.445 11.5973 146.879 9.79664 146.354 7.66832C145.975 6.13284 144.257 4.77642 142.274 5.21551Z" fill="white"/>
<path fill-rule="evenodd" clip-rule="evenodd" d="M155.296 57.1805C154.021 60.0193 151.15 61.9986 147.812 61.9986C144.473 61.9986 141.602 60.0193 140.327 57.1805H155.296Z" fill="white"/>
<path fill-rule="evenodd" clip-rule="evenodd" d="M139.641 53.3503C139.659 53.0845 139.689 52.8223 139.732 52.5641H146.225V51.677H139.93C140.027 51.3382 140.145 51.0084 140.283 50.6892H148.239C149.972 50.8923 151.13 51.8838 151.941 53.3503H139.641Z" fill="#E31E24"/>
<path fill-rule="evenodd" clip-rule="evenodd" d="M139.668 54.7412C139.646 54.5351 139.632 54.3267 139.626 54.1163H152.104C152.11 54.4536 151.969 54.7132 151.392 54.7412H139.668Z" fill="#E31E24"/>
<path fill-rule="evenodd" clip-rule="evenodd" d="M147.811 45.7703C152.334 45.7703 156 49.4031 156 53.8845C156 54.7085 155.875 55.5038 155.645 56.2532H139.977C139.914 56.0482 139.859 55.8398 139.812 55.6282H151.534C154.221 55.3439 152.241 49.8504 147.77 49.8022H140.733C142.153 47.3909 144.791 45.7703 147.811 45.7703Z" fill="#E31E24"/>
<path d="M137.777 54.1566H0.156738V56.4294H137.777V54.1566Z" fill="#E31E24"/>
</svg>
