<svg width="156" height="62" viewBox="0 0 156 62" fill="none" xmlns="http://www.w3.org/2000/svg">
<g clip-path="url(#clip0)">
<path d="M155.959 31H88.8823V32.5152H155.959V31Z" fill="#898989"/>
<path fill-rule="evenodd" clip-rule="evenodd" d="M41.8807 5.27523L47.6626 5.26713L58.7449 32.561L52.6151 32.5684C51.2954 32.5661 50.9486 28.9411 50.1642 27.5727C49.9527 27.204 50.0803 27.2997 49.7204 27.1148L39.512 27.133L37.5173 32.5677L30.7309 32.5579L41.8807 5.27523ZM9.20528 5.27635C15.1147 5.25698 20.3196 4.5637 24.8055 7.4761C33.5389 13.1461 32.7615 25.4778 24.7411 30.427C20.101 33.2902 15.1964 32.5827 9.15077 32.5665L9.20528 5.27635ZM59.9473 5.27635C63.3004 5.26539 66.8247 5.17878 70.1602 5.28425C73.3732 5.38582 75.533 6.48867 77.1229 8.27874C80.1667 11.7056 78.9184 20.0077 73.1465 21.2165L79.0046 28.3552C80.0753 29.6032 81.6369 31.2866 82.4982 32.5679L74.508 32.5665C73.5799 31.1217 69.7333 26.4221 68.3449 24.5703L66.5335 22.2796C66.2298 21.9743 66.6182 22.2602 66.1753 21.9964L66.1738 32.5586L59.8927 32.5665L59.9473 5.27635ZM88.8843 0.00195312H0.159807L0.172115 38.1346L0 38.3457L88.8843 38.3444L88.8826 38.1346L88.8843 0.00195312ZM15.4359 27.0059C20.8493 27.0268 24.224 24.0484 24.2288 18.8991C24.2312 16.1622 23.1532 14.1676 21.749 12.8698C20.0804 11.3277 18.4642 10.8515 15.4365 10.8409L15.4359 27.0059ZM66.1752 17.2122L66.1736 17.3816C69.3863 17.3816 72.0846 17.2767 72.1014 13.8384C72.1182 10.3762 69.2948 10.2458 66.178 10.2547L66.1752 17.2122ZM41.7118 21.6486L47.7975 21.643L44.8209 13.8251C44.2791 14.4468 41.8019 21.2959 41.7118 21.6486Z" fill="#D93724"/>
<path fill-rule="evenodd" clip-rule="evenodd" d="M99.5454 17.3805L99.5472 10.2551C102.674 10.2414 105.489 10.3619 105.475 13.838C105.461 17.2797 102.758 17.3805 99.5454 17.3805ZM93.2681 32.3973L99.5455 32.5566L99.5469 22.0008C100.056 22.2941 100.233 22.7035 100.669 23.251L105.869 29.9083C106.554 30.836 107.307 31.6475 107.878 32.566H115.869C114.36 30.3449 107.494 22.902 106.525 21.2172C108.826 20.7093 110.963 18.5602 111.661 16.3304C113.433 10.6746 110.337 5.47001 103.521 5.28336C100.168 5.19153 96.6919 5.27526 93.3252 5.27526L93.2681 32.3973ZM130.125 25.3107C128.805 29.9639 120.703 28.3564 122.543 22.7209C124.017 18.2062 131.645 19.9539 130.125 25.3107ZM136.069 15.7058L130.247 15.6954L130.185 17.19L129.948 16.9618C128.697 16.321 128.261 15.4335 125.668 15.1597C123.616 14.9432 121.919 15.2949 120.351 16.165C117.973 17.4843 115.916 20.4896 116.047 24.469C116.174 28.3442 118.289 30.9624 120.86 32.2685C123.088 33.4002 126.086 33.3668 128.398 32.0757C129.709 31.3437 129.462 31.0618 130.227 30.7164L130.228 32.5766H136.071L136.069 15.7058ZM155.959 32.5601L155.969 4.18164L150.122 4.18748L150.141 32.3973L150.139 32.5663L155.959 32.5601ZM145.742 32.5601L145.753 15.6777L139.917 15.683L139.925 32.3973L139.922 32.5663L145.742 32.5601ZM142.274 5.21582C137.601 6.2501 139.228 12.9977 143.849 11.957C145.445 11.5976 146.879 9.79694 146.354 7.66863C145.975 6.13315 144.257 4.77673 142.274 5.21582Z" fill="black"/>
<path fill-rule="evenodd" clip-rule="evenodd" d="M155.296 57.1807C154.021 60.0195 151.15 61.9988 147.812 61.9988C144.473 61.9988 141.602 60.0195 140.327 57.1807H155.296Z" fill="black"/>
<path fill-rule="evenodd" clip-rule="evenodd" d="M139.641 53.3506C139.659 53.0848 139.689 52.8225 139.732 52.5643H146.225V51.6772H139.93C140.027 51.3385 140.145 51.0086 140.283 50.6895H148.239C149.972 50.8925 151.13 51.884 151.941 53.3506H139.641Z" fill="#E31E24"/>
<path fill-rule="evenodd" clip-rule="evenodd" d="M139.668 54.7413C139.646 54.5352 139.632 54.3269 139.626 54.1165H152.104C152.11 54.4537 151.969 54.7133 151.392 54.7413H139.668Z" fill="#E31E24"/>
<path fill-rule="evenodd" clip-rule="evenodd" d="M147.811 45.7705C152.334 45.7705 156 49.4033 156 53.8847C156 54.7088 155.875 55.504 155.645 56.2535H139.977C139.914 56.0485 139.859 55.84 139.812 55.6285H151.534C154.221 55.3441 152.241 49.8506 147.77 49.8025H140.733C142.153 47.3912 144.791 45.7705 147.811 45.7705Z" fill="#E31E24"/>
<path d="M137.777 54.1567H0.156738V56.4295H137.777V54.1567Z" fill="#E31E24"/>
</g>
<defs>
<clipPath id="clip0">
<rect width="156" height="62" fill="white"/>
</clipPath>
</defs>
</svg>
