<svg width="26" height="30" viewBox="0 0 26 30" fill="none" xmlns="http://www.w3.org/2000/svg">
<path d="M18.4055 0C18.7187 0.156576 18.8361 0.407098 18.8283 0.759395C18.8048 1.30741 18.8205 1.8476 18.8205 2.44259C19.1884 2.44259 19.5407 2.44259 19.8852 2.44259C20.3941 2.45042 20.5898 2.64614 20.5898 3.15501C20.5898 5.98121 20.5898 8.79958 20.5898 11.6258C20.5898 11.7119 20.5898 11.8058 20.5741 11.892C20.5271 12.1503 20.3079 12.3382 20.0418 12.3617C19.7912 12.3773 19.5251 12.2051 19.4624 11.9624C19.4233 11.8215 19.4233 11.6728 19.4233 11.524C19.4233 9.03445 19.4233 6.54489 19.4233 4.05532C19.4233 3.93006 19.4233 3.8048 19.4233 3.64823C15.1174 3.64823 10.8272 3.64823 6.50574 3.64823C6.50574 12.0329 6.50574 20.4175 6.50574 28.8257C7.59395 28.8257 8.69781 28.8257 9.83298 28.8257C9.83298 28.7239 9.83298 28.6221 9.83298 28.5125C9.83298 27.119 9.83298 25.7176 9.83298 24.3241C9.83298 23.7448 10.013 23.5647 10.5767 23.5647C12.1581 23.5647 13.7396 23.5647 15.321 23.5647C15.8768 23.5647 16.0647 23.7526 16.0647 24.3006C16.0647 25.6942 16.0647 27.0955 16.0647 28.489C16.0647 28.5908 16.0647 28.7004 16.0647 28.8257C17.1842 28.8257 18.2803 28.8257 19.4154 28.8257C19.4154 28.6926 19.4154 28.5673 19.4154 28.4499C19.4154 24.7469 19.4154 21.0438 19.4154 17.3408C19.4154 17.2077 19.4154 17.0668 19.4468 16.9337C19.5094 16.6597 19.7599 16.4796 20.0261 16.4875C20.3079 16.5031 20.5585 16.7067 20.5741 16.9963C20.5976 17.3252 20.6054 17.6618 20.5819 17.9906C20.5663 18.2176 20.6524 18.3116 20.8559 18.3977C22.3278 19.0005 23.7918 19.6112 25.2636 20.214C25.8664 20.4645 25.9134 20.5271 25.9134 21.1613C25.9134 23.8466 25.9134 26.5318 25.9134 29.2171C25.9134 29.8199 25.7333 30 25.1305 30C17.012 30 8.89353 30 0.775052 30C0.187891 30 0 29.8121 0 29.2328C0 26.5005 0 23.7604 0 21.0282C0 20.5585 0.0861169 20.441 0.516702 20.261C2.02766 19.6347 3.54645 19.0084 5.05741 18.3899C5.26879 18.3038 5.31576 18.1942 5.31576 17.9749C5.31576 13.0819 5.31576 8.17328 5.31576 3.27244C5.31576 3.1237 5.30793 2.97495 5.34708 2.83403C5.43319 2.56002 5.64457 2.43476 5.93424 2.44259C6.30219 2.44259 6.67015 2.44259 7.08507 2.44259C7.08507 1.96503 7.08507 1.51096 7.08507 1.05689C7.08507 0.908142 7.0929 0.767223 7.08507 0.618476C7.06942 0.313152 7.26514 0.140919 7.5 0C11.1404 0 14.773 0 18.4055 0ZM20.6211 19.5564C20.6211 22.6801 20.6211 25.749 20.6211 28.81C22.0068 28.81 23.369 28.81 24.7312 28.81C24.739 28.763 24.7469 28.7317 24.7469 28.7004C24.7469 26.2891 24.7469 23.8779 24.7547 21.4666C24.7547 21.2944 24.6842 21.2239 24.5433 21.1691C23.9014 20.9108 23.2594 20.6446 22.6253 20.3784C21.9598 20.12 21.3022 19.846 20.6211 19.5564ZM5.29228 28.8257C5.29228 25.7333 5.29228 22.6644 5.29228 19.572C5.19833 19.6112 5.12004 19.6347 5.05741 19.6581C3.85177 20.1592 2.64614 20.6602 1.43267 21.1534C1.22912 21.2396 1.16649 21.3413 1.16649 21.5605C1.17432 23.8857 1.17432 26.2109 1.17432 28.536C1.17432 28.63 1.18215 28.7239 1.18998 28.8335C2.55219 28.8257 3.90658 28.8257 5.29228 28.8257ZM11.0308 24.739C11.0308 26.1169 11.0308 27.4635 11.0308 28.8179C12.3225 28.8179 13.5986 28.8179 14.8826 28.8179C14.8826 27.4556 14.8826 26.1013 14.8826 24.739C13.5986 24.739 12.3225 24.739 11.0308 24.739ZM8.27505 2.4191C11.4144 2.4191 14.5224 2.4191 17.6305 2.4191C17.6305 1.99635 17.6305 1.58925 17.6305 1.18998C14.499 1.18998 11.3909 1.18998 8.27505 1.18998C8.27505 1.60491 8.27505 2.00418 8.27505 2.4191Z" fill="#E0B84C"/>
<path d="M8.03223 13.4343C8.03223 12.8472 8.03223 12.26 8.03223 11.6807C8.03223 11.1875 8.25143 10.9683 8.75248 10.9683C9.70759 10.9683 10.6627 10.9683 11.6257 10.9683C12.111 10.9683 12.3302 11.1796 12.3302 11.6572C12.3381 12.855 12.3381 14.0606 12.3302 15.2584C12.3302 15.7282 12.111 15.9396 11.6413 15.9396C10.6627 15.9396 9.69193 15.9396 8.71333 15.9396C8.25926 15.9396 8.03223 15.7125 8.03223 15.2506C8.03223 14.64 8.03223 14.0372 8.03223 13.4343ZM11.1403 14.7496C11.1403 13.8727 11.1403 13.0116 11.1403 12.1582C10.4826 12.1582 9.85634 12.1582 9.23003 12.1582C9.23003 13.0351 9.23003 13.8884 9.23003 14.7496C9.872 14.7496 10.4983 14.7496 11.1403 14.7496Z" fill="#E0B84C"/>
<path d="M17.8732 13.4657C17.8732 14.0528 17.8732 14.64 17.8732 15.2193C17.8732 15.7125 17.654 15.9317 17.1608 15.9396C16.2057 15.9396 15.2506 15.9396 14.2876 15.9396C13.7866 15.9396 13.5752 15.7282 13.5752 15.2272C13.5674 14.045 13.5674 12.8628 13.5752 11.6807C13.5752 11.1718 13.7866 10.9683 14.2876 10.9604C15.2427 10.9604 16.1979 10.9604 17.1608 10.9604C17.654 10.9604 17.8732 11.1797 17.8811 11.6729C17.8732 12.2757 17.8732 12.8707 17.8732 13.4657ZM14.7574 14.7496C15.415 14.7496 16.0491 14.7496 16.6754 14.7496C16.6754 13.8728 16.6754 13.0116 16.6754 12.1583C16.0256 12.1583 15.3915 12.1583 14.7574 12.1583C14.7574 13.0273 14.7574 13.8728 14.7574 14.7496Z" fill="#E0B84C"/>
<path d="M8.03224 7.38261C8.03224 6.78762 8.03224 6.19263 8.03224 5.59764C8.03224 5.12791 8.24362 4.9087 8.70552 4.9087C9.69195 4.90087 10.6784 4.90087 11.6648 4.9087C12.1189 4.9087 12.3303 5.12008 12.3303 5.57415C12.3381 6.78762 12.3381 7.99325 12.3303 9.20672C12.3303 9.66079 12.1111 9.86434 11.657 9.87217C10.6706 9.88 9.68412 9.88 8.69769 9.87217C8.23579 9.87217 8.03224 9.64513 8.02441 9.17541C8.03224 8.57259 8.03224 7.9776 8.03224 7.38261ZM11.1481 6.09085C10.4983 6.09085 9.87201 6.09085 9.23005 6.09085C9.23005 6.95985 9.23005 7.81319 9.23005 8.67436C9.87201 8.67436 10.5061 8.67436 11.1481 8.67436C11.1481 7.81319 11.1481 6.97551 11.1481 6.09085Z" fill="#E0B84C"/>
<path d="M13.5753 7.38262C13.5753 6.78763 13.5674 6.19264 13.5753 5.59766C13.5831 5.11227 13.7866 4.90872 14.272 4.90089C15.235 4.89306 16.2057 4.89306 17.1687 4.90089C17.6541 4.90089 17.8654 5.11227 17.8733 5.59766C17.8733 6.78763 17.8733 7.97761 17.8733 9.16759C17.8733 9.64515 17.6619 9.85653 17.1687 9.86436C16.2057 9.86436 15.235 9.86436 14.272 9.86436C13.7788 9.86436 13.5831 9.66081 13.5753 9.16759C13.5674 8.5726 13.5753 7.97761 13.5753 7.38262ZM16.6676 8.68221C16.6676 7.79755 16.6676 6.94421 16.6676 6.0987C16.01 6.0987 15.3915 6.0987 14.7731 6.0987C14.7731 6.9677 14.7731 7.82104 14.7731 8.68221C15.415 8.68221 16.0335 8.68221 16.6676 8.68221Z" fill="#E0B84C"/>
<path d="M8.03224 19.4861C8.03224 18.9068 8.03224 18.3353 8.03224 17.7559C8.03224 17.2471 8.23579 17.0357 8.72901 17.0278C9.69195 17.02 10.6627 17.02 11.6257 17.0278C12.1189 17.0278 12.3224 17.2392 12.3224 17.7246C12.3303 18.9146 12.3303 20.1046 12.3224 21.2945C12.3224 21.7878 12.1111 21.9835 11.6257 21.9913C10.6627 21.9913 9.69195 21.9913 8.72901 21.9913C8.22796 21.9913 8.02441 21.7799 8.02441 21.2711C8.03224 20.6761 8.03224 20.0811 8.03224 19.4861ZM9.23005 18.2178C9.23005 19.0868 9.23005 19.9402 9.23005 20.8013C9.87984 20.8013 10.5061 20.8013 11.1481 20.8013C11.1481 19.9323 11.1481 19.079 11.1481 18.2178C10.4983 18.2178 9.86418 18.2178 9.23005 18.2178Z" fill="#E0B84C"/>
<path d="M17.8732 19.5331C17.8732 20.1202 17.8732 20.7074 17.8732 21.2867C17.8732 21.7799 17.6618 21.9913 17.1843 21.9913C16.2057 21.9913 15.2349 21.9913 14.2563 21.9913C13.7866 21.9913 13.5752 21.7878 13.5752 21.3102C13.5674 20.1124 13.5674 18.9068 13.5752 17.709C13.5752 17.2392 13.7866 17.0278 14.2563 17.0278C15.2349 17.02 16.2057 17.02 17.1843 17.0278C17.6618 17.0278 17.8732 17.2471 17.8732 17.7403C17.8732 18.3353 17.8732 18.9381 17.8732 19.5331ZM16.6832 20.8013C16.6832 19.9245 16.6832 19.079 16.6832 18.2257C16.0335 18.2257 15.3993 18.2257 14.7574 18.2257C14.7574 19.0947 14.7574 19.9402 14.7574 20.8013C15.4071 20.8013 16.0335 20.8013 16.6832 20.8013Z" fill="#E0B84C"/>
<path d="M20.59 14.405C20.59 14.726 20.3395 14.9922 20.0263 14.9922C19.721 15 19.4392 14.7338 19.4313 14.4207C19.4235 14.0919 19.6818 13.8257 20.0185 13.8257C20.3395 13.8335 20.59 14.0762 20.59 14.405Z" fill="#E0B84C"/>
</svg>
