<svg width="35" height="61" viewBox="0 0 35 61" fill="none" xmlns="http://www.w3.org/2000/svg">
<path d="M19.7093 6.60086V33.1583H15.4205V31.8304C11.8139 31.3556 8.46135 29.7149 5.87354 27.1584C3.28572 24.6018 1.60448 21.2694 1.08592 17.6689C0.567359 14.0683 1.2399 10.397 3.00109 7.21403C4.76228 4.0311 7.51559 1.51107 10.8416 0.0378198V0.0378198L12.4595 3.47197C9.93547 4.57866 7.8341 6.46742 6.46546 8.85952C5.09683 11.2516 4.53343 14.0203 4.85842 16.7571C5.18341 19.4938 6.37956 22.0536 8.27035 24.0586C10.1611 26.0637 12.6464 27.4078 15.3594 27.8926V27.8926V6.52454C15.5703 5.03385 16.1356 3.61546 17.0078 2.3883C20.0604 -1.53425 25.494 0.556763 25.494 0.556763C28.0815 1.96733 30.2492 4.03817 31.7764 6.55858C33.3037 9.07898 34.136 11.959 34.1888 14.9055C34.2415 17.8521 33.5127 20.76 32.0766 23.3335C30.6405 25.9069 28.5483 28.054 26.0129 29.5562V29.5562L23.9982 26.5036C25.9307 25.4256 27.5517 23.8664 28.7038 21.9771C29.856 20.0879 30.5002 17.933 30.5739 15.7214C30.6477 13.5098 30.1484 11.3167 29.1246 9.35491C28.1008 7.39317 26.5872 5.7294 24.7308 4.52511V4.52511C24.7308 4.52511 20.5183 2.58672 19.8772 6.60086V7.59295L19.7093 6.60086Z" fill="#E0B84C"/>
<path d="M15.4204 60.5398V38.4239H19.7856V60.5093H15.4204V60.5398Z" fill="#E0B84C"/>
</svg>
