<svg width="154" height="18" viewBox="0 0 154 18" fill="none" xmlns="http://www.w3.org/2000/svg">
<path fill-rule="evenodd" clip-rule="evenodd" d="M37.7792 3.36254L32.185 15.616H33.1109L34.6241 12.2087H41.7085L43.2337 15.6118H44.2141L38.6199 3.35891L37.7798 3.36314L37.7792 3.36254ZM35.0129 11.3826L38.1917 4.35075L41.3468 11.3826H35.0129ZM60.6902 6.89628C60.6944 6.47328 60.6166 6.05347 60.461 5.6601C60.3055 5.26699 60.0751 4.90957 59.7836 4.60718C59.0639 3.87962 57.8852 3.4212 56.4107 3.4212H51.3844V15.5574H52.2752V10.5292H56.1966L60.0134 15.5574H61.1456L57.1891 10.3714C59.2085 10.095 60.6908 8.93258 60.6908 6.90474V6.89688L60.6902 6.89628ZM52.2674 9.7067V4.26789H56.3599C58.5347 4.26789 59.803 5.29179 59.803 6.92047C59.803 8.70699 58.3128 9.73089 56.3013 9.73089L52.2668 9.7073L52.2674 9.7067ZM78.0142 3.41757H76.8004L69.1632 11.3826V3.41818H68.2723V15.5574H69.1632V12.4699L72.1435 9.40673L77.0725 15.5453H78.2397L72.7931 8.76626L78.0142 3.41818V3.41757ZM101.061 4.26729H105.239V15.5725H106.13V4.26789H110.304V3.41818H101.061V4.26789V4.26729ZM117.467 15.5725H118.357V3.41818H117.467V15.5731V15.5725ZM134.631 13.9916L126.36 3.41818H125.52V15.5574H126.376V4.76986L134.818 15.5574H135.487V3.41818H134.631V13.9922V13.9916ZM148.302 9.24827V10.0387H152.193V13.4261C151.15 14.284 149.846 14.7597 148.497 14.7742C145.384 14.7742 143.525 12.5014 143.525 9.44967C143.525 6.56788 145.497 4.14512 148.313 4.14512C148.998 4.12194 149.679 4.23513 150.319 4.4781C150.959 4.72106 151.544 5.08895 152.041 5.56031L152.605 4.90412C151.44 3.8518 149.922 3.29601 148.364 3.35044C144.902 3.35044 142.63 6.26791 142.63 9.44967C142.63 12.8014 144.801 15.5489 148.465 15.5489C150.15 15.534 151.771 14.9043 153.025 13.7781V9.24041L148.302 9.24827ZM85.3707 4.28785H93.9296V3.41394H85.3707V4.28725V4.28785ZM91.3115 9.08256H85.3707V9.94801H91.3115V9.08256ZM85.3707 15.5574H93.9296V14.6919H85.3707V15.5574ZM19.8408 0.709961L15.8806 7.60387L11.9393 0.709961H7.16211V10.9519C8.64141 12.2807 10.2411 13.4636 11.9393 14.4857V9.40612L15.6666 15.7309H16.0947L19.8414 9.40612V17.6439H24.5956V0.709961H19.8414H19.8408Z" fill="white" fill-opacity="0.5"/>
<path fill-rule="evenodd" clip-rule="evenodd" d="M4.77717 8.51709V0.709961H0C1.14485 3.56877 2.76083 6.20864 4.77717 8.51709Z" fill="white" fill-opacity="0.5"/>
<path fill-rule="evenodd" clip-rule="evenodd" d="M0 10.5366V17.6519H4.77717V13.8847C3.09821 12.8976 1.50075 11.778 0 10.5366H0ZM7.16244 15.1693V17.644H11.9396V17.1106C10.3049 16.5772 8.70826 15.9289 7.16244 15.1699V15.1693Z" fill="white" fill-opacity="0.5"/>
</svg>
