<svg width="14" height="14" viewBox="0 0 14 14" fill="none" xmlns="http://www.w3.org/2000/svg">
<path d="M9.81229 0.310059H4.44867C2.39844 0.310059 0.730469 1.97803 0.730469 4.02826V9.39186C0.730469 11.4421 2.39844 13.1101 4.44867 13.1101H9.81227C11.8625 13.1101 13.5305 11.4421 13.5305 9.39188V4.02826C13.5305 1.97803 11.8625 0.310059 9.81229 0.310059ZM12.5305 9.39186C12.5305 10.8907 11.3111 12.1101 9.81229 12.1101H4.44867C2.94984 12.1101 1.73047 10.8907 1.73047 9.39188V4.02826C1.73047 2.52943 2.94984 1.31006 4.44867 1.31006H9.81227C11.3111 1.31006 12.5305 2.52943 12.5305 4.02826V9.39186Z" fill="#242020"/>
<path d="M7.13066 3.25977C5.22831 3.25977 3.68066 4.80742 3.68066 6.70977C3.68066 8.61212 5.22831 10.1598 7.13066 10.1598C9.03301 10.1598 10.5807 8.61212 10.5807 6.70977C10.5807 4.80742 9.03301 3.25977 7.13066 3.25977ZM7.13066 9.15977C5.77974 9.15977 4.68066 8.06069 4.68066 6.70977C4.68066 5.35884 5.77974 4.25977 7.13066 4.25977C8.48159 4.25977 9.58066 5.35884 9.58066 6.70977C9.58066 8.06069 8.48159 9.15977 7.13066 9.15977Z" fill="#242020"/>
<path d="M10.6304 3.70996C10.9066 3.70996 11.1304 3.4861 11.1304 3.20996C11.1304 2.93382 10.9066 2.70996 10.6304 2.70996C10.3543 2.70996 10.1304 2.93382 10.1304 3.20996C10.1304 3.4861 10.3543 3.70996 10.6304 3.70996Z" fill="#242020"/>
</svg>
