<svg width="35" height="34" viewBox="0 0 35 34" fill="none" xmlns="http://www.w3.org/2000/svg">
<path d="M19.7098 6.60086V33.1583H15.4209V31.8304C11.8144 31.3556 8.46183 29.7149 5.87402 27.1584C3.28621 24.6018 1.60497 21.2694 1.08641 17.6689C0.567847 14.0683 1.24039 10.397 3.00158 7.21403C4.76277 4.0311 7.51608 1.51107 10.8421 0.0378198L12.4599 3.47197C9.93596 4.57866 7.83459 6.46742 6.46595 8.85952C5.09731 11.2516 4.53392 14.0203 4.85891 16.7571C5.18389 19.4938 6.38004 22.0536 8.27084 24.0586C10.1616 26.0637 12.6469 27.4078 15.3599 27.8926V6.52454C15.5708 5.03385 16.1361 3.61546 17.0083 2.3883C20.0609 -1.53425 25.4944 0.556763 25.4944 0.556763C28.082 1.96733 30.2496 4.03817 31.7769 6.55858C33.3042 9.07898 34.1365 11.959 34.1893 14.9055C34.242 17.8521 33.5132 20.76 32.0771 23.3335C30.641 25.9069 28.5488 28.054 26.0134 29.5562L23.9987 26.5036C25.9312 25.4256 27.5522 23.8664 28.7043 21.9771C29.8565 20.0879 30.5007 17.933 30.5744 15.7214C30.6481 13.5098 30.1489 11.3167 29.1251 9.35491C28.1013 7.39317 26.5877 5.7294 24.7313 4.52511C24.7313 4.52511 20.5188 2.58672 19.8777 6.60086V7.59295L19.7098 6.60086Z" fill="#E0B84C"/>
</svg>
