<svg width="164" height="80" viewBox="0 0 164 80" fill="none" xmlns="http://www.w3.org/2000/svg">
<path d="M83.7704 76.8254H79.4052V80H83.7704V76.8254Z" fill="#E0B84C"/>
<path d="M83.7093 6.60086V33.1583H79.4205V31.8304C75.8139 31.3556 72.4613 29.7149 69.8735 27.1584C67.2857 24.6018 65.6045 21.2694 65.0859 17.6689C64.5674 14.0683 65.2399 10.397 67.0011 7.21403C68.7623 4.0311 71.5156 1.51107 74.8416 0.0378198L76.4595 3.47197C73.9355 4.57866 71.8341 6.46742 70.4655 8.85952C69.0968 11.2516 68.5334 14.0203 68.8584 16.7571C69.1834 19.4938 70.3796 22.0536 72.2704 24.0586C74.1611 26.0637 76.6464 27.4078 79.3594 27.8926V6.52454C79.5703 5.03385 80.1356 3.61546 81.0078 2.3883C84.0604 -1.53425 89.494 0.556763 89.494 0.556763C92.0815 1.96733 94.2492 4.03817 95.7764 6.55858C97.3037 9.07898 98.136 11.959 98.1888 14.9055C98.2415 17.8521 97.5127 20.76 96.0766 23.3335C94.6405 25.9069 92.5483 28.054 90.0129 29.5562L87.9982 26.5036C89.9307 25.4256 91.5517 23.8664 92.7038 21.9771C93.856 20.0879 94.5002 17.933 94.5739 15.7214C94.6477 13.5098 94.1484 11.3167 93.1246 9.35491C92.1008 7.39317 90.5872 5.7294 88.7308 4.52511C88.7308 4.52511 84.5183 2.58672 83.8772 6.60086V7.59295L83.7093 6.60086Z" fill="#E0B84C"/>
<path d="M79.4204 60.5398V38.4239H83.7856V60.5093H79.4204V60.5398Z" fill="#E0B84C"/>
<path d="M12.8135 59.3037L11.5009 54.0533H4.38836L3.07575 59.3037H1L6.90673 36.8673H9.08932L14.9808 59.3037H12.8135ZM4.84624 52.2523H11.0582L8.75354 42.9572C8.43811 41.7158 8.17864 40.5406 7.97513 39.4315C7.79198 40.5457 7.53251 41.7209 7.21199 42.9572L4.84624 52.2523Z" fill="white"/>
<path d="M18.3692 36.8673H20.3533V59.3037H18.3692V36.8673Z" fill="white"/>
<path d="M36.2879 36.8673H38.2721V59.3037H36.2116L30.1065 46.1319C29.2975 44.3919 28.5802 42.5756 27.8323 40.683H27.7407C27.8476 43.5219 27.8934 45.5366 27.8934 46.7882V59.3495H25.9092V36.8673H27.9697L34.0748 49.9476C34.9397 51.7588 35.7486 53.6056 36.5016 55.488H36.5932C36.4253 52.5881 36.349 50.4207 36.349 49.0165L36.2879 36.8673Z" fill="white"/>
<path d="M54.0385 57.7927C52.843 58.949 51.2449 59.5954 49.5817 59.5954C47.9185 59.5954 46.3204 58.949 45.125 57.7927C43.9416 56.3732 43.3464 54.5546 43.4613 52.7102V36.8673H45.4455V52.7102C45.3431 54.0561 45.7397 55.3926 46.5597 56.4648C46.9417 56.8894 47.4146 57.2224 47.9431 57.4391C48.4716 57.6558 49.0421 57.7506 49.6123 57.7164C50.182 57.7473 50.7516 57.651 51.2796 57.4345C51.8075 57.2181 52.2807 56.8868 52.6648 56.4648C53.473 55.3873 53.8634 54.0534 53.7638 52.7102V36.8673H55.7479V52.7102C55.8502 54.5608 55.2383 56.38 54.0385 57.7927Z" fill="white"/>
<path d="M70.7055 59.3036L65.3483 50.558H62.8909V59.3036H60.8915V36.8672H66.0198C66.8861 36.8099 67.7549 36.9322 68.5717 37.2263C69.3885 37.5205 70.1357 37.9802 70.7666 38.5766C71.3506 39.2358 71.7982 40.004 72.0838 40.8371C72.3693 41.6701 72.4871 42.5515 72.4302 43.4302C72.5276 45.0866 72.1003 46.7316 71.2092 48.1312C70.7843 48.7303 70.2441 49.2386 69.6204 49.6265C68.9967 50.0143 68.3019 50.2739 67.5766 50.3901L73.0865 59.2731L70.7055 59.3036ZM62.8909 38.7293V48.6959H65.9435C66.5584 48.7367 67.1746 48.64 67.7475 48.413C68.3204 48.1859 68.8355 47.8342 69.2556 47.3833C70.0684 46.2842 70.4634 44.9315 70.3697 43.5676C70.3697 40.3319 68.8435 38.7293 65.974 38.7293H62.8909Z" fill="white"/>
<path d="M102.62 59.3037L101.307 54.0533H94.1949L92.8823 59.3037H90.7607L96.6675 36.8673H98.8501L104.787 59.3037H102.62ZM94.6528 52.2523H100.865L98.5601 42.9572C98.2345 41.7158 97.975 40.5406 97.7817 39.4315C97.5985 40.5457 97.3391 41.7209 97.0185 42.9572L94.6528 52.2523Z" fill="white"/>
<path d="M117.166 57.9299C116.604 58.5298 115.919 59.0003 115.157 59.3086C114.395 59.617 113.575 59.7559 112.755 59.7156C111.931 59.7508 111.109 59.6189 110.338 59.3277C109.566 59.0365 108.862 58.5922 108.267 58.0215C107.691 57.4276 107.24 56.7249 106.938 55.9545C106.637 55.184 106.492 54.3612 106.512 53.5342H108.496C108.476 54.1134 108.571 54.6909 108.775 55.2332C108.979 55.7755 109.289 56.2719 109.687 56.6936C110.093 57.076 110.574 57.3709 111.099 57.5599C111.624 57.749 112.182 57.8281 112.739 57.7925C113.298 57.8377 113.861 57.7616 114.387 57.5693C114.914 57.3769 115.393 57.073 115.792 56.6783C116.532 55.8394 116.91 54.7423 116.845 53.6258C116.836 52.6751 116.465 51.7637 115.807 51.0769C115.089 50.2976 114.255 49.6336 113.335 49.108C112.358 48.5585 111.381 47.9785 110.419 47.3833C109.414 46.7961 108.536 46.0123 107.84 45.0786C107.083 44.0165 106.728 42.7204 106.837 41.4208C106.946 40.1213 107.512 38.9025 108.435 37.9813C108.995 37.4597 109.653 37.0559 110.371 36.7937C111.09 36.5315 111.853 36.4163 112.617 36.455C113.39 36.4216 114.161 36.5527 114.879 36.8395C115.598 37.1263 116.247 37.5623 116.784 38.1187C117.872 39.3098 118.49 40.8557 118.524 42.4686H116.54C116.56 41.3453 116.157 40.2556 115.41 39.416C115.057 39.0696 114.636 38.7999 114.174 38.6239C113.712 38.4479 113.218 38.3694 112.724 38.3934C111.693 38.3329 110.68 38.678 109.9 39.355C109.554 39.6889 109.283 40.0935 109.107 40.5411C108.931 40.9888 108.852 41.4692 108.878 41.9497C108.879 42.8945 109.246 43.8022 109.9 44.4833C110.632 45.2545 111.482 45.9038 112.419 46.4064C113.396 46.9406 114.357 47.5054 115.334 48.1006C116.306 48.6931 117.151 49.471 117.822 50.39C118.502 51.3422 118.86 52.4864 118.845 53.6563C118.862 55.245 118.26 56.7781 117.166 57.9299Z" fill="white"/>
<path d="M132.261 57.9299C131.699 58.5298 131.014 59.0003 130.252 59.3086C129.49 59.617 128.671 59.7559 127.85 59.7156C127.026 59.7508 126.204 59.6189 125.433 59.3277C124.662 59.0365 123.957 58.5922 123.363 58.0215C122.781 57.4301 122.324 56.7286 122.017 55.958C121.71 55.1874 121.561 54.3634 121.577 53.5342H123.561C123.541 54.1134 123.635 54.6909 123.84 55.2332C124.044 55.7755 124.354 56.2719 124.752 56.6936C125.158 57.076 125.639 57.3709 126.164 57.5599C126.689 57.749 127.247 57.8281 127.804 57.7925C128.363 57.8377 128.925 57.7616 129.452 57.5693C129.979 57.3769 130.458 57.073 130.857 56.6783C131.596 55.8394 131.975 54.7423 131.91 53.6258C131.837 52.6934 131.418 51.8221 130.735 51.1837C130.016 50.4045 129.182 49.7404 128.262 49.2148C127.285 48.6653 126.308 48.0853 125.347 47.4901C124.386 46.8554 123.561 46.0356 122.92 45.0786C122.163 44.0165 121.808 42.7204 121.917 41.4208C122.026 40.1213 122.592 38.9025 123.515 37.9813C124.075 37.4597 124.733 37.0559 125.451 36.7937C126.17 36.5315 126.934 36.4163 127.697 36.455C128.47 36.4216 129.241 36.5527 129.959 36.8395C130.678 37.1263 131.327 37.5623 131.864 38.1187C132.935 39.3165 133.537 40.8616 133.558 42.4686H131.574C131.594 41.3453 131.191 40.2556 130.445 39.416C130.092 39.0696 129.671 38.7999 129.208 38.6239C128.746 38.4479 128.252 38.3694 127.758 38.3934C126.728 38.3329 125.714 38.678 124.935 39.355C124.588 39.6889 124.318 40.0935 124.141 40.5411C123.965 40.9888 123.887 41.4692 123.912 41.9497C123.913 42.8945 124.28 43.8022 124.935 44.4833C125.656 45.2574 126.496 45.9117 127.423 46.4217C128.399 46.9559 129.361 47.5206 130.338 48.1159C131.309 48.7083 132.155 49.4863 132.826 50.4053C133.506 51.3574 133.864 52.5017 133.848 53.6715C133.887 55.2424 133.318 56.7676 132.261 57.9299Z" fill="white"/>
<path d="M141.418 59.3037V51.2602L135.771 36.8673H137.877L141.082 45.5213C141.235 45.9029 141.449 46.4829 141.739 47.246C142.029 48.0092 142.227 48.6044 142.38 48.986L143.647 45.4908L146.852 36.8673H149.05L143.448 51.2602V59.3037H141.418Z" fill="white"/>
<path d="M154.194 57.4111H162.405V59.3037H152.209V36.8673H154.194V57.4111Z" fill="white"/>
<path d="M64.7833 70.0792C64.5921 70.0818 64.4026 70.0422 64.2284 69.963C64.0542 69.8839 63.8998 69.7672 63.776 69.6213C63.5026 69.3093 63.3557 68.9065 63.3639 68.4918C63.3526 68.0767 63.5 67.6728 63.776 67.3624C63.9654 67.1568 64.2143 67.0154 64.4879 66.9579C64.7615 66.9005 65.0462 66.9298 65.3023 67.0419C65.4737 67.1254 65.6209 67.2515 65.7296 67.4082V65.6224H66.2791V69.9876H65.7449V69.5755C65.6361 69.7322 65.489 69.8583 65.3175 69.9418C65.1512 70.0249 64.9691 70.0717 64.7833 70.0792ZM64.8749 69.5755C65.0026 69.578 65.1291 69.5519 65.2453 69.4991C65.3615 69.4462 65.4645 69.3681 65.5465 69.2702C65.7357 69.0563 65.8343 68.7772 65.8212 68.4918C65.8311 68.207 65.733 67.929 65.5465 67.7134C65.4638 67.6165 65.3607 67.5389 65.2447 67.4861C65.1286 67.4334 65.0024 67.4068 64.8749 67.4082C64.7452 67.4066 64.6167 67.433 64.4981 67.4857C64.3796 67.5384 64.2738 67.6161 64.1881 67.7134C64.0016 67.929 63.9034 68.207 63.9134 68.4918C63.9003 68.7772 63.9988 69.0563 64.1881 69.2702C64.2738 69.3676 64.3796 69.4453 64.4981 69.498C64.6167 69.5506 64.7452 69.5771 64.8749 69.5755Z" fill="white"/>
<path d="M68.477 70.0793C68.275 70.0888 68.0734 70.0541 67.8863 69.9777C67.6991 69.9012 67.5309 69.7848 67.3933 69.6366C67.248 69.4843 67.134 69.3047 67.0581 69.1083C66.9821 68.9119 66.9457 68.7024 66.9507 68.4919C66.9428 68.07 67.0956 67.6608 67.3781 67.3472C67.5103 67.2006 67.6732 67.0849 67.8552 67.0084C68.0373 66.9319 68.2339 66.8964 68.4312 66.9046C68.6296 66.8943 68.8279 66.9272 69.0123 67.001C69.1968 67.0748 69.363 67.1877 69.4996 67.332C69.779 67.6696 69.9207 68.1002 69.8964 68.5377H67.5307C67.5336 68.8003 67.6375 69.0517 67.8207 69.2398C67.909 69.3275 68.0139 69.3969 68.1291 69.4441C68.2443 69.4912 68.3677 69.5152 68.4923 69.5145C68.6702 69.5133 68.8443 69.4627 68.9952 69.3684C69.1461 69.2741 69.2679 69.1398 69.347 68.9803L69.8354 69.2245C69.7108 69.466 69.5203 69.6671 69.2859 69.8045C69.0479 69.9712 68.7673 70.0665 68.477 70.0793ZM67.5765 68.1256H69.2859C69.2819 68.0294 69.2582 67.935 69.2162 67.8484C69.1742 67.7617 69.1148 67.6847 69.0417 67.6219C68.867 67.4753 68.6439 67.3991 68.4159 67.4083C68.2192 67.4045 68.0283 67.4754 67.8817 67.6067C67.7235 67.7395 67.6157 67.9227 67.5765 68.1256Z" fill="white"/>
<path d="M72.8423 69.1634C72.8394 69.2927 72.8061 69.4194 72.7451 69.5334C72.6841 69.6474 72.5972 69.7455 72.4913 69.8197C72.2454 69.9775 71.9593 70.0614 71.6671 70.0614C71.3749 70.0614 71.0888 69.9775 70.8429 69.8197C70.6157 69.6705 70.4441 69.4505 70.3545 69.1939L70.8582 68.9802C70.918 69.1857 71.0408 69.3672 71.2092 69.4992C71.3432 69.5946 71.5027 69.6478 71.6671 69.6518C71.8237 69.6575 71.9782 69.6149 72.1097 69.5297C72.1623 69.5048 72.2071 69.4661 72.2394 69.4177C72.2717 69.3693 72.2901 69.3131 72.2929 69.255C72.2929 69.0565 72.1555 68.9192 71.8502 68.8276L71.3466 68.7055C70.7666 68.5529 70.4766 68.2781 70.4766 67.8661C70.4736 67.739 70.5011 67.613 70.5569 67.4988C70.6127 67.3846 70.695 67.2855 70.7971 67.2097C71.0476 67.0369 71.3479 66.9511 71.6518 66.9655C71.9029 66.9628 72.1502 67.0259 72.3692 67.1487C72.5741 67.2603 72.7354 67.4378 72.8271 67.6524L72.3234 67.8661C72.2659 67.7381 72.1699 67.6314 72.0487 67.5608C71.9107 67.4933 71.7596 67.4569 71.606 67.454C71.4694 67.4549 71.3363 67.4975 71.2245 67.5761C71.172 67.5968 71.1268 67.6324 71.0942 67.6785C71.0617 67.7246 71.0433 67.7792 71.0413 67.8355C71.0413 68.0034 71.2092 68.1255 71.5297 68.2018L71.9724 68.3239C72.5371 68.4003 72.8423 68.7055 72.8423 69.1634Z" fill="white"/>
<path d="M74.1393 65.9583C74.1398 66.0124 74.1292 66.066 74.1082 66.1159C74.0872 66.1658 74.0563 66.2108 74.0172 66.2483C73.9417 66.3159 73.8438 66.3532 73.7425 66.3532C73.6411 66.3532 73.5433 66.3159 73.4677 66.2483C73.4292 66.2121 73.3985 66.1683 73.3775 66.1197C73.3565 66.0712 73.3457 66.0188 73.3457 65.9659C73.3457 65.913 73.3565 65.8607 73.3775 65.8121C73.3985 65.7636 73.4292 65.7198 73.4677 65.6836C73.5231 65.6304 73.5928 65.5944 73.6683 65.58C73.7438 65.5656 73.8218 65.5734 73.8929 65.6025C73.964 65.6316 74.0251 65.6807 74.0689 65.7439C74.1126 65.807 74.1371 65.8815 74.1393 65.9583ZM74.0172 66.9962V70.0488H73.4677V66.9962H74.0172Z" fill="white"/>
<path d="M76.1695 71.4071C76.0121 71.423 75.8536 71.423 75.6963 71.4071C75.5559 71.3655 75.4223 71.3038 75.2995 71.224C75.1809 71.153 75.0772 71.0597 74.9942 70.9493C74.9081 70.8447 74.8409 70.7259 74.7958 70.5982L75.33 70.3693C75.3803 70.5422 75.488 70.6929 75.6353 70.7966C75.7932 70.9016 75.9799 70.9549 76.1695 70.9493C76.3015 70.9552 76.4333 70.9339 76.5568 70.8866C76.6802 70.8394 76.7925 70.7672 76.8868 70.6745C77.0618 70.4661 77.1493 70.1981 77.131 69.9266V69.6366C77.0186 69.79 76.8724 69.9153 76.7037 70.003C76.4385 70.1332 76.1377 70.1725 75.848 70.1145C75.5583 70.0566 75.2957 69.9047 75.1011 69.6824C74.8352 69.3662 74.6894 68.9662 74.6894 68.553C74.6894 68.1398 74.8352 67.7398 75.1011 67.4235C75.2957 67.2013 75.5583 67.0494 75.848 66.9915C76.1377 66.9335 76.4385 66.9727 76.7037 67.103C76.8724 67.1906 77.0186 67.316 77.131 67.4693V67.0572H77.6805V69.9266C77.7075 70.1301 77.6868 70.3371 77.6199 70.5312C77.5531 70.7253 77.4419 70.9012 77.2953 71.0448C77.1486 71.1885 76.9706 71.2961 76.7751 71.3589C76.5797 71.4218 76.3724 71.4383 76.1695 71.4071ZM76.1695 69.5756C76.2971 69.5781 76.4237 69.552 76.5399 69.4992C76.6561 69.4463 76.759 69.3681 76.841 69.2703C77.0303 69.0564 77.1288 68.7772 77.1157 68.4919C77.1257 68.2071 77.0275 67.929 76.841 67.7135C76.759 67.6157 76.6561 67.5375 76.5399 67.4847C76.4237 67.4319 76.2971 67.4058 76.1695 67.4083C76.042 67.4068 75.9158 67.4334 75.7997 67.4862C75.6837 67.5389 75.5806 67.6166 75.4979 67.7135C75.3114 67.929 75.2132 68.2071 75.2232 68.4919C75.2101 68.7772 75.3086 69.0564 75.4979 69.2703C75.5823 69.3693 75.6878 69.4481 75.8066 69.501C75.9255 69.5538 76.0547 69.5793 76.1847 69.5756H76.1695Z" fill="white"/>
<path d="M78.4744 66.9961H79.0086V67.4082C79.1062 67.2532 79.2431 67.1268 79.4054 67.0419C79.5739 66.9502 79.763 66.9029 79.9549 66.9045C80.1085 66.8918 80.2631 66.9125 80.408 66.9652C80.5529 67.0179 80.6847 67.1013 80.7943 67.2098C81.0091 67.4589 81.1186 67.7819 81.0996 68.1103V69.9876H80.5349V68.1408C80.5357 67.9895 80.4894 67.8417 80.4023 67.7179C80.3153 67.5941 80.1918 67.5005 80.0491 67.4502C79.9064 67.3998 79.7516 67.3952 79.6061 67.4369C79.4607 67.4786 79.3318 67.5646 79.2375 67.6829C79.0833 67.8662 79.0018 68.0998 79.0086 68.3392V69.9876H78.4438L78.4744 66.9961Z" fill="white"/>
<path d="M85.6475 69.1634C85.6452 69.2912 85.6137 69.4167 85.5555 69.5304C85.4973 69.6442 85.4139 69.7431 85.3117 69.8197C85.0575 69.9981 84.7522 70.0892 84.4417 70.0792C84.1601 70.0851 83.8833 70.0053 83.6481 69.8503C83.4253 69.6964 83.2549 69.478 83.1597 69.2245L83.6633 69.0108C83.7304 69.1791 83.841 69.3266 83.9839 69.4382C84.1178 69.5336 84.2773 69.5868 84.4417 69.5908C84.6152 69.6192 84.7931 69.5868 84.9454 69.4992C84.998 69.4744 85.0428 69.4357 85.0751 69.3873C85.1074 69.3389 85.1259 69.2826 85.1286 69.2245C85.1286 69.0261 84.9912 68.8887 84.686 68.7971L84.1823 68.675C83.6023 68.5224 83.3123 68.2477 83.3123 67.8356C83.3083 67.7067 83.337 67.5789 83.3957 67.4642C83.4544 67.3494 83.5412 67.2514 83.6481 67.1793C83.8928 67.0065 84.1883 66.9206 84.4875 66.9351C84.7388 66.9301 84.9867 66.9934 85.2049 67.1182C85.4098 67.2299 85.5711 67.4073 85.6628 67.6219L85.1591 67.8356C85.1016 67.7076 85.0056 67.6009 84.8844 67.5303C84.7464 67.4628 84.5953 67.4264 84.4417 67.4235C84.3051 67.4244 84.172 67.467 84.0602 67.5456C84.0077 67.5663 83.9624 67.6019 83.9299 67.648C83.8974 67.6941 83.879 67.7487 83.877 67.805C83.877 67.9729 84.0449 68.095 84.3654 68.1713L84.8233 68.2935C85.0445 68.3094 85.2517 68.4075 85.4042 68.5685C85.5567 68.7295 85.6435 68.9417 85.6475 69.1634Z" fill="white"/>
<path d="M87.4029 70.0336C87.1774 70.0393 86.9585 69.9572 86.7924 69.8046C86.7108 69.7227 86.647 69.6249 86.605 69.5172C86.563 69.4095 86.5436 69.2943 86.5482 69.1788V67.5152H86.0293V66.9962H86.5482V66.0805H87.1129V66.9962H87.8455V67.5152H87.1129V69.0415C87.1026 69.1149 87.1082 69.1897 87.1293 69.2608C87.1504 69.3318 87.1864 69.3976 87.235 69.4536C87.3056 69.5196 87.3979 69.5576 87.4945 69.5604H87.7387L87.9218 70.0641C87.7483 70.0795 87.5734 70.0692 87.4029 70.0336Z" fill="white"/>
<path d="M91.1271 69.9876H90.5928V69.5755C90.4929 69.714 90.3651 69.83 90.2176 69.9159C90.07 70.0019 89.9061 70.056 89.7364 70.0747C89.5667 70.0934 89.3949 70.0763 89.2322 70.0245C89.0695 69.9727 88.9195 69.8873 88.7918 69.774C88.5904 69.5182 88.4875 69.1987 88.5018 68.8734V66.9961H89.0666V68.8429C89.0542 68.9421 89.0646 69.0428 89.097 69.1373C89.1295 69.2318 89.1831 69.3177 89.2537 69.3884C89.3244 69.459 89.4103 69.5126 89.5048 69.5451C89.5993 69.5775 89.7 69.5879 89.7992 69.5755C89.9082 69.5767 90.016 69.5525 90.114 69.5048C90.212 69.4571 90.2976 69.3873 90.3639 69.3008C90.5181 69.1175 90.5996 68.8839 90.5928 68.6445V66.9961H91.1576L91.1271 69.9876Z" fill="white"/>
<path d="M93.1417 70.0792C92.9508 70.0798 92.7619 70.0392 92.5881 69.9602C92.4143 69.8812 92.2595 69.7656 92.1344 69.6213C91.861 69.3094 91.7141 68.9065 91.7223 68.4918C91.711 68.0767 91.8584 67.6728 92.1344 67.3624C92.2595 67.2181 92.4143 67.1025 92.5881 67.0235C92.7619 66.9445 92.9508 66.9039 93.1417 66.9045C93.3484 66.9011 93.5528 66.9482 93.737 67.0419C93.9084 67.1254 94.0556 67.2515 94.1644 67.4082V65.6224H94.7291V69.9876H94.1796V69.5755C94.0709 69.7322 93.9237 69.8583 93.7522 69.9418C93.5634 70.0379 93.3535 70.0852 93.1417 70.0792ZM93.2333 69.5755C93.363 69.5771 93.4916 69.5506 93.6101 69.498C93.7286 69.4453 93.8344 69.3676 93.9201 69.2702C94.1039 69.054 94.1969 68.7751 94.1796 68.4918C94.1953 68.2088 94.1025 67.9305 93.9201 67.7134C93.8344 67.6161 93.7286 67.5384 93.6101 67.4857C93.4916 67.433 93.363 67.4066 93.2333 67.4082C93.1058 67.4068 92.9796 67.4334 92.8636 67.4861C92.7475 67.5389 92.6445 67.6165 92.5617 67.7134C92.3752 67.929 92.2771 68.207 92.287 68.4918C92.274 68.7772 92.3725 69.0563 92.5617 69.2702C92.6445 69.3672 92.7475 69.4448 92.8636 69.4976C92.9796 69.5503 93.1058 69.5769 93.2333 69.5755Z" fill="white"/>
<path d="M96.2554 65.9583C96.2559 66.0124 96.2453 66.066 96.2243 66.1159C96.2033 66.1657 96.1723 66.2108 96.1333 66.2483C96.0974 66.2841 96.0544 66.3121 96.0071 66.3305C95.9598 66.3489 95.9092 66.3573 95.8585 66.3551C95.8055 66.3576 95.7525 66.3494 95.7027 66.3311C95.6529 66.3127 95.6073 66.2846 95.5685 66.2483C95.5315 66.21 95.5028 66.1645 95.4844 66.1146C95.466 66.0646 95.4583 66.0114 95.4617 65.9583C95.4595 65.9076 95.4679 65.857 95.4863 65.8097C95.5047 65.7624 95.5327 65.7194 95.5685 65.6835C95.6238 65.6266 95.6946 65.5874 95.7722 65.5709C95.8497 65.5544 95.9304 65.5613 96.004 65.5907C96.0776 65.6202 96.1408 65.6708 96.1856 65.7363C96.2303 65.8017 96.2546 65.879 96.2554 65.9583ZM96.1333 66.9961V70.0487H95.6296V66.9961H96.1333Z" fill="white"/>
<path d="M96.7743 68.4918C96.7693 68.2813 96.8058 68.0718 96.8817 67.8754C96.9577 67.679 97.0716 67.4995 97.2169 67.3471C97.3593 67.1994 97.53 67.0819 97.7188 67.0016C97.9076 66.9214 98.1107 66.88 98.3159 66.88C98.521 66.88 98.7241 66.9214 98.9129 67.0016C99.1017 67.0819 99.2724 67.1994 99.4148 67.3471C99.7012 67.6595 99.86 68.068 99.86 68.4918C99.86 68.9156 99.7012 69.3241 99.4148 69.6365C99.2724 69.7842 99.1017 69.9017 98.9129 69.982C98.7241 70.0622 98.521 70.1036 98.3159 70.1036C98.1107 70.1036 97.9076 70.0622 97.7188 69.982C97.53 69.9017 97.3593 69.7842 97.2169 69.6365C97.0716 69.4842 96.9577 69.3046 96.8817 69.1082C96.8058 68.9118 96.7693 68.7023 96.7743 68.4918ZM97.3391 68.4918C97.3321 68.6344 97.3542 68.777 97.4041 68.9108C97.4539 69.0446 97.5305 69.1669 97.629 69.2702C97.7148 69.3676 97.8205 69.4452 97.9391 69.4979C98.0576 69.5506 98.1862 69.5771 98.3159 69.5755C98.4479 69.5773 98.5787 69.551 98.6997 69.4983C98.8208 69.4457 98.9293 69.368 99.018 69.2702C99.1888 69.0525 99.2816 68.7838 99.2816 68.5071C99.2816 68.2304 99.1888 67.9616 99.018 67.7439C98.9281 67.6477 98.8194 67.5709 98.6986 67.5184C98.5778 67.4659 98.4476 67.4388 98.3159 67.4387C98.1862 67.4371 98.0576 67.4635 97.9391 67.5162C97.8205 67.5689 97.7148 67.6466 97.629 67.7439C97.4375 67.9452 97.3333 68.214 97.3391 68.4918Z" fill="white"/>
<path d="M1.36629 67.6981H54.7863" stroke="white" stroke-linecap="round"/>
<path d="M109.733 67.6981H163.153" stroke="white" stroke-linecap="round"/>
</svg>
