<svg width="655" height="413" viewBox="0 0 655 413" fill="none" xmlns="http://www.w3.org/2000/svg">
<path d="M0.999878 13.71C0.999878 8.18712 5.47703 3.70996 10.9999 3.70996H177.891C178.628 3.70996 179.363 3.79145 180.082 3.95295L311.752 33.521C317.137 34.7303 320.524 40.0735 319.32 45.4597L248.607 361.784C247.432 367.042 242.302 370.423 237.006 369.431L9.15821 326.739C4.42792 325.852 0.999878 321.722 0.999878 316.91V13.71Z" fill="#3F3232"/>
<path d="M81.5339 175.61H88.1899V176.429H82.4829V179.406H85.4599C86.5345 179.406 87.3492 179.627 87.9039 180.069C88.4672 180.511 88.7489 181.152 88.7489 181.993C88.7489 182.868 88.4455 183.54 87.8389 184.008C87.2409 184.476 86.3785 184.71 85.2519 184.71H81.5339V175.61ZM85.2389 183.943C86.0795 183.943 86.7122 183.783 87.1369 183.462C87.5702 183.141 87.7869 182.665 87.7869 182.032C87.7869 181.408 87.5745 180.944 87.1499 180.641C86.7339 180.329 86.0969 180.173 85.2389 180.173H82.4829V183.943H85.2389ZM93.5792 184.775C92.9205 184.775 92.3269 184.628 91.7982 184.333C91.2695 184.03 90.8535 183.614 90.5502 183.085C90.2469 182.556 90.0952 181.958 90.0952 181.291C90.0952 180.624 90.2469 180.026 90.5502 179.497C90.8535 178.968 91.2695 178.557 91.7982 178.262C92.3269 177.967 92.9205 177.82 93.5792 177.82C94.2379 177.82 94.8315 177.967 95.3602 178.262C95.8889 178.557 96.3005 178.968 96.5952 179.497C96.8985 180.026 97.0502 180.624 97.0502 181.291C97.0502 181.958 96.8985 182.556 96.5952 183.085C96.3005 183.614 95.8889 184.03 95.3602 184.333C94.8315 184.628 94.2379 184.775 93.5792 184.775ZM93.5792 183.956C94.0645 183.956 94.4979 183.848 94.8792 183.631C95.2692 183.406 95.5725 183.089 95.7892 182.682C96.0059 182.275 96.1142 181.811 96.1142 181.291C96.1142 180.771 96.0059 180.307 95.7892 179.9C95.5725 179.493 95.2692 179.181 94.8792 178.964C94.4979 178.739 94.0645 178.626 93.5792 178.626C93.0939 178.626 92.6562 178.739 92.2662 178.964C91.8849 179.181 91.5815 179.493 91.3562 179.9C91.1395 180.307 91.0312 180.771 91.0312 181.291C91.0312 181.811 91.1395 182.275 91.3562 182.682C91.5815 183.089 91.8849 183.406 92.2662 183.631C92.6562 183.848 93.0939 183.956 93.5792 183.956ZM103.579 178.691H100.992V184.71H100.069V178.691H97.4819V177.872H103.579V178.691ZM107.266 177.82C108.159 177.82 108.844 178.045 109.32 178.496C109.797 178.938 110.035 179.597 110.035 180.472V184.71H109.151V183.644C108.943 183.999 108.636 184.277 108.228 184.476C107.83 184.675 107.353 184.775 106.798 184.775C106.036 184.775 105.429 184.593 104.978 184.229C104.528 183.865 104.302 183.384 104.302 182.786C104.302 182.205 104.51 181.737 104.926 181.382C105.351 181.027 106.023 180.849 106.941 180.849H109.112V180.433C109.112 179.844 108.948 179.397 108.618 179.094C108.289 178.782 107.808 178.626 107.175 178.626C106.742 178.626 106.326 178.7 105.927 178.847C105.529 178.986 105.186 179.181 104.9 179.432L104.484 178.743C104.831 178.448 105.247 178.223 105.732 178.067C106.218 177.902 106.729 177.82 107.266 177.82ZM106.941 184.047C107.461 184.047 107.908 183.93 108.28 183.696C108.653 183.453 108.93 183.107 109.112 182.656V181.538H106.967C105.797 181.538 105.212 181.945 105.212 182.76C105.212 183.159 105.364 183.475 105.667 183.709C105.971 183.934 106.395 184.047 106.941 184.047ZM112.493 177.872H113.416V180.901H117.719V177.872H118.642V184.71H117.719V181.694H113.416V184.71H112.493V177.872ZM121.265 177.872H122.188V183.306L126.751 177.872H127.57V184.71H126.647V179.276L122.097 184.71H121.265V177.872ZM135.376 177.872V184.71H134.453V181.863C133.665 182.21 132.889 182.383 132.126 182.383C131.303 182.383 130.662 182.197 130.202 181.824C129.743 181.443 129.513 180.875 129.513 180.121V177.872H130.436V180.069C130.436 180.58 130.601 180.97 130.93 181.239C131.26 181.499 131.715 181.629 132.295 181.629C132.937 181.629 133.656 181.46 134.453 181.122V177.872H135.376ZM143.977 181.577H138.257C138.309 182.288 138.582 182.864 139.076 183.306C139.57 183.739 140.194 183.956 140.948 183.956C141.373 183.956 141.763 183.882 142.118 183.735C142.474 183.579 142.781 183.354 143.041 183.059L143.561 183.657C143.258 184.021 142.877 184.298 142.417 184.489C141.967 184.68 141.468 184.775 140.922 184.775C140.22 184.775 139.596 184.628 139.05 184.333C138.513 184.03 138.093 183.614 137.789 183.085C137.486 182.556 137.334 181.958 137.334 181.291C137.334 180.624 137.477 180.026 137.763 179.497C138.058 178.968 138.457 178.557 138.959 178.262C139.471 177.967 140.043 177.82 140.675 177.82C141.308 177.82 141.876 177.967 142.378 178.262C142.881 178.557 143.275 178.968 143.561 179.497C143.847 180.017 143.99 180.615 143.99 181.291L143.977 181.577ZM140.675 178.613C140.017 178.613 139.462 178.825 139.011 179.25C138.569 179.666 138.318 180.212 138.257 180.888H143.106C143.046 180.212 142.79 179.666 142.339 179.25C141.897 178.825 141.343 178.613 140.675 178.613ZM148.894 184.775C148.218 184.775 147.611 184.628 147.074 184.333C146.545 184.038 146.129 183.627 145.826 183.098C145.522 182.561 145.371 181.958 145.371 181.291C145.371 180.624 145.522 180.026 145.826 179.497C146.129 178.968 146.545 178.557 147.074 178.262C147.611 177.967 148.218 177.82 148.894 177.82C149.483 177.82 150.007 177.937 150.467 178.171C150.935 178.396 151.303 178.73 151.572 179.172L150.883 179.64C150.657 179.302 150.371 179.051 150.025 178.886C149.678 178.713 149.301 178.626 148.894 178.626C148.4 178.626 147.953 178.739 147.555 178.964C147.165 179.181 146.857 179.493 146.632 179.9C146.415 180.307 146.307 180.771 146.307 181.291C146.307 181.82 146.415 182.288 146.632 182.695C146.857 183.094 147.165 183.406 147.555 183.631C147.953 183.848 148.4 183.956 148.894 183.956C149.301 183.956 149.678 183.874 150.025 183.709C150.371 183.544 150.657 183.293 150.883 182.955L151.572 183.423C151.303 183.865 150.935 184.203 150.467 184.437C149.999 184.662 149.474 184.775 148.894 184.775ZM155.842 181.668H154.282V184.71H153.359V177.872H154.282V180.875H155.855L158.26 177.872H159.261L156.57 181.187L159.456 184.71H158.364L155.842 181.668ZM160.912 177.872H161.835V183.306L166.398 177.872H167.217V184.71H166.294V179.276L161.744 184.71H160.912V177.872ZM169.863 177.872H170.786V183.306L175.349 177.872H176.168V184.71H175.245V179.276L170.695 184.71H169.863V177.872ZM172.97 176.884C172.38 176.884 171.912 176.737 171.566 176.442C171.219 176.147 171.041 175.731 171.033 175.194H171.696C171.704 175.532 171.826 175.805 172.06 176.013C172.294 176.212 172.597 176.312 172.97 176.312C173.342 176.312 173.646 176.212 173.88 176.013C174.122 175.805 174.248 175.532 174.257 175.194H174.92C174.911 175.731 174.729 176.147 174.374 176.442C174.027 176.737 173.559 176.884 172.97 176.884ZM185.075 184.775C184.399 184.775 183.793 184.628 183.255 184.333C182.727 184.038 182.311 183.627 182.007 183.098C181.704 182.561 181.552 181.958 181.552 181.291C181.552 180.624 181.704 180.026 182.007 179.497C182.311 178.968 182.727 178.557 183.255 178.262C183.793 177.967 184.399 177.82 185.075 177.82C185.665 177.82 186.189 177.937 186.648 178.171C187.116 178.396 187.485 178.73 187.753 179.172L187.064 179.64C186.839 179.302 186.553 179.051 186.206 178.886C185.86 178.713 185.483 178.626 185.075 178.626C184.581 178.626 184.135 178.739 183.736 178.964C183.346 179.181 183.039 179.493 182.813 179.9C182.597 180.307 182.488 180.771 182.488 181.291C182.488 181.82 182.597 182.288 182.813 182.695C183.039 183.094 183.346 183.406 183.736 183.631C184.135 183.848 184.581 183.956 185.075 183.956C185.483 183.956 185.86 183.874 186.206 183.709C186.553 183.544 186.839 183.293 187.064 182.955L187.753 183.423C187.485 183.865 187.116 184.203 186.648 184.437C186.18 184.662 185.656 184.775 185.075 184.775ZM191.893 177.82C192.786 177.82 193.471 178.045 193.947 178.496C194.424 178.938 194.662 179.597 194.662 180.472V184.71H193.778V183.644C193.57 183.999 193.263 184.277 192.855 184.476C192.457 184.675 191.98 184.775 191.425 184.775C190.663 184.775 190.056 184.593 189.605 184.229C189.155 183.865 188.929 183.384 188.929 182.786C188.929 182.205 189.137 181.737 189.553 181.382C189.978 181.027 190.65 180.849 191.568 180.849H193.739V180.433C193.739 179.844 193.575 179.397 193.245 179.094C192.916 178.782 192.435 178.626 191.802 178.626C191.369 178.626 190.953 178.7 190.554 178.847C190.156 178.986 189.813 179.181 189.527 179.432L189.111 178.743C189.458 178.448 189.874 178.223 190.359 178.067C190.845 177.902 191.356 177.82 191.893 177.82ZM191.568 184.047C192.088 184.047 192.535 183.93 192.907 183.696C193.28 183.453 193.557 183.107 193.739 182.656V181.538H191.594C190.424 181.538 189.839 181.945 189.839 182.76C189.839 183.159 189.991 183.475 190.294 183.709C190.598 183.934 191.022 184.047 191.568 184.047ZM203.789 183.904V186.361H202.918V184.71H196.795V186.361H195.924V183.904H196.314C196.773 183.878 197.085 183.54 197.25 182.89C197.414 182.24 197.527 181.33 197.588 180.16L197.679 177.872H202.723V183.904H203.789ZM198.433 180.212C198.389 181.183 198.307 181.984 198.186 182.617C198.064 183.241 197.848 183.67 197.536 183.904H201.8V178.691H198.511L198.433 180.212Z" fill="#F9F0EE"/>
<line x1="341.636" y1="10.8992" x2="252.189" y2="404.074" stroke="#3F3232" stroke-width="7" stroke-linecap="round"/>
<line x1="616.808" y1="89.3421" x2="273.632" y2="10.9019" stroke="#3F3232" stroke-width="7" stroke-linecap="round"/>
<line x1="377.904" y1="409.489" x2="3.77871" y2="337.806" stroke="#3F3232" stroke-width="7" stroke-linecap="round"/>
<path d="M651.481 8.06787C651.481 8.06787 554.5 263.71 550.5 274.71C546.5 285.71 536 337.21 539 341.71C542 346.21 608.5 406.71 608.5 406.71" stroke="#3F3232" stroke-width="7" stroke-linecap="round"/>
<line x1="541.577" y1="344.936" x2="527.226" y2="404.133" stroke="#3F3232" stroke-width="7" stroke-linecap="round"/>
<path d="M309.145 188.321L299.378 186.176L295.088 205.71L304.855 207.855L309.145 188.321ZM498.366 250.355C503.761 251.54 509.094 248.128 510.279 242.733C511.464 237.339 508.051 232.006 502.657 230.821L498.366 250.355ZM304.855 207.855L498.366 250.355L502.657 230.821L309.145 188.321L304.855 207.855Z" fill="#3F3232"/>
<path d="M282.802 325.695L282.312 327.854L287.894 329.121L287.748 329.762L282.166 328.494L281.676 330.653L281.114 330.526L282.24 325.567L282.802 325.695ZM288.994 324.399L290.67 324.78L290.529 325.403L288.852 325.022L283.743 326.022L283.893 325.363L288.215 324.536L284.68 321.897L284.819 321.282L288.994 324.399ZM285.543 317.934C285.641 317.501 285.83 317.132 286.109 316.826C286.381 316.519 286.719 316.306 287.121 316.188C287.523 316.07 287.952 316.063 288.409 316.167C288.871 316.272 289.258 316.464 289.57 316.744C289.881 317.024 290.097 317.362 290.216 317.759C290.331 318.148 290.338 318.562 290.238 319C290.153 319.375 290 319.697 289.779 319.967C289.553 320.229 289.269 320.423 288.927 320.548L291.499 321.132L291.357 321.756L285.038 320.32L285.173 319.724L286.086 319.931C285.825 319.675 285.646 319.376 285.552 319.034C285.458 318.687 285.455 318.32 285.543 317.934ZM289.676 318.919C289.749 318.597 289.742 318.288 289.655 317.991C289.563 317.693 289.396 317.44 289.154 317.231C288.914 317.017 288.618 316.87 288.267 316.79C287.916 316.71 287.589 316.716 287.285 316.807C286.977 316.891 286.717 317.047 286.505 317.276C286.293 317.504 286.15 317.78 286.077 318.102C286.003 318.429 286.012 318.742 286.104 319.04C286.198 319.332 286.365 319.585 286.605 319.8C286.841 320.007 287.135 320.151 287.486 320.23C287.837 320.31 288.166 320.308 288.475 320.224C288.784 320.135 289.044 319.978 289.255 319.755C289.461 319.525 289.601 319.246 289.676 318.919ZM289.348 313.209L289.109 314.263L291.162 314.729L291.021 315.352L286.404 314.304L286.546 313.681L288.573 314.141L288.815 313.079L287.156 310.995L287.309 310.319L289.135 312.644L291.956 311.236L291.788 311.973L289.348 313.209ZM287.563 309.204L287.704 308.581L292.321 309.629L292.179 310.253L287.563 309.204ZM286.625 308.659C286.596 308.788 286.527 308.886 286.42 308.954C286.312 309.022 286.197 309.042 286.074 309.014C285.957 308.987 285.864 308.92 285.797 308.812C285.729 308.705 285.709 308.586 285.739 308.458C285.768 308.329 285.836 308.231 285.944 308.163C286.046 308.094 286.155 308.072 286.272 308.099C286.401 308.128 286.499 308.197 286.567 308.304C286.635 308.412 286.654 308.53 286.625 308.659ZM293.207 305.932C293.103 306.388 292.91 306.775 292.629 307.093C292.349 307.405 292.007 307.622 291.604 307.746C291.195 307.868 290.765 307.878 290.314 307.776C289.864 307.674 289.483 307.48 289.173 307.194C288.862 306.908 288.648 306.564 288.53 306.162C288.414 305.754 288.407 305.322 288.511 304.866C288.601 304.468 288.761 304.132 288.989 303.857C289.213 303.576 289.495 303.378 289.834 303.265L290.045 303.802C289.782 303.902 289.568 304.057 289.404 304.265C289.234 304.473 289.118 304.714 289.055 304.989C288.979 305.323 288.987 305.641 289.078 305.945C289.165 306.241 289.328 306.497 289.568 306.712C289.81 306.92 290.107 307.065 290.458 307.144C290.815 307.225 291.147 307.224 291.455 307.14C291.759 307.049 292.017 306.889 292.229 306.661C292.436 306.425 292.578 306.14 292.654 305.806C292.716 305.531 292.718 305.264 292.66 305.005C292.602 304.746 292.476 304.514 292.283 304.31L292.704 303.917C292.962 304.166 293.133 304.466 293.22 304.818C293.3 305.169 293.296 305.54 293.207 305.932ZM290.502 298.823L290.105 300.569L294.169 301.492L294.027 302.116L289.964 301.193L289.567 302.939L289.014 302.814L289.949 298.697L290.502 298.823ZM290.479 296.2C290.616 295.597 290.873 295.17 291.251 294.917C291.622 294.663 292.103 294.603 292.694 294.737L295.555 295.387L295.42 295.984L294.7 295.82C294.908 296.015 295.048 296.265 295.12 296.571C295.194 296.871 295.188 297.208 295.103 297.582C294.986 298.097 294.77 298.479 294.455 298.727C294.14 298.976 293.781 299.054 293.377 298.962C292.985 298.873 292.701 298.661 292.525 298.326C292.35 297.985 292.333 297.504 292.474 296.884L292.807 295.418L292.526 295.354C292.128 295.264 291.802 295.307 291.547 295.482C291.285 295.657 291.106 295.958 291.009 296.385C290.943 296.677 290.929 296.97 290.967 297.261C291 297.552 291.079 297.813 291.205 298.044L290.676 298.22C290.53 297.94 290.442 297.625 290.411 297.273C290.374 296.92 290.397 296.563 290.479 296.2ZM294.633 297.374C294.713 297.023 294.702 296.704 294.602 296.416C294.495 296.127 294.303 295.887 294.027 295.695L293.272 295.524L292.943 296.972C292.764 297.762 292.949 298.219 293.499 298.344C293.768 298.405 294.005 298.351 294.21 298.182C294.408 298.012 294.55 297.743 294.633 297.374ZM291.316 292.68L291.457 292.057L293.502 292.521L294.162 289.616L292.117 289.152L292.258 288.528L296.875 289.577L296.733 290.2L294.697 289.738L294.037 292.643L296.074 293.105L295.932 293.728L291.316 292.68Z" fill="white"/>
<path d="M331.809 228.846L328.377 228.107L327.284 229.593L326.606 229.447L330.749 223.895L331.391 224.033L332.879 230.798L332.193 230.65L331.809 228.846ZM331.685 228.267L330.92 224.64L328.729 227.63L331.685 228.267ZM338.708 227.212L337.71 231.839L337.086 231.705L337.964 227.631L335.746 227.153L335.438 228.284C335.184 229.236 334.913 229.951 334.626 230.429C334.339 230.907 333.97 231.098 333.518 231C333.395 230.974 333.25 230.918 333.085 230.833L333.244 230.306C333.345 230.352 333.415 230.38 333.457 230.389C333.697 230.441 333.903 230.368 334.074 230.172C334.245 229.976 334.387 229.718 334.499 229.398C334.61 229.078 334.739 228.652 334.885 228.119L335.32 226.482L338.708 227.212ZM344.267 228.409L343.269 233.037L342.645 232.903L343.522 228.829L341.305 228.351L340.997 229.482C340.743 230.434 340.472 231.149 340.185 231.627C339.898 232.105 339.529 232.296 339.077 232.198C338.954 232.172 338.809 232.116 338.643 232.031L338.803 231.504C338.904 231.55 338.974 231.578 339.015 231.587C339.256 231.638 339.462 231.566 339.633 231.37C339.804 231.173 339.946 230.915 340.058 230.596C340.169 230.276 340.298 229.85 340.444 229.316L340.879 227.68L344.267 228.409ZM349.549 232.172L345.678 231.337C345.61 231.826 345.71 232.256 345.98 232.627C346.251 232.992 346.642 233.23 347.152 233.34C347.44 233.402 347.714 233.409 347.976 233.361C348.24 233.307 348.481 233.2 348.7 233.038L348.964 233.519C348.706 233.721 348.407 233.853 348.069 233.915C347.736 233.978 347.385 233.97 347.015 233.89C346.54 233.788 346.139 233.597 345.813 233.318C345.493 233.035 345.27 232.692 345.141 232.29C345.013 231.888 344.998 231.461 345.095 231.009C345.192 230.558 345.376 230.174 345.647 229.858C345.923 229.543 346.253 229.322 346.636 229.196C347.026 229.071 347.434 229.055 347.862 229.147C348.29 229.24 348.653 229.422 348.95 229.695C349.248 229.968 349.454 230.304 349.571 230.703C349.689 231.097 349.698 231.522 349.6 231.98L349.549 232.172ZM347.747 229.684C347.301 229.588 346.895 229.651 346.528 229.873C346.168 230.09 345.918 230.422 345.778 230.871L349.06 231.578C349.118 231.112 349.024 230.705 348.78 230.358C348.543 230.006 348.198 229.781 347.747 229.684ZM354.907 230.702L353.909 235.33L353.337 235.207L353.667 233.676L352.216 233.363L352.04 233.325L350.636 234.625L349.959 234.479L351.46 233.108C351.124 232.931 350.885 232.702 350.743 232.42C350.602 232.137 350.57 231.812 350.65 231.442C350.761 230.926 351.022 230.571 351.432 230.377C351.842 230.183 352.352 230.152 352.962 230.283L354.907 230.702ZM351.28 231.596C351.132 232.282 351.495 232.72 352.369 232.908L353.768 233.209L354.215 231.133L352.86 230.841C351.957 230.647 351.43 230.898 351.28 231.596ZM359.039 229.991L359.593 230.11L359.048 232.423L358.582 232.323L359.039 229.991ZM360.543 230.315L361.097 230.434L360.553 232.747L360.087 232.647L360.543 230.315ZM367.591 231.833L363.676 236.413C363.397 236.739 363.103 236.964 362.794 237.088C362.492 237.207 362.183 237.232 361.866 237.164C361.632 237.114 361.392 237.004 361.146 236.834L361.444 236.346C361.638 236.474 361.822 236.556 361.998 236.594C362.403 236.681 362.782 236.533 363.135 236.149L363.375 235.887L361.898 230.607L362.593 230.757L363.842 235.389L366.94 231.693L367.591 231.833ZM371.726 234.326L370.729 238.954L370.104 238.82L370.982 234.746L368.765 234.268L368.457 235.399C368.203 236.351 367.932 237.066 367.645 237.544C367.358 238.022 366.988 238.213 366.537 238.115C366.413 238.089 366.269 238.033 366.103 237.948L366.263 237.421C366.363 237.467 366.434 237.495 366.475 237.504C366.716 237.555 366.921 237.483 367.093 237.287C367.264 237.09 367.405 236.832 367.517 236.513C367.629 236.193 367.758 235.767 367.903 235.233L368.339 233.597L371.726 234.326ZM375.094 236.764C375.673 236.895 376.088 237.12 376.339 237.438C376.589 237.756 376.664 238.152 376.561 238.627C376.455 239.12 376.209 239.463 375.824 239.656C375.439 239.849 374.942 239.877 374.333 239.74L372.505 239.337L373.502 234.709L374.127 234.844L373.778 236.463L375.094 236.764ZM378.007 235.68L378.631 235.814L377.634 240.442L377.009 240.307L378.007 235.68ZM374.4 239.257C374.827 239.355 375.168 239.34 375.423 239.211C375.685 239.077 375.853 238.837 375.928 238.491C376.001 238.151 375.947 237.875 375.765 237.664C375.584 237.453 375.276 237.298 374.844 237.199L373.677 236.929L373.234 238.988L374.4 239.257ZM383.546 237.453L381.795 237.076L380.917 241.15L380.292 241.015L381.17 236.941L379.419 236.564L379.539 236.01L383.665 236.899L383.546 237.453ZM386.168 237.402C386.772 237.532 387.203 237.784 387.46 238.159C387.718 238.527 387.783 239.008 387.655 239.6L387.037 242.468L386.439 242.339L386.595 241.618C386.402 241.828 386.153 241.971 385.849 242.046C385.55 242.123 385.213 242.121 384.837 242.04C384.321 241.929 383.937 241.717 383.685 241.405C383.433 241.093 383.351 240.735 383.438 240.33C383.523 239.937 383.732 239.651 384.065 239.471C384.404 239.292 384.885 239.27 385.507 239.404L386.976 239.721L387.037 239.439C387.122 239.04 387.076 238.714 386.897 238.461C386.72 238.202 386.417 238.026 385.989 237.934C385.696 237.871 385.404 237.86 385.112 237.901C384.822 237.937 384.562 238.019 384.332 238.148L384.151 237.621C384.428 237.472 384.743 237.38 385.094 237.345C385.447 237.304 385.805 237.323 386.168 237.402ZM385.04 241.568C385.392 241.644 385.711 241.63 385.998 241.526C386.285 241.416 386.523 241.222 386.712 240.944L386.875 240.187L385.424 239.874C384.632 239.704 384.177 239.894 384.058 240.445C384 240.715 384.056 240.951 384.227 241.154C384.4 241.351 384.671 241.489 385.04 241.568ZM393.63 239.046L390.2 243.73C389.919 244.123 389.635 244.385 389.35 244.513C389.064 244.642 388.748 244.669 388.402 244.595C388.179 244.547 387.979 244.466 387.8 244.354C387.622 244.242 387.478 244.101 387.367 243.93L387.758 243.526C387.942 243.811 388.198 243.989 388.527 244.06C388.738 244.105 388.929 244.085 389.101 243.999C389.279 243.915 389.463 243.746 389.653 243.492L389.952 243.087L388.879 238.023L389.53 238.163L390.425 242.471L393.014 238.914L393.63 239.046ZM394.652 237.665L395.206 237.784L394.662 240.097L394.195 239.997L394.652 237.665ZM396.156 237.989L396.711 238.108L396.166 240.421L395.7 240.321L396.156 237.989Z" fill="white"/>
<path d="M581.22 221.888C581.427 221.337 581.739 220.871 582.157 220.489C582.576 220.108 583.065 219.862 583.625 219.751C584.182 219.633 584.761 219.686 585.362 219.912C585.952 220.132 586.426 220.467 586.784 220.915C587.136 221.36 587.35 221.867 587.426 222.433C587.504 222.994 587.439 223.553 587.231 224.109C587.023 224.666 586.709 225.128 586.289 225.496C585.864 225.862 585.373 226.095 584.817 226.194C584.261 226.293 583.693 226.235 583.114 226.018C583.013 225.98 582.915 225.934 582.82 225.879L584.853 220.451C584.403 220.334 583.971 220.333 583.557 220.447C583.145 220.555 582.784 220.756 582.476 221.051C582.161 221.343 581.926 221.697 581.77 222.113C581.644 222.45 581.582 222.805 581.583 223.177C581.579 223.547 581.646 223.924 581.784 224.309L581.212 224.604C581.045 224.144 580.965 223.682 580.973 223.217C580.98 222.752 581.063 222.309 581.22 221.888ZM586.683 223.904C586.843 223.477 586.895 223.048 586.838 222.617C586.779 222.178 586.618 221.785 586.358 221.437C586.093 221.082 585.747 220.808 585.32 220.616L583.511 225.446C583.964 225.59 584.405 225.617 584.835 225.528C585.26 225.438 585.634 225.251 585.958 224.968C586.282 224.686 586.523 224.331 586.683 223.904ZM585.706 214.528L590.139 216.188L589.915 216.786L586.013 215.325L585.218 217.449L586.291 217.918C587.196 218.308 587.864 218.68 588.295 219.034C588.727 219.388 588.861 219.781 588.699 220.214C588.655 220.332 588.579 220.466 588.471 220.618L587.973 220.383C588.033 220.291 588.071 220.225 588.085 220.185C588.171 219.955 588.13 219.741 587.961 219.543C587.791 219.345 587.557 219.167 587.257 219.01C586.957 218.853 586.554 218.664 586.047 218.442L584.491 217.773L585.706 214.528ZM586.343 212.827L586.567 212.228L590.09 213.547L587.675 209.27L587.874 208.739L592.307 210.399L592.083 210.997L588.56 209.678L590.978 213.947L590.776 214.487L586.343 212.827ZM593.987 205.911L591.606 206.624L592.93 208.734L592.678 209.409L591.058 206.803L588.276 207.664L588.528 206.99L590.763 206.309L589.526 204.327L589.772 203.669L591.305 206.146L594.243 205.228L593.987 205.911ZM590.684 201.131C590.9 200.553 591.213 200.163 591.62 199.964C592.023 199.762 592.508 199.767 593.075 199.98L595.823 201.009L595.608 201.582L594.917 201.323C595.097 201.544 595.202 201.811 595.232 202.124C595.265 202.43 595.214 202.764 595.079 203.123C594.894 203.618 594.629 203.967 594.283 204.171C593.938 204.375 593.571 204.404 593.184 204.259C592.807 204.118 592.554 203.869 592.425 203.513C592.298 203.152 592.345 202.673 592.568 202.077L593.096 200.67L592.826 200.569C592.444 200.426 592.114 200.424 591.838 200.564C591.556 200.702 591.338 200.976 591.184 201.386C591.079 201.667 591.026 201.955 591.024 202.249C591.017 202.541 591.061 202.81 591.154 203.057L590.607 203.159C590.5 202.863 590.455 202.539 590.471 202.186C590.482 201.831 590.553 201.48 590.684 201.131ZM594.642 202.854C594.768 202.517 594.801 202.199 594.739 201.9C594.673 201.6 594.515 201.336 594.267 201.109L593.542 200.837L593.022 202.228C592.737 202.986 592.86 203.465 593.388 203.662C593.646 203.759 593.888 203.738 594.113 203.598C594.333 203.456 594.509 203.208 594.642 202.854ZM591.986 197.756L592.21 197.157L594.174 197.893L595.218 195.103L593.255 194.367L593.479 193.769L597.912 195.429L597.688 196.027L595.733 195.295L594.688 198.085L596.643 198.817L596.419 199.416L591.986 197.756ZM593.529 189.17L595.144 184.854L595.675 185.053L594.29 188.753L596.22 189.476L596.943 187.546C597.204 186.849 597.545 186.375 597.966 186.122C598.389 185.864 598.873 185.837 599.419 186.041C599.986 186.254 600.348 186.614 600.504 187.121C600.662 187.622 600.605 188.238 600.331 188.968L599.429 191.379L593.529 189.17ZM599.831 188.791C600.035 188.246 600.084 187.796 599.98 187.443C599.877 187.084 599.62 186.828 599.21 186.675C598.806 186.523 598.454 186.548 598.154 186.75C597.85 186.944 597.595 187.319 597.386 187.875L596.717 189.662L599.162 190.577L599.831 188.791ZM597.901 181.855C598.065 181.416 598.308 181.059 598.63 180.782C598.951 180.505 599.32 180.332 599.737 180.264C600.155 180.19 600.581 180.234 601.013 180.396C601.446 180.558 601.796 180.805 602.063 181.135C602.332 181.46 602.5 181.834 602.566 182.256C602.626 182.676 602.575 183.105 602.411 183.543C602.247 183.981 602.003 184.342 601.679 184.624C601.352 184.899 600.98 185.07 600.564 185.139C600.147 185.207 599.723 185.16 599.29 184.998C598.858 184.836 598.507 184.593 598.238 184.268C597.968 183.943 597.804 183.57 597.743 183.15C597.684 182.725 597.737 182.293 597.901 181.855ZM598.382 182.034C598.207 182.501 598.203 182.948 598.37 183.375C598.533 183.795 598.839 184.115 599.289 184.335L600.576 180.896C600.091 180.772 599.649 180.814 599.25 181.024C598.846 181.231 598.556 181.568 598.382 182.034ZM601.922 183.36C602.096 182.894 602.099 182.449 601.931 182.027C601.764 181.6 601.456 181.276 601.006 181.057L599.719 184.496C600.202 184.625 600.646 184.586 601.05 184.379C601.457 184.166 601.747 183.826 601.922 183.36ZM602.339 177.601L601.96 178.612L603.932 179.351L603.708 179.949L599.275 178.289L599.499 177.691L601.446 178.42L601.828 177.4L600.464 175.112L600.707 174.463L602.203 177.012L605.188 175.996L604.923 176.704L602.339 177.601ZM604.904 170.571L603.515 174.279C603.988 174.418 604.428 174.381 604.835 174.168C605.236 173.953 605.528 173.601 605.711 173.112C605.814 172.837 605.861 172.566 605.852 172.3C605.837 172.032 605.765 171.777 605.637 171.537L606.151 171.345C606.314 171.63 606.401 171.945 606.413 172.289C606.427 172.627 606.368 172.974 606.235 173.328C606.065 173.783 605.818 174.152 605.494 174.434C605.167 174.709 604.796 174.88 604.379 174.949C603.963 175.017 603.538 174.97 603.106 174.808C602.673 174.646 602.32 174.408 602.047 174.095C601.775 173.775 601.605 173.417 601.536 173.019C601.469 172.616 601.513 172.21 601.666 171.799C601.82 171.389 602.053 171.057 602.366 170.803C602.679 170.548 603.042 170.393 603.454 170.335C603.861 170.276 604.283 170.329 604.721 170.493L604.904 170.571ZM602.18 171.992C602.02 172.419 602.024 172.83 602.189 173.225C602.352 173.613 602.645 173.908 603.068 174.112L604.246 170.968C603.793 170.843 603.376 170.877 602.997 171.068C602.615 171.251 602.342 171.559 602.18 171.992ZM603.001 168.338L603.225 167.74L606.748 169.059L604.332 164.781L604.531 164.25L608.965 165.91L608.741 166.509L605.218 165.19L607.636 169.459L607.434 169.998L603.001 168.338ZM603.114 166.084C602.971 166.466 602.762 166.734 602.487 166.887C602.212 167.04 601.899 167.054 601.548 166.929L601.709 166.5C601.931 166.576 602.137 166.564 602.329 166.462C602.515 166.359 602.653 166.187 602.744 165.945C602.834 165.703 602.843 165.483 602.771 165.282C602.695 165.075 602.548 164.927 602.331 164.839L602.492 164.409C602.838 164.545 603.064 164.764 603.169 165.066C603.276 165.363 603.257 165.702 603.114 166.084ZM610.645 161.422L608.264 162.136L609.588 164.246L609.335 164.92L607.716 162.315L604.934 163.176L605.186 162.502L607.421 161.82L606.183 159.838L606.429 159.181L607.962 161.657L610.901 160.74L610.645 161.422ZM607.341 156.643C607.558 156.064 607.87 155.675 608.278 155.475C608.68 155.274 609.165 155.279 609.733 155.491L612.481 156.52L612.266 157.093L611.575 156.835C611.755 157.056 611.86 157.322 611.89 157.635C611.923 157.942 611.872 158.275 611.737 158.635C611.552 159.129 611.287 159.478 610.941 159.682C610.596 159.886 610.229 159.915 609.841 159.77C609.465 159.629 609.212 159.381 609.083 159.025C608.955 158.663 609.003 158.185 609.226 157.589L609.753 156.181L609.484 156.08C609.101 155.937 608.772 155.936 608.495 156.076C608.213 156.213 607.995 156.487 607.842 156.898C607.737 157.178 607.683 157.466 607.682 157.76C607.675 158.052 607.719 158.322 607.812 158.568L607.264 158.671C607.157 158.374 607.112 158.05 607.129 157.697C607.14 157.343 607.211 156.991 607.341 156.643ZM611.3 158.365C611.426 158.028 611.458 157.71 611.397 157.412C611.33 157.111 611.173 156.847 610.925 156.62L610.2 156.349L609.679 157.739C609.395 158.498 609.517 158.976 610.046 159.174C610.304 159.271 610.546 159.249 610.771 159.109C610.991 158.967 611.167 158.719 611.3 158.365ZM608.644 153.267L608.868 152.669L610.832 153.404L611.876 150.614L609.912 149.879L610.136 149.28L614.57 150.94L614.346 151.539L612.39 150.807L611.346 153.597L613.301 154.329L613.077 154.927L608.644 153.267Z" fill="white"/>
<path d="M389.81 110.16H384.285L383.231 112.71H380.409L385.713 100.81H388.433L393.754 112.71H390.864L389.81 110.16ZM388.943 108.069L387.056 103.513L385.169 108.069H388.943ZM394.802 103.564H397.454V112.71H394.802V103.564ZM396.128 102.289C395.641 102.289 395.244 102.147 394.938 101.864C394.632 101.581 394.479 101.229 394.479 100.81C394.479 100.391 394.632 100.039 394.938 99.756C395.244 99.4726 395.641 99.331 396.128 99.331C396.615 99.331 397.012 99.467 397.318 99.739C397.624 100.011 397.777 100.351 397.777 100.759C397.777 101.201 397.624 101.569 397.318 101.864C397.012 102.147 396.615 102.289 396.128 102.289ZM405.474 103.428C406.608 103.428 407.52 103.768 408.211 104.448C408.914 105.128 409.265 106.137 409.265 107.474V112.71H406.613V107.882C406.613 107.157 406.455 106.618 406.137 106.267C405.82 105.904 405.361 105.723 404.76 105.723C404.092 105.723 403.559 105.933 403.162 106.352C402.766 106.76 402.567 107.372 402.567 108.188V112.71H399.915V103.564H402.448V104.635C402.8 104.25 403.236 103.955 403.757 103.751C404.279 103.536 404.851 103.428 405.474 103.428ZM420.883 103.564V112.71H418.367V111.622C418.016 112.019 417.597 112.325 417.109 112.54C416.622 112.744 416.095 112.846 415.528 112.846C414.327 112.846 413.375 112.5 412.672 111.809C411.97 111.118 411.618 110.092 411.618 108.732V103.564H414.27V108.341C414.27 109.814 414.888 110.551 416.123 110.551C416.758 110.551 417.268 110.347 417.653 109.939C418.039 109.52 418.231 108.902 418.231 108.086V103.564H420.883ZM425.873 104.771C426.19 104.329 426.615 103.995 427.148 103.768C427.692 103.541 428.315 103.428 429.018 103.428V105.876C428.723 105.853 428.525 105.842 428.423 105.842C427.664 105.842 427.069 106.057 426.638 106.488C426.207 106.907 425.992 107.542 425.992 108.392V112.71H423.34V103.564H425.873V104.771ZM391.197 127.16H385.672L384.618 129.71H381.796L387.1 117.81H389.82L395.141 129.71H392.251L391.197 127.16ZM390.33 125.069L388.443 120.513L386.556 125.069H390.33ZM399.182 129.846C398.423 129.846 397.681 129.755 396.955 129.574C396.23 129.381 395.652 129.143 395.221 128.86L396.105 126.956C396.513 127.217 397.006 127.432 397.584 127.602C398.162 127.761 398.729 127.84 399.284 127.84C400.406 127.84 400.967 127.562 400.967 127.007C400.967 126.746 400.814 126.559 400.508 126.446C400.202 126.333 399.732 126.236 399.097 126.157C398.349 126.044 397.732 125.913 397.244 125.766C396.757 125.619 396.332 125.358 395.969 124.984C395.618 124.61 395.442 124.077 395.442 123.386C395.442 122.808 395.607 122.298 395.935 121.856C396.275 121.403 396.763 121.051 397.397 120.802C398.043 120.553 398.803 120.428 399.675 120.428C400.321 120.428 400.962 120.502 401.596 120.649C402.242 120.785 402.775 120.978 403.194 121.227L402.31 123.114C401.506 122.661 400.627 122.434 399.675 122.434C399.109 122.434 398.684 122.513 398.4 122.672C398.117 122.831 397.975 123.035 397.975 123.284C397.975 123.567 398.128 123.766 398.434 123.879C398.74 123.992 399.228 124.1 399.896 124.202C400.644 124.327 401.256 124.463 401.732 124.61C402.208 124.746 402.622 125.001 402.973 125.375C403.325 125.749 403.5 126.27 403.5 126.939C403.5 127.506 403.33 128.01 402.99 128.452C402.65 128.894 402.152 129.24 401.494 129.489C400.848 129.727 400.078 129.846 399.182 129.846ZM408.213 129.846C407.454 129.846 406.712 129.755 405.986 129.574C405.261 129.381 404.683 129.143 404.252 128.86L405.136 126.956C405.544 127.217 406.037 127.432 406.615 127.602C407.193 127.761 407.76 127.84 408.315 127.84C409.437 127.84 409.998 127.562 409.998 127.007C409.998 126.746 409.845 126.559 409.539 126.446C409.233 126.333 408.763 126.236 408.128 126.157C407.38 126.044 406.763 125.913 406.275 125.766C405.788 125.619 405.363 125.358 405 124.984C404.649 124.61 404.473 124.077 404.473 123.386C404.473 122.808 404.638 122.298 404.966 121.856C405.306 121.403 405.794 121.051 406.428 120.802C407.074 120.553 407.834 120.428 408.706 120.428C409.352 120.428 409.993 120.502 410.627 120.649C411.273 120.785 411.806 120.978 412.225 121.227L411.341 123.114C410.537 122.661 409.658 122.434 408.706 122.434C408.14 122.434 407.715 122.513 407.431 122.672C407.148 122.831 407.006 123.035 407.006 123.284C407.006 123.567 407.159 123.766 407.465 123.879C407.771 123.992 408.259 124.1 408.927 124.202C409.675 124.327 410.287 124.463 410.763 124.61C411.239 124.746 411.653 125.001 412.004 125.375C412.356 125.749 412.531 126.27 412.531 126.939C412.531 127.506 412.361 128.01 412.021 128.452C411.681 128.894 411.183 129.24 410.525 129.489C409.879 129.727 409.109 129.846 408.213 129.846ZM423.08 120.564L418.949 130.271C418.529 131.325 418.008 132.067 417.385 132.498C416.773 132.929 416.03 133.144 415.158 133.144C414.682 133.144 414.211 133.07 413.747 132.923C413.282 132.776 412.902 132.572 412.608 132.311L413.577 130.424C413.781 130.605 414.013 130.747 414.274 130.849C414.546 130.951 414.812 131.002 415.073 131.002C415.435 131.002 415.73 130.911 415.957 130.73C416.183 130.56 416.387 130.271 416.569 129.863L416.603 129.778L412.642 120.564H415.379L417.946 126.769L420.53 120.564H423.08ZM424.162 117.096H426.814V129.71H424.162V117.096ZM381.359 146.914C380.419 146.914 379.506 146.789 378.622 146.54C377.75 146.279 377.047 145.945 376.514 145.537L377.449 143.463C377.959 143.837 378.566 144.137 379.268 144.364C379.971 144.591 380.674 144.704 381.376 144.704C382.158 144.704 382.736 144.591 383.11 144.364C383.484 144.126 383.671 143.814 383.671 143.429C383.671 143.146 383.558 142.913 383.331 142.732C383.116 142.539 382.833 142.386 382.481 142.273C382.141 142.16 381.677 142.035 381.087 141.899C380.181 141.684 379.438 141.468 378.86 141.253C378.282 141.038 377.784 140.692 377.364 140.216C376.956 139.74 376.752 139.105 376.752 138.312C376.752 137.621 376.939 136.997 377.313 136.442C377.687 135.875 378.248 135.428 378.996 135.099C379.756 134.77 380.679 134.606 381.767 134.606C382.527 134.606 383.269 134.697 383.994 134.878C384.72 135.059 385.354 135.32 385.898 135.66L385.048 137.751C383.949 137.128 382.85 136.816 381.75 136.816C380.98 136.816 380.407 136.941 380.033 137.19C379.671 137.439 379.489 137.768 379.489 138.176C379.489 138.584 379.699 138.89 380.118 139.094C380.549 139.287 381.201 139.479 382.073 139.672C382.98 139.887 383.722 140.103 384.3 140.318C384.878 140.533 385.371 140.873 385.779 141.338C386.199 141.803 386.408 142.432 386.408 143.225C386.408 143.905 386.216 144.528 385.83 145.095C385.456 145.65 384.89 146.092 384.13 146.421C383.371 146.75 382.447 146.914 381.359 146.914ZM394.002 146.268C393.742 146.461 393.419 146.608 393.033 146.71C392.659 146.801 392.263 146.846 391.843 146.846C390.755 146.846 389.911 146.568 389.31 146.013C388.721 145.458 388.426 144.642 388.426 143.565V139.808H387.015V137.768H388.426V135.541H391.078V137.768H393.356V139.808H391.078V143.531C391.078 143.916 391.175 144.217 391.367 144.432C391.571 144.636 391.855 144.738 392.217 144.738C392.637 144.738 392.994 144.625 393.288 144.398L394.002 146.268ZM404.705 137.564V146.71H402.189V145.622C401.838 146.019 401.418 146.325 400.931 146.54C400.444 146.744 399.917 146.846 399.35 146.846C398.149 146.846 397.197 146.5 396.494 145.809C395.791 145.118 395.44 144.092 395.44 142.732V137.564H398.092V142.341C398.092 143.814 398.71 144.551 399.945 144.551C400.58 144.551 401.09 144.347 401.475 143.939C401.86 143.52 402.053 142.902 402.053 142.086V137.564H404.705ZM416.478 134.096V146.71H413.945V145.656C413.288 146.449 412.336 146.846 411.089 146.846C410.228 146.846 409.446 146.653 408.743 146.268C408.052 145.883 407.508 145.333 407.111 144.619C406.714 143.905 406.516 143.078 406.516 142.137C406.516 141.196 406.714 140.369 407.111 139.655C407.508 138.941 408.052 138.391 408.743 138.006C409.446 137.621 410.228 137.428 411.089 137.428C412.256 137.428 413.169 137.796 413.826 138.533V134.096H416.478ZM411.548 144.67C412.217 144.67 412.772 144.443 413.214 143.99C413.656 143.525 413.877 142.908 413.877 142.137C413.877 141.366 413.656 140.754 413.214 140.301C412.772 139.836 412.217 139.604 411.548 139.604C410.868 139.604 410.307 139.836 409.865 140.301C409.423 140.754 409.202 141.366 409.202 142.137C409.202 142.908 409.423 143.525 409.865 143.99C410.307 144.443 410.868 144.67 411.548 144.67ZM418.932 137.564H421.584V146.71H418.932V137.564ZM420.258 136.289C419.771 136.289 419.374 136.147 419.068 135.864C418.762 135.581 418.609 135.229 418.609 134.81C418.609 134.391 418.762 134.039 419.068 133.756C419.374 133.473 419.771 133.331 420.258 133.331C420.746 133.331 421.142 133.467 421.448 133.739C421.754 134.011 421.907 134.351 421.907 134.759C421.907 135.201 421.754 135.569 421.448 135.864C421.142 136.147 420.746 136.289 420.258 136.289ZM428.398 146.846C427.434 146.846 426.567 146.648 425.797 146.251C425.037 145.843 424.442 145.282 424.012 144.568C423.581 143.854 423.366 143.044 423.366 142.137C423.366 141.23 423.581 140.42 424.012 139.706C424.442 138.992 425.037 138.437 425.797 138.04C426.567 137.632 427.434 137.428 428.398 137.428C429.361 137.428 430.222 137.632 430.982 138.04C431.741 138.437 432.336 138.992 432.767 139.706C433.197 140.42 433.413 141.23 433.413 142.137C433.413 143.044 433.197 143.854 432.767 144.568C432.336 145.282 431.741 145.843 430.982 146.251C430.222 146.648 429.361 146.846 428.398 146.846ZM428.398 144.67C429.078 144.67 429.633 144.443 430.064 143.99C430.506 143.525 430.727 142.908 430.727 142.137C430.727 141.366 430.506 140.754 430.064 140.301C429.633 139.836 429.078 139.604 428.398 139.604C427.718 139.604 427.157 139.836 426.715 140.301C426.273 140.754 426.052 141.366 426.052 142.137C426.052 142.908 426.273 143.525 426.715 143.99C427.157 144.443 427.718 144.67 428.398 144.67Z" fill="#F9F0EE"/>
<path fill-rule="evenodd" clip-rule="evenodd" d="M409 164.711C409 162.501 407.209 160.71 405.001 160.71C402.791 160.71 401 162.501 401 164.711C401 166.919 402.791 168.71 405.001 168.71C407.209 168.71 409 166.919 409 164.711Z" stroke="#F9F0EE" stroke-width="1.5" stroke-linecap="round" stroke-linejoin="round"/>
<path fill-rule="evenodd" clip-rule="evenodd" d="M404.999 181.51C403.082 181.51 393 173.347 393 164.811C393 158.129 398.371 152.71 404.999 152.71C411.627 152.71 417 158.129 417 164.811C417 173.347 406.917 181.51 404.999 181.51Z" stroke="#F9F0EE" stroke-width="1.5" stroke-linecap="round" stroke-linejoin="round"/>
<path d="M473.582 234.871C471.638 242.738 468.675 249.47 465.525 253.994C463.945 256.262 462.382 257.885 460.959 258.842C459.536 259.8 458.447 259.974 457.644 259.775C456.84 259.577 455.958 258.916 455.145 257.406C454.331 255.896 453.703 253.732 453.362 250.989C452.681 245.519 453.193 238.181 455.136 230.314C457.08 222.447 460.043 215.715 463.193 211.191C464.773 208.923 466.336 207.3 467.759 206.342C469.182 205.385 470.271 205.211 471.074 205.41C471.878 205.608 472.76 206.269 473.573 207.779C474.387 209.289 475.015 211.453 475.356 214.196C476.037 219.666 475.525 227.004 473.582 234.871Z" stroke="#3F3232" stroke-width="4"/>
<line x1="457.532" y1="261.087" x2="426.377" y2="405.178" stroke="#3F3232" stroke-width="4" stroke-linecap="round"/>
<line x1="502.518" y1="65.0962" x2="471.386" y2="205.191" stroke="#3F3232" stroke-width="4" stroke-linecap="round"/>
<path d="M88.4948 365.011L93.0225 365.868L92.9172 366.425L89.035 365.69L88.6519 367.715L90.677 368.099C91.4081 368.237 91.9338 368.492 92.2542 368.864C92.5806 369.237 92.6896 369.71 92.5815 370.282C92.4688 370.877 92.1761 371.295 91.7032 371.535C91.2362 371.777 90.6195 371.825 89.853 371.68L87.3239 371.201L88.4948 365.011ZM89.9429 371.156C90.5148 371.265 90.9657 371.237 91.2959 371.073C91.6319 370.911 91.8406 370.615 91.9221 370.184C92.0023 369.76 91.9176 369.417 91.6677 369.156C91.4249 368.89 91.0116 368.702 90.428 368.592L88.5532 368.237L88.0681 370.802L89.9429 371.156ZM95.3566 372.748L95.0371 374.437L94.4092 374.319L94.7287 372.63L93.5443 367.56L94.2075 367.686L95.1914 371.975L97.7006 368.346L98.3196 368.463L95.3566 372.748ZM93.2734 372.043L96.9256 372.734L96.8386 373.194L93.1864 372.503L93.2734 372.043ZM100.489 371.548L99.4282 371.348L99.0368 373.417L98.4089 373.298L99.2888 368.647L99.9166 368.765L99.5302 370.808L100.6 371.011L102.623 369.277L103.304 369.406L101.046 371.315L102.556 374.083L101.814 373.942L100.489 371.548ZM103.083 373.624L102.787 375.189L102.212 375.08L102.406 374.054L101.814 373.942L101.916 373.403L103.083 373.624ZM105.948 369.87C106.555 369.985 106.992 370.226 107.258 370.594C107.526 370.956 107.603 371.435 107.49 372.03L106.945 374.913L106.344 374.799L106.481 374.074C106.294 374.289 106.049 374.438 105.746 374.521C105.449 374.606 105.112 374.612 104.735 374.541C104.216 374.442 103.827 374.241 103.567 373.935C103.307 373.629 103.216 373.273 103.293 372.866C103.368 372.471 103.569 372.18 103.898 371.992C104.233 371.805 104.712 371.77 105.337 371.888L106.814 372.168L106.868 371.885C106.943 371.484 106.889 371.159 106.704 370.91C106.52 370.656 106.213 370.488 105.782 370.406C105.488 370.351 105.195 370.347 104.905 370.396C104.616 370.439 104.358 370.528 104.131 370.662L103.937 370.14C104.211 369.984 104.523 369.884 104.873 369.84C105.224 369.791 105.583 369.801 105.948 369.87ZM104.926 374.064C105.279 374.131 105.598 374.109 105.882 373.997C106.166 373.88 106.4 373.68 106.582 373.397L106.725 372.636L105.266 372.36C104.47 372.21 104.02 372.412 103.915 372.966C103.864 373.237 103.926 373.472 104.103 373.67C104.28 373.862 104.554 373.994 104.926 374.064ZM111.9 370.996C112.336 371.078 112.712 371.253 113.028 371.52C113.345 371.782 113.569 372.111 113.702 372.509C113.834 372.906 113.857 373.335 113.77 373.795C113.682 374.261 113.504 374.654 113.235 374.976C112.967 375.298 112.637 375.525 112.245 375.659C111.86 375.788 111.447 375.81 111.005 375.727C110.627 375.655 110.3 375.514 110.022 375.303C109.752 375.087 109.548 374.81 109.41 374.472L108.92 377.063L108.292 376.945L109.496 370.578L110.098 370.691L109.924 371.611C110.17 371.34 110.463 371.151 110.8 371.044C111.144 370.938 111.511 370.922 111.9 370.996ZM111.066 375.161C111.39 375.222 111.699 375.205 111.992 375.107C112.286 375.004 112.533 374.828 112.733 374.579C112.939 374.331 113.075 374.03 113.142 373.676C113.209 373.322 113.191 372.995 113.089 372.695C112.994 372.39 112.829 372.136 112.593 371.933C112.356 371.729 112.076 371.597 111.752 371.535C111.422 371.473 111.109 371.493 110.815 371.596C110.527 371.701 110.28 371.877 110.074 372.125C109.875 372.368 109.742 372.667 109.676 373.02C109.609 373.374 109.623 373.703 109.718 374.008C109.818 374.315 109.984 374.569 110.215 374.771C110.452 374.969 110.736 375.099 111.066 375.161ZM121.462 375.515L120.453 375.325L120.062 377.394L119.434 377.275L119.826 375.206L118.817 375.015L117.002 376.815L116.251 376.673L118.375 374.593L117.263 372.047L117.944 372.176L118.919 374.476L119.928 374.667L120.314 372.624L120.942 372.743L120.555 374.785L121.564 374.976L123.321 373.193L124.002 373.321L122.035 375.294L123.254 377.998L122.503 377.856L121.462 375.515ZM126.822 375.559C127.405 375.675 127.826 375.889 128.084 376.2C128.343 376.512 128.427 376.906 128.337 377.384C128.243 377.879 128.006 378.228 127.626 378.431C127.245 378.634 126.749 378.674 126.137 378.552L124.299 378.196L125.179 373.544L125.807 373.663L125.499 375.29L126.822 375.559ZM129.707 374.401L130.335 374.519L129.455 379.171L128.827 379.052L129.707 374.401ZM126.192 378.068C126.621 378.156 126.962 378.131 127.213 377.996C127.472 377.855 127.634 377.611 127.7 377.263C127.765 376.922 127.703 376.647 127.517 376.441C127.33 376.235 127.019 376.087 126.583 375.999L125.411 375.759L125.019 377.828L126.192 378.068ZM134.526 375.275C134.962 375.358 135.338 375.533 135.654 375.8C135.971 376.062 136.195 376.391 136.328 376.789C136.46 377.186 136.483 377.615 136.396 378.075C136.308 378.541 136.13 378.934 135.861 379.256C135.593 379.578 135.263 379.805 134.871 379.939C134.486 380.068 134.073 380.09 133.631 380.007C133.253 379.935 132.926 379.794 132.648 379.583C132.378 379.367 132.174 379.09 132.036 378.752L131.546 381.343L130.918 381.225L132.123 374.858L132.724 374.971L132.55 375.891C132.797 375.62 133.089 375.431 133.427 375.324C133.77 375.218 134.137 375.202 134.526 375.275ZM133.692 379.441C134.016 379.502 134.325 379.484 134.618 379.387C134.912 379.284 135.159 379.108 135.359 378.859C135.565 378.611 135.701 378.31 135.768 377.956C135.835 377.602 135.818 377.275 135.716 376.975C135.621 376.67 135.455 376.416 135.219 376.213C134.982 376.009 134.702 375.877 134.378 375.815C134.048 375.753 133.735 375.773 133.441 375.876C133.153 375.981 132.906 376.157 132.7 376.405C132.501 376.648 132.369 376.947 132.302 377.3C132.235 377.654 132.249 377.983 132.344 378.288C132.445 378.595 132.61 378.849 132.841 379.051C133.078 379.249 133.362 379.379 133.692 379.441ZM139.766 376.267C140.374 376.382 140.81 376.623 141.077 376.991C141.344 377.353 141.421 377.832 141.309 378.427L140.763 381.31L140.162 381.196L140.299 380.471C140.112 380.686 139.867 380.835 139.564 380.918C139.267 381.003 138.93 381.009 138.553 380.938C138.034 380.84 137.645 380.638 137.385 380.332C137.126 380.026 137.034 379.67 137.111 379.263C137.186 378.869 137.388 378.577 137.716 378.389C138.051 378.202 138.531 378.167 139.156 378.285L140.632 378.565L140.686 378.282C140.762 377.881 140.707 377.556 140.522 377.307C140.338 377.053 140.031 376.885 139.601 376.803C139.306 376.748 139.013 376.744 138.723 376.793C138.434 376.836 138.176 376.925 137.949 377.059L137.755 376.537C138.029 376.381 138.341 376.281 138.691 376.237C139.042 376.188 139.401 376.198 139.766 376.267ZM138.744 380.461C139.098 380.528 139.416 380.506 139.7 380.394C139.985 380.277 140.218 380.077 140.4 379.794L140.544 379.033L139.085 378.757C138.289 378.607 137.838 378.809 137.733 379.363C137.682 379.634 137.745 379.869 137.921 380.067C138.098 380.259 138.373 380.391 138.744 380.461ZM147.268 377.722L143.957 382.491C143.685 382.892 143.409 383.16 143.127 383.296C142.844 383.432 142.529 383.467 142.181 383.401C141.957 383.359 141.755 383.284 141.574 383.176C141.393 383.069 141.245 382.931 141.13 382.762L141.51 382.349C141.702 382.629 141.962 382.801 142.292 382.863C142.505 382.903 142.696 382.878 142.865 382.788C143.041 382.7 143.22 382.526 143.403 382.267L143.692 381.855L142.492 376.819L143.147 376.943L144.15 381.227L146.649 377.605L147.268 377.722Z" fill="white"/>
<path d="M363.22 50.2795C362.61 50.1462 362.086 49.8904 361.646 49.5118C361.214 49.1287 360.909 48.669 360.732 48.1327C360.56 47.5977 360.539 47.0342 360.668 46.4422C360.798 45.8502 361.052 45.3469 361.431 44.9323C361.816 44.519 362.285 44.2313 362.836 44.0693C363.394 43.9027 363.978 43.886 364.588 44.0193C365.198 44.1525 365.716 44.4071 366.144 44.7831C366.577 45.1603 366.882 45.62 367.058 46.1622C367.236 46.6984 367.26 47.2626 367.131 47.8546C367.001 48.4466 366.743 48.9522 366.357 49.3714C365.972 49.7847 365.504 50.0724 364.952 50.2344C364.407 50.3977 363.829 50.4127 363.22 50.2795ZM363.347 49.6992C363.833 49.8055 364.296 49.7932 364.737 49.6621C365.178 49.5252 365.552 49.2877 365.86 48.9495C366.168 48.6054 366.375 48.1931 366.48 47.7124C366.585 47.2318 366.569 46.7737 366.43 46.3381C366.294 45.8967 366.052 45.5246 365.707 45.2219C365.363 44.9133 364.948 44.7059 364.461 44.5996C363.975 44.4932 363.508 44.5079 363.061 44.6435C362.62 44.7745 362.243 45.0114 361.929 45.3542C361.621 45.6924 361.415 46.1018 361.31 46.5825C361.205 47.0631 361.221 47.5242 361.358 47.9656C361.502 48.4024 361.746 48.7751 362.09 49.0837C362.441 49.3877 362.86 49.5928 363.347 49.6992ZM371.263 47.0994C371.696 47.1942 372.067 47.3797 372.375 47.6559C372.685 47.9262 372.9 48.2619 373.021 48.663C373.142 49.0641 373.153 49.4933 373.053 49.9505C372.952 50.4136 372.763 50.8021 372.485 51.1161C372.208 51.4301 371.871 51.6483 371.476 51.7707C371.088 51.8886 370.674 51.8995 370.234 51.8034C369.859 51.7214 369.536 51.5709 369.265 51.3519C369 51.1283 368.804 50.8459 368.676 50.5046L368.113 53.0808L367.489 52.9444L368.872 46.6138L369.47 46.7445L369.27 47.6589C369.524 47.3951 369.822 47.2144 370.162 47.1169C370.509 47.0207 370.876 47.0149 371.263 47.0994ZM370.312 51.2399C370.634 51.3103 370.943 51.3011 371.239 51.2122C371.536 51.1175 371.788 50.9484 371.995 50.7049C372.207 50.4627 372.352 50.1658 372.429 49.8141C372.506 49.4624 372.497 49.135 372.404 48.8321C372.318 48.5246 372.159 48.2658 371.929 48.0557C371.698 47.8457 371.422 47.7054 371.099 47.635C370.771 47.5632 370.459 47.5747 370.161 47.6695C369.87 47.7655 369.618 47.9346 369.406 48.1768C369.2 48.4144 369.059 48.7091 368.982 49.0608C368.905 49.4125 368.91 49.7421 368.996 50.0496C369.089 50.3584 369.247 50.6172 369.472 50.826C369.703 51.0301 369.983 51.1681 370.312 51.2399ZM376.485 49.9913C377.064 50.124 377.479 50.3497 377.729 50.6684C377.978 50.987 378.051 51.3837 377.947 51.8585C377.84 52.3509 377.593 52.6931 377.207 52.8852C376.821 53.0772 376.324 53.1037 375.716 52.9646L373.889 52.5561L374.9 47.9312L375.524 48.0677L375.17 49.6855L376.485 49.9913ZM379.402 48.9151L380.026 49.0516L379.015 53.6764L378.391 53.5399L379.402 48.9151ZM375.784 52.4821C376.211 52.5815 376.552 52.5669 376.807 52.4385C377.07 52.3054 377.239 52.066 377.314 51.7202C377.389 51.3802 377.335 51.1045 377.154 50.8929C376.973 50.6814 376.667 50.5253 376.234 50.4246L375.069 50.1515L374.619 52.2089L375.784 52.4821ZM381.803 49.44L382.427 49.5765L381.98 51.6251L384.89 52.2612L385.338 50.2126L385.962 50.349L384.951 54.9738L384.327 54.8374L384.773 52.7975L381.863 52.1615L381.417 54.2013L380.792 54.0649L381.803 49.44ZM389.953 51.3411C390.381 51.4346 390.741 51.6146 391.033 51.8811C391.332 52.143 391.538 52.4673 391.65 52.8542C391.763 53.2351 391.771 53.6454 391.675 54.085C391.577 54.5364 391.389 54.9161 391.113 55.2243C390.844 55.5278 390.513 55.7379 390.119 55.8545C389.725 55.971 389.299 55.9794 388.842 55.8794C388.074 55.7116 387.538 55.3119 387.234 54.6804C386.93 54.0489 386.881 53.2584 387.089 52.3088C387.305 51.3182 387.659 50.6001 388.149 50.1545C388.646 49.7102 389.316 49.4821 390.16 49.47L392.339 49.4487L392.319 50.0433L390.269 50.0651C389.575 50.0669 389.031 50.2214 388.639 50.5286C388.247 50.83 387.958 51.3409 387.769 52.0614C388.035 51.7448 388.357 51.5234 388.734 51.3971C389.113 51.265 389.52 51.2463 389.953 51.3411ZM388.973 55.3645C389.295 55.435 389.598 55.4245 389.883 55.333C390.174 55.237 390.419 55.0695 390.619 54.8306C390.824 54.593 390.964 54.3042 391.038 53.9643C391.113 53.6243 391.108 53.31 391.023 53.0213C390.939 52.7327 390.783 52.4898 390.556 52.2928C390.336 52.0911 390.062 51.9544 389.734 51.8827C389.406 51.811 389.096 51.8202 388.807 51.9103C388.524 51.9959 388.281 52.1517 388.078 52.3776C387.881 52.6047 387.745 52.8883 387.671 53.2283C387.597 53.5682 387.6 53.8884 387.682 54.1888C387.77 54.4905 387.926 54.7457 388.15 54.9545C388.376 55.1574 388.65 55.2941 388.973 55.3645ZM394.42 57.0893C393.974 56.992 393.595 56.8045 393.281 56.5271C392.968 56.2438 392.748 55.9009 392.621 55.4986C392.494 55.0962 392.48 54.6693 392.578 54.2179C392.677 53.7666 392.868 53.3846 393.151 53.0718C393.435 52.7591 393.777 52.5422 394.178 52.421C394.579 52.2999 395.002 52.288 395.448 52.3854C395.893 52.4827 396.273 52.6701 396.587 52.9476C396.901 53.225 397.119 53.5643 397.24 53.9654C397.367 54.3678 397.381 54.7947 397.282 55.246C397.184 55.6974 396.993 56.0794 396.709 56.3921C396.432 56.7061 396.092 56.9266 395.69 57.0536C395.289 57.1748 394.865 57.1867 394.42 57.0893ZM394.541 56.5354C394.869 56.6071 395.178 56.5979 395.468 56.5078C395.765 56.413 396.017 56.2439 396.224 56.0004C396.431 55.757 396.572 55.4594 396.649 55.1077C396.726 54.756 396.721 54.4264 396.635 54.1188C396.549 53.8113 396.39 53.5555 396.158 53.3513C395.933 53.1425 395.657 53.0022 395.329 52.9305C395 52.8587 394.688 52.8703 394.391 52.965C394.101 53.0552 393.849 53.2214 393.637 53.4635C393.43 53.707 393.288 54.0046 393.211 54.3563C393.135 54.708 393.139 55.0376 393.226 55.3451C393.318 55.6539 393.476 55.9127 393.701 56.1215C393.933 56.3257 394.213 56.4637 394.541 56.5354ZM401.512 53.7108C401.946 53.8056 402.317 53.9911 402.625 54.2673C402.935 54.5376 403.15 54.8733 403.271 55.2744C403.392 55.6755 403.403 56.1047 403.303 56.5619C403.202 57.025 403.012 57.4135 402.735 57.7275C402.457 58.0415 402.121 58.2597 401.726 58.3821C401.338 58.5 400.924 58.5109 400.484 58.4148C400.109 58.3328 399.786 58.1823 399.514 57.9633C399.25 57.7397 399.054 57.4573 398.926 57.116L398.363 59.6922L397.738 59.5558L399.122 53.2252L399.72 53.3559L399.52 54.2703C399.774 54.0065 400.072 53.8258 400.412 53.7283C400.759 53.6321 401.126 53.6263 401.512 53.7108ZM400.561 57.8512C400.884 57.9217 401.193 57.9125 401.489 57.8236C401.786 57.7289 402.038 57.5597 402.244 57.3163C402.457 57.0741 402.602 56.7771 402.679 56.4254C402.756 56.0737 402.747 55.7464 402.654 55.4435C402.567 55.136 402.409 54.8772 402.179 54.6671C401.948 54.4571 401.672 54.3168 401.349 54.2463C401.021 54.1746 400.708 54.1861 400.411 54.2809C400.12 54.3769 399.868 54.546 399.656 54.7882C399.45 55.0258 399.309 55.3204 399.232 55.6721C399.155 56.0238 399.16 56.3535 399.246 56.661C399.338 56.9698 399.497 57.2286 399.721 57.4373C399.953 57.6415 400.233 57.7795 400.561 57.8512ZM411.381 55.9045L407.937 60.5779C407.654 60.9707 407.37 61.231 407.084 61.3589C406.798 61.4868 406.482 61.513 406.137 61.4374C405.914 61.3887 405.713 61.308 405.535 61.1954C405.357 61.0828 405.213 60.9408 405.103 60.7694L405.495 60.3668C405.679 60.6525 405.934 60.8312 406.263 60.903C406.474 60.9491 406.665 60.9295 406.837 60.8443C407.015 60.7604 407.2 60.5919 407.39 60.3387L407.69 59.9345L406.633 54.8668L407.284 55.009L408.166 59.3198L410.765 55.77L411.381 55.9045ZM415.928 56.8984L414.917 61.5232L414.293 61.3868L415.183 57.3159L412.967 56.8316L412.656 57.9612C412.399 58.9122 412.126 59.6265 411.837 60.1039C411.549 60.5812 411.179 60.7706 410.728 60.672C410.604 60.6451 410.46 60.589 410.295 60.5036L410.456 59.9769C410.556 60.0234 410.627 60.0511 410.668 60.0601C410.908 60.1126 411.114 60.041 411.286 59.8451C411.458 59.6493 411.6 59.3917 411.713 59.0725C411.826 58.7532 411.956 58.3271 412.103 57.7942L412.543 56.1585L415.928 56.8984ZM417.703 57.2863L418.327 57.4227L417.524 61.0979L421.413 58.0972L421.967 58.2183L420.956 62.8431L420.332 62.7067L421.135 59.0314L417.255 62.0341L416.692 61.9111L417.703 57.2863ZM427.683 63.7421L427.31 65.4478L426.721 65.319L426.975 64.1584L422.745 63.2341L423.756 58.6093L424.381 58.7457L423.489 62.8254L426.311 63.4423L427.203 59.3626L427.827 59.499L426.935 63.5787L427.683 63.7421ZM431.366 60.2356C431.97 60.3675 432.399 60.6212 432.655 60.9964C432.912 61.3658 432.976 61.8465 432.847 62.4386L432.22 65.3049L431.622 65.1742L431.78 64.4532C431.587 64.6628 431.338 64.8049 431.033 64.8795C430.733 64.9554 430.396 64.9524 430.021 64.8704C429.505 64.7576 429.122 64.5449 428.871 64.232C428.62 63.9192 428.539 63.5606 428.627 63.1562C428.713 62.7634 428.923 62.4776 429.257 62.2988C429.596 62.1213 430.077 62.1004 430.698 62.2362L432.167 62.5571L432.228 62.2757C432.315 61.8772 432.27 61.5509 432.092 61.2971C431.915 61.0374 431.613 60.8608 431.185 60.7673C430.892 60.7032 430.6 60.6915 430.308 60.7323C430.018 60.7671 429.758 60.8484 429.527 60.9761L429.348 60.4486C429.626 60.3006 429.941 60.2097 430.292 60.1759C430.644 60.1363 431.002 60.1562 431.366 60.2356ZM430.226 64.3991C430.577 64.476 430.896 64.4628 431.183 64.3597C431.471 64.2506 431.71 64.0572 431.9 63.7793L432.065 63.0231L430.614 62.706C429.823 62.5331 429.367 62.7221 429.246 63.2731C429.187 63.5427 429.243 63.7791 429.414 63.9822C429.586 64.1794 429.856 64.3184 430.226 64.3991Z" fill="white"/>
<path d="M380.183 190.821H378.878V193.71H378.23V190.821H376.916L374.99 193.71H374.216L376.376 190.461L374.378 187.41H375.098L376.907 190.236H378.23V187.41H378.878V190.236H380.183L382.001 187.41H382.721L380.723 190.461L382.883 193.71H382.109L380.183 190.821ZM386.027 190.821H384.587V193.71H383.939V187.41H384.587V190.236H386.027L388.16 187.41H388.88L386.54 190.47L389.015 193.71H388.25L386.027 190.821ZM392.002 191.343L393.307 189.633H393.901L392.623 191.343L393.901 193.044H393.307L392.002 191.343ZM393.604 191.343L394.909 189.633H395.503L394.225 191.343L395.503 193.044H394.909L393.604 191.343ZM401.169 193.71L399.729 191.685C399.567 191.703 399.399 191.712 399.225 191.712H397.533V193.71H396.867V187.41H399.225C400.029 187.41 400.659 187.602 401.115 187.986C401.571 188.37 401.799 188.898 401.799 189.57C401.799 190.062 401.673 190.479 401.421 190.821C401.175 191.157 400.821 191.4 400.359 191.55L401.898 193.71H401.169ZM399.207 191.145C399.831 191.145 400.308 191.007 400.638 190.731C400.968 190.455 401.133 190.068 401.133 189.57C401.133 189.06 400.968 188.67 400.638 188.4C400.308 188.124 399.831 187.986 399.207 187.986H397.533V191.145H399.207ZM407.358 191.541H403.398C403.434 192.033 403.623 192.432 403.965 192.738C404.307 193.038 404.739 193.188 405.261 193.188C405.555 193.188 405.825 193.137 406.071 193.035C406.317 192.927 406.53 192.771 406.71 192.567L407.07 192.981C406.86 193.233 406.596 193.425 406.278 193.557C405.966 193.689 405.621 193.755 405.243 193.755C404.757 193.755 404.325 193.653 403.947 193.449C403.575 193.239 403.284 192.951 403.074 192.585C402.864 192.219 402.759 191.805 402.759 191.343C402.759 190.881 402.858 190.467 403.056 190.101C403.26 189.735 403.536 189.45 403.884 189.246C404.238 189.042 404.634 188.94 405.072 188.94C405.51 188.94 405.903 189.042 406.251 189.246C406.599 189.45 406.872 189.735 407.07 190.101C407.268 190.461 407.367 190.875 407.367 191.343L407.358 191.541ZM405.072 189.489C404.616 189.489 404.232 189.636 403.92 189.93C403.614 190.218 403.44 190.596 403.398 191.064H406.755C406.713 190.596 406.536 190.218 406.224 189.93C405.918 189.636 405.534 189.489 405.072 189.489ZM414.571 188.94C415.165 188.94 415.63 189.111 415.966 189.453C416.308 189.795 416.479 190.299 416.479 190.965V193.71H415.84V191.028C415.84 190.536 415.72 190.161 415.48 189.903C415.246 189.645 414.913 189.516 414.481 189.516C413.989 189.516 413.602 189.669 413.32 189.975C413.038 190.275 412.897 190.692 412.897 191.226V193.71H412.258V191.028C412.258 190.536 412.138 190.161 411.898 189.903C411.664 189.645 411.328 189.516 410.89 189.516C410.404 189.516 410.017 189.669 409.729 189.975C409.447 190.275 409.306 190.692 409.306 191.226V193.71H408.667V188.976H409.279V189.84C409.447 189.552 409.681 189.33 409.981 189.174C410.281 189.018 410.626 188.94 411.016 188.94C411.412 188.94 411.754 189.024 412.042 189.192C412.336 189.36 412.555 189.609 412.699 189.939C412.873 189.627 413.122 189.384 413.446 189.21C413.776 189.03 414.151 188.94 414.571 188.94ZM419.868 188.94C420.486 188.94 420.96 189.096 421.29 189.408C421.62 189.714 421.785 190.17 421.785 190.776V193.71H421.173V192.972C421.029 193.218 420.816 193.41 420.534 193.548C420.258 193.686 419.928 193.755 419.544 193.755C419.016 193.755 418.596 193.629 418.284 193.377C417.972 193.125 417.816 192.792 417.816 192.378C417.816 191.976 417.96 191.652 418.248 191.406C418.542 191.16 419.007 191.037 419.643 191.037H421.146V190.749C421.146 190.341 421.032 190.032 420.804 189.822C420.576 189.606 420.243 189.498 419.805 189.498C419.505 189.498 419.217 189.549 418.941 189.651C418.665 189.747 418.428 189.882 418.23 190.056L417.942 189.579C418.182 189.375 418.47 189.219 418.806 189.111C419.142 188.997 419.496 188.94 419.868 188.94ZM419.643 193.251C420.003 193.251 420.312 193.17 420.57 193.008C420.828 192.84 421.02 192.6 421.146 192.288V191.514H419.661C418.851 191.514 418.446 191.796 418.446 192.36C418.446 192.636 418.551 192.855 418.761 193.017C418.971 193.173 419.265 193.251 419.643 193.251ZM424.133 189.903C424.283 189.585 424.505 189.345 424.799 189.183C425.099 189.021 425.468 188.94 425.906 188.94V189.561L425.753 189.552C425.255 189.552 424.865 189.705 424.583 190.011C424.301 190.317 424.16 190.746 424.16 191.298V193.71H423.521V188.976H424.133V189.903ZM428.818 191.334L427.702 192.36V193.71H427.063V187.032H427.702V191.559L430.528 188.976H431.32L429.295 190.911L431.509 193.71H430.726L428.818 191.334ZM431.919 193.044L433.197 191.343L431.919 189.633H432.513L433.818 191.343L432.513 193.044H431.919ZM433.521 193.044L434.799 191.343L433.521 189.633H434.115L435.42 191.343L434.115 193.044H433.521Z" fill="white"/>
</svg>
