<svg width="41" height="36" viewBox="0 0 41 36" fill="none" xmlns="http://www.w3.org/2000/svg">
<path d="M0 8.99027C0.212284 8.09059 0.353807 7.16058 0.66718 6.29123C2.19361 2.01521 6.85375 -0.643398 11.3117 0.134978C15.426 0.86281 18.5698 3.86512 19.3179 7.88841C19.4998 8.83864 19.5302 9.8293 19.5201 10.7896C19.4695 14.075 19.0146 17.2997 18.1048 20.4536C17.0535 24.1029 15.4968 27.5096 12.9089 30.3501C12.1811 31.1588 11.3825 31.917 10.5232 32.5943C9.35062 33.5142 8.09713 34.333 6.87397 35.1821C6.71223 35.2933 6.49995 35.354 6.31799 35.445C6.27755 35.4146 6.24723 35.3944 6.20679 35.3641C6.28766 35.1215 6.34831 34.8688 6.45951 34.6565C7.27832 33.1503 8.13757 31.6542 8.94627 30.1378C10.6142 26.9839 11.9183 23.6783 12.6966 20.1807C12.7775 19.8067 12.8483 19.4326 12.9089 19.1092C11.9587 19.2406 11.0287 19.4529 10.0987 19.4933C7.20756 19.6045 4.74102 18.5835 2.72937 16.5112C1.20294 14.9342 0.33359 13.0439 0.0808703 10.8604C0.0707615 10.7694 0.0404351 10.6784 0.0101088 10.5875C0 10.0517 0 9.51593 0 8.99027Z" fill="#E0B84C"/>
<path d="M27.6576 35.3438C27.7486 35.1012 27.8194 34.8485 27.9407 34.6261C28.8707 32.9076 29.8512 31.2093 30.7509 29.4605C32.3885 26.2662 33.6319 22.9303 34.3092 19.3922C34.3193 19.3113 34.3395 19.2304 34.3496 19.1597C34.3496 19.1192 34.3395 19.0788 34.3395 19.1091C33.4196 19.2405 32.4997 19.4528 31.5798 19.4832C28.719 19.6045 26.2323 18.6441 24.2712 16.5718C21.471 13.61 20.7028 10.1022 22.1382 6.2912C23.4827 2.73291 26.1716 0.630283 29.9422 0.104626C34.6832 -0.552445 39.0704 2.27801 40.5362 6.83707C41.0113 8.31296 41.0315 9.82927 40.981 11.3557C40.8496 15.0858 40.2329 18.725 38.9997 22.253C37.6653 26.0943 35.6739 29.5414 32.5199 32.1798C31.2058 33.2817 29.74 34.2015 28.345 35.2023C28.1833 35.3236 27.971 35.3742 27.789 35.4651C27.7385 35.4146 27.6981 35.3843 27.6576 35.3438Z" fill="#E0B84C"/>
</svg>
