<svg width="24" height="20" viewBox="0 0 24 20" fill="none" xmlns="http://www.w3.org/2000/svg">
<path d="M0 5.06991C0.119714 4.56255 0.199524 4.03809 0.376245 3.54783C1.23705 1.13645 3.86506 -0.362834 6.37906 0.0761185C8.69924 0.486568 10.4722 2.17967 10.894 4.44854C10.9966 4.9844 11.0137 5.54307 11.008 6.08464C10.9795 7.93736 10.723 9.75587 10.2099 11.5345C9.61705 13.5924 8.73914 15.5136 7.27977 17.1155C6.86932 17.5715 6.41897 17.9991 5.93441 18.381C5.27313 18.8998 4.56625 19.3615 3.87646 19.8404C3.78525 19.9031 3.66554 19.9373 3.56293 19.9886C3.54012 19.9715 3.52302 19.9601 3.50022 19.943C3.54582 19.8062 3.58003 19.6637 3.64274 19.5439C4.10449 18.6945 4.58905 17.8508 5.0451 16.9957C5.98571 15.2171 6.7211 13.353 7.16006 11.3806C7.20566 11.1696 7.24557 10.9587 7.27977 10.7763C6.74391 10.8504 6.21944 10.9701 5.69498 10.9929C4.06459 11.0556 2.67362 10.4799 1.53918 9.31122C0.678381 8.42192 0.188122 7.35589 0.0456054 6.12454C0.0399048 6.07323 0.0228027 6.02193 0.00570068 5.97062C0 5.66849 0 5.36635 0 5.06991Z" fill="#242020" fill-opacity="0.5"/>
<path d="M15.5974 19.9317C15.6487 19.7948 15.6886 19.6523 15.757 19.5269C16.2815 18.5578 16.8344 17.6001 17.3418 16.6139C18.2653 14.8124 18.9665 12.9312 19.3484 10.936C19.3541 10.8904 19.3655 10.8448 19.3712 10.8049C19.3712 10.7821 19.3655 10.7593 19.3655 10.7764C18.8468 10.8505 18.328 10.9702 17.8093 10.9873C16.196 11.0557 14.7936 10.5141 13.6877 9.34549C12.1086 7.67519 11.6753 5.69705 12.4848 3.5479C13.243 1.54126 14.7594 0.355515 16.8857 0.0590791C19.5594 -0.311465 22.0335 1.28473 22.8601 3.85573C23.128 4.68803 23.1394 5.54313 23.1109 6.40394C23.0368 8.50749 22.689 10.5597 21.9936 12.5493C21.2411 14.7155 20.118 16.6595 18.3394 18.1473C17.5983 18.7687 16.7717 19.2875 15.985 19.8518C15.8938 19.9202 15.7741 19.9488 15.6715 20.0001C15.643 19.9716 15.6202 19.9545 15.5974 19.9317Z" fill="#242020" fill-opacity="0.5"/>
</svg>
