<svg width="30" height="30" viewBox="0 0 30 30" fill="none" xmlns="http://www.w3.org/2000/svg">
<path d="M1.39181 2.512C1.39181 4.344 1.39181 6.176 1.39181 8.024C0.919812 8.024 0.479812 8.024 0.0078125 8.024C0.0078125 5.352 0.0078125 2.688 0.0078125 0C2.67981 0 5.33581 0 8.01581 0C8.01581 0.456 8.01581 0.912 8.01581 1.392C6.17581 1.392 4.34381 1.392 2.50381 1.392C6.19981 5.088 9.87181 8.76 13.5358 12.424C13.1438 12.808 12.8158 13.136 12.4798 13.472C8.83181 9.82399 5.15981 6.144 1.47981 2.464C1.44781 2.48 1.41581 2.496 1.39181 2.512Z" fill="#E0B84C"/>
<path d="M17.5514 13.536C17.1754 13.16 16.8474 12.824 16.5034 12.472C20.1594 8.816 23.8314 5.136 27.5594 1.408C25.6634 1.408 23.8314 1.408 21.9834 1.408C21.9834 0.927999 21.9834 0.48 21.9834 0C24.6474 0 27.3034 0 29.9914 0C29.9914 2.664 29.9914 5.336 29.9914 8.024C29.5434 8.024 29.0954 8.024 28.6154 8.024C28.6154 6.184 28.6154 4.352 28.6154 2.472C24.8954 6.184 21.2234 9.86399 17.5514 13.536Z" fill="#E0B84C"/>
<path d="M1.384 27.5759C5.12 23.8399 8.792 20.1679 12.448 16.5039C12.792 16.8559 13.12 17.1839 13.456 17.5199C9.816 21.1599 6.136 24.8399 2.456 28.5199C2.472 28.5439 2.48 28.5759 2.496 28.5999C4.328 28.5999 6.168 28.5999 8.024 28.5999C8.024 29.0879 8.024 29.5279 8.024 29.9999C5.352 29.9999 2.688 29.9999 0 29.9999C0 27.3279 0 24.6719 0 21.9839C0.456 21.9839 0.912 21.9839 1.392 21.9839C1.384 23.8239 1.384 25.6559 1.384 27.5759Z" fill="#E0B84C"/>
<path d="M16.4478 17.5436C16.8398 17.1516 17.1678 16.8316 17.5118 16.4956C21.1838 20.1676 24.8637 23.8476 28.5917 27.5836C28.5917 25.6716 28.5917 23.8476 28.5917 21.9916C29.0717 21.9916 29.5277 21.9916 29.9997 21.9916C29.9997 24.6556 29.9997 27.3116 29.9997 29.9996C27.3357 29.9996 24.6637 29.9996 21.9838 29.9996C21.9838 29.5516 21.9838 29.1036 21.9838 28.6236C23.8237 28.6236 25.6557 28.6236 27.5197 28.6236C23.8078 24.9036 20.1278 21.2316 16.4478 17.5436Z" fill="#E0B84C"/>
</svg>
