<svg width="12" height="13" viewBox="0 0 12 13" fill="none" xmlns="http://www.w3.org/2000/svg">
<path fill-rule="evenodd" clip-rule="evenodd" d="M10.2446 2.44751C9.1219 1.32354 7.62886 0.704272 6.03826 0.703613C2.76067 0.703613 0.0931885 3.37102 0.0918701 6.64949C0.0914307 7.69751 0.36521 8.72056 0.885596 9.62232L0.0419922 12.7036L3.19426 11.8767C4.06284 12.3505 5.0407 12.6002 6.03584 12.6005H6.03833C9.31555 12.6005 11.9833 9.93286 11.9846 6.65425C11.9852 5.06533 11.3673 3.57141 10.2446 2.44751ZM6.03826 11.5963H6.03621C5.14939 11.5959 4.27964 11.3576 3.5207 10.9074L3.34031 10.8002L1.4697 11.2909L1.96899 9.46712L1.85144 9.28013C1.35669 8.49322 1.09543 7.58369 1.09587 6.64986C1.0969 3.92488 3.31409 1.70791 6.04023 1.70791C7.36035 1.70835 8.60129 2.2231 9.5344 3.1573C10.4675 4.09151 10.9811 5.33325 10.9806 6.65388C10.9795 9.37908 8.76243 11.5963 6.03826 11.5963ZM8.74924 7.89468C8.60071 7.82027 7.87019 7.46094 7.73396 7.41128C7.59787 7.3617 7.4987 7.33701 7.39975 7.4857C7.30066 7.63438 7.01597 7.96909 6.92925 8.06819C6.84253 8.16736 6.75596 8.17981 6.60735 8.1054C6.45874 8.03106 5.98003 7.8741 5.41247 7.36792C4.97082 6.97395 4.67266 6.4874 4.58594 6.33872C4.49936 6.18989 4.5852 6.11724 4.65112 6.0355C4.81196 5.83577 4.97302 5.62637 5.02253 5.52727C5.07212 5.4281 5.04729 5.34131 5.01008 5.26697C4.97302 5.19263 4.67588 4.4613 4.5521 4.16372C4.4314 3.87412 4.30901 3.91323 4.21775 3.90869C4.13118 3.90437 4.03208 3.90349 3.93298 3.90349C3.83396 3.90349 3.67297 3.94063 3.53674 4.08945C3.40059 4.23821 3.0168 4.59761 3.0168 5.32893C3.0168 6.06026 3.54919 6.76675 3.62346 6.86592C3.69773 6.96509 4.67119 8.46582 6.1616 9.10933C6.51609 9.26255 6.7928 9.35388 7.00864 9.42237C7.3646 9.53545 7.6884 9.51949 7.94446 9.48125C8.22995 9.43855 8.82344 9.12178 8.94736 8.77476C9.07114 8.42766 9.07114 8.13023 9.03393 8.06819C8.99687 8.00623 8.89778 7.96909 8.74924 7.89468Z" fill="#242020"/>
</svg>
