<svg width="12" height="14" viewBox="0 0 12 14" fill="none" xmlns="http://www.w3.org/2000/svg">
<path d="M7.59668 1.53174V4.34584C7.59668 4.58887 7.61566 4.76735 7.65377 4.88157C7.71563 5.05793 7.85617 5.14586 8.07514 5.14586C8.31311 5.14586 8.5584 4.99859 8.81074 4.70309V5.09592H9.46082V1.53174H8.81088V4.25301C8.66798 4.45808 8.53241 4.56019 8.40371 4.56019C8.31803 4.56019 8.26798 4.508 8.25378 4.40308C8.24899 4.39366 8.2466 4.31012 8.2466 4.15316V1.53174H7.59668Z" fill="#242020"/>
<path d="M6.11122 5.14579C6.43977 5.14579 6.69211 5.0244 6.86833 4.78164C7.00167 4.60554 7.06834 4.3244 7.06834 3.93874V2.68879C7.06834 2.30791 7.00167 2.02944 6.86833 1.85319C6.69211 1.61016 6.43979 1.48877 6.11122 1.48877C5.7921 1.48877 5.54215 1.61016 5.36114 1.85319C5.2278 2.02958 5.16113 2.30805 5.16113 2.68879V3.93874C5.16113 4.31989 5.2278 4.60092 5.36114 4.78164C5.54201 5.0244 5.79207 5.14579 6.11122 5.14579ZM5.80403 2.56011C5.80403 2.23168 5.90643 2.06743 6.1112 2.06743C6.31585 2.06743 6.41837 2.2317 6.41837 2.56011V4.06013C6.41837 4.39362 6.31585 4.56015 6.1112 4.56015C5.90641 4.56015 5.80403 4.39362 5.80403 4.06013V2.56011Z" fill="#242020"/>
<path d="M4.28967 5.09577V3.16015L5.15394 0.310059H4.42537L3.93973 2.18871L3.4324 0.310059H2.67529C2.80863 0.710218 2.96335 1.15551 3.13957 1.64567C3.36334 2.30307 3.5085 2.8077 3.5753 3.16017V5.09566H4.28964V5.09577H4.28967Z" fill="#242020"/>
<path d="M10.9574 6.2169C10.7454 6.02661 10.5014 5.91478 10.2253 5.88118C9.3491 5.78611 8.02769 5.73828 6.26115 5.73828C4.49447 5.73828 3.17545 5.78597 2.30401 5.88118C2.02299 5.91467 1.77784 6.02661 1.56827 6.2169C1.3587 6.40776 1.2206 6.64321 1.15393 6.92421C1.03001 7.47667 0.968262 8.30973 0.968262 9.42423C0.968262 10.5576 1.03015 11.3908 1.15393 11.9243C1.2158 12.205 1.35265 12.4407 1.56462 12.6313C1.77644 12.8219 2.02046 12.9313 2.29668 12.96C3.17279 13.0599 4.49417 13.1098 6.26101 13.1098C8.02769 13.1098 9.3491 13.0599 10.2252 12.96C10.5013 12.9313 10.7442 12.8219 10.9537 12.6313C11.1632 12.4407 11.3013 12.205 11.3681 11.9243C11.4919 11.3718 11.5537 10.5384 11.5537 9.42423C11.5537 8.29089 11.4919 7.45768 11.3681 6.92421C11.3061 6.64321 11.1692 6.40776 10.9574 6.2169ZM3.98965 7.64547H3.22537V11.7098H2.51114V7.64547H1.76122V6.97415H3.98981V7.64547H3.98965ZM5.9181 11.7098H5.28236V11.3238C5.02524 11.6143 4.78236 11.7597 4.55379 11.7597C4.33466 11.7597 4.19667 11.6715 4.13945 11.4954C4.10132 11.3811 4.08234 11.2075 4.08234 10.9739V8.18106H4.71808V10.7812C4.71808 10.9336 4.72047 11.017 4.72525 11.0312C4.73959 11.131 4.78953 11.181 4.87532 11.181C5.00388 11.181 5.13962 11.0811 5.28252 10.881V8.18106H5.91824V11.7098H5.9181ZM8.34668 10.6527C8.34668 11.0003 8.32528 11.2383 8.2824 11.3669C8.20139 11.6286 8.03245 11.7597 7.77521 11.7597C7.54668 11.7597 7.32527 11.6286 7.11095 11.3669V11.7098H6.4752V6.97415H7.11095V8.52408C7.31558 8.2671 7.5371 8.13843 7.77521 8.13843C8.03233 8.13843 8.20139 8.27177 8.2824 8.53829C8.32528 8.6622 8.34668 8.8979 8.34668 9.2456V10.6527ZM10.7609 10.067H9.48241V10.6884C9.48241 11.0171 9.59183 11.1811 9.81096 11.1811C9.96807 11.1811 10.0633 11.0954 10.0966 10.9241C10.106 10.8764 10.111 10.7313 10.111 10.4882H10.7609V10.5812C10.7609 10.8147 10.7561 10.9525 10.7465 10.9955C10.7322 11.1243 10.6823 11.2525 10.5966 11.3812C10.4252 11.6334 10.1681 11.7598 9.82519 11.7598C9.49664 11.7598 9.23938 11.6385 9.05373 11.3954C8.91561 11.2193 8.84655 10.9434 8.84655 10.567V9.33125C8.84655 8.95517 8.91322 8.67893 9.04656 8.50255C9.23221 8.25979 9.48692 8.1384 9.81085 8.1384C10.1298 8.1384 10.3823 8.25977 10.5679 8.50255C10.6965 8.67893 10.7608 8.95515 10.7608 9.33125V10.067H10.7609Z" fill="#242020"/>
<path d="M9.80379 8.7168C9.58945 8.7168 9.48242 8.87884 9.48242 9.20261V9.53132H10.1253V9.20261C10.1252 8.87896 10.0181 8.7168 9.80379 8.7168Z" fill="#242020"/>
<path d="M7.4327 8.7168C7.32313 8.7168 7.21596 8.76926 7.11133 8.8742V11.024C7.21599 11.1289 7.32315 11.1811 7.4327 11.1811C7.61835 11.1811 7.71134 11.0218 7.71134 10.7026V9.1956C7.71118 8.87643 7.61835 8.7168 7.4327 8.7168Z" fill="#242020"/>
</svg>
