<svg width="154" height="17" viewBox="0 0 154 17" fill="none" xmlns="http://www.w3.org/2000/svg">
<path fill-rule="evenodd" clip-rule="evenodd" d="M37.7794 2.61307L32.1852 14.684H33.1111L34.6243 11.3275H41.7087L43.234 14.6799H44.2143L38.6201 2.60949L37.7801 2.61366L37.7794 2.61307ZM35.0132 10.5136L38.1919 3.58656L41.3471 10.5136H35.0132ZM60.6904 6.09417C60.6946 5.67747 60.6168 5.26392 60.4612 4.87641C60.3058 4.48916 60.0753 4.13705 59.7838 3.83917C59.0641 3.12245 57.8854 2.67086 56.411 2.67086H51.3846V14.6263H52.2755V9.67299H56.1969L60.0137 14.6263H61.1458L57.1893 9.51749C59.2087 9.24522 60.691 8.10014 60.691 6.10251V6.09477L60.6904 6.09417ZM52.2676 8.86273V3.50494H56.3602C58.535 3.50494 59.8032 4.51358 59.8032 6.118C59.8032 7.87792 58.313 8.88657 56.3015 8.88657L52.267 8.86333L52.2676 8.86273ZM78.0144 2.66728H76.8006L69.1634 10.5136V2.66788H68.2726V14.6263H69.1634V11.5848L72.1438 8.56723L77.0727 14.6143H78.24L72.7933 7.93631L78.0144 2.66788V2.66728ZM101.061 3.50434H105.239V14.6411H106.13V3.50494H110.304V2.66788H101.061V3.50494V3.50434ZM117.467 14.6411H118.358V2.66788H117.467V14.6417V14.6411ZM134.631 13.0838L126.36 2.66788H125.52V14.6263H126.376V3.99943L134.818 14.6263H135.487V2.66788H134.631V13.0844V13.0838ZM148.302 8.41114V9.18981H152.193V12.5267C151.151 13.3718 149.847 13.8404 148.497 13.8547C145.384 13.8547 143.525 11.6158 143.525 8.60953C143.525 5.77067 145.497 3.384 148.314 3.384C148.998 3.36116 149.68 3.47267 150.32 3.71201C150.959 3.95136 151.545 4.31376 152.041 4.77811L152.605 4.13169C151.44 3.09505 149.922 2.54753 148.364 2.60115C144.902 2.60115 142.63 5.47516 142.63 8.60953C142.63 11.9113 144.801 14.6179 148.465 14.6179C150.15 14.6033 151.772 13.9829 153.025 12.8735V8.40339L148.302 8.41114ZM85.371 3.5246H93.9298V2.66371H85.371V3.524V3.5246ZM91.3117 8.2479H85.371V9.10045H91.3117V8.2479ZM85.371 14.6263H93.9298V13.7737H85.371V14.6263ZM19.841 0L15.8809 6.79123L11.9395 0H7.16235V10.0894C8.64165 11.3983 10.2413 12.5637 11.9395 13.5705V8.56664L15.6668 14.7972H16.095L19.8416 8.56664V16.6817H24.5958V0H19.8416H19.841Z" fill="#FFF"/>
<path fill-rule="evenodd" clip-rule="evenodd" d="M4.77722 7.69083V0H0C1.14486 2.81622 2.76086 5.41677 4.77722 7.69083Z" fill="#FFF"/>
<path fill-rule="evenodd" clip-rule="evenodd" d="M0 9.67993V16.6895H4.77716V12.9783C3.0982 12.0058 1.50074 10.9029 0 9.67993H0ZM7.16242 14.2437V16.6817H11.9396V16.1562C10.3049 15.6307 8.70823 14.9921 7.16242 14.2443V14.2437Z" fill="#FFF"/>
</svg>
