<svg width="11" height="281" viewBox="0 0 11 281" fill="none" xmlns="http://www.w3.org/2000/svg">
<path d="M5.60601 3.634L3.57601 1.632L1.00001 1.632L1.00001 0.595999L10.8 0.596L10.8 1.632L4.87801 1.632L10.8 7.386L10.8 8.576L6.36201 4.334L1.00001 8.87L1.00001 7.638L5.60601 3.634ZM3.61801 25.6923L3.61801 20.2323L1.00001 19.0563L1.00001 17.9783L10.8 22.4583L10.8 23.4803L1.00001 27.9603L1.00001 26.8683L3.61801 25.6923ZM4.45801 25.3143L9.72201 22.9623L4.45801 20.6103L4.45801 25.3143ZM1.89601 46.0315L1.00001 46.0315L1.00001 37.9955L1.71401 37.9955L9.90401 44.4915L9.90401 38.0935L10.8 38.0935L10.8 45.8635L10.086 45.8635L1.89601 39.3815L1.89601 46.0315ZM9.90401 71.5407L6.05401 71.5407L6.05401 76.6087L5.15801 76.6087L5.15801 71.5407L1.00001 71.5407L1.00001 70.5047L10.8 70.5047L10.8 77.2247L9.90401 77.2247L9.90401 71.5407ZM10.8 88.744L10.8 89.78L1.00001 89.78L1.00001 88.744L10.8 88.744ZM6.05401 108.523C5.91401 109.167 5.63401 109.661 5.21401 110.007C4.80334 110.361 4.27134 110.539 3.61801 110.539C2.77801 110.539 2.12934 110.226 1.67201 109.601C1.22401 108.985 1.00001 108.07 1.00001 106.857L1.00001 102.349L10.8 102.349L10.8 106.577C10.8 107.669 10.5807 108.513 10.142 109.111C9.70334 109.717 9.08267 110.021 8.28001 110.021C7.73867 110.021 7.27667 109.885 6.89401 109.615C6.52067 109.353 6.24067 108.989 6.05401 108.523ZM9.94601 103.385L6.39001 103.385L6.39001 106.507C6.39001 107.3 6.53934 107.911 6.83801 108.341C7.14601 108.77 7.58934 108.985 8.16801 108.985C8.74667 108.985 9.18534 108.77 9.48401 108.341C9.79201 107.911 9.94601 107.3 9.94601 106.507L9.94601 103.385ZM1.85401 106.843C1.85401 107.72 2.00334 108.383 2.30201 108.831C2.60067 109.279 3.06734 109.503 3.70201 109.503C4.92467 109.503 5.53601 108.616 5.53601 106.843L5.53601 103.385L1.85401 103.385L1.85401 106.843ZM1.89601 129.213L1.00001 129.213L1.00001 122.283L10.8 122.283L10.8 129.003L9.90401 129.003L9.90401 123.319L6.41801 123.319L6.41801 128.387L5.53601 128.387L5.53601 123.319L1.89601 123.319L1.89601 129.213ZM1 147.721L4.15001 145.481C4.12201 145.229 4.10801 144.967 4.10801 144.697L4.10801 142.065L1.00001 142.065L1.00001 141.029L10.8 141.029L10.8 144.697C10.8 145.947 10.5013 146.927 9.90401 147.637C9.30667 148.346 8.48534 148.701 7.44001 148.701C6.67467 148.701 6.02601 148.505 5.49401 148.113C4.97134 147.73 4.59334 147.179 4.36001 146.461L1 148.855L1 147.721ZM4.99001 144.669C4.99001 145.639 5.20467 146.381 5.63401 146.895C6.06334 147.408 6.66534 147.665 7.44001 147.665C8.23334 147.665 8.84001 147.408 9.26001 146.895C9.68934 146.381 9.90401 145.639 9.90401 144.669L9.90401 142.065L4.99001 142.065L4.99001 144.669ZM0.916004 177.826C0.916004 176.855 1.13067 175.978 1.56 175.194C1.98934 174.419 2.582 173.808 3.338 173.36C4.10334 172.921 4.95734 172.702 5.9 172.702C6.84267 172.702 7.692 172.921 8.448 173.36C9.21334 173.808 9.81067 174.424 10.24 175.208C10.6693 175.992 10.884 176.869 10.884 177.84C10.884 178.568 10.7627 179.24 10.52 179.856C10.2773 180.472 9.92267 180.994 9.456 181.424L8.798 180.766C9.57267 180 9.96 179.034 9.96 177.868C9.96 177.093 9.78267 176.388 9.428 175.754C9.07334 175.119 8.588 174.62 7.972 174.256C7.356 173.901 6.66534 173.724 5.9 173.724C5.13467 173.724 4.444 173.901 3.828 174.256C3.212 174.62 2.72667 175.119 2.372 175.754C2.01734 176.388 1.84 177.093 1.84 177.868C1.84 179.044 2.232 180.01 3.016 180.766L2.358 181.424C1.89134 180.994 1.532 180.467 1.28 179.842C1.03734 179.226 0.916004 178.554 0.916004 177.826ZM1.896 199.942L1 199.942L1 193.012L10.8 193.012L10.8 199.732L9.904 199.732L9.904 194.048L6.418 194.048L6.418 199.116L5.536 199.116L5.536 194.048L1.896 194.048L1.896 199.942ZM10.8 221.936L1 221.936L1 220.942L8.84 220.942L2.246 217.092L2.246 216.602L8.798 212.752L1 212.752L1 211.758L10.8 211.758L10.8 212.612L3.534 216.868L10.8 221.082L10.8 221.936ZM1.896 241.439L1 241.439L1 234.509L10.8 234.509L10.8 241.229L9.904 241.229L9.904 235.545L6.418 235.545L6.418 240.613L5.536 240.613L5.536 235.545L1.896 235.545L1.896 241.439ZM10.8 261.444L1 261.444L1 260.59L8.952 254.29L1 254.29L1 253.254L10.8 253.254L10.8 254.108L2.848 260.422L10.8 260.422L10.8 261.444ZM9.904 275.927L9.904 272.483L10.8 272.483L10.8 280.407L9.904 280.407L9.904 276.963L0.999999 276.963L0.999999 275.927L9.904 275.927Z" fill="white"/>
</svg>
