<svg width="40" height="40" viewBox="0 0 40 40" fill="none" xmlns="http://www.w3.org/2000/svg">
<path d="M28.5938 30.9375C28.1625 30.9375 27.8125 31.2875 27.8125 31.7188C27.8125 32.15 28.1625 32.5 28.5938 32.5C29.025 32.5 29.375 32.15 29.375 31.7188C29.375 31.2875 29.025 30.9375 28.5938 30.9375Z" fill="#5A8ABA"/>
<path d="M30.5173 28.4112L26.8041 27.1737L25.471 24.5075C26.672 23.2852 27.5058 21.6678 27.787 19.9809L27.9532 18.9844H29.375C30.6673 18.9844 31.7188 17.933 31.7188 16.6406V11.7188C31.7188 5.25703 26.4617 0 20 0C13.5217 0 8.28125 5.24195 8.28125 11.7188V16.6406C8.28125 17.6591 8.93445 18.5275 9.84375 18.85V19.7656C9.84375 21.058 10.8952 22.1094 12.1875 22.1094H12.8736C13.2123 22.8451 13.6506 23.5265 14.1841 24.1386C14.2947 24.2658 14.4101 24.3891 14.5283 24.509L13.1959 27.1737L9.48258 28.4113C5.165 29.8509 2.03125 34.3962 2.03125 39.2188C2.03125 39.6502 2.38102 40 2.8125 40H37.1875C37.6189 40 37.9688 39.6502 37.9688 39.2188C37.9688 34.3962 34.8351 29.8509 30.5173 28.4112ZM30.1562 16.6406C30.1562 17.0714 29.8058 17.4219 29.375 17.4219H28.1827C28.3813 15.8836 28.5136 14.2466 28.5668 12.6344C28.5684 12.5889 28.5696 12.5447 28.571 12.5H30.1562V16.6406ZM10.625 17.4219C10.1942 17.4219 9.84375 17.0714 9.84375 16.6406V12.5H11.4295C11.4321 12.5815 11.4348 12.6634 11.4379 12.7458C11.438 12.7486 11.4381 12.7513 11.4382 12.7541C11.4382 12.7544 11.4382 12.7546 11.4382 12.7548C11.4929 14.323 11.6235 15.9174 11.8176 17.4218H10.625V17.4219ZM12.1875 20.5469C11.7567 20.5469 11.4062 20.1964 11.4062 19.7656V18.9844H12.0467L12.213 19.9812C12.2447 20.1706 12.2837 20.3594 12.3287 20.5469H12.1875ZM11.4076 10.9375H9.87344C10.2691 5.70148 14.6388 1.5625 20 1.5625C25.3373 1.5625 29.7262 5.70094 30.1265 10.9375H28.5925C28.5363 6.62289 25.0227 3.125 20.6993 3.125H19.3009C14.9775 3.125 11.4637 6.62289 11.4076 10.9375ZM19.3008 4.6875H20.6992C24.1999 4.6875 27.0333 7.55086 27.0312 11.0477C27.0312 11.2935 27.0293 11.5076 27.0252 11.7023C27.0252 11.7048 27.0251 11.7074 27.0251 11.71L26.0479 11.5704C23.3932 11.1913 20.8866 9.93805 18.9899 8.04133C18.8434 7.89484 18.6447 7.8125 18.4375 7.8125C16.3394 7.8125 14.3309 8.76844 13.0033 10.3834C13.3305 7.20227 16.0198 4.6875 19.3008 4.6875ZM13.9484 20.5469C13.5573 19.2459 13.1098 15.4177 13.0109 12.9646L14.0624 11.5626C15.0281 10.2754 16.5305 9.47563 18.1287 9.38383C20.2316 11.3851 22.9521 12.7066 25.827 13.1171L26.9771 13.2815C26.9002 14.9131 26.7431 16.5505 26.518 18.0563C26.518 18.0568 26.5179 18.0573 26.5178 18.0579C26.4463 18.542 26.3898 18.8536 26.2458 19.7238C25.832 22.2055 23.9803 24.4496 21.5359 25.0608C20.5298 25.312 19.47 25.3119 18.4645 25.0608C16.9382 24.6792 15.5387 23.6231 14.6355 22.1094H16.2281C16.5506 23.0187 17.419 23.6719 18.4375 23.6719H20C21.2949 23.6719 22.3438 22.6231 22.3438 21.3281C22.3438 20.0358 21.2923 18.9844 20 18.9844H18.4375C17.3963 18.9844 16.5408 19.6569 16.2268 20.5469H13.9484ZM18.3718 26.6419C18.9077 26.7548 19.454 26.8125 20 26.8125C20.4274 26.8125 20.8549 26.7767 21.2776 26.7073L19.8971 28.1673L18.3718 26.6419ZM18.823 29.303L16.3451 31.9235C15.6629 30.6177 15.0767 29.2588 14.5959 27.8675L15.5265 26.0064L18.823 29.303ZM24.3411 25.7417L25.4039 27.8674C24.9223 29.261 24.336 30.6205 23.6545 31.9247L21.0023 29.2725L24.3411 25.7417ZM17.6562 21.3281C17.6562 20.8968 18.0061 20.5469 18.4375 20.5469H20C20.4308 20.5469 20.7812 20.8973 20.7812 21.3281C20.7812 21.7595 20.4313 22.1094 20 22.1094H18.4375C18.0067 22.1094 17.6562 21.7589 17.6562 21.3281ZM3.625 38.4375C3.93461 34.5673 6.51031 31.0495 9.97672 29.8935L13.2653 28.7976C13.8678 30.4636 14.6142 32.0829 15.489 33.621C15.4905 33.6237 15.4919 33.6263 15.4934 33.6289C15.4934 33.629 15.4934 33.629 15.4934 33.6291C16.1326 34.7532 16.852 35.8517 17.6319 36.8946L18.593 38.4375H3.625ZM20 37.7411L18.9405 36.0401C18.9286 36.021 18.9159 36.0025 18.9025 35.9845C18.2698 35.1406 17.6797 34.258 17.1422 33.3547L19.9284 30.4083L22.8641 33.3441C22.323 34.254 21.7309 35.1402 21.0977 35.9844C21.0594 36.0354 21.1137 35.955 20 37.7411ZM21.407 38.4375L22.368 36.8947C23.1514 35.8478 23.8759 34.7405 24.5215 33.6031C24.5254 33.5962 24.5291 33.5892 24.533 33.5823C24.5334 33.5815 24.5339 33.5807 24.5344 33.5798C25.398 32.0564 26.1366 30.4512 26.7347 28.7976L30.0232 29.8935C33.4897 31.0495 36.0654 34.5673 36.375 38.4375H21.407Z" fill="#5A8ABA"/>
<path d="M34.0269 35.2758C33.5048 34.2307 32.74 33.3023 31.8153 32.5909C31.4732 32.3277 30.9828 32.3916 30.7197 32.7337C30.4566 33.0757 30.5206 33.5662 30.8625 33.8293C31.6011 34.3975 32.2119 35.1391 32.629 35.9741C32.8222 36.3607 33.2918 36.5163 33.6771 36.3238C34.063 36.131 34.2196 35.6618 34.0269 35.2758Z" fill="#5A8ABA"/>
</svg>
