<svg width="37" height="37" viewBox="0 0 37 37" fill="none" xmlns="http://www.w3.org/2000/svg">
<g clip-path="url(#clip0)">
<path d="M11.2734 26.7385C10.8745 26.7385 10.5508 27.0623 10.5508 27.4612C10.5508 27.8601 10.8745 28.1838 11.2734 28.1838C11.6723 28.1838 11.9961 27.8601 11.9961 27.4612C11.9961 27.0623 11.6723 26.7385 11.2734 26.7385Z" fill="#5A8ABA"/>
<path d="M32.5299 13.7314L36.7884 9.47283C36.9676 9.29369 37.0397 9.03382 36.9788 8.78797C36.9179 8.54205 36.7326 8.34607 36.4905 8.27134L26.1204 5.0707C25.1856 2.06582 22.4071 0.000976562 19.2226 0.000976562C16.2623 0.000976562 13.6148 1.80509 12.519 4.52661L0.507482 8.27199C0.266042 8.34729 0.0814762 8.54342 0.0209899 8.78905C-0.0394963 9.03461 0.0327692 9.29405 0.211626 9.4729L4.58218 13.8435L1.82568 18.4377C1.71287 18.6257 1.69155 18.8547 1.76758 19.0603C1.8436 19.2659 2.00887 19.4258 2.21685 19.4951L6.2148 20.8277V31.9423C6.2148 32.2435 6.40168 32.5131 6.68373 32.6189C9.12826 33.5355 18.211 36.942 18.2597 36.9593C18.4031 37.0098 18.5646 37.0167 18.7221 36.9657C18.7242 36.965 18.7264 36.9646 18.7285 36.9638L31.7363 32.6279C32.0313 32.5295 32.2304 32.2533 32.2304 31.9423V20.5301L36.4939 19.1903C36.735 19.1146 36.919 18.9185 36.9792 18.673C37.0393 18.4276 36.967 18.1686 36.7883 17.9899L32.5299 13.7314ZM26.4492 7.22754C26.4492 7.04391 26.4414 6.86072 26.4276 6.6781L34.9184 9.29882L31.3126 12.9046L25.4209 10.9409C26.088 9.82578 26.4492 8.53902 26.4492 7.22754ZM13.754 5.34661C14.5563 3.01373 16.7539 1.44629 19.2226 1.44629C21.882 1.44629 24.1886 3.24512 24.8317 5.82067C24.946 6.27833 25.0038 6.75167 25.0038 7.22754C25.0038 8.5698 24.5584 9.82787 23.7155 10.8663C22.6115 12.2279 20.9739 13.0088 19.2226 13.0088C17.3295 13.0088 15.5539 12.0796 14.4724 10.5226C13.7979 9.55377 13.4414 8.41429 13.4414 7.22754C13.4414 6.58213 13.5465 5.9493 13.754 5.34661ZM2.07868 9.296L12.073 6.17962C12.0229 6.5249 11.996 6.87467 11.996 7.22747C11.996 8.39102 12.2717 9.518 12.797 10.5348L5.68733 12.9046L2.07868 9.296ZM3.52854 18.4088L5.81358 14.6003L17.4168 18.468L15.1318 22.2766C13.8928 21.8636 4.85144 18.8497 3.52854 18.4088ZM17.7773 35.2355L7.66011 31.4416V21.3095C15.6202 23.9488 15.2314 23.8682 15.4531 23.8682C15.7015 23.8682 15.9394 23.7397 16.0729 23.5173L17.7773 20.6765V35.2355ZM18.4999 17.3056L7.77747 13.7315L13.6161 11.7854C14.9826 13.4654 17.0398 14.4541 19.2226 14.4541C21.2418 14.4541 23.1396 13.6231 24.5046 12.159L29.2224 13.7314L18.4999 17.3056ZM30.7851 31.4215L19.2226 35.2756V20.1273L21.7845 23.3294C21.9709 23.5623 22.2811 23.6567 22.5655 23.5674L30.7851 20.9844V31.4215ZM22.604 22.0403L19.7117 18.4252L31.3126 14.5582L34.9232 18.1689L22.604 22.0403Z" fill="#5A8ABA"/>
<path d="M15.8631 28.3423L14.2559 27.7397C13.8822 27.5996 13.4657 27.7889 13.3255 28.1625C13.1854 28.5363 13.3747 28.9528 13.7484 29.093L15.3556 29.6957C15.7301 29.836 16.1461 29.6458 16.286 29.2728C16.4261 28.8991 16.2368 28.4825 15.8631 28.3423Z" fill="#5A8ABA"/>
<path d="M15.8634 31.4296L11.5274 29.8036C11.1537 29.6635 10.7372 29.8529 10.597 30.2265C10.4568 30.6002 10.6462 31.0168 11.0199 31.157L15.3559 32.7829C15.4395 32.8143 15.5252 32.8292 15.6095 32.8292C15.9021 32.8292 16.1774 32.6502 16.2863 32.3601C16.4265 31.9863 16.2371 31.5698 15.8634 31.4296Z" fill="#5A8ABA"/>
<path d="M23.3471 4.54773C23.0649 4.26547 22.6073 4.26554 22.325 4.54773L18.5001 8.37276L17.5658 7.43843C17.2836 7.15624 16.826 7.15624 16.5437 7.43843C16.2614 7.72063 16.2615 8.17822 16.5437 8.46049L17.9891 9.90573C18.2713 10.1879 18.7289 10.1879 19.0111 9.90573L23.3471 5.56979C23.6293 5.28759 23.6293 4.83 23.3471 4.54773Z" fill="#5A8ABA"/>
</g>
<defs>
<clipPath id="clip0">
<rect width="37" height="37" fill="white"/>
</clipPath>
</defs>
</svg>
