<svg width="42" height="42" viewBox="0 0 42 42" fill="none" xmlns="http://www.w3.org/2000/svg">
<g clip-path="url(#clip0)">
<path d="M8.77734 15.586C8.77734 22.3708 14.2972 27.8907 21.0821 27.8907C27.8669 27.8907 33.3868 22.3708 33.3868 15.586C33.3868 8.80106 27.8669 3.28125 21.0821 3.28125C14.2972 3.28125 8.77734 8.80106 8.77734 15.586ZM21.0821 4.92188C26.9624 4.92188 31.7461 9.70565 31.7461 15.586C31.7461 21.4663 26.9624 26.25 21.0821 26.25C15.2017 26.25 10.418 21.4663 10.418 15.586C10.418 9.70565 15.2017 4.92188 21.0821 4.92188Z" fill="#5A8ABA"/>
<path d="M13.4849 14.1236L16.6645 17.2564L15.933 21.6596C15.882 21.9662 16.0086 22.2751 16.2602 22.4578C16.5114 22.6404 16.8443 22.6651 17.1202 22.5222L21.0817 20.465L25.043 22.5222C25.3166 22.6641 25.6496 22.642 25.903 22.4578C26.1546 22.2751 26.2811 21.9662 26.2302 21.6596L25.4986 17.2564L28.6783 14.1236C28.8997 13.9057 28.9789 13.5814 28.8827 13.2856C28.7866 12.9902 28.5319 12.7745 28.2246 12.7281L23.8119 12.0638L21.8152 8.07085C21.6765 7.79303 21.3923 7.61743 21.0817 7.61743C20.7709 7.61743 20.487 7.79303 20.348 8.07085L18.3513 12.0638L13.9386 12.7281C13.6313 12.7742 13.3766 12.9902 13.2804 13.2856C13.1843 13.5814 13.2638 13.9057 13.4849 14.1236ZM19.0169 13.6227C19.2809 13.583 19.5091 13.4173 19.6286 13.1786L21.0817 10.2719L22.5349 13.1786C22.6544 13.4173 22.8826 13.583 23.1466 13.6227L26.3584 14.1062L24.0439 16.3861C23.8538 16.5736 23.7667 16.8418 23.8103 17.1052L24.3428 20.3099L21.4595 18.8128C21.3413 18.7513 21.2115 18.7205 21.0817 18.7205C20.952 18.7205 20.8222 18.7513 20.7036 18.8128L17.8204 20.3099L18.3529 17.1052C18.3968 16.8418 18.3097 16.5736 18.1193 16.3861L15.8051 14.1062L19.0169 13.6227Z" fill="#5A8ABA"/>
<path d="M21.9023 0.820314C21.9023 1.27341 21.5351 1.64063 21.082 1.64063C20.6289 1.64063 20.2617 1.27341 20.2617 0.820314C20.2617 0.367219 20.6289 0 21.082 0C21.5351 0 21.9023 0.367219 21.9023 0.820314Z" fill="#5A8ABA"/>
<path d="M17.216 0.483488C10.3154 2.24492 5.49609 8.45526 5.49609 15.5859C5.49609 20.0146 7.35814 24.1877 10.6269 27.143L5.68483 35.8528C5.52589 36.1331 5.54576 36.4805 5.73546 36.7407C5.92516 37.0012 6.24944 37.1265 6.56507 37.0608L12.1775 35.8954L14.1501 41.454C14.2571 41.7565 14.5311 41.9683 14.8509 41.9968C15.1707 42.0253 15.4773 41.8641 15.6359 41.585L21.0821 32.0104L26.5278 41.585C26.6746 41.843 26.9476 41.9997 27.2405 41.9997C27.2645 41.9997 27.2889 41.9987 27.3129 41.9968C27.6327 41.9683 27.9067 41.7561 28.014 41.454L29.9863 35.8954L35.5987 37.0608C35.914 37.1262 36.2386 37.0009 36.4283 36.7407C36.6183 36.4805 36.6379 36.1331 36.479 35.8528L31.5369 27.143C34.8056 24.1877 36.6677 20.0146 36.6677 15.5859C36.6677 8.45526 31.8484 2.24492 24.9481 0.483488C24.5088 0.371336 24.0624 0.636335 23.9503 1.07533C23.8381 1.51433 24.1031 1.96101 24.5421 2.07316C30.7156 3.64906 35.0274 9.20572 35.0274 15.5859C35.0274 23.351 28.7209 29.5312 21.0821 29.5312C13.4378 29.5312 7.13672 23.3459 7.13672 15.5859C7.13672 9.20572 11.4482 3.64906 17.6217 2.07316C18.0607 1.96101 18.3257 1.51433 18.2138 1.07533C18.1017 0.636335 17.6553 0.371336 17.216 0.483488ZM15.0966 39.2154L13.4845 34.6726C13.3474 34.2862 12.9462 34.0602 12.5447 34.1436L8.00638 35.086L11.9176 28.1928C14.1981 29.8507 16.8985 30.8607 19.7064 31.1106L15.0966 39.2154ZM29.6191 34.1436C29.2179 34.0602 28.8164 34.2862 28.6792 34.6726L27.0675 39.2154L22.4574 31.1106C25.2657 30.8607 27.9656 29.8507 30.2465 28.1928L34.1577 35.086L29.6191 34.1436Z" fill="#5A8ABA"/>
</g>
<defs>
<clipPath id="clip0">
<rect width="42" height="42" fill="white"/>
</clipPath>
</defs>
</svg>
