<svg width="37" height="37" viewBox="0 0 37 37" fill="none" xmlns="http://www.w3.org/2000/svg">
<path d="M26.6233 33.4642C26.4054 33.1298 25.9577 33.0352 25.6232 33.2531C23.3118 34.7587 20.6249 35.5546 17.8533 35.5546C9.99272 35.5546 3.59765 29.1596 3.59765 21.2991C3.59765 18.4447 4.43803 15.6908 6.02809 13.3348C6.25139 13.0039 6.16417 12.5548 5.83333 12.3315C5.50257 12.1082 5.0533 12.1954 4.83 12.5263C3.07835 15.1219 2.15234 18.1556 2.15234 21.2991C2.15234 25.493 3.78554 29.4358 6.75103 32.4014C9.71652 35.3669 13.6594 37 17.8533 37C20.9057 37 23.8652 36.1232 26.4122 34.4643C26.7467 34.2464 26.8412 33.7987 26.6233 33.4642Z" fill="#5A8ABA"/>
<path d="M29.0516 31.2728C28.7666 30.9934 28.3091 30.9979 28.0296 31.2829L28.0056 31.3072C27.7245 31.5905 27.7263 32.0481 28.0095 32.3293C28.1505 32.4691 28.3345 32.5389 28.5186 32.5389C28.7044 32.5389 28.8903 32.4677 29.0316 32.3252L29.0615 32.2949C29.341 32.0099 29.3366 31.5523 29.0516 31.2728Z" fill="#5A8ABA"/>
<path d="M31.9781 11.8435C32.1193 11.9847 32.3042 12.0552 32.4891 12.0552C32.6741 12.0552 32.859 11.9846 33.0001 11.8435L34.2039 10.6397C35.0616 9.78186 35.0616 8.38605 34.2039 7.52819L31.6241 4.94831C31.2085 4.53278 30.6559 4.30392 30.0683 4.30392C29.4806 4.30392 28.9281 4.53278 28.5126 4.94831L27.3088 6.15203C27.1733 6.28753 27.0971 6.47137 27.0971 6.66302C27.0971 6.85467 27.1733 7.03851 27.3088 7.17401L27.6505 7.51576L26.7846 8.38164C24.9485 7.1063 22.872 6.2462 20.6719 5.84967V4.62521H22.2618C22.6608 4.62521 22.9844 4.30168 22.9844 3.90255V0.722655C22.9844 0.323533 22.6608 0 22.2618 0H13.445C13.046 0 12.7224 0.323533 12.7224 0.722655V3.90248C12.7224 4.3016 13.046 4.62514 13.445 4.62514H15.0349V5.85112C12.9665 6.22618 10.9928 7.01387 9.22045 8.18255C8.88723 8.40231 8.79524 8.8505 9.01493 9.18379C9.23476 9.517 9.68302 9.609 10.0162 9.38924C12.3433 7.85468 15.0534 7.04357 17.8534 7.04357C25.714 7.04357 32.109 13.4386 32.109 21.2992C32.109 23.9648 31.3689 26.5642 29.9686 28.816C29.7579 29.1549 29.8617 29.6005 30.2007 29.8114C30.3195 29.8853 30.4513 29.9204 30.5816 29.9204C30.8231 29.9204 31.0591 29.7995 31.196 29.5793C32.739 27.0981 33.5544 24.2349 33.5544 21.2992C33.5544 18.0607 32.5798 14.9725 30.7707 12.3679L31.6366 11.502L31.9781 11.8435ZM19.2264 5.65817C18.7723 5.61908 18.3145 5.59819 17.8533 5.59819C17.393 5.59812 16.935 5.6185 16.4802 5.65803V4.62521H19.2263V5.65817H19.2264ZM15.7576 3.17983H14.1677V1.44538H21.539V3.17983H19.9491H15.7576ZM29.884 11.2102C29.5905 10.8615 29.2816 10.5229 28.9554 10.1968C28.6294 9.87074 28.2908 9.56181 27.9421 9.26827L28.6724 8.53788L30.6143 10.4797L29.884 11.2102ZM29.1836 7.00491C29.1834 7.00477 29.1833 7.00469 29.1831 7.00455L28.8418 6.66324L29.5346 5.9705C29.6772 5.82792 29.8667 5.74944 30.0683 5.74944C30.2699 5.74944 30.4594 5.82792 30.602 5.97057L33.1819 8.55038C33.4761 8.84465 33.4761 9.32355 33.1819 9.61789L32.4891 10.3106L32.1485 9.96989C32.1481 9.96953 32.1478 9.96917 32.1475 9.96881L29.1836 7.00491Z" fill="#5A8ABA"/>
<path d="M17.8535 11.056C17.4545 11.056 17.1309 11.3796 17.1309 11.7787V13.3686C17.1309 13.7677 17.4544 14.0913 17.8535 14.0913C18.2526 14.0913 18.5762 13.7677 18.5762 13.3686V11.7787C18.5762 11.3796 18.2526 11.056 17.8535 11.056Z" fill="#5A8ABA"/>
<path d="M25.0959 14.0562C24.9615 13.9218 24.7751 13.8445 24.585 13.8445C24.3949 13.8445 24.2085 13.9218 24.0741 14.0562C23.9397 14.1906 23.8623 14.3771 23.8623 14.5671C23.8623 14.7579 23.9396 14.9436 24.0741 15.0781C24.2085 15.2125 24.3949 15.2898 24.585 15.2898C24.7751 15.2898 24.9615 15.2125 25.0959 15.0781C25.2303 14.9436 25.3076 14.7572 25.3076 14.5671C25.3076 14.3771 25.2304 14.1906 25.0959 14.0562Z" fill="#5A8ABA"/>
<path d="M27.3741 20.5763H25.7842C25.3851 20.5763 25.0615 20.8998 25.0615 21.2989C25.0615 21.6981 25.3851 22.0216 25.7842 22.0216H27.3741C27.7731 22.0216 28.0967 21.6981 28.0967 21.2989C28.0967 20.8998 27.7731 20.5763 27.3741 20.5763Z" fill="#5A8ABA"/>
<path d="M25.0959 27.5197C24.9615 27.3853 24.7751 27.308 24.585 27.308C24.3949 27.308 24.2085 27.3853 24.0741 27.5197C23.9397 27.6541 23.8623 27.8406 23.8623 28.0306C23.8623 28.2214 23.9396 28.4079 24.0741 28.5416C24.2085 28.6767 24.3949 28.7533 24.585 28.7533C24.7751 28.7533 24.9615 28.6767 25.0959 28.5416C25.2303 28.4071 25.3076 28.2214 25.3076 28.0306C25.3076 27.8406 25.2304 27.6549 25.0959 27.5197Z" fill="#5A8ABA"/>
<path d="M17.8535 28.5067C17.4545 28.5067 17.1309 28.8302 17.1309 29.2294V30.8193C17.1309 31.2184 17.4545 31.5419 17.8535 31.5419C18.2526 31.5419 18.5762 31.2184 18.5762 30.8193V29.2294C18.5762 28.8303 18.2526 28.5067 17.8535 28.5067Z" fill="#5A8ABA"/>
<path d="M11.633 27.5197C11.4985 27.3853 11.3121 27.308 11.1221 27.308C10.932 27.308 10.7456 27.3853 10.6112 27.5197C10.4768 27.6541 10.3994 27.8406 10.3994 28.0306C10.3994 28.2214 10.4767 28.4071 10.6112 28.5416C10.7456 28.6767 10.932 28.7533 11.1221 28.7533C11.3121 28.7533 11.4986 28.6767 11.633 28.5416C11.7674 28.4071 11.8447 28.2214 11.8447 28.0306C11.8448 27.8406 11.7675 27.6541 11.633 27.5197Z" fill="#5A8ABA"/>
<path d="M9.92292 20.5763H8.33301C7.93396 20.5763 7.61035 20.8998 7.61035 21.2989C7.61035 21.6981 7.93396 22.0216 8.33301 22.0216H9.92292C10.322 22.0216 10.6456 21.6981 10.6456 21.2989C10.6456 20.8998 10.322 20.5763 9.92292 20.5763Z" fill="#5A8ABA"/>
<path d="M11.633 14.0562C11.4986 13.9218 11.3121 13.8445 11.1221 13.8445C10.932 13.8445 10.7456 13.9218 10.6112 14.0562C10.4768 14.1906 10.3994 14.3771 10.3994 14.5671C10.3994 14.7572 10.4767 14.9436 10.6112 15.0781C10.7456 15.2125 10.932 15.2898 11.1221 15.2898C11.3121 15.2898 11.4986 15.2125 11.633 15.0781C11.7674 14.9436 11.8447 14.7572 11.8447 14.5671C11.8447 14.3771 11.7675 14.1906 11.633 14.0562Z" fill="#5A8ABA"/>
<path d="M23.4959 15.6566C23.2606 15.4214 22.8952 15.3771 22.6107 15.5494L16.6453 19.1608C16.5808 19.1975 16.4904 19.2506 16.4293 19.2987C15.8049 19.7447 15.3965 20.4748 15.3965 21.2989C15.3965 22.6539 16.4987 23.7561 17.8536 23.7561C18.6745 23.7561 19.4023 23.351 19.8487 22.7305C19.9021 22.6644 19.9519 22.5776 19.9924 22.5061L23.6031 16.5419C23.7754 16.2573 23.7311 15.8919 23.4959 15.6566ZM18.7473 21.7719L18.6876 21.8705C18.505 22.1361 18.1994 22.3108 17.8535 22.3108C17.2957 22.3108 16.8418 21.857 16.8418 21.2991C16.8418 20.9531 17.0166 20.6473 17.2823 20.4648L17.3803 20.4055C17.5216 20.3303 17.6825 20.2874 17.8534 20.2874C18.4113 20.2874 18.8652 20.7412 18.8652 21.2992C18.8652 21.4699 18.8223 21.6307 18.7473 21.7719ZM19.8766 19.9067C19.7064 19.6602 19.4925 19.4463 19.2459 19.2761L20.8441 18.3086L19.8766 19.9067Z" fill="#5A8ABA"/>
<path d="M17.854 8.78015C10.951 8.78015 5.33496 14.396 5.33496 21.2991C5.33496 28.2021 10.9509 33.818 17.854 33.818C24.7571 33.818 30.373 28.2021 30.373 21.2991C30.373 14.396 24.757 8.78015 17.854 8.78015ZM17.854 32.3727C11.748 32.3727 6.78034 27.4051 6.78034 21.2991C6.78034 15.1931 11.7479 10.2255 17.854 10.2255C23.96 10.2255 28.9276 15.1931 28.9276 21.2991C28.9276 27.4051 23.96 32.3727 17.854 32.3727Z" fill="#5A8ABA"/>
<path d="M7.81756 10.1529C7.68307 10.0185 7.4967 9.94116 7.30664 9.94116C7.11658 9.94116 6.93014 10.0185 6.79579 10.1529C6.66138 10.2873 6.58398 10.4738 6.58398 10.6638C6.58398 10.8546 6.66131 11.0403 6.79579 11.1747C6.93014 11.3091 7.11658 11.3865 7.30664 11.3865C7.4967 11.3865 7.68314 11.3091 7.81756 11.1747C7.95197 11.0403 8.02929 10.8539 8.02929 10.6638C8.02929 10.4738 7.95204 10.2874 7.81756 10.1529Z" fill="#5A8ABA"/>
</svg>
