<svg width="37" height="37" viewBox="0 0 37 37" fill="none" xmlns="http://www.w3.org/2000/svg">
<g clip-path="url(#clip0)">
<path d="M34.5402 18.9792C34.3913 18.6746 34.3913 18.3253 34.5402 18.0208L35.9201 15.1977C36.6885 13.6259 36.0797 11.7524 34.5342 10.9324L31.7585 9.45967C31.4591 9.30083 31.2538 9.01813 31.1952 8.68434L30.6523 5.58929C30.35 3.86606 28.756 2.70808 27.024 2.95313L23.9128 3.39323C23.577 3.44063 23.2449 3.33267 23.0013 3.09701L20.7429 0.912289C19.4854 -0.304223 17.5155 -0.304295 16.2581 0.912289L13.9996 3.09723C13.756 3.33296 13.4239 3.4407 13.0882 3.39344L9.97693 2.95335C8.24437 2.70815 6.65092 3.86627 6.34864 5.58951L5.80578 8.68441C5.74717 9.01828 5.54187 9.30091 5.24247 9.45982L2.46677 10.9326C0.921304 11.7525 0.312542 13.6261 1.08087 15.198L2.46077 18.0209C2.60964 18.3255 2.60964 18.6749 2.46077 18.9794L1.08079 21.8024C0.31247 23.3742 0.921232 25.2477 2.4667 26.0677L5.2424 27.5404C5.54187 27.6993 5.74717 27.982 5.80578 28.3158L6.34864 31.4108C6.62382 32.9795 7.96897 34.0797 9.51494 34.0796C9.6672 34.0796 9.8217 34.0689 9.977 34.0469L13.0882 33.6068C13.4238 33.5592 13.756 33.6674 13.9997 33.903L16.2581 36.0877C16.8869 36.6961 17.6936 37.0002 18.5005 37.0001C19.3072 37 20.1143 36.6959 20.7429 36.0877L23.0013 33.903C23.245 33.6674 23.5771 33.5597 23.9128 33.6068L27.024 34.0469C28.7568 34.292 30.35 33.134 30.6523 31.4107L31.1952 28.3158C31.2538 27.982 31.4591 27.6993 31.7585 27.5404L34.5342 26.0677C36.0797 25.2477 36.6885 23.3741 35.9201 21.8023L34.5402 18.9792ZM33.534 24.1825L30.7583 25.6552C29.8733 26.1249 29.2664 26.9601 29.0933 27.947L28.5505 31.042C28.4482 31.625 27.9092 32.0166 27.3229 31.9339L24.2117 31.4938C23.2195 31.3532 22.2377 31.6725 21.5175 32.3691L19.2591 34.5538C18.8338 34.9652 18.1673 34.9652 17.7418 34.5538L15.4834 32.369C14.8748 31.7803 14.0791 31.4612 13.2485 31.4612C13.0963 31.4612 12.9429 31.4719 12.7893 31.4937L9.67804 31.9338C9.09226 32.0166 8.5528 31.6249 8.45047 31.0419L7.90754 27.9468C7.7344 26.96 7.12751 26.1247 6.24248 25.6552L3.46677 24.1824C2.94386 23.905 2.73791 23.2711 2.99784 22.7393L4.37782 19.9163C4.81777 19.0162 4.81777 17.9838 4.37782 17.0837L2.99784 14.2606C2.73791 13.7288 2.94386 13.095 3.46677 12.8175L6.24248 11.3448C7.12744 10.8751 7.7344 10.0399 7.90747 9.05304L8.45033 5.95806C8.55265 5.37503 9.09161 4.98335 9.6779 5.06617L12.7891 5.50626C13.781 5.64667 14.7631 5.32748 15.4832 4.63091L17.7417 2.44619C18.167 2.03471 18.8335 2.03471 19.259 2.44619L21.5174 4.63091C22.2375 5.32755 23.2195 5.64667 24.2115 5.50626L27.3227 5.06617C27.9086 4.98328 28.4481 5.37503 28.5503 5.95806L29.0932 9.05311C29.2663 10.04 29.8732 10.8753 30.7582 11.3448L33.5339 12.8175C34.0569 13.095 34.2628 13.7288 34.0029 14.2606L32.6229 17.0836C32.1829 17.9836 32.1829 19.0162 32.6229 19.9162L34.0029 22.7392C34.2629 23.2711 34.0569 23.9051 33.534 24.1825Z" fill="#5A8ABA"/>
<path d="M26.2968 10.7036C25.8802 10.2869 25.2045 10.2869 24.7878 10.7036L10.7041 24.7874C10.2874 25.2041 10.2874 25.8797 10.7041 26.2964C10.9125 26.5047 11.1855 26.6089 11.4586 26.6089C11.7316 26.6089 12.0047 26.5048 12.213 26.2964L26.2967 12.2127C26.7135 11.7959 26.7135 11.1204 26.2968 10.7036Z" fill="#5A8ABA"/>
<path d="M14.2317 8.89697C12.0744 8.89697 10.3193 10.6521 10.3193 12.8093C10.3193 14.9666 12.0744 16.7217 14.2317 16.7217C16.389 16.7217 18.1441 14.9666 18.1441 12.8093C18.1441 10.6521 16.389 8.89697 14.2317 8.89697ZM14.2317 14.5876C13.2511 14.5876 12.4534 13.7899 12.4534 12.8093C12.4534 11.8287 13.2511 11.031 14.2317 11.031C15.2123 11.031 16.0101 11.8287 16.0101 12.8093C16.01 13.7899 15.2123 14.5876 14.2317 14.5876Z" fill="#5A8ABA"/>
<path d="M22.7678 20.2783C20.6106 20.2783 18.8555 22.0334 18.8555 24.1907C18.8555 26.3479 20.6106 28.1031 22.7678 28.1031C24.9251 28.1031 26.6802 26.3479 26.6802 24.1907C26.6802 22.0334 24.9251 20.2783 22.7678 20.2783ZM22.7678 25.969C21.7873 25.969 20.9895 25.1713 20.9895 24.1907C20.9895 23.2101 21.7872 22.4124 22.7678 22.4124C23.7484 22.4124 24.5461 23.2101 24.5461 24.1907C24.5461 25.1713 23.7484 25.969 22.7678 25.969Z" fill="#5A8ABA"/>
</g>
<defs>
<clipPath id="clip0">
<rect width="37" height="37" fill="white"/>
</clipPath>
</defs>
</svg>
