<svg width="157" height="44" viewBox="0 0 157 44" fill="none" xmlns="http://www.w3.org/2000/svg">
<path d="M14.3164 37.934C15.2202 37.934 15.8555 38.464 15.8555 39.2626C15.8555 39.7454 15.6885 40.0794 15.3872 40.3008C15.9136 40.5222 16.2257 41.0123 16.2257 41.6366C16.2257 42.5223 15.5615 43.2519 14.5197 43.2519H11.0894V37.9304H14.3164V37.934ZM11.8081 40.1157H14.4253C14.8972 40.1157 15.144 39.7672 15.144 39.386C15.144 38.9722 14.9335 38.6274 14.251 38.6274H11.8081V40.1157ZM11.8081 42.5586H14.4797C15.1694 42.5586 15.5034 42.1448 15.5034 41.6439C15.5034 41.1066 15.144 40.7872 14.6286 40.7872H11.8081V42.5586Z" fill="#F16522"/>
<path d="M21.987 37.9341V42.2719L25.7476 37.9341H26.4845V43.2557H25.7658V38.9469L22.0124 43.2557H21.2646V37.9341H21.987Z" fill="#F16522"/>
<path d="M35.0511 40.0396C35.5302 40.0396 35.8424 39.829 35.8424 39.368C35.8424 38.78 35.2907 38.4823 34.1291 38.4823C33.2797 38.4823 32.7097 38.6565 32.0636 39.0595L31.7514 38.4714C32.5246 37.9886 33.2833 37.8071 34.1291 37.8071C34.7462 37.8071 35.3996 37.9015 35.8823 38.1737C36.2962 38.4061 36.572 38.7618 36.572 39.3281C36.572 39.7818 36.3869 40.0795 36.0275 40.2719C36.6083 40.4534 36.9132 40.9543 36.9132 41.5714C36.9132 42.0832 36.6737 42.5152 36.2671 42.8419C35.788 43.2158 35.0039 43.39 34.0928 43.39C33.0691 43.39 32.2778 43.1795 31.501 42.6785L31.8313 42.0832C32.5428 42.5152 33.2216 42.7076 34.1545 42.7076C35.3887 42.7076 36.1836 42.3228 36.1836 41.5532C36.1836 41.0342 35.8969 40.7147 35.1128 40.7147H33.1599V40.0432H35.0511V40.0396Z" fill="#F16522"/>
<path d="M44.656 43.3863C43.0516 43.3863 41.8174 42.2792 41.8174 40.5949C41.8174 38.9106 43.0516 37.8035 44.656 37.8035C46.2604 37.8035 47.4946 38.9106 47.4946 40.5949C47.4946 42.2828 46.2604 43.3863 44.656 43.3863ZM44.656 42.7148C45.8357 42.7148 46.7686 41.9344 46.7686 40.5985C46.7686 39.2627 45.8357 38.4823 44.656 38.4823C43.4654 38.4823 42.5434 39.2627 42.5361 40.5985C42.547 41.9344 43.469 42.7148 44.656 42.7148Z" fill="#F16522"/>
<path d="M55.8213 37.934C56.7251 37.934 57.3604 38.464 57.3604 39.2626C57.3604 39.7454 57.1934 40.0794 56.8921 40.3008C57.4185 40.5222 57.7306 41.0123 57.7306 41.6366C57.7306 42.5223 57.0663 43.2519 56.0245 43.2519H52.5942V37.9304H55.8213V37.934ZM53.313 40.1157H55.9302C56.4021 40.1157 56.6489 39.7672 56.6489 39.386C56.6489 38.9722 56.4384 38.6274 55.7559 38.6274H53.313V40.1157ZM53.313 42.5586H55.9846C56.6743 42.5586 57.0083 42.1448 57.0083 41.6439C57.0083 41.1066 56.6489 40.7872 56.1334 40.7872H53.313V42.5586Z" fill="#F16522"/>
<path d="M63.4917 37.934V39.2808H65.6043C66.755 39.2808 67.6226 40.0394 67.6226 41.2518C67.6226 42.4751 66.755 43.2519 65.6043 43.2519H62.7729V37.9304H63.4917V37.934ZM63.4917 42.5586H65.5462C66.3775 42.5586 66.893 42.0795 66.893 41.2518C66.893 40.4242 66.3775 39.9741 65.5462 39.9741H63.4917V42.5586ZM69.0237 37.934V43.2556H68.305V37.934H69.0237Z" fill="#F16522"/>
<path d="M74.9948 37.9341V42.2719L78.7555 37.9341H79.4923V43.2556H78.7736V38.9469L75.0202 43.2556H74.2725V37.9341H74.9948ZM78.2763 36.7689C77.8807 37.288 77.4088 37.4985 76.8751 37.4985C76.3415 37.4985 75.8696 37.288 75.4812 36.7689L75.8769 36.395C76.1528 36.7217 76.4577 36.896 76.8715 36.896C77.2853 36.896 77.6011 36.7217 77.877 36.395L78.2763 36.7689Z" fill="#F16522"/>
<path d="M96.2736 40.2029C96.1356 39.1539 95.3624 38.5005 94.2371 38.5005C93.3696 38.5005 92.7525 38.8272 92.3278 39.4043L91.7579 39.0595C92.2915 38.25 93.0865 37.8108 94.2299 37.8108C95.8234 37.8108 97.0504 38.8671 97.0504 40.5913C97.0504 42.3228 95.8416 43.39 94.219 43.39C93.0865 43.39 92.2734 42.929 91.7397 42.1305L92.3205 41.7747C92.7634 42.3519 93.3514 42.7003 94.2371 42.7003C95.3697 42.7003 96.1901 41.949 96.2917 40.8709H93.6564V40.2066H96.2736V40.2029Z" fill="#F16522"/>
<path d="M102.83 37.9341V40.0795H104.884L106.303 37.9341H107.142L105.53 40.388L107.28 43.2557H106.423L104.913 40.7728H102.83V43.2557H102.111V37.9341H102.83Z" fill="#F16522"/>
<path d="M116.387 39.4152C115.963 38.8271 115.345 38.5005 114.471 38.5005C113.218 38.5005 112.405 39.3281 112.405 40.5877C112.405 41.8182 113.244 42.7039 114.471 42.7039C115.364 42.7039 115.944 42.3664 116.387 41.771L116.979 42.1268C116.445 42.9254 115.632 43.3864 114.5 43.3864C112.87 43.3864 111.679 42.3192 111.679 40.5877C111.679 38.8671 112.895 37.8071 114.5 37.8071C115.589 37.8071 116.445 38.2609 116.972 39.0558L116.387 39.4152Z" fill="#F16522"/>
<path d="M126.972 37.9341V43.2557H126.253V38.6202H122.761V43.2557H122.042V37.9341H126.972Z" fill="#F16522"/>
<path d="M136.715 37.934V38.6165H132.936V40.1846H136.331V40.8671H132.936V42.5586H136.853V43.2519H132.218V37.9304H136.715V37.934Z" fill="#F16522"/>
<path d="M144.995 37.9341C146.145 37.9341 147.049 38.7436 147.049 39.956C147.049 41.1866 146.138 41.967 144.995 41.967H142.744V43.2557H142.025V37.9341H144.995ZM142.744 41.2701H144.984C145.775 41.2701 146.331 40.78 146.331 39.9524C146.331 39.1429 145.779 38.6238 144.984 38.6238H142.744V41.2701Z" fill="#F16522"/>
<path d="M157 37.9341V38.6275H154.742V43.2557H154.012V38.6275H151.754V37.9341H157Z" fill="#F16522"/>
<path d="M84.1245 16.3358H91.4098V31.2114H95.4609V16.3358H102.746V12.557H84.1245V16.3358Z" fill="#035297"/>
<path d="M109.908 12.5572H105.86V31.2152H109.908V12.5572Z" fill="#035297"/>
<path d="M125.321 26.086H125.161L118.878 12.5572H113.469V31.2115H117.386V18.1546H117.582L123.412 31.2115H126.813L132.868 18.1546H133.064V31.2115H137.046V12.5572H131.866L125.321 26.086Z" fill="#035297"/>
<path d="M144.335 27.3348V23.6213H155.315V19.8098H144.335V16.3686H156.546V12.5572H140.287V31.2115H156.999V27.3348H144.335Z" fill="#035297"/>
<path d="M70.2978 9.74748L69.3649 9.68214L68.893 9.98705L71.4884 10.8909L79.7502 6.36073L78.6504 8.89444L79.6776 8.17207L82.2113 4.62197L86.5673 0.992013C86.5673 0.992013 86.5782 0.981126 86.5963 0.955717C86.9267 0.560051 86.6036 -0.0280039 86.0881 0.00103572C85.5799 0.0300754 84.9157 -0.0243769 84.5091 0.0264426C84.5091 0.0264426 83.8122 0.0300745 82.5417 1.02105L78.2692 3.95406L71.4739 4.54211L70.5773 5.27174L75.7791 5.95417L72.4213 8.48062L69.953 7.82723L68.668 8.24468L70.4829 9.64947L70.2978 9.74748Z" fill="#035297"/>
<path d="M24.7889 12.5569H20.3531L17.1587 20.6662C18.4836 20.7533 19.863 20.8296 21.2896 20.8913L24.7889 12.5569Z" fill="#035297"/>
<path d="M10.719 20.1181L7.72429 12.5569H3.22314L6.18882 19.5845C7.52828 19.7623 9.04923 19.9438 10.719 20.1181Z" fill="#035297"/>
<path d="M31.4322 12.5569H27.3848V21.0365C28.7097 21.0437 30.0564 21.0365 31.4322 21.0111V12.5569Z" fill="#035297"/>
<path d="M46.2748 19.9657L41.2764 19.3704C39.8825 19.1998 38.9459 18.9312 38.9459 17.8531C38.9459 16.8077 39.7881 15.8639 43.2874 15.8639C46.1369 15.8639 48.2749 16.4701 50.3803 17.991L52.3223 14.8874C49.5382 12.7276 46.6233 12.1214 43.2874 12.1214C38.7209 12.1214 34.9639 13.9436 34.9639 17.8894C34.9639 19.1163 35.247 20.0928 35.7697 20.866C39.1783 20.699 42.7029 20.4122 46.2748 19.9657Z" fill="#035297"/>
<path d="M68.8095 12.5569H62.2356L60.2246 17.3666C63.379 16.5607 66.5081 15.5952 69.5826 14.4445L68.8095 12.5569Z" fill="#035297"/>
<path d="M89.9867 3.39508C85.2351 7.56227 79.9099 10.851 74.2835 13.4428C45.8028 26.5579 9.6085 21.6102 0.773183 20.1183C0.551756 20.082 0.337586 20.0457 0.152458 20.013L0 23.1711C2.78781 23.614 5.50665 23.9769 8.16015 24.2601L11.0932 31.2115H16.9555L19.5473 25.0405C22.2371 25.1204 24.8507 25.1204 27.3844 25.0514V31.2115H31.4318V24.8808C35.668 24.6303 39.6791 24.1875 43.4506 23.5922L46.8809 23.9951C48.4019 24.1657 48.921 24.6703 48.921 25.683C48.921 27.2693 46.8483 28.0098 43.9987 28.0098C41.0512 28.0098 38.6554 27.2003 36.1943 25.4108L34.285 28.685C37.1345 30.8775 39.8896 31.687 43.5486 31.687C48.9246 31.687 52.8449 29.7994 52.8449 25.6141C52.8449 24.0858 52.3767 22.9025 51.52 22.0204C54.2062 21.396 56.7435 20.6955 59.1466 19.9477L54.4312 31.2151H58.7727L59.9379 28.3801H70.9838L72.1491 31.2151H76.4252L70.1453 15.8241C83.4092 9.92175 89.9867 3.39508 89.9867 3.39508ZM14.4908 27.4327H13.616L12.5161 24.6594C13.5216 24.7392 14.5162 24.8082 15.4999 24.8627L14.4908 27.4327ZM61.4225 24.7029L63.9563 18.3178C64.842 17.9948 65.7059 17.6644 66.548 17.3305L69.3903 24.7029H61.4225Z" fill="#035297"/>
</svg>
