<svg width="128" height="14" viewBox="0 0 128 14" fill="none" xmlns="http://www.w3.org/2000/svg">
<path fill-rule="evenodd" clip-rule="evenodd" d="M31.3603 2.16909L26.7166 12.1891H27.4852L28.7413 9.40284H34.622L35.8881 12.1857H36.7019L32.0582 2.16612L31.3609 2.16958L31.3603 2.16909ZM29.0641 8.72729L31.7027 2.97718L34.3218 8.72729H29.0641ZM50.3786 5.05873C50.3821 4.71283 50.3175 4.36954 50.1883 4.04787C50.0593 3.72642 49.868 3.43414 49.626 3.18687C49.0286 2.59193 48.0502 2.21706 46.8262 2.21706H42.6539V12.1412H43.3934V8.02948H46.6485L49.8168 12.1412H50.7566L47.4724 7.9004C49.1486 7.67439 50.3791 6.72387 50.3791 5.06565V5.05922L50.3786 5.05873ZM43.3869 7.35689V2.90943H46.7841C48.5894 2.90943 49.6421 3.74669 49.6421 5.07851C49.6421 6.53941 48.4051 7.37668 46.7354 7.37668L43.3864 7.35739L43.3869 7.35689ZM64.7591 2.21409H63.7515L57.412 8.72729V2.21459H56.6725V12.1412H57.412V9.61648L59.8859 7.1116L63.9774 12.1313H64.9464L60.4251 6.58787L64.7591 2.21459V2.21409ZM83.8898 2.90893H87.3583V12.1535H88.0978V2.90943H91.5627V2.21459H83.8898V2.90943V2.90893ZM97.5082 12.1535H98.2477V2.21459H97.5082V12.154V12.1535ZM111.756 10.8608L104.891 2.21459H104.193V12.1412H104.904V3.3199L111.911 12.1412H112.467V2.21459H111.756V10.8613V10.8608ZM123.104 6.98203V7.6284H126.334V10.3984C125.469 11.0999 124.386 11.4889 123.266 11.5007C120.682 11.5007 119.139 9.6422 119.139 7.14671C119.139 4.79019 120.776 2.80903 123.114 2.80903C123.682 2.79008 124.248 2.88264 124.779 3.08132C125.31 3.28 125.796 3.58082 126.208 3.96627L126.676 3.42969C125.709 2.56918 124.449 2.11469 123.156 2.1592C120.282 2.1592 118.396 4.5449 118.396 7.14671C118.396 9.8875 120.198 12.1342 123.24 12.1342C124.639 12.1221 125.985 11.6071 127.025 10.6862V6.9756L123.104 6.98203ZM70.8657 2.92575H77.9704V2.21112H70.8657V2.92525V2.92575ZM75.7971 6.84652H70.8657V7.55422H75.7971V6.84652ZM70.8657 12.1412H77.9704V11.4335H70.8657V12.1412ZM16.4698 0L13.1825 5.63735L9.91081 0H5.94531V8.37517C7.17327 9.46169 8.50112 10.429 9.91081 11.2648V7.1111L13.0048 12.2831H13.3602L16.4703 7.1111V13.8473H20.4167V0H16.4703H16.4698Z" fill="#BEE1FF"/>
<path fill-rule="evenodd" clip-rule="evenodd" d="M3.96554 6.38411V0H0C0.950344 2.33772 2.29177 4.49642 3.96554 6.38411Z" fill="#BEE1FF"/>
<path fill-rule="evenodd" clip-rule="evenodd" d="M0 8.03516V13.8537H3.96549V10.7731C2.5718 9.96586 1.24575 9.05031 0 8.03516H0ZM5.94547 11.8235V13.8473H9.91096V13.4111C8.55399 12.9749 7.22864 12.4447 5.94547 11.824V11.8235Z" fill="#BEE1FF"/>
</svg>
