<svg fill="none" height="15" viewBox="0 0 14 15" width="14" xmlns="http://www.w3.org/2000/svg" xmlns:xlink="http://www.w3.org/1999/xlink"><mask id="a" height="14" maskUnits="userSpaceOnUse" width="14" x="0" y="1"><path clip-rule="evenodd" d="m0 1.10168h13.6047v13.89832h-13.6047z" fill="#fff" fill-rule="evenodd"/></mask><g clip-rule="evenodd" fill="#2e963d" fill-rule="evenodd"><path d="m13.0231 6.21231h-12.435391c-.288837 0-.5232559-.23441-.5232559-.52325s.2344189-.52326.5232559-.52326h12.435391c.2888 0 .5232.23442.5232.52326s-.2344.52325-.5232.52325z"/><path d="m9.90788 8.93692c-.28883 0-.52604-.23442-.52604-.52325 0-.28884.23093-.52326.51976-.52326h.00628c.28882 0 .52322.23442.52322.52326 0 .28883-.2344.52325-.52322.52325z"/><path d="m6.81194 8.93692c-.28884 0-.52605-.23442-.52605-.52325 0-.28884.23093-.52326.51977-.52326h.00628c.28883 0 .52325.23442.52325.52326 0 .28883-.23442.52325-.52325.52325z"/><path d="m3.70961 8.93692c-.28884 0-.52675-.23442-.52675-.52325 0-.28884.23163-.52326.52047-.52326h.00628c.28883 0 .52325.23442.52325.52326 0 .28883-.23442.52325-.52325.52325z"/><path d="m9.90788 11.6486c-.28883 0-.52604-.2345-.52604-.5233s.23093-.5232.51976-.5232h.00628c.28882 0 .52322.2344.52322.5232s-.2344.5233-.52322.5233z"/><path d="m6.81194 11.6486c-.28884 0-.52605-.2345-.52605-.5233s.23093-.5232.51977-.5232h.00628c.28883 0 .52325.2344.52325.5232s-.23442.5233-.52325.5233z"/><path d="m3.70961 11.6486c-.28884 0-.52675-.2345-.52675-.5233s.23163-.5232.52047-.5232h.00628c.28883 0 .52325.2344.52325.5232s-.23442.5233-.52325.5233z"/><path d="m9.62335 3.34256c-.28883 0-.52325-.23442-.52325-.52326v-2.296044c0-.288837.23442-.523256.52325-.523256.28884 0 .52325.234419.52325.523256v2.296044c0 .28884-.23441.52326-.52325.52326z"/><path d="m3.98737 3.34256c-.28884 0-.52326-.23442-.52326-.52326v-2.296044c0-.288837.23442-.523256.52326-.523256.28883 0 .52325.234419.52325.523256v2.296044c0 .28884-.23442.52326-.52325.52326z"/></g><g mask="url(#a)"><path clip-rule="evenodd" d="m3.85186 2.14821c-1.80907 0-2.80535.96488-2.80535 2.71674v6.31325c0 1.7902.99628 2.7754 2.80535 2.7754h5.90093c1.80911 0 2.80531-.967 2.80531-2.7224v-6.36625c.0028-.86162-.2288-1.53139-.6886-1.99186-.473-.47441-1.2021-.72488-2.11043-.72488zm5.90093 12.85189h-5.90093c-2.37558 0-3.85186-1.4645-3.85186-3.8219v-6.31326c0-2.32186 1.47628-3.76326 3.85186-3.76326h5.90721c1.19233 0 2.17813.35721 2.85143 1.03186.6537.65652.9976 1.60047.9942 2.7328v6.36486c0 2.3247-1.4763 3.7689-3.85191 3.7689z" fill="#2e963d" fill-rule="evenodd"/></g></svg>