<svg fill="none" height="13" viewBox="0 0 15 13" width="15" xmlns="http://www.w3.org/2000/svg" xmlns:xlink="http://www.w3.org/1999/xlink"><mask id="a" height="13" maskUnits="userSpaceOnUse" width="15" x="0" y="0"><path clip-rule="evenodd" d="m0 0h15v12.0788h-15z" fill="#fff" fill-rule="evenodd"/></mask><path clip-rule="evenodd" d="m7.49959 4.23087c-.99751 0-1.80826.8115-1.80826 1.80901 0 .99676.81075 1.80751 1.80826 1.80751s1.80901-.81075 1.80901-1.80751c0-.99751-.8115-1.80901-1.80901-1.80901zm.00009 4.74154c-1.61776 0-2.93327-1.31551-2.93327-2.93252 0-1.61776 1.31551-2.93402 2.93327-2.93402s2.93402 1.31626 2.93402 2.93402c0 1.61701-1.31626 2.93252-2.93402 2.93252z" fill="#2e963d" fill-rule="evenodd"/><g mask="url(#a)"><path clip-rule="evenodd" d="m1.17738 6.03927c1.39501 3.08178 3.74478 4.91403 6.32255 4.91483 2.57777-.0008 4.92757-1.83305 6.32257-4.91483-1.395-3.08102-3.7448-4.91328-6.32257-4.91403-2.57702.00075-4.92754 1.83301-6.32255 4.91403zm6.32399 6.03963h-.003-.00075c-3.10202-.0022-5.88755-2.17647-7.4520572-5.81775-.0607504-.14175-.0607504-.30225 0-.444 1.5645072-3.64053 4.3507872-5.81479524 7.4520572-5.81704526.0015-.00075001.0015-.00075001.00225 0 .0015-.00075001.0015-.00075001.00225 0 3.10198.00225002 5.88758 2.17651526 7.45208 5.81704526.0615.14175.0615.30225 0 .444-1.5638 3.64128-4.3501 5.81555-7.45208 5.81775z" fill="#2e963d" fill-rule="evenodd"/></g></svg>