<svg fill="none" height="17" viewBox="0 0 154 17" width="154" xmlns="http://www.w3.org/2000/svg"><g clip-rule="evenodd" fill="#fff" fill-rule="evenodd"><path d="m37.7796 2.65257-5.5943 12.25353h.926l1.5131-3.4074h7.0844l1.5253 3.4031h.9804l-5.5943-12.25285-.84.00423zm-2.7663 8.02003 3.1787-7.03181 3.1552 7.03181zm25.6772-4.48628c.0043-.423-.0736-.84281-.2292-1.23618-.1554-.39311-.3858-.75053-.6773-1.05292-.7197-.72756-1.8984-1.18598-3.3729-1.18598h-5.0263v12.13616h.8908v-5.02816h3.9214l3.8168 5.02816h1.1321l-3.9565-5.18601c2.0194-.27638 3.5017-1.43877 3.5017-3.46661v-.00786zm-8.4228 2.81042v-5.43881h4.0926c2.1748 0 3.443 1.0239 3.443 2.65258 0 1.78652-1.4902 2.81042-3.5017 2.81042l-4.0345-.02359zm25.7468-6.28913h-1.2138l-7.6372 7.96499v-7.96439h-.8908v12.13919h.8908v-3.0874l2.9804-3.06323 4.929 6.13853h1.1672l-5.4467-6.779 5.2211-5.34809zm23.0465.84972h4.178v11.30517h.891v-11.30457h4.174v-.84972h-9.243v.84972zm16.406 11.30517h.891v-12.15429h-.891v12.15489zm17.164-1.5809-8.271-10.57339h-.84v12.13919h.856v-10.7875l8.442 10.7875h.67v-12.13919h-.857v10.57399zm13.671-4.74329v.79045h3.891v3.38734c-1.042.8579-2.346 1.3336-3.696 1.3481-3.113 0-4.972-2.2728-4.972-5.32449 0-2.88179 1.972-5.30455 4.789-5.30455.684-.02318 1.366.09001 2.006.33298.64.24296 1.225.61085 1.721 1.08221l.564-.65619c-1.164-1.05232-2.683-1.60811-4.24-1.55368-3.463 0-5.735 2.91747-5.735 6.09923 0 3.35169 2.171 6.09919 5.836 6.09919 1.684-.0148 3.306-.6446 4.559-1.7708v-4.53765zm-62.9309-4.96042h8.5589v-.87391h-8.5589v.87331zm5.9408 4.79471h-5.9408v.86545h5.9408zm-5.9408 6.4748h8.5589v-.8654h-8.5589zm-65.53-14.8474-3.9601 6.89391-3.9413-6.89391h-4.77722v10.242c1.47929 1.3287 3.07892 2.5116 4.77722 3.5337v-5.07954l3.7272 6.32484h.4282l3.7466-6.32484v8.23774h4.7542v-16.9339h-4.7542z"/><path d="m4.77717 7.80713v-7.80713h-4.77717c1.14485 2.85881 2.76083 5.49868 4.77717 7.80713z"/><path d="m0 9.82642v7.11528h4.77717v-3.7672c-1.67896-.9871-3.27642-2.1067-4.77717-3.34808zm7.16244 4.63258v2.4748h4.77716v-.5334c-1.6347-.5334-3.23134-1.1817-4.77716-1.9407z"/></g></svg>