<svg fill="none" height="30" viewBox="0 0 30 30" width="30" xmlns="http://www.w3.org/2000/svg"><g fill="#2e963d"><path d="m15 8.81836c-3.4085 0-6.18164 2.77314-6.18164 6.18164s2.77314 6.1816 6.18164 6.1816 6.1816-2.7731 6.1816-6.1816-2.7729-6.18164-6.1816-6.18164z"/><path d="m26.9772 3.02284c-1.9494-1.94938-4.5312-3.02284-7.27-3.02284h-9.4144c-2.73878 0-5.3208 1.07346-7.26996 3.02284-1.94938 1.94916-3.02284 4.53118-3.02284 7.26996v9.4142c0 2.739 1.07346 5.321 3.02284 7.2702 1.94916 1.9493 4.53118 3.0228 7.26996 3.0228h9.4144c2.7388 0 5.3208-1.0735 7.27-3.0228 1.9491-1.9492 3.0228-4.5312 3.0228-7.2702v-9.4142c0-2.73878-1.0737-5.3208-3.0228-7.26996zm-11.9772 19.91666c-4.3778 0-7.93945-3.5617-7.93945-7.9395s3.56165-7.93945 7.93945-7.93945 7.9395 3.56165 7.9395 7.93945-3.5617 7.9395-7.9395 7.9395zm8.7955-15.49191c-.1635.16342-.3903.25726-.6214.25726-.2314 0-.4578-.09384-.6212-.25726-.1641-.16365-.2577-.39025-.2577-.62165s.0936-.45822.2577-.62164c.1634-.16365.3895-.25726.6212-.25726.2311 0 .4579.09361.6214.25726.1636.16342.2575.39024.2575.62164 0 .23117-.0939.458-.2575.62165z"/></g></svg>