<svg fill="none" height="25" viewBox="0 0 25 25" width="25" xmlns="http://www.w3.org/2000/svg" xmlns:xlink="http://www.w3.org/1999/xlink"><clipPath id="a"><path d="m7.5 7.5h10v10h-10z"/></clipPath><circle cx="12.5" cy="12.5" fill="#fff" fill-opacity=".85" r="12.5"/><g clip-path="url(#a)" fill="#2e963d"><path d="m14.5952 7.5h-4.1904c-1.60169 0-2.9048 1.30311-2.9048 2.9048v4.1904c0 1.6017 1.30311 2.9048 2.9048 2.9048h4.1904c1.6017 0 2.9048-1.3031 2.9048-2.9048v-4.1904c0-1.60169-1.3031-2.9048-2.9048-2.9048zm2.1236 7.0952c0 1.1709-.9527 2.1236-2.1236 2.1236h-4.1904c-1.17091 0-2.12355-.9527-2.12355-2.1236v-4.1904c0-1.17091.95264-2.12355 2.12355-2.12355h4.1904c1.1709 0 2.1236.95264 2.1236 2.12355z"/><path d="m12.5 9.80469c-1.4862 0-2.69531 1.20911-2.69531 2.69531s1.20911 2.6953 2.69531 2.6953 2.6953-1.2091 2.6953-2.6953-1.2091-2.69531-2.6953-2.69531zm0 4.60941c-1.0554 0-1.9141-.8587-1.9141-1.9141s.8587-1.9141 1.9141-1.9141 1.9141.8587 1.9141 1.9141-.8587 1.9141-1.9141 1.9141z"/><path d="m15.2344 10.1562c.2157 0 .3906-.17484.3906-.39058 0-.21573-.1749-.39062-.3906-.39062-.2158 0-.3906.17489-.3906.39062 0 .21574.1748.39058.3906.39058z"/></g></svg>