<svg fill="none" height="26" viewBox="0 0 170 26" width="170" xmlns="http://www.w3.org/2000/svg"><g fill="#fff"><path d="m20.6147 17.7797h3.8115v-2.5042-4.2988-3.88149h-3.8115-13.60651v3.54759h13.93441v3.5893h-13.97539v4.8831 5.7596h3.52459v-7.0951h1.7213l6.9672 7.0951h5.2049l-6.9262-7.0951z"/><path d="m3.72951 0h-3.72951v3.798 21.0768h3.52459v-21.32722h20.90161v-3.54758z"/><path d="m33.9344 9.39073v6.17697h8.7295v2.1703h-8.7295v7.1369h-2.5v-17.69619h12.2541v2.21202z"/><path d="m47.9918 11.4775h2.377v13.3974h-2.377z"/><path d="m67.2951 12.8131c.9836 1.0016 1.4754 2.4207 1.4754 4.3405v7.7212h-2.3771v-7.429c0-1.2938-.2869-2.2955-.9016-2.9216-.6148-.6677-1.4754-1.0016-2.623-1.0016-1.2705 0-2.295.3756-3.0327 1.1686-.7378.7512-1.1066 1.8781-1.1066 3.2972v6.8864h-2.3771v-13.3973h2.2951v2.0033c.4918-.7095 1.1476-1.2103 1.9672-1.5859.8197-.3757 1.7623-.5426 2.7869-.5426 1.5984 0 2.9099.5008 3.8935 1.4608z"/><path d="m86.5164 24.8749-3.7295-5.4257c-.4508.0417-.8197.0417-1.1066.0417h-4.3033v5.384h-2.5v-17.69619h6.7623c2.2541 0 4.0164.54257 5.3279 1.62771 1.2705 1.08515 1.9262 2.58768 1.9262 4.50748 0 1.3773-.3278 2.5459-.9836 3.5059-.6557.9599-1.5983 1.6694-2.8278 2.0868l4.1393 5.9265h-2.7049zm-1.3115-8.556c.8197-.7095 1.2295-1.6694 1.2295-2.9632 0-1.2939-.4098-2.2538-1.2295-2.9633-.8197-.66778-2.0082-1.04341-3.6066-1.04341h-4.2213v7.97161h4.2213c1.5574 0 2.7869-.3339 3.6066-1.0017z"/><path d="m105.82 18.99h-10.6561c.164 1.1687.6558 2.1286 1.5164 2.8381.8607.7095 1.9672 1.0851 3.2377 1.0851 1.557 0 2.828-.5425 3.812-1.6277l1.311 1.586c-.615.7095-1.352 1.2521-2.213 1.6277-.902.3756-1.885.5426-2.951.5426-1.3934 0-2.6229-.2922-3.6885-.8765s-1.9262-1.3773-2.5-2.4207c-.5737-1.0434-.9016-2.212-.9016-3.5476 0-1.2938.2869-2.4624.8606-3.5058.5738-1.0434 1.3525-1.8781 2.3771-2.4207.9836-.5843 2.1311-.8765 3.4016-.8765 1.2708 0 2.3768.2922 3.3608.8765.983.5843 1.762 1.3773 2.295 2.4207.574 1.0434.82 2.2538.82 3.5893-.041.167-.082.3756-.082.7095zm-9.3446-4.5492c-.7787.7095-1.2295 1.6277-1.3524 2.7963h8.443c-.123-1.1269-.574-2.0451-1.353-2.7546s-1.721-1.0851-2.8687-1.0851c-1.1476 0-2.0902.3339-2.8689 1.0434z"/><path d="m121.926 11.4775-5.778 13.3974h-2.419l-5.778-13.3974h2.5l4.508 10.7262 4.631-10.7262z"/><path d="m125.492 11.4775h2.377v13.3974h-2.377z"/><path d="m145.656 18.99h-10.656c.164 1.1687.656 2.1286 1.516 2.8381.861.7095 1.968 1.0851 3.238 1.0851 1.557 0 2.828-.5425 3.812-1.6277l1.311 1.586c-.615.7095-1.352 1.2521-2.213 1.6277-.902.3756-1.885.5426-2.951.5426-1.393 0-2.623-.2922-3.688-.8765-1.066-.5843-1.927-1.3773-2.5-2.4207-.574-1.0434-.902-2.212-.902-3.5476 0-1.2938.287-2.4624.861-3.5058.573-1.0434 1.352-1.8781 2.377-2.4207.983-.5843 2.131-.8765 3.401-.8765 1.271 0 2.377.2922 3.361.8765s1.762 1.3773 2.295 2.4207c.574 1.0434.82 2.2538.82 3.5893-.041.167-.082.3756-.082.7095zm-9.345-4.5492c-.778.7095-1.229 1.6277-1.352 2.7963h8.443c-.123-1.1269-.574-2.0451-1.353-2.7546-.778-.7095-1.721-1.0851-2.869-1.0851-1.147 0-2.09.3339-2.869 1.0434z"/><path d="m170 11.4775-4.918 13.3974h-2.295l-3.771-10.1837-3.852 10.1419h-2.295l-4.877-13.3973h2.254l3.852 10.6845 3.976-10.6845h2.008l3.893 10.7262 3.935-10.7262h2.09z"/></g></svg>