<svg fill="none" height="25" viewBox="0 0 170 25" width="170" xmlns="http://www.w3.org/2000/svg"><g fill="#2e963d"><path d="m20.6148 17.459h3.8114v-2.459-4.2213-3.81149h-3.8114-13.60661v3.48359h13.93441v3.5246h-13.97539v4.7951 5.6557h3.52459v-6.9672h1.7213l6.9672 6.9672h5.2049l-6.9262-6.9672z"/><path d="m3.72951 0h-3.72951v3.72951 20.69669h3.52459v-20.94259h20.90161v-3.48361z"/><path d="m33.9344 9.22131v6.06559h8.7295v2.1311h-8.7295v7.0082h-2.5v-17.37702h12.2541v2.17213z"/><path d="m47.9918 11.2705h2.3771v13.1557h-2.3771z"/><path d="m67.2951 12.582c.9836.9836 1.4754 2.377 1.4754 4.2623v7.5819h-2.3771v-7.2951c0-1.2704-.2868-2.2541-.9016-2.8688-.6147-.6557-1.4754-.9836-2.6229-.9836-1.2705 0-2.2951.3688-3.0328 1.1475-.7377.7377-1.1066 1.8443-1.1066 3.2377v6.7623h-2.377v-13.1557h2.295v1.9672c.4919-.6967 1.1476-1.1885 1.9673-1.5574.8196-.3688 1.7623-.5328 2.7868-.5328 1.5984 0 2.9099.4918 3.8935 1.4345z"/><path d="m86.5164 24.4262-3.7295-5.3278c-.4508.0409-.8197.0409-1.1066.0409h-4.3032v5.2869h-2.5v-17.37702h6.7623c2.2541 0 4.0163.53279 5.3278 1.59836 1.2705 1.06557 1.9263 2.54096 1.9263 4.42626 0 1.3524-.3279 2.5-.9837 3.4426-.6557.9426-1.5983 1.6393-2.8278 2.0492l4.1393 5.8196h-2.7049zm-1.3115-8.4016c.8197-.6967 1.2295-1.6394 1.2295-2.9098 0-1.2705-.4098-2.2132-1.2295-2.9099-.8196-.65572-2.0082-1.02457-3.6065-1.02457h-4.2213v7.82787h4.2213c1.5574 0 2.7869-.3279 3.6065-.9836z"/><path d="m105.82 18.6475h-10.6561c.164 1.1476.6558 2.0902 1.5164 2.7869.8607.6967 1.9672 1.0656 3.2377 1.0656 1.557 0 2.828-.5328 3.812-1.5984l1.311 1.5574c-.615.6967-1.352 1.2295-2.213 1.5984-.902.3688-1.885.5328-2.951.5328-1.3934 0-2.6229-.2869-3.6885-.8607s-1.9262-1.3525-2.5-2.377c-.5737-1.0246-.9016-2.1722-.9016-3.4836 0-1.2705.2869-2.4181.8606-3.4427.5738-1.0246 1.3525-1.8442 2.3771-2.377.9836-.5738 2.1311-.8607 3.4016-.8607 1.2708 0 2.3768.2869 3.3608.8607.983.5737 1.762 1.3524 2.295 2.377.574 1.0246.82 2.2131.82 3.5246-.041.164-.082.3689-.082.6967zm-9.3446-4.4672c-.7787.6967-1.2295 1.5984-1.3524 2.7459h8.443c-.123-1.1065-.574-2.0082-1.353-2.7049s-1.721-1.0656-2.8687-1.0656c-1.1476 0-2.0902.3279-2.8689 1.0246z"/><path d="m121.926 11.2705-5.778 13.1557h-2.418l-5.779-13.1557h2.5l4.508 10.5328 4.631-10.5328z"/><path d="m125.492 11.2705h2.377v13.1557h-2.377z"/><path d="m145.656 18.6475h-10.656c.164 1.1476.656 2.0902 1.516 2.7869.861.6967 1.968 1.0656 3.238 1.0656 1.557 0 2.828-.5328 3.812-1.5984l1.311 1.5574c-.615.6967-1.352 1.2295-2.213 1.5984-.902.3688-1.885.5328-2.951.5328-1.393 0-2.623-.2869-3.688-.8607-1.066-.5738-1.927-1.3525-2.5-2.377-.574-1.0246-.902-2.1722-.902-3.4836 0-1.2705.287-2.4181.861-3.4427.573-1.0246 1.352-1.8442 2.377-2.377.983-.5738 2.131-.8607 3.401-.8607 1.271 0 2.377.2869 3.361.8607.984.5737 1.762 1.3524 2.295 2.377.574 1.0246.82 2.2131.82 3.5246-.041.164-.082.3689-.082.6967zm-9.345-4.4672c-.778.6967-1.229 1.5984-1.352 2.7459h8.443c-.123-1.1065-.574-2.0082-1.353-2.7049s-1.721-1.0656-2.869-1.0656c-1.147 0-2.09.3279-2.869 1.0246z"/><path d="m170 11.2705-4.918 13.1557h-2.295l-3.771-10-3.852 9.959h-2.295l-4.877-13.1557h2.254l3.852 10.4918 3.976-10.4918h2.008l3.893 10.5328 3.935-10.5328h2.09z"/></g></svg>