<svg fill="none" height="25" viewBox="0 0 25 25" width="25" xmlns="http://www.w3.org/2000/svg" xmlns:xlink="http://www.w3.org/1999/xlink"><clipPath id="a"><path d="m6.25 6.25h12.5v12.5h-12.5z"/></clipPath><circle cx="12.5" cy="12.5" fill="#434343" r="12.5"/><g clip-path="url(#a)"><path d="m18.557 7.49168c-.1527-.18673-.3814-.28953-.644-.28953-.1428 0-.294.03004-.4495.08945l-10.581 4.0391c-.56153.2143-.63715.5359-.63229.7085s.09861.4894.67139.6717c.00343.001.00686.0021.0103.003l2.19478.6281 1.18692 3.3941c.1619.4627.5251.7502.9482.7502.2667 0 .5291-.1118.7587-.3231l1.3576-1.25 1.969 1.5855c.0002.0002.0005.0003.0007.0005l.0187.015c.0017.0014.0035.0028.0052.0041.2189.1698.4578.2594.6912.2595.456 0 .8191-.3375.9248-.8597l1.7337-8.56058c.0696-.3436.0113-.65107-.1644-.86584zm-8.69608 5.73102 4.23438-2.1632-2.6366 2.8016c-.0432.0459-.0738.102-.0889.1632l-.5084 2.0593zm1.66338 3.4017c-.0175.0161-.0352.0305-.0528.0437l.4717-1.9104.858.691zm6.4793-8.41231-1.7337 8.56061c-.0167.082-.07.2726-.207.2726-.0678 0-.1528-.0369-.2399-.1039l-2.2312-1.7966c-.0003-.0003-.0007-.0005-.0011-.0007l-1.3276-1.0691 3.8129-4.0515c.1221-.1297.1331-.32835.0262-.47083-.107-.14248-.3008-.1873-.4594-.10624l-6.27121 3.20377-2.22464-.6365 10.57775-4.03784c.0894-.03414.1518-.04129.1883-.04129.0224 0 .0623.00267.077.02089.0195.02374.0443.10471.0136.25663z" fill="#2e963d"/></g></svg>