<svg fill="none" height="30" viewBox="0 0 30 30" width="30" xmlns="http://www.w3.org/2000/svg"><circle cx="15" cy="15" fill="#2e963d" r="15"/><path d="m21.7529 9.38328c-.1954-.24719-.4881-.38328-.8243-.38328-.1828 0-.3764.03977-.5753.11842l-13.54371 5.34688c-.71874.2837-.81555.7094-.80932.9379.00622.2285.12622.6479.85937.8892.0044.0014.00879.0028.01319.004l2.80932.8315 1.51925 4.4931c.2072.6126.6721.9931 1.2136.9931.3415 0 .6773-.148.9712-.4278l1.7377-1.6547 2.5204 2.0989c.0002.0002.0006.0004.0008.0006l.024.02c.0022.0017.0045.0036.0067.0054.2801.2247.5859.3434.8846.3435h.0001c.5837 0 1.0484-.4468 1.1838-1.1381l2.2191-11.3324c.0891-.4549.0144-.86191-.2105-1.14622zm-11.1309 7.58672 5.42-2.8637-3.3749 3.7087c-.0553.0608-.0945.1351-.1137.2161l-.6508 2.7261zm2.1291 4.503c-.0225.0214-.045.0404-.0676.058l.6037-2.529 1.0983.9147zm8.2934-11.136-2.2191 11.3325c-.0213.1084-.0896.3608-.265.3608-.0867 0-.1955-.0489-.307-.1376l-2.8559-2.3782c-.0004-.0004-.0009-.0008-.0014-.0011l-1.6993-1.4152 4.8805-5.3633c.1562-.1717.1704-.4347.0335-.6233s-.3851-.2479-.5881-.1406l-8.02708 4.2411-2.84753-.8426 13.53951-5.3453c.1144-.04516.1942-.05463.241-.05463.0287 0 .0797.00354.0986.02765.0249.03148.0567.13858.0173.33978z" fill="#fff"/></svg>