<svg fill="none" height="30" viewBox="0 0 30 30" width="30" xmlns="http://www.w3.org/2000/svg"><g fill="#2e963d"><path d="m7.87988 16.107h1.18926v6.4367h1.12516v-6.4367h1.2113v-1.0543h-3.52572z"/><path d="m17.3935 16.8938c-.372 0-.7191.2032-1.0453.6052v-2.4466h-1.0113v7.4912h1.0113v-.5407c.3385.4177.6853.6178 1.0453.6178.4023 0 .673-.2118.8081-.6273.0678-.2367.1025-.6083.1025-1.1249v-2.2226c0-.5285-.0347-.8974-.1025-1.1217-.1348-.4186-.4061-.6304-.8081-.6304zm-.1013 4.0539c0 .5046-.1479.7532-.4401.7532-.166 0-.3351-.0795-.5042-.2489v-3.4018c.1691-.1672.3382-.2464.5042-.2464.2919 0 .4401.2584.4401.7617z"/><path d="m13.4497 21.2278c-.2243.3171-.4364.4733-.6396.4733-.135 0-.212-.0795-.2366-.2366-.0092-.0326-.0092-.1559-.0092-.3929v-4.1094h-1.0116v4.413c0 .3943.0341.6607.0893.8301.1016.283.3263.4156.6516.4156.3723 0 .7541-.2247 1.1561-.6856v.6089h1.0122v-5.582h-1.0122z"/><path d="m14.3181 11.8053c.3293 0 .4873-.2612.4873-.7829v-2.37273c0-.52204-.158-.78199-.4873-.78199-.3297 0-.488.26025-.488.78199v2.37273c0 .522.1583.7829.488.7829z"/><path d="m15 0c-8.2843 0-15 6.7157-15 15s6.7157 15 15 15 15-6.7157 15-15-6.7157-15-15-15zm1.6683 7.01586h1.0193v4.15304c0 .2397 0 .364.0122.3974.0224.1584.1029.2394.2397.2394.2044 0 .419-.1583.6458-.4784v-4.31144h1.022v5.64064h-1.022v-.6151c-.407.4665-.7949.6927-1.1678.6927-.329 0-.5561-.1335-.6586-.4189-.0565-.171-.0906-.4407-.0906-.8388zm-3.8602 1.83928c0-.60307.1025-1.04378.3198-1.3289.2826-.38578.6807-.57852 1.1902-.57852.5119 0 .9096.19274 1.1923.57852.2142.28481.3167.72583.3167 1.3289v1.97526c0 .5997-.1025 1.0444-.3167 1.3264-.2827.3849-.6804.5773-1.1923.5773-.5095 0-.9076-.1924-1.1902-.5773-.2173-.282-.3198-.727-.3198-1.3264zm-2.7333-3.76788.8047 2.97238.7731-2.97238h1.1463l-1.3636 4.50384v3.0657h-1.1331v-3.0657c-.1028-.54322-.32962-1.33903-.6933-2.39478-.23877-.70251-.48767-1.40716-.72645-2.10906zm13.0002 17.94934c-.205.8897-.9327 1.5465-1.8089 1.6444-2.0756.2317-4.1752.233-6.267.2317-2.091.0013-4.1917 0-6.26672-.2317-.87622-.0979-1.6042-.7544-1.8086-1.6444-.29186-1.2672-.29186-2.651-.29186-3.956 0-1.3049.00368-2.6885.29524-3.956.20471-.89.93207-1.5468 1.80829-1.6444 2.07525-.2317 4.17575-.2329 6.26735-.2317 2.0909-.0012 4.1914 0 6.2667.2317.8762.0979 1.6042.7544 1.8095 1.6444.2909 1.2675.2891 2.6511.2891 3.956 0 1.305-.0012 2.6888-.2931 3.956z"/><path d="m20.6146 16.894c-.5174 0-.9192.19-1.2114.5721-.2145.2824-.3124.7188-.3124 1.3151v1.9553c0 .5933.1096 1.0327.325 1.3123.2919.3812.6949.5718 1.224.5718.5281 0 .9428-.1998 1.2227-.6052.1227-.1792.2025-.3821.2363-.6062.0095-.1012.0215-.3256.0215-.6518v-.147h-1.0315c0 .4051-.0132.63-.0221.685-.0577.2704-.2032.4054-.4521.4054-.3474 0-.5174-.2578-.5174-.774v-.9901h2.0231v-1.1561c0-.5963-.101-1.0327-.3131-1.3151-.2826-.3812-.685-.5715-1.1926-.5715zm.4947 2.2012h-1.0115v-.5165c0-.5163.1697-.7744.5076-.7744.3345 0 .5039.2584.5039.7744z"/></g></svg>