<svg width="59" height="59" viewBox="0 0 59 59" fill="none" xmlns="http://www.w3.org/2000/svg">
<path d="M1.72334 16.417H57.2659C58.2205 16.417 58.9944 15.6431 58.9944 14.6885C58.9944 13.7339 58.2205 12.96 57.2659 12.96H55.2916V1.7285C55.2916 0.773908 54.5177 0 53.5631 0H42.4546C41.5 0 40.7261 0.773908 40.7261 1.7285V12.96H36.7774V1.7285C36.7774 0.773908 36.0035 0 35.0489 0H23.9404C22.9858 0 22.2119 0.773908 22.2119 1.7285V12.96H18.2631V1.7285C18.2631 0.773908 17.4892 0 16.5346 0H5.42614C4.47155 0 3.69764 0.773908 3.69764 1.7285V12.96H1.72334C-0.567038 13.0447 -0.566232 16.3326 1.72334 16.417ZM44.1831 3.457H51.8346V12.96H44.1831V3.457ZM25.6689 3.457H33.3204V12.96H25.6689V3.457ZM7.15476 3.457H14.8063V12.96H7.15476V3.457Z" fill="#FCBF07"/>
<path d="M1.72334 16.417H57.2659C58.2205 16.417 58.9944 15.6431 58.9944 14.6885C58.9944 13.7339 58.2205 12.96 57.2659 12.96H55.2916V1.7285C55.2916 0.773908 54.5177 0 53.5631 0H42.4546C41.5 0 40.7261 0.773908 40.7261 1.7285V12.96H36.7774V1.7285C36.7774 0.773908 36.0035 0 35.0489 0H23.9404C22.9858 0 22.2119 0.773908 22.2119 1.7285V12.96H18.2631V1.7285C18.2631 0.773908 17.4892 0 16.5346 0H5.42614C4.47155 0 3.69764 0.773908 3.69764 1.7285V12.96H1.72334C-0.567038 13.0447 -0.566232 16.3326 1.72334 16.417ZM44.1831 3.457H51.8346V12.96H44.1831V3.457ZM25.6689 3.457H33.3204V12.96H25.6689V3.457ZM7.15476 3.457H14.8063V12.96H7.15476V3.457Z" stroke="black"/>
<path d="M58.9944 35.0541C58.9944 34.0995 58.2205 33.3256 57.2659 33.3256H55.2916V22.0941C55.2916 21.1395 54.5177 20.3656 53.5631 20.3656H42.4546C41.5 20.3656 40.7261 21.1395 40.7261 22.0941V32.4044C40.0174 32.6565 39.3354 32.9653 38.6857 33.3256H36.7774V22.0941C36.7774 21.1395 36.0035 20.3656 35.0489 20.3656H23.9404C22.9858 20.3656 22.2119 21.1395 22.2119 22.0941V33.3256H18.2631V22.0941C18.2631 21.1395 17.4892 20.3656 16.5346 20.3656H5.42614C4.47155 20.3656 3.69764 21.1395 3.69764 22.0941V33.3256H1.72334C-0.564964 33.4093 -0.568305 36.6974 1.72334 36.7826H34.5981C27.4656 45.5064 33.9334 59.1011 45.3031 58.9995C56.6715 59.1014 63.1413 45.5042 56.0078 36.7826H57.2658C58.2206 36.7826 58.9944 36.0087 58.9944 35.0541ZM14.8063 33.3256H7.15476V23.8226H14.8063V33.3256ZM33.3205 33.3256H25.669V23.8226H33.3205V33.3256ZM44.1831 23.8226H51.8346V33.2745C49.5148 32.0093 46.8287 31.4432 44.1831 31.6621V23.8226ZM45.303 55.5426C39.6597 55.5426 35.0686 50.9514 35.0686 45.3082C35.5831 31.7494 55.0249 31.7531 55.5375 45.3083C55.5374 50.9514 50.9464 55.5426 45.303 55.5426Z" fill="#FCBF07"/>
<path d="M47.6697 41.6928L44.1068 45.2559L42.936 44.0857C42.2609 43.4107 41.1664 43.4109 40.4916 44.0861C39.8167 44.7613 39.817 45.8557 40.492 46.5306L42.885 48.9226C43.56 49.5975 44.6543 49.5973 45.3292 48.9224L50.1142 44.1374C50.7892 43.4625 50.7892 42.368 50.1142 41.6929C49.4392 41.0179 48.3447 41.0179 47.6697 41.6928Z" fill="#FCBF07"/>
</svg>
