<svg width="17" height="17" viewBox="0 0 17 17" fill="none" xmlns="http://www.w3.org/2000/svg">
<path d="M15.6359 11.1586C14.5951 11.1586 13.5732 10.9958 12.6047 10.6757C12.1302 10.5139 11.5469 10.6624 11.2572 10.9598L9.34575 12.4028C7.12898 11.2195 5.76349 9.85442 4.59633 7.65429L5.99684 5.79262C6.3607 5.42924 6.49121 4.89844 6.33485 4.40039C6.01344 3.42687 5.85017 2.40541 5.85017 1.36416C5.85021 0.611956 5.23826 0 4.4861 0H1.36412C0.611956 0 0 0.611956 0 1.36412C0 9.98586 7.01418 17 15.6359 17C16.3881 17 17 16.388 17 15.6359V12.5226C17 11.7705 16.388 11.1586 15.6359 11.1586Z" fill="#FCBF07"/>
</svg>
