<svg width="71" height="71" viewBox="0 0 71 71" fill="none" xmlns="http://www.w3.org/2000/svg">
<path d="M35.8844 25.1698H9.26158C8.6872 25.1698 8.22168 25.6354 8.22168 26.2097C8.22168 26.7841 8.6872 27.2496 9.26158 27.2496H35.8845C36.4589 27.2496 36.9244 26.7839 36.9244 26.2097C36.9244 25.6354 36.4589 25.1698 35.8844 25.1698Z" fill="#4EA0D8"/>
<path d="M35.8844 32.4772H9.26158C8.6872 32.4772 8.22168 32.9429 8.22168 33.5171C8.22168 34.0914 8.6872 34.557 9.26158 34.557H35.8845C36.4589 34.557 36.9244 34.0914 36.9244 33.5171C36.9244 32.9429 36.4589 32.4772 35.8844 32.4772Z" fill="#4EA0D8"/>
<path d="M35.8844 39.7845H9.26158C8.6872 39.7845 8.22168 40.2502 8.22168 40.8244C8.22168 41.3987 8.6872 41.8643 9.26158 41.8643H35.8845C36.4589 41.8643 36.9244 41.3987 36.9244 40.8244C36.9244 40.2502 36.4589 39.7845 35.8844 39.7845Z" fill="#4EA0D8"/>
<path d="M36.9244 48.132C36.9244 47.5577 36.4589 47.0921 35.8845 47.0921H9.26158C8.6872 47.0921 8.22168 47.5578 8.22168 48.132C8.22168 48.7063 8.6872 49.1719 9.26158 49.1719H35.8845C36.4589 49.1719 36.9244 48.7064 36.9244 48.132Z" fill="#4EA0D8"/>
<path d="M9.26158 57.8014C8.6872 57.8014 8.22168 58.267 8.22168 58.8413C8.22168 59.4155 8.6872 59.8811 9.26158 59.8811H22.6071C23.1815 59.8811 23.647 59.4155 23.647 58.8413C23.647 58.267 23.1815 57.8014 22.6071 57.8014H9.26158Z" fill="#4EA0D8"/>
<path d="M47.8687 12.8761V9.50166C47.8687 8.21617 46.823 7.17031 45.5373 7.17031H24.1864C22.9009 7.17031 21.8552 8.21617 21.8552 9.50166V12.8761C21.8552 14.1616 22.9009 15.2073 24.1864 15.2073H25.9894C26.5638 15.2073 27.0293 14.7417 27.0293 14.1674C27.0293 13.593 26.5638 13.1275 25.9894 13.1275H24.1864C24.0479 13.1275 23.9352 13.0148 23.9352 12.8762V9.50166C23.9352 9.36313 24.0479 9.25025 24.1864 9.25025H45.5373C45.676 9.25025 45.7887 9.36299 45.7887 9.50166V12.8761C45.7887 13.0146 45.676 13.1274 45.5373 13.1274H30.8513C30.2769 13.1274 29.8114 13.593 29.8114 14.1673C29.8114 14.7417 30.2769 15.2072 30.8513 15.2072H45.5375C46.823 15.2075 47.8687 14.1616 47.8687 12.8761Z" fill="#4EA0D8"/>
<path d="M55.6446 63.4141C55.0702 63.4141 54.6047 63.8798 54.6047 64.454V65.8544C54.6047 67.5447 53.2295 68.9201 51.5389 68.9201H5.53287C3.8426 68.9201 2.46725 67.5449 2.46725 65.8544V15.8679C2.46725 15.6429 2.4936 15.4221 2.54061 15.2073H12.0095C13.9864 15.2073 15.5948 13.599 15.5948 11.6221V2.1533C15.8096 2.10629 16.0302 2.07994 16.2553 2.07994H51.5388C53.2292 2.07994 54.6046 3.45515 54.6046 5.14556V18.9908C54.6046 19.5652 55.0701 20.0307 55.6445 20.0307C56.2188 20.0307 56.6844 19.5651 56.6844 18.9908V5.14542C56.6845 2.30833 54.3762 0 51.5389 0H16.2554C14.881 0 13.5887 0.535273 12.6169 1.50709L1.8944 12.2296C0.922586 13.2014 0.387451 14.4936 0.387451 15.8681V65.8546C0.387451 68.6918 2.69564 71 5.53287 71H51.5389C54.3762 71 56.6845 68.6917 56.6845 65.8546V64.4541C56.6845 63.8798 56.219 63.4141 55.6446 63.4141ZM13.515 3.55055V11.6221C13.515 12.4522 12.8396 13.1275 12.0095 13.1275H3.93801L13.515 3.55055Z" fill="#4EA0D8"/>
<path d="M69.8882 37.1639C70.6182 36.0924 70.807 34.7707 70.4064 33.5376C70.0058 32.3046 69.076 31.3464 67.8557 30.9087C67.0461 30.6183 66.506 29.875 66.4802 29.0153C66.4409 27.7194 65.8168 26.539 64.7677 25.7769C63.719 25.0149 62.4032 24.7862 61.1591 25.1493C60.3329 25.3903 59.4597 25.1063 58.9333 24.4261C58.1399 23.4006 56.9412 22.8125 55.6447 22.8125C54.3482 22.8125 53.1494 23.4006 52.3559 24.4261C51.8295 25.1064 50.9557 25.39 50.1302 25.1493C48.8859 24.7859 47.5703 25.0149 46.5213 25.7769C45.4724 26.539 44.8485 27.7193 44.8091 29.0151C44.7832 29.8749 44.2432 30.6181 43.4335 30.9086C42.2132 31.3462 41.2834 32.3046 40.8829 33.5375C40.4823 34.7706 40.6711 36.0924 41.4011 37.1638C41.8854 37.8747 41.8854 38.7933 41.4011 39.5041C40.6711 40.5757 40.4823 41.8973 40.8829 43.1304C41.2834 44.3635 42.2132 45.3217 43.4335 45.7595C44.2432 46.05 44.7833 46.7931 44.8091 47.6529C44.8453 48.8449 45.3915 49.965 46.3082 50.7256C46.9129 51.2276 47.6394 51.5417 48.3997 51.6467V61.1149C48.3997 61.9138 48.8331 62.6522 49.5305 63.0417C50.227 63.431 51.0833 63.4137 51.7641 62.9945L55.5782 60.6465C55.6404 60.6081 55.6774 60.6254 55.7116 60.6465L59.5255 62.9945C60.206 63.4132 61.062 63.4313 61.7592 63.0416C62.4568 62.6519 62.89 61.9135 62.89 61.1148V51.6464C63.65 51.5416 64.3765 51.2275 64.9813 50.7256C65.898 49.965 66.4444 48.8451 66.4806 47.6528C66.5064 46.793 67.0465 46.0497 67.8561 45.7594C69.0765 45.3217 70.0063 44.3633 70.4068 43.1303C70.8074 41.8972 70.6186 40.5755 69.8886 39.504C69.4038 38.7934 69.4038 37.8749 69.8882 37.1639ZM60.6156 61.2233L56.8016 58.8754C56.0926 58.439 55.1973 58.4383 54.4876 58.8754L50.6735 61.2232C50.5867 61.276 50.4795 61.2152 50.4795 61.1148V51.4492C51.1945 51.3664 51.9034 51.6573 52.3559 52.2421C53.1495 53.2675 54.3482 53.8556 55.6448 53.8556C56.9412 53.8556 58.1399 53.2675 58.9333 52.2421C59.3859 51.6572 60.0949 51.3664 60.8098 51.4492V61.1148C60.8098 61.2159 60.7012 61.2762 60.6156 61.2233ZM68.1693 40.6755C68.5343 41.2111 68.6286 41.8715 68.4284 42.4878C68.2281 43.1041 67.7635 43.583 67.1534 43.8019C65.5335 44.3829 64.4532 45.8699 64.4012 47.5901C64.3828 48.1948 64.1169 48.74 63.6528 49.1252C63.131 49.5583 62.4243 49.7216 61.7418 49.5225C60.0898 49.0405 58.3415 49.6085 57.2882 50.9694C56.8917 51.4818 56.2925 51.7758 55.6445 51.7758C54.9966 51.7758 54.3974 51.4819 54.0007 50.9694C53.1965 49.9299 51.9872 49.353 50.7249 49.353C50.3341 49.353 49.938 49.4084 49.5475 49.5223C48.8583 49.7231 48.1537 49.5548 47.6361 49.1251C47.1719 48.7398 46.9061 48.1947 46.8879 47.5901C46.8358 45.8699 45.7555 44.3829 44.1354 43.8017C43.5256 43.5829 43.061 43.1041 42.8606 42.4878C42.6604 41.8715 42.7547 41.2109 43.1197 40.6754C44.0886 39.253 44.0886 37.4152 43.1197 35.9928C42.7547 35.4573 42.6604 34.7966 42.8606 34.1803C43.0609 33.564 43.5256 33.085 44.1354 32.8663C45.7555 32.2852 46.8358 30.7982 46.8879 29.078C46.9075 28.4302 47.2192 27.8403 47.7435 27.4595C48.2676 27.0786 48.9249 26.9643 49.5474 27.1457C51.199 27.6279 52.9476 27.0597 54.0007 25.6988C54.3973 25.1863 54.9964 24.8923 55.6445 24.8923C56.2925 24.8923 56.8916 25.1861 57.2882 25.6987C58.3414 27.0597 60.0892 27.6277 61.7416 27.1457C62.3637 26.964 63.021 27.0785 63.5453 27.4594C64.0697 27.8402 64.3817 28.4302 64.4011 29.0778C64.4532 30.798 65.5335 32.2852 67.1534 32.8662C67.7635 33.0849 68.228 33.5639 68.4284 34.1801C68.6286 34.7964 68.5343 35.4571 68.1693 35.9926C67.2002 37.4151 67.2002 39.2531 68.1693 40.6755Z" fill="#4EA0D8"/>
<path d="M55.6445 29.618C50.8385 29.618 46.9285 33.5279 46.9285 38.334C46.9285 43.1401 50.8385 47.0501 55.6445 47.0501C60.4505 47.0501 64.3605 43.1401 64.3605 38.334C64.3605 33.5279 60.4505 29.618 55.6445 29.618ZM55.6445 44.9703C51.9853 44.9703 49.0083 41.9933 49.0083 38.3342C49.0083 34.675 51.9853 31.6979 55.6445 31.6979C59.3038 31.6979 62.2807 34.6749 62.2807 38.3342C62.2807 41.9934 59.3037 44.9703 55.6445 44.9703Z" fill="#4EA0D8"/>
</svg>
