<svg width="59" height="59" viewBox="0 0 59 59" fill="none" xmlns="http://www.w3.org/2000/svg">
<path d="M58.4022 17.594L38.5819 6.71061C38.2367 6.5211 37.818 6.5211 37.4728 6.71061L30.0195 10.8032C29.8511 10.85 29.694 10.936 29.5608 11.0549L17.6525 17.594C17.2838 17.7965 17.0547 18.1836 17.0547 18.6041V20.9601H3.75952C3.12303 20.9601 2.60718 21.4764 2.60718 22.1124C2.60718 22.7489 3.12303 23.2647 3.75952 23.2647H17.0547V27.4132H10.4481C9.81158 27.4132 9.29572 27.9295 9.29572 28.5655C9.29572 29.202 9.81158 29.7179 10.4481 29.7179H17.0547V35.7101H7.375C6.73851 35.7101 6.22266 36.2264 6.22266 36.8624C6.22266 37.4989 6.73851 38.0147 7.375 38.0147H17.0547V40.3712C17.0547 40.7916 17.2838 41.1787 17.6525 41.3813L37.4728 52.2646C37.6456 52.3596 37.8365 52.4069 38.0273 52.4069C38.2182 52.4069 38.4091 52.3596 38.5819 52.2646L58.4022 41.3813C58.7709 41.1787 59 40.7916 59 40.3712V35.2109C59 34.5748 58.4841 34.0585 57.8477 34.0585C57.2112 34.0585 56.6953 34.5748 56.6953 35.2109V39.6892L39.1797 49.3073V30.1694L44.7501 27.1107V31.9649C44.7501 32.3728 44.9653 32.75 45.3159 32.957C45.4964 33.0637 45.6994 33.1173 45.9024 33.1173C46.0933 33.1173 46.2846 33.07 46.4579 32.9746L50.7054 30.637C51.0731 30.4345 51.3018 30.0478 51.3018 29.6274V23.5132L56.6953 20.5518V25.9921C56.6953 26.6286 57.2112 27.1445 57.8477 27.1445C58.4841 27.1445 59 26.6286 59 25.9921V18.6041C59 18.1836 58.7709 17.7965 58.4022 17.594ZM36.875 49.3073L19.3594 39.6892V20.5518L36.875 30.1694V49.3073ZM38.0273 28.173L20.6013 18.6041L26.0781 15.5967L43.5046 25.1657L38.0273 28.173ZM45.8988 23.8508L28.4723 14.2819L30.3616 13.2448L47.7876 22.8137L45.8988 23.8508ZM48.9971 28.9463L47.0548 30.0154V25.8454L48.9971 24.7785V28.9463ZM50.1819 21.4989L32.7558 11.9299L38.0273 9.03555L55.4534 18.6041L50.1819 21.4989Z" fill="#FCBF07"/>
<path d="M57.8477 29.4496C57.5447 29.4496 57.2472 29.5716 57.0329 29.7872C56.8186 30.0014 56.6953 30.2976 56.6953 30.6019C56.6953 30.9049 56.8186 31.2024 57.0329 31.4167C57.2472 31.6309 57.5447 31.7543 57.8477 31.7543C58.1506 31.7543 58.4481 31.6309 58.6624 31.4167C58.8767 31.2024 59 30.9049 59 30.6019C59 30.2976 58.8767 30.0014 58.6624 29.7872C58.4481 29.5716 58.1506 29.4496 57.8477 29.4496Z" fill="#FCBF07"/>
<path d="M2.80389 35.7101H1.15234C0.515854 35.7101 0 36.2264 0 36.8624C0 37.4989 0.515854 38.0148 1.15234 38.0148H2.80389C3.44038 38.0148 3.95623 37.4989 3.95623 36.8624C3.95623 36.2264 3.44038 35.7101 2.80389 35.7101Z" fill="#FCBF07"/>
<path d="M6.99146 28.5656C6.99146 28.2626 6.86812 27.9655 6.6534 27.7513C6.43914 27.5365 6.14205 27.4132 5.83911 27.4132C5.53572 27.4132 5.23863 27.5365 5.02437 27.7513C4.80875 27.9655 4.68677 28.2626 4.68677 28.5656C4.68677 28.8689 4.80875 29.166 5.02437 29.3803C5.23863 29.5946 5.53572 29.7179 5.83911 29.7179C6.14205 29.7179 6.43914 29.595 6.6534 29.3803C6.86812 29.166 6.99146 28.8689 6.99146 28.5656Z" fill="#FCBF07"/>
</svg>
