<svg width="24" height="24" viewBox="0 0 24 24" fill="none" xmlns="http://www.w3.org/2000/svg">
<g clip-path="url(#clip0)">
<path d="M15.9092 12.123L24.0002 17.238V6.79199L15.9092 12.123Z" fill="#FCBF07"/>
<path d="M0 6.79199V17.238L8.091 12.123L0 6.79199Z" fill="#FCBF07"/>
<path d="M22.4999 3.75H1.49992C0.751422 3.75 0.157422 4.308 0.0449219 5.0265L11.9999 12.903L23.9549 5.0265C23.8424 4.308 23.2484 3.75 22.4999 3.75Z" fill="#FCBF07"/>
<path d="M14.5349 13.029L12.4124 14.427C12.2864 14.5095 12.1439 14.55 11.9999 14.55C11.8559 14.55 11.7134 14.5095 11.5874 14.427L9.46485 13.0275L0.0478516 18.984C0.163352 19.6965 0.754352 20.25 1.49985 20.25H22.4999C23.2454 20.25 23.8364 19.6965 23.9519 18.984L14.5349 13.029Z" fill="#FCBF07"/>
</g>
<defs>
<clipPath id="clip0">
<rect width="24" height="24" fill="white"/>
</clipPath>
</defs>
</svg>
