<svg width="29" height="28" viewBox="0 0 29 28" fill="none" xmlns="http://www.w3.org/2000/svg">
<path d="M28.8679 14.252C28.8679 6.71022 22.4065 0.5979 14.434 0.5979C6.46145 0.5979 0 6.71022 0 14.252C0 21.7937 6.46145 27.906 14.434 27.906C14.5185 27.906 14.6031 27.906 14.6877 27.9007V17.2761H11.5866V13.8573H14.6877V11.3398C14.6877 8.42231 16.5709 6.8329 19.3223 6.8329C20.6417 6.8329 21.775 6.92357 22.102 6.96624V10.0171H20.2075C18.7134 10.0171 18.4202 10.6891 18.4202 11.6758V13.8519H22.0005L21.5325 17.2708H18.4202V27.378C24.4532 25.7406 28.8679 20.4869 28.8679 14.252Z" fill="#FCBF07"/>
</svg>
