<svg width="29" height="28" viewBox="0 0 29 28" fill="none" xmlns="http://www.w3.org/2000/svg">
<path d="M17.1967 14.2519C17.1967 15.6952 15.9598 16.8652 14.4339 16.8652C12.908 16.8652 11.6711 15.6952 11.6711 14.2519C11.6711 12.8087 12.908 11.6387 14.4339 11.6387C15.9598 11.6387 17.1967 12.8087 17.1967 14.2519Z" fill="#FCBF07"/>
<path d="M20.8952 9.62798C20.7624 9.28755 20.5505 8.9794 20.2752 8.72647C20.0078 8.46604 19.6823 8.26562 19.3222 8.13998C19.0302 8.03269 18.5915 7.90497 17.7834 7.87018C16.9092 7.83247 16.6471 7.82434 14.4341 7.82434C12.2209 7.82434 11.9588 7.83226 11.0849 7.86997C10.2768 7.90497 9.83786 8.03269 9.54603 8.13998C9.18593 8.26562 8.86019 8.46604 8.59304 8.72647C8.31773 8.9794 8.10586 9.28734 7.97283 9.62798C7.8594 9.90425 7.72439 10.3195 7.68761 11.0839C7.64775 11.9106 7.63916 12.1585 7.63916 14.2522C7.63916 16.3456 7.64775 16.5936 7.68761 17.4205C7.72439 18.1849 7.8594 18.5999 7.97283 18.8762C8.10586 19.2168 8.31751 19.5248 8.59282 19.7777C8.86019 20.0381 9.18571 20.2386 9.54581 20.3642C9.83786 20.4717 10.2768 20.5994 11.0849 20.6342C11.9588 20.6719 12.2207 20.6798 14.4339 20.6798C16.6474 20.6798 16.9095 20.6719 17.7832 20.6342C18.5912 20.5994 19.0302 20.4717 19.3222 20.3642C20.0451 20.1004 20.6164 19.56 20.8952 18.8762C21.0086 18.5999 21.1436 18.1849 21.1806 17.4205C21.2205 16.5936 21.2289 16.3456 21.2289 14.2522C21.2289 12.1585 21.2205 11.9106 21.1806 11.0839C21.1439 10.3195 21.0089 9.90425 20.8952 9.62798ZM14.4341 18.278C12.0835 18.278 10.1779 16.4756 10.1779 14.252C10.1779 12.0283 12.0835 10.2259 14.4341 10.2259C16.7846 10.2259 18.6901 12.0283 18.6901 14.252C18.6901 16.4756 16.7846 18.278 14.4341 18.278ZM18.8584 11.0076C18.3091 11.0076 17.8638 10.5864 17.8638 10.0668C17.8638 9.54714 18.3091 9.12587 18.8584 9.12587C19.4077 9.12587 19.853 9.54714 19.853 10.0668C19.8528 10.5864 19.4077 11.0076 18.8584 11.0076Z" fill="#FCBF07"/>
<path d="M14.434 0.5979C6.46352 0.5979 0 6.71218 0 14.252C0 21.7917 6.46352 27.906 14.434 27.906C22.4044 27.906 28.8679 21.7917 28.8679 14.252C28.8679 6.71218 22.4044 0.5979 14.434 0.5979ZM22.6722 17.4844C22.6321 18.319 22.4918 18.8889 22.287 19.3876C21.8564 20.4408 20.9763 21.2734 19.863 21.6807C19.3359 21.8744 18.7334 22.0069 17.8513 22.0451C16.9674 22.0832 16.6851 22.0924 14.4342 22.0924C12.1831 22.0924 11.9009 22.0832 11.0169 22.0451C10.1348 22.0069 9.53219 21.8744 9.00515 21.6807C8.45189 21.4838 7.95106 21.1752 7.537 20.7763C7.11545 20.3848 6.78926 19.9108 6.58113 19.3876C6.37631 18.8891 6.23601 18.319 6.19593 17.4846C6.15518 16.6483 6.14571 16.3812 6.14571 14.252C6.14571 12.1227 6.15518 11.8556 6.1957 11.0195C6.23579 10.1849 6.37587 9.61504 6.58069 9.11627C6.78882 8.59311 7.11523 8.11913 7.537 7.72765C7.95084 7.32867 8.45189 7.02011 9.00493 6.82323C9.53219 6.62947 10.1346 6.49696 11.0169 6.45883C11.9007 6.42071 12.1831 6.41154 14.434 6.41154C16.6849 6.41154 16.9672 6.42071 17.8511 6.45904C18.7334 6.49696 19.3357 6.62947 19.863 6.82302C20.416 7.01991 20.9171 7.32867 21.3311 7.72765C21.7527 8.11934 22.0791 8.59311 22.287 9.11627C22.4921 9.61504 22.6321 10.1849 22.6724 11.0195C22.7127 11.8556 22.7222 12.1227 22.7222 14.252C22.7222 16.3812 22.7127 16.6483 22.6722 17.4844Z" fill="#FCBF07"/>
</svg>
