<svg width="28" height="28" viewBox="0 0 28 28" fill="none" xmlns="http://www.w3.org/2000/svg">
<path d="M17.3898 8.72046C17.3898 6.85054 15.8686 5.32922 13.9986 5.32922C12.1287 5.32922 10.6074 6.85048 10.6074 8.72046C10.6074 10.5904 12.1287 12.1117 13.9986 12.1117C15.8686 12.1117 17.3898 10.5904 17.3898 8.72046Z" fill="#FCBF07"/>
<path d="M19.6098 21.8072C19.1134 21.6298 18.5643 21.4793 17.9772 21.3563C16.2072 23.4622 14.7279 24.9205 14.5736 25.0714L14.0009 25.6317L13.4272 25.0725C13.2727 24.9219 11.7891 23.4651 10.0155 21.3587C9.43263 21.4812 8.88746 21.6309 8.39436 21.8071C6.11917 22.6201 5.6416 23.7121 5.6416 24.485C5.6416 25.2578 6.11917 26.3498 8.39436 27.1628C9.90484 27.7027 11.8964 28 14.0021 28C16.1078 28 18.0993 27.7027 19.6098 27.1628C21.885 26.3498 22.3625 25.2578 22.3625 24.485C22.3625 23.7121 21.8849 22.6202 19.6098 21.8072Z" fill="#FCBF07"/>
<path d="M18.1868 18.4713C21.2248 14.5181 22.8306 11.1846 22.8306 8.83128C22.8306 3.96172 18.8689 0 13.9993 0C9.12969 0 5.16797 3.96172 5.16797 8.83133C5.16797 11.203 6.77777 14.5465 9.82335 18.5003C11.4802 20.6514 13.1493 22.4406 13.9982 23.317C14.8494 22.4348 16.5272 20.6307 18.1868 18.4713ZM8.96731 8.72042C8.96731 5.94579 11.2246 3.68843 13.9993 3.68843C16.7739 3.68843 19.0312 5.94573 19.0312 8.72042C19.0312 11.4951 16.7739 13.7524 13.9993 13.7524C11.2247 13.7524 8.96731 11.4951 8.96731 8.72042Z" fill="#FCBF07"/>
</svg>
