<svg width="59" height="59" viewBox="0 0 59 59" fill="none" xmlns="http://www.w3.org/2000/svg">
<path d="M52.0074 48.8331C51.8763 40.8147 43.678 38.4457 37.6918 36.7159C36.9934 36.5141 36.3217 36.3199 35.6922 36.1261V32.8183C36.916 32.0512 37.9884 31.064 38.8535 29.9124H42.5C44.2844 29.9124 45.7362 28.4606 45.7362 26.6762V22.7586C45.9525 22.2544 46.0727 21.6994 46.0727 21.1167V19.8983C46.0727 19.3161 45.9525 18.7615 45.7362 18.2576V16.2366C45.7362 7.28376 38.4527 0 29.5 0C20.549 0 13.267 7.28376 13.267 16.2367V18.1998C13.267 18.2153 13.2687 18.2302 13.2693 18.2455C13.0496 18.7527 12.9273 19.3114 12.9273 19.8984V21.1168C12.9273 23.42 14.7996 25.2938 17.1009 25.2938H18.0532C18.7128 28.4568 20.6547 31.1544 23.3077 32.8177V36.1261C22.6782 36.3199 22.0066 36.514 21.3082 36.7159C15.322 38.4457 7.12368 40.8148 6.99255 48.8331C6.99243 48.8394 6.99243 48.8456 6.99243 48.852V57.8477C6.99243 58.4841 7.50845 59 8.14478 59H11.5613C12.1976 59 12.7136 58.4841 12.7136 57.8477C12.7136 57.2112 12.1976 56.6953 11.5613 56.6953H9.29701V48.8615C9.34553 46.064 10.6306 43.9668 13.3411 42.2619C15.1296 41.1369 17.3162 40.3353 19.4716 39.6648L22.2557 45.0893C22.5661 45.694 23.3606 45.8994 23.9253 45.5185L25.1667 44.681L26.2325 48.6869L24.4064 56.6952H21.909C21.2727 56.6952 20.7567 57.2111 20.7567 57.8475C20.7567 58.484 21.2727 58.9999 21.909 58.9999H50.8552C51.4915 58.9999 52.0075 58.484 52.0075 57.8475V48.8518C52.0075 48.8456 52.0075 48.8394 52.0074 48.8331ZM37.052 38.9299C37.128 38.9518 37.2052 38.9743 37.2817 38.9964L35.2896 42.8814L31.5617 40.3676L34.7204 38.237C35.4542 38.4679 36.2345 38.6937 37.052 38.9299ZM29.5008 41.7576L31.8115 43.3158L30.6947 47.5134H28.3052L27.1888 43.3171L29.5008 41.7576ZM29.5006 38.9778L25.6123 36.3559V33.93C26.8293 34.3604 28.1373 34.5965 29.4999 34.5965C30.8623 34.5965 32.1706 34.3612 33.3874 33.9308V36.3559L29.5006 38.9778ZM38.888 16.4475C38.8723 16.4374 38.8566 16.4274 38.8408 16.4174C36.4763 14.9122 34.4341 13.6122 31.2343 14.5278C31.2045 14.5363 31.175 14.546 31.1461 14.5568C30.4677 14.8116 29.8509 15.0491 29.2542 15.2788C25.6101 16.6815 23.6205 17.4476 20.1118 17.3489V16.4261C20.1118 11.2493 24.3233 7.03774 29.4999 7.03774C34.6764 7.03774 38.8879 11.2493 38.8879 16.4261L38.888 16.4475ZM43.4315 26.6762C43.4315 27.1899 43.0137 27.6077 42.5 27.6077H40.2036C40.5278 26.8726 40.7791 26.0984 40.9468 25.2937H41.8991C42.4402 25.2937 42.9568 25.1891 43.4316 25.0007L43.4315 26.6762ZM43.768 21.1167C43.768 22.1491 42.9297 22.989 41.899 22.989H41.1917C41.1919 22.9604 41.1929 18.0292 41.1929 18.0292H41.8991C42.9297 18.0292 43.7681 18.8676 43.7681 19.8983L43.768 21.1167ZM17.1009 22.9891C16.0704 22.9891 15.232 22.1492 15.232 21.1168V19.8984C15.232 18.8677 16.0703 18.0293 17.1009 18.0293H17.8072C17.8072 18.0293 17.8081 22.9605 17.8084 22.9891H17.1009ZM17.8288 15.7245H17.1008C16.5621 15.7245 16.0476 15.8282 15.5744 16.0149C15.6935 8.43473 21.894 2.3047 29.5 2.3047C37.1081 2.3047 43.3104 8.43542 43.4286 16.0161C42.9547 15.8287 42.4389 15.7245 41.899 15.7245H41.1711C40.8069 9.60229 35.7117 4.73304 29.5 4.73304C23.2881 4.73304 18.1929 9.6024 17.8288 15.7245ZM20.1812 24.0245C20.1811 24.0234 20.1808 24.0222 20.1807 24.021C20.137 23.6543 20.1119 23.2818 20.1119 22.9035V19.6535C24.0544 19.7496 26.4063 18.8448 30.0821 17.4297C30.6611 17.2069 31.2595 16.9765 31.9114 16.7314C34.0882 16.1238 35.3407 16.9213 37.6032 18.3616C37.9958 18.6116 38.4264 18.8855 38.888 19.1668V22.9035C38.888 24.6172 38.4243 26.2235 37.6192 27.6078H29.5C28.8637 27.6078 28.3476 28.1238 28.3476 28.7602C28.3476 29.3966 28.8637 29.9125 29.5 29.9125H35.737C34.0773 31.3911 31.8923 32.2919 29.5 32.2919C24.7029 32.2918 20.7372 28.6743 20.1812 24.0245ZM23.7131 42.8815L21.7189 38.9962C21.7952 38.9741 21.8721 38.9518 21.948 38.9299C22.7654 38.6937 23.5458 38.4678 24.2798 38.2369L27.4398 40.3678L23.7131 42.8815ZM26.7703 56.6953L28.3385 49.8181H30.6618L32.2324 56.6953H26.7703ZM49.7028 56.6953H34.5965L32.7675 48.6868L33.8337 44.6794L35.0782 45.5186C35.643 45.8994 36.4376 45.694 36.7478 45.089L39.5289 39.665C41.6841 40.3355 43.8706 41.137 45.659 42.2619C48.3693 43.9667 49.6546 46.064 49.7031 48.8615L49.7028 56.6953Z" fill="#FCBF07"/>
<path d="M45.1522 50.9332H39.3447C38.7084 50.9332 38.1924 51.4491 38.1924 52.0856C38.1924 52.722 38.7084 53.2379 39.3447 53.2379H45.1522C45.7885 53.2379 46.3045 52.722 46.3045 52.0856C46.3045 51.4491 45.7886 50.9332 45.1522 50.9332Z" fill="#FCBF07"/>
<path d="M16.7351 56.6953C16.0988 56.6953 15.5828 57.2112 15.5828 57.8477C15.5828 58.4841 16.0988 59 16.7351 59H16.7383C17.3747 59 17.8889 58.4841 17.8889 57.8477C17.8889 57.2112 17.3714 56.6953 16.7351 56.6953Z" fill="#FCBF07"/>
</svg>
