<svg width="59" height="59" viewBox="0 0 59 59" fill="none" xmlns="http://www.w3.org/2000/svg">
<g clip-path="url(#clip0)">
<path d="M29.5 0C18.6397 0 9.80444 8.83525 9.80444 19.6955C9.80444 30.5552 18.6397 39.391 29.5 39.391C40.3596 39.391 49.1955 30.5552 49.1955 19.6955C49.1955 8.83525 40.3596 0 29.5 0ZM29.5 35.5165C20.7765 35.5165 13.679 28.419 13.679 19.6955C13.679 10.972 20.7765 3.87453 29.5 3.87453C38.2241 3.87453 45.3209 10.972 45.3209 19.6955C45.3209 28.419 38.2241 35.5165 29.5 35.5165Z" fill="#FCBF07"/>
<path d="M43.2521 56.293L42.2834 33.3041L38.4128 33.4668L39.2575 53.5046L31.2547 46.6092C30.2544 45.6747 28.7453 45.6735 27.7444 46.6092L19.7422 53.5039L20.5868 33.4668L16.7155 33.3041L15.7469 56.293C15.7462 56.3201 15.7456 56.3473 15.7456 56.3743C15.7456 57.4004 16.3416 58.3375 17.2644 58.7611C18.1917 59.1886 19.2571 59.0356 20.045 58.3581L29.5001 50.2118L38.9578 58.3612C39.4486 58.7816 40.0485 58.9993 40.6555 58.9993C41.021 58.9993 41.3884 58.9211 41.7358 58.761C42.6579 58.3374 43.254 57.4004 43.254 56.3742C43.254 56.3472 43.2534 56.3201 43.2521 56.293Z" fill="#FCBF07"/>
<path d="M38.1026 13.8049C37.3457 13.0481 36.1201 13.0481 35.3633 13.8049L26.9259 22.2424L23.0003 18.2691C22.2481 17.5078 21.0217 17.5001 20.2604 18.2523C19.499 19.0046 19.4913 20.2309 20.2436 20.9922L25.5387 26.352C25.9016 26.7195 26.395 26.9267 26.9109 26.9281C26.9129 26.9281 26.9148 26.9281 26.9167 26.9281C27.43 26.9281 27.9233 26.724 28.2869 26.3598L38.1023 16.5444C38.8594 15.788 38.8594 14.5611 38.1026 13.8049Z" fill="#FCBF07"/>
</g>
<defs>
<clipPath id="clip0">
<rect width="59" height="59" fill="white"/>
</clipPath>
</defs>
</svg>
