<svg fill="none" height="227" viewBox="0 0 333 227" width="333" xmlns="http://www.w3.org/2000/svg"><circle cx="166.5" cy="113.5" fill="#f9f9f9" r="113.5"/><g fill="#ea2b01"><path d="m103.992 141.245h-25.6493v33.882h-8.7241v-33.882h-69.6186v-6.462l66.3034-81.9098h9.9455l-65.082 80.5128h58.6261v-29.865h8.5497v29.865h25.6493z"/><path d="m164.065 176c-9.305 0-17.622-2.503-24.951-7.51-7.212-5.123-12.853-12.342-16.924-21.656-3.955-9.315-5.933-20.259-5.933-32.834s1.978-23.5192 5.933-32.8338c4.071-9.3146 9.712-16.4751 16.924-21.4817 7.329-5.123 15.646-7.6845 24.951-7.6845 9.306 0 17.565 2.5615 24.777 7.6845 7.328 5.0066 12.97 12.1671 16.925 21.4817 4.071 9.3146 6.107 20.2588 6.107 32.8338s-2.036 23.519-6.107 32.834c-3.955 9.314-9.597 16.533-16.925 21.656-7.212 5.007-15.471 7.51-24.777 7.51zm0-8.208c7.678 0 14.424-2.096 20.24-6.288 5.933-4.308 10.528-10.479 13.785-18.512 3.257-8.151 4.885-17.815 4.885-28.992s-1.628-20.7831-4.885-28.8169c-3.257-8.1502-7.852-14.3211-13.785-18.5127-5.816-4.308-12.562-6.462-20.24-6.462-7.677 0-14.482 2.154-20.414 6.462-5.816 4.1916-10.353 10.3625-13.61 18.5127-3.257 8.0338-4.885 17.6399-4.885 28.8169s1.628 20.841 4.885 28.992c3.257 8.033 7.794 14.204 13.61 18.512 5.932 4.192 12.737 6.288 20.414 6.288z"/><path d="m333 141.245h-25.649v33.882h-8.724v-33.882h-69.619v-6.462l66.304-81.9098h9.945l-65.082 80.5128h58.626v-29.865h8.55v29.865h25.649z"/></g></svg>