<svg fill="none" height="20" viewBox="0 0 20 20" width="20" xmlns="http://www.w3.org/2000/svg"><g clip-rule="evenodd" fill="#000" fill-rule="evenodd"><path d="m10 1.5c-4.687 0-8.5 3.813-8.5 8.5s3.813 8.5 8.5 8.5 8.5-3.813 8.5-8.5-3.813-8.5-8.5-8.5zm0 18.5c-5.514 0-10-4.486-10-10s4.486-10 10-10 10 4.486 10 10-4.486 10-10 10z"/><path d="m10 12.7939c-.19895 0-.39095-.079-.53095-.221l-3.471-3.48599c-.293-.294-.291-.769.002-1.061.294-.292.769-.292 1.061.002l2.93895 2.95399 2.94-2.95399c.292-.294.767-.294 1.061-.002.293.292.294.767.002 1.061l-3.472 3.48599c-.14.142-.332.221-.531.221z"/></g></svg>