<svg fill="none" height="30" viewBox="0 0 31 30" width="31" xmlns="http://www.w3.org/2000/svg"><path d="m.00000987 14.9953c.00939554-8.28688 6.71781013-14.9953 15.00469013-14.9953 8.3526 0 15.0704 6.70842 15.0516 15.0423-.0188 8.3338-6.7554 14.9765-15.1738 14.9577-8.19287-.0188-14.89188567-6.7742-14.88249013-15.0047zm13.56719013 2.4334c-1.1557-1.1556-2.2831-2.2925-3.4106-3.4106-.68589-.6858-1.60665-.714-2.22675-.0845-.61071.6201-.58253 1.5221.08456 2.1891 1.4563 1.4658 2.92199 2.9221 4.38769 4.3784.6671.6671 1.4939.6858 2.1986.0563.6013-.5355 1.1932-1.0898 1.7945-1.6348 2.3583-2.1516 4.7072-4.3125 7.0655-6.4641.3382-.3101.5637-.6577.5919-1.1181.0376-.6013-.2819-1.1744-.8362-1.42811-.6013-.28186-1.1745-.21609-1.6724.23491-1.3436 1.212-2.6684 2.4334-4.0025 3.6548-1.3154 1.1933-2.6308 2.3959-3.9743 3.6267z" fill="#54595f"/></svg>