<svg fill="none" height="34" viewBox="0 0 34 34" width="34" xmlns="http://www.w3.org/2000/svg"><path d="m.0276034 10.1284c.3128386-.95693.9937266-1.28817 1.9598466-1.26057 1.21455.03681 2.4291.0092 3.69886.0092 0-.25763 0-.49686 0-.73609.0092-.7913.34964-1.13174 1.13174-1.13174 5.21705 0 10.44335-.0092 15.66035-.0092.8741 0 1.2238.35884 1.233 1.22375v2.78795h2.107c.6533 0 1.2698.1564 1.7574.5705.3497.2944.6717.6533.8926 1.0397.4048.7085.7636 1.4446 1.0857 2.1991.2944.6809.8005 1.0581 1.4998 1.2237.4416.1012.8833.2117 1.3157.3405.9202.2668 1.4722.9017 1.5458 1.831.092 1.2882.1012 2.5855.0644 3.8737-.0276.9293-.7913 1.5458-1.8126 1.5642-.6717.0092-1.3526.0092-2.0242 0-.2025 0-.2853.0736-.3313.2668-.6165 2.4659-3.1836 3.6161-5.4195 2.4015-.8925-.4877-1.4629-1.2605-1.739-2.2451-.0368-.1288-.0644-.2576-.1012-.4048-.1012-.0092-.2024-.0184-.2944-.0184-2.0887 0-4.1773 0-6.2752-.0092-.2392 0-.3404.0644-.3957.3128-.3864 1.6286-1.7574 2.7512-3.4136 2.834-1.6194.0828-3.11917-.9293-3.66204-2.4751-.07361-.2025-.06441-.5245-.20242-.6073-.19323-.1104-.48766-.0552-.7453-.0552-.27603-.0092-.55206.0092-.8281 0-.66248-.0184-1.03973-.4049-1.05813-1.0674-.0092-.4784 0-.9477 0-1.4905-.48766 0-.94772.0276-1.40778-.0092-.7913-.0553-1.38937-.7085-1.40777-1.4906-.0092-.8281.61647-1.5182 1.44458-1.5642.44165-.0184.88331 0 1.34336 0 0-.5061 0-.9753 0-1.4814-.64408 0-1.26975 0-1.89543 0-.31284 0-.61648.0092-.92932-.0276-.8189-.092-1.40777-.7545-1.38937-1.5458.0184-.8281.65328-1.4906 1.49979-1.5182.8281-.0276 1.6562-.0092 2.48431-.0092.0644 0 .12881-.0092.22082-.0092 0-.4785 0-.9477 0-1.463-.11961 0-.23923 0-.34964 0-1.10414 0-2.21748-.0276-3.32161.0092-.96612.0276-1.656211-.3036-1.96905-1.2605.0276034-.2025.0276034-.3957.0276034-.5981zm28.4867966 5.8887c-.3865-.7821-.7637-1.5458-1.141-2.3095-.3128-.6348-.8189-1.0857-1.509-1.1777-.6993-.092-1.4262-.0184-2.1438-.0184v3.5056zm-15.1543 7.1033c.0092-.7361-.6165-1.3618-1.3434-1.3618s-1.325.6073-1.3342 1.3342c-.0092.7361.6073 1.3618 1.3434 1.3618.7177 0 1.3342-.6073 1.3342-1.3342zm14.2065-.0092c0-.7361-.6164-1.3618-1.3525-1.3526-.7269.0092-1.325.6073-1.3342 1.3434 0 .7453.6165 1.3618 1.3526 1.3526.7269-.0092 1.3341-.6165 1.3341-1.3434z" fill="#54595f"/></svg>