<svg fill="none" height="40" viewBox="0 0 40 40" width="40" xmlns="http://www.w3.org/2000/svg"><circle cx="20" cy="20" fill="#f4f4f4" r="20"/><path clip-rule="evenodd" d="m23.7104 14c.8716 0 1.7101.3445 2.3269.9626.6175.6169.9627 1.4489.9627 2.3199v5.135c0 1.8135-1.4755 3.2825-3.2896 3.2825h-6.4214c-1.8142 0-3.289-1.469-3.289-3.2825v-5.135c0-1.8135 1.4683-3.2825 3.289-3.2825zm1.0341 4.251.052-.052c.1553-.1885.1553-.4615-.0072-.65-.0903-.0969-.2145-.156-.3438-.169-.1365-.0072-.2665.039-.3647.13l-2.9308 2.34c-.377.3126-.9172.3126-1.3 0l-2.925-2.34c-.2022-.1495-.4817-.13-.65.0455-.1755.1755-.195.455-.0462.65l.0852.0845 2.9575 2.3075c.364.286.8053.442 1.2675.442.4608 0 .91-.156 1.2733-.442z" fill="#ea2b01" fill-rule="evenodd"/></svg>