<svg fill="none" height="17" viewBox="0 0 20 17" width="20" xmlns="http://www.w3.org/2000/svg" xmlns:xlink="http://www.w3.org/1999/xlink"><mask id="a" height="17" maskUnits="userSpaceOnUse" width="20" x="0" y="0"><path clip-rule="evenodd" d="m0 0h19.9998v16.105h-19.9998z" fill="#fff" fill-rule="evenodd"/></mask><path clip-rule="evenodd" d="m9.99938 5.64111c-1.33 0-2.411 1.082-2.411 2.412 0 1.329 1.081 2.40999 2.411 2.40999 1.33002 0 2.41202-1.08099 2.41202-2.40999 0-1.33-1.082-2.412-2.41202-2.412zm0 6.32199c-2.157 0-3.911-1.754-3.911-3.90999 0-2.157 1.754-3.912 3.911-3.912 2.15702 0 3.91202 1.755 3.91202 3.912 0 2.15599-1.755 3.90999-3.91202 3.90999z" fill="#ea2b01" fill-rule="evenodd"/><g mask="url(#a)"><path clip-rule="evenodd" d="m1.56975 8.05229c1.86 4.10901 4.993 6.55201 8.43 6.55301 3.43705-.001 6.56995-2.444 8.43005-6.55301-1.8601-4.108-4.993-6.551-8.43005-6.552-3.436.001-6.57 2.444-8.43 6.552zm8.43195 8.05301h-.00395-.001c-4.136-.003-7.85-2.902-9.936-7.75701-.081-.189-.081-.403 0-.592 2.086-4.854 5.801-7.75299776 9.936-7.75599776.002-.001.002-.001.003 0 .00195-.001.00195-.001.00305 0 4.136.003 7.8499 2.90199776 9.9359 7.75599776.0821.189.0821.403 0 .592-2.085 4.85501-5.7999 7.75401-9.9359 7.75701z" fill="#ea2b01" fill-rule="evenodd"/></g></svg>