<svg fill="none" height="30" viewBox="0 0 30 30" width="30" xmlns="http://www.w3.org/2000/svg"><circle cx="15" cy="15" fill="#ea2b01" r="15"/><g fill="#fff"><path d="m17.5142 9h-5.0284c-1.9221 0-3.4858 1.5637-3.4858 3.4858v5.0284c0 1.9221 1.5637 3.4858 3.4858 3.4858h5.0284c1.9221 0 3.4858-1.5637 3.4858-3.4858v-5.0284c0-1.9221-1.5637-3.4858-3.4858-3.4858zm2.5483 8.5142c0 1.4051-1.1432 2.5483-2.5483 2.5483h-5.0284c-1.4051 0-2.5483-1.1432-2.5483-2.5483v-5.0284c0-1.4051 1.1432-2.5483 2.5483-2.5483h5.0284c1.4051 0 2.5483 1.1432 2.5483 2.5483z"/><path d="m15 11.7656c-1.7835 0-3.2344 1.4509-3.2344 3.2344s1.4509 3.2344 3.2344 3.2344 3.2344-1.4509 3.2344-3.2344-1.4509-3.2344-3.2344-3.2344zm0 5.5313c-1.2665 0-2.2969-1.0304-2.2969-2.2969s1.0304-2.2969 2.2969-2.2969 2.2969 1.0304 2.2969 2.2969-1.0304 2.2969-2.2969 2.2969z"/><path d="m18.2812 12.1875c.2589 0 .4688-.2099.4688-.4687 0-.2589-.2099-.4688-.4688-.4688-.2588 0-.4687.2099-.4687.4688 0 .2588.2099.4687.4687.4687z"/></g></svg>