<svg fill="none" height="29" viewBox="0 0 30 29" width="30" xmlns="http://www.w3.org/2000/svg"><path d="m30 12.6953v.8203c-.1641.6016-.3594 1.1875-.8203 1.6641.4609.4297.6641.9844.8203 1.5547v.8203c-.1719.6719-.4453 1.2812-1.0078 1.7266-.1641.1328-.3438.25-.5156.3671.625 1.461.125 2.9532-1.25 3.75.0312.086.0625.1797.0937.2657.211.5781.2344 1.164.0625 1.75-.3516 1.2109-1.4765 2.0156-2.8359 2.0234-3.7891 0-7.5781.0078-11.3672 0-1 0-1.9453-.25-2.875-.5937-.2422-.0938-.3047-.2188-.3047-.4688.0078-4.0703.0078-8.1484.0078-12.2187 0-.3829.0391-.7344.2266-1.125 1.1718-2.4297 2.289-4.88285 3.414-7.33598.0703-.15625.1094-.33594.1094-.5.0078-1.27344-.0078-2.55469.0156-3.82813 0-.20312.086-.48437.2266-.593745.8828-.664063 2.4219-1.257813 3.75-.179688 1.4609 1.187503 2.2891 2.687503 2.2422 4.601563-.0313 1.51562-.4219 2.96094-.8594 4.39844-.0312.11718-.0625.22656-.1016.375h.3907 7.1797c1.5468 0 2.7968.84374 3.2422 2.17184.0624.1797.1015.375.1562.5547z" fill="#54595f"/><path d="m0 15.1563c.140625-.5235.304687-1.0391.65625-1.4766.60156-.7422 1.38281-1.1875 2.34375-1.2031 1.875-.0234 3.75-.0078 5.625-.0078.03125 0 .05469.0078.10938.0234.00781.1016.01562.2031.01562.3047 0 4.9922 0 9.9844.00781 14.9688 0 .2265-.0625.3593-.25781.4687-.47656.2656-.97656.4453-1.52344.4453-1.30468 0-2.61718.0235-3.92187-.0078-1.50781-.0312-2.703128-1.0781-2.9843775-2.5625-.0078125-.0469-.03125-.0859-.0546875-.1328-.015625-3.6094-.015625-7.2188-.015625-10.8203z" fill="#54595f"/><path d="m30 16.7344c-.1562-.5703-.3594-1.125-.8203-1.5547.4609-.4766.6562-1.0625.8203-1.6641z" fill="#fff"/></svg>