<svg fill="none" height="40" viewBox="0 0 40 40" width="40" xmlns="http://www.w3.org/2000/svg"><circle cx="20" cy="20" fill="#f4f4f4" r="20"/><path clip-rule="evenodd" d="m14 19.4065c0-2.9899 2.4985-5.4065 5.5207-5.4065 3.0308 0 5.5293 2.4166 5.5293 5.4065 0 1.5067-.5479 2.9055-1.4498 4.091-.995 1.3078-2.2213 2.4472-3.6016 3.3416-.316.2067-.6011.2223-.9478 0-1.3882-.8944-2.6145-2.0338-3.601-3.3416-.9025-1.1855-1.4498-2.5843-1.4498-4.091zm3.7012.1684c0 1.0016.8173 1.7894 1.8195 1.7894 1.0028 0 1.828-.7878 1.828-1.7894 0-.9938-.8252-1.82-1.828-1.82-1.0022 0-1.8195.8262-1.8195 1.82z" fill="#ea2b01" fill-rule="evenodd"/></svg>