<svg fill="none" height="56" viewBox="0 0 307 56" width="307" xmlns="http://www.w3.org/2000/svg" xmlns:xlink="http://www.w3.org/1999/xlink"><linearGradient id="a"><stop offset="0" stop-color="#d45443"/><stop offset=".52" stop-color="#d24a45"/><stop offset="1" stop-color="#8e4a48"/></linearGradient><linearGradient id="b" gradientUnits="userSpaceOnUse" x1="119.07" x2="38.245" xlink:href="#a" y1="-9.07847" y2="53.9041"/><linearGradient id="c" gradientUnits="userSpaceOnUse" x1="111.367" x2="30.551" xlink:href="#a" y1="-19.1155" y2="43.8671"/><linearGradient id="d" gradientUnits="userSpaceOnUse" x1="117.288" x2="36.4627" xlink:href="#a" y1="-10.8052" y2="52.1681"/><linearGradient id="e" gradientUnits="userSpaceOnUse" x1="109.944" x2="29.1281" xlink:href="#a" y1="-20.7816" y2="42.1916"/><path d="m74.0408 11.0023h12.1201v2.5468h-4.5199v12.251h-3.0904v-12.251h-4.5098z" fill="#201600"/><path d="m91.3149 25.5786c-.8926-.3959-1.6341-.9395-2.2247-1.6308-.5906-.6979-1.0335-1.52-1.3288-2.4663-.2953-.9529-.4429-1.9797-.4429-3.0803 0-1.1073.1476-2.1341.4429-3.0804.2953-.9462.7382-1.765 1.3288-2.4562.5906-.698 1.3321-1.2449 2.2247-1.6409.8926-.3959 1.9328-.5939 3.1206-.5939 1.0939 0 2.0804.198 2.9596.5939.8791.396 1.6241.9429 2.2348 1.6409.6171.6912 1.0901 1.51 1.4191 2.4562.329.9463.493 1.9731.493 3.0804 0 1.1006-.164 2.1274-.493 3.0803-.329.9463-.802 1.7684-1.4191 2.4663-.6107.6913-1.3557 1.2349-2.2348 1.6308-.8792.3959-1.8657.5939-2.9596.5939-1.1878 0-2.228-.198-3.1206-.5939zm-.906-7.1774c0 .7382.094 1.416.2819 2.0334.1812.6241.4429 1.1644.7852 1.6207.349.4497.7717.802 1.2684 1.057.4966.255 1.0603.3825 1.6911.3825.6309 0 1.1946-.1275 1.6912-.3825s.9161-.6073 1.2583-1.057c.349-.4563.6141-.9932.7953-1.6106.1812-.6241.2718-1.3053.2718-2.0435s-.0906-1.4161-.2718-2.0335c-.1812-.6241-.4463-1.161-.7953-1.6106-.3422-.4564-.7617-.812-1.2583-1.0671-.4966-.255-1.0603-.3825-1.6912-.3825-.6308 0-1.1945.1275-1.6911.3825-.4967.2551-.9194.6107-1.2684 1.0671-.3423.4496-.6074.9865-.7953 1.6106-.1812.6174-.2718 1.2953-.2718 2.0335z" fill="#201600"/><path d="m107.361 25.5786c-.893-.3959-1.634-.9395-2.225-1.6308-.59-.6979-1.033-1.52-1.329-2.4663-.295-.9529-.442-1.9797-.442-3.0803 0-1.1073.147-2.1341.442-3.0804.296-.9462.739-1.765 1.329-2.4562.591-.698 1.332-1.2449 2.225-1.6409.893-.3959 1.933-.5939 3.121-.5939 1.093 0 2.08.198 2.959.5939.879.396 1.624.9429 2.235 1.6409.617.6912 1.09 1.51 1.419 2.4562.329.9463.494 1.9731.494 3.0804 0 1.1006-.165 2.1274-.494 3.0803-.329.9463-.802 1.7684-1.419 2.4663-.611.6913-1.356 1.2349-2.235 1.6308s-1.866.5939-2.959.5939c-1.188 0-2.228-.198-3.121-.5939zm-.906-7.1774c0 .7382.094 1.416.282 2.0334.181.6241.443 1.1644.785 1.6207.349.4497.772.802 1.268 1.057.497.255 1.061.3825 1.692.3825.63 0 1.194-.1275 1.691-.3825.496-.255.916-.6073 1.258-1.057.349-.4563.614-.9932.795-1.6106.182-.6241.272-1.3053.272-2.0435s-.09-1.4161-.272-2.0335c-.181-.6241-.446-1.161-.795-1.6106-.342-.4564-.762-.812-1.258-1.0671-.497-.255-1.061-.3825-1.691-.3825-.631 0-1.195.1275-1.692.3825-.496.2551-.919.6107-1.268 1.0671-.342.4496-.607.9865-.795 1.6106-.181.6174-.272 1.2953-.272 2.0335z" fill="#201600"/><path d="m125.682 11.0023h11.999v14.7978h-3.09v-12.251h-5.809v12.251h-3.1z" fill="#201600"/><path d="m149.358 20.1326c-.604.2349-1.288.3523-2.053.3523h-3.382v5.3152h-3.091v-14.7978h6.725c.785 0 1.466.1074 2.043.3221.584.2148 1.067.5268 1.45.9362.382.4094.667.906.855 1.4898.188.5839.282 1.2483.282 1.9932 0 .6912-.111 1.3288-.332 1.9127-.222.5771-.544 1.0771-.966 1.4999-.417.416-.927.7415-1.531.9764zm-5.435-2.2046h2.929c.698 0 1.245-.1711 1.641-.5133.402-.3423.604-.8993.604-1.6711 0-.3892-.054-.7214-.161-.9966-.101-.2751-.249-.4999-.443-.6744-.188-.1812-.423-.3121-.705-.3926-.275-.0873-.587-.1309-.936-.1309h-2.929z" fill="#201600"/><path d="m157.794 25.5786c-.892-.3959-1.634-.9395-2.225-1.6308-.59-.6979-1.033-1.52-1.328-2.4663-.296-.9529-.443-1.9797-.443-3.0803 0-1.1073.147-2.1341.443-3.0804.295-.9462.738-1.765 1.328-2.4562.591-.698 1.333-1.2449 2.225-1.6409.893-.3959 1.933-.5939 3.121-.5939 1.094 0 2.08.198 2.959.5939.88.396 1.624.9429 2.235 1.6409.618.6912 1.091 1.51 1.42 2.4562.328.9463.493 1.9731.493 3.0804 0 1.1006-.165 2.1274-.493 3.0803-.329.9463-.802 1.7684-1.42 2.4663-.611.6913-1.355 1.2349-2.235 1.6308-.879.3959-1.865.5939-2.959.5939-1.188 0-2.228-.198-3.121-.5939zm-.906-7.1774c0 .7382.094 1.416.282 2.0334.181.6241.443 1.1644.785 1.6207.349.4497.772.802 1.269 1.057.496.255 1.06.3825 1.691.3825s1.194-.1275 1.691-.3825.916-.6073 1.258-1.057c.349-.4563.614-.9932.796-1.6106.181-.6241.271-1.3053.271-2.0435s-.09-1.4161-.271-2.0335c-.182-.6241-.447-1.161-.796-1.6106-.342-.4564-.761-.812-1.258-1.0671-.497-.255-1.06-.3825-1.691-.3825s-1.195.1275-1.691.3825c-.497.2551-.92.6107-1.269 1.0671-.342.4496-.607.9865-.795 1.6106-.181.6174-.272 1.2953-.272 2.0335z" fill="#201600"/><path d="m176.055 12.6029v-1.6006h2.959v1.6006c.866.0268 1.628.1375 2.286.3322.657.1879 1.224.4362 1.701.7449.483.302.886.6476 1.208 1.0368.322.3826.58.7852.775 1.208.194.4228.332.849.413 1.2785.08.4228.12.8221.12 1.1979 0 .8053-.154 1.5536-.463 2.2448-.302.6845-.735 1.2818-1.298 1.7918-.564.5101-1.249.9195-2.054 1.2282-.798.302-1.694.4764-2.688.5234v1.6107h-2.959v-1.6107c-.993-.047-1.893-.2214-2.698-.5234-.799-.3087-1.48-.7181-2.043-1.2282-.564-.51-1-1.1073-1.309-1.7918-.302-.6912-.453-1.4395-.453-2.2448 0-.3758.04-.7751.121-1.1979.08-.4295.218-.8557.412-1.2785.195-.4228.453-.8254.776-1.208.322-.3892.724-.7348 1.208-1.0368.483-.3087 1.05-.557 1.701-.7449.657-.1947 1.419-.3054 2.285-.3322zm-1.228 9.231c.416.1409.825.2114 1.228.2114v-7.2983c-.705.0202-1.289.1443-1.752.3725-.456.2282-.818.5134-1.087.8556-.262.3423-.446.7181-.554 1.1275-.1.4094-.147.8087-.14 1.1979 0 .6778.107 1.255.322 1.7314.221.4698.5.8557.835 1.1577.342.2953.725.51 1.148.6443zm4.187-7.0869v7.2781c.403 0 .812-.0671 1.229-.2013.422-.1409.801-.359 1.137-.6543.342-.302.621-.6913.836-1.1678.221-.4764.332-1.0536.332-1.7314 0-.3825-.054-.7751-.161-1.1778-.101-.4093-.286-.7818-.554-1.1174-.268-.3422-.631-.6274-1.087-.8556-.45-.2282-1.027-.3523-1.732-.3725z" fill="#201600"/><path d="m197.325 11.0023h4.54v14.7978h-2.848v-12.3718h-.041l-2.808 12.3718h-3.01l-2.698-12.3718h-.04v12.3718h-2.849v-14.7978h4.52l2.597 11.5161h.04z" fill="#201600"/><path d="m215.224 19.3877h-7.258v3.7347h8.244v2.6777h-11.214v-14.7978h10.862v2.5468h-7.892v3.2817h7.258z" fill="#201600"/><path d="m217.307 11.0023h12.121v2.5468h-4.52v12.251h-3.091v-12.251h-4.51z" fill="#201600"/><path d="m244.155 25.8001h-3.362l-.947-3.0502h-5.466l-1.027 3.0502h-3.261l5.295-14.7978h3.533zm-5.174-5.6071-1.843-5.8587h-.04l-1.892 5.8587z" fill="#201600"/><path d="m247.91 11.0023h10.328v14.7978h-3.091v-12.251h-4.338l.01 2.2348c.007 1.3489-.024 2.5401-.091 3.5736-.06 1.0268-.161 1.9227-.302 2.6878-.134.7583-.308 1.3958-.523 1.9126-.208.5167-.457.9328-.745 1.2482-.289.3087-.618.5302-.987.6644s-.775.2014-1.218.2014c-.362 0-.684-.0235-.966-.0705-.275-.0403-.55-.1174-.826-.2315l-.01-2.8287c.094.0469.192.0872.292.1208.108.0268.212.0503.312.0704.101.0135.192.0235.272.0302.087.0067.155.0101.202.0101.181 0 .349-.0235.503-.0705.161-.0537.302-.1644.423-.3322.127-.1677.238-.4093.332-.7247.094-.3155.171-.7349.231-1.2584.067-.5234.114-1.171.141-1.9428.034-.7718.051-1.6945.051-2.7683z" fill="#201600"/><path d="m262.768 11.0023h10.328v14.7978h-3.09v-12.251h-4.339l.01 2.2348c.007 1.3489-.023 2.5401-.091 3.5736-.06 1.0268-.161 1.9227-.302 2.6878-.134.7583-.308 1.3958-.523 1.9126-.208.5167-.456.9328-.745 1.2482-.289.3087-.617.5302-.986.6644-.37.1342-.776.2014-1.218.2014-.363 0-.685-.0235-.967-.0705-.275-.0403-.55-.1174-.825-.2315l-.01-2.8287c.094.0469.191.0872.292.1208.107.0268.211.0503.312.0704.1.0135.191.0235.271.0302.088.0067.155.0101.202.0101.181 0 .349-.0235.503-.0705.161-.0537.302-.1644.423-.3322.127-.1677.238-.4093.332-.7247.094-.3155.171-.7349.232-1.2584.067-.5234.114-1.171.14-1.9428.034-.7718.051-1.6945.051-2.7683z" fill="#201600"/><path d="m294.749 25.8001h-3.986l-4.58-6.4829-1.48 1.5201v4.9628h-3.05v-14.8381h3.05v6.1104l5.728-6.1104h4.006l-6.08 6.1104z" fill="#201600"/><path d="m307 25.8001h-11.546v-2.6173l7.66-9.5934h-7.469v-2.6274h11.335v2.4864l-7.761 9.7344h7.781z" fill="#201600"/><g fill="#312a20"><path d="m76.3588 36.2883h1.2903l1.9035 5.6602h.0183l1.9035-5.6602h1.2903v6.7263h-.8419v-5.6601h-.0183l-1.8943 5.6601h-.8969l-1.8943-5.6601h-.0183v5.6601h-.8419z"/><path d="m84.1649 36.2883h4.9097v.7871h-4.0129v2.0773h3.7018v.787h-3.7018v2.2879h4.077v.787h-4.9738z"/><path d="m89.8525 36.2883h5.4725v.7871h-2.2878v5.9392h-.9015v-5.9392h-2.2832z"/><path d="m99.7039 40.2417-1.0249-2.9925-1.1348 2.9925zm-4.0906 2.7729 2.5212-6.8315h1.0936l2.4389 6.8315h-.998l-.7088-2.0591h-2.6448l-.7504 2.0591z"/><path d="m106.645 37.0754h-2.402c0 .5216-.006 1.0341-.018 1.5374s-.038.9807-.078 1.4322c-.04.4484-.099.8617-.179 1.24-.079.3783-.187.7062-.324.9838-.138.2745-.308.4896-.513.6451-.201.1526-.447.2288-.737.2288-.088 0-.163-.0076-.224-.0229-.058-.0152-.122-.032-.192-.0503v-.8328c.034.0153.075.029.124.0412.051.0092.125.0137.219.0137.141 0 .261-.0503.362-.151.103-.1037.192-.247.265-.4301.073-.183.133-.3996.179-.6497.048-.2532.086-.5277.114-.8236.03-.2959.052-.6086.064-.9381.015-.3294.026-.6634.032-1.002.009-.3417.014-.6818.014-1.0204.003-.3417.007-.6711.013-.9884h4.183v6.7263h-.902z"/><path d="m113.079 37.0754h-2.403c0 .5216-.006 1.0341-.018 1.5374s-.038.9807-.078 1.4322c-.039.4484-.099.8617-.178 1.24s-.188.7062-.325.9838c-.137.2745-.308.4896-.512.6451-.202.1526-.447.2288-.737.2288-.089 0-.163-.0076-.224-.0229-.058-.0152-.122-.032-.193-.0503v-.8328c.034.0153.075.029.124.0412.052.0092.125.0137.22.0137.14 0 .26-.0503.361-.151.104-.1037.192-.247.266-.4301.073-.183.132-.3996.178-.6497.049-.2532.087-.5277.114-.8236.031-.2959.052-.6086.064-.9381.016-.3294.026-.6634.032-1.002.01-.3417.014-.6818.014-1.0204.003-.3417.008-.6711.014-.9884h4.182v6.7263h-.901z"/><path d="m121.599 39.6515c0 .2898-.029.5796-.087.8694-.058.2867-.147.5612-.266.8236-.119.2593-.268.5018-.448.7275-.177.2227-.388.4179-.632.5857-.244.1647-.52.2928-.828.3844-.305.0945-.643.1418-1.016.1418-.372 0-.712-.0473-1.02-.1418-.308-.0916-.584-.2197-.828-.3844-.241-.1678-.452-.363-.632-.5857-.18-.2257-.329-.4682-.448-.7275-.119-.2624-.207-.5369-.265-.8236-.058-.2898-.087-.5796-.087-.8694 0-.5217.073-.9991.219-1.4322.15-.4332.365-.8053.645-1.1165.281-.3111.624-.5521 1.03-.7229.406-.1739.868-.2609 1.386-.2609.516 0 .977.087 1.382.2609.409.1708.752.4118 1.03.7229.28.3112.494.6833.64 1.1165.15.4331.225.9105.225 1.4322zm-.897 0c0-.3996-.054-.7672-.16-1.1028-.107-.3386-.263-.6284-.467-.8693-.201-.2441-.45-.4332-.746-.5674-.296-.1373-.631-.2059-1.007-.2059-.378 0-.715.0686-1.011.2059-.296.1342-.546.3233-.75.5674-.202.2409-.356.5307-.462.8693-.107.3356-.161.7032-.161 1.1028 0 .4087.049.7824.147 1.121.098.3356.245.6238.444.8648.198.241.445.4286.741.5628.299.1312.65.1968 1.052.1968.4 0 .749-.0656 1.048-.1968.299-.1342.546-.3218.742-.5628.198-.241.346-.5292.443-.8648.098-.3386.147-.7123.147-1.121z"/><path d="m122.665 36.2883h5.376v6.7263h-.901v-5.9392h-3.578v5.9392h-.897z"/><path d="m132.173 39.4364c.476 0 .819-.1006 1.03-.302.21-.2013.315-.4942.315-.8785 0-.3844-.105-.6772-.315-.8785-.211-.2014-.554-.302-1.03-.302h-1.839v2.361zm-2.736-3.1481h2.828c.369 0 .687.0473.956.1419.271.0946.496.2288.672.4026.177.1709.309.3768.394.6178.088.241.133.5094.133.8053s-.045.5643-.133.8053c-.085.241-.217.4484-.394.6223-.176.1708-.401.3035-.672.3981-.269.0946-.587.1418-.956.1418h-1.931v2.7912h-.897z"/><path d="m141.915 39.6515c0 .2898-.029.5796-.087.8694-.058.2867-.147.5612-.266.8236-.119.2593-.268.5018-.448.7275-.177.2227-.387.4179-.632.5857-.244.1647-.52.2928-.828.3844-.305.0945-.643.1418-1.016.1418-.372 0-.712-.0473-1.02-.1418-.308-.0916-.584-.2197-.828-.3844-.241-.1678-.452-.363-.632-.5857-.18-.2257-.329-.4682-.448-.7275-.119-.2624-.207-.5369-.265-.8236-.058-.2898-.087-.5796-.087-.8694 0-.5217.073-.9991.219-1.4322.15-.4332.365-.8053.646-1.1165.28-.3111.623-.5521 1.029-.7229.406-.1739.868-.2609 1.386-.2609.516 0 .977.087 1.382.2609.409.1708.752.4118 1.03.7229.281.3112.494.6833.64 1.1165.15.4331.225.9105.225 1.4322zm-.897 0c0-.3996-.054-.7672-.16-1.1028-.107-.3386-.263-.6284-.467-.8693-.201-.2441-.45-.4332-.746-.5674-.296-.1373-.631-.2059-1.007-.2059-.378 0-.715.0686-1.011.2059-.296.1342-.546.3233-.75.5674-.201.2409-.356.5307-.462.8693-.107.3356-.16.7032-.16 1.1028 0 .4087.048.7824.146 1.121.098.3356.246.6238.444.8648s.445.4286.741.5628c.299.1312.65.1968 1.052.1968.4 0 .749-.0656 1.048-.1968.299-.1342.546-.3218.742-.5628.198-.241.346-.5292.443-.8648.098-.3386.147-.7123.147-1.121z"/><path d="m142.981 36.2883h.897v3.2762l3.28-3.2762h1.254l-2.8 2.7134 2.878 4.0129h-1.153l-2.37-3.3906-1.089 1.0479v2.3427h-.897z"/><path d="m152.791 40.2417-1.025-2.9925-1.135 2.9925zm-4.091 2.7729 2.522-6.8315h1.093l2.439 6.8315h-.997l-.71-2.0591h-2.644l-.751 2.0591z"/><path d="m155.029 36.2883h5.472v.7871h-2.288v5.9392h-.901v-5.9392h-2.283z"/><path d="m161.32 36.2883h.897v2.7729h3.578v-2.7729h.902v6.7263h-.902v-3.1664h-3.578v3.1664h-.897z"/><path d="m174.32 39.6515c0 .2898-.029.5796-.087.8694-.058.2867-.147.5612-.266.8236-.119.2593-.268.5018-.448.7275-.177.2227-.387.4179-.631.5857-.245.1647-.521.2928-.829.3844-.305.0945-.643.1418-1.015.1418-.373 0-.713-.0473-1.021-.1418-.308-.0916-.584-.2197-.828-.3844-.241-.1678-.452-.363-.632-.5857-.179-.2257-.329-.4682-.448-.7275-.119-.2624-.207-.5369-.265-.8236-.058-.2898-.087-.5796-.087-.8694 0-.5217.073-.9991.219-1.4322.15-.4332.365-.8053.646-1.1165.28-.3111.623-.5521 1.029-.7229.406-.1739.868-.2609 1.387-.2609.515 0 .976.087 1.381.2609.409.1708.752.4118 1.03.7229.281.3112.494.6833.64 1.1165.15.4331.225.9105.225 1.4322zm-.897 0c0-.3996-.054-.7672-.16-1.1028-.107-.3386-.263-.6284-.467-.8693-.201-.2441-.45-.4332-.746-.5674-.296-.1373-.631-.2059-1.006-.2059-.379 0-.716.0686-1.012.2059-.296.1342-.546.3233-.75.5674-.201.2409-.356.5307-.462.8693-.107.3356-.16.7032-.16 1.1028 0 .4087.048.7824.146 1.121.098.3356.246.6238.444.8648s.445.4286.741.5628c.299.1312.65.1968 1.053.1968.399 0 .748-.0656 1.047-.1968.299-.1342.546-.3218.742-.5628.198-.241.346-.5292.443-.8648.098-.3386.147-.7123.147-1.121z"/><path d="m175.386 36.2883h4.91v.7871h-4.013v2.0773h3.701v.787h-3.701v2.2879h4.077v.787h-4.974z"/><path d="m184.244 36.2883h5.377v6.7263h-.902v-5.9392h-3.578v5.9392h-.897z"/><path d="m193.753 39.4364c.476 0 .819-.1006 1.029-.302.211-.2013.316-.4942.316-.8785 0-.3844-.105-.6772-.316-.8785-.21-.2014-.553-.302-1.029-.302h-1.84v2.361zm-2.737-3.1481h2.828c.369 0 .688.0473.956.1419.272.0946.496.2288.673.4026.177.1709.308.3768.394.6178.088.241.132.5094.132.8053s-.044.5643-.132.8053c-.086.241-.217.4484-.394.6223-.177.1708-.401.3035-.673.3981-.268.0946-.587.1418-.956.1418h-1.931v2.7912h-.897z"/><path d="m203.494 39.6515c0 .2898-.029.5796-.087.8694-.058.2867-.146.5612-.265.8236-.119.2593-.268.5018-.448.7275-.177.2227-.388.4179-.632.5857-.244.1647-.52.2928-.828.3844-.305.0945-.644.1418-1.016.1418s-.712-.0473-1.02-.1418c-.308-.0916-.584-.2197-.828-.3844-.241-.1678-.452-.363-.632-.5857-.18-.2257-.329-.4682-.448-.7275-.119-.2624-.208-.5369-.266-.8236-.058-.2898-.087-.5796-.087-.8694 0-.5217.074-.9991.22-1.4322.149-.4332.364-.8053.645-1.1165.281-.3111.624-.5521 1.03-.7229.405-.1739.868-.2609 1.386-.2609.516 0 .976.087 1.382.2609.409.1708.752.4118 1.029.7229.281.3112.495.6833.641 1.1165.15.4331.224.9105.224 1.4322zm-.897 0c0-.3996-.053-.7672-.16-1.1028-.106-.3386-.262-.6284-.466-.8693-.202-.2441-.45-.4332-.746-.5674-.296-.1373-.632-.2059-1.007-.2059-.378 0-.715.0686-1.011.2059-.296.1342-.546.3233-.751.5674-.201.2409-.355.5307-.462.8693-.106.3356-.16.7032-.16 1.1028 0 .4087.049.7824.147 1.121.097.3356.245.6238.443.8648.199.241.446.4286.742.5628.299.1312.649.1968 1.052.1968.4 0 .749-.0656 1.048-.1968.299-.1342.546-.3218.741-.5628.198-.241.346-.5292.444-.8648.098-.3386.146-.7123.146-1.121z"/><path d="m204.56 36.2883h.897v5.4405h.019l3.422-5.4405h1.039v6.7263h-.902v-5.4725h-.018l-3.418 5.4725h-1.039z"/><path d="m213.048 39.107h1.213c.192 0 .358-.029.499-.087.14-.061.256-.1403.347-.2379.092-.1007.159-.212.202-.334.045-.1251.068-.2517.068-.3798 0-.2105-.041-.3889-.123-.5354-.083-.1464-.195-.2654-.339-.3569-.143-.0945-.314-.1632-.512-.2059-.195-.0427-.409-.064-.641-.064-.29 0-.546.0411-.769.1235-.219.0793-.404.1876-.553.3249-.147.1342-.256.2913-.33.4713-.07.18-.102.3691-.096.5674h-.846c0-.2868.033-.543.1-.7688.071-.2257.167-.4224.289-.5902s.265-.3096.43-.4256c.165-.1159.343-.2104.535-.2837.195-.0732.4-.125.613-.1555.217-.0336.435-.0504.655-.0504.36 0 .687.0397.983.119.299.0763.556.1922.769.3478.214.1525.38.3447.499.5765.119.2288.178.4957.178.8007 0 .3478-.068.6422-.206.8832-.134.2379-.367.4179-.7.5399v.0229c.174.0488.333.1205.476.215.147.0915.272.2075.375.3478.107.1372.19.3004.247.4896.061.1891.092.4057.092.6497 0 .3417-.075.6421-.224.9014-.15.2593-.35.4759-.6.6498s-.541.3035-.874.3889c-.329.0885-.674.1327-1.034.1327-.384 0-.742-.0366-1.075-.1098-.332-.0702-.625-.1876-.879-.3523-.25-.1648-.451-.3813-.604-.6498-.152-.2715-.239-.604-.26-.9975h.883c.015.1922.059.3691.132.5308.077.1617.188.302.334.421.15.1159.338.2074.563.2745.229.0641.504.0961.824.0961.29 0 .552-.0244.787-.0732.238-.0488.439-.1266.604-.2334.168-.1067.296-.244.384-.4118.092-.1708.138-.3752.138-.6131 0-.177-.029-.3386-.087-.4851-.055-.1464-.141-.273-.257-.3797-.116-.1068-.26-.1892-.434-.2471-.174-.061-.38-.0915-.618-.0915h-1.158z"/><path d="m217.574 36.2883h2.406c.266 0 .498.0077.696.0229.198.0122.384.0412.558.087.165.0457.319.1128.462.2013.147.0854.275.1952.385.3294.11.1312.195.2853.256.4622.064.1739.096.3706.096.5902 0 .116-.015.241-.046.3753-.03.1342-.081.2669-.151.398-.07.1282-.163.2487-.279.3615-.113.1098-.253.1998-.421.27.138.0457.278.1098.421.1922.144.0823.273.1891.389.3203.119.1281.217.2852.293.4713.076.183.114.4026.114.6589 0 .1464-.018.2989-.055.4575-.033.1556-.09.3066-.169.453-.076.1464-.175.2852-.297.4164s-.27.2456-.444.3432-.375.1754-.604.2333c-.226.055-.484.0824-.773.0824h-2.837zm2.704 5.9393c.293 0 .538-.0275.737-.0824.201-.0579.363-.1372.485-.2379.125-.1037.215-.2273.27-.3706.055-.1434.082-.3036.082-.4805s-.027-.3371-.082-.4804c-.055-.1434-.145-.2654-.27-.3661-.122-.1037-.284-.183-.485-.2379-.199-.058-.444-.087-.737-.087h-1.807v2.3428zm-.128-3.0749c.296 0 .534-.0274.714-.0823.183-.058.323-.1343.421-.2288.1-.0976.167-.212.201-.3432.033-.1312.05-.2715.05-.421 0-.1586-.024-.2989-.073-.4209-.046-.1251-.124-.2303-.233-.3157-.11-.0855-.254-.151-.43-.1968-.177-.0458-.394-.0686-.65-.0686h-1.679v2.0773z"/><path d="m230.052 39.6515c0 .2898-.029.5796-.087.8694-.058.2867-.147.5612-.266.8236-.119.2593-.268.5018-.448.7275-.177.2227-.388.4179-.632.5857-.244.1647-.52.2928-.828.3844-.305.0945-.643.1418-1.016.1418-.372 0-.712-.0473-1.02-.1418-.308-.0916-.584-.2197-.828-.3844-.241-.1678-.452-.363-.632-.5857-.18-.2257-.329-.4682-.448-.7275-.119-.2624-.207-.5369-.265-.8236-.058-.2898-.087-.5796-.087-.8694 0-.5217.073-.9991.219-1.4322.15-.4332.365-.8053.645-1.1165.281-.3111.624-.5521 1.03-.7229.406-.1739.868-.2609 1.386-.2609.516 0 .977.087 1.382.2609.409.1708.752.4118 1.03.7229.28.3112.494.6833.64 1.1165.15.4331.225.9105.225 1.4322zm-.897 0c0-.3996-.054-.7672-.16-1.1028-.107-.3386-.263-.6284-.467-.8693-.201-.2441-.45-.4332-.746-.5674-.296-.1373-.631-.2059-1.007-.2059-.378 0-.715.0686-1.011.2059-.296.1342-.546.3233-.75.5674-.202.2409-.356.5307-.462.8693-.107.3356-.161.7032-.161 1.1028 0 .4087.049.7824.147 1.121.097.3356.245.6238.444.8648.198.241.445.4286.741.5628.299.1312.65.1968 1.052.1968.4 0 .749-.0656 1.048-.1968.299-.1342.546-.3218.741-.5628.199-.241.347-.5292.444-.8648.098-.3386.147-.7123.147-1.121z"/><path d="m230.592 44.4559v-2.2283h.608c.064-.1464.124-.2944.179-.4439.054-.1525.105-.3233.151-.5124.048-.1922.093-.4118.132-.6589.043-.2471.083-.54.119-.8786.043-.3569.076-.7077.101-1.0524.024-.3477.043-.6726.055-.9746.015-.302.024-.575.027-.819.006-.2441.011-.4439.014-.5995h4.228v5.9393h.759v2.2283h-.841v-1.4413h-4.691v1.4413zm2.228-7.3805c0 .4362-.018.8709-.055 1.304-.034.4332-.075.8694-.124 1.3087-.033.3477-.068.6436-.105.8877-.033.2409-.07.456-.11.6451-.036.1861-.079.3585-.128.5171-.045.1556-.099.3188-.16.4896h3.144v-5.1522z"/><path d="m238.256 39.6423c0 .421.053.8023.16 1.1439.107.3386.256.6269.448.8649.196.2379.429.4224.7.5536.275.1281.577.1922.906.1922.287 0 .543-.0519.769-.1556.229-.1037.426-.2394.59-.4072.165-.1708.298-.363.399-.5766.1-.2135.167-.4301.201-.6497h.869c-.018.1952-.061.395-.128.5994-.064.2013-.152.3981-.265.5903-.11.1891-.243.3691-.398.5399-.156.1678-.336.3142-.54.4393-.202.125-.427.2242-.678.2974-.25.0732-.523.1098-.819.1098-.204 0-.424-.0213-.658-.0641-.232-.0427-.464-.1143-.696-.215-.229-.1007-.45-.2349-.663-.4027-.211-.1708-.397-.3843-.559-.6406-.161-.2562-.291-.5582-.389-.906-.097-.3508-.146-.758-.146-1.2217 0-.4545.043-.8602.128-1.2171.089-.3569.208-.668.357-.9334.153-.2685.329-.4957.531-.6818.204-.1861.422-.3371.654-.453s.473-.1998.723-.2517c.25-.0518.499-.0778.746-.0778.305 0 .583.0321.833.0961.253.061.479.1465.677.2563.201.1067.377.2318.526.3752.15.1433.275.2959.375.4575.104.1587.183.3219.238.4896.058.1678.093.331.105.4896h-.878c-.058-.2165-.143-.4102-.256-.5811-.113-.1708-.25-.3142-.412-.4301-.159-.119-.339-.2089-.54-.27-.198-.064-.412-.096-.641-.096-.344 0-.657.064-.938.1921-.277.1282-.515.3112-.713.5491-.199.238-.351.5262-.458.8648-.107.3356-.16.7123-.16 1.1302z"/><path d="m243.898 36.2883h5.472v.7871h-2.288v5.9392h-.901v-5.9392h-2.283z"/><path d="m250.189 36.2883h2.407c.265 0 .497.0077.696.0229.198.0122.384.0412.558.087.164.0457.319.1128.462.2013.146.0854.274.1952.384.3294.11.1312.195.2853.256.4622.065.1739.097.3706.097.5902 0 .116-.016.241-.046.3753-.031.1342-.081.2669-.151.398-.07.1282-.163.2487-.279.3615-.113.1098-.253.1998-.421.27.137.0457.277.1098.421.1922.143.0823.273.1891.389.3203.119.1281.216.2852.292.4713.077.183.115.4026.115.6589 0 .1464-.018.2989-.055.4575-.034.1556-.09.3066-.169.453-.077.1464-.176.2852-.298.4164s-.27.2456-.444.3432c-.173.0976-.375.1754-.604.2333-.225.055-.483.0824-.773.0824h-2.837zm2.704 5.9393c.293 0 .539-.0275.737-.0824.201-.0579.363-.1372.485-.2379.125-.1037.215-.2273.27-.3706.055-.1434.082-.3036.082-.4805s-.027-.3371-.082-.4804c-.055-.1434-.145-.2654-.27-.3661-.122-.1037-.284-.183-.485-.2379-.198-.058-.444-.087-.737-.087h-1.807v2.3428zm-.128-3.0749c.296 0 .534-.0274.714-.0823.183-.058.323-.1343.421-.2288.101-.0976.168-.212.201-.3432.034-.1312.051-.2715.051-.421 0-.1586-.025-.2989-.073-.4209-.046-.1251-.124-.2303-.234-.3157-.11-.0855-.253-.151-.43-.1968s-.393-.0686-.65-.0686h-1.679v2.0773z"/><path d="m262.667 39.6515c0 .2898-.029.5796-.087.8694-.058.2867-.146.5612-.265.8236-.119.2593-.269.5018-.449.7275-.177.2227-.387.4179-.631.5857-.244.1647-.52.2928-.828.3844-.305.0945-.644.1418-1.016.1418s-.712-.0473-1.02-.1418c-.309-.0916-.585-.2197-.829-.3844-.241-.1678-.451-.363-.631-.5857-.18-.2257-.33-.4682-.449-.7275-.118-.2624-.207-.5369-.265-.8236-.058-.2898-.087-.5796-.087-.8694 0-.5217.073-.9991.22-1.4322.149-.4332.364-.8053.645-1.1165.281-.3111.624-.5521 1.029-.7229.406-.1739.868-.2609 1.387-.2609.515 0 .976.087 1.382.2609.409.1708.752.4118 1.029.7229.281.3112.494.6833.641 1.1165.149.4331.224.9105.224 1.4322zm-.897 0c0-.3996-.053-.7672-.16-1.1028-.107-.3386-.262-.6284-.467-.8693-.201-.2441-.45-.4332-.745-.5674-.296-.1373-.632-.2059-1.007-.2059-.378 0-.715.0686-1.011.2059-.296.1342-.546.3233-.751.5674-.201.2409-.355.5307-.462.8693-.107.3356-.16.7032-.16 1.1028 0 .4087.049.7824.146 1.121.098.3356.246.6238.444.8648.199.241.446.4286.742.5628.298.1312.649.1968 1.052.1968.4 0 .749-.0656 1.048-.1968.299-.1342.546-.3218.741-.5628.198-.241.346-.5292.444-.8648.097-.3386.146-.7123.146-1.121z"/></g><path d="m16.2885 8.1357c1.3119 0 2.6239.56226 3.6547 1.49936l14.4313 14.99364c.3749.3748 1.0308.4685 1.4057.0937 0 0 0 0 .0937-.0937l13.588-14.1502c-9.5585-11.99494-26.9885-13.96285-38.9834-4.49813-11.99494 9.46473-13.96285 26.89483-4.49813 38.88973 9.46473 11.9949 26.89483 13.9628 38.88973 4.4981.4685-.3749.9371-.8434 1.4993-1.2183v-19.2106c0-.2811-.1874-.4685-.4685-.4685-.0937 0-.2812.0937-.3749.1874l-8.9961 10.1207c-.7497.8434-2.0617.9371-2.905.1874-.0938-.0937-.0938-.0937-.1875-.1874l-8.9024-10.2144c-.1874-.1874-.4686-.1874-.7497 0-.0937.0937-.1874.1874-.1874.3748v19.7729c-5.5289 0-10.027-3.6547-10.027-9.2773v-28.769c.0937-1.40568 1.2182-2.5302 2.7176-2.5302-.0937 0 0 0 0 0z" fill="#ea2b01"/><path d="m53.7725 34.3745h6.5597c.8434 0 1.5931.656 1.5931 1.5931v6.5597c0 .8434-.656 1.5931-1.5931 1.5931h-6.5597c-.8434 0-1.5931-.656-1.5931-1.5931v-6.5597c.0938-.8434.7497-1.5931 1.5931-1.5931z" fill="url(#b)"/><path d="m55.3656 19.0998h4.4981c.7497 0 1.4057.656 1.4057 1.4056v4.4981c0 .7497-.656 1.4057-1.4057 1.4057h-4.4981c-.7497 0-1.4056-.656-1.4056-1.4057v-4.4981c0-.7496.6559-1.4056 1.4056-1.4056z" fill="url(#c)"/><path d="m62.9561 27.2526h3.7484c.5623 0 1.0308.4685 1.0308 1.0308v3.7484c0 .5622-.4685 1.0308-1.0308 1.0308h-3.7484c-.5623 0-1.0308-.4686-1.0308-1.0308v-3.7484c0-.5623.4685-1.0308 1.0308-1.0308z" fill="url(#d)"/><path d="m62.0191 13.3835h2.6239c.4685 0 .7497.3748.7497.7496v2.7176c0 .4686-.3749.7497-.7497.7497h-2.6239c-.4686 0-.7497-.3748-.7497-.7497v-2.6238c0-.4686.3748-.8434.7497-.8434z" fill="url(#e)"/><path d="m35.0305 40.7468c-.0937 0-.1874 0-.2811 0 1.4994 3.6547 2.4365 7.4968 2.8113 11.4327 2.7176-1.1246 5.2478-2.6239 7.4968-4.5918v-16.5867l-7.4968 8.6213c-.656.7497-1.5931 1.1245-2.5302 1.1245z" fill="#ea2b01"/><path d="m27.6275 1.29486c-9.8396 0-18.83575 5.43519-23.42755 14.24394 2.8113.5623 5.5289 1.4057 8.15275 2.4365v-7.3094c0-2.15536 1.6868-3.84214 3.8421-3.84214 1.6868 0 3.3736.65597 4.4981 1.8742l14.244 14.80624 12.6508-13.1195c-4.9666-5.80998-12.276-9.08984-19.9602-9.08984z" fill="#ea2b01"/><path d="m53.8663 35.2179h6.5597c.3748 0 .7496.2812.7496.7497v6.5597c0 .3749-.2811.7497-.7496.7497h-6.5597c-.3749 0-.7497-.2811-.7497-.7497v-6.5597c0-.4685.2811-.7497.7497-.7497z" fill="#ea2b01"/><path d="m55.3656 19.9432h4.4981c.2811 0 .5623.2811.5623.5622v4.4981c0 .2812-.2812.5623-.5623.5623h-4.4981c-.2811 0-.5623-.2811-.5623-.5623v-4.4981c0-.2811.2812-.5622.5623-.5622z" fill="#ea2b01"/><path d="m62.9562 28.096h3.7484c.0937 0 .1874.0937.1874.1874v3.7484c0 .0937-.0937.1874-.1874.1874h-3.7484c-.0937 0-.1874-.0937-.1874-.1874v-3.7484c0-.0937.0937-.1874.1874-.1874z" fill="#ea2b01"/><path d="m64.6429 14.2269h-2.6239v2.6238h2.6239z" fill="#ea2b01"/></svg>