<svg fill="none" height="30" viewBox="0 0 31 30" width="31" xmlns="http://www.w3.org/2000/svg"><g fill="#54595f"><path d="m30.0199 27.5427c-.096.4802-.2321.9445-.5363 1.3367-.5923.7844-1.3927 1.1206-2.3612 1.1206-4.0022 0-8.0043 0-12.0144 0-4.0742 0-8.14838 0-12.21455 0-1.17663 0-2.073105-.4963-2.601387-1.5689-.136072-.2721-.2161151-.5923-.2481322-.8964-.1600858-1.801.0880472-3.5059 1.2326592-4.9867.5603-.7204 1.23266-1.3047 2.04109-1.7209 1.82497-.9365 3.72999-1.6889 5.70704-2.2412.52028-.1441.82444.016 1.00858.5523.8724 2.4173 1.7369 4.8426 2.6093 7.2679.0321.088.0641.1761.1281.3442.1281-.6324.2401-1.1847.3522-1.729.1441-.7364.2962-1.4728.4322-2.2092.0321-.16.024-.3521-.032-.5122-.3842-1.1847-.7844-2.3693-1.1766-3.5539-.0961-.2722-.1041-.5363.088-.7764.1761-.2081.4083-.2482.6644-.2482h3.1377.6483c.6964.008.9765.3922.7604 1.0486-.3041.9125-.5683 1.849-.9285 2.7375-.2801.7043-.3041 1.3767-.128 2.0971.2321.9445.3922 1.913.5843 2.8655.008.056.032.1121.064.2241.056-.128.088-.2081.1201-.2881.8564-2.3853 1.7129-4.7706 2.5693-7.1558.032-.0881.0641-.1841.1041-.2722.1681-.3762.4482-.5363.8484-.4242.5283.1361 1.0486.2961 1.5689.4722 1.5128.5123 3.0096 1.0966 4.4023 1.881 1.769 1.0006 2.7855 2.5374 3.0977 4.5465.016.088.04.168.056.2481.016.6323.016 1.2407.016 1.841z"/><path d="m15.6042.00800427c.4483.08004273.9125.12006373 1.3447.24012773 3.2658.896478 5.3549 2.993598 6.0673 6.275348.9445 4.34632-1.753 8.46852-5.8992 9.55712-4.2502 1.1206-8.57255-1.2647-9.90126-5.4589-1.47279-4.63451 1.51281-9.60516 6.29936-10.477623.3042-.05603.6163-.0960514.9205-.144077.3842.00800427.7764.00800427 1.1686.00800427z"/></g></svg>