<svg fill="none" height="30" viewBox="0 0 31 30" width="31" xmlns="http://www.w3.org/2000/svg"><g fill="#54595f"><path d="m19.6349 29.9921c-.6573-.1252-1.3382-.1878-1.9721-.3913-3.7251-1.1895-6.065-3.6859-6.8084-7.5284-.92347-4.7425 1.8312-9.3441 6.4093-10.9014 5.3998-1.83906 11.277 1.4713 12.5057 7.0433 1.1973 5.4154-2.3634 10.7213-7.8337 11.6526-.2973.047-.5947.0861-.8921.133-.4696-.0078-.9391-.0078-1.4087-.0078zm-.1721-15.8003c0 .5243-.0157 1.0408.0078 1.5573.0078.2426-.0548.3678-.2895.4774-1.5183.7356-1.9487 2.6529-.9 3.9677.5243.6574 1.2208.9782 2.0582 1.0095.5008.0157.8608.3678.8843.8374.0235.4382-.3052.8373-.7513.9078-.4382.0704-.853-.2113-.986-.6809-.0157-.0548-.0235-.1095-.0392-.1721-.5791 0-1.1504 0-1.7217 0-.0626.9469.5713 1.9251 1.5339 2.3712.1565.0704.2113.1565.2035.3208-.0078.5557 0 1.1035 0 1.6669h1.753c0-.6417 0-1.2677 0-1.886.1095-.0548.2034-.0939.3052-.1487 1.3225-.6573 1.8469-2.2695 1.1504-3.5685-.4931-.9157-1.2913-1.3774-2.3321-1.4087-.4774-.0156-.8452-.3678-.8687-.8217-.0313-.4383.2896-.8374.7356-.9235.4305-.0782.8452.1957.9861.6418.0235.0704.0391.1408.0548.2034h1.7451c-.0861-1.1973-.6808-2.0034-1.7843-2.4729 0-.6261 0-1.26 0-1.886-.5947.0078-1.1582.0078-1.7451.0078z"/><path d="m.0078125 4.98084c.5086785-2.13645 2.1364475-3.15381 3.9755175-3.91291 2.21471-.92345 4.55463-1.181702 6.94147-1.0251857 1.8391.1173877 3.6077.4930267 5.2746 1.3069157.8609.41477 1.6356.94692 2.2774 1.6669 1.3382 1.51038 1.3147 3.34945-.0705 4.81288-.9782 1.03301-2.2147 1.65125-3.5451 2.07384-2.6764.86082-5.39979.96262-8.15448.49302-1.6669-.2895-3.25554-.79822-4.66419-1.76863-.91562-.64171-1.659078-1.41647-1.9486334-2.52774-.0234775-.10173-.0626066-.20347-.0860841-.3052 0-.26608 0-.53999 0-.81389z"/><path d="m.00782582 9.25372c2.21470418 1.96428 4.89114418 2.74688 7.75539418 3.05208 1.47125.1643 2.94248.133 4.47638-.0548-.2035.227-.3678.4148-.5322.5948-.7434.853-1.346 1.7921-1.79991 2.8329-.08608.1878-.17999.2583-.39129.2505-2.28514-.0548-4.50767-.4305-6.56586-1.487-.88432-.4539-1.67473-1.033-2.277319-1.8468-.344336-.4618-.532156-.9861-.673021-1.5339.00782582-.5948.00782582-1.20519.00782582-1.80778z"/><path d="m.0078125 19.8029c.8843185.7826 1.8625475 1.4087 2.9503375 1.8626 1.81559.7669 3.71727 1.1425 5.68155 1.2443.57128.0313.57911.0234.7278.5634.2739.9626.673 1.8704 1.1895 2.7234.0392.0626.0705.1331.1252.2348-.2504.0156-.4773.0391-.69646.0391-2.33992.0157-4.60159-.3287-6.73804-1.3382-1.0017-.4695-1.89385-1.0878-2.566867-1.9878-.344336-.4539-.532156-.9782-.6730205-1.526 0-.6104 0-1.213 0-1.8156z"/><path d="m.0078125 14.5283c.9234475.8217 1.9642775 1.4635 3.1146775 1.933 1.74516.7043 3.56075 1.0643 5.43112 1.1739.17217.0078.35217.0156.52433.0313.03913 0 .07044.0156.14869.0313-.2426 1.1347-.38346 2.2616-.26607 3.4746-.51651-.0469-1.00954-.0782-1.49474-.1408-1.78428-.2348-3.49814-.6965-5.04765-1.6356-.71998-.4304-1.37735-.9391-1.815595-1.6669-.258252-.4226-.399117-.9156-.5947625-1.3852 0-.6104 0-1.213 0-1.8156z"/></g></svg>