<svg fill="none" height="27" viewBox="0 0 30 27" width="30" xmlns="http://www.w3.org/2000/svg"><g fill="#54595f"><path d="m.00585823 8.20228c.16988877-.21676.32220277-.45695.52138277-.65613 2.343289-2.34915 4.692439-4.6983 7.035739-7.04159.56239-.5623906.99004-.5565323 1.55243 0 .70299.69127 1.41179 1.37668 2.12069 2.0621.0117.04686.0234.09373.0351.13474-.0937.05272-.2109.08787-.2812.15817-.9373.9256-1.86873 1.85706-2.79433 2.79437-.94904.96075-1.1365 2.24957-.43937 3.3392.54481.8553 1.37082 1.35906 2.3374 1.59926 1.5349.3808 2.9174.0469 4.1067-1.0193.5213-.46866.949-.51552 1.3884-.08787 1.4411 1.40597 3.7141 1.67547 5.495.54477.0527.0469.1171.0879.1699.1406 1.6989 1.6989 3.3977 3.3978 5.0966 5.0908.416.416.5976.8905.3984 1.4646-.3105.9139-1.4529 1.1775-2.1734.4862-.662-.6327-1.3005-1.2946-1.9508-1.939-.0703-.0703-.1348-.1406-.2109-.2051-.3866-.3573-.9139-.3573-1.2595 0-.3339.3457-.3398.867.0175 1.2361.6737.6913 1.3709 1.3591 2.0387 2.0562.1816.1934.3515.4277.4394.6737.1933.5566-.0586 1.1658-.5507 1.4763-.5155.3222-1.1599.2695-1.6169-.1699-.6678-.6444-1.3181-1.3064-1.9742-1.9625-.0703-.0703-.1347-.1406-.2109-.205-.3808-.3456-.8904-.3515-1.2361-.0176-.3573.3456-.369.8787 0 1.2595.6737.6913 1.3709 1.365 2.0387 2.0621.1816.1933.3515.4277.4394.6737.1933.5624-.0586 1.1658-.5507 1.4763-.4862.3046-1.1131.2753-1.5524-.123-.4101-.375-.7968-.7733-1.1893-1.1717-.5916-.6034-1.2829-.9783-2.1382-1.0193-.0762-.0059-.2109-.1172-.2168-.1875-.0996-1.4177-.8611-2.314-2.1851-2.8061.5448-1.3005.4511-2.5366-.5682-3.5618-1.0135-1.0193-2.23789-1.1306-3.57357-.5741-.38664-1.1599-1.17164-1.9273-2.3843-2.1441-1.19508-.2167-2.20855.1933-3.04042 1.1541-.09959-.2871-.18746-.5331-.26362-.7733-.23433-.7264-.62683-1.3591-1.16579-1.9039-.42765-.4277-.855298-.85533-1.271233-1.29469-.169888-.18161-.292911-.40422-.439367-.60926.00585823-.13474.00585823-.27534.00585823-.41007z"/><path d="m29.9999 8.55378c-.164.2109-.3104.44522-.4979.63855-.58.59754-1.1716 1.17747-1.7575 1.76337-.4921.4979-.6385 1.0954-.5389 1.775.041.2753.0351.5507.0527.867-2.0445-2.0445-4.0363-4.03631-6.0398-6.03982-.1465.13474-.2227.20504-.2988.27534-1.0135.94317-2.191 1.08963-3.4505.62683-.4159-.15232-.7967-.41008-1.1834-.63269-.9666-.56825-2.1499-.48623-3.0052.22847-.4043.33392-.7968.68541-1.3299.82601-.99.26362-1.8512.03515-2.59516-.66198-.36907-.35149-.36907-.86116.00586-1.25366.4628-.48038.9373-.94318 1.406-1.41184.7615-.75571 1.5173-1.52314 2.2964-2.26127.5038-.48038 1.1365-.66198 1.8278-.66198.949 0 1.8922-.01172 2.8412.00586.6327.00585 1.1541-.19918 1.5935-.65613.5213-.54481 1.0603-1.066195 1.5934-1.599294.5038-.503808.9666-.509666 1.4704-.011716 2.4077 2.40773 4.8213 4.81547 7.2232 7.22906.1523.15231.2578.36321.3808.54481.0058.13474.0058.27534.0058.41008z"/><path d="m7.04742 21.3423c-.72056-.0234-1.14235-.2695-1.37082-.7791-.22262-.498-.16989-.9901.20504-1.3884.56239-.6034 1.15993-1.1834 1.74575-1.7692.48037-.4804.95489-.9725 1.45284-1.4412.39836-.3749.87288-.4628 1.38257-.2636.4921.1992.7733.58.8201 1.1131.0352.3632-.0644.703-.3222.9666-1.07203 1.0779-2.13823 2.1617-3.23372 3.2162-.20504.205-.5331.2753-.67956.3456z"/><path d="m2.45457 16.931c-.00586-.3515.10544-.6561.35149-.9021.63269-.6444 1.26538-1.2947 1.9215-1.9215.53896-.5097 1.34153-.4804 1.83948.0293.49795.5038.50967 1.3063-.00585 1.8453-.61512.6385-1.24195 1.2654-1.8805 1.8805-.41007.3983-.90802.4862-1.42941.2636-.51552-.2226-.77328-.6385-.79671-1.1951z"/><path d="m10.1288 24.453c-.70296-.0293-1.11303-.2753-1.3415-.7733-.22262-.4862-.18747-.9783.17574-1.3649.66784-.7147 1.35326-1.406 2.07386-2.068.4745-.4394 1.2653-.3691 1.7281.0937s.5449 1.2537.1055 1.7282c-.6679.7206-1.3708 1.4177-2.0914 2.0855-.1992.1817-.5155.2402-.6503.2988z"/><path d="m14.8213 23.0588c.6737.0293 1.0779.2636 1.3064.7498.2343.4921.1874.9784-.1641 1.3943-.2519.2988-.5272.5741-.826.8201-.5038.4218-1.2243.3808-1.7047-.0703-.4687-.4393-.58-1.1657-.1875-1.6696.2812-.369.6269-.6971.9842-.99.1816-.1523.4687-.1933.5917-.2343z"/></g></svg>