<svg fill="none" height="30" viewBox="0 0 31 30" width="31" xmlns="http://www.w3.org/2000/svg"><circle cx="15.2" cy="15" fill="#ea2b01" r="15"/><g fill="#fff"><path d="m16.4521 10.1453v2.6382c0 .2278.0178.3951.0536.5022.058.1654.1897.2478.395.2478.2231 0 .4531-.1381.6896-.4151v.3683h.6095v-3.3414h-.6093v2.5512c-.134.1922-.2611.2879-.3818.2879-.0803 0-.1272-.0489-.1405-.1472-.0045-.0089-.0067-.0872-.0067-.2344v-2.4575z"/><path d="m15.0594 13.5334c.308 0 .5446-.1138.7098-.3413.125-.1652.1875-.4287.1875-.7903v-1.1718c0-.3571-.0625-.6181-.1875-.7834-.1652-.2278-.4018-.3416-.7098-.3416-.2992 0-.5335.1138-.7032.3416-.125.1654-.1875.4265-.1875.7834v1.1718c0 .3574.0625.6208.1875.7903.1696.2275.404.3413.7032.3413zm-.288-2.424c0-.3079.096-.4619.288-.4619.1918 0 .288.154.288.4619v1.4062c0 .3127-.0962.4688-.288.4688-.192 0-.288-.1561-.288-.4688z"/><path d="m13.3519 13.4866v-1.8146l.8102-2.672h-.683l-.4553 1.7612-.4756-1.7612h-.7098c.125.37515.27.79261.4352 1.2521.2098.6163.3459 1.0894.4085 1.4199v1.8145h.6697v.0001z"/><path d="m19.6028 14.5378c-.1987-.1784-.4274-.2832-.6863-.3147-.8214-.0892-2.0602-.134-3.7164-.134s-2.8928.0447-3.7098.134c-.2635.0314-.4933.1363-.6898.3147-.1964.179-.3259.3997-.3884.6631-.1162.5179-.1741 1.2989-.1741 2.3438 0 1.0625.0581 1.8436.1741 2.3438.058.2631.1863.4841.385.6628.1986.1787.4274.2813.6863.3082.8214.0936 2.0602.1404 3.7166.1404 1.6563 0 2.8951-.0468 3.7164-.1404.2589-.0269.4866-.1295.683-.3082s.3258-.3997.3885-.6628c.116-.518.174-1.2992.174-2.3438 0-1.0625-.058-1.8436-.174-2.3438-.0582-.2634-.1865-.4841-.3851-.6631zm-6.5322 1.3393h-.7165v3.8103h-.6696v-3.8103h-.7031v-.6294h2.0893v.6294zm1.8079 3.8103h-.596v-.3618c-.241.2723-.4687.4086-.683.4086-.2055 0-.3348-.0827-.3885-.2478-.0357-.1072-.0535-.2699-.0535-.4889v-2.6183h.596v2.4377c0 .1428.0022.221.0067.2343.0135.0936.0603.1404.1407.1404.1205 0 .2478-.0936.3818-.2812v-2.5312h.5959v3.3082zm2.2768-.991c0 .3259-.0201.549-.0603.6695-.0759.2454-.2343.3683-.4754.3683-.2143 0-.4219-.1229-.6228-.3683v.3215h-.596v-4.4397h.596v1.4531c.1918-.2409.3995-.3616.6228-.3616.241 0 .3995.1251.4754.3749.0402.1162.0603.3372.0603.6631zm2.2633-.5491h-1.1985v.5825c0 .3082.1025.4619.308.4619.1473 0 .2365-.0803.2678-.2409.0088-.0447.0134-.1808.0134-.4086h.6093v.0871c0 .2189-.0044.3482-.0134.3885-.0135.1207-.0603.2409-.1406.3615-.1607.2365-.4017.355-.7232.355-.308 0-.5492-.1138-.7232-.3416-.1295-.1651-.1943-.4238-.1943-.7767v-1.1585c0-.3526.0625-.6115.1875-.7769.1741-.2276.4129-.3414.7166-.3414.299 0 .5357.1138.7097.3414.1206.1654.1808.4243.1808.7769v.6898z"/><path d="m18.5212 16.8816c-.2009 0-.3012.1519-.3012.4554v.3082h.6027v-.3082c-.0002-.3034-.1005-.4554-.3015-.4554z"/><path d="m16.2981 16.8816c-.1027 0-.2032.0492-.3013.1476v2.0154c.0981.0984.1986.1473.3013.1473.1741 0 .2612-.1494.2612-.4486v-1.4128c-.0001-.2993-.0871-.4489-.2612-.4489z"/></g></svg>