<svg width="20" height="20" viewBox="0 0 20 20" fill="none" xmlns="http://www.w3.org/2000/svg">
<g clip-path="url(#clip0_390:47)">
<path d="M18.6708 3.37046C17.8124 2.51194 16.6709 2.03916 15.4569 2.03916C14.2428 2.03916 13.1014 2.51194 12.2428 3.37046L5.07779 10.5355C4.01448 11.5988 4.01448 13.3289 5.07785 14.3923C6.14121 15.4556 7.8714 15.4555 8.9347 14.3922L13.6527 9.67414C14.0078 9.31913 14.0078 8.74357 13.6527 8.38855C13.2978 8.03353 12.7222 8.03353 12.3671 8.38855L7.6491 13.1066C7.29469 13.4611 6.71792 13.4611 6.36344 13.1066C6.00897 12.7522 6.00897 12.1754 6.36338 11.821L13.5284 4.65611C14.0436 4.14104 14.7284 3.85735 15.4569 3.85735C16.1853 3.85735 16.8702 4.14104 17.3852 4.65611C18.4485 5.71948 18.4486 7.44961 17.3854 8.51297L9.57753 16.3206C7.80522 18.0928 4.92161 18.0927 3.14948 16.3206C2.29096 15.4621 1.81813 14.3207 1.81813 13.1066C1.81813 11.8926 2.29096 10.7511 3.14948 9.89256L10.9571 2.0848C11.3121 1.72978 11.3121 1.15422 10.9571 0.799201C10.6022 0.444242 10.0265 0.444181 9.67153 0.799201L1.86388 8.60696C0.661919 9.80887 0 11.4069 0 13.1066C0 14.8064 0.661919 16.4044 1.86388 17.6063C3.10457 18.847 4.73374 19.4672 6.36344 19.4671C7.99279 19.4669 9.62268 18.8467 10.8631 17.6063L18.6709 9.7985C20.4431 8.02625 20.443 5.14271 18.6708 3.37046Z" fill="#D93724"/>
</g>
<defs>
<clipPath id="clip0_390:47">
<rect width="20" height="20" fill="white"/>
</clipPath>
</defs>
</svg>
