<svg width="43" height="43" viewBox="0 0 43 43" fill="none" xmlns="http://www.w3.org/2000/svg">
<circle cx="21.5" cy="21.5" r="21.5" fill="#E31E24"/>
<path d="M27.8766 23.1894C27.0195 23.1894 26.1779 23.0553 25.3804 22.7918C24.9896 22.6585 24.5091 22.7808 24.2706 23.0257L22.6965 24.2141C20.8709 23.2396 19.7464 22.1154 18.7852 20.3035L19.9386 18.7704C20.2382 18.4711 20.3457 18.034 20.2169 17.6238C19.9522 16.8221 19.8178 15.9809 19.8178 15.1234C19.8178 14.504 19.3138 14 18.6944 14H16.1234C15.504 14 15 14.504 15 15.1234C15 22.2237 20.7764 28 27.8766 28C28.496 28 29 27.496 29 26.8766V24.3127C29 23.6934 28.496 23.1894 27.8766 23.1894Z" fill="white"/>
</svg>
