<svg width="41" height="41" viewBox="0 0 41 41" fill="none" xmlns="http://www.w3.org/2000/svg">
<g clip-path="url(#clip0)">
<path d="M40.3167 26.9916C39.9393 26.9916 39.6333 27.2976 39.6333 27.675V28.3583H38.2667V24.9416C38.2652 24.4556 38.0048 24.0071 37.5833 23.7649V7.66833C38.0048 7.42615 38.2652 6.97771 38.2667 6.49163V5.12497C38.2667 4.37018 37.6548 3.7583 36.9 3.7583H4.1C3.34521 3.7583 2.73333 4.37018 2.73333 5.12497V6.49163C2.7348 6.97771 2.99522 7.42615 3.41667 7.66833V23.7649C2.99522 24.0071 2.7348 24.4556 2.73333 24.9416V28.3583H1.36667V27.675C1.36667 27.2976 1.06073 26.9916 0.683333 26.9916C0.305939 26.9916 0 27.2976 0 27.675V30.4083C0 30.7857 0.305939 31.0916 0.683333 31.0916C1.06073 31.0916 1.36667 30.7857 1.36667 30.4083V29.725H2.73333V30.4083C2.7345 30.9441 3.04869 31.4298 3.53693 31.6506C2.50636 32.8566 2.46357 34.6204 3.43443 35.875H0.683333C0.305939 35.875 0 36.1809 0 36.5583C0 36.9357 0.305939 37.2416 0.683333 37.2416H40.3167C40.6941 37.2416 41 36.9357 41 36.5583C41 36.1809 40.6941 35.875 40.3167 35.875H37.5656C38.5368 34.6202 38.494 32.8561 37.4631 31.6499C37.9511 31.4293 38.2652 30.9439 38.2667 30.4083V29.725H39.6333V30.4083C39.6333 30.7857 39.9393 31.0916 40.3167 31.0916C40.6941 31.0916 41 30.7857 41 30.4083V27.675C41 27.2976 40.6941 26.9916 40.3167 26.9916ZM9.49833 33.1416C9.39291 32.6444 9.17687 32.1773 8.86625 31.775H11.6351C11.3245 32.1773 11.1085 32.6444 11.003 33.1416H9.49833ZM11.0017 34.5083C11.1071 35.0055 11.3231 35.4726 11.6337 35.875H8.86557C9.17619 35.4726 9.39223 35.0055 9.49765 34.5083H11.0017ZM12.4251 34.5083H14.35C14.7274 34.5083 15.0333 34.2024 15.0333 33.825C15.0333 33.4476 14.7274 33.1416 14.35 33.1416H12.4257C12.7585 32.2003 13.7211 31.6357 14.7052 31.8045C15.6892 31.9733 16.4085 32.8265 16.4085 33.825C16.4085 34.8234 15.6892 35.6766 14.7052 35.8454C13.7211 36.0143 12.7585 35.4496 12.4257 34.5083H12.4251ZM17.0649 31.775H23.9344C22.9999 32.9819 22.9999 34.6681 23.9344 35.875H17.0656C18.0001 34.6681 18.0001 32.9819 17.0656 31.775H17.0649ZM24.6 33.825C24.5981 32.8277 25.3158 31.9744 26.2986 31.8055C27.2815 31.6365 28.243 32.201 28.5743 33.1416H26.65C26.2726 33.1416 25.9667 33.4476 25.9667 33.825C25.9667 34.2024 26.2726 34.5083 26.65 34.5083H28.5743C28.243 35.4489 27.2815 36.0135 26.2986 35.8445C25.3158 35.6755 24.5981 34.8223 24.6 33.825ZM29.9983 34.5083H31.5017C31.6071 35.0055 31.8231 35.4726 32.1338 35.875H29.3656C29.6764 35.4727 29.8927 35.0056 29.9983 34.5083ZM29.9983 33.1416C29.8929 32.6444 29.6769 32.1773 29.3662 31.775H32.1351C31.8245 32.1773 31.6085 32.6444 31.503 33.1416H29.9983ZM4.1 30.4083V27.675H36.9V30.4083H4.1ZM4.1 24.9416H36.9V26.3083H4.1V24.9416ZM4.78333 7.8583H7.51667V9.9083C7.51667 10.2857 7.82261 10.5916 8.2 10.5916C8.57739 10.5916 8.88333 10.2857 8.88333 9.9083V7.8583H11.6167V23.575H8.88333V13.325C8.88333 12.9476 8.57739 12.6416 8.2 12.6416C7.82261 12.6416 7.51667 12.9476 7.51667 13.325V23.575H4.78333V7.8583ZM23.9167 7.8583V23.575H21.1833V7.8583H23.9167ZM28.0167 7.8583V23.575H25.2833V7.8583H28.0167ZM32.1167 7.8583V18.1083C32.1167 18.4857 32.4226 18.7916 32.8 18.7916C33.1774 18.7916 33.4833 18.4857 33.4833 18.1083V7.8583H36.2167V23.575H33.4833V21.525C33.4833 21.1476 33.1774 20.8416 32.8 20.8416C32.4226 20.8416 32.1167 21.1476 32.1167 21.525V23.575H29.3833V7.8583H32.1167ZM19.8167 23.575H17.0833V7.8583H19.8167V23.575ZM15.7167 23.575H12.9833V7.8583H15.7167V23.575ZM4.1 5.12497H36.9V6.49163H4.1V5.12497ZM4.1 33.825C4.09811 32.8277 4.81578 31.9744 5.79865 31.8055C6.78151 31.6365 7.74295 32.201 8.07427 33.1416H6.15C5.77261 33.1416 5.46667 33.4476 5.46667 33.825C5.46667 34.2024 5.77261 34.5083 6.15 34.5083H8.07427C7.74295 35.4489 6.78151 36.0135 5.79865 35.8445C4.81578 35.6755 4.09811 34.8223 4.1 33.825ZM32.9257 34.5083H34.85C35.2274 34.5083 35.5333 34.2024 35.5333 33.825C35.5333 33.4476 35.2274 33.1416 34.85 33.1416H32.9257C33.2585 32.2003 34.2211 31.6357 35.2052 31.8045C36.1892 31.9733 36.9085 32.8265 36.9085 33.825C36.9085 34.8234 36.1892 35.6766 35.2052 35.8454C34.2211 36.0143 33.2585 35.4496 32.9257 34.5083Z" fill="#E31E24"/>
</g>
<defs>
<clipPath id="clip0">
<rect width="41" height="41" fill="white"/>
</clipPath>
</defs>
</svg>
