<svg width="32" height="32" viewBox="0 0 32 32" fill="none" xmlns="http://www.w3.org/2000/svg">
<g clip-path="url(#clip0_390:1161)">
<path d="M18.2151 6.56006H21.7476L16.3408 0.872314V4.67847C16.3408 5.70947 17.177 6.56006 18.2151 6.56006Z" fill="#F6C143"/>
<path d="M21.8118 14.771C17.0613 14.771 13.1973 18.6348 13.1973 23.3855C13.1973 28.136 17.0613 32 21.8118 32C26.5625 32 30.4265 28.136 30.4265 23.3855C30.4265 18.6348 26.5625 14.771 21.8118 14.771ZM26.4399 24.1209L22.2156 28.655C22.1074 28.7705 21.9561 28.8355 21.7903 28.8355C21.6245 28.8355 21.4802 28.7705 21.3721 28.655L17.155 24.1209C16.9387 23.8901 16.9531 23.5225 17.1838 23.3062C17.4146 23.0898 17.7893 23.1042 18.0056 23.335L21.2351 26.7952V18.5554C21.2351 18.2383 21.4946 17.9788 21.8118 17.9788C22.1292 17.9788 22.3887 18.2383 22.3887 18.5554V26.7952L25.6038 23.335C25.8201 23.1042 26.1804 23.0898 26.4111 23.3062C26.6489 23.5225 26.6562 23.8828 26.4399 24.1209Z" fill="#F6C143"/>
<path d="M12.3542 20.9055H6.0896C5.77246 20.9055 5.51294 20.6462 5.51294 20.3289C5.51294 20.0117 5.77246 19.7522 6.0896 19.7522H12.7363C13.1038 18.8152 13.594 18.022 14.1997 17.229H6.0896C5.77246 17.229 5.51294 16.9697 5.51294 16.6523C5.51294 16.3352 5.77246 16.0757 6.0896 16.0757H15.2954C17.0254 14.5618 19.3179 13.5959 21.8193 13.5959C22.0571 13.5959 22.252 13.6174 22.5403 13.6392V7.71338H18.2148C16.5425 7.71338 15.1873 6.34375 15.1873 4.67847V0H4.12891C2.70142 0 1.5625 1.16772 1.5625 2.60229V24.6038C1.5625 26.0383 2.70142 27.1772 4.12891 27.1772H12.8154C12.3181 26.0239 12.0442 24.7263 12.0442 23.3711C12.0369 22.5205 12.1523 21.6985 12.3542 20.9055ZM6.0896 12.4712H13.3923C13.7095 12.4712 13.969 12.7307 13.969 13.0481C13.969 13.3652 13.7095 13.6248 13.3923 13.6248H6.0896C5.77246 13.6248 5.51294 13.3652 5.51294 13.0481C5.51294 12.7307 5.77246 12.4712 6.0896 12.4712Z" fill="#F6C143"/>
</g>
<defs>
<clipPath id="clip0_390:1161">
<rect width="32" height="32" fill="white"/>
</clipPath>
</defs>
</svg>
