<svg width="43" height="43" viewBox="0 0 43 43" fill="none" xmlns="http://www.w3.org/2000/svg">
<circle cx="21.5" cy="21.5" r="21.5" fill="#D93724"/>
<g clip-path="url(#clip0_390:1595)">
<path d="M28.5937 15.9062H15.4062C15.1897 15.9062 14.9871 15.9595 14.8037 16.0472L21.9687 23.2122L23.5746 21.6688C23.5746 21.6688 23.5747 21.6687 23.5747 21.6686C23.5748 21.6685 23.5749 21.6685 23.5749 21.6685L29.1964 16.0473C29.013 15.9595 28.8102 15.9062 28.5937 15.9062Z" fill="white"/>
<path d="M29.8594 16.7102L24.5693 22L29.8592 27.2899C29.947 27.1066 30.0002 26.9039 30.0002 26.6875V17.3125C30.0002 17.0961 29.9471 16.8935 29.8594 16.7102Z" fill="white"/>
<path d="M14.1409 16.7101C14.0532 16.8934 14 17.0961 14 17.3126V26.6876C14 26.9039 14.0532 27.1066 14.1408 27.2899L19.4309 22.0001L14.1409 16.7101Z" fill="white"/>
<path d="M23.9065 22.6629L22.3003 24.2064C22.2088 24.298 22.0888 24.3438 21.9689 24.3438C21.849 24.3438 21.7291 24.298 21.6375 24.2064L20.0939 22.6628L14.8037 27.9527C14.9871 28.0405 15.1899 28.0937 15.4064 28.0937H28.5939C28.8104 28.0937 29.013 28.0405 29.1964 27.9528L23.9065 22.6629Z" fill="white"/>
</g>
<defs>
<clipPath id="clip0_390:1595">
<rect width="16" height="16" fill="white" transform="translate(14 14)"/>
</clipPath>
</defs>
</svg>
