<svg width="43" height="43" viewBox="0 0 43 43" fill="none" xmlns="http://www.w3.org/2000/svg">
<circle cx="21.5" cy="21.5" r="21.5" fill="#D93724"/>
<path d="M21.8643 14.4922C18.9894 14.4922 16.6504 16.8312 16.6504 19.7061C16.6504 23.3196 21.8694 29.4922 21.8694 29.4922C21.8694 29.4922 27.0782 23.1419 27.0782 19.7061C27.0782 16.8312 24.7393 14.4922 21.8643 14.4922ZM23.4375 21.2328C23.0037 21.6664 22.4341 21.8833 21.8643 21.8833C21.2947 21.8833 20.7249 21.6664 20.2913 21.2328C19.4238 20.3654 19.4238 18.954 20.2913 18.0865C20.7113 17.6663 21.2701 17.4349 21.8643 17.4349C22.4586 17.4349 23.0172 17.6664 23.4375 18.0865C24.3049 18.954 24.3049 20.3654 23.4375 21.2328Z" fill="white"/>
</svg>
