<svg width="14" height="13" viewBox="0 0 14 13" fill="none" xmlns="http://www.w3.org/2000/svg">
<path d="M9.16669 0.397949H4.16668C1.86584 0.397949 0 2.08458 0 4.16443V8.6842C0 10.7641 1.86584 12.4507 4.16668 12.4507H9.16669C11.4675 12.4507 13.3334 10.7641 13.3334 8.6842V4.16443C13.3334 2.08458 11.4675 0.397949 9.16669 0.397949ZM12.0834 8.6842C12.0834 10.1381 10.775 11.3207 9.16669 11.3207H4.16668C2.55834 11.3207 1.25 10.1381 1.25 8.6842V4.16443C1.25 2.71057 2.55834 1.52789 4.16668 1.52789H9.16669C10.775 1.52789 12.0834 2.71057 12.0834 4.16443V8.6842Z" fill="white"/>
<path d="M6.66681 3.41113C4.82599 3.41113 3.3335 4.76029 3.3335 6.42432C3.3335 8.08835 4.82599 9.4375 6.66681 9.4375C8.50763 9.4375 10.0001 8.08835 10.0001 6.42432C10.0001 4.76029 8.50763 3.41113 6.66681 3.41113ZM6.66681 8.30756C5.51848 8.30756 4.58349 7.46236 4.58349 6.42432C4.58349 5.38552 5.51848 4.54108 6.66681 4.54108C7.81514 4.54108 8.75013 5.38552 8.75013 6.42432C8.75013 7.46236 7.81514 8.30756 6.66681 8.30756Z" fill="white"/>
<path d="M10.2503 3.58643C10.4956 3.58643 10.6945 3.40673 10.6945 3.18506C10.6945 2.96339 10.4956 2.78369 10.2503 2.78369C10.005 2.78369 9.80615 2.96339 9.80615 3.18506C9.80615 3.40673 10.005 3.58643 10.2503 3.58643Z" fill="white"/>
</svg>
