
<svg version="1.0" xmlns="http://www.w3.org/2000/svg"
 width="851.000000pt" height="1280.000000pt" viewBox="0 0 851.000000 1280.000000"
 preserveAspectRatio="xMidYMid meet">

<g transform="translate(0.000000,1280.000000) scale(0.100000,-0.100000)"
fill="#ffffff" stroke="none">
<path d="M3493 12785 c-227 -61 -373 -283 -334 -505 56 -310 389 -472 663
-323 59 32 148 123 178 183 67 131 66 290 -2 424 -29 56 -112 141 -173 176
-99 57 -224 74 -332 45z"/>
<path d="M4700 12789 c-150 -29 -295 -169 -335 -324 -96 -372 283 -684 631
-519 169 80 278 287 247 469 -45 260 -284 425 -543 374z"/>
<path d="M2055 11719 c-101 -12 -297 -60 -396 -98 -537 -207 -928 -685 -1015
-1241 -13 -83 -14 -486 -12 -3170 3 -2913 4 -3079 21 -3150 30 -125 94 -305
142 -402 86 -170 166 -281 303 -421 217 -221 421 -339 725 -419 l47 -13 -935
-1403 -935 -1402 542 2 542 3 110 162 111 163 2932 0 2932 0 3 22 c2 16 35
-26 129 -163 l126 -184 541 -3 542 -2 -935 1402 -935 1403 47 13 c235 62 406
145 578 282 72 58 218 205 274 277 145 185 256 425 318 683 17 71 18 237 21
3150 3 3354 6 3150 -53 3355 -180 626 -732 1085 -1387 1155 -121 13 -4266 11
-4383 -1z m3101 -353 c60 -28 117 -91 138 -154 23 -67 23 -557 0 -624 -21 -63
-78 -126 -138 -154 l-51 -24 -850 0 -850 0 -51 24 c-60 28 -117 91 -138 154
-23 67 -23 557 0 624 21 63 78 126 138 154 l51 24 850 0 850 0 51 -24z m-1116
-1278 c1 -17 50 -2524 50 -2581 l0 -78 -977 3 -978 3 -75 23 c-301 93 -504
322 -550 620 -7 45 -10 293 -8 723 4 647 4 655 27 729 12 41 43 115 69 165
101 196 309 347 533 384 46 7 1909 16 1909 9z m2405 -21 c33 -10 103 -39 155
-65 179 -88 316 -257 381 -472 23 -74 23 -82 27 -729 3 -694 1 -737 -43 -864
-81 -232 -264 -401 -517 -479 l-73 -23 -1072 -3 c-590 -1 -1073 -1 -1074 0 -2
10 -48 2417 -49 2526 l0 133 1103 -4 c1019 -3 1107 -4 1162 -20z m-4012 -5020
c215 -68 387 -239 463 -462 25 -72 28 -94 28 -215 0 -118 -3 -144 -26 -212
-40 -121 -92 -204 -182 -293 -138 -137 -302 -205 -496 -205 -399 0 -710 311
-710 710 0 194 68 358 205 496 107 108 208 164 360 200 89 21 259 12 358 -19z
m3985 17 c97 -19 240 -88 312 -150 167 -143 253 -327 254 -544 0 -128 -13
-188 -69 -305 -90 -188 -228 -309 -430 -377 -60 -20 -90 -23 -210 -23 -120 0
-150 3 -210 23 -198 66 -335 185 -425 367 -55 111 -73 189 -73 315 -1 277 148
514 398 635 148 72 296 91 453 59z m-215 -3264 l108 -160 -2056 0 -2056 0 108
160 108 159 1840 0 1840 0 108 -159z m300 -442 c24 -35 83 -120 131 -190 l87
-128 -2466 0 -2466 0 87 128 c48 70 107 155 131 190 l44 62 2204 0 2204 0 44
-62z m458 -671 c60 -87 109 -160 109 -163 0 -2 -1267 -4 -2815 -4 -1548 0
-2815 3 -2815 6 0 3 11 20 23 37 13 18 63 89 111 160 l87 127 2596 -2 2596 -3
108 -158z"/>
<path d="M2065 4791 c-86 -25 -135 -53 -204 -116 -179 -167 -186 -426 -16
-604 95 -100 219 -151 365 -151 145 0 254 45 356 145 173 172 171 432 -5 605
-125 122 -324 171 -496 121z"/>
<path d="M6163 4826 c-186 -43 -334 -196 -366 -380 -38 -222 118 -451 348
-511 68 -17 189 -19 255 -4 180 41 330 199 360 379 36 210 -101 426 -316 500
-77 27 -201 34 -281 16z"/>
</g>
</svg>
