<svg width="84" height="47" viewBox="0 0 84 47" fill="none" xmlns="http://www.w3.org/2000/svg">
<path fill-rule="evenodd" clip-rule="evenodd" d="M80.8284 19.712C81.1883 19.0577 80.7882 19.1743 81.3968 19.1757C81.02 19.5379 81.1388 19.2714 81.1983 19.8952C81.6149 20.2229 81.466 20.2034 81.7653 20.4876C82.155 20.8574 82.1288 20.684 82.503 20.9269L81.4079 21.0488C81.1808 21.8776 81.4018 22.4079 80.691 22.8608C80.2019 23.1727 79.3945 23.2306 79.0207 23.5921C78.1121 24.4702 79.4918 27.1606 78.8649 27.5919L78.6755 27.7258C78.6439 27.7427 78.6037 27.7614 78.5696 27.7776C78.1179 27.9894 77.9151 27.9563 77.5768 28.2923C76.6919 27.5459 76.5595 28.3193 75.5813 28.0348C74.8508 27.8225 74.7973 26.9987 73.8134 27.4837C73.38 27.8153 73.6494 27.4484 73.4517 28.2121L72.7194 30.3169C71.8051 32.5789 72.2177 31.7918 72.8302 32.9364L72.4449 33.0019C72.4032 33.0069 72.0279 33.0346 72.0049 33.0321C71.4003 32.9649 71.8611 32.6976 71.2948 32.5918C70.4085 32.7094 70.3447 33.2739 69.3403 33.3249C68.3439 33.3757 67.6528 33.2462 67.3456 34.1361C67.6478 34.6372 67.7952 34.6426 68.472 34.72C68.1702 35.7229 68.3708 35.8517 68.7458 36.6935C69.1272 37.5503 68.8983 37.8723 69.1046 38.8562C68.3973 39.0612 68.8412 38.8907 68.5376 39.3404C68.0091 40.122 68.1049 40.1872 68.2484 41.271C67.8605 41.0937 67.9068 40.9138 67.7375 40.5843C66.9707 40.5264 67.0349 40.7372 66.6136 40.3239C66.3915 40.1059 66.4482 39.8634 65.939 39.6652C64.8773 39.2511 62.3279 39.8058 60.8574 39.3468C59.6313 38.9641 59.848 39.0303 59.1799 39.7792C58.0704 39.5994 57.4895 38.4277 56.338 38.4248C54.9027 38.4212 54.6928 39.4339 54.8299 40.698C53.9185 40.2591 53.0458 39.6015 51.6963 39.59C49.6898 39.5724 49.9775 41.2696 49.3937 41.5638C48.7887 41.8689 49.0801 40.9271 48.2046 42.324C47.4392 43.5449 45.9289 42.2168 45.245 45.2165L45.1201 45.6076C44.3411 45.4496 44.0505 45.1827 43.8661 44.5787L43.6221 43.9528L40.848 44.1758L40.7927 42.6017L39.9219 42.3833L39.9 39.8339C39.8135 39.7861 39.4838 39.6619 39.4705 39.653C39.2893 39.5306 38.4163 37.9914 37.7915 37.4269C36.4083 37.5913 37.7309 38.0842 34.9199 37.7996C33.6773 37.6737 32.8448 38.313 32.1067 38.2658C31.547 38.2302 29.8411 35.888 28.7087 34.9945C28.0545 34.4779 27.5274 33.9897 26.7746 33.4847C24.3195 31.8367 24.523 32.3479 20.7607 33.7019L19.5845 34.2556L19.3847 43.9866C19.3204 44.0395 19.5217 44.2859 18.8443 44.1427C18.3319 44.0345 17.6957 42.0193 16.5309 41.507C14.4117 40.5749 13.238 42.8186 13.0152 43.0672C12.1052 41.616 13.7816 41.0656 13.4382 40.271C13.0626 39.6879 12.4723 40.3476 11.8702 40.0314C11.2523 39.3788 11.6897 39.058 10.6068 38.959C10.6531 37.159 10.1457 37.8665 9.77861 36.9222C9.70038 36.7204 9.76892 36.8255 9.68496 36.5665C9.4144 35.7337 8.66087 36.4305 8.49869 35.4556C9.60745 35.124 9.79152 36.2794 11.0162 35.801C10.9146 35.2164 10.1353 34.7498 10.6678 33.7897C10.9893 33.2091 11.8278 33.475 12.4626 33.5933C13.1533 33.7217 16.649 34.5326 15.7968 33.1005C15.2686 32.658 15.0271 32.998 14.2452 32.8436C13.9847 31.5846 15.3978 28.0747 12.6987 28.3466L12.4095 28.7909C12.3944 28.8125 12.3593 28.8585 12.3467 28.8758C12.3345 28.8931 12.2907 28.9812 12.2818 28.9582C12.2728 28.9355 12.2405 29.015 12.2154 29.0395C10.7245 28.3427 10.6595 28.0168 8.93358 28.8931C8.23459 29.2481 6.68233 30.3777 5.79639 30.0777C4.81573 29.7453 6.31848 30.2852 5.85596 28.678C5.61196 27.8297 4.95998 26.4584 4.07225 26.1012C3.01874 25.6771 2.6226 26.3095 2.3499 25.9893C1.96524 25.3523 2.49235 25.3566 2.25302 24.631C2.10985 24.1975 1.74995 24.0641 1.56192 23.6558C1.11052 22.6759 2.20099 22.3043 2.45934 21.5406C2.26988 20.8988 1.77219 20.8276 2.07468 19.6113C2.36066 18.4616 3.00403 19.6372 3.03094 18.281C3.0392 17.8753 2.844 17.6321 3.36609 17.6616C4.22941 17.7105 4.09593 19.4566 5.03605 19.5962C6.4229 19.42 6.16706 18.1339 5.69413 17.2986C6.21944 16.9803 6.25066 16.8594 6.76342 16.527C7.27941 16.1921 7.45774 16.273 7.20585 15.4561C10.1048 15.3474 8.42872 13.6725 10.2709 13.5607C10.2939 13.5966 10.3036 13.6524 10.3136 13.6815C10.3237 13.7107 10.3427 13.7668 10.3552 13.8024C10.3699 13.8438 10.4137 13.9963 10.4327 14.0409C10.5583 14.3341 10.2706 14.1477 10.6746 14.4118C10.9085 14.5647 11.2501 14.5417 11.5139 14.4114C12.2548 14.0456 11.5978 13.5693 12.6639 13.4218C12.9865 14.0679 12.7895 14.3639 13.4278 14.5078C13.8904 14.6118 14.4085 14.3773 14.9327 14.338C15.1846 15.5662 15.3497 14.9838 16.1908 15.6039C16.6781 15.9629 16.6885 16.4885 16.8359 17.022L17.0014 17.4101C17.7534 17.1867 17.5396 16.6166 17.8988 16.1482C20.0244 18.4505 19.8163 16.9623 20.7335 16.1273C20.7568 16.1061 20.7966 16.0842 20.8196 16.0633C20.8422 16.0428 20.8806 16.018 20.9021 15.9971L21.1892 15.5683C22.866 15.5953 22.0234 15.9209 22.7709 16.2191C23.3156 16.4367 23.7594 15.9158 23.8265 15.46C23.8355 15.3982 23.857 15.3798 23.8814 15.3449C25.3795 15.4237 24.762 15.382 25.0677 16.3112C25.3013 17.0209 25.8158 17.0206 26.5737 16.9504C26.775 17.2814 26.8794 17.7145 27.5102 17.4134C27.939 17.209 27.8733 16.8857 28.2192 16.4551C28.7941 16.922 28.6581 17.0626 29.7098 16.9058C30.9883 16.7151 31.5086 15.9374 31.2531 14.6366C31.1045 13.8812 30.707 14.0269 29.9925 14.0611C29.8939 13.1484 29.67 13.3304 28.8418 13.4071C28.7499 12.7851 28.7779 12.9078 28.4019 12.5437C29.0226 12.0235 29.7141 12.1221 30.1777 11.494C30.1009 10.5652 29.8687 11.0811 29.5684 10.2947C31.1375 8.29998 31.5574 10.3681 32.2851 9.39428L32.2223 8.65251C31.7938 8.39207 31.1939 8.35322 30.6399 8.14098C30.942 7.84456 31.2183 7.94169 31.2244 7.43195C31.2341 6.62616 30.6854 7.15712 30.576 6.87977C30.5577 6.83336 30.4963 6.86574 30.4619 6.84595C30.7231 6.30132 30.5017 6.4319 30.5143 6.3006C30.6065 5.33437 30.999 5.96461 31.4605 6.14124C32.0949 6.38406 32.8911 5.9362 33.6026 5.82324C34.1459 5.65525 34.3648 5.51171 34.8047 5.3376C35.62 5.01493 35.1879 5.35523 35.9967 5.49409C37.0836 4.83039 36.338 4.48253 38.2401 4.9473C38.4554 4.6847 38.4952 4.21129 38.5609 4.0343C39.8404 3.52565 39.2627 3.91343 40.0507 3.9656C40.5846 4.00121 40.8842 3.59292 41.434 3.44291C42.2865 3.21088 42.5018 3.61018 43.1786 3.24506C44.3508 2.61229 43.3278 3.08282 44.8851 2.97958L44.8291 2.20472C46.8292 2.23493 44.3067 0.964729 47.337 1.6626C48.3485 1.89535 47.6466 1.95722 48.4109 2.33962C49.318 2.10795 48.5774 1.79031 49.7716 1.75362C49.844 2.27594 49.7206 2.64071 49.8182 3.05008C49.9571 3.63213 50.0522 3.34074 50.4214 3.84688C50.298 4.32173 50.3159 4.45447 50.1419 4.84909C49.9355 5.31602 49.8659 4.77787 49.9481 5.61783C50.4203 5.97037 50.6453 5.81497 51.2176 5.7218C52.2647 5.55164 51.3773 5.67971 51.9851 4.93075C52.697 5.125 52.2212 5.21674 52.7218 5.53222C53.2626 5.87324 53.1894 5.58942 53.6741 5.79302C54.1112 5.97684 54.5952 6.75278 55.2016 5.89087C55.1033 6.30168 54.8683 6.17434 54.5855 6.59234C54.2913 7.0269 54.2888 7.35065 54.5522 7.72765C54.9167 8.08126 55.4252 7.56541 55.7937 7.46433C56.4618 7.28122 56.493 7.58628 57.2354 7.61577C57.5559 7.12546 57.3779 7.24309 57.4672 6.66717L58.2014 6.44665C59.3148 6.12002 59.101 5.57287 59.5376 5.25091C59.5567 5.23688 61.7735 4.27101 61.8826 4.23971C61.5288 4.95809 59.9133 4.95018 61.9895 6.42831C63.9705 7.83953 63.6433 7.47872 65.1554 10.1501C66.2623 12.1059 67.1425 14.2708 68.1282 16.2745C68.9036 16.0363 68.0439 16.1935 69.3084 15.5144L69.4914 14.5298C70.5933 14.5564 70.1523 14.8881 70.0006 15.5176C70.7964 15.9942 70.2029 15.0791 71.1463 16.3421L73.3886 16.2518C73.5533 16.1921 73.9907 14.824 75.3517 15.668C76.2929 16.2514 76.1637 16.5479 76.3428 17.8458C77.7271 18.2926 77.0884 17.1727 78.1577 19.1534C78.3669 19.5415 78.2298 19.4905 78.4742 19.8606C79.3594 19.8621 79.1444 19.8988 79.8682 20.0401C80.5367 20.1711 80.5718 20.2034 80.8284 19.712ZM29.4163 5.86353L29.4439 5.79698C29.5024 6.63299 29.2806 6.08908 30.0471 6.54594C29.6822 6.93301 29.6628 6.69702 29.5558 7.29561C30.0327 7.56793 30.1605 7.45641 30.741 7.44562C30.2179 7.72153 30.4095 7.35965 29.9276 7.78305C30.1343 9.0475 31.3614 8.4097 31.838 9.09498C30.9743 9.36262 31.0751 8.23271 29.6832 9.51407C28.4779 10.6235 29.4679 10.5994 29.7105 11.3444C28.7033 12.0469 27.9261 11.8383 27.5611 12.6937C27.5891 12.7218 27.6372 12.7459 27.6598 12.7599C28.7334 13.4254 28.0341 13.0376 28.5892 13.8485L29.4511 13.7715L29.7625 14.433C29.9477 14.4657 30.2279 14.4733 30.3122 14.4888L30.8056 14.6431C30.8874 15.6489 30.9556 16.1971 29.9825 16.418C28.0682 16.8518 29.3029 15.9766 27.8798 15.9604L27.3523 17.054C27.3225 17.027 27.2931 16.9813 27.2759 16.9616C26.348 15.9079 25.7904 17.0598 25.48 16.0683C25.2869 15.451 25.654 15.2618 24.8599 15.0089C24.4103 14.8658 23.8667 14.91 23.3669 14.9561L23.1336 15.8068C22.3934 15.6316 22.9313 15.1838 21.6305 15.1201C20.2735 15.0535 21.2685 15.3528 20.0395 15.727C19.6907 18.5857 18.6885 15.3874 17.1718 15.4295C17.0283 16.2396 17.2913 15.9043 17.2149 16.65C17.2794 15.9072 16.7965 15.4597 16.3192 15.1719C16.0289 14.9971 15.772 14.9467 15.575 14.7266C15.3551 14.4809 15.5036 14.5945 15.3544 14.3517C14.8294 13.4981 14.5994 14.1179 13.3862 14.0697L12.9754 12.9981C11.4371 12.7912 11.9778 13.8139 11.0187 14.069L10.5142 13.1517C9.27841 13.0182 9.17758 13.5538 8.86504 13.856C8.24751 16.3881 6.42936 13.5564 6.84631 16.0072C6.23129 16.2248 6.2826 16.3853 5.92485 16.5709C5.18747 16.954 5.8477 16.2453 5.02923 16.7421C5.14836 17.6562 6.23918 18.2238 5.37801 19.0537C4.03924 19.4358 4.80604 16.4011 2.6183 17.4468C2.31366 18.7124 3.23476 18.3677 1.81346 18.8322C1.73093 19.3998 1.4288 20.184 1.65737 21.0265C1.85616 21.7589 1.77758 20.924 1.9046 21.6906C0.996778 22.5028 0.606379 23.1536 1.52353 24.3159C2.26593 25.2562 1.17368 26.3289 2.6427 26.9347C3.26454 26.6419 2.62476 27.0577 3.09159 26.3944C4.65139 26.4955 5.19823 27.7955 5.53373 29.1877L4.75401 29.4622C4.87063 30.3032 5.6543 30.7504 6.65398 30.541C7.25393 30.4155 8.18472 29.7759 8.75202 29.465C9.41297 29.1032 10.2763 28.5902 11.2021 29.001C11.5648 29.1618 11.8479 29.469 12.2355 29.4701C13.0809 29.4726 12.4816 29.0794 13.1128 28.7585C15.1775 29.8183 12.998 32.3004 14.0134 33.1951L15.4828 33.3239C15.1764 33.6307 15.3321 33.6084 14.7584 33.5663C14.5079 33.548 14.2463 33.471 14.04 33.3926C12.7593 33.2458 9.12411 31.8774 10.3158 35.4776C9.38283 35.1319 9.34946 34.6617 8.12838 35.1132L8.20983 36.3121L9.29456 36.5578C9.21777 37.6093 9.48294 37.4144 10.1249 37.836C10.4306 40.535 10.3201 38.831 11.0686 39.6443C11.483 40.0943 11.0883 40.2141 11.7367 40.4573C12.097 40.5922 12.6722 40.4656 13.0909 40.466C13.0884 40.4706 11.2986 43.0571 13.1128 43.555C13.778 43.1315 13.5129 42.633 14.467 42.0937C15.1534 41.7063 16.0681 41.6509 16.6971 42.0926C17.8033 42.8697 18.1665 45.4536 19.7489 44.3856C20.2157 43.5183 19.972 36.1539 20.0244 34.4362C25.5499 32.4012 24.4157 32.1001 28.6409 35.5121C30.6481 37.133 30.9377 38.6788 32.1024 38.7047C33.0404 38.7256 33.6845 38.1133 34.9045 38.236C36.9444 38.441 36.057 38.3885 37.6419 37.9169C37.9318 38.2561 38.4798 38.799 38.6481 39.1249C38.9818 39.7702 38.662 39.8817 39.1981 40.3634L39.4762 42.7776L40.3693 43.133L40.4465 44.6751L43.3228 44.4316C43.5047 44.8831 43.8072 46.1436 45.1112 46.027C46.5432 45.8986 45.005 44.2615 46.7958 43.4701C48.3754 42.7718 47.9025 43.7323 48.9025 41.9984L49.5437 42.2042C50.3672 41.2476 50.1264 39.9717 51.8251 40.0357C53.2687 40.0904 54.4876 41.3304 55.1894 41.0951C55.5016 40.3418 54.8514 40.0044 55.3721 39.3173C56.2537 38.154 57.6894 39.6048 58.3155 39.9598C59.3948 40.5724 59.4196 40.153 59.9277 39.5771C60.9048 39.6882 61.3418 39.9976 62.6178 40.0285C63.4686 40.0494 65.0822 39.8897 65.7614 40.0839C66.6954 40.5749 65.8066 41.1048 67.4906 40.9793C67.6176 41.5584 67.8986 41.9541 68.6026 41.6178C68.8021 41.0735 68.5567 40.7178 68.4971 40.1339C69.5007 39.4792 68.2506 40.5883 69.6181 38.9497C69.4864 38.186 69.4587 37.1931 69.1806 36.5582C68.4228 34.8275 69.1717 35.1294 68.9442 34.3908L67.8591 34.1825C68.3819 33.5714 68.6248 33.8304 69.5047 33.757C70.3551 33.6865 70.5377 33.3469 71.1452 33.0519C71.2758 33.2073 71.4818 33.4753 71.6314 33.6271C72.1793 33.5786 71.8894 33.4728 72.3318 33.4944C72.3735 33.4965 72.8966 33.6591 73.0703 33.498C73.6401 32.8271 73.0577 32.3997 72.6684 32.0368C72.7592 31.0108 73.4341 29.9057 73.7316 28.9251L73.9648 28.1143C74.1213 27.7373 73.99 27.997 74.1367 27.7901C75.065 27.9283 74.8755 28.5154 75.9337 28.519C76.2807 28.52 76.6668 28.3297 76.9151 28.4204C77.4537 28.6164 76.7278 28.6628 77.5768 28.9517C78.1588 28.5837 77.7375 28.5884 78.3626 28.3193C78.9525 28.0653 78.8398 28.3952 79.2682 27.8628C79.7322 27.0804 78.96 25.2674 79.2327 23.9177C79.5901 23.754 80.0727 23.6367 80.5277 23.4493C81.1765 23.1824 81.2177 22.9349 81.6045 22.6874L81.752 21.4042L82.9107 21.3355C83.0786 20.4545 83.0449 20.6527 82.5027 20.3678C81.785 19.9905 82.1532 20.0635 81.6322 19.7149C81.8148 19.2833 82.2834 18.6649 81.3447 18.712C80.6964 18.7451 80.7778 19.2469 80.269 19.6746C80.0856 19.6336 79.0913 19.3926 78.979 19.348C77.7745 18.8703 78.96 17.5217 76.7159 17.4817C76.6808 15.0442 74.2734 14.2514 73.1998 15.627C73.1873 15.6428 73.1525 15.7356 73.1439 15.7129C73.1352 15.6906 73.1133 15.7755 73.0843 15.7363L71.4445 15.9277C70.6231 14.7762 70.5743 13.6913 69.0091 14.287C68.7099 15.4791 69.3192 15.0111 68.3033 15.4877C67.8634 14.8805 67.2706 13.4161 66.8813 12.6218C66.0815 10.9893 64.8906 8.29027 63.672 7.14057C63.0064 6.51212 61.8083 5.96713 61.3989 5.14623C62.0035 4.98687 61.8416 5.0491 62.3006 4.63757C62.3476 3.49579 61.8951 3.63105 61.053 4.06884C60.279 4.47066 60.1168 4.45303 59.3729 4.78254C58.5965 5.12608 59.1551 5.76353 58.0787 6.02577C57.5813 6.14664 57.5132 5.96677 57.1805 6.34197C56.9588 6.59234 57.0869 6.52543 56.9922 6.7276C56.9792 6.75602 56.9609 6.80314 56.9487 6.82868C56.9369 6.85423 56.9093 6.90567 56.8992 6.92617L56.7866 7.11287C55.7679 6.70925 55.6272 7.08122 54.8532 7.40173C54.864 6.31751 55.6624 6.75422 55.6939 5.92289C55.7287 5.00054 54.813 5.65345 54.5432 5.79734C53.8255 5.48689 54.357 5.52466 53.3447 5.24731C52.5112 5.01924 53.0311 5.0009 52.4021 4.51382C51.4433 4.46742 51.7354 4.63937 51.3411 4.98903L50.8656 5.26746C50.7002 5.33545 50.5674 5.37718 50.3852 5.44552C51.5086 2.75762 50.3446 3.88358 50.2355 2.64826C50.1817 2.03564 50.3256 2.00974 50.111 1.40792C49.121 1.17157 48.9786 1.41583 48.4152 1.86765C48.0876 1.21798 48.1238 1.38813 47.2788 1.20179C44.6153 0.614712 46.0865 1.46655 44.8334 1.75829C44.8198 1.76153 44.5044 1.77736 44.4122 1.79427C44.3975 1.86837 44.3498 2.18961 44.348 2.19824C44.2895 2.44825 44.2697 2.44682 44.2231 2.53999C42.8771 2.32667 43.4688 2.56553 42.7272 2.97454C41.1003 2.80978 40.6018 3.56486 39.9865 3.44651C38.9857 3.25405 38.2063 3.38751 38 4.34259C36.958 4.20697 36.3297 4.35266 35.9881 5.03615C35.1108 4.70592 35.3458 4.56778 34.3712 5.06133C33.7178 5.39192 33.4494 5.34876 32.7576 5.55056C31.2603 5.988 32.0378 5.71568 31.1253 5.42898C30.6969 5.29408 29.9656 5.71748 29.4163 5.86353Z" fill="#E31E24" stroke="#E31E24" stroke-miterlimit="22.9256" stroke-linecap="round" stroke-linejoin="round"/>
</svg>
