<svg width="52" height="35" viewBox="0 0 52 35" fill="none" xmlns="http://www.w3.org/2000/svg">
<path d="M50.5156 29.8125H44.2333L45.8895 28.1562H48.8594C49.518 28.1554 50.1494 27.8933 50.6151 27.4276C51.0808 26.9619 51.3429 26.3305 51.3438 25.6719C51.3438 16.0822 43.5428 8.28125 33.9531 8.28125H0.828125C0.608493 8.28125 0.397856 8.3685 0.242552 8.5238C0.0872486 8.67911 0 8.88974 0 9.10938V27.3281C0 27.5478 0.0872486 27.7584 0.242552 27.9137C0.397856 28.069 0.608493 28.1562 0.828125 28.1562H7.93861L6.28236 29.8125H0.828125C0.608493 29.8125 0.397856 29.8997 0.242552 30.0551C0.0872486 30.2104 0 30.421 0 30.6406V33.9531C0 34.1728 0.0872486 34.3834 0.242552 34.5387C0.397856 34.694 0.608493 34.7812 0.828125 34.7812H50.5156C50.7353 34.7812 50.9459 34.694 51.1012 34.5387C51.2565 34.3834 51.3438 34.1728 51.3438 33.9531V30.6406C51.3438 30.421 51.2565 30.2104 51.1012 30.0551C50.9459 29.8997 50.7353 29.8125 50.5156 29.8125ZM47.8066 18.2188H30.4098L29.3053 14.9062H45.4164C46.3529 15.9025 47.1563 17.016 47.8066 18.2188ZM1.65625 26.5V9.9375H33.9531C37.4482 9.93425 40.8439 11.1003 43.5997 13.25H28.1562C28.025 13.25 27.8957 13.2812 27.7789 13.341C27.6621 13.4007 27.5611 13.4874 27.4844 13.5939C27.4077 13.7003 27.3573 13.8235 27.3375 13.9532C27.3177 14.083 27.3291 14.2155 27.3706 14.34L29.0268 19.3088C29.0818 19.4737 29.1872 19.6171 29.3283 19.7187C29.4693 19.8203 29.6387 19.875 29.8125 19.875H48.5809C49.3138 21.7197 49.6893 23.6869 49.6875 25.6719C49.6872 25.8914 49.5999 26.1019 49.4446 26.2571C49.2894 26.4124 49.0789 26.4997 48.8594 26.5H1.65625ZM43.548 28.1562L41.8917 29.8125H26.0145L27.6708 28.1562H43.548ZM25.3292 28.1562L23.673 29.8125H8.62389L10.2801 28.1562H25.3292ZM49.6875 33.125H1.65625V31.4688H49.6875V33.125Z" fill="#E31E24"/>
<path d="M25.6295 13.8162C25.5745 13.6513 25.4691 13.5079 25.3281 13.4063C25.187 13.3047 25.0176 13.25 24.8438 13.25H3.31256C3.18134 13.25 3.05199 13.2812 2.93518 13.341C2.81836 13.4007 2.71743 13.4874 2.6407 13.5939C2.56397 13.7003 2.51364 13.8235 2.49385 13.9532C2.47406 14.083 2.48538 14.2155 2.52688 14.34L4.18313 19.3088C4.2381 19.4737 4.34356 19.6171 4.48457 19.7187C4.62558 19.8203 4.795 19.875 4.96881 19.875H26.5001C26.6313 19.875 26.7606 19.8438 26.8775 19.784C26.9943 19.7243 27.0952 19.6376 27.1719 19.5311C27.2487 19.4247 27.299 19.3015 27.3188 19.1718C27.3386 19.042 27.3272 18.9095 27.2857 18.785L25.6295 13.8162ZM5.56568 18.2188L4.46158 14.9062H24.2469L25.351 18.2188H5.56568Z" fill="#E31E24"/>
<path d="M20.7031 4.96875C20.4835 4.96875 20.2729 5.056 20.1176 5.2113C19.9622 5.36661 19.875 5.57724 19.875 5.79688C19.875 6.01651 19.9622 6.22714 20.1176 6.38245C20.2729 6.53775 20.4835 6.625 20.7031 6.625H27.3281C27.5478 6.625 27.7584 6.53775 27.9137 6.38245C28.069 6.22714 28.1562 6.01651 28.1562 5.79688C28.1562 5.57724 28.069 5.36661 27.9137 5.2113C27.7584 5.056 27.5478 4.96875 27.3281 4.96875H20.7031Z" fill="#E31E24"/>
<path d="M17.3906 6.625H18.2188C18.4384 6.625 18.649 6.53775 18.8043 6.38245C18.9596 6.22714 19.0469 6.01651 19.0469 5.79688C19.0469 5.57724 18.9596 5.36661 18.8043 5.2113C18.649 5.056 18.4384 4.96875 18.2188 4.96875H17.3906C17.171 4.96875 16.9604 5.056 16.8051 5.2113C16.6497 5.36661 16.5625 5.57724 16.5625 5.79688C16.5625 6.01651 16.6497 6.22714 16.8051 6.38245C16.9604 6.53775 17.171 6.625 17.3906 6.625Z" fill="#E31E24"/>
<path d="M17.3906 4.14062H30.6406C30.8603 4.14062 31.0709 4.05338 31.2262 3.89807C31.3815 3.74277 31.4688 3.53213 31.4688 3.3125C31.4688 3.09287 31.3815 2.88223 31.2262 2.72693C31.0709 2.57162 30.8603 2.48438 30.6406 2.48438H17.3906C17.171 2.48438 16.9604 2.57162 16.8051 2.72693C16.6497 2.88223 16.5625 3.09287 16.5625 3.3125C16.5625 3.53213 16.6497 3.74277 16.8051 3.89807C16.9604 4.05338 17.171 4.14062 17.3906 4.14062Z" fill="#E31E24"/>
<path d="M27.3281 1.65625H33.9531C34.1728 1.65625 34.3834 1.569 34.5387 1.4137C34.694 1.25839 34.7812 1.04776 34.7812 0.828125C34.7812 0.608493 34.694 0.397856 34.5387 0.242552C34.3834 0.0872488 34.1728 0 33.9531 0H27.3281C27.1085 0 26.8979 0.0872488 26.7426 0.242552C26.5872 0.397856 26.5 0.608493 26.5 0.828125C26.5 1.04776 26.5872 1.25839 26.7426 1.4137C26.8979 1.569 27.1085 1.65625 27.3281 1.65625Z" fill="#E31E24"/>
</svg>
