<svg width="43" height="43" viewBox="0 0 43 43" fill="none" xmlns="http://www.w3.org/2000/svg">
<circle cx="21.5" cy="21.5" r="21.5" fill="#D93724"/>
<path d="M22.0002 16.7476C19.1626 16.7476 16.8541 19.0561 16.8541 21.8937C16.8541 24.7313 19.1627 27.0398 22.0002 27.0398C24.8378 27.0398 27.1463 24.7313 27.1463 21.8937C27.1463 19.0561 24.8378 16.7476 22.0002 16.7476V16.7476ZM24.6357 22.4796H21.4143V19.2582H22.5862V21.3078H24.6357V22.4796Z" fill="white"/>
<path d="M32 20.5788H29.9351L29.8279 20.1286C29.6311 19.3017 29.3047 18.5145 28.858 17.7887L28.6155 17.3945L30.0761 15.9339L28.0661 13.9239L26.6055 15.3846L26.2114 15.142C25.4856 14.6953 24.6983 14.369 23.8715 14.1721L23.4213 14.0649V12H20.5788V14.0649L20.1286 14.1721C19.3018 14.3689 18.5145 14.6953 17.7887 15.142L17.3945 15.3845L15.9339 13.9239L13.924 15.9338L15.3846 17.3945L15.142 17.7886C14.6953 18.5145 14.369 19.3017 14.172 20.1286L14.0648 20.5788H12V23.4212H14.0648L14.172 23.8714C14.3689 24.6983 14.6953 25.4855 15.142 26.2113L15.3845 26.6055L13.9239 28.0661L15.9339 30.076L17.3945 28.6154L17.7886 28.858C18.5144 29.3047 19.3017 29.631 20.1285 29.8279L20.5787 29.9351V32H23.4212V29.9351L23.8714 29.8279C24.6982 29.6311 25.4855 29.3047 26.2113 28.858L26.6055 28.6155L28.0661 30.0761L30.076 28.0661L28.6154 26.6055L28.858 26.2114C29.3047 25.4855 29.631 24.6983 29.8279 23.8714L29.935 23.4213H32V20.5788ZM22 28.2117C18.5163 28.2117 15.682 25.3775 15.682 21.8937C15.682 18.41 18.5163 15.5757 22 15.5757C25.4837 15.5757 28.318 18.41 28.318 21.8937C28.318 25.3775 25.4837 28.2117 22 28.2117Z" fill="white"/>
</svg>
