<svg width="45" height="42" viewBox="0 0 45 42" fill="none" xmlns="http://www.w3.org/2000/svg">
<path d="M44.9132 23.0077C44.5092 19.0586 42.6936 15.3355 39.8007 12.5243C37.3285 10.122 34.3026 8.57826 31.1186 7.89184V5.72177C32.419 5.40739 33.3857 4.26351 33.3857 2.90389C33.3857 1.30265 32.0451 0 30.3973 0H24.0691C22.4213 0 21.0808 1.30265 21.0808 2.90389C21.0808 4.26342 22.0474 5.4073 23.3478 5.72177V7.8979C20.1736 8.58723 17.1576 10.1289 14.6925 12.5244C14.153 13.0486 13.6555 13.5986 13.2001 14.1701C13.1781 14.1685 13.156 14.1669 13.1335 14.1669H6.87025C6.38491 14.1669 5.99133 14.5493 5.99133 15.021C5.99133 15.4927 6.38491 15.8751 6.87025 15.8751H12.0042C11.3598 16.9234 10.8402 18.0245 10.4446 19.1578H0.878919C0.39358 19.1578 0 19.5402 0 20.0119C0 20.4836 0.39358 20.866 0.878919 20.866H9.94796C9.69466 21.9465 9.54928 23.0461 9.51175 24.1488H5.62508C5.13975 24.1488 4.74616 24.5312 4.74616 25.0029C4.74616 25.4746 5.13975 25.857 5.62508 25.857H9.53979C9.61397 26.9625 9.79688 28.0623 10.0886 29.1399H4.3946C3.90926 29.1399 3.51568 29.5222 3.51568 29.9939C3.51568 30.4657 3.90926 30.848 4.3946 30.848H10.6495C11.5117 33.0645 12.8592 35.1419 14.6925 36.9233C17.5881 39.7372 21.4234 41.5019 25.4916 41.8925C26.0722 41.9482 26.6532 41.9757 27.2335 41.9757C30.6632 41.9757 34.0493 41.0112 36.9225 39.193C37.3293 38.9356 37.4443 38.4065 37.1794 38.0112C36.9145 37.616 36.37 37.5042 35.9633 37.7616C29.674 41.7414 21.251 40.8809 15.9354 35.7155C9.69844 29.6547 9.69844 19.7932 15.9354 13.7323C22.1723 7.67165 32.3206 7.67165 38.5577 13.7323C43.8663 18.891 44.7566 27.069 40.6746 33.1775C40.4103 33.5732 40.526 34.1022 40.933 34.359C41.3403 34.6159 41.8846 34.5034 42.1488 34.1078C44.3298 30.8439 45.3116 26.9019 44.9132 23.0077ZM22.8386 2.90398C22.8386 2.24462 23.3906 1.70826 24.0691 1.70826H30.3973C31.0759 1.70826 31.6278 2.24462 31.6278 2.90398C31.6278 3.56333 31.0759 4.0997 30.3973 4.0997H30.2397H24.2267H24.0691C23.3906 4.0997 22.8386 3.56324 22.8386 2.90398ZM25.1056 7.60426V5.80787H29.3607V7.60119C27.9478 7.43789 26.5183 7.43891 25.1056 7.60426Z" fill="#E31E24"/>
<path d="M39.1797 35.4647C38.9477 35.4647 38.7218 35.5561 38.5584 35.715C38.394 35.8739 38.3008 36.0943 38.3008 36.3189C38.3008 36.5436 38.394 36.7639 38.5584 36.9228C38.7218 37.0826 38.9477 37.1731 39.1797 37.1731C39.4108 37.1731 39.6367 37.0826 39.8011 36.9228C39.9646 36.7639 40.0586 36.5436 40.0586 36.3189C40.0586 36.0943 39.9646 35.8739 39.8011 35.715C39.6367 35.5561 39.4108 35.4647 39.1797 35.4647Z" fill="#E31E24"/>
<path d="M27.2469 11.475C19.7288 11.475 13.6123 17.4184 13.6123 24.7241C13.6123 32.0297 19.7288 37.9732 27.2469 37.9732C34.765 37.9732 40.8815 32.0297 40.8815 24.7241C40.8815 17.4184 34.765 11.475 27.2469 11.475ZM27.2469 36.265C20.698 36.265 15.3701 31.0878 15.3701 24.7241C15.3701 18.3604 20.698 13.1831 27.2469 13.1831C33.7958 13.1831 39.1236 18.3604 39.1236 24.7241C39.1236 31.0878 33.7958 36.265 27.2469 36.265Z" fill="#E31E24"/>
<path d="M32.8061 18.1137L28.4529 22.3437C28.0888 22.1688 27.6793 22.07 27.2465 22.07C26.8135 22.07 26.4041 22.1688 26.0401 22.3437L24.0918 20.4505C23.7485 20.117 23.1921 20.117 22.8487 20.4505C22.5055 20.784 22.5055 21.3248 22.8487 21.6583L24.797 23.5515C24.6169 23.9053 24.5153 24.3032 24.5153 24.7238C24.5153 26.1871 25.7404 27.3777 27.2465 27.3777C28.7525 27.3777 29.9776 26.1871 29.9776 24.7238C29.9776 24.3032 29.8759 23.9053 29.6959 23.5515L33.9214 19.4456L34.0491 19.3215C34.3923 18.988 34.3923 18.4472 34.0491 18.1137C33.7059 17.7801 33.1495 17.7801 32.8061 18.1137ZM27.2465 25.6697C26.7098 25.6697 26.2732 25.2454 26.2732 24.7239C26.2732 24.2024 26.7098 23.7781 27.2465 23.7781C27.7831 23.7781 28.2198 24.2024 28.2198 24.7239C28.2198 25.2454 27.7831 25.6697 27.2465 25.6697Z" fill="#E31E24"/>
<path d="M36.6439 23.8804H35.8296C35.3443 23.8804 34.9507 24.2628 34.9507 24.7346C34.9507 25.2063 35.3443 25.5887 35.8296 25.5887H36.6439C37.1292 25.5887 37.5228 25.2063 37.5228 24.7346C37.5228 24.2628 37.1292 23.8804 36.6439 23.8804Z" fill="#E31E24"/>
<path d="M18.6638 23.8593H17.8496C17.3643 23.8593 16.9707 24.2416 16.9707 24.7133C16.9707 25.185 17.3643 25.5674 17.8496 25.5674H18.6638C19.1492 25.5674 19.5427 25.185 19.5427 24.7133C19.5427 24.2416 19.1492 23.8593 18.6638 23.8593Z" fill="#E31E24"/>
<path d="M27.2573 17.2376C27.7427 17.2376 28.1362 16.8552 28.1362 16.3834V15.5921C28.1362 15.1203 27.7427 14.7379 27.2573 14.7379C26.772 14.7379 26.3784 15.1203 26.3784 15.5921V16.3834C26.3784 16.8552 26.772 17.2376 27.2573 17.2376Z" fill="#E31E24"/>
<path d="M27.2358 32.2106C26.7505 32.2106 26.3569 32.5928 26.3569 33.0644V33.8553C26.3569 34.3269 26.7505 34.7091 27.2358 34.7091C27.7212 34.7091 28.1147 34.3269 28.1147 33.8553V33.0644C28.1147 32.5928 27.7212 32.2106 27.2358 32.2106Z" fill="#E31E24"/>
<path d="M0.878906 29.1393C0.647754 29.1393 0.420996 29.2307 0.25752 29.3895C0.094043 29.5484 0 29.7687 0 29.9933C0 30.2188 0.0939551 30.4383 0.25752 30.5971C0.421084 30.756 0.647754 30.8474 0.878906 30.8474C1.11006 30.8474 1.33682 30.756 1.50021 30.5971C1.66368 30.4383 1.75781 30.2179 1.75781 29.9933C1.75781 29.7687 1.66377 29.5484 1.50021 29.3895C1.33682 29.2307 1.11006 29.1393 0.878906 29.1393Z" fill="#E31E24"/>
</svg>
