<svg width="33" height="45" viewBox="0 0 33 45" fill="none" xmlns="http://www.w3.org/2000/svg">
<path d="M9.34235 33.9561C8.92493 33.6336 8.3154 33.7011 7.97759 34.1024L0.212011 43.4776C-0.121876 43.8826 -0.0539886 44.4714 0.363439 44.7958C0.542076 44.9326 0.757569 45.0001 0.969149 45.0001C1.25262 45.0001 1.536 44.8801 1.7282 44.6495L9.49369 35.2742C9.82767 34.8692 9.75978 34.2804 9.34235 33.9561Z" fill="#E31E24"/>
<path d="M32.7881 43.4756L25.0226 34.1007C24.6887 33.6995 24.0772 33.6301 23.6579 33.9545C23.2404 34.2789 23.1726 34.8676 23.5064 35.2725L31.2719 44.6474C31.4641 44.8799 31.7456 44.9999 32.031 44.9999C32.2445 44.9999 32.458 44.9324 32.6367 44.7937C33.054 44.4694 33.122 43.8806 32.7881 43.4756Z" fill="#E31E24"/>
<path d="M30.0903 41.25H2.91115C2.37533 41.25 1.94043 41.67 1.94043 42.1875C1.94043 42.705 2.37533 43.125 2.91115 43.125H30.0904C30.6262 43.125 31.0611 42.705 31.0611 42.1875C31.061 41.67 30.6261 41.25 30.0903 41.25Z" fill="#E31E24"/>
<path d="M27.1778 37.5H5.82277C5.28695 37.5 4.85205 37.92 4.85205 38.4375C4.85205 38.955 5.28695 39.375 5.82277 39.375H27.1779C27.7137 39.375 28.1486 38.955 28.1486 38.4375C28.1485 37.9199 27.7136 37.5 27.1778 37.5Z" fill="#E31E24"/>
<path d="M32.7729 30.6788L31.3634 6.19877C31.1654 2.72251 28.1854 0 24.5802 0H8.42027C4.81514 0 1.8351 2.72251 1.63708 6.19877L0.227637 30.677C0.151924 31.9764 0.621767 33.2139 1.5478 34.1589C2.47384 35.1039 3.72603 35.6252 5.07331 35.6252H27.9272C29.2745 35.6252 30.5266 35.1039 31.4527 34.1608C32.3787 33.2157 32.8486 31.9782 32.7729 30.6788ZM30.0413 32.8708C29.4861 33.4369 28.7348 33.7501 27.9253 33.7501H5.07331C4.26567 33.7501 3.51436 33.4369 2.95724 32.8708C2.40204 32.3045 2.12048 31.562 2.16516 30.782L3.5746 6.30195C3.71629 3.81947 5.84601 1.87506 8.42027 1.87506H24.5803C27.1546 1.87506 29.2843 3.81947 29.426 6.30195L30.8335 30.782C30.8781 31.562 30.5965 32.3045 30.0413 32.8708Z" fill="#E31E24"/>
<path d="M16.5 1.87549C14.8944 1.87549 13.5879 3.13748 13.5879 4.68831C13.5879 6.23914 14.8944 7.50112 16.5 7.50112C18.1055 7.50112 19.412 6.23914 19.412 4.68831C19.412 3.13756 18.1055 1.87549 16.5 1.87549ZM16.5 5.62594C15.9641 5.62594 15.5292 5.20587 15.5292 4.68831C15.5292 4.17075 15.9641 3.75076 16.5 3.75076C17.0358 3.75076 17.4707 4.17084 17.4707 4.68839C17.4707 5.20595 17.0358 5.62594 16.5 5.62594Z" fill="#E31E24"/>
<path d="M15.2073 7.74076C15.0016 7.56077 14.7278 7.47824 14.4521 7.50637L5.71593 8.44387C5.22279 8.49634 4.85205 8.89764 4.85205 9.37575V15.9381C4.85205 16.2043 4.97044 16.4594 5.17629 16.6374C5.35493 16.7912 5.58398 16.8755 5.82277 16.8755C5.85962 16.8755 5.89457 16.8737 5.92951 16.8699L14.6657 15.9324C15.1588 15.8799 15.5296 15.4786 15.5296 15.0005V8.43825C15.5296 8.17203 15.4112 7.91698 15.2073 7.74076ZM13.5882 14.1625L6.79339 14.8919V10.2158L13.5882 9.48631V14.1625Z" fill="#E31E24"/>
<path d="M27.2863 8.44181L18.5502 7.5043C18.2745 7.47802 18.0008 7.56054 17.7949 7.7387C17.5892 7.91685 17.4707 8.17181 17.4707 8.43803V15.0005C17.4707 15.4786 17.8415 15.8798 18.3346 15.9323L27.0707 16.8699C27.1057 16.8736 27.1406 16.8755 27.1775 16.8755C27.4163 16.8755 27.6453 16.7911 27.824 16.6374C28.0297 16.4592 28.1482 16.2043 28.1482 15.9381V9.37563C28.1483 8.89743 27.7775 8.49612 27.2863 8.44181ZM26.207 14.8898L19.4121 14.1604V9.48611L26.207 10.2155V14.8898Z" fill="#E31E24"/>
<path d="M17.2365 26.5764C16.8851 26.1807 8.53918 16.8755 1.94044 16.8755C1.40462 16.8755 0.969727 17.2955 0.969727 17.813C0.969727 18.3305 1.40462 18.7504 1.94044 18.7504C7.65 18.7504 15.6835 27.7069 15.765 27.7988C15.9572 28.0144 16.227 28.1251 16.5008 28.1251C16.726 28.1251 16.9492 28.0501 17.1317 27.8982C17.5394 27.5607 17.586 26.9682 17.2365 26.5764Z" fill="#E31E24"/>
<path d="M31.0603 16.8755C24.4615 16.8755 16.1156 26.1807 15.7622 26.5764C15.4147 26.9683 15.4613 27.5607 15.8671 27.8982C16.0515 28.0501 16.2747 28.1251 16.5 28.1251C16.7737 28.1251 17.0455 28.0144 17.2357 27.7988C19.4722 25.2808 26.3175 18.7504 31.0603 18.7504C31.5961 18.7504 32.031 18.3304 32.031 17.8129C32.031 17.2954 31.5961 16.8755 31.0603 16.8755Z" fill="#E31E24"/>
<path d="M6.79341 26.25C5.18786 26.25 3.88135 27.5118 3.88135 29.0624C3.88135 30.613 5.18786 31.8748 6.79341 31.8748C8.39895 31.8748 9.70547 30.613 9.70547 29.0624C9.70547 27.5118 8.39895 26.25 6.79341 26.25ZM6.79341 29.9998C6.25759 29.9998 5.82269 29.5798 5.82269 29.0623C5.82269 28.5448 6.25759 28.1249 6.79341 28.1249C7.32923 28.1249 7.76412 28.5449 7.76412 29.0624C7.76412 29.5799 7.32923 29.9998 6.79341 29.9998Z" fill="#E31E24"/>
<path d="M26.2075 26.25C24.6019 26.25 23.2954 27.5118 23.2954 29.0624C23.2954 30.613 24.6019 31.8748 26.2075 31.8748C27.813 31.8748 29.1195 30.613 29.1195 29.0624C29.1195 27.5118 27.8129 26.25 26.2075 26.25ZM26.2075 29.9998C25.6717 29.9998 25.2368 29.5798 25.2368 29.0623C25.2368 28.5448 25.6717 28.1249 26.2075 28.1249C26.7433 28.1249 27.1782 28.5449 27.1782 29.0624C27.1782 29.5799 26.7433 29.9998 26.2075 29.9998Z" fill="#E31E24"/>
</svg>
