<svg width="41" height="41" viewBox="0 0 41 41" fill="none" xmlns="http://www.w3.org/2000/svg">
<g clip-path="url(#clip0)">
<path d="M36.2167 5.46655H4.78333C2.14282 5.46957 0.00301257 7.60937 0 10.2499V10.9332C0.00146575 11.4193 0.261887 11.8677 0.683333 12.1099V24.5999C0.684799 25.086 0.94522 25.5344 1.36667 25.7766V27.3332C1.36828 28.3202 2.07302 29.166 3.04357 29.3456C2.84053 29.786 2.73472 30.265 2.73333 30.7499C2.73333 32.6369 4.26303 34.1666 6.15 34.1666C8.03697 34.1666 9.56667 32.6369 9.56667 30.7499C9.56624 30.2791 9.46756 29.8137 9.27693 29.3832H11.2231C11.0324 29.8137 10.9338 30.2791 10.9333 30.7499C10.9382 32.3638 12.0716 33.7542 13.6515 34.0842C15.2313 34.4141 16.8265 33.5936 17.4769 32.1166H23.5231C24.1735 33.5936 25.7687 34.4141 27.3485 34.0842C28.9284 33.7542 30.0618 32.3638 30.0667 30.7499C30.0662 30.2791 29.9676 29.8137 29.7769 29.3832H31.7231C31.5324 29.8137 31.4338 30.2791 31.4333 30.7499C31.4333 32.6369 32.963 34.1666 34.85 34.1666C36.737 34.1666 38.2667 32.6369 38.2667 30.7499C38.2653 30.265 38.1595 29.786 37.9564 29.3456C38.927 29.166 39.6317 28.3202 39.6333 27.3332V25.7766C40.0548 25.5344 40.3152 25.086 40.3167 24.5999V12.1099C40.7381 11.8677 40.9985 11.4193 41 10.9332V10.2499C40.997 7.60937 38.8572 5.46957 36.2167 5.46655V5.46655ZM38.95 24.5999H36.9V15.0332C36.9 14.2784 36.2881 13.6666 35.5333 13.6666H31.4333C30.6785 13.6666 30.0667 14.2784 30.0667 15.0332V24.5999H2.05V12.2999H38.95V24.5999ZM35.5333 18.4499H31.4333V15.0332H35.5333V18.4499ZM31.4333 19.8166H35.5333V21.1832H34.85C34.4726 21.1832 34.1667 21.4892 34.1667 21.8666C34.1667 22.2439 34.4726 22.5499 34.85 22.5499H35.5333V24.5999H31.4333V19.8166ZM6.15 32.7999C5.01782 32.7999 4.1 31.8821 4.1 30.7499C4.1 29.6177 5.01782 28.6999 6.15 28.6999C7.28218 28.6999 8.2 29.6177 8.2 30.7499C8.2 31.8821 7.28218 32.7999 6.15 32.7999ZM14.35 32.7999C13.2178 32.7999 12.3 31.8821 12.3 30.7499C12.3 29.6177 13.2178 28.6999 14.35 28.6999C15.4822 28.6999 16.4 29.6177 16.4 30.7499C16.4 31.8821 15.4822 32.7999 14.35 32.7999ZM17.7667 30.7499C17.7662 30.2791 17.6676 29.8137 17.4769 29.3832H23.5231C23.3324 29.8137 23.2338 30.2791 23.2333 30.7499H17.7667ZM26.65 32.7999C25.5178 32.7999 24.6 31.8821 24.6 30.7499C24.6 29.6177 25.5178 28.6999 26.65 28.6999C27.7822 28.6999 28.7 29.6177 28.7 30.7499C28.7 31.8821 27.7822 32.7999 26.65 32.7999ZM34.85 32.7999C33.7178 32.7999 32.8 31.8821 32.8 30.7499C32.8 29.6177 33.7178 28.6999 34.85 28.6999C35.9822 28.6999 36.9 29.6177 36.9 30.7499C36.9 31.8821 35.9822 32.7999 34.85 32.7999ZM38.2667 27.3332C38.2667 27.7106 37.9607 28.0166 37.5833 28.0166H36.8788C35.6797 27.1053 34.0203 27.1053 32.8212 28.0166H28.6788C27.4797 27.1053 25.8203 27.1053 24.6212 28.0166H16.3788C15.1797 27.1053 13.5203 27.1053 12.3212 28.0166H8.17882C6.97975 27.1053 5.32025 27.1053 4.12118 28.0166H3.41667C3.03927 28.0166 2.73333 27.7106 2.73333 27.3332V25.9666H38.2667V27.3332ZM39.6333 10.9332H1.36667V10.2499C1.36893 8.36385 2.8973 6.83548 4.78333 6.83322H6.83333V7.51655C6.83333 7.89395 7.13927 8.19989 7.51667 8.19989C7.89406 8.19989 8.2 7.89395 8.2 7.51655V6.83322H32.8V7.51655C32.8 7.89395 33.1059 8.19989 33.4833 8.19989C33.8607 8.19989 34.1667 7.89395 34.1667 7.51655V6.83322H36.2167C38.1027 6.83548 39.6311 8.36385 39.6333 10.2499V10.9332Z" fill="#E31E24"/>
<path d="M6.15013 31.4333C6.52753 31.4333 6.83347 31.1274 6.83347 30.75C6.83347 30.3726 6.52753 30.0667 6.15013 30.0667C5.77274 30.0667 5.4668 30.3726 5.4668 30.75C5.4668 31.1274 5.77274 31.4333 6.15013 31.4333Z" fill="#E31E24"/>
<path d="M14.3498 31.4333C14.7272 31.4333 15.0332 31.1274 15.0332 30.75C15.0332 30.3726 14.7272 30.0667 14.3498 30.0667C13.9724 30.0667 13.6665 30.3726 13.6665 30.75C13.6665 31.1274 13.9724 31.4333 14.3498 31.4333Z" fill="#E31E24"/>
<path d="M26.6501 31.4333C27.0275 31.4333 27.3335 31.1274 27.3335 30.75C27.3335 30.3726 27.0275 30.0667 26.6501 30.0667C26.2727 30.0667 25.9668 30.3726 25.9668 30.75C25.9668 31.1274 26.2727 31.4333 26.6501 31.4333Z" fill="#E31E24"/>
<path d="M34.8498 31.4333C35.2272 31.4333 35.5332 31.1274 35.5332 30.75C35.5332 30.3726 35.2272 30.0667 34.8498 30.0667C34.4724 30.0667 34.1665 30.3726 34.1665 30.75C34.1665 31.1274 34.4724 31.4333 34.8498 31.4333Z" fill="#E31E24"/>
<path d="M5.46676 21.1832H9.56676C10.3215 21.1832 10.9334 20.5713 10.9334 19.8165V15.7165C10.9334 14.9617 10.3215 14.3499 9.56676 14.3499H5.46676C4.71197 14.3499 4.1001 14.9617 4.1001 15.7165V19.8165C4.1001 20.5713 4.71197 21.1832 5.46676 21.1832ZM5.46676 15.7165H9.56676V19.8165H5.46676V15.7165Z" fill="#E31E24"/>
<path d="M13.6665 21.1832H17.7665C18.5213 21.1832 19.1331 20.5713 19.1331 19.8165V15.7165C19.1331 14.9617 18.5213 14.3499 17.7665 14.3499H13.6665C12.9117 14.3499 12.2998 14.9617 12.2998 15.7165V19.8165C12.2998 20.5713 12.9117 21.1832 13.6665 21.1832ZM13.6665 15.7165H17.7665V19.8165H13.6665V15.7165Z" fill="#E31E24"/>
<path d="M21.8667 21.1832H25.9667C26.7214 21.1832 27.3333 20.5713 27.3333 19.8165V15.7165C27.3333 14.9617 26.7214 14.3499 25.9667 14.3499H21.8667C21.1119 14.3499 20.5 14.9617 20.5 15.7165V19.8165C20.5 20.5713 21.1119 21.1832 21.8667 21.1832ZM21.8667 15.7165H25.9667V19.8165H21.8667V15.7165Z" fill="#E31E24"/>
<path d="M14.35 34.1665H0.683333C0.305939 34.1665 0 34.4724 0 34.8498C0 35.2272 0.305939 35.5332 0.683333 35.5332H40.3167C40.6941 35.5332 41 35.2272 41 34.8498C41 34.4724 40.6941 34.1665 40.3167 34.1665H14.35Z" fill="#E31E24"/>
</g>
<defs>
<clipPath id="clip0">
<rect width="41" height="41" fill="white"/>
</clipPath>
</defs>
</svg>
