<svg width="30" height="30" viewBox="0 0 30 30" fill="none" xmlns="http://www.w3.org/2000/svg">
<path d="M8.57402 4H7.48955C7.11207 4 6.49918 4.14624 5.98075 4.73C5.46195 5.31416 4 6.72608 4 9.59761C4 12.4691 6.02798 15.2437 6.31062 15.6335C6.59364 16.023 10.2253 22.1039 15.9771 24.4432C20.7574 26.3873 21.7304 26.0006 22.7676 25.9032C23.8052 25.8063 26.1159 24.4917 26.5874 23.1291C27.059 21.7664 27.059 20.5981 26.9177 20.3541C26.776 20.1109 26.3985 19.9651 25.8329 19.6734C25.2668 19.3813 22.4933 17.9455 21.9745 17.7504C21.4557 17.5561 21.0786 17.4587 20.7011 18.0433C20.3236 18.6267 19.2123 19.9764 18.8821 20.3658C18.5522 20.7557 18.222 20.8045 17.6559 20.5125C17.0899 20.2196 15.286 19.5924 13.1242 17.6046C11.4416 16.0574 10.274 14.0844 9.94377 13.5002C9.61389 12.9164 9.90863 12.6005 10.1924 12.3092C10.4467 12.048 10.7902 11.6906 11.0732 11.3501C11.3558 11.0091 11.4363 10.7659 11.6253 10.3765C11.8138 9.98705 11.7193 9.64609 11.578 9.3544C11.4363 9.06232 10.3503 6.17633 9.84703 5.02208H9.84741C9.42345 4.05005 8.9772 4.0172 8.57402 4V4Z" fill="#DAB888"/>
</svg>
