<svg width="150" height="17" viewBox="0 0 150 17" fill="none" xmlns="http://www.w3.org/2000/svg">
<g clip-path="url(#clip0_263_209)">
<path fill-rule="evenodd" clip-rule="evenodd" d="M37.0366 2.58304L31.5523 14.5171H32.46L33.9436 11.1987H40.8886L42.3837 14.5133H43.3448L37.8604 2.57919L37.0366 2.58304ZM34.325 10.3941L37.4409 3.54546L40.534 10.3941H34.325ZM59.4966 6.02467C59.5008 5.61243 59.4245 5.20338 59.272 4.82092C59.1195 4.43846 58.8939 4.09008 58.6079 3.79569C57.9024 3.08735 56.7468 2.64078 55.3013 2.64078H50.3738V14.4594H51.2472V9.56255H55.0915L58.833 14.4594H59.9428L56.0641 9.40857C58.0435 9.13909 59.4966 8.00727 59.4966 6.03237V6.02467ZM51.2395 8.76182V3.46462H55.2517C57.3837 3.46462 58.627 4.46169 58.627 6.04777C58.627 7.78784 57.1663 8.78491 55.1945 8.78491L51.2395 8.76182ZM76.4798 2.63693H75.2899L67.8032 10.3941V2.63693H66.9298V14.4594H67.8032V11.4528L70.7247 8.46924L75.5568 14.4478H76.701L71.3616 7.84559L76.4798 2.63693ZM99.0732 3.46462H103.169V14.4748H104.043V3.46462H108.135V2.63693H99.0732V3.46462ZM115.156 14.4748H116.03V2.63693H115.156V14.4748ZM131.983 12.9349L123.875 2.63693H123.051V14.4594H123.89V3.95353L132.166 14.4594H132.822V2.63693H131.983V12.9349ZM145.385 8.31525V9.08519H149.199V12.3844C148.173 13.2217 146.896 13.6843 145.576 13.6971C142.525 13.6971 140.702 11.4836 140.702 8.51159C140.702 5.70515 142.635 3.34528 145.397 3.34528C146.747 3.29819 148.061 3.79384 149.05 4.72347L149.603 4.08442C148.462 3.05975 146.973 2.51799 145.446 2.57149C142.052 2.57149 139.825 5.41257 139.825 8.51159C139.825 11.7761 141.953 14.4517 145.545 14.4517C147.193 14.4389 148.78 13.8265 150.015 12.727V8.30755L145.385 8.31525ZM83.6918 3.48387H92.0824V2.63308H83.6918V3.48387ZM89.5157 8.15356H83.6918V8.99665H89.5157V8.15356ZM83.6918 14.4594H92.0824V13.6163H83.6918V14.4594Z" fill="#909090"/>
<path fill-rule="evenodd" clip-rule="evenodd" d="M19.4507 0L15.5681 6.71389L11.7047 0H7.02124V9.97459C8.47133 11.2684 10.0395 12.4207 11.7047 13.4162V8.46936L15.3584 14.6289H15.7779L19.4507 8.46936V16.4921H24.1112V0H19.4507Z" fill="#909090"/>
<path fill-rule="evenodd" clip-rule="evenodd" d="M4.68345 7.60317V0H0C1.1226 2.78419 2.70635 5.35527 4.68345 7.60317Z" fill="#909090"/>
<path fill-rule="evenodd" clip-rule="evenodd" d="M0 9.57031V16.4998H4.68345V12.831C3.03926 11.8709 1.47319 10.7806 0 9.57031H0Z" fill="#909090"/>
<path fill-rule="evenodd" clip-rule="evenodd" d="M7.02124 14.0823V16.4922H11.7047V15.9725C10.1019 15.4531 8.53696 14.8215 7.02124 14.0823Z" fill="#909090"/>
</g>
<defs>
<clipPath id="clip0_263_209">
<rect width="150" height="16.4921" fill="white"/>
</clipPath>
</defs>
</svg>
