<svg width="27" height="27" viewBox="0 0 27 27" fill="none" xmlns="http://www.w3.org/2000/svg">
<path d="M17.1904 3H8.80969C5.60621 3 3 5.60621 3 8.80969V17.1903C3 20.3938 5.60621 23 8.80969 23H17.1903C18.1146 23 18.9986 22.7891 19.8177 22.3731C20.5981 21.9768 21.291 21.3978 21.8213 20.6987C22.082 20.355 22.0148 19.8649 21.6711 19.6041C21.3274 19.3434 20.8373 19.4105 20.5765 19.7544C19.765 20.824 18.5308 21.4375 17.1904 21.4375H8.80969C6.46777 21.4375 4.5625 19.5322 4.5625 17.1904V8.80969C4.5625 6.46777 6.46777 4.5625 8.80969 4.5625H17.1903C19.5322 4.5625 21.4375 6.46777 21.4375 8.80969V16.3984C21.4375 16.8299 21.7873 17.1797 22.2188 17.1797C22.6502 17.1797 23 16.8299 23 16.3984V8.80969C23 5.60621 20.3938 3 17.1904 3Z" fill="#DAB888"/>
<path d="M13 7.60938C10.0276 7.60938 7.60938 10.0276 7.60938 13C7.60938 15.9724 10.0276 18.3906 13 18.3906C15.9724 18.3906 18.3906 15.9724 18.3906 13C18.3906 10.0276 15.9724 7.60938 13 7.60938ZM13 16.8281C10.8892 16.8281 9.17188 15.1108 9.17188 13C9.17188 10.8892 10.8892 9.17188 13 9.17188C15.1108 9.17188 16.8281 10.8892 16.8281 13C16.8281 15.1108 15.1108 16.8281 13 16.8281Z" fill="#DAB888"/>
<path d="M18.4688 8.3125C18.9002 8.3125 19.25 7.96272 19.25 7.53125C19.25 7.09978 18.9002 6.75 18.4688 6.75C18.0373 6.75 17.6875 7.09978 17.6875 7.53125C17.6875 7.96272 18.0373 8.3125 18.4688 8.3125Z" fill="#DAB888"/>
</svg>
