<svg width="30" height="30" viewBox="0 0 30 30" fill="none" xmlns="http://www.w3.org/2000/svg">
<path d="M15.0002 15.5556C14.0039 15.5556 13.0074 15.1764 12.2491 14.4181C10.7321 12.9016 10.7321 10.4339 12.2491 8.91716C12.9838 8.18242 13.9609 7.77783 15.0002 7.77783C16.0395 7.77783 17.0164 8.18262 17.7513 8.91716C19.2684 10.4339 19.2684 12.9016 17.7513 14.4181C16.9928 15.1764 15.9965 15.5556 15.0002 15.5556ZM15.0002 9.31754C14.398 9.31754 13.7958 9.54665 13.3373 10.0051C12.4202 10.9219 12.4202 12.4136 13.3373 13.3304C13.7814 13.7744 14.372 14.0189 15.0002 14.0189C15.6285 14.0189 16.2191 13.7744 16.6632 13.3304C17.5802 12.4136 17.5802 10.9219 16.6632 10.0051C16.2046 9.54665 15.6024 9.31754 15.0002 9.31754Z" fill="#DAB888"/>
<path d="M15.0094 27.7777L14.3931 27.0969C14.0324 26.6982 5.55566 17.2614 5.55566 11.1052C5.55566 6.20703 9.7924 2.22217 15.0001 2.22217C20.2078 2.22217 24.4446 6.20703 24.4446 11.1052C24.4446 16.9586 15.9752 26.6773 15.6147 27.0881L15.0094 27.7777ZM15.0001 3.72132C10.6713 3.72132 7.14957 7.03372 7.14957 11.1052C7.14957 13.3934 8.60023 16.7048 11.3448 20.6817C12.7692 22.7455 14.2035 24.4932 14.9914 25.4182C15.7806 24.4679 17.2285 22.6626 18.6618 20.5596C21.4023 16.5391 22.8506 13.2696 22.8506 11.1052C22.8506 7.03372 19.3289 3.72132 15.0001 3.72132Z" fill="#DAB888"/>
</svg>
