<svg width="226" height="226" viewBox="0 0 226 226" fill="none" xmlns="http://www.w3.org/2000/svg">
<path d="M210.194 119.237L218.976 124.065L218.672 126.676L207.765 120.118L200.918 119.322L201.186 117.015L208.033 117.81L220.153 113.926L219.849 116.549L210.194 119.237Z" fill="#F8F8F8"/>
<path d="M212.423 151.079L200.121 146.463C198.487 145.831 197.381 144.874 196.805 143.591C196.229 142.308 196.254 140.831 196.882 139.159C197.524 137.447 198.466 136.309 199.709 135.745C200.959 135.184 202.427 135.21 204.113 135.825L216.415 140.441L215.603 142.604L203.384 138.019C202.219 137.582 201.256 137.501 200.493 137.775C199.735 138.06 199.149 138.753 198.736 139.855C198.32 140.964 198.305 141.871 198.691 142.577C199.082 143.293 199.86 143.87 201.025 144.307L213.244 148.892L212.423 151.079Z" fill="#F8F8F8"/>
<path d="M190.372 169.002C188.316 167.541 187.044 165.977 186.556 164.312C186.068 162.646 186.398 161.006 187.545 159.392C188.649 157.84 190.059 156.994 191.778 156.856C193.498 156.729 195.357 157.349 197.355 158.717L200.19 160.732C202.204 162.164 203.464 163.729 203.97 165.428C204.483 167.132 204.173 168.781 203.04 170.374C201.912 171.961 200.486 172.806 198.762 172.909C197.039 173.025 195.157 172.372 193.114 170.951L190.372 169.002ZM194.356 168.984C195.95 170.116 197.319 170.695 198.464 170.72C199.612 170.757 200.568 170.237 201.333 169.161C202.073 168.119 202.241 167.05 201.837 165.953C201.429 164.863 200.461 163.77 198.934 162.674L196.234 160.755C194.695 159.661 193.334 159.093 192.149 159.051C190.959 159.015 189.987 159.529 189.232 160.591C188.477 161.653 188.29 162.704 188.673 163.744C189.055 164.785 190.008 165.862 191.531 166.976L194.356 168.984Z" fill="#F8F8F8"/>
<path d="M177.442 183.359L179.924 181.261L175.096 175.551L176.88 174.043L188.814 188.159L184.858 191.503C183.475 192.672 182.122 193.195 180.799 193.073C179.481 192.956 178.235 192.203 177.06 190.813C176.323 189.941 175.872 189.014 175.708 188.034C175.543 187.065 175.673 186.118 176.099 185.193L168.292 181.503L168.193 181.386L170.103 179.772L177.442 183.359ZM181.211 182.783L179.058 184.603C178.315 185.231 177.926 185.97 177.891 186.82C177.849 187.676 178.167 188.504 178.844 189.305C180.374 191.115 181.96 191.326 183.602 189.938L185.735 188.135L181.211 182.783Z" fill="#F8F8F8"/>
<path d="M143.873 203.311L142.06 196.306L144.309 195.724L148.94 213.618L143.237 215.094C141.574 215.525 140.138 215.363 138.929 214.61C137.722 213.864 136.904 212.664 136.475 211.009C136.03 209.288 136.141 207.843 136.809 206.674C137.471 205.515 138.621 204.705 140.259 204.246L143.873 203.311ZM144.372 205.241L140.918 206.135C139.919 206.393 139.23 206.891 138.852 207.627C138.475 208.363 138.43 209.288 138.718 210.402C138.996 211.475 139.493 212.265 140.21 212.77C140.926 213.275 141.764 213.404 142.722 213.156L146.188 212.259L144.372 205.241Z" fill="#F8F8F8"/>
<path d="M114.142 209.521L120.679 209.395L120.553 202.846L112.937 202.993L112.898 201L122.837 200.808L123.194 219.289L113.382 219.478L113.343 217.473L120.832 217.328L120.718 211.388L114.181 211.514L114.142 209.521Z" fill="#F8F8F8"/>
<path d="M96.3162 207.16L99.4964 207.83L101.037 200.513L103.323 200.994L99.5139 219.082L94.4454 218.014C92.6731 217.641 91.4291 216.895 90.7134 215.775C89.996 214.664 89.8248 213.218 90.1998 211.438C90.4353 210.32 90.8896 209.395 91.5626 208.663C92.2257 207.938 93.0531 207.459 94.0447 207.227L92.161 198.799L92.1924 198.65L94.6397 199.166L96.3162 207.16ZM99.0857 209.78L96.3278 209.2C95.3754 208.999 94.5531 209.146 93.8608 209.64C93.1603 210.133 92.7019 210.892 92.4856 211.919C91.9973 214.238 92.8049 215.619 94.9085 216.062L97.6415 216.638L99.0857 209.78Z" fill="#F8F8F8"/>
<path d="M73.5052 197.086C73.1113 197.921 73.0353 198.666 73.2773 199.323C73.5193 199.98 74.1302 200.798 75.11 201.775C76.0899 202.752 76.7852 203.619 77.196 204.374C77.5955 205.134 77.813 205.883 77.8485 206.62C77.8728 207.362 77.7043 208.115 77.3429 208.88C76.7177 210.204 75.7627 211.087 74.4779 211.529C73.1854 211.967 71.8235 211.848 70.3924 211.172C69.4127 210.71 68.645 210.076 68.0893 209.27C67.5299 208.473 67.2279 207.586 67.1832 206.61C67.1385 205.635 67.3366 204.68 67.7775 203.746L69.8898 204.743C69.402 205.777 69.2731 206.694 69.5031 207.495C69.7332 208.296 70.3151 208.917 71.2488 209.358C72.0983 209.759 72.8685 209.833 73.5594 209.579C74.2503 209.325 74.7981 208.769 75.2028 207.912C75.5353 207.208 75.561 206.499 75.2799 205.786C74.9988 205.073 74.4187 204.28 73.5396 203.406C72.1507 202.086 71.2921 200.862 70.9638 199.733C70.6279 198.601 70.7635 197.392 71.3705 196.107C72.0101 194.752 72.9633 193.873 74.2301 193.47C75.4933 193.074 76.8826 193.234 78.3979 193.949C79.3699 194.408 80.1698 195.043 80.7976 195.854C81.4142 196.67 81.779 197.572 81.8921 198.561C81.994 199.555 81.8101 200.549 81.3403 201.544L79.228 200.547C79.7158 199.513 79.8083 198.574 79.5053 197.729C79.1946 196.881 78.5419 196.221 77.5469 195.752C76.6209 195.314 75.8124 195.223 75.1215 195.477C74.4306 195.731 73.8918 196.267 73.5052 197.086Z" fill="#F8F8F8"/>
<path d="M50.6044 185.943C52.2115 183.999 53.8634 182.845 55.5601 182.48C57.2568 182.114 58.8683 182.563 60.3946 183.825C61.8622 185.038 62.6026 186.507 62.6158 188.231C62.617 189.956 61.8628 191.765 60.353 193.658L58.1364 196.338C56.5616 198.243 54.9086 199.386 53.1773 199.766C51.4406 200.153 49.8189 199.724 48.3121 198.478C46.8119 197.238 46.0731 195.754 46.0957 194.026C46.1063 192.3 46.8947 190.47 48.4606 188.536L50.6044 185.943ZM50.332 189.919C49.0862 191.425 48.4092 192.749 48.3009 193.889C48.1807 195.031 48.6294 196.022 49.6469 196.864C50.6319 197.678 51.6861 197.924 52.8097 197.601C53.9268 197.272 55.0872 196.387 56.291 194.944L58.4024 192.391C59.605 190.936 60.2707 189.62 60.3994 188.441C60.5216 187.257 60.0805 186.25 59.076 185.42C58.0715 184.589 57.0367 184.327 55.9715 184.632C54.9064 184.937 53.7627 185.809 52.5405 187.248L50.332 189.919Z" fill="#F8F8F8"/>
<path d="M39.6343 162.581L40.9737 164.495L33.5473 178.726L45.2175 170.559L46.5568 172.472L31.4127 183.071L30.0733 181.157L37.5372 166.869L25.815 175.072L24.4902 173.179L39.6343 162.581Z" fill="#F8F8F8"/>
<path d="M25.2238 145.38L27.3078 151.268L32.3343 151.011L33.1306 153.261L13.7189 153.815L13.0538 151.936L28.4881 140.144L29.2844 142.394L25.2238 145.38ZM25.2136 151.363L23.532 146.612L16.4522 151.797L25.2136 151.363Z" fill="#F8F8F8"/>
<path d="M23.2544 127.974L22.4734 120.767L24.455 120.552L25.4876 130.081L7.11078 132.073L6.85913 129.75L23.2544 127.974Z" fill="#F8F8F8"/>
<path d="M25.5848 93.6232L8.04672 87.7848L9.71082 82.786C10.2428 81.188 11.0319 80.1171 12.0782 79.5734C13.1271 79.0216 14.4305 79.0051 15.9884 79.5237C16.8075 79.7963 17.462 80.2417 17.9521 80.8598C18.4421 81.4778 18.7435 82.1936 18.8562 83.0072C19.3644 82.2844 20.0695 81.8144 20.9713 81.5973C21.8759 81.3721 22.8541 81.4346 23.9061 81.7848C25.48 82.3088 26.5723 83.1541 27.183 84.3208C27.7964 85.4794 27.837 86.8577 27.3051 88.4558L25.5848 93.6232ZM18.1157 88.6882L24.4275 90.7894L25.43 87.778C25.708 86.9429 25.6555 86.1895 25.2725 85.5179C24.8815 84.8436 24.1881 84.3407 23.1924 84.0092C21.0804 83.3061 19.7277 83.8459 19.1342 85.6287L18.1157 88.6882ZM16.2607 88.0707L17.203 85.24C17.457 84.4771 17.4045 83.7773 17.0456 83.1404C16.6894 82.4955 16.0857 82.0314 15.2345 81.7481C14.2709 81.4273 13.5014 81.4075 12.9261 81.6888C12.3427 81.9673 11.9054 82.5443 11.614 83.4196L10.6837 86.2141L16.2607 88.0707Z" fill="#F8F8F8"/>
<path d="M30.0932 61.3845L26.6649 66.9516L32.2428 70.3866L36.237 63.9007L37.9342 64.9458L32.7217 73.41L16.9824 63.7174L22.1283 55.3613L23.8363 56.4131L19.9087 62.791L24.9677 65.9065L28.3961 60.3393L30.0932 61.3845Z" fill="#F8F8F8"/>
<path d="M45.1361 47.979L40.7195 52.3957L43.1163 56.8213L41.4287 58.509L32.5684 41.2284L33.9778 39.819L51.2674 48.6703L49.5797 50.3579L45.1361 47.979ZM39.732 50.5464L43.2959 46.9826L35.5667 42.8263L39.732 50.5464Z" fill="#F8F8F8"/>
<path d="M58.932 19.9212L65.6151 31.2343C66.4916 32.7514 66.7517 34.1901 66.3955 35.5507C66.0393 36.9112 65.0924 38.0456 63.5549 38.954C61.9809 39.8838 60.5331 40.1787 59.2117 39.8387C57.8859 39.4915 56.7594 38.5497 55.8323 37.0135L49.1491 25.7004L51.1385 24.5252L57.7764 35.7618C58.4092 36.8329 59.1086 37.5011 59.8747 37.7661C60.6437 38.0196 61.5347 37.8471 62.5476 37.2488C63.5677 36.6461 64.1488 35.949 64.2906 35.1575C64.4354 34.3543 64.1915 33.4171 63.5587 32.3459L56.9207 21.1093L58.932 19.9212Z" fill="#F8F8F8"/>
<path d="M83.5452 11.5743L78.8928 12.9876L83.6828 28.7546L81.4598 29.4299L76.6699 13.6629L72.0297 15.0726L71.4467 13.1533L82.9621 9.65501L83.5452 11.5743Z" fill="#F8F8F8"/>
<path d="M101.622 15.2733L104.826 5.77734L107.449 5.61522L102.918 17.5082L103.343 24.3886L101.024 24.532L100.599 17.6515L94.6381 6.40704L97.2737 6.24413L101.622 15.2733Z" fill="#F8F8F8"/>
<path d="M139.526 25.7567L147.668 29.0224L146.926 30.8723L136.392 26.6472L137.073 24.9505L150.339 14.4865L142.609 11.3862L143.356 9.52448L153.489 13.5889L152.823 15.2503L139.526 25.7567Z" fill="#F8F8F8"/>
<path d="M169.878 35.2824C168.394 37.322 166.817 38.5767 165.146 39.0463C163.475 39.5159 161.839 39.1682 160.237 38.0032C158.697 36.883 157.867 35.463 157.748 33.7431C157.639 32.0213 158.28 30.1692 159.67 28.1868L161.716 25.3738C163.17 23.3753 164.749 22.1325 166.453 21.6455C168.163 21.1516 169.808 21.4796 171.389 22.6297C172.963 23.7748 173.793 25.2101 173.877 26.9356C173.973 28.6593 173.3 30.5347 171.857 32.5618L169.878 35.2824ZM169.903 31.2978C171.053 29.7168 171.647 28.3538 171.684 27.2089C171.734 26.0621 171.224 25.1003 170.157 24.3237C169.123 23.5719 168.056 23.392 166.954 23.7839C165.86 24.1808 164.756 25.1364 163.644 26.6509L161.695 29.3304C160.585 30.8567 160.002 32.2119 159.947 33.3961C159.898 34.5852 160.401 35.5631 161.455 36.3298C162.509 37.0965 163.558 37.2945 164.602 36.9237C165.646 36.553 166.734 35.6119 167.864 34.1006L169.903 31.2978Z" fill="#F8F8F8"/>
<path d="M182.112 57.6951L180.656 55.868L187.186 41.2038L176.045 50.0789L174.589 48.2518L189.047 36.7347L190.503 38.5618L183.939 53.2855L195.13 44.3708L196.57 46.178L182.112 57.6951Z" fill="#F8F8F8"/>
<path d="M201.302 73.0482L198.621 67.0851L192.647 69.7713L195.77 76.7186L193.952 77.5359L189.876 68.4697L206.735 60.8899L210.759 69.8404L208.93 70.6629L205.858 63.8314L200.439 66.2677L203.12 72.2309L201.302 73.0482Z" fill="#F8F8F8"/>
</svg>
