<svg width="27" height="27" viewBox="0 0 27 27" fill="none" xmlns="http://www.w3.org/2000/svg">
<path d="M21.0282 5.90436C19.1494 4.03256 16.65 3.00107 13.99 3C11.3359 3 8.8325 4.03058 6.94133 5.90192C5.0468 7.77646 4.00249 10.2676 4.00005 12.9074V12.9104V12.9123C4.00035 14.51 4.42012 16.1218 5.21693 17.593L4.02736 23L9.49657 21.756C10.8818 22.454 12.4273 22.8221 13.9862 22.8227H13.9901C16.6438 22.8227 19.1471 21.792 21.0386 19.9205C22.9348 18.0444 23.9796 15.5565 23.9808 12.915C23.9816 10.2922 22.9332 7.8024 21.0282 5.90436ZM13.99 21.2617H13.9865C12.5868 21.2611 11.1999 20.9097 9.976 20.2452L9.71736 20.1048L6.08058 20.932L6.87053 17.3419L6.71825 17.0793C5.96111 15.7736 5.56102 14.3322 5.56102 12.9106C5.56392 8.30899 9.34474 4.56097 13.9897 4.56097C16.2336 4.56189 18.3421 5.43179 19.9266 7.01016C21.535 8.61295 22.4205 10.7098 22.4197 12.9146C22.4179 17.5172 18.6363 21.2617 13.99 21.2617Z" fill="#DAB888"/>
<path d="M11.272 8.5415H10.834C10.6816 8.5415 10.4341 8.59857 10.2248 8.82639C10.0153 9.05435 9.4249 9.60535 9.4249 10.726C9.4249 11.8466 10.2438 12.9293 10.358 13.0815C10.4723 13.2334 11.9388 15.6065 14.2615 16.5194C16.1919 17.2781 16.5848 17.1272 17.0036 17.0892C17.4226 17.0513 18.3557 16.5383 18.5461 16.0066C18.7366 15.4748 18.7366 15.0189 18.6795 14.9236C18.6223 14.8287 18.4698 14.7718 18.2414 14.658C18.0128 14.544 16.8929 13.9837 16.6834 13.9076C16.4738 13.8317 16.3216 13.7937 16.1691 14.0219C16.0167 14.2495 15.5679 14.7762 15.4346 14.9282C15.3014 15.0804 15.168 15.0994 14.9394 14.9854C14.7108 14.8712 13.9824 14.6264 13.1094 13.8506C12.43 13.2469 11.9585 12.4769 11.8251 12.2489C11.6919 12.0211 11.8109 11.8978 11.9255 11.7841C12.0282 11.6822 12.1669 11.5428 12.2812 11.4099C12.3953 11.2768 12.4278 11.1819 12.5041 11.0299C12.5803 10.8779 12.5421 10.7449 12.485 10.631C12.4278 10.5171 11.9893 9.39081 11.786 8.94037H11.7862C11.615 8.56104 11.4348 8.54822 11.272 8.5415Z" fill="#DAB888"/>
</svg>
