<svg width="45" height="45" viewBox="0 0 45 45" fill="none" xmlns="http://www.w3.org/2000/svg">
<g clip-path="url(#clip0_105_64)">
<path d="M10.6803 13.1476H21.8565C22.7088 13.1476 22.7088 11.8292 21.8565 11.8292H10.6803C9.82792 11.8292 9.82792 13.1476 10.6803 13.1476Z" fill="#8E6F63"/>
<path d="M10.6803 18.2632H10.6808L19.8356 18.2563C20.6681 18.2557 20.6487 16.938 19.8345 16.938L10.6797 16.9448C9.82772 16.9455 9.82833 18.2632 10.6803 18.2632Z" fill="#8E6F63"/>
<path d="M10.6803 23.3789H10.6809L18.3415 23.3721C19.1741 23.3713 19.1545 22.0537 18.3403 22.0537L10.6797 22.0606C9.82767 22.0614 9.82838 23.3789 10.6803 23.3789Z" fill="#8E6F63"/>
<path d="M10.6803 28.4945H10.6808L18.4864 28.4877C19.3189 28.4869 19.2995 27.1694 18.4853 27.1694L10.6797 27.1761C9.82773 27.1769 9.82834 28.4945 10.6803 28.4945Z" fill="#8E6F63"/>
<path d="M21.6783 32.285C21.6782 32.285 21.678 32.285 21.6779 32.285L10.6806 32.2918C9.84809 32.2924 9.86725 33.6102 10.6814 33.6102L21.6787 33.6034C22.5307 33.6028 22.5303 32.285 21.6783 32.285Z" fill="#8E6F63"/>
<path d="M21.5335 37.4007C21.5334 37.4007 21.5332 37.4007 21.533 37.4007L10.6806 37.4075C9.84808 37.4081 9.86724 38.7258 10.6815 38.7258L21.5339 38.7191C22.3859 38.7184 22.3855 37.4007 21.5335 37.4007Z" fill="#8E6F63"/>
<path d="M44.9993 23.4467C44.9998 23.3609 44.9897 23.2757 44.9603 23.1947L41.6496 14.0919C41.5385 13.8192 41.319 13.6567 40.991 13.6043H37.808C37.5118 11.5646 35.8843 9.9515 33.8379 9.67632V6.37022C33.8379 5.52603 33.1512 4.83908 32.307 4.83908H31.3562V4.01616C31.3562 3.17197 30.6695 2.48502 29.8254 2.48502H28.8721V1.53114C28.8721 0.686865 28.1853 0 27.3412 0H1.53079C0.686689 0 0 0.686865 0 1.53114V38.6299C0 39.4741 0.686689 40.161 1.53079 40.161H2.48414V41.1148C2.48414 41.959 3.17083 42.6459 4.01695 42.6459L4.96573 42.6431V43.4689C4.96573 44.3131 5.65242 45.0001 6.49652 45.0001H27.0875C27.2646 45.0001 27.4319 44.9258 27.5582 44.8024L33.6436 38.7459C33.7679 38.6222 33.8377 38.4541 33.8377 38.2787V33.6969H35.0887C35.9409 33.6969 35.9409 32.3786 35.0887 32.3786H26.9328C27.2166 31.4365 28.0922 30.7482 29.1255 30.7482H37.3073C38.3406 30.7482 39.2163 31.4365 39.5001 32.3786H38.5705C37.7182 32.3786 37.7182 33.6969 38.5705 33.6969H40.2559C40.62 33.6969 40.9151 33.4019 40.9151 33.0377C40.9151 31.0483 39.2966 29.4298 37.3073 29.4298H35.1333V14.9331L40.1085 14.9228L37.1 23.1948C37.0701 23.2772 37.0564 23.3681 37.0612 23.4557C37.0805 25.6283 38.8531 27.3899 41.0302 27.3899C43.2072 27.3899 44.9798 25.6282 44.9991 23.4557C44.9992 23.4526 44.9992 23.4497 44.9993 23.4467ZM43.3996 22.7608H38.6606L41.0302 16.2458L43.3996 22.7608ZM36.4706 13.6042H29.9626C30.2732 12.0923 31.6142 10.9518 33.2166 10.9518C34.819 10.9518 36.1599 12.0923 36.4706 13.6042ZM4.01502 41.3275C3.89786 41.3275 3.8025 41.232 3.8025 41.1147V14.1524C3.8025 13.3001 2.48414 13.3001 2.48414 14.1524V38.8426H1.53079C1.41363 38.8426 1.31836 38.7471 1.31836 38.6298V1.53114C1.31836 1.41381 1.41363 1.31836 1.53079 1.31836H27.3412C27.4584 1.31836 27.5536 1.41381 27.5536 1.53114V2.48502H4.01502C3.17092 2.48502 2.48414 3.17188 2.48414 4.01616V10.8568C2.48414 11.7091 3.8025 11.7091 3.8025 10.8568V4.01607C3.8025 3.89874 3.89777 3.80329 4.01502 3.80329H29.8253C29.9425 3.80329 30.0378 3.89874 30.0378 4.01607V4.83899H6.49661C5.65251 4.83899 4.96582 5.52586 4.96582 6.37014V41.3246L4.01502 41.3275ZM27.7468 42.7443V39.094C27.7468 38.9767 27.8421 38.8812 27.9593 38.8812H31.5924L27.7468 42.7443ZM32.6181 29.4232V14.9429H33.815V29.4232H32.6181ZM31.2997 29.4297H29.1257C27.1364 29.4297 25.5179 31.0482 25.5179 33.0376C25.5179 33.4018 25.813 33.6968 26.1771 33.6968H32.5195V37.5629H27.9593C27.1152 37.5629 26.4284 38.2497 26.4284 39.094V43.6816H6.49661C6.37945 43.6816 6.28418 43.5862 6.28418 43.4689V6.37022C6.28418 6.25289 6.37945 6.15744 6.49661 6.15744H32.307C32.4242 6.15744 32.5195 6.25289 32.5195 6.37022V9.68599C30.5087 9.99018 28.9176 11.5897 28.6251 13.6043H25.442C25.114 13.6567 24.8945 13.8192 24.7834 14.0919L21.4727 23.1947C21.4429 23.2771 21.4291 23.368 21.434 23.4556C21.4533 25.6282 23.2259 27.3898 25.4029 27.3898C27.58 27.3898 29.3526 25.6281 29.3719 23.4556C29.3767 23.3681 29.363 23.2771 29.3331 23.1947L26.3246 14.9227L31.2998 14.9331V29.4297H31.2997ZM23.0334 22.7608L25.4029 16.2458L27.7725 22.7608H23.0334ZM27.9715 24.0791C27.6777 25.2234 26.6375 26.0714 25.4029 26.0714C24.1683 26.0714 23.1282 25.2234 22.8343 24.0791H27.9715ZM41.0302 26.0714C39.7956 26.0714 38.7554 25.2234 38.4616 24.0791H43.5987C43.3049 25.2233 42.2648 26.0714 41.0302 26.0714Z" fill="#8E6F63"/>
</g>
<defs>
<clipPath id="clip0_105_64">
<rect width="45" height="45" fill="white"/>
</clipPath>
</defs>
</svg>
