<svg width="45" height="45" viewBox="0 0 45 45" fill="none" xmlns="http://www.w3.org/2000/svg">
<g clip-path="url(#clip0_105_74)">
<path d="M34.7772 24.2467C30.4716 24.2467 26.9688 27.7495 26.9688 32.0552C26.9688 36.3607 30.4715 39.8635 34.7772 39.8635C39.0827 39.8635 42.5856 36.3608 42.5856 32.0552C42.5856 27.7496 39.0828 24.2467 34.7772 24.2467ZM34.7772 38.5452C31.1986 38.5452 28.2871 35.6338 28.2871 32.0552C28.2871 28.4765 31.1986 25.5651 34.7772 25.5651C38.3559 25.5651 41.2672 28.4765 41.2672 32.0552C41.2672 35.6338 38.3559 38.5452 34.7772 38.5452Z" fill="#8E6F63"/>
<path d="M23.9856 13.4805H8.00098C7.63685 13.4805 7.3418 13.7755 7.3418 14.1396C7.3418 14.5038 7.63685 14.7988 8.00098 14.7988H23.9856C24.3498 14.7988 24.6448 14.5038 24.6448 14.1396C24.6448 13.7755 24.3498 13.4805 23.9856 13.4805Z" fill="#8E6F63"/>
<path d="M34.7773 26.2642C34.4132 26.2642 34.1182 26.5592 34.1182 26.9233V27.4458C34.1182 27.81 34.4132 28.105 34.7773 28.105C35.1415 28.105 35.4365 27.81 35.4365 27.4458V26.9233C35.4365 26.5593 35.1415 26.2642 34.7773 26.2642Z" fill="#8E6F63"/>
<path d="M38.7275 32.0552C38.7275 32.4193 39.0226 32.7144 39.3867 32.7144H39.9091C40.2733 32.7144 40.5683 32.4193 40.5683 32.0552C40.5683 31.691 40.2733 31.396 39.9091 31.396H39.3867C39.0226 31.396 38.7275 31.691 38.7275 32.0552Z" fill="#8E6F63"/>
<path d="M34.7773 36.0052C34.4132 36.0052 34.1182 36.3003 34.1182 36.6644V37.1868C34.1182 37.551 34.4132 37.846 34.7773 37.846C35.1415 37.846 35.4365 37.551 35.4365 37.1868V36.6644C35.4365 36.3004 35.1415 36.0052 34.7773 36.0052Z" fill="#8E6F63"/>
<path d="M30.168 31.396H29.6455C29.2814 31.396 28.9863 31.691 28.9863 32.0552C28.9863 32.4193 29.2814 32.7144 29.6455 32.7144H30.168C30.5321 32.7144 30.8272 32.4193 30.8272 32.0552C30.8272 31.691 30.5321 31.396 30.168 31.396Z" fill="#8E6F63"/>
<path d="M34.7774 28.7896C34.4133 28.7896 34.1182 29.0847 34.1182 29.4488V31.0569L33.5091 30.7968C33.174 30.6539 32.787 30.8094 32.644 31.1441C32.501 31.479 32.6565 31.8662 32.9913 32.0092L34.5185 32.6614C34.7234 32.7488 34.9569 32.7265 35.1406 32.6052C35.3254 32.4831 35.4365 32.2766 35.4365 32.0551V29.4488C35.4366 29.0847 35.1415 28.7896 34.7774 28.7896Z" fill="#8E6F63"/>
<path d="M6.20703 28.7896C5.8429 28.7896 5.54785 29.0847 5.54785 29.4488C5.54785 29.8129 5.8429 30.108 6.20703 30.108H9.6766C10.0407 30.108 10.3358 29.8129 10.3358 29.4488C10.3358 29.0847 10.0407 28.7896 9.6766 28.7896H6.20703Z" fill="#8E6F63"/>
<path d="M43.5594 26.8211C43.3727 26.5084 42.9681 26.4067 42.6554 26.5931C42.3429 26.7797 42.2409 27.1845 42.4274 27.497C43.2479 28.8707 43.6816 30.4469 43.6816 32.0551C43.6816 36.9648 39.6874 40.9591 34.7776 40.9591C29.8679 40.9591 25.8735 36.9649 25.8735 32.0551C25.8735 27.1454 29.8679 23.151 34.7776 23.151C37.0875 23.151 39.2771 24.0319 40.9431 25.6315C41.2057 25.8837 41.623 25.8753 41.875 25.6126C42.1271 25.3499 42.1187 24.9327 41.8561 24.6806C39.9433 22.8441 37.4295 21.8327 34.7775 21.8327C33.2828 21.8327 31.8618 22.1552 30.5808 22.7343V21.1049C31.443 20.6417 31.9867 19.7445 31.9867 18.7499V12.4983C31.9867 11.0233 30.7867 9.82327 29.3115 9.82327H24.8467V7.37552C24.8467 4.80981 22.7593 2.72241 20.1935 2.72241H11.7933C9.22755 2.72241 7.14015 4.80981 7.14015 7.37552V9.82327H2.6521C2.64445 9.82327 2.63689 9.82345 2.62934 9.82362C1.17536 9.84823 0 11.0386 0 12.4983V18.7499C0 19.7444 0.543603 20.6416 1.40581 21.1049V29.7239C1.40581 31.9205 3.19289 33.7075 5.38945 33.7075H10.2763C10.6404 33.7075 10.9354 33.4125 10.9354 33.0484C10.9354 32.6842 10.6404 32.3892 10.2763 32.3892H5.38945C3.91975 32.3892 2.72417 31.1935 2.72417 29.7239V21.6648L4.7664 22.5089C5.09203 22.6434 5.43586 22.7117 5.78821 22.7117H13.5267V23.5196C13.5267 24.4526 14.2857 25.2116 15.2187 25.2116H16.768C17.701 25.2116 18.46 24.4526 18.46 23.5196V22.7117H26.1985C26.5509 22.7117 26.8947 22.6435 27.2203 22.5089L29.2626 21.6648V23.4514C26.4331 25.2715 24.5551 28.4481 24.5551 32.0552C24.5551 32.1669 24.557 32.2783 24.5605 32.3892H12.8251C12.461 32.3892 12.1659 32.6842 12.1659 33.0484C12.1659 33.4125 12.461 33.7075 12.8251 33.7075H24.6887C25.4809 38.5613 29.7034 42.2776 34.7777 42.2776C40.4143 42.2776 45.0001 37.6918 45.0001 32.0552C45 30.2091 44.5018 28.3991 43.5594 26.8211ZM8.45842 7.3756C8.45842 5.53676 9.9544 4.04086 11.7933 4.04086H20.1934C22.0322 4.04086 23.5282 5.53685 23.5282 7.3756V9.82336H22.208V7.3756C22.208 6.26467 21.3043 5.36098 20.1934 5.36098H16.2365C15.8723 5.36098 15.5773 5.65603 15.5773 6.02016C15.5773 6.38429 15.8723 6.67934 16.2365 6.67934H20.1934C20.5773 6.67934 20.8897 6.9917 20.8897 7.3756V9.82336H11.0971V7.3756C11.0971 6.9917 11.4094 6.67934 11.7933 6.67934H13.6878C14.052 6.67934 14.347 6.38429 14.347 6.02016C14.347 5.65603 14.052 5.36098 13.6878 5.36098H11.7933C10.6824 5.36098 9.77871 6.26467 9.77871 7.3756V9.82336H8.45842V7.3756ZM17.1417 23.5196C17.1417 23.7256 16.9741 23.8932 16.768 23.8932H15.2187C15.0127 23.8932 14.8451 23.7256 14.8451 23.5196V20.0733C14.8451 19.8673 15.0127 19.6997 15.2187 19.6997H16.768C16.9741 19.6997 17.1417 19.8673 17.1417 20.0733V23.5196ZM26.7167 21.2904C26.5516 21.3586 26.3773 21.3933 26.1985 21.3933H18.46V20.0733C18.46 19.1404 17.701 18.3814 16.768 18.3814H15.2187C14.2857 18.3814 13.5267 19.1404 13.5267 20.0733V21.3934H5.78821C5.60953 21.3934 5.43516 21.3587 5.27001 21.2904L2.15692 20.0037C1.64751 19.7931 1.31836 19.301 1.31836 18.7499V12.4983C1.31836 11.7503 1.927 11.1416 2.67513 11.1416H29.3117C30.0598 11.1416 30.6685 11.7503 30.6685 12.4983V18.7499C30.6685 19.301 30.3393 19.7931 29.8299 20.0037L26.7167 21.2904Z" fill="#8E6F63"/>
</g>
<defs>
<clipPath id="clip0_105_74">
<rect width="45" height="45" fill="white"/>
</clipPath>
</defs>
</svg>
