<svg width="45" height="45" viewBox="0 0 45 45" fill="none" xmlns="http://www.w3.org/2000/svg">
<path d="M23.2031 14.0625C23.2031 9.0225 19.1025 4.92188 14.0625 4.92188C9.0225 4.92188 4.92188 9.0225 4.92188 14.0625C4.92188 19.1025 9.0225 23.2031 14.0625 23.2031C19.1025 23.2031 23.2031 19.1025 23.2031 14.0625ZM14.0625 14.7656C14.7129 14.7656 15.3373 14.8809 15.9209 15.0855C15.5623 15.762 14.8549 16.2162 14.0625 16.2162C13.2701 16.2162 12.5627 15.762 12.2041 15.0855C12.7877 14.8809 13.4121 14.7656 14.0625 14.7656ZM11.9531 11.25C11.9531 10.087 12.8995 9.14062 14.0625 9.14062C15.2255 9.14062 16.1719 10.087 16.1719 11.25C16.1719 12.413 15.2255 13.3594 14.0625 13.3594C12.8995 13.3594 11.9531 12.413 11.9531 11.25ZM14.7656 21.761V17.543C15.8048 17.3271 16.6894 16.6458 17.1745 15.7092C18.4331 16.5459 19.3359 17.8777 19.6003 19.4505C18.348 20.7373 16.6549 21.5902 14.7656 21.761ZM14.0625 6.32812C18.327 6.32812 21.7969 9.79805 21.7969 14.0625C21.7969 15.5187 21.3848 16.8771 20.6824 18.0415C19.9821 16.058 18.4303 14.5041 16.4791 13.7911C17.1527 13.1498 17.5781 12.2505 17.5781 11.25C17.5781 9.31148 16.001 7.73438 14.0625 7.73438C12.124 7.73438 10.5469 9.31148 10.5469 11.25C10.5469 12.2505 10.9723 13.1498 11.6459 13.7904C9.69469 14.5041 8.14359 16.0573 7.44258 18.0408C6.74016 16.8771 6.32812 15.5187 6.32812 14.0625C6.32812 9.79805 9.79805 6.32812 14.0625 6.32812ZM8.52469 19.4505C8.78906 17.8784 9.69188 16.5466 10.9505 15.7092C11.4356 16.6458 12.3202 17.3271 13.3594 17.543V21.761C11.4701 21.5902 9.77695 20.7373 8.52469 19.4505Z" fill="#8E6F63"/>
<path d="M44.2969 16.1719V9.14062H31.6406V11.9531H30.9375C29.7745 11.9531 28.8281 12.8995 28.8281 14.0625V24.6094H24.6094V30.2344H20.3906V24.7275L21.6605 25.3575L25.3575 21.6598L24.4828 19.8956C24.942 19.0772 25.302 18.2088 25.5565 17.3046L27.4219 16.6767V11.4476L25.5565 10.819C25.302 9.91547 24.942 9.04641 24.4828 8.22797L25.3575 6.46383L21.6605 2.7668L19.8963 3.64219C19.0779 3.18305 18.2095 2.82305 17.3053 2.56852L16.6767 0.703125H11.4476L10.819 2.56852C9.91547 2.82305 9.04641 3.18305 8.22797 3.64219L6.46453 2.7675L2.7675 6.46453L3.64219 8.22867C3.18305 9.04711 2.82305 9.91547 2.56852 10.8197L0.703125 11.4483V16.6774L2.56852 17.306C2.82305 18.2095 3.18305 19.0786 3.64219 19.897L2.7675 21.6612L6.46453 25.3589L7.73438 24.7275V36.784L12.3799 43.4201C12.7638 43.9692 13.3931 44.2969 14.0625 44.2969C14.7319 44.2969 15.3612 43.9692 15.7451 43.4208L20.3906 36.784V31.6406H26.0156V26.0156H28.8281V36.5625C28.8281 37.7255 29.7745 38.6719 30.9375 38.6719H31.6406V41.4844H44.2969V34.4531H31.6406V37.2656H30.9375C30.5501 37.2656 30.2344 36.9506 30.2344 36.5625V30.2344H31.6406V33.0469H44.2969V26.0156H31.6406V28.8281H30.2344V21.7969H31.6406V24.6094H44.2969V17.5781H31.6406V20.3906H30.2344V14.0625C30.2344 13.6751 30.5501 13.3594 30.9375 13.3594H31.6406V16.1719H44.2969ZM14.7656 35.8594V27.4219H16.6767L17.3053 25.5565C17.8826 25.3941 18.4387 25.1733 18.9844 24.9258V35.8594H14.7656ZM9.14062 24.9258C9.68555 25.1733 10.2424 25.3941 10.8197 25.5565L11.4483 27.4219H13.3594V35.8594H9.14062V24.9258ZM4.47609 21.3799L5.2425 19.8359L5.04211 19.5054C4.49437 18.5998 4.08797 17.6196 3.83414 16.5916L3.74203 16.2169L2.10938 15.667V12.4587L3.74203 11.9088L3.83414 11.5341C4.08727 10.5061 4.49367 9.52594 5.04211 8.62031L5.2425 8.28984L4.47609 6.74578L6.74508 4.4768L8.28914 5.2432L8.61961 5.04281C9.52523 4.49508 10.5054 4.08867 11.5334 3.83484L11.9081 3.74273L12.458 2.10938H15.6663L16.2162 3.74203L16.5909 3.83414C17.6189 4.08727 18.5991 4.49367 19.5047 5.04211L19.8352 5.2425L21.3792 4.47609L23.6482 6.74508L22.8818 8.28914L23.0822 8.61961C23.6299 9.52523 24.0363 10.5054 24.2902 11.5334L24.3823 11.9081L26.0156 12.458V15.6663L24.383 16.2162L24.2909 16.5909C24.0377 17.6189 23.6313 18.5991 23.0829 19.5047L22.8825 19.8352L23.6489 21.3792L21.3799 23.6489L19.8359 22.8825L19.5054 23.0829C18.5984 23.6306 17.6182 24.037 16.5916 24.2909L16.2169 24.383L15.667 26.0156H12.4587L11.9088 24.383L11.5341 24.2909C10.5075 24.0377 9.52734 23.6313 8.62031 23.0829L8.28984 22.8825L6.74578 23.6489L4.47609 21.3799ZM14.5927 42.6143C14.3508 42.9602 13.7742 42.9602 13.5323 42.6143L9.7882 37.2656H18.3368L14.5927 42.6143ZM33.0469 35.8594H42.8906V40.0781H33.0469V35.8594ZM33.0469 27.4219H42.8906V31.6406H33.0469V27.4219ZM33.0469 18.9844H42.8906V23.2031H33.0469V18.9844ZM33.0469 10.5469H42.8906V14.7656H33.0469V10.5469Z" fill="#8E6F63"/>
<path d="M37.2656 11.9531H38.6719V13.3594H37.2656V11.9531Z" fill="#8E6F63"/>
<path d="M34.4531 11.9531H35.8594V13.3594H34.4531V11.9531Z" fill="#8E6F63"/>
<path d="M40.0781 11.9531H41.4844V13.3594H40.0781V11.9531Z" fill="#8E6F63"/>
<path d="M40.0781 20.3906H41.4844V21.7969H40.0781V20.3906Z" fill="#8E6F63"/>
<path d="M34.4531 20.3906H35.8594V21.7969H34.4531V20.3906Z" fill="#8E6F63"/>
<path d="M37.2656 20.3906H38.6719V21.7969H37.2656V20.3906Z" fill="#8E6F63"/>
<path d="M40.0781 28.8281H41.4844V30.2344H40.0781V28.8281Z" fill="#8E6F63"/>
<path d="M37.2656 28.8281H38.6719V30.2344H37.2656V28.8281Z" fill="#8E6F63"/>
<path d="M34.4531 28.8281H35.8594V30.2344H34.4531V28.8281Z" fill="#8E6F63"/>
<path d="M37.2656 37.2656H38.6719V38.6719H37.2656V37.2656Z" fill="#8E6F63"/>
<path d="M40.0781 37.2656H41.4844V38.6719H40.0781V37.2656Z" fill="#8E6F63"/>
<path d="M34.4531 37.2656H35.8594V38.6719H34.4531V37.2656Z" fill="#8E6F63"/>
</svg>
