<svg width="45" height="45" viewBox="0 0 45 45" fill="none" xmlns="http://www.w3.org/2000/svg">
<path d="M16.1719 14.0625H16.875C17.4342 14.0619 17.9704 13.8394 18.3658 13.444C18.7613 13.0485 18.9837 12.5124 18.9844 11.9531V11.25H17.5781V11.9531C17.5779 12.1395 17.5038 12.3183 17.3719 12.4501C17.2401 12.5819 17.0614 12.656 16.875 12.6562H16.1719V14.0625Z" fill="#8E6F63"/>
<path d="M15.4688 10.5469C15.8571 10.5469 16.1719 10.2321 16.1719 9.84375C16.1719 9.45542 15.8571 9.14062 15.4688 9.14062C15.0804 9.14062 14.7656 9.45542 14.7656 9.84375C14.7656 10.2321 15.0804 10.5469 15.4688 10.5469Z" fill="#8E6F63"/>
<path d="M19.6875 10.5469C20.0758 10.5469 20.3906 10.2321 20.3906 9.84375C20.3906 9.45542 20.0758 9.14062 19.6875 9.14062C19.2992 9.14062 18.9844 9.45542 18.9844 9.84375C18.9844 10.2321 19.2992 10.5469 19.6875 10.5469Z" fill="#8E6F63"/>
<path d="M42.8906 30.9375H42.5638L40.6888 28.125H42.1875C42.374 28.125 42.5528 28.0509 42.6847 27.9191C42.8165 27.7872 42.8906 27.6084 42.8906 27.4219V25.3125C42.8906 25.126 42.8165 24.9472 42.6847 24.8153C42.5528 24.6835 42.374 24.6094 42.1875 24.6094H40.5319L40.0878 18.3923L41.4341 15.0267C41.4673 14.9437 41.4844 14.8551 41.4844 14.7656V11.2719C41.4862 10.7094 41.3185 10.1594 41.0032 9.69356C40.6878 9.22776 40.2394 8.86778 39.7164 8.66057L37.8431 7.91118C37.4717 7.7626 37.0698 7.70639 36.6719 7.74739C36.274 7.78838 35.892 7.92535 35.5587 8.14654C35.2254 8.36773 34.9507 8.66652 34.7584 9.01725C34.566 9.36797 34.4617 9.76015 34.4543 10.1601C34.1886 10.1053 33.9135 10.1161 33.6529 10.1916C33.3923 10.2671 33.154 10.405 32.9587 10.5933C32.7633 10.7816 32.6168 11.0147 32.5319 11.2724C32.4469 11.53 32.4261 11.8045 32.4711 12.0721L33.0564 15.5844C33.068 15.6535 33.0898 15.7205 33.1211 15.7832L34.3921 18.3252L32.8524 22.5593C32.2256 22.6412 31.6126 22.8064 31.0296 23.0505L30.7682 22.7456C30.7128 22.6808 30.646 22.6267 30.5711 22.5858L22.9708 18.4403L21.2787 16.1841C21.8831 15.6573 22.3676 15.007 22.6995 14.2772C23.0315 13.5474 23.2032 12.7549 23.2031 11.9531V5.27344C23.202 4.24815 22.7942 3.26519 22.0692 2.5402C21.3442 1.81521 20.3612 1.40741 19.3359 1.40625H15.4688C14.5367 1.40731 13.6431 1.77804 12.984 2.43712C12.3249 3.0962 11.9542 3.9898 11.9531 4.92188V11.9531C11.9531 12.7549 12.1248 13.5474 12.4567 14.2772C12.7887 15.007 13.2732 15.6573 13.8776 16.1841L12.1854 18.4403L5.68826 21.9842C5.25457 22.221 4.87562 22.5466 4.57608 22.9396C4.27653 23.3326 4.0631 23.7843 3.94967 24.2653L1.42496 34.9952C1.40281 35.0893 1.4003 35.1869 1.41758 35.282L2.82383 43.0164C2.85328 43.1784 2.93866 43.3249 3.06509 43.4304C3.19151 43.536 3.35096 43.5938 3.51563 43.5938H39.375C39.4819 43.5937 39.5873 43.5694 39.6833 43.5225C39.7794 43.4757 39.8634 43.4075 39.9292 43.3233C39.995 43.2391 40.0407 43.141 40.0628 43.0365C40.085 42.9319 40.083 42.8237 40.0571 42.7201L39.354 39.9076C39.316 39.7555 39.2282 39.6204 39.1046 39.5239C38.981 39.4274 38.8287 39.375 38.6719 39.375H34.4531V33.75H35.8594V33.7476C36.1864 34.1848 36.6109 34.5398 37.0991 34.7843C37.5873 35.0289 38.1258 35.1562 38.6719 35.1562H40.0781C41.0102 35.1552 41.9038 34.7845 42.5629 34.1254C43.222 33.4663 43.5927 32.5727 43.5938 31.6406C43.5938 31.4541 43.5197 31.2753 43.3878 31.1434C43.2559 31.0116 43.0771 30.9375 42.8906 30.9375ZM40.8737 30.9375H37.8763L39.375 28.6894L40.8737 30.9375ZM41.4844 26.7188H38.2031L36.7031 25.5937C35.8511 24.9548 34.8149 24.6094 33.75 24.6094C32.685 24.6094 31.6488 24.9548 30.7969 25.5937L29.2969 26.7188H26.0156V26.0156H28.8281C28.9803 26.0156 29.1283 25.9663 29.25 25.875L30.375 25.0312C31.3487 24.301 32.5329 23.9062 33.75 23.9062C34.9671 23.9062 36.1513 24.301 37.125 25.0312L37.125 25.0313L38.25 25.875C38.3717 25.9663 38.5198 26.0156 38.6719 26.0156H41.4844V26.7188ZM31.6406 30.9375H31.3138L29.4388 28.125H29.5313C29.6834 28.125 29.8314 28.0757 29.9531 27.9844L31.6406 26.7188C32.0573 26.4075 32.5374 26.192 33.0469 26.0876V32.3438H32.273C32.3201 32.1123 32.3438 31.8768 32.3438 31.6406C32.3438 31.4541 32.2697 31.2753 32.1378 31.1434C32.0059 31.0116 31.8271 30.9375 31.6406 30.9375ZM28.8281 33.75H27.4219C26.9858 33.7495 26.5605 33.6141 26.2044 33.3623C25.8483 33.1105 25.5789 32.7547 25.433 32.3438H30.817C30.6711 32.7547 30.4017 33.1105 30.0456 33.3623C29.6895 33.6141 29.2642 33.7495 28.8281 33.75ZM26.6263 30.9375L28.125 28.6894L29.6237 30.9375H26.6263ZM38.9062 24.6094L37.9688 23.9062L37.9688 23.9063C36.917 23.1213 35.6676 22.644 34.3602 22.5278L35.6488 18.9844H38.7203L39.1221 24.6094H38.9062ZM34.0019 11.5586C34.0601 11.5296 34.1267 11.5229 34.1895 11.5395C34.2523 11.5562 34.3068 11.5952 34.3429 11.6491L35.2744 13.0463C35.3422 13.1481 35.4355 13.2304 35.5449 13.2851C35.8514 13.4371 36.1092 13.6719 36.2891 13.9629C36.4689 14.2539 36.5637 14.5895 36.5625 14.9316V15.4688H37.9688V14.9316C37.9708 14.3616 37.8218 13.8013 37.537 13.3076C37.2522 12.8138 36.8418 12.4043 36.3474 12.1207L35.8594 11.3886V10.2062C35.8594 10.0321 35.9021 9.86058 35.9837 9.70676C36.0653 9.55293 36.1834 9.42145 36.3276 9.32383C36.4718 9.2262 36.6377 9.1654 36.8109 9.14675C36.984 9.1281 37.1591 9.15217 37.3208 9.21684L39.1942 9.96623C39.4556 10.0698 39.6798 10.2498 39.8375 10.4827C39.9952 10.7156 40.079 10.9906 40.0781 11.2719V14.6302L38.899 17.5781H35.5908L34.4262 15.2489L33.8582 11.8409C33.8486 11.7846 33.8574 11.7268 33.8833 11.6759C33.9092 11.625 33.9508 11.5839 34.0019 11.5586ZM10.3957 21.0183L11.9531 20.1688V26.2842L9.27388 24.9445L10.3957 21.0183ZM16.7971 25.3125H18.3591L19.6525 36.3062L17.5781 38.3807L15.5038 36.3062L16.7971 25.3125ZM18.4776 23.9062H16.6787L16.2732 22.6899L17.5781 21.385L18.883 22.6899L18.4776 23.9062ZM20.198 22.0162L18.5725 20.3906L20.9173 18.0459L21.6768 19.0586L20.198 22.0162ZM19.8997 17.0746L17.5781 19.3962L15.2565 17.0746C15.9855 17.4064 16.7772 17.5781 17.5781 17.5781C18.3791 17.5781 19.1707 17.4064 19.8997 17.0746L19.8997 17.0746ZM16.5838 20.3906L14.9582 22.0162L13.4795 19.0586L14.239 18.0459L16.5838 20.3906ZM11.9531 34.5082L9.4037 29.8342L11.9531 28.5595V34.5082ZM13.3594 21.9629L14.1367 23.5176C14.1814 23.6069 14.2445 23.6856 14.3219 23.7486C14.3994 23.8116 14.4893 23.8574 14.5858 23.8829C14.6823 23.9084 14.7831 23.9131 14.8815 23.8966C14.98 23.8801 15.0738 23.8429 15.1567 23.7874L15.4552 24.6829L14.0673 36.4804C14.0549 36.5859 14.0665 36.6928 14.1014 36.7931C14.1362 36.8935 14.1933 36.9846 14.2685 37.0597L17.081 39.8722C17.2128 40.0041 17.3917 40.0781 17.5781 40.0781C17.7646 40.0781 17.9434 40.0041 18.0753 39.8722L20.8878 37.0597C20.9629 36.9846 21.02 36.8935 21.0549 36.7931C21.0897 36.6928 21.1014 36.5859 21.0889 36.4804L19.701 24.6829L19.9996 23.7874C20.0825 23.8429 20.1763 23.8801 20.2747 23.8966C20.3732 23.9131 20.474 23.9084 20.5705 23.8829C20.6669 23.8573 20.7569 23.8116 20.8343 23.7486C20.9117 23.6856 20.9749 23.6069 21.0195 23.5176L21.7969 21.9629V42.1875H13.3594V21.9629ZM21.7969 5.27344V5.4645C21.7294 5.43187 21.6642 5.39465 21.6019 5.35309L20.39 4.54516C20.3859 3.95426 20.2154 3.37646 19.898 2.87803C20.4379 3.00537 20.919 3.31111 21.2636 3.74581C21.6082 4.1805 21.7961 4.71873 21.7969 5.27344ZM15.4688 2.8125H17.2266C17.6928 2.8125 18.1399 2.9977 18.4695 3.32735C18.7992 3.65701 18.9844 4.10411 18.9844 4.57031C18.9844 5.03651 18.7992 5.48362 18.4695 5.81327C18.1399 6.14293 17.6928 6.32812 17.2266 6.32812H17.1662C16.9432 6.32873 16.7223 6.28509 16.5163 6.19975C16.3102 6.1144 16.1232 5.98903 15.9659 5.83091C15.6784 5.54181 15.3364 5.31261 14.9597 5.15657C14.5829 5.00054 14.179 4.92077 13.7713 4.92188H13.3594C13.36 4.36263 13.5824 3.82647 13.9779 3.43102C14.3733 3.03557 14.9095 2.81313 15.4688 2.8125ZM13.3594 11.9531V6.32812H13.7713C13.9943 6.32752 14.2152 6.37116 14.4212 6.4565C14.6273 6.54185 14.8143 6.66722 14.9716 6.82534C15.2591 7.11444 15.6011 7.34364 15.9779 7.49967C16.3546 7.65571 16.7585 7.73548 17.1662 7.73438H17.2266C17.8101 7.73381 18.3821 7.57205 18.8794 7.26693C19.3768 6.96181 19.7802 6.5252 20.0451 6.00529L20.8218 6.52313C21.1192 6.72121 21.4493 6.86491 21.7969 6.94754V11.9531C21.7969 13.072 21.3524 14.1451 20.5612 14.9362C19.7701 15.7274 18.697 16.1719 17.5781 16.1719C16.4592 16.1719 15.3862 15.7274 14.595 14.9362C13.8039 14.1451 13.3594 13.072 13.3594 11.9531ZM7.03125 34.4531V42.1875H4.10245L2.82739 35.1746L5.31854 24.5873C5.3866 24.2987 5.51466 24.0277 5.69438 23.7919C5.87411 23.5561 6.10148 23.3608 6.36169 23.2187L8.66311 21.9633L7.76141 25.1193C7.71636 25.277 7.72784 25.4455 7.79389 25.5956C7.85993 25.7457 7.97637 25.868 8.12306 25.9414L11.084 27.4219L8.12306 28.9024C8.03858 28.9446 7.96348 29.0034 7.90224 29.0753C7.841 29.1472 7.79487 29.2307 7.76661 29.3209C7.73835 29.411 7.72853 29.5059 7.73775 29.5999C7.74696 29.6939 7.77502 29.785 7.82025 29.868L11.9531 37.4449V42.1875H8.4375V34.4531H7.03125ZM23.2031 20.1688L29.7574 23.7438C29.681 23.7964 29.6056 23.8506 29.5313 23.9062L28.5938 24.6094H25.3125C25.126 24.6094 24.9472 24.6835 24.8153 24.8153C24.6835 24.9472 24.6094 25.126 24.6094 25.3125V27.4219C24.6094 27.6084 24.6835 27.7872 24.8153 27.9191C24.9472 28.0509 25.126 28.125 25.3125 28.125H26.8112L24.9362 30.9375H24.6094C24.4229 30.9375 24.2441 31.0116 24.1122 31.1434C23.9803 31.2753 23.9063 31.4541 23.9063 31.6406C23.9073 32.5727 24.278 33.4663 24.9371 34.1254C25.5962 34.7845 26.4898 35.1552 27.4219 35.1562H28.6035L27.5218 42.1875H23.2031V20.1688ZM38.4745 42.1875H29.0255L29.3771 40.7812H38.1229L38.4745 42.1875ZM33.0469 39.375H29.3773L30.0607 34.9327C30.6893 34.6959 31.2374 34.2848 31.6406 33.7476V33.75H33.0469V39.375ZM35.1563 31.6406C35.1562 31.8768 35.1799 32.1123 35.227 32.3438H34.4531V26.0876C34.9626 26.192 35.4428 26.4075 35.8594 26.7188L37.5469 27.9844C37.6686 28.0757 37.8166 28.125 37.9688 28.125H38.0612L36.1862 30.9375H35.8594C35.6729 30.9375 35.4941 31.0116 35.3622 31.1434C35.2303 31.2753 35.1563 31.4541 35.1563 31.6406ZM40.0781 33.75H38.6719C38.2358 33.7495 37.8105 33.6141 37.4544 33.3623C37.0983 33.1105 36.8289 32.7547 36.683 32.3438H42.067C41.9211 32.7547 41.6517 33.1105 41.2956 33.3623C40.9395 33.6141 40.5142 33.7495 40.0781 33.75Z" fill="#8E6F63"/>
</svg>
