<svg width="27" height="27" viewBox="0 0 27 27" fill="none" xmlns="http://www.w3.org/2000/svg">
<path d="M25.7499 13.9588C25.3485 12.4606 24.3894 11.2094 23.0494 10.4358C22.4258 10.0758 21.7624 9.84546 21.0905 9.73566V3.90047C21.0905 3.76056 21.0349 3.62634 20.9359 3.52746L17.5608 0.154359C17.4619 0.0555311 17.3278 0 17.188 0H1.57814C1.28693 0 1.05078 0.2361 1.05078 0.527361V26.4715C1.05078 26.7628 1.28693 26.9989 1.57814 26.9989H17.9773C17.9998 26.9993 18.0224 27 18.0449 27C18.3662 27 18.6897 26.9577 19.0085 26.8723C19.9618 26.6168 20.7581 26.0065 21.2504 25.1537L25.1728 18.3601C25.9464 17.0202 26.1514 15.4571 25.7499 13.9588ZM17.7154 1.79999L19.2895 3.37311H17.7154V1.79999ZM2.1055 1.05472H16.6607V3.90047C16.6607 4.19173 16.8968 4.42783 17.188 4.42783H20.0358V9.6612C18.0728 9.70276 16.1765 10.7382 15.1252 12.5591L14.8874 12.9711H5.37514C5.08393 12.9711 4.84778 13.2072 4.84778 13.4984C4.84778 13.7897 5.08393 14.0258 5.37514 14.0258H14.2784L12.9387 16.3462H5.37514C5.08393 16.3462 4.84778 16.5823 4.84778 16.8735C4.84778 17.1648 5.08393 17.4009 5.37514 17.4009H12.3298L10.9901 19.7213H5.37514C5.08393 19.7213 4.84778 19.9574 4.84778 20.2487C4.84778 20.5399 5.08393 20.776 5.37514 20.776H10.3811L10.3773 20.7826C9.94114 21.5381 10.201 22.5076 10.9564 22.9437C11.3223 23.155 11.7486 23.2111 12.157 23.1018C12.5651 22.9924 12.9063 22.7306 13.1176 22.3646L17.8654 14.1412C18.5923 12.8821 20.2081 12.449 21.4674 13.1761C22.7265 13.903 23.1594 15.5189 22.4325 16.778L18.5102 23.5716C18.44 23.6932 18.3262 23.7803 18.1899 23.8168C18.0534 23.8534 17.9114 23.8348 17.7898 23.7646C17.6682 23.6944 17.5811 23.5806 17.5446 23.4443C17.5081 23.3079 17.5266 23.1658 17.5968 23.0442L21.3253 16.5861C21.7615 15.8306 21.5017 14.8612 20.7462 14.425C19.9908 13.9888 19.0213 14.2486 18.5851 15.0041L14.8566 21.4621C13.9977 22.9498 14.2953 24.7931 15.4688 25.944H2.1055V1.05472ZM24.2594 17.8327L20.337 24.6263C19.9855 25.2351 19.4168 25.6709 18.7356 25.8534C18.0542 26.036 17.3438 25.9429 16.7351 25.5915C15.476 24.8645 15.0429 23.2487 15.7699 21.9895L19.4985 15.5315C19.5961 15.3625 19.7737 15.2679 19.956 15.2679C20.0454 15.2679 20.136 15.2907 20.2188 15.3385C20.4706 15.4838 20.5573 15.807 20.4119 16.0588L16.6833 22.5168C16.4722 22.8824 16.4163 23.3087 16.5258 23.7173C16.6352 24.1258 16.8968 24.467 17.2624 24.6781C17.6281 24.8892 18.0545 24.9451 18.4629 24.8356C18.8714 24.7262 19.2126 24.4645 19.4236 24.099L23.3459 17.3053C24.3637 15.5425 23.7576 13.2804 21.9948 12.2626C20.2319 11.2449 17.9698 11.851 16.952 13.6138L12.2043 21.8373C12.1338 21.9593 12.0201 22.0465 11.884 22.083C11.7481 22.1195 11.606 22.1008 11.4839 22.0303C11.2321 21.885 11.1454 21.5618 11.2908 21.3099L16.0386 13.0865C17.3472 10.82 20.2558 10.0408 22.5221 11.3492C24.7886 12.6578 25.5679 15.5663 24.2594 17.8327Z" fill="#8E6F63"/>
<path d="M7.74807 7.2756H16.766C17.0572 7.2756 17.2933 7.0395 17.2933 6.74824C17.2933 6.45698 17.0572 6.22089 16.766 6.22089H7.74807C7.45686 6.22089 7.2207 6.45698 7.2207 6.74824C7.2207 7.0395 7.4568 7.2756 7.74807 7.2756Z" fill="#8E6F63"/>
<path d="M5.375 7.27557C5.51369 7.27557 5.64922 7.21915 5.74783 7.12106C5.84592 7.02298 5.90234 6.88692 5.90234 6.74823C5.90234 6.60954 5.84597 6.47348 5.74783 6.3754C5.64975 6.27731 5.51369 6.22089 5.375 6.22089C5.23578 6.22089 5.09973 6.27731 5.00164 6.3754C4.90361 6.47348 4.84766 6.60954 4.84766 6.74823C4.84766 6.88692 4.90361 7.02298 5.00164 7.12106C5.10025 7.21915 5.23578 7.27557 5.375 7.27557Z" fill="#8E6F63"/>
<path d="M5.37502 10.6507H15.0434C15.3346 10.6507 15.5707 10.4146 15.5707 10.1233C15.5707 9.83205 15.3346 9.59595 15.0434 9.59595H5.37502C5.08381 9.59595 4.84766 9.83205 4.84766 10.1233C4.84766 10.4146 5.08376 10.6507 5.37502 10.6507Z" fill="#8E6F63"/>
</svg>
