<svg width="24" height="24" viewBox="0 0 24 24" fill="none" xmlns="http://www.w3.org/2000/svg">
<path d="M17.6719 11.3438C14.1824 11.3438 11.3438 14.1824 11.3438 17.6719C11.3438 21.1613 14.1824 24 17.6719 24C21.1613 24 24 21.1613 24 17.6719C24 14.1824 21.1613 11.3438 17.6719 11.3438ZM20.4844 18.375H17.6719C17.2833 18.375 16.9688 18.0604 16.9688 17.6719V14.8594C16.9688 14.4708 17.2833 14.1562 17.6719 14.1562C18.0604 14.1562 18.375 14.4708 18.375 14.8594V16.9688H20.4844C20.8729 16.9688 21.1875 17.2833 21.1875 17.6719C21.1875 18.0604 20.8729 18.375 20.4844 18.375Z" fill="#8E6F63"/>
<path d="M22.5469 2.15625C22.5469 1.76239 22.2376 1.45312 21.8438 1.45312H18.3281V3.5625C18.3281 3.95618 18.0189 4.26562 17.625 4.26562C17.2311 4.26562 16.9219 3.95618 16.9219 3.5625V1.45312H14.1094V3.5625C14.1094 3.95618 13.8001 4.26562 13.4062 4.26562C13.0124 4.26562 12.7031 3.95618 12.7031 3.5625V1.45312H9.89062V3.5625C9.89062 3.95618 9.58136 4.26562 9.1875 4.26562C8.79364 4.26562 8.48438 3.95618 8.48438 3.5625V1.45312H5.67188V3.5625C5.67188 3.95618 5.36261 4.26562 4.96875 4.26562C4.57489 4.26562 4.26562 3.95618 4.26562 3.5625V1.45312H0.703125C0.309265 1.45312 0 1.76239 0 2.15625V5.67188H22.5469V2.15625Z" fill="#8E6F63"/>
<path d="M10.5938 14.1094H10.7626C11.0193 13.6106 11.309 13.1318 11.6635 12.7031H10.5938C10.2052 12.7031 9.89062 12.3885 9.89062 12C9.89062 11.6115 10.2052 11.2969 10.5938 11.2969H12C12.288 11.2969 12.5339 11.4706 12.6427 11.7184C13.9898 10.5804 15.7275 9.89062 17.625 9.89062H16.2188C15.8302 9.89062 15.5156 9.57605 15.5156 9.1875C15.5156 8.79895 15.8302 8.48438 16.2188 8.48438H17.625C18.0135 8.48438 18.3281 8.79895 18.3281 9.1875C18.3281 9.57605 18.0135 9.89062 17.625 9.89062C19.4932 9.89062 21.2087 10.5568 22.5469 11.6635V7.07812H0V20.4375C0 20.826 0.314575 21.1406 0.703125 21.1406H10.7444C10.2026 20.0845 9.89062 18.8914 9.89062 17.625C9.89062 16.851 10.0294 16.1135 10.242 15.408C10.0356 15.2855 9.89062 15.0701 9.89062 14.8125C9.89062 14.424 10.2052 14.1094 10.5938 14.1094ZM10.5938 8.48438H12C12.3885 8.48438 12.7031 8.79895 12.7031 9.1875C12.7031 9.57605 12.3885 9.89062 12 9.89062H10.5938C10.2052 9.89062 9.89062 9.57605 9.89062 9.1875C9.89062 8.79895 10.2052 8.48438 10.5938 8.48438ZM6.375 18.3281H4.96875C4.5802 18.3281 4.26562 18.0135 4.26562 17.625C4.26562 17.2365 4.5802 16.9219 4.96875 16.9219H6.375C6.76355 16.9219 7.07812 17.2365 7.07812 17.625C7.07812 18.0135 6.76355 18.3281 6.375 18.3281ZM6.375 15.5156H4.96875C4.5802 15.5156 4.26562 15.201 4.26562 14.8125C4.26562 14.424 4.5802 14.1094 4.96875 14.1094H6.375C6.76355 14.1094 7.07812 14.424 7.07812 14.8125C7.07812 15.201 6.76355 15.5156 6.375 15.5156ZM6.375 12.7031H4.96875C4.5802 12.7031 4.26562 12.3885 4.26562 12C4.26562 11.6115 4.5802 11.2969 4.96875 11.2969H6.375C6.76355 11.2969 7.07812 11.6115 7.07812 12C7.07812 12.3885 6.76355 12.7031 6.375 12.7031ZM6.375 9.89062H4.96875C4.5802 9.89062 4.26562 9.57605 4.26562 9.1875C4.26562 8.79895 4.5802 8.48438 4.96875 8.48438H6.375C6.76355 8.48438 7.07812 8.79895 7.07812 9.1875C7.07812 9.57605 6.76355 9.89062 6.375 9.89062Z" fill="#8E6F63"/>
<path d="M5.67188 0.703125C5.67188 0.309265 5.36261 0 4.96875 0C4.57489 0 4.26562 0.309265 4.26562 0.703125V1.45312H5.67188V0.703125Z" fill="#8E6F63"/>
<path d="M9.89062 0.703125C9.89062 0.309265 9.58136 0 9.1875 0C8.79364 0 8.48438 0.309265 8.48438 0.703125V1.45312H9.89062V0.703125Z" fill="#8E6F63"/>
<path d="M14.1094 0.703125C14.1094 0.309265 13.8001 0 13.4062 0C13.0124 0 12.7031 0.309265 12.7031 0.703125V1.45312H14.1094V0.703125Z" fill="#8E6F63"/>
<path d="M18.3281 0.703125C18.3281 0.309265 18.0189 0 17.625 0C17.2311 0 16.9219 0.309265 16.9219 0.703125V1.45312H18.3281V0.703125Z" fill="#8E6F63"/>
</svg>
