<svg width="17" height="16" viewBox="0 0 17 16" fill="none" xmlns="http://www.w3.org/2000/svg">
<path fill-rule="evenodd" clip-rule="evenodd" d="M4.32228 0.743346C4.00903 0.0365983 3.67909 0.0223979 3.38091 0.0101089C3.13709 -0.000541395 2.85802 4.72498e-06 2.57948 4.72498e-06C2.30068 4.72498e-06 1.84749 0.106508 1.46426 0.531158C1.08077 0.955807 0 1.98261 0 4.0709C0 6.15947 1.49898 8.1773 1.70808 8.46076C1.91719 8.74396 4.60163 13.1663 8.85286 14.8676C12.3861 16.2817 13.1049 16.0004 13.8719 15.9297C14.6389 15.8589 16.3464 14.9029 16.6949 13.9118C17.0437 12.9208 17.0437 12.0715 16.939 11.8937C16.8343 11.717 16.5555 11.6108 16.1373 11.3986C15.7191 11.1864 13.6628 10.1594 13.2793 10.0179C12.8958 9.87617 12.617 9.80571 12.3382 10.2306C12.0591 10.655 11.2582 11.6108 11.0141 11.8937C10.77 12.1775 10.526 12.213 10.1078 12.0005C9.68954 11.7878 8.34235 11.3399 6.74433 9.89392C5.50101 8.76908 4.66137 7.37962 4.41728 6.95469C4.17346 6.53032 4.41324 6.32059 4.60109 6.08874C4.93937 5.67119 5.50693 4.92047 5.64634 4.63756C5.78574 4.35409 5.71604 4.1064 5.61162 3.89394C5.50693 3.68175 4.69393 1.58281 4.32228 0.743346Z" fill="#C7B39B"/>
</svg>
