<svg width="24" height="23" viewBox="0 0 24 23" fill="none" xmlns="http://www.w3.org/2000/svg">
<path fill-rule="evenodd" clip-rule="evenodd" d="M6.10205 1.06856C5.65981 0.0526101 5.19401 0.0321969 4.77305 0.0145316C4.42884 -0.000778256 4.03485 6.79216e-06 3.64162 6.79216e-06C3.24802 6.79216e-06 2.60822 0.153106 2.0672 0.763539C1.5258 1.37397 0 2.85 0 5.85192C0 8.85423 2.11621 11.7549 2.41141 12.1623C2.70662 12.5694 6.49641 18.9266 12.4982 21.3722C17.4862 23.4049 18.501 23.0006 19.5838 22.8989C20.6666 22.7972 23.0773 21.4229 23.5693 19.9983C24.0617 18.5737 24.0617 17.3528 23.9139 17.0972C23.7661 16.8433 23.3725 16.6905 22.7821 16.3855C22.1917 16.0805 19.2886 14.6041 18.7472 14.4007C18.2058 14.197 17.8122 14.0957 17.4186 14.7065C17.0246 15.3166 15.894 16.6905 15.5494 17.0972C15.2048 17.5051 14.8602 17.5561 14.2698 17.2507C13.6794 16.9449 11.7774 16.3011 9.52141 14.2225C7.76614 12.6055 6.58076 10.6082 6.23616 9.99737C5.89194 9.38733 6.23046 9.08584 6.49565 8.75256C6.97322 8.15233 7.77449 7.07318 7.9713 6.66649C8.1681 6.25901 8.0697 5.90295 7.92229 5.59754C7.77449 5.29252 6.62673 2.27529 6.10205 1.06856Z" fill="#8E6F63"/>
</svg>
