<svg width="29" height="27" viewBox="0 0 29 27" fill="none" xmlns="http://www.w3.org/2000/svg">
<path fill-rule="evenodd" clip-rule="evenodd" d="M23.2738 0.617742L26.6377 3.98092C27.4541 4.76331 27.4541 6.1864 26.6377 6.96875L9.72681 23.8761C9.67037 23.9324 9.60186 23.9753 9.52644 24.0015L0.950064 26.9709C0.761246 27.0368 0.54764 26.989 0.404497 26.8455C0.261671 26.7027 0.212937 26.4909 0.279076 26.3001L3.24905 17.7254C3.27516 17.65 3.31809 17.5815 3.37447 17.5251L20.2853 0.617742C21.1092 -0.205888 22.4497 -0.20594 23.2737 0.617742H23.2738ZM18.517 6.30722L22.1622 9.95177L23.2811 8.83316L18.4206 3.97364L17.3018 5.09221L18.5165 6.30669L18.517 6.30722ZM9.47612 20.9512L9.71014 22.4012L21.4162 10.6976L20.574 9.85543L9.47612 20.9512ZM17.3979 6.67988L16.5558 5.838L4.84973 17.5416L6.30003 17.7756L17.3979 6.67988ZM19.8281 9.10963L18.1438 7.42562L7.01612 18.5512L7.06343 20.1879L8.70049 20.2352L19.8281 9.10963ZM5.9677 18.7903L4.10084 18.4891L2.65586 22.6611C3.08513 22.8438 3.48154 23.1107 3.81091 23.4399C4.14018 23.7692 4.40711 24.1655 4.58986 24.5947L8.76257 23.1499L8.46136 21.2834L6.53537 21.2277C6.25605 21.2197 6.03147 20.9951 6.0234 20.7159L5.9677 18.7903ZM3.58971 24.9408C3.33359 24.3784 2.87194 23.917 2.30944 23.6609L1.63123 25.6189L3.58971 24.9408ZM24.0269 8.08741L25.8917 6.223C26.299 5.8332 26.2991 5.11651 25.8917 4.72672L22.5278 1.36354C22.1153 0.951117 21.4438 0.950959 21.0312 1.36354L19.1665 3.2279L24.0269 8.08741ZM10.75 26C10.4739 26 10.25 26.2239 10.25 26.5C10.25 26.7761 10.4739 27 10.75 27H28.25C28.5261 27 28.75 26.7761 28.75 26.5C28.75 26.2239 28.5261 26 28.25 26H10.75Z" fill="#3C3C3B"/>
</svg>
