<svg width="25" height="17" viewBox="0 0 25 17" fill="none" xmlns="http://www.w3.org/2000/svg">
<path fill-rule="evenodd" clip-rule="evenodd" d="M2.12669 0H22.0545C22.3718 0 22.6702 0.0746113 22.9409 0.199845L15.1693 7.99738L15.1684 7.99809L15.1677 7.99851L15.1671 7.99924L15.1666 8.00016L12.6401 10.5351C12.3717 10.8035 11.8096 10.8035 11.5412 10.5351L9.0142 7.99974L9.01406 7.99923L9.01359 7.99851L9.01276 7.99794L9.01194 7.99738L1.24023 0.199892C1.51087 0.0747057 1.80936 0 2.12669 0ZM13.6431 11.5353L15.6681 9.50354L22.9409 16.8002C22.6703 16.9254 22.3719 17 22.0546 17H2.12679C1.80945 17 1.51096 16.9253 1.24023 16.8001L8.51322 9.50354L10.5383 11.5353C11.3772 12.3771 12.822 12.3594 13.6431 11.5353ZM0.226006 1.19055C0.0859445 1.47379 0 1.7882 0 2.12499V14.875C0 15.2118 0.0858501 15.5262 0.225959 15.8094L7.51155 8.50023L0.226006 1.19055ZM16.668 8.50033L23.9535 1.19055C24.0935 1.47379 24.1795 1.7882 24.1795 2.12508V14.8751C24.1795 15.212 24.0935 15.5264 23.9535 15.8096L16.668 8.50033Z" fill="#8E6F63"/>
</svg>
