<svg width="395" height="214" viewBox="0 0 395 214" fill="none" xmlns="http://www.w3.org/2000/svg">
<path d="M125.332 151.366V174.726H7.52441L6.28906 156.757L75.5811 47.4844H99.2773L73.6719 90.9463L36.499 151.366H125.332ZM105.903 47.4844V211H76.1426V47.4844H105.903ZM251.45 115.204V142.719C251.45 155.297 250.177 166.041 247.632 174.95C245.086 183.86 241.418 191.16 236.626 196.85C231.834 202.465 226.107 206.62 219.443 209.315C212.78 211.936 205.368 213.246 197.207 213.246C190.693 213.246 184.629 212.423 179.014 210.775C173.398 209.053 168.345 206.433 163.853 202.914C159.435 199.32 155.617 194.753 152.397 189.213C149.253 183.673 146.82 177.047 145.098 169.335C143.451 161.623 142.627 152.751 142.627 142.719V115.204C142.627 102.626 143.9 91.9196 146.445 83.085C149.066 74.2503 152.772 67.0254 157.563 61.4102C162.355 55.7949 168.083 51.7145 174.746 49.1689C181.41 46.5485 188.822 45.2383 196.982 45.2383C203.571 45.2383 209.635 46.0618 215.176 47.709C220.791 49.3561 225.807 51.9391 230.225 55.458C234.717 58.902 238.535 63.3942 241.68 68.9346C244.824 74.4001 247.22 80.9886 248.867 88.7002C250.589 96.3369 251.45 105.172 251.45 115.204ZM221.802 146.762V111.049C221.802 104.76 221.427 99.2943 220.679 94.6523C220.005 89.9355 218.994 85.93 217.646 82.6357C216.299 79.3415 214.614 76.6836 212.593 74.6621C210.571 72.5658 208.25 71.0309 205.63 70.0576C203.009 69.0843 200.127 68.5977 196.982 68.5977C193.089 68.5977 189.608 69.3838 186.538 70.9561C183.468 72.4535 180.885 74.8493 178.789 78.1436C176.693 81.4378 175.083 85.8177 173.96 91.2832C172.912 96.6738 172.388 103.262 172.388 111.049V146.762C172.388 153.051 172.725 158.554 173.398 163.271C174.147 167.987 175.195 172.03 176.543 175.399C177.965 178.769 179.65 181.539 181.597 183.71C183.618 185.806 185.939 187.379 188.56 188.427C191.18 189.4 194.062 189.887 197.207 189.887C201.175 189.887 204.657 189.101 207.651 187.528C210.721 185.956 213.304 183.485 215.4 180.116C217.497 176.672 219.069 172.217 220.117 166.752C221.24 161.212 221.802 154.548 221.802 146.762ZM388.125 151.366V174.726H270.317L269.082 156.757L338.374 47.4844H362.07L336.465 90.9463L299.292 151.366H388.125ZM368.696 47.4844V211H338.936V47.4844H368.696Z" fill="#8E6F63"/>
<path d="M54.3555 26.2461C53.2148 26.2461 52.1797 26.0352 51.25 25.6133C50.3203 25.1836 49.5195 24.582 48.8477 23.8086C48.1836 23.0273 47.6719 22.1133 47.3125 21.0664C46.9531 20.0117 46.7734 18.8555 46.7734 17.5977V17.3398C46.7734 16.0898 46.9531 14.9414 47.3125 13.8945C47.6719 12.8398 48.1836 11.9258 48.8477 11.1523C49.5195 10.3711 50.3164 9.76562 51.2383 9.33594C52.168 8.90625 53.2031 8.69141 54.3438 8.69141C55.5078 8.69141 56.5547 8.90625 57.4844 9.33594C58.4219 9.76562 59.2266 10.3711 59.8984 11.1523C60.5703 11.9258 61.082 12.8398 61.4336 13.8945C61.793 14.9414 61.9727 16.0898 61.9727 17.3398V17.5977C61.9727 18.8555 61.793 20.0117 61.4336 21.0664C61.082 22.1133 60.5703 23.0273 59.8984 23.8086C59.2344 24.582 58.4336 25.1836 57.4961 25.6133C56.5586 26.0352 55.5117 26.2461 54.3555 26.2461ZM54.3555 23.7383C55.3555 23.7383 56.1836 23.4844 56.8398 22.9766C57.4961 22.4609 57.9844 21.7422 58.3047 20.8203C58.6328 19.8984 58.7969 18.8242 58.7969 17.5977V17.3164C58.7969 16.1055 58.6328 15.043 58.3047 14.1289C57.9766 13.2148 57.4805 12.5 56.8164 11.9844C56.1602 11.4688 55.3359 11.2109 54.3438 11.2109C53.375 11.2109 52.5664 11.4688 51.918 11.9844C51.2695 12.4922 50.7812 13.2031 50.4531 14.1172C50.1328 15.0312 49.9727 16.0977 49.9727 17.3164V17.5977C49.9727 18.8164 50.1328 19.8906 50.4531 20.8203C50.7812 21.7422 51.2695 22.4609 51.918 22.9766C52.5742 23.4844 53.3867 23.7383 54.3555 23.7383ZM69.4609 26.2461C68.2188 26.2461 67.1562 25.9727 66.2734 25.4258C65.3906 24.8789 64.7109 24.1211 64.2344 23.1523C63.7578 22.1758 63.5195 21.0547 63.5195 19.7891V19.543C63.5195 18.2852 63.7578 17.1719 64.2344 16.2031C64.7109 15.2344 65.3906 14.4727 66.2734 13.918C67.1562 13.3633 68.2109 13.0859 69.4375 13.0859C70.6719 13.0859 71.7305 13.3633 72.6133 13.918C73.4961 14.4648 74.1719 15.2227 74.6406 16.1914C75.1172 17.1602 75.3555 18.2773 75.3555 19.543V19.7891C75.3555 21.0547 75.1172 22.1758 74.6406 23.1523C74.1719 24.1211 73.4961 24.8789 72.6133 25.4258C71.7305 25.9727 70.6797 26.2461 69.4609 26.2461ZM69.4609 23.7969C70.0781 23.7969 70.5859 23.6289 70.9844 23.293C71.3906 22.957 71.6914 22.4883 71.8867 21.8867C72.082 21.2773 72.1797 20.5781 72.1797 19.7891V19.543C72.1797 18.7617 72.082 18.0703 71.8867 17.4688C71.6914 16.8672 71.3906 16.3984 70.9844 16.0625C70.5781 15.7188 70.0625 15.5469 69.4375 15.5469C68.8125 15.5469 68.2969 15.7188 67.8906 16.0625C67.4922 16.3984 67.1953 16.8672 67 17.4688C66.8047 18.0703 66.707 18.7617 66.707 19.543V19.7891C66.707 20.5859 66.8047 21.2852 67 21.8867C67.1953 22.4883 67.4961 22.957 67.9023 23.293C68.3086 23.6289 68.8281 23.7969 69.4609 23.7969ZM76.7852 30.875V28.9414L78.4727 28.5898V15.6055L76.6211 15.2539V13.3203H81.3672L81.543 14.8086C81.9258 14.2539 82.3906 13.8281 82.9375 13.5312C83.4844 13.2344 84.1328 13.0859 84.8828 13.0859C85.9062 13.0859 86.7812 13.3672 87.5078 13.9297C88.2422 14.4844 88.8047 15.2656 89.1953 16.2734C89.5859 17.2812 89.7812 18.4531 89.7812 19.7891V20.0352C89.7812 21.2773 89.5859 22.3672 89.1953 23.3047C88.8047 24.2344 88.2422 24.957 87.5078 25.4727C86.7812 25.9883 85.9023 26.2461 84.8711 26.2461C84.168 26.2461 83.5508 26.1211 83.0195 25.8711C82.4883 25.6211 82.0312 25.2539 81.6484 24.7695V28.5898L83.3828 28.9414V30.875H76.7852ZM83.9102 23.7969C84.832 23.7969 85.5078 23.457 85.9375 22.7773C86.3672 22.0977 86.582 21.1836 86.582 20.0352V19.7891C86.582 18.9531 86.4844 18.2227 86.2891 17.5977C86.1016 16.9648 85.8086 16.4727 85.4102 16.1211C85.0117 15.7617 84.5039 15.582 83.8867 15.582C83.3789 15.582 82.9336 15.6992 82.5508 15.9336C82.1758 16.1602 81.875 16.4805 81.6484 16.8945V22.5781C81.875 22.9688 82.1758 23.2695 82.5508 23.4805C82.9336 23.6914 83.3867 23.7969 83.9102 23.7969ZM96.7422 26.2461C95.8125 26.2461 94.9453 26.1602 94.1406 25.9883C93.3438 25.8086 92.5625 25.5469 91.7969 25.2031L91.7617 21.7344H94.0117L94.457 23.5625C94.7617 23.7031 95.082 23.8125 95.418 23.8906C95.7539 23.9688 96.1328 24.0078 96.5547 24.0078C97.3594 24.0078 97.9258 23.875 98.2539 23.6094C98.5898 23.3359 98.7578 22.9961 98.7578 22.5898C98.7578 22.1992 98.582 21.8633 98.2305 21.582C97.8789 21.293 97.1992 21.043 96.1914 20.832C94.6836 20.5117 93.5742 20.0312 92.8633 19.3906C92.1523 18.7422 91.7969 17.9141 91.7969 16.9062C91.7969 16.2031 91.9766 15.5664 92.3359 14.9961C92.7031 14.4258 93.25 13.9688 93.9766 13.625C94.7031 13.2734 95.6133 13.0977 96.707 13.0977C97.668 13.0977 98.5312 13.1953 99.2969 13.3906C100.07 13.5859 100.723 13.8359 101.254 14.1406L101.312 17.4922H99.0742L98.7109 15.8281C98.4844 15.6641 98.2188 15.5391 97.9141 15.4531C97.6094 15.3594 97.2656 15.3125 96.8828 15.3125C96.2578 15.3125 95.7695 15.4453 95.418 15.7109C95.0742 15.9766 94.9023 16.3125 94.9023 16.7188C94.9023 16.9531 94.9609 17.168 95.0781 17.3633C95.1953 17.5586 95.4219 17.7422 95.7578 17.9141C96.1016 18.0781 96.6016 18.2344 97.2578 18.3828C98.8672 18.75 100.027 19.2383 100.738 19.8477C101.457 20.457 101.816 21.2852 101.816 22.332C101.816 23.4883 101.395 24.4297 100.551 25.1562C99.7148 25.8828 98.4453 26.2461 96.7422 26.2461ZM104.148 20.1758V8.9375H107.336V20.1758H104.148ZM104.148 26V23.1289H107.336V26H104.148Z" fill="#8E6F63"/>
</svg>
