<svg width="43" height="43" viewBox="0 0 43 43" fill="none" xmlns="http://www.w3.org/2000/svg">
<path d="M36.4974 5.32814C33.0625 1.89225 28.4949 0 23.6362 0C14.4 0 6.63357 6.91133 5.57066 16.0781C5.54521 16.3027 5.53371 16.4716 5.52438 16.6073C5.50078 16.9538 5.49583 17.0258 5.27067 17.4778L1.56754 24.9199C1.27394 25.5101 0.989481 26.1862 1.33289 26.7405C1.65556 27.2614 2.32315 27.3217 2.79733 27.3217H4.85033C5.01981 27.3217 5.16628 27.3195 5.29301 27.3176C5.34415 27.3168 5.39732 27.316 5.44838 27.3156V27.3289V28.7793C5.44838 29.0085 5.45619 29.1819 5.49675 29.44L6.30754 34.6945C6.55664 36.2891 7.66372 37.3605 9.06248 37.3605H15.8584C16.0092 37.3605 16.0973 37.3719 16.1446 37.3815C16.1592 37.4405 16.1744 37.531 16.1866 37.6023C16.2154 37.7716 16.2512 37.9821 16.3249 38.2234L17.4837 41.9975C17.7654 42.9023 18.3912 43 18.6472 43H32.0002C32.6562 43 33.1898 42.4664 33.1898 41.8103V35.857C33.1898 35.7241 33.1872 35.6079 33.1849 35.5047C33.1808 35.3185 33.1772 35.1577 33.1979 35.1048C33.2102 35.0736 33.2659 34.9911 33.5021 34.7892C35.8384 32.7935 37.839 30.3198 39.2877 27.6352C39.4529 27.329 39.3386 26.9471 39.0325 26.7818C38.7263 26.6165 38.3443 26.731 38.179 27.037C36.8035 29.5862 34.9033 31.9356 32.6837 33.8314C31.9699 34.4419 31.9087 34.7828 31.9255 35.5326C31.9276 35.6277 31.93 35.7346 31.93 35.857V41.7402H18.7315C18.7193 41.7151 18.7037 41.6782 18.6873 41.6254L17.5295 37.8542C17.4796 37.6912 17.4537 37.5387 17.4287 37.3914C17.3177 36.7384 17.105 36.1008 15.8585 36.1008H9.06256C8.13235 36.1008 7.66766 35.2385 7.55252 34.5014L6.74165 29.246C6.71285 29.0635 6.70831 28.959 6.70831 28.7793V27.3289C6.70831 26.9338 6.70831 26.5924 6.43452 26.3229C6.15233 26.0448 5.80388 26.0497 5.27419 26.0581C5.15292 26.0598 5.01267 26.062 4.85049 26.062H2.79724C2.63751 26.062 2.52933 26.0517 2.45845 26.0401C2.48768 25.9397 2.55277 25.768 2.69537 25.4812L6.39832 18.0394C6.72192 17.3901 6.74955 17.1575 6.78129 16.6932C6.79011 16.5636 6.80019 16.4166 6.82219 16.2216C7.81128 7.69188 15.0397 1.25977 23.6362 1.25977C32.9704 1.25977 40.5643 8.8559 40.5643 18.1928C40.5643 20.2972 40.1395 22.4572 39.3019 24.6128C39.1759 24.9371 39.3367 25.3021 39.6608 25.4281C39.9854 25.5541 40.3502 25.3933 40.4762 25.0692C41.3705 22.7674 41.824 20.4539 41.824 18.1928C41.824 13.3328 39.9323 8.76411 36.4974 5.32814Z" fill="#8E6F63"/>
<path d="M37.9733 14.8892C37.9733 13.4599 37.0672 12.1861 35.7205 11.7199C35.6717 11.7028 35.6265 11.688 35.5848 11.6749C35.5793 11.6266 35.5724 11.5735 35.5638 11.5154C35.2073 9.09972 33.0964 7.2781 30.6538 7.2781C30.1663 7.2781 29.6791 7.35041 29.2035 7.4936C29.0553 7.53879 28.9314 7.58095 28.8274 7.61857C28.7473 7.47261 28.6372 7.29221 28.4824 7.07687C27.457 5.65099 25.7985 4.7998 24.046 4.7998C22.1624 4.7998 20.4359 5.74992 19.4267 7.34235C19.3607 7.44682 19.3056 7.5403 19.2594 7.62277C19.1643 7.58573 19.0528 7.54593 18.9222 7.50486C18.0292 7.22469 17.0758 7.20352 16.1654 7.44372C15.829 7.53249 15.6282 7.87708 15.717 8.21343C15.8057 8.54979 16.1503 8.75051 16.4867 8.66183C17.1575 8.48487 17.8886 8.50066 18.5448 8.70676C18.64 8.73666 18.72 8.76504 18.7891 8.79158C18.6642 9.3332 18.6781 9.90387 18.8359 10.4468C18.8473 10.4859 18.8597 10.5245 18.8726 10.5631C17.9717 11.2205 17.445 12.3878 17.4964 13.7C17.5097 14.0392 17.7889 14.3052 18.1254 14.3052C18.1337 14.3052 18.142 14.3051 18.1504 14.3047C18.498 14.2911 18.7688 13.9984 18.7552 13.6508C18.7229 12.8258 19.0074 12.0998 19.5026 11.6716C19.6931 11.8925 19.913 12.0887 20.1581 12.2533C20.1585 12.2536 20.1589 12.2538 20.1592 12.254C20.1594 12.2541 20.1596 12.2543 20.1597 12.2544C20.5519 12.516 20.8408 12.9108 20.9731 13.3661C21.1055 13.8217 21.0731 14.3094 20.8818 14.7395C20.7404 15.0573 20.8835 15.4296 21.2014 15.571C21.2845 15.6079 21.3715 15.6255 21.457 15.6255C21.6983 15.6255 21.9285 15.4861 22.0328 15.2514C22.3449 14.5499 22.3982 13.7555 22.1828 13.0146C21.9683 12.2763 21.4997 11.6356 20.8633 11.2096C20.8623 11.2089 20.8614 11.2081 20.8604 11.2074C20.4671 10.9433 20.1776 10.5479 20.0454 10.0947C19.9125 9.63714 19.9442 9.14818 20.1347 8.71801C20.1531 8.67644 20.1665 8.63386 20.1754 8.59103C20.1914 8.56247 20.2072 8.53283 20.2224 8.5015C20.276 8.39148 20.3492 8.24081 20.4913 8.01582C21.2676 6.79082 22.5965 6.05949 24.046 6.05949C25.3942 6.05949 26.6704 6.71482 27.4596 7.81224C27.6947 8.13928 27.7842 8.33832 27.8434 8.47009C28.1468 9.14482 28.625 9.05395 29.0077 8.89925C29.1315 8.8492 29.3009 8.78083 29.5688 8.6992C29.9244 8.59204 30.2894 8.5377 30.6537 8.5377C32.4763 8.5377 34.0514 9.8969 34.3175 11.6994C34.3407 11.8566 34.3469 11.9598 34.3513 12.0351C34.3535 12.0716 34.3572 12.1061 34.3616 12.1398C34.361 12.1477 34.3597 12.1554 34.3594 12.1634C34.3402 12.6397 34.2302 13.0998 34.033 13.5301C33.8436 13.9416 33.5884 14.3042 33.2747 14.6076C33.0246 14.8495 33.0179 15.2482 33.2597 15.4982C33.3833 15.626 33.5479 15.6902 33.7126 15.6902C33.8703 15.6902 34.0282 15.6314 34.1505 15.5132C34.5768 15.1007 34.9224 14.6108 35.1778 14.0558C35.3336 13.7158 35.4478 13.3623 35.5218 12.9995C36.2426 13.3435 36.7134 14.0753 36.7134 14.889C36.7134 15.4583 36.49 15.9912 36.0856 16.3881C35.8689 16.5995 35.7411 16.6573 35.6478 16.6996C34.9829 17.0004 35.1108 17.5187 35.2345 18.0199L35.2633 18.1367C35.3211 18.3658 35.3503 18.6071 35.3503 18.8539C35.3503 20.1282 34.5878 21.2662 33.4915 21.6228C33.4817 21.6261 33.4732 21.6299 33.4637 21.6334C32.6874 21.8454 31.1208 21.7527 30.1499 20.0672C29.9762 19.7657 29.5909 19.6621 29.2897 19.8357C28.9882 20.0093 28.8846 20.3944 29.0582 20.6959C30.0857 22.4796 31.6331 22.9726 32.8119 22.9726C32.8599 22.9726 32.9074 22.9718 32.9542 22.9702C32.9279 23.7862 32.6008 24.5754 32.008 25.2298C31.1912 26.1317 29.9705 26.67 28.7427 26.67C27.7854 26.67 26.8493 26.3386 26.1062 25.7362C25.6014 25.3282 25.3748 25.1014 25.253 24.9796C25.2389 24.9655 25.2238 24.9505 25.208 24.9352C25.0187 24.7211 24.8744 24.4563 24.7742 24.1619C24.844 24.1651 24.9138 24.1684 24.9837 24.1684C25.3685 24.1684 25.7551 24.1207 26.1327 24.0253C26.745 23.8701 27.3096 23.6026 27.8108 23.2302C28.0901 23.0227 28.1483 22.6281 27.9408 22.3489C27.7333 22.0697 27.3387 22.0116 27.0596 22.2189C26.691 22.4928 26.2751 22.6896 25.8237 22.804C25.4232 22.9053 25.01 22.932 24.6073 22.8866C24.6174 22.6713 24.6453 22.4559 24.691 22.2458C24.7113 22.1931 24.724 22.139 24.7295 22.0845C24.8524 21.6206 25.0639 21.1915 25.3621 20.8618C25.5953 20.6038 25.5753 20.2055 25.3173 19.9721C25.0593 19.7391 24.6611 19.7589 24.4276 20.0168C24.1713 20.3003 23.9605 20.6282 23.7951 20.9832C23.5876 20.7758 23.4055 20.5412 23.256 20.2841C23.0236 19.8849 22.8734 19.4492 22.8095 18.9891C22.7617 18.6445 22.444 18.4044 22.0989 18.452C21.7544 18.4998 21.5138 18.818 21.5618 19.1626C21.6484 19.7857 21.8521 20.3763 22.1671 20.9175C22.4834 21.4615 22.9073 21.9336 23.4046 22.3053C23.3506 22.6704 23.3362 23.0419 23.3611 23.4066C23.3607 23.4432 23.3632 23.4793 23.3691 23.5147C23.4114 23.9832 23.52 24.4376 23.6948 24.8502C23.5871 24.8563 23.4621 24.8601 23.3147 24.8601C22.5211 24.8601 21.7732 24.5513 21.209 23.9912C21.0006 23.7838 20.8941 23.6574 20.8236 23.5737C20.6035 23.3123 20.4078 23.1795 20.003 23.2272C19.9114 23.2381 19.7584 23.2562 19.425 23.2369C18.7821 23.2008 18.4602 22.8811 18.0874 22.5109C17.9159 22.3406 17.725 22.1518 17.4955 21.9961C16.9929 21.6003 16.8665 21.2491 16.972 19.9398C17.0663 19.948 17.1607 19.9531 17.2553 19.9531C17.4603 19.9531 17.6657 19.9337 17.8699 19.8947C18.3972 19.7939 18.8953 19.5618 19.3099 19.2238C19.5796 19.004 19.62 18.6072 19.4002 18.3376C19.1804 18.0679 18.7837 18.0274 18.514 18.2473C18.2569 18.4568 17.9606 18.5948 17.6336 18.6574C17.4566 18.6912 17.2784 18.7006 17.101 18.6868C17.1188 18.5328 17.1379 18.371 17.1582 18.2002L17.2167 17.7064C17.2573 17.3609 17.0102 17.0478 16.6647 17.0073C16.3197 16.9662 16.0062 17.2137 15.9656 17.5592L15.9074 18.0514C15.7073 19.7338 15.5812 20.7976 15.7721 21.5935C14.3368 21.2757 13.2598 19.9943 13.2598 18.4652C13.2598 18.1967 13.293 17.9309 13.3584 17.6755C13.4438 17.3425 13.2462 17.0027 12.9147 16.9118C12.0086 16.6634 11.3757 15.8317 11.3757 14.8889C11.3757 14.0787 11.8413 13.3466 12.5675 12.9978C12.641 13.3606 12.7552 13.7149 12.9119 14.0568C13.1669 14.6106 13.5123 15.1006 13.9387 15.513C14.061 15.6313 14.2189 15.6901 14.3766 15.6901C14.5413 15.6901 14.7058 15.6259 14.8294 15.4982C15.0713 15.2481 15.0647 14.8494 14.8146 14.6076C14.5009 14.3041 14.2457 13.9415 14.0568 13.5311C13.8586 13.0985 13.7495 12.6392 13.7325 12.1662C13.7317 12.142 13.7291 12.1184 13.7256 12.095C13.728 12.0739 13.7304 12.0524 13.7321 12.0302C13.7395 11.9293 13.7507 11.7769 13.8051 11.5062C13.9168 10.9479 14.1649 10.4111 14.523 9.95401C14.7375 9.68014 14.6892 9.28415 14.4154 9.06974C14.1416 8.85541 13.7456 8.90345 13.5311 9.17732C13.0524 9.78873 12.72 10.5087 12.5701 11.2585C12.5366 11.4247 12.5156 11.5591 12.5019 11.6676C12.4066 11.6996 12.2918 11.7423 12.1554 11.8003C10.9167 12.3309 10.1162 13.5434 10.1162 14.889C10.1162 16.1991 10.881 17.3755 12.0332 17.923C12.0113 18.1023 12.0003 18.2834 12.0003 18.4653C12.0003 20.927 14.0037 22.9297 16.466 22.9297C16.6994 22.9297 16.8527 23.06 17.2 23.4049C17.6363 23.8383 18.2341 24.4319 19.3538 24.4947C19.6269 24.5104 19.8194 24.5061 19.9558 24.497C20.0375 24.5906 20.1529 24.7173 20.3213 24.8848C21.1235 25.6812 22.1867 26.1198 23.315 26.1198C23.8916 26.1198 24.2505 26.0709 24.5006 26.0063C24.6579 26.1582 24.9051 26.3848 25.314 26.7152C26.28 27.4983 27.4979 27.9296 28.7431 27.9296C30.3208 27.9296 31.8906 27.2364 32.9422 26.0754C33.8145 25.1122 34.2604 23.9214 34.2142 22.6941C35.6408 22.0691 36.6104 20.5402 36.6104 18.8537C36.6104 18.5031 36.5683 18.1582 36.4862 17.8326L36.458 17.7178C36.4563 17.7112 36.4547 17.7047 36.4531 17.6981C36.5926 17.6123 36.7652 17.4851 36.967 17.2884C37.6159 16.6517 37.9733 15.7996 37.9733 14.8892Z" fill="#8E6F63"/>
<path d="M25.8158 13.0554C25.467 13.0456 25.178 13.3192 25.1681 13.6669C25.1147 15.5311 26.1147 15.947 26.7765 16.2224C27.3502 16.4611 27.6381 16.5809 27.6095 17.5786C27.5996 17.9264 27.8734 18.2163 28.2211 18.2263C28.2272 18.2264 28.2333 18.2265 28.2395 18.2265C28.579 18.2265 28.859 17.9563 28.8688 17.6147C28.9222 15.7506 27.9222 15.3346 27.2604 15.0592C26.6867 14.8205 26.3987 14.7008 26.4273 13.7031C26.4373 13.3553 26.1635 13.0654 25.8158 13.0554Z" fill="#8E6F63"/>
<path d="M29.5447 13.0352C29.8686 13.3245 30.2424 13.5437 30.6557 13.6867C30.7239 13.7102 30.7934 13.7215 30.8617 13.7215C31.1227 13.7215 31.3668 13.5579 31.457 13.2974C31.5707 12.9687 31.3964 12.6099 31.0677 12.4961C30.8129 12.4079 30.5828 12.2731 30.3836 12.0954C30.1325 11.8714 29.949 11.6014 29.8381 11.2928C29.7203 10.9655 29.3598 10.7955 29.0321 10.9132C28.7049 11.0308 28.5349 11.3916 28.6525 11.7191C28.8327 12.2201 29.1412 12.6752 29.5447 13.0352Z" fill="#8E6F63"/>
</svg>
