<svg width="43" height="43" viewBox="0 0 43 43" fill="none" xmlns="http://www.w3.org/2000/svg">
<path d="M32.7596 43C32.4116 43 32.1297 42.7181 32.1297 42.3701V36.9429C32.1297 34.3517 32.9173 32.2505 33.9982 30.2644C31.5778 30.2213 29.3039 29.1398 27.7396 27.2823C27.5154 27.0163 27.5495 26.6189 27.8156 26.3949C28.0816 26.1707 28.479 26.2048 28.703 26.4709C30.0598 28.0819 32.0447 29.0059 34.1487 29.0059C34.3454 29.0059 34.5433 28.9978 34.7395 28.9817C35.0745 28.4293 35.4245 27.8795 35.7781 27.3239C37.4567 24.6867 39.1843 21.9725 39.6511 18.2798C38.3784 18.9602 36.9616 19.3153 35.4923 19.3153C34.2957 19.3153 33.1536 19.0765 32.1116 18.644C31.7789 20.5385 30.8361 22.274 29.4069 23.5969C27.7675 25.1144 25.6337 25.9502 23.3986 25.9502C20.3291 25.9502 17.5235 24.3948 15.8936 21.7897C15.7091 21.4948 15.7986 21.1061 16.0935 20.9216C16.3883 20.7372 16.7769 20.8265 16.9616 21.1215C18.3598 23.3562 20.7662 24.6904 23.3987 24.6904C25.3156 24.6904 27.1455 23.9738 28.5513 22.6725C29.8723 21.4496 30.7088 19.8161 30.928 18.0446C28.3637 16.4937 26.6455 13.6779 26.6455 10.4685C26.6455 10.3939 26.6464 10.3194 26.6482 10.2453C25.7931 9.84011 24.8607 9.59782 23.9116 9.5334C23.9798 9.97524 24.0151 10.4278 24.0151 10.8884C24.0151 13.3992 22.9637 15.6691 21.2781 17.2809H26.9587C28.1216 17.2809 29.0676 18.227 29.0676 19.3898C29.0676 20.4317 28.2199 21.2795 27.178 21.2795H19.6194C18.5775 21.2795 17.7297 20.4317 17.7297 19.3898C17.7297 19.3789 17.7298 19.3681 17.73 19.3571C16.9187 19.603 16.0588 19.7352 15.1682 19.7352C12.3147 19.7352 9.62053 18.3466 7.96133 16.0207C7.85324 15.8692 7.82183 15.6862 7.85929 15.5177C7.92841 15.1793 7.96209 14.782 7.96209 14.3037C7.96209 9.40877 9.66319 5.66584 13.0181 3.17889C15.8235 1.09919 19.7309 0 24.3179 0C29.5727 0 33.9282 1.71832 36.9136 4.9691C39.5702 7.86186 41.0333 11.8881 41.0333 16.3058C41.0333 21.4139 38.9021 24.7622 36.841 28.0002C35.066 30.7888 33.3895 33.4228 33.3895 36.9428V42.3701C33.3894 42.7181 33.1075 43 32.7596 43ZM26.5481 20.0195H27.178C27.5253 20.0195 27.8078 19.737 27.8078 19.3896C27.8078 18.9214 27.4269 18.5405 26.9587 18.5405H26.5481V20.0195ZM24.0285 20.0195H25.2883V18.5405H24.0285V20.0195ZM21.509 20.0195H22.7688V18.5405H21.509V20.0195ZM19.8387 18.5405C19.3704 18.5405 18.9896 18.9214 18.9896 19.3896C18.9896 19.737 19.2721 20.0195 19.6195 20.0195H20.2493V18.5405H19.8387ZM9.14181 15.4984C10.5744 17.3673 12.8077 18.4753 15.1683 18.4753C19.3518 18.4753 22.7554 15.0718 22.7554 10.8882C22.7554 6.70456 19.3519 3.30092 15.1683 3.30092C15.1658 3.30092 15.1634 3.30092 15.161 3.30092C14.6681 3.57169 14.2032 3.86849 13.7683 4.19082C10.7516 6.42707 9.22194 9.82953 9.22194 14.3035C9.22194 14.7502 9.19556 15.144 9.14181 15.4984ZM30.4505 3.34921C30.6381 3.34921 30.8238 3.43269 30.948 3.59235C31.1617 3.86698 31.1123 4.26263 30.8377 4.4762C28.9741 5.92619 27.9053 8.11029 27.9053 10.4683C27.9053 14.6518 31.3088 18.0555 35.4925 18.0555C37.033 18.0555 38.5059 17.6004 39.7678 16.7372C39.7716 16.5949 39.7734 16.4512 39.7734 16.3059C39.7734 12.2045 38.4282 8.48099 35.9856 5.82121C33.2452 2.83708 29.2106 1.25977 24.3179 1.25977C21.74 1.25977 19.4003 1.62149 17.3825 2.32175C20.345 3.08794 22.7103 5.35451 23.6163 8.25877C24.7031 8.28556 25.7793 8.51333 26.7786 8.92544C27.1532 6.78073 28.3049 4.8506 30.0642 3.48199C30.1791 3.39255 30.3154 3.34921 30.4505 3.34921ZM18.1122 43C17.7642 43 17.4823 42.7181 17.4823 42.3701V37.8976C15.6986 38.2094 11.2401 38.8736 9.04548 38.1654C7.15936 37.5569 5.984 35.0546 5.00836 29.5481C4.02893 29.1767 3.47245 28.111 3.75472 27.0807L4.40065 24.7234C4.13307 24.4935 3.73465 24.1348 3.34026 23.7209C2.32556 22.6558 1.88036 21.7947 1.97929 21.0883C2.13626 19.967 2.99416 19.4512 4.55165 18.5145C5.14962 18.155 5.89372 17.7075 6.78211 17.1222C7.07244 16.9308 7.46322 17.0112 7.65462 17.3017C7.84602 17.5922 7.76565 17.9828 7.47514 18.1742C6.56526 18.7738 5.80873 19.2287 5.20093 19.5941C3.75733 20.4624 3.29726 20.7609 3.22696 21.263C3.20387 21.4281 3.39199 21.9466 4.24359 22.8427C4.855 23.486 5.50042 24.0006 5.5068 24.0058C5.70433 24.1626 5.78933 24.4223 5.72264 24.6655L4.96964 27.4137C4.91329 27.6192 4.94033 27.8344 5.0459 28.0195C5.15138 28.2046 5.32271 28.3376 5.52822 28.3939L8.27636 29.147C8.61179 29.239 8.80932 29.5855 8.71736 29.921C8.62531 30.2565 8.27921 30.4539 7.94336 30.362L6.35824 29.9277C7.1838 34.3146 8.16642 36.5581 9.43223 36.9666C11.4347 37.6127 16.287 36.8654 17.9878 36.5229C18.1726 36.4857 18.365 36.5333 18.5111 36.653C18.6572 36.7726 18.742 36.9515 18.742 37.1404V42.3701C18.7421 42.7181 18.4601 43 18.1122 43ZM34.0239 27.4066C33.6534 27.4066 33.352 27.1052 33.352 26.7347C33.352 26.3643 33.6534 26.0629 34.0239 26.0629C34.3943 26.0629 34.6957 26.3643 34.6957 26.7347C34.6957 27.1052 34.3943 27.4066 34.0239 27.4066ZM34.0239 25.181C33.6759 25.181 33.394 24.8991 33.394 24.5512V23.7378C33.394 23.3898 33.6759 23.1079 34.0239 23.1079C34.1981 23.1079 34.3604 23.0381 34.4806 22.9114C34.6007 22.7848 34.6619 22.6188 34.6528 22.4436C34.6362 22.1218 34.36 21.8547 34.0371 21.8482C33.7168 21.839 33.444 22.0744 33.4 22.3893C33.396 22.4183 33.394 22.4484 33.394 22.478C33.394 22.8259 33.112 23.1079 32.7641 23.1079C32.4161 23.1079 32.1342 22.8259 32.1342 22.478C32.1342 22.3908 32.1403 22.3026 32.1523 22.2159C32.2828 21.2815 33.0838 20.5884 34.0239 20.5884C34.0368 20.5884 34.0496 20.5884 34.0626 20.5888C35.048 20.6086 35.8599 21.3947 35.911 22.3784C35.9381 22.9019 35.7547 23.3992 35.3942 23.7788C35.1878 23.9964 34.9326 24.16 34.6538 24.2588V24.5512C34.6537 24.8991 34.3718 25.181 34.0239 25.181ZM26.1701 16.0209H25.4143C25.0663 16.0209 24.7844 15.739 24.7844 15.3911V13.2736C24.7844 12.9256 25.0663 12.6437 25.4143 12.6437C25.7622 12.6437 26.0442 12.9256 26.0442 13.2736V14.7612H26.1701C26.5181 14.7612 26.8 15.0431 26.8 15.3911C26.8 15.739 26.5181 16.0209 26.1701 16.0209ZM37.9196 15.6266C37.7584 15.6266 37.5971 15.5651 37.4741 15.4421C35.9683 13.9363 33.5182 13.9363 32.0124 15.4421C31.7663 15.6881 31.3675 15.6879 31.1216 15.4421C30.8756 15.196 30.8756 14.7973 31.1216 14.5513C32.0891 13.5839 33.3752 13.0512 34.7434 13.0512C36.1114 13.0512 37.3976 13.584 38.365 14.5513C38.611 14.7974 38.611 15.1961 38.365 15.4421C38.242 15.5651 38.0807 15.6266 37.9196 15.6266ZM15.1682 15.5358C13.1163 15.5358 11.343 14.145 10.8559 12.1536C10.7732 11.8158 10.9801 11.4748 11.318 11.3921C11.656 11.3094 11.9969 11.5164 12.0795 11.8543C12.4283 13.2803 13.6984 14.2762 15.1681 14.2762C16.6378 14.2762 17.9079 13.2803 18.2566 11.8543C18.3393 11.5164 18.6803 11.3097 19.0181 11.3921C19.356 11.4748 19.5629 11.8158 19.4803 12.1536C18.9933 14.1451 17.2201 15.5358 15.1682 15.5358ZM35.8432 11.8812C35.8431 11.8812 35.8431 11.8812 35.8432 11.8812C35.2734 11.8811 34.7392 11.6511 34.339 11.2332C34.0984 10.982 34.1069 10.5833 34.3582 10.3426C34.6093 10.102 35.0081 10.1105 35.2488 10.3618C35.4091 10.5292 35.6202 10.6214 35.8432 10.6214C36.0663 10.6214 36.2775 10.5292 36.4378 10.3617C36.6783 10.1105 37.077 10.1019 37.3284 10.3426C37.5796 10.5832 37.5882 10.982 37.3475 11.2332C36.9473 11.6511 36.413 11.8812 35.8432 11.8812ZM31.3379 11.8812C31.3378 11.8812 31.3378 11.8812 31.3379 11.8812C30.768 11.8811 30.2338 11.6511 29.8336 11.2332C29.593 10.982 29.6016 10.5833 29.8529 10.3426C30.104 10.102 30.5028 10.1105 30.7434 10.3618C30.9038 10.5292 31.1149 10.6214 31.3379 10.6214C31.5609 10.6214 31.7722 10.5292 31.9325 10.3617C32.1729 10.1105 32.5717 10.1019 32.8231 10.3426C33.0742 10.5832 33.0828 10.982 32.8422 11.2332C32.4418 11.6511 31.9076 11.8812 31.3379 11.8812ZM16.428 11.3366C16.08 11.3366 15.7981 11.0547 15.7981 10.7067V8.58925C15.7981 8.2413 16.08 7.95937 16.428 7.95937C16.7759 7.95937 17.0578 8.2413 17.0578 8.58925V10.7067C17.0578 11.0547 16.7759 11.3366 16.428 11.3366ZM13.9084 11.3366C13.5605 11.3366 13.2785 11.0547 13.2785 10.7067V8.58925C13.2785 8.2413 13.5605 7.95937 13.9084 7.95937C14.2564 7.95937 14.5383 8.2413 14.5383 8.58925V10.7067C14.5383 11.0547 14.2564 11.3366 13.9084 11.3366ZM26.2839 5.78283C26.1226 5.78283 25.9614 5.72135 25.8384 5.5984L25.2034 4.96331L24.5684 5.5984C24.3223 5.84431 23.9236 5.84431 23.6776 5.5984C23.4316 5.35232 23.4316 4.95357 23.6776 4.70758L24.3127 4.07257L23.6776 3.43756C23.4316 3.19149 23.4316 2.79273 23.6776 2.54674C23.9236 2.30084 24.3224 2.30084 24.5684 2.54674L25.2034 3.18183L25.8384 2.54674C26.0843 2.30084 26.4831 2.30075 26.7292 2.54674C26.9752 2.79282 26.9752 3.19157 26.7292 3.43756L26.0941 4.07257L26.7292 4.70758C26.9752 4.95365 26.9752 5.35241 26.7292 5.5984C26.6063 5.72135 26.445 5.78283 26.2839 5.78283Z" fill="#8E6F63"/>
</svg>
