<svg width="43" height="43" viewBox="0 0 43 43" fill="none" xmlns="http://www.w3.org/2000/svg">
<path d="M38.9953 15.6448C39.3264 16.2077 39.3962 16.7925 39.2743 17.4422C39.1252 18.2363 38.657 19.1168 37.9533 19.9854C36.5792 21.682 34.3121 23.2826 32.1248 24.3074L30.3657 23.6533C29.9925 23.5162 29.6012 23.8148 29.639 24.2109L29.8181 26.1368C28.7384 26.7489 27.2123 27.4956 25.4785 28.0331C29.3255 22.6223 34.7254 17.803 38.9953 15.6448ZM36.9924 14.0954C37.4602 14.1819 37.8806 14.4413 38.2786 14.7939C33.8496 17.0963 28.5664 21.8244 24.714 27.2142C25.112 24.1431 27.133 20.3237 29.8353 17.5765C31.4631 15.9267 33.2596 14.7074 34.8348 14.2273C35.5739 14.0003 36.2982 13.9683 36.9924 14.0954ZM34.5314 13.1867C32.6724 13.727 30.7761 15.0806 29.0642 16.8197C25.64 20.296 22.8951 25.3351 23.3753 29.2046C22.7384 30.2171 22.156 31.2428 21.651 32.2725C21.3299 32.9218 22.3032 33.4019 22.6242 32.7531C23.1445 31.6929 23.7566 30.6327 24.4283 29.585C27.133 29.0379 29.3208 27.7063 30.6614 26.9548C30.8482 26.8502 30.9548 26.6461 30.9352 26.4321L30.7985 24.9687L32.0083 25.4192C32.1425 25.4689 32.2916 25.4636 32.4211 25.4073C34.8076 24.3218 37.2366 22.5955 38.7941 20.6691C39.5734 19.7055 40.1429 18.6883 40.3393 17.6434C40.5356 16.598 40.3216 15.5158 39.5901 14.6071C38.9403 13.7987 38.1439 13.2966 37.2705 13.0873C36.3355 12.8632 35.3828 12.9377 34.5314 13.1867Z" fill="#8E6F63"/>
<path fill-rule="evenodd" clip-rule="evenodd" d="M3.88882 36.4606H22.9975C23.1371 37.6627 23.7391 38.7253 24.6225 39.4644H7.21367C5.45163 39.4644 4.18026 38.1305 3.88882 36.4606ZM35.6811 3.53889C37.5822 3.58905 38.8139 4.90055 39.0977 6.53742H32.2722C32.5259 4.85803 33.9344 3.58428 35.6811 3.53889ZM11.1754 2.44955C8.6193 2.44955 6.54431 4.52693 6.54431 7.08257V35.3785H3.12246C2.82624 35.3785 2.58496 35.6202 2.58496 35.916C2.58496 38.4711 4.65756 40.549 7.21367 40.549H27.5962C30.2215 40.549 32.2268 38.3593 32.2268 35.916V28.4655C32.232 28.1626 31.9836 27.9132 31.6773 27.918C31.3787 27.9232 31.1398 28.1669 31.1446 28.4655V35.9165C31.1446 37.8921 29.5718 39.4649 27.5962 39.4649C25.6655 39.4649 24.1098 37.9618 24.0496 36.0507C24.0401 35.6776 23.8657 35.3637 23.5049 35.3785H7.62647V7.08257C7.62647 5.10934 9.19932 3.53411 11.1754 3.53411H32.8025C31.7891 4.38264 31.1446 5.65688 31.1446 7.08257V12.3458C31.1145 13.0968 32.2569 13.0968 32.2268 12.3458V7.62054H39.8669C40.1627 7.62054 40.4039 7.37927 40.4068 7.08304C40.4068 4.52741 38.3065 2.45003 35.5688 2.45003H11.1754V2.44955Z" fill="#8E6F63"/>
<path d="M13.4495 12.7834C12.7252 12.7834 12.7252 13.8708 13.4495 13.8708H27.3595C28.0833 13.8708 28.0833 12.7834 27.3595 12.7834H13.4495Z" fill="#8E6F63"/>
<path d="M11.0558 16.3773C10.3343 16.3773 10.3864 17.4618 11.1079 17.4618H13.9893C14.7414 17.4618 14.7414 16.3773 13.9893 16.3773H11.0558Z" fill="#8E6F63"/>
<path d="M11.0558 19.9678C10.3343 19.9678 10.3864 21.0504 11.1079 21.0504H23.1641C23.9008 21.0504 23.9204 19.9678 23.1641 19.9678C22.8034 19.9678 15.0921 19.9678 11.0558 19.9678Z" fill="#8E6F63"/>
<path d="M15.4256 23.8125C14.8341 24.1679 14.2412 24.8177 13.634 25.5616C12.4199 27.0523 11.2475 28.9634 11.0286 30.4712C10.8695 31.5677 11.4242 32.3327 11.9942 32.6485C12.5637 32.9619 13.1409 32.9648 13.1409 32.9648C13.8652 32.9762 13.8829 31.8893 13.1586 31.8797C13.1586 31.8797 12.8103 31.8616 12.5188 31.7025C12.2302 31.541 11.9914 31.3695 12.1008 30.6256C12.2498 29.5854 13.3396 27.627 14.4715 26.2458C15.6865 24.7656 16.6616 23.9118 16.3731 26.2013C16.2756 26.9825 16.052 27.8855 15.8227 28.7536C15.5938 29.6227 15.3549 30.4488 15.2106 31.1158C15.139 31.4516 15.0993 31.7426 15.084 32.0116C15.0592 32.4019 15.2235 32.681 15.4572 32.8797C15.7261 33.1086 16.1385 33.1067 16.4624 33.014C16.7863 32.9218 17.0654 32.7349 17.3434 32.4961C17.7639 32.1306 18.2092 31.5008 18.6621 30.8692C18.6721 31.3546 18.675 31.9046 18.6621 32.4072C18.6554 32.713 18.8991 32.9648 19.2025 32.9648H20.5264C21.2507 32.9648 21.2507 31.8797 20.5264 31.8797H19.7452C19.7624 31.3422 19.7767 30.7699 19.7428 30.2921C19.6606 29.2066 18.7624 28.8683 18.1872 29.7445C17.5928 30.6528 17.1451 31.4884 16.1767 31.9662C16.2914 30.971 16.6425 29.896 16.8709 29.0279C17.105 28.1464 17.3334 27.2066 17.4457 26.338C17.5603 25.4694 17.6621 24.6256 17.2617 23.9964C16.7644 23.2124 16.0625 23.4312 15.4256 23.8125Z" fill="#8E6F63"/>
<path d="M16.3364 16.3773C15.6121 16.3773 15.6665 17.4618 16.3884 17.4618H25.3367C26.0888 17.4618 26.0888 16.3773 25.3367 16.3773H16.3364Z" fill="#8E6F63"/>
</svg>
