<svg width="43" height="43" viewBox="0 0 43 43" fill="none" xmlns="http://www.w3.org/2000/svg">
<g clip-path="url(#clip0_90_615)">
<path d="M0.0943243 39.775C0.290717 40.1185 0.728285 40.2378 1.07186 40.0416C3.6849 38.6454 6.41241 37.4749 9.22466 36.5428C12.0483 35.5323 12.8997 35.227 12.8997 34.4V30.8661L13.5096 22.0812C13.5884 20.5071 13.9946 18.9667 14.7021 17.5583C14.7122 17.5368 14.7222 17.5146 14.7308 17.4917L18.0848 8.6473C18.3938 8.06757 19.0573 7.77206 19.6948 7.93023C20.3324 8.0884 20.7809 8.65975 20.7831 9.31666V9.38833C20.7549 9.56691 20.7095 9.74235 20.6476 9.91221C20.5566 10.1989 20.4326 10.5572 20.2893 10.9786C19.5518 13.1243 18.2109 17.0423 17.963 20.4386C17.0529 20.9394 16.4862 21.8946 16.4831 22.9333V31.5333C16.4831 31.9291 16.8039 32.25 17.1997 32.25C17.5955 32.25 17.9164 31.9291 17.9164 31.5333V22.9333C17.9164 22.1417 18.5581 21.5 19.3497 21.5C20.1413 21.5 20.7831 22.1417 20.7831 22.9333V35.1167C20.7831 36.8402 19.6873 38.7 17.9164 38.7C17.2972 38.7 15.4754 39.7033 12.502 41.6871C12.1727 41.9067 12.0838 42.3518 12.3035 42.6811C12.5231 43.0104 12.9682 43.0993 13.2975 42.8796C14.7648 41.8477 16.309 40.9296 17.9164 40.1333C19.4401 40.1025 20.8207 39.2281 21.4997 37.8636C22.1602 39.2173 23.518 40.0918 25.0236 40.1333H25.0293C26.662 40.9159 28.2252 41.8358 29.702 42.8832C30.0313 43.1029 30.4763 43.014 30.696 42.6847C30.9157 42.3554 30.8268 41.9103 30.4975 41.6906C27.524 39.7033 25.7023 38.7 25.0831 38.7C23.3122 38.7 22.2164 36.8402 22.2164 35.1167V22.9333C22.2164 22.1417 22.8581 21.5 23.6497 21.5C24.4413 21.5 25.0831 22.1417 25.0831 22.9333V31.5333C25.0831 31.9291 25.4039 32.25 25.7997 32.25C26.1955 32.25 26.5164 31.9291 26.5164 31.5333V22.9333C26.5126 21.8966 25.9477 20.9433 25.0401 20.4422C24.7942 17.043 23.4512 13.125 22.7138 10.9822C22.5704 10.5601 22.445 10.1996 22.3511 9.9072C22.2895 9.73901 22.2444 9.56524 22.2164 9.38833V9.31666C22.2186 8.65975 22.667 8.0884 23.3046 7.93023C23.9422 7.77206 24.6057 8.06757 24.9146 8.6473L28.2686 17.4867C28.2772 17.5096 28.2873 17.5318 28.2973 17.5533C29.0072 18.9663 29.4141 20.5119 29.492 22.0912L30.0997 30.8167V34.4C30.0997 35.227 30.9511 35.5323 33.7748 36.5428C36.586 37.4741 39.3125 38.6437 41.9247 40.0387C42.2683 40.2349 42.7059 40.1156 42.9023 39.7721C43.0985 39.4286 42.9791 38.991 42.6357 38.7946C39.9509 37.3563 37.1475 36.1515 34.2564 35.1933C33.33 34.8879 32.4209 34.5324 31.5331 34.1284V31.5039C36.6647 27.2706 38.5871 20.2718 36.338 14.0111C34.0888 7.75045 28.1522 3.57504 21.4997 3.57504C14.8473 3.57504 8.91063 7.75045 6.6615 14.0111C4.41238 20.2718 6.33478 27.2706 11.4664 31.5039V34.1298C10.5785 34.5337 9.6694 34.8892 8.74306 35.1948C5.85003 36.1521 3.04469 37.3565 0.358058 38.7946C0.192826 38.8894 0.0721373 39.0461 0.0226517 39.23C-0.0268339 39.414 -0.00104404 39.6101 0.0943243 39.775ZM23.5695 20.0745C22.7724 20.0978 22.0216 20.4542 21.4997 21.0571C20.9778 20.4542 20.2271 20.0978 19.43 20.0745C19.8254 17.2696 20.5192 14.5148 21.4997 11.8572C22.4802 14.5148 23.1741 17.2696 23.5695 20.0745ZM7.16639 19.35C7.16351 12.8305 11.5608 7.13029 17.8675 5.47817C24.1743 3.82606 30.8014 6.63826 33.9953 12.3219C37.1892 18.0055 36.145 25.1286 31.4542 29.6564L30.9232 22.0074C30.8342 20.2474 30.3824 18.5248 29.5959 16.9477L26.2398 8.09833C26.2316 8.07579 26.222 8.05377 26.2111 8.0324C25.7837 7.18149 24.9617 6.59832 24.0174 6.47608C23.0731 6.35384 22.1297 6.70847 21.4997 7.42251C20.8696 6.70858 19.926 6.35418 18.9817 6.47671C18.0373 6.59924 17.2155 7.18272 16.7884 8.03383C16.7775 8.05521 16.7679 8.07722 16.7597 8.09976L13.4014 16.9477C12.6165 18.5207 12.1649 20.2389 12.0748 21.9945L11.5445 29.6578C8.73803 26.9644 7.15606 23.2398 7.16639 19.35Z" fill="#8E6F63"/>
<path d="M22.2165 1.43333V0.716667C22.2165 0.320863 21.8957 0 21.4999 0C21.1041 0 20.7832 0.320863 20.7832 0.716667V1.43333C20.7832 1.82914 21.1041 2.15 21.4999 2.15C21.8957 2.15 22.2165 1.82914 22.2165 1.43333Z" fill="#8E6F63"/>
<path d="M12.5412 4.55012C12.7971 4.54986 13.0335 4.41316 13.1613 4.19147C13.2892 3.96978 13.2891 3.69674 13.1611 3.47512L12.8028 2.85448C12.6036 2.51463 12.1674 2.39931 11.8262 2.59629C11.4851 2.79327 11.3668 3.22868 11.5615 3.57115L11.9199 4.19178C12.048 4.41374 12.2849 4.55037 12.5412 4.55012Z" fill="#8E6F63"/>
<path d="M5.00375 10.654L5.6251 11.0123C5.84695 11.1424 6.12149 11.1436 6.3445 11.0155C6.5675 10.8874 6.70478 10.6496 6.70421 10.3925C6.70365 10.1353 6.56533 9.89814 6.34176 9.77103L5.72041 9.4127C5.37795 9.21799 4.94253 9.3362 4.74555 9.67737C4.54857 10.0185 4.66389 10.4547 5.00375 10.654Z" fill="#8E6F63"/>
<path d="M3.58275 20.0667C3.97855 20.0667 4.29941 19.7458 4.29941 19.35C4.29941 18.9542 3.97855 18.6333 3.58275 18.6333H2.86608C2.47028 18.6333 2.14941 18.9542 2.14941 19.35C2.14941 19.7458 2.47028 20.0667 2.86608 20.0667H3.58275Z" fill="#8E6F63"/>
<path d="M4.74164 29.025C4.93955 29.3678 5.37784 29.4852 5.72061 29.2873L6.34196 28.929C6.56552 28.8019 6.70384 28.5647 6.70441 28.3075C6.70497 28.0504 6.5677 27.8126 6.34469 27.6845C6.12169 27.5564 5.84715 27.5576 5.62529 27.6877L5.00394 28.046C4.66118 28.2439 4.54375 28.6822 4.74164 29.025Z" fill="#8E6F63"/>
<path d="M37.9954 28.046L37.374 27.6877C37.1522 27.5576 36.8776 27.5564 36.6546 27.6845C36.4316 27.8126 36.2944 28.0504 36.2949 28.3075C36.2955 28.5647 36.4338 28.8019 36.6574 28.929L37.2787 29.2873C37.6212 29.482 38.0566 29.3638 38.2536 29.0226C38.4506 28.6815 38.3352 28.2453 37.9954 28.046Z" fill="#8E6F63"/>
<path d="M40.1325 20.0667C40.5284 20.0667 40.8492 19.7458 40.8492 19.35C40.8492 18.9542 40.5284 18.6333 40.1325 18.6333H39.4159C39.0201 18.6333 38.6992 18.9542 38.6992 19.35C38.6992 19.7458 39.0201 20.0667 39.4159 20.0667H40.1325Z" fill="#8E6F63"/>
<path d="M38.2577 9.67499C38.0598 9.33223 37.6215 9.2148 37.2787 9.41269L36.6574 9.77102C36.4338 9.89813 36.2955 10.1353 36.2949 10.3925C36.2944 10.6496 36.4316 10.8874 36.6546 11.0155C36.8776 11.1436 37.1522 11.1424 37.374 11.0123L37.9954 10.654C38.3381 10.4561 38.4556 10.0178 38.2577 9.67499Z" fill="#8E6F63"/>
<path d="M30.4581 4.55012C30.7144 4.55037 30.9513 4.41374 31.0795 4.19178L31.4378 3.57115C31.6325 3.22868 31.5143 2.79327 31.1731 2.59629C30.832 2.39931 30.3958 2.51463 30.1965 2.85448L29.8382 3.47512C29.7102 3.69674 29.7102 3.96978 29.838 4.19147C29.9659 4.41316 30.2022 4.54986 30.4581 4.55012Z" fill="#8E6F63"/>
</g>
<defs>
<clipPath id="clip0_90_615">
<rect width="43" height="43" fill="white"/>
</clipPath>
</defs>
</svg>
