<svg width="46" height="46" viewBox="0 0 46 46" fill="none" xmlns="http://www.w3.org/2000/svg">
<path d="M14.3238 19.9578C12.8704 18.889 11.1587 18.3966 11.0874 18.3736C11.0168 18.3488 10.9412 18.3418 10.8672 18.3533C10.7933 18.3648 10.7233 18.3944 10.6636 18.4395C10.6039 18.4846 10.5563 18.5438 10.525 18.6117C10.4937 18.6797 10.4797 18.7543 10.4842 18.829V22.5197C10.4842 22.6217 10.5171 22.721 10.5781 22.8028C10.639 22.8845 10.7247 22.9445 10.8225 22.9736C11.8679 23.2985 12.8591 23.7772 13.7635 24.3942C14.1702 24.605 14.5159 24.3249 14.5159 24.0116V20.3392C14.516 20.265 14.4986 20.1918 14.4652 20.1256C14.4319 20.0593 14.3834 20.0019 14.3238 19.9578ZM13.5695 23.1507C12.8909 22.7552 12.1749 22.428 11.4318 22.1736V19.491C12.1844 19.771 12.9017 20.1376 13.5695 20.5835V23.1507Z" fill="#8E6F63"/>
<path d="M10.8533 9.13439C11.0005 9.16767 11.3726 9.25751 11.4126 9.25751C11.9527 9.26427 12.064 8.4609 11.5329 8.32601C11.3773 8.28506 11.2205 8.24663 11.0625 8.21074C10.9403 8.18388 10.8125 8.20645 10.707 8.2735C10.6014 8.34056 10.5266 8.44666 10.499 8.56864C10.4714 8.69062 10.4931 8.81858 10.5595 8.92457C10.6259 9.03057 10.7315 9.106 10.8533 9.13439Z" fill="#8E6F63"/>
<path d="M14.103 10.3058C17.1509 11.6578 19.3247 14.0065 19.3462 14.03C19.4395 14.1066 19.5552 14.1509 19.6758 14.1562C19.7964 14.1615 19.9155 14.1276 20.0152 14.0595C20.0625 14.0184 20.1009 13.9682 20.1282 13.9118C20.1554 13.8554 20.1709 13.794 20.1737 13.7315C20.1764 13.6689 20.1664 13.6064 20.1443 13.5479C20.1222 13.4893 20.0883 13.4358 20.0448 13.3907C19.9516 13.2887 17.722 10.8751 14.4871 9.44015C14.3726 9.3908 14.2432 9.38861 14.1271 9.43408C14.011 9.47954 13.9175 9.56897 13.8669 9.68296C13.8163 9.79694 13.8127 9.92628 13.8569 10.0429C13.9011 10.1595 13.9896 10.254 14.103 10.3058Z" fill="#8E6F63"/>
<path d="M10.8533 12.6323C15.6197 13.7121 19.3151 17.5012 19.3542 17.537C19.3968 17.5826 19.4482 17.6192 19.5053 17.6446C19.5623 17.67 19.6239 17.6836 19.6863 17.6848C19.7488 17.6859 19.8108 17.6745 19.8688 17.6512C19.9267 17.6279 19.9794 17.5932 20.0236 17.5491C20.1109 17.4603 20.1608 17.3414 20.1631 17.2169C20.1654 17.0924 20.12 16.9717 20.0361 16.8797C19.8783 16.7159 16.1113 12.8529 11.0626 11.7086C10.9401 11.6809 10.8116 11.7029 10.7053 11.7699C10.5991 11.8369 10.5238 11.9433 10.4961 12.0658C10.4683 12.1883 10.4904 12.3168 10.5574 12.423C10.6243 12.5292 10.7308 12.6045 10.8533 12.6323Z" fill="#8E6F63"/>
<path d="M11.0626 15.2071C10.9401 15.1793 10.8116 15.2013 10.7053 15.2683C10.5991 15.3353 10.5238 15.4417 10.4961 15.5642C10.4683 15.6867 10.4904 15.8152 10.5574 15.9214C10.6243 16.0277 10.7308 16.103 10.8533 16.1307C15.6197 17.2105 19.3174 20.9972 19.3542 21.0354C19.4481 21.1125 19.5653 21.1556 19.6868 21.1578C19.8083 21.16 19.927 21.1212 20.0236 21.0476C20.0697 21.0052 20.1067 20.9539 20.1324 20.8969C20.1581 20.8398 20.1719 20.7781 20.1731 20.7155C20.1742 20.6529 20.1627 20.5908 20.1391 20.5328C20.1156 20.4748 20.0805 20.4222 20.0361 20.3781C19.8783 20.2139 16.1113 16.3504 11.0626 15.2071Z" fill="#8E6F63"/>
<path d="M16.6048 21.1373C16.4952 21.0784 16.3669 21.065 16.2475 21.1C16.1281 21.1351 16.0273 21.2157 15.9668 21.3244C15.9064 21.4332 15.8912 21.5613 15.9245 21.6812C15.9578 21.8011 16.037 21.903 16.1448 21.965C17.8306 22.9023 19.3334 24.5103 19.3483 24.5264C19.4417 24.6268 19.7894 24.753 20.0175 24.5513C20.0635 24.5093 20.1008 24.4585 20.127 24.402C20.1532 24.3455 20.1679 24.2843 20.1703 24.222C20.1726 24.1598 20.1625 24.0976 20.1406 24.0393C20.1187 23.981 20.0854 23.9276 20.0426 23.8822C19.9772 23.8118 18.4251 22.1494 16.6048 21.1373Z" fill="#8E6F63"/>
<path d="M16.6048 24.6353C16.4952 24.5764 16.3669 24.5631 16.2475 24.5981C16.1281 24.6331 16.0273 24.7137 15.9668 24.8224C15.9064 24.9312 15.8912 25.0593 15.9245 25.1792C15.9578 25.2991 16.037 25.401 16.1448 25.463C17.8306 26.4003 19.3334 28.0083 19.3483 28.0244C19.4417 28.1248 19.796 28.251 20.0175 28.0493C20.0632 28.0071 20.1002 27.9563 20.1262 27.8998C20.1523 27.8433 20.1669 27.7822 20.1692 27.72C20.1716 27.6578 20.1616 27.5958 20.1399 27.5375C20.1181 27.4792 20.0851 27.4258 20.0426 27.3803C19.9773 27.3101 18.4252 25.6473 16.6048 24.6353Z" fill="#8E6F63"/>
<path d="M44.5751 12.7766C44.4508 12.7786 44.3323 12.8294 44.2451 12.918C44.158 13.0066 44.1091 13.1259 44.1091 13.2502V37.6913C36.4352 34.2833 29.0915 35.4678 23.4091 37.7105V13.5204C23.5406 13.4616 24.7867 12.9817 25.0099 12.8908C25.0677 12.8673 25.1202 12.8325 25.1645 12.7887C25.2089 12.7448 25.2441 12.6926 25.2683 12.6351C25.2924 12.5776 25.305 12.5159 25.3053 12.4535C25.3056 12.3912 25.2937 12.3293 25.2701 12.2716C25.2465 12.2138 25.2118 12.1613 25.1679 12.117C25.124 12.0727 25.0719 12.0374 25.0144 12.0133C24.9569 11.9891 24.8952 11.9765 24.8328 11.9762C24.7704 11.9759 24.7086 11.9878 24.6509 12.0114C24.4767 12.0827 23.2608 12.5488 23.1377 12.6031C19.9553 7.67835 14.8872 3.88349 6.08945 3.09296C6.02447 3.08795 5.95916 3.09646 5.89763 3.11796C5.83611 3.13947 5.77971 3.17349 5.732 3.21788C5.68429 3.26227 5.6463 3.31608 5.62042 3.37589C5.59455 3.43571 5.58136 3.50024 5.58169 3.56541V11.1419C4.78048 11.3638 2.79706 11.9561 1.1922 12.8014C1.11686 12.8417 1.05396 12.9019 1.01028 12.9753C0.966604 13.0488 0.943806 13.1328 0.944345 13.2182V42.4205C0.944095 42.4944 0.960717 42.5673 0.992943 42.6338C1.02517 42.7003 1.07215 42.7585 1.1303 42.8041C1.18845 42.8496 1.25624 42.8813 1.32849 42.8967C1.40074 42.9121 1.47555 42.9108 1.54722 42.8928C13.2604 39.6157 21.1958 42.4684 22.9372 42.8793C24.6825 42.4686 32.747 39.6166 44.4529 42.8928C44.8408 42.9648 45.0558 42.7669 45.0558 42.4235V13.25C45.0558 13.1873 45.0433 13.1251 45.019 13.0672C44.9948 13.0093 44.9592 12.9568 44.9145 12.9127C44.8698 12.8687 44.8167 12.834 44.7585 12.8106C44.7002 12.7872 44.6379 12.7757 44.5751 12.7766ZM1.8914 13.5072C3.08095 12.9453 4.31534 12.4837 5.58169 12.1272V28.7468C5.58158 28.8665 5.62681 28.9818 5.70829 29.0695C5.78978 29.1572 5.90145 29.2108 6.02085 29.2195C14.0604 29.9525 18.556 33.1316 21.779 37.4318C15.8987 35.3668 9.55068 34.3985 1.89073 37.6915L1.8914 13.5072ZM22.4621 41.7741C16.5061 40.1124 10.4761 39.6797 1.8914 41.8154V40.8025C11.0887 36.7909 20.9814 40.2334 22.4621 40.7928V41.7741ZM22.4621 39.7813C16.9224 37.8861 9.2694 36.7815 1.8914 39.7723V38.7365C9.28915 35.1569 17.2397 36.475 22.4621 38.7428V39.7813ZM22.4621 36.7508C21.8467 35.8915 17.5374 29.1083 6.52875 28.3098V4.07926C14.6193 4.84935 19.7993 8.85812 22.4621 13.3343V36.7508ZM44.1091 41.8152C36.9414 39.7163 28.2506 40.2532 23.4091 41.7764V40.8038C24.8027 40.2781 34.8511 36.7647 44.1091 40.8024V41.8152ZM44.1091 39.7723C36.7441 36.7716 28.9299 37.8999 23.4091 39.7928V38.7446C25.1003 37.9933 34.6503 34.1626 44.1091 38.7363V39.7723Z" fill="#8E6F63"/>
<path d="M39.6964 23.1839C39.9303 22.8723 40.2471 22.6328 40.6106 22.4926C40.7066 22.4623 40.7903 22.4022 40.8498 22.321C40.9093 22.2398 40.9414 22.1418 40.9414 22.0412C40.9456 21.6239 40.5355 21.604 40.2471 21.4093C40.0377 21.2693 39.8519 21.0968 39.6965 20.8985C36.4173 16.9901 32.3932 16.9825 29.1076 20.8985C28.8738 21.21 28.5571 21.4496 28.1937 21.5898C27.762 21.7116 27.7599 22.3716 28.1937 22.4928C28.5572 22.633 28.8739 22.8725 29.1077 23.1841C32.282 26.9567 36.2644 27.2408 39.6964 23.1839ZM34.4458 25.1448C34.2745 25.1376 32.0724 25.3506 29.8458 22.5913C29.6842 22.388 29.5004 22.2035 29.2978 22.0412C29.5004 21.8789 29.6842 21.6944 29.8458 21.4913C32.089 18.7293 34.2438 18.9466 34.4425 18.9381C34.5372 18.9294 36.7831 18.7828 38.9574 21.4912C39.119 21.6944 39.3028 21.8788 39.5054 22.0412C39.3028 22.2035 39.119 22.388 38.9574 22.5911C36.7839 25.3 34.5375 25.1524 34.4458 25.1448Z" fill="#8E6F63"/>
<path d="M34.4017 20.2136C33.5923 20.2136 32.958 21.0165 32.958 22.0412C33.0106 24.4663 35.7932 24.4659 35.8454 22.0412C35.8454 21.0165 35.2113 20.2136 34.4017 20.2136ZM34.4017 22.9217C33.7523 22.8617 33.7523 21.2201 34.4017 21.1607C35.0513 21.2206 35.0507 22.8623 34.4017 22.9217Z" fill="#8E6F63"/>
<path d="M30.6565 11.368C30.7704 11.4207 30.9006 11.426 31.0185 11.3829C31.1364 11.3398 31.2324 11.2517 31.2854 11.138C31.5501 10.5794 32.0037 10.1323 32.5661 9.8758C32.6782 9.82173 32.7646 9.72568 32.8064 9.60844C32.8482 9.4912 32.8422 9.36221 32.7897 9.24937C32.7371 9.13652 32.6423 9.04891 32.5256 9.00549C32.4089 8.96207 32.2799 8.96634 32.1663 9.01736C31.9686 9.10939 31.7795 9.21882 31.6012 9.34436C30.9897 8.67425 30.0474 8.72093 29.5561 8.87476C27.268 9.49562 25.5929 12.1571 26.9731 14.2877C27.2586 14.7348 27.6524 15.1026 28.1179 15.357C28.5834 15.6114 29.1056 15.7442 29.6361 15.7431H40.3707C41.6853 15.7689 42.8364 14.5621 42.7175 13.2469C42.5892 11.293 41.702 10.0306 40.2063 9.65121C40.1384 9.27553 39.9966 8.91709 39.789 8.59671C39.5813 8.27633 39.3121 8.00042 38.997 7.78499C38.6818 7.56957 38.3269 7.41893 37.953 7.34184C37.5791 7.26475 37.1936 7.26274 36.819 7.33592C35.2523 4.79984 31.4221 4.79645 29.8539 7.34566C29.7868 7.45184 29.7646 7.58032 29.7922 7.70285C29.8199 7.82537 29.895 7.9319 30.0012 7.999C30.1074 8.0661 30.2359 8.08827 30.3584 8.06064C30.4809 8.03301 30.5875 7.95784 30.6546 7.85167C31.8208 5.9516 34.6522 5.878 35.9184 7.69554C35.648 7.85671 35.402 8.05566 35.1879 8.28636C34.7771 8.74636 35.4599 9.38225 35.8871 8.92536C37.0284 7.69229 38.7756 8.19558 39.2219 9.60886C38.8417 9.67883 38.4841 9.83982 38.1796 10.0781C37.8751 10.3163 37.6329 10.6247 37.4735 10.977C37.151 10.8603 36.811 10.7992 36.468 10.7963C36.4058 10.7973 36.3444 10.8105 36.2874 10.8352C36.2303 10.8599 36.1786 10.8956 36.1353 10.9403C36.0479 11.0305 35.9999 11.1517 36.0019 11.2773C36.0039 11.4029 36.0557 11.5226 36.1459 11.61C36.2361 11.6974 36.3573 11.7454 36.4829 11.7434C36.5317 11.7434 37.7141 11.7468 38.1112 12.777C38.1563 12.8942 38.2462 12.9887 38.361 13.0396C38.4758 13.0905 38.6062 13.0938 38.7234 13.0486C38.8405 13.0034 38.935 12.9135 38.9859 12.7987C39.0368 12.6839 39.0401 12.5536 38.9949 12.4364C38.8509 12.0519 38.6111 11.7105 38.2983 11.4445C38.4068 11.1604 38.6023 10.9178 38.8568 10.7514C39.1113 10.585 39.412 10.5031 39.7157 10.5176C40.9711 10.713 41.6632 11.6519 41.7722 13.3092C41.7854 13.4992 41.7589 13.6899 41.6946 13.8692C41.6302 14.0486 41.5294 14.2126 41.3984 14.3509C41.2672 14.4924 41.1081 14.6052 40.9311 14.682C40.7541 14.7589 40.5631 14.7982 40.3702 14.7974H34.0834C34.3478 14.4466 34.8698 12.8221 33.9626 12.8086C33.8372 12.8142 33.7191 12.8694 33.6344 12.962C33.5496 13.0547 33.5052 13.1772 33.5107 13.3027C33.5507 14.2037 33.1353 14.7059 32.2766 14.7968H29.6361C29.2643 14.7976 28.8983 14.7045 28.5721 14.5261C28.2459 14.3478 27.97 14.09 27.77 13.7766C26.7437 12.1494 28.1454 10.2476 29.8382 9.77879C29.9194 9.7543 30.5324 9.58938 30.9028 9.98918C30.5657 10.4493 30.0668 11.0224 30.6565 11.368Z" fill="#8E6F63"/>
<path d="M33.9287 28.9814V29.7052C33.9287 29.8308 33.9786 29.9512 34.0674 30.04C34.1562 30.1288 34.2767 30.1787 34.4022 30.1787C34.5278 30.1787 34.6483 30.1288 34.7371 30.04C34.8259 29.9512 34.8758 29.8308 34.8758 29.7052V28.9814C34.8758 28.8558 34.8259 28.7353 34.7371 28.6465C34.6483 28.5577 34.5278 28.5078 34.4022 28.5078C34.2767 28.5078 34.1562 28.5577 34.0674 28.6465C33.9786 28.7353 33.9287 28.8558 33.9287 28.9814Z" fill="#8E6F63"/>
<path d="M27.6246 25.6302L26.8788 26.2005C26.3903 26.5877 26.9547 27.3225 27.4541 26.9529L28.1999 26.3824C28.2969 26.3051 28.3598 26.1929 28.375 26.0698C28.3902 25.9468 28.3565 25.8226 28.2811 25.7241C28.2058 25.6256 28.0948 25.5606 27.972 25.5431C27.8493 25.5255 27.7245 25.5568 27.6246 25.6302Z" fill="#8E6F63"/>
<path d="M40.6039 26.3824L41.3496 26.9526C41.8489 27.3221 42.4136 26.5873 41.9249 26.2003L41.1792 25.63C41.0794 25.5537 40.9534 25.5202 40.8289 25.5368C40.7044 25.5534 40.5916 25.6188 40.5153 25.7185C40.439 25.8183 40.4055 25.9443 40.4221 26.0688C40.4387 26.1933 40.5041 26.3061 40.6039 26.3824Z" fill="#8E6F63"/>
</svg>
