<svg width="43" height="43" viewBox="0 0 43 43" fill="none" xmlns="http://www.w3.org/2000/svg">
<g clip-path="url(#clip0_90_583)">
<path d="M36.9536 43H6.04784C5.67681 43 5.37598 42.6992 5.37598 42.3281V38.9688H6.71971V41.6563H36.2818V38.9688H37.6255V42.3281C37.6255 42.6992 37.3247 43 36.9536 43Z" fill="#8E6F63"/>
<path d="M37.625 29.5627H36.2812V1.34437H14.3879L6.52233 9.20992L5.57227 8.25986L13.6346 0.197476C13.7606 0.0715017 13.9315 0.000640869 14.1097 0.000640869H36.9531C37.3241 0.000640869 37.625 0.301471 37.625 0.672506V29.5627Z" fill="#8E6F63"/>
<path d="M6.71971 29.5627H5.37598V8.73487C5.37598 8.36383 5.67681 8.063 6.04784 8.063H13.4384V0.672485H14.7821V8.73487C14.7821 9.1059 14.4813 9.40673 14.1102 9.40673H6.71971V29.5627Z" fill="#8E6F63"/>
<path d="M22.8437 19.4847C19.8751 19.4847 17.4688 17.0784 17.4688 14.1098C17.4688 11.1412 19.8751 8.73486 22.8437 8.73486C25.8123 8.73486 28.2186 11.1412 28.2186 14.1098C28.2153 17.0768 25.8106 19.4814 22.8437 19.4847ZM22.8437 10.0786C20.6171 10.0786 18.8125 11.8832 18.8125 14.1098C18.8125 16.336 20.6171 18.141 22.8437 18.141C25.0699 18.141 26.8749 16.336 26.8749 14.1098C26.8726 11.8842 25.0692 10.0809 22.8437 10.0786Z" fill="#8E6F63"/>
<path d="M23.5156 16.7973H22.1719C21.0588 16.7973 20.1562 15.8948 20.1562 14.7817V13.438C20.1562 12.3248 21.0588 11.4223 22.1719 11.4223H23.5156C24.6287 11.4223 25.5312 12.3248 25.5312 13.438H24.1875C24.1875 13.0669 23.8867 12.7661 23.5156 12.7661H22.1719C21.8008 12.7661 21.5 13.0669 21.5 13.438V14.7817C21.5 15.1527 21.8008 15.4536 22.1719 15.4536H23.5156C23.8867 15.4536 24.1875 15.1527 24.1875 14.7817H25.5312C25.5312 15.8948 24.6287 16.7973 23.5156 16.7973Z" fill="#8E6F63"/>
<path d="M28.2187 29.5627H20.1563C19.7853 29.5627 19.4845 29.2619 19.4845 28.8908V24.8597H14.7814C14.4104 24.8597 14.1095 24.5588 14.1095 24.1878V19.9001L11.7934 18.7456C11.6209 18.6597 11.4939 18.5035 11.4444 18.3168C11.3948 18.1305 11.428 17.9317 11.5349 17.7716L14.1095 13.9021C14.1988 9.95231 16.9282 6.55427 20.7655 5.61537C24.6032 4.67646 28.5933 6.43027 30.4961 9.8926C32.3988 13.3549 31.7404 17.6637 28.8906 20.3997V28.8908C28.8906 29.2619 28.5897 29.5627 28.2187 29.5627ZM20.8282 28.219H27.5468V20.1074C27.5472 19.9168 27.6282 19.735 27.7706 19.6078C30.2979 17.3425 30.957 13.6466 29.3676 10.6475C27.7784 7.64868 24.3502 6.11828 21.0565 6.93777C17.7631 7.75727 15.4516 10.7157 15.4533 14.1098C15.4529 14.2423 15.4139 14.3723 15.3404 14.4828L13.0748 17.8802L15.0816 18.8834C15.3096 18.9972 15.4533 19.2302 15.4533 19.4847V23.5159H20.1563C20.5274 23.5159 20.8282 23.8168 20.8282 24.1878V28.219Z" fill="#8E6F63"/>
<path d="M20.6317 24.6629L19.6816 23.7128L20.8286 22.5659V20.8285H22.1723V22.8441C22.1723 23.0222 22.1014 23.1931 21.9755 23.3191L20.6317 24.6629Z" fill="#8E6F63"/>
<path d="M39.6411 37.6251H6.04784C5.67681 37.6251 5.37598 37.3242 5.37598 36.9532V31.5783C5.37598 31.2073 5.67681 30.9064 6.04784 30.9064H39.6411C41.4963 30.9064 43.0004 32.4106 43.0004 34.2658C43.0004 36.1209 41.4963 37.6251 39.6411 37.6251ZM6.71971 36.2813H39.6411C40.7542 36.2813 41.6567 35.3789 41.6567 34.2658C41.6567 33.1527 40.7542 32.2502 39.6411 32.2502H6.71971V36.2813Z" fill="#8E6F63"/>
<path d="M5.74694 37.5578L0.372019 34.8704C0.144018 34.7569 0 34.5239 0 34.269C0 34.0145 0.144018 33.7815 0.372019 33.6677L5.74694 30.9803L6.34762 32.1829L2.17471 34.2658L6.34762 36.3486L5.74694 37.5578Z" fill="#8E6F63"/>
<path d="M37.625 31.5783H38.9688V36.9533H37.625V31.5783Z" fill="#8E6F63"/>
<path d="M34.9375 31.5783H36.2812V36.9533H34.9375V31.5783Z" fill="#8E6F63"/>
<path d="M3.36035 32.2502H4.7041V36.2814H3.36035V32.2502Z" fill="#8E6F63"/>
<path d="M6.04785 33.5939H33.5943V34.9376H6.04785V33.5939Z" fill="#8E6F63"/>
</g>
<defs>
<clipPath id="clip0_90_583">
<rect width="43" height="43" fill="white"/>
</clipPath>
</defs>
</svg>
