<svg width="43" height="43" viewBox="0 0 43 43" fill="none" xmlns="http://www.w3.org/2000/svg">
<path d="M37.9784 20.4089L37.8628 20.1966L41.4359 16.6235C42.011 16.0484 42.3281 15.2831 42.3281 14.4695C42.3281 12.7891 40.9609 11.4219 39.2805 11.4219C38.9392 11.4219 38.6106 11.4897 38.2969 11.5966V2.6875C38.2969 1.57622 37.3925 0.671875 36.2812 0.671875H15.3382C14.8001 0.671875 14.2935 0.8815 13.9125 1.26245L7.9812 7.19377C7.60025 7.57405 7.39062 8.08064 7.39062 8.61948V10.1124C3.62947 10.453 0.671875 13.6202 0.671875 17.4688V38.9688C0.671875 40.8211 2.17889 42.3281 4.03125 42.3281H12.0938C13.9461 42.3281 15.4531 40.8211 15.4531 38.9688V38.2969H31.5781H32.25H41.7779L40.3105 29.4926C40.2984 26.3274 39.4942 23.1877 37.9784 20.4089ZM38.9526 29.0539L32.4025 30.8404L30.8229 29.5766C30.0221 28.935 29.5625 27.9789 29.5625 26.9529V21.5V20.8281C30.3036 20.8281 30.9062 21.4308 30.9062 22.1719V26.875H32.25V25.8094L36.8685 21.1909C38.1605 23.6097 38.8733 26.3133 38.9526 29.0539ZM29.5625 19.4844C28.8214 19.4844 28.2188 20.087 28.2188 20.8281V21.5C28.2188 21.8702 27.9171 22.1719 27.5469 22.1719C27.1767 22.1719 26.875 21.8702 26.875 21.5V20.8281C26.875 19.346 28.0803 18.1406 29.5625 18.1406H31.3L29.9199 19.5207C29.8017 19.5045 29.6848 19.4844 29.5625 19.4844ZM22.2048 30.9546L23.089 28.7428L25.0072 30.661L22.7947 31.5459C22.5105 31.6614 22.1719 31.4323 22.1719 31.1233C22.1719 31.0648 22.1826 31.0084 22.2048 30.9546ZM26.2031 29.9562L23.7938 27.5469L27.8566 23.484C27.9822 23.4646 28.1025 23.433 28.2188 23.3913V26.9523C28.2188 27.2573 28.2537 27.5556 28.3101 27.8485L26.2031 29.9562ZM25.6549 22.1719H18.1406V19.4844H25.7664C25.6172 19.9056 25.5312 20.3565 25.5312 20.8281V21.5C25.5312 21.7365 25.5796 21.9609 25.6549 22.1719ZM18.1406 23.5156H25.925L23.2375 26.2031H18.1406V23.5156ZM18.1406 27.5469H22.1201L21.0451 30.2344H18.1406V27.5469ZM18.1406 31.5781H20.894C21.0969 32.3488 21.7936 32.9219 22.6274 32.9219C22.8579 32.9219 23.0829 32.8789 23.2952 32.7935L24.8594 32.1674V34.2656H18.1406V31.5781ZM26.2031 31.6299L26.5807 31.4787L28.8181 29.2413C28.8422 29.285 28.8644 29.3294 28.8906 29.3724V34.2656H26.2031V31.6299ZM30.2344 30.8256L31.5781 31.9006V34.2656H30.2344V30.8256ZM40.9844 14.4695C40.9844 14.9244 40.807 15.3523 40.4852 15.6742L32.25 23.9093V22.1719C32.25 21.3307 31.8536 20.5876 31.2462 20.0944L38.0758 13.2648C38.3977 12.943 38.8256 12.7656 39.2805 12.7656C40.2198 12.7656 40.9844 13.5302 40.9844 14.4695ZM14.1094 2.96566V6.71875C14.1094 7.08895 13.8077 7.39062 13.4375 7.39062H9.68441L14.1094 2.96566ZM8.0625 11.4219C11.3963 11.4219 14.1094 14.1349 14.1094 17.4688C14.1094 20.8026 11.3963 23.5156 8.0625 23.5156C4.72866 23.5156 2.01562 20.8026 2.01562 17.4688C2.01562 14.1349 4.72866 11.4219 8.0625 11.4219ZM4.70312 24.0437C5.71228 24.5611 6.85245 24.8594 8.0625 24.8594C9.27255 24.8594 10.4127 24.5611 11.4219 24.0437V27.5469H4.70312V24.0437ZM12.0938 40.9844H4.03125C2.91997 40.9844 2.01562 40.08 2.01562 38.9688V21.7049C2.39792 22.2491 2.84808 22.7423 3.35938 23.1656V27.5469C3.35938 28.288 3.96205 28.8906 4.70312 28.8906H11.4219C12.163 28.8906 12.7656 28.288 12.7656 27.5469V23.1656C13.2769 22.7423 13.7271 22.2491 14.1094 21.7049V38.9688C14.1094 40.08 13.205 40.9844 12.0938 40.9844ZM15.4531 36.9531V17.4688C15.4531 13.6202 12.4955 10.453 8.73438 10.1124V8.73438H13.4375C14.5488 8.73438 15.4531 7.83003 15.4531 6.71875V2.01562H36.2812C36.6515 2.01562 36.9531 2.3173 36.9531 2.6875V12.4875L32.6437 16.7969H29.5625C28.3726 16.7969 27.305 17.3183 26.5659 18.1406H16.7969V35.6094H31.5781V36.9531H15.4531ZM32.9219 36.9531V32.0914L39.0998 30.4064L40.1909 36.9531H32.9219Z" fill="#8E6F63"/>
<path d="M7.39062 20.7307V22.1719H8.73438V20.7307C9.51039 20.4848 10.0781 19.7666 10.0781 18.9106C10.0781 18.1803 9.67231 17.5225 9.01791 17.1953L7.70775 16.5409C7.51223 16.4428 7.39062 16.2459 7.39062 16.0269C7.39062 15.7105 7.64795 15.4531 7.96441 15.4531H8.16059C8.47705 15.4531 8.73438 15.7105 8.73438 16.0269V16.7969H10.0781V16.0269C10.0781 15.1709 9.51039 14.4527 8.73438 14.2068V12.7656H7.39062V14.2068C6.61461 14.4527 6.04688 15.1709 6.04688 16.0269C6.04688 16.7572 6.45269 17.415 7.10709 17.7422L8.41725 18.3966C8.61277 18.4947 8.73438 18.6916 8.73438 18.9106C8.73438 19.227 8.47705 19.4844 8.16059 19.4844H7.96441C7.64795 19.4844 7.39062 19.227 7.39062 18.9106V18.1406H6.04688V18.9106C6.04688 19.7666 6.61461 20.4848 7.39062 20.7307Z" fill="#8E6F63"/>
<path d="M11.4219 30.2344H4.70312C3.96205 30.2344 3.35938 30.837 3.35938 31.5781V38.2969C3.35938 39.038 3.96205 39.6406 4.70312 39.6406H11.4219C12.163 39.6406 12.7656 39.038 12.7656 38.2969V31.5781C12.7656 30.837 12.163 30.2344 11.4219 30.2344ZM11.4219 32.9219H10.0781V31.5781H11.4219V32.9219ZM8.73438 38.2969H7.39062V36.9531H8.73438V38.2969ZM8.73438 35.6094H7.39062V34.2656H8.73438V35.6094ZM6.04688 35.6094H4.70312V34.2656H6.04688V35.6094ZM7.39062 32.9219V31.5781H8.73438V32.9219H7.39062ZM6.04688 31.5781V32.9219H4.70312V31.5781H6.04688ZM4.70312 36.9531H6.04688V38.2969H4.70312V36.9531ZM10.0781 38.2969V34.2656H11.4225L11.4232 38.2969H10.0781Z" fill="#8E6F63"/>
<path d="M35.6094 3.35938H16.7969V7.39062H35.6094V3.35938ZM34.2656 6.04688H18.1406V4.70312H34.2656V6.04688Z" fill="#8E6F63"/>
<path d="M16.7969 8.73438H35.6094V10.0781H16.7969V8.73438Z" fill="#8E6F63"/>
<path d="M16.7969 11.4219H35.6094V12.7656H16.7969V11.4219Z" fill="#8E6F63"/>
<path d="M16.7969 14.1094H27.5469V15.4531H16.7969V14.1094Z" fill="#8E6F63"/>
</svg>
