<svg width="43" height="43" viewBox="0 0 43 43" fill="none" xmlns="http://www.w3.org/2000/svg">
<g clip-path="url(#clip0_95_83)">
<path d="M12.3899 18.368H40.0614C40.8731 18.368 41.6051 18.6989 42.1368 19.2304V19.2354C42.6683 19.7672 42.9995 20.4992 42.9995 21.3058V40.0616C42.9995 40.8678 42.6683 41.6049 42.1368 42.1363C41.6051 42.6684 40.8731 42.999 40.0614 42.999H12.3899C11.5833 42.999 10.8463 42.6684 10.3148 42.1363C9.78305 41.6049 9.45215 40.8725 9.45215 40.0616V21.3058C9.45215 20.4992 9.78305 19.7622 10.3148 19.2304C10.8466 18.6989 11.5833 18.368 12.3899 18.368ZM40.0614 19.7111H12.3899C11.9515 19.7111 11.5551 19.8929 11.2662 20.1818C10.977 20.471 10.7952 20.8674 10.7952 21.3058V40.0616C10.7952 40.5 10.977 40.9007 11.2662 41.19C11.5548 41.4785 11.9515 41.6559 12.3899 41.6559H40.0614C40.4998 41.6559 40.9006 41.4789 41.1898 41.19C41.4787 40.9007 41.6565 40.4996 41.6565 40.0616V21.3058C41.6565 20.8674 41.4791 20.4667 41.1898 20.1774V20.1821C40.9006 19.8932 40.4998 19.7111 40.0614 19.7111Z" fill="#8E6F63"/>
<path d="M20.6159 12.7676H31.8403C32.4792 12.7676 33.0664 13.0287 33.4864 13.4529C33.906 13.8772 34.172 14.4604 34.172 15.099V19.0393V19.7108H33.5001H30.6652H29.994V19.0393V16.8573H22.4626V19.0396V19.7111H21.7907H18.9557H18.2842V19.0396V15.099C18.2842 14.4604 18.5452 13.8725 18.9648 13.4529C19.3891 13.0287 19.9726 12.7676 20.6159 12.7676ZM31.8399 14.1107H20.6159C20.3452 14.1107 20.0982 14.2222 19.9162 14.4043C19.7391 14.5817 19.6276 14.8286 19.6276 15.099V18.3677H21.1195V16.1855V15.5143H21.791H30.6652H31.337V16.1855V18.368H32.8289V15.0994C32.8289 14.8286 32.7171 14.5817 32.54 14.4047H32.535C32.3576 14.2226 32.1107 14.1107 31.8399 14.1107Z" fill="#8E6F63"/>
<path d="M7.41884 36.4475C7.78737 36.4475 8.09038 36.7455 8.09038 37.1187C8.09038 37.4869 7.78737 37.7899 7.41884 37.7899H2.01462C1.46435 37.7899 0.960781 37.5615 0.592258 37.198V37.1933C0.228438 36.8295 0 36.3263 0 35.771V2.01428C0 1.46402 0.228438 0.960445 0.592258 0.592258C0.955742 0.228438 1.45931 0 2.01462 0H20.9047C21.194 0 21.4644 0.0561016 21.7167 0.167969C21.9639 0.279836 22.1877 0.442766 22.3882 0.652727V0.65743V0.652727L27.4572 6.0761C27.471 6.09021 27.4804 6.10398 27.4945 6.11809C27.6571 6.29984 27.774 6.50073 27.858 6.71035C27.9419 6.93913 27.9886 7.18134 27.9886 7.43799V10.7302C27.9886 11.1031 27.6856 11.4017 27.3171 11.4017C26.9442 11.4017 26.6409 11.1031 26.6409 10.7302V7.43799C26.6409 7.3446 26.6318 7.26095 26.6036 7.18604C26.5757 7.12557 26.5431 7.06947 26.5011 7.01337C26.4917 7.0043 26.482 6.99959 26.4729 6.99019L21.4086 1.56681C21.3384 1.49223 21.2595 1.43613 21.1755 1.39414C21.0965 1.36155 21.0079 1.34308 20.9051 1.34308H2.01462C1.83288 1.34308 1.66491 1.41766 1.54363 1.54363L1.53893 1.53893C1.41766 1.65987 1.34308 1.83254 1.34308 2.01428V35.771C1.34308 35.9574 1.41766 36.1254 1.53893 36.2467L1.54363 36.2514C1.66491 36.3683 1.83254 36.4475 2.01462 36.4475H7.41884Z" fill="#8E6F63"/>
<path d="M23.7916 30.6093L12.269 28.4216C11.4903 28.2772 10.7717 27.9369 10.2547 27.4192C9.75987 26.925 9.45215 26.277 9.45215 25.498H10.7952C10.7952 25.8944 10.9541 26.2209 11.2057 26.4729C11.5276 26.7897 11.9986 27.009 12.5162 27.1068L24.0389 29.2937L23.7916 30.6093ZM42.9992 25.498C42.9992 26.2767 42.6915 26.9203 42.197 27.4145V27.4192C41.6793 27.9369 40.9614 28.2775 40.1874 28.4216L28.6644 30.6274L28.4128 29.3126L39.9354 27.1068C40.4578 27.0043 40.9288 26.79 41.2503 26.4729C41.5023 26.2209 41.6561 25.8941 41.6561 25.498H42.9992Z" fill="#8E6F63"/>
<path d="M17.1134 6.00119C17.4863 6.00119 17.785 6.29984 17.785 6.67273C17.785 7.04125 17.4863 7.34427 17.1134 7.34427H7.74079C7.36756 7.34427 7.06891 7.04125 7.06891 6.67273C7.06891 6.29984 7.36756 6.00119 7.74079 6.00119H17.1134ZM4.54132 6.00119C4.91455 6.00119 5.2179 6.29984 5.2179 6.67273C5.2179 7.04125 4.91488 7.34427 4.54132 7.34427H4.03809C3.66923 7.34427 3.36621 7.04125 3.36621 6.67273C3.36621 6.29984 3.66923 6.00119 4.03809 6.00119H4.54132Z" fill="#8E6F63"/>
<path d="M12.6972 12.0961C13.0657 12.0961 13.3688 12.3988 13.3688 12.7676C13.3688 13.1405 13.0657 13.4388 12.6972 13.4388H7.74045C7.36756 13.4388 7.06891 13.1405 7.06891 12.7676C7.06891 12.3991 7.36756 12.0961 7.74045 12.0961H12.6972ZM4.54166 12.0961C4.91455 12.0961 5.2179 12.3988 5.2179 12.7676C5.2179 13.1405 4.91488 13.4388 4.54166 13.4388H4.03809C3.66956 13.4388 3.36621 13.1405 3.36621 12.7676C3.36621 12.3991 3.66923 12.0961 4.03809 12.0961H4.54166Z" fill="#8E6F63"/>
<path d="M17.1134 9.05083C17.4863 9.05083 17.785 9.34948 17.785 9.72237C17.785 10.0906 17.4863 10.3939 17.1134 10.3939H7.74079C7.36756 10.3939 7.06891 10.0909 7.06891 9.72237C7.06891 9.34948 7.36756 9.05083 7.74079 9.05083H17.1134ZM4.54132 9.05083C4.91455 9.05083 5.2179 9.34948 5.2179 9.72237C5.2179 10.0906 4.91488 10.3939 4.54132 10.3939H4.03809C3.66923 10.3939 3.36621 10.0909 3.36621 9.72237C3.36621 9.34948 3.66923 9.05083 4.03809 9.05083H4.54132Z" fill="#8E6F63"/>
<path d="M21.5953 0.246914L27.7084 6.88269C27.9556 7.15312 27.9418 7.57741 27.6664 7.82902C27.5404 7.94559 27.3778 8.0064 27.2142 8.0064H23.0035C22.2856 8.0064 21.6373 7.71245 21.1663 7.2418C21.1525 7.22769 21.1381 7.21392 21.1243 7.19981C20.6765 6.73319 20.4014 6.09928 20.4014 5.40423V0.671539C20.4014 0.303016 20.7 0 21.0732 0C21.2825 0 21.4693 0.0977578 21.5953 0.246914ZM25.685 6.66366L21.7444 2.39188V5.40456C21.7444 5.74016 21.8751 6.04318 22.0851 6.26691C22.0942 6.27632 22.1039 6.28573 22.1133 6.29513C22.3417 6.52357 22.6585 6.66332 23.0035 6.66332L25.685 6.66366Z" fill="#8E6F63"/>
<path d="M30.5348 3.61838C30.4602 3.98186 30.1061 4.215 29.7423 4.13606C29.3785 4.06114 29.1454 3.70707 29.2199 3.34761L29.4766 2.12581L29.8122 0.535817C29.8774 0.219028 30.1572 -0.000675201 30.4696 -0.000675201H31.6447H32.8198C33.1602 -0.000675201 33.4403 0.251278 33.4867 0.582176L33.9808 2.93239C34.3259 3.03049 34.6618 3.14706 34.988 3.28211C35.3192 3.41749 35.6407 3.57605 35.9484 3.74872L38.005 2.40564C38.2708 2.23297 38.6205 2.27497 38.8395 2.49433H38.8445L39.6746 3.32443C39.6837 3.33854 39.6978 3.34795 39.7076 3.36172L40.5048 4.15924C40.7376 4.38768 40.7614 4.7515 40.5797 5.01252L39.2504 7.04998C39.4274 7.35804 39.5816 7.67953 39.7213 8.01076C39.852 8.33696 39.9686 8.67289 40.0664 9.0179L42.4633 9.52618C42.7945 9.59135 43.0182 9.89 42.9998 10.2162V11.3547V12.5298C42.9998 12.8701 42.7481 13.1546 42.4169 13.1966L40.0667 13.6908C39.9689 14.0405 39.852 14.3764 39.7217 14.6979C39.5258 15.1689 39.2927 15.6164 39.027 16.0319C38.8314 16.3487 38.4162 16.4421 38.0991 16.2416C37.7867 16.041 37.6936 15.6261 37.8938 15.3134C38.1226 14.9546 38.3185 14.5767 38.4817 14.1853C38.6403 13.8027 38.7659 13.411 38.8593 13.0102C38.9013 12.7445 39.1062 12.5251 39.3817 12.4646L41.6567 11.9889V11.3547H41.6614V10.7251L39.381 10.2447C39.1341 10.1937 38.9242 10.0022 38.8634 9.73647C38.7747 9.32159 38.6443 8.92048 38.4811 8.52441C38.3178 8.13271 38.1219 7.75478 37.8932 7.396C37.7581 7.18133 37.7534 6.9015 37.8979 6.67306L39.1714 4.72395L38.7606 4.30907C38.7468 4.3 38.7377 4.29025 38.7233 4.27614L38.2758 3.82868L36.3684 5.07366C36.1493 5.24129 35.846 5.26011 35.6041 5.10625C35.245 4.87781 34.8674 4.68196 34.4757 4.51869C34.0931 4.36013 33.697 4.23415 33.2959 4.1411C33.0348 4.09911 32.8108 3.89855 32.755 3.61872L32.274 1.34274H31.6447H31.0102L30.7911 2.39657L30.5348 3.61838ZM31.6447 7.19511C31.2715 7.19511 30.9729 6.89646 30.9729 6.52357C30.9729 6.15068 31.2715 5.85203 31.6447 5.85203C33.1645 5.85203 34.5402 6.4678 35.5383 7.46554C36.5316 8.4589 37.1471 9.83457 37.1471 11.3547C37.1471 11.7558 37.1051 12.1522 37.0211 12.5298C36.9371 12.9165 36.8111 13.29 36.6485 13.6488C36.4943 13.9847 36.0979 14.1339 35.7576 13.98C35.422 13.8258 35.2772 13.4294 35.4314 13.0938C35.5524 12.8328 35.6458 12.5483 35.7109 12.2496C35.7717 11.9607 35.8043 11.6621 35.8043 11.3543C35.8043 10.2071 35.338 9.16706 34.5872 8.41187C33.8317 7.66172 32.7916 7.19511 31.6447 7.19511Z" fill="#8E6F63"/>
<path d="M24.0107 25.5171H28.445C28.7951 25.5171 29.1119 25.6616 29.3406 25.8897L29.3454 25.8944C29.5741 26.1235 29.7182 26.445 29.7182 26.7947V31.7098C29.7182 32.6703 29.3269 33.5423 28.6923 34.1763C28.0631 34.8108 27.1863 35.2026 26.2255 35.2026C25.2647 35.2026 24.3926 34.8108 23.7587 34.1763C23.1288 33.5423 22.7324 32.6706 22.7324 31.7098V26.7947C22.7324 26.445 22.8772 26.1228 23.1104 25.8944V25.8897C23.3435 25.6616 23.661 25.5171 24.0107 25.5171ZM28.3755 26.8602H24.0805V31.7098C24.0805 32.297 24.3184 32.8382 24.7101 33.2256C25.1018 33.6173 25.6383 33.8595 26.2255 33.8595C26.8181 33.8595 27.3539 33.6173 27.7456 33.2256C28.1326 32.8386 28.3755 32.297 28.3755 31.7098V26.8602Z" fill="#8E6F63"/>
<path d="M26.2253 32.2923C26.5961 32.2923 26.8968 31.9917 26.8968 31.6208C26.8968 31.2499 26.5961 30.9492 26.2253 30.9492C25.8544 30.9492 25.5537 31.2499 25.5537 31.6208C25.5537 31.9917 25.8544 32.2923 26.2253 32.2923Z" fill="#8E6F63"/>
</g>
<defs>
<clipPath id="clip0_95_83">
<rect width="43" height="43" fill="white"/>
</clipPath>
</defs>
</svg>
