<svg width="43" height="43" viewBox="0 0 43 43" fill="none" xmlns="http://www.w3.org/2000/svg">
<path d="M13.3897 18.6562C12.0312 17.657 10.431 17.1968 10.3644 17.1753C10.2984 17.1521 10.2277 17.1456 10.1586 17.1563C10.0895 17.1671 10.0241 17.1948 9.96829 17.2369C9.91247 17.2791 9.86794 17.3344 9.83868 17.3979C9.80942 17.4614 9.79634 17.5312 9.80059 17.601V21.051C9.80057 21.1463 9.83133 21.2392 9.8883 21.3156C9.94526 21.3921 10.0254 21.4481 10.1168 21.4753C11.094 21.779 12.0206 22.2265 12.866 22.8032C13.2462 23.0003 13.5693 22.7385 13.5693 22.4456V19.0127C13.5694 18.9433 13.5532 18.875 13.522 18.813C13.4908 18.7511 13.4455 18.6974 13.3897 18.6562ZM12.6846 21.6409C12.0503 21.2712 11.381 20.9652 10.6864 20.7275V18.2198C11.3898 18.4816 12.0604 18.8243 12.6846 19.2411V21.6409Z" fill="#6D5349"/>
<path d="M10.1449 8.53866C10.2825 8.56977 10.6303 8.65374 10.6677 8.65374C11.1726 8.66007 11.2766 7.90909 10.7802 7.78299C10.6347 7.74472 10.4881 7.7088 10.3404 7.67524C10.2262 7.65014 10.1068 7.67123 10.0081 7.73391C9.90937 7.7966 9.83949 7.89578 9.81367 8.0098C9.78785 8.12383 9.80818 8.24344 9.87024 8.34252C9.9323 8.44161 10.031 8.51211 10.1449 8.53866Z" fill="#6D5349"/>
<path d="M13.1826 9.63365C16.0317 10.8975 18.0637 13.093 18.0838 13.115C18.1711 13.1866 18.2792 13.228 18.3919 13.233C18.5047 13.2379 18.616 13.2062 18.7092 13.1426C18.7534 13.1042 18.7894 13.0572 18.8148 13.0045C18.8403 12.9518 18.8548 12.8944 18.8574 12.836C18.8599 12.7775 18.8506 12.7191 18.8299 12.6643C18.8092 12.6096 18.7776 12.5596 18.7369 12.5174C18.6498 12.4221 16.5656 10.1658 13.5416 8.8245C13.4346 8.77836 13.3137 8.77633 13.2051 8.81882C13.0966 8.86132 13.0092 8.94492 12.9619 9.05147C12.9146 9.15803 12.9113 9.27893 12.9526 9.38793C12.9939 9.49693 13.0766 9.58523 13.1826 9.63365Z" fill="#6D5349"/>
<path d="M10.1456 11.8084C14.6012 12.8178 18.0556 16.3599 18.0921 16.3933C18.132 16.4359 18.18 16.4701 18.2334 16.4939C18.2867 16.5176 18.3443 16.5304 18.4026 16.5314C18.461 16.5325 18.519 16.5218 18.5731 16.5C18.6273 16.4783 18.6765 16.4458 18.7179 16.4046C18.7995 16.3216 18.8461 16.2105 18.8483 16.0941C18.8505 15.9777 18.808 15.8649 18.7296 15.7789C18.5821 15.6257 15.0608 12.0147 10.3413 10.945C10.2268 10.9191 10.1067 10.9397 10.0073 11.0023C9.90804 11.0649 9.83767 11.1644 9.81173 11.2789C9.78578 11.3934 9.80638 11.5135 9.869 11.6128C9.93161 11.7121 10.0311 11.7825 10.1456 11.8084Z" fill="#6D5349"/>
<path d="M10.3413 14.2153C10.2268 14.1893 10.1067 14.2099 10.0073 14.2726C9.90804 14.3352 9.83767 14.4347 9.81173 14.5492C9.78578 14.6637 9.80638 14.7838 9.869 14.8831C9.93161 14.9824 10.0311 15.0528 10.1456 15.0787C14.6012 16.0881 18.0577 19.6279 18.0921 19.6635C18.1799 19.7356 18.2895 19.7759 18.403 19.7779C18.5166 19.78 18.6275 19.7437 18.7179 19.6749C18.761 19.6353 18.7955 19.5874 18.8196 19.534C18.8436 19.4807 18.8565 19.423 18.8576 19.3645C18.8587 19.306 18.8479 19.2479 18.8259 19.1937C18.8039 19.1395 18.7711 19.0903 18.7295 19.0491C18.5821 18.8956 15.0608 15.2841 10.3413 14.2153Z" fill="#6D5349"/>
<path d="M15.5222 19.7587C15.4198 19.7037 15.2998 19.6912 15.1882 19.724C15.0766 19.7567 14.9823 19.832 14.9259 19.9337C14.8694 20.0353 14.8551 20.1551 14.8863 20.2672C14.9174 20.3792 14.9914 20.4745 15.0922 20.5325C16.668 21.4087 18.0729 22.9118 18.0868 22.9268C18.1741 23.0207 18.4991 23.1387 18.7123 22.9501C18.7554 22.9108 18.7902 22.8634 18.8147 22.8106C18.8392 22.7577 18.853 22.7005 18.8551 22.6423C18.8573 22.5841 18.8479 22.5261 18.8274 22.4715C18.8069 22.417 18.7758 22.3671 18.7358 22.3247C18.6746 22.2588 17.2238 20.7049 15.5222 19.7587Z" fill="#6D5349"/>
<path d="M15.5212 23.0286C15.4188 22.9736 15.2988 22.9611 15.1872 22.9938C15.0756 23.0266 14.9814 23.1019 14.9249 23.2036C14.8684 23.3052 14.8542 23.425 14.8853 23.5371C14.9164 23.6491 14.9904 23.7444 15.0912 23.8024C16.6671 24.6786 18.0719 26.1817 18.0858 26.1967C18.1731 26.2906 18.5043 26.4086 18.7113 26.22C18.7541 26.1806 18.7887 26.1331 18.813 26.0803C18.8374 26.0274 18.851 25.9703 18.8532 25.9122C18.8554 25.8541 18.8461 25.7961 18.8257 25.7416C18.8054 25.6871 18.7745 25.6371 18.7349 25.5946C18.6738 25.529 17.2229 23.9746 15.5212 23.0286Z" fill="#6D5349"/>
<path d="M41.6681 11.9434C41.5519 11.9452 41.4411 11.9927 41.3596 12.0755C41.2782 12.1583 41.2325 12.2698 41.2325 12.386V35.2332C34.0591 32.0474 27.1943 33.1546 21.8825 35.2511V12.6386C22.0054 12.5837 23.1702 12.1351 23.3789 12.0501C23.4329 12.0281 23.482 11.9956 23.5234 11.9546C23.5649 11.9136 23.5978 11.8648 23.6204 11.811C23.643 11.7573 23.6547 11.6996 23.655 11.6413C23.6553 11.583 23.6441 11.5252 23.6221 11.4712C23.6001 11.4173 23.5676 11.3682 23.5266 11.3267C23.4856 11.2853 23.4368 11.2523 23.383 11.2298C23.3293 11.2072 23.2716 11.1954 23.2133 11.1951C23.155 11.1948 23.0972 11.206 23.0433 11.228C22.8805 11.2947 21.7439 11.7304 21.6288 11.7811C18.654 7.17757 13.9164 3.6302 5.69237 2.89123C5.63163 2.88654 5.57058 2.8945 5.51307 2.9146C5.45556 2.9347 5.40284 2.9665 5.35824 3.008C5.31364 3.0495 5.27812 3.09979 5.25394 3.15571C5.22975 3.21162 5.21742 3.27194 5.21773 3.33286V10.4152C4.46877 10.6226 2.61471 11.1763 1.11452 11.9665C1.04409 12.0042 0.985288 12.0604 0.944458 12.1291C0.903629 12.1978 0.882317 12.2763 0.882821 12.3562V39.6539C0.882587 39.723 0.898125 39.7912 0.92825 39.8533C0.958374 39.9155 1.00229 39.9699 1.05665 40.0125C1.11101 40.0551 1.17437 40.0847 1.24191 40.0991C1.30945 40.1134 1.37938 40.1122 1.44637 40.0955C12.3957 37.0321 19.8136 39.6987 21.4414 40.0828C23.0728 39.6988 30.6114 37.0328 41.5539 40.0955C41.9165 40.1627 42.1174 39.9777 42.1174 39.6567V12.3859C42.1174 12.3272 42.1057 12.2691 42.0831 12.215C42.0604 12.1608 42.0272 12.1117 41.9854 12.0706C41.9436 12.0294 41.894 11.9969 41.8395 11.9751C41.785 11.9533 41.7267 11.9425 41.6681 11.9434ZM1.76812 12.6263C2.88009 12.1011 4.03396 11.6696 5.21773 11.3363V26.8719C5.21762 26.9839 5.25991 27.0916 5.33608 27.1736C5.41225 27.2556 5.51664 27.3057 5.62825 27.3138C13.1435 27.9991 17.3459 30.9709 20.3587 34.9906C14.8619 33.0603 8.92787 32.1551 1.76748 35.2333L1.76812 12.6263ZM20.9972 39.0497C15.4297 37.4964 9.79293 37.0919 1.76812 39.0882V38.1415C10.3656 34.3915 19.6131 37.6094 20.9972 38.1324V39.0497ZM20.9972 37.1869C15.8189 35.4153 8.66494 34.3827 1.76812 37.1784V36.2102C8.6834 32.864 16.1154 34.0962 20.9972 36.2161V37.1869ZM20.9972 34.3539C20.422 33.5507 16.3937 27.2099 6.10302 26.4634V3.8132C13.666 4.53307 18.5081 8.28039 20.9972 12.4647V34.3539ZM41.2325 39.0881C34.5322 37.1261 26.4083 37.628 21.8825 39.0518V38.1426C23.1852 37.6513 32.5782 34.367 41.2325 38.1414V39.0881ZM41.2325 37.1784C34.3478 34.3734 27.0433 35.4282 21.8825 37.1976V36.2177C23.4634 35.5154 32.3906 31.9346 41.2325 36.21V37.1784Z" fill="#6D5349"/>
<path d="M37.1077 21.6719C37.3264 21.3807 37.6225 21.1568 37.9622 21.0257C38.0519 20.9974 38.1303 20.9412 38.1859 20.8653C38.2415 20.7894 38.2715 20.6978 38.2715 20.6037C38.2754 20.2137 37.8921 20.1951 37.6224 20.0131C37.4267 19.8821 37.253 19.7209 37.1078 19.5355C34.0424 15.882 30.2808 15.875 27.2095 19.5355C26.9909 19.8268 26.6949 20.0507 26.3551 20.1818C25.9516 20.2956 25.9497 20.9125 26.3551 21.0258C26.6949 21.1569 26.991 21.3808 27.2096 21.6721C30.1768 25.1986 33.8995 25.4642 37.1077 21.6719ZM32.1995 23.5049C32.0394 23.4982 29.9809 23.6973 27.8995 21.1179C27.7485 20.9279 27.5767 20.7554 27.3873 20.6037C27.5766 20.452 27.7484 20.2796 27.8995 20.0897C29.9964 17.5078 32.0107 17.7109 32.1964 17.703C32.285 17.6949 34.3844 17.5578 36.4169 20.0896C36.5679 20.2795 36.7397 20.4519 36.9291 20.6037C36.7398 20.7555 36.568 20.9279 36.4169 21.1178C34.3851 23.65 32.2852 23.512 32.1995 23.5049Z" fill="#6D5349"/>
<path d="M32.1582 18.8953C31.4015 18.8953 30.8086 19.6458 30.8086 20.6037C30.8578 22.8707 33.4589 22.8703 33.5077 20.6037C33.5077 19.6458 32.915 18.8953 32.1582 18.8953ZM32.1582 21.4268C31.5511 21.3707 31.5511 19.8361 32.1582 19.7806C32.7653 19.8366 32.7648 21.3712 32.1582 21.4268Z" fill="#6D5349"/>
<path d="M28.657 10.6265C28.7635 10.6758 28.8852 10.6808 28.9954 10.6405C29.1056 10.6002 29.1954 10.5179 29.245 10.4115C29.4924 9.88938 29.9165 9.47149 30.4422 9.2317C30.547 9.18116 30.6277 9.09137 30.6668 8.98178C30.7059 8.87219 30.7003 8.75161 30.6511 8.64612C30.602 8.54064 30.5133 8.45874 30.4043 8.41816C30.2952 8.37757 30.1746 8.38155 30.0684 8.42925C29.8836 8.51528 29.7069 8.61757 29.5402 8.73493C28.9685 8.10852 28.0877 8.15215 27.6284 8.29595C25.4896 8.87632 23.9237 11.3642 25.2139 13.3559C25.4808 13.7738 25.8489 14.1176 26.2841 14.3554C26.7192 14.5932 27.2073 14.7174 27.7032 14.7163H37.7377C38.9666 14.7405 40.0427 13.6124 39.9315 12.383C39.8116 10.5565 38.9822 9.37639 37.5841 9.02176C37.5206 8.67058 37.388 8.33551 37.1939 8.03603C36.9999 7.73655 36.7482 7.47863 36.4536 7.27725C36.159 7.07588 35.8273 6.93506 35.4777 6.863C35.1282 6.79094 34.7679 6.78906 34.4176 6.85747C32.9531 4.48678 29.3727 4.48362 27.9068 6.86658C27.8441 6.96583 27.8234 7.08593 27.8492 7.20047C27.875 7.315 27.9453 7.41458 28.0445 7.4773C28.1438 7.54003 28.2639 7.56076 28.3784 7.53493C28.493 7.5091 28.5925 7.43883 28.6553 7.33958C29.7454 5.56343 32.3922 5.49463 33.5758 7.19363C33.3231 7.34429 33.0931 7.53026 32.8929 7.74593C32.5089 8.17593 33.1472 8.77034 33.5465 8.34325C34.6134 7.1906 36.2466 7.66107 36.6639 8.98218C36.3085 9.04758 35.9742 9.19807 35.6895 9.42078C35.4049 9.64348 35.1785 9.93178 35.0295 10.261C34.728 10.152 34.4102 10.0949 34.0896 10.0922C34.0314 10.0931 33.9741 10.1055 33.9207 10.1286C33.8674 10.1517 33.8191 10.185 33.7786 10.2268C33.6969 10.3111 33.652 10.4244 33.6539 10.5418C33.6557 10.6592 33.7041 10.7711 33.7884 10.8528C33.8728 10.9345 33.9861 10.9793 34.1035 10.9775C34.1491 10.9775 35.2544 10.9807 35.6256 11.9437C35.6678 12.0533 35.7518 12.1416 35.8591 12.1892C35.9664 12.2368 36.0883 12.2398 36.1978 12.1976C36.3074 12.1553 36.3957 12.0713 36.4433 11.964C36.4909 11.8567 36.4939 11.7348 36.4517 11.6253C36.317 11.2658 36.0929 10.9467 35.8005 10.6981C35.9019 10.4325 36.0846 10.2058 36.3226 10.0502C36.5605 9.89461 36.8415 9.81813 37.1255 9.83168C38.299 10.0143 38.9459 10.892 39.0478 12.4411C39.0601 12.6188 39.0354 12.7971 38.9753 12.9647C38.9151 13.1323 38.8208 13.2856 38.6984 13.415C38.5758 13.5473 38.4271 13.6527 38.2616 13.7245C38.0962 13.7963 37.9176 13.833 37.7372 13.8323H31.8605C32.1077 13.5044 32.5956 11.9859 31.7476 11.9732C31.6303 11.9785 31.52 12.0301 31.4407 12.1167C31.3615 12.2033 31.32 12.3178 31.3252 12.4351C31.3625 13.2774 30.9742 13.7468 30.1715 13.8318H27.7032C27.3557 13.8325 27.0136 13.7454 26.7086 13.5787C26.4037 13.412 26.1458 13.171 25.9588 12.8781C24.9995 11.357 26.3097 9.57924 27.8921 9.14102C27.968 9.11813 28.5411 8.96396 28.8873 9.33769C28.5722 9.76781 28.1059 10.3035 28.657 10.6265Z" fill="#6D5349"/>
<path d="M31.7158 27.0913V27.7679C31.7158 27.8853 31.7625 27.9979 31.8455 28.0809C31.9285 28.1639 32.0411 28.2105 32.1585 28.2105C32.2759 28.2105 32.3885 28.1639 32.4715 28.0809C32.5545 27.9979 32.6011 27.8853 32.6011 27.7679V27.0913C32.6011 26.9739 32.5545 26.8613 32.4715 26.7783C32.3885 26.6953 32.2759 26.6486 32.1585 26.6486C32.0411 26.6486 31.9285 26.6953 31.8455 26.7783C31.7625 26.8613 31.7158 26.9739 31.7158 27.0913Z" fill="#6D5349"/>
<path d="M25.8235 23.9587L25.1264 24.4918C24.6697 24.8538 25.1973 25.5406 25.6641 25.1951L26.3612 24.6618C26.4519 24.5896 26.5107 24.4847 26.5249 24.3696C26.5391 24.2546 26.5076 24.1385 26.4372 24.0465C26.3668 23.9544 26.263 23.8936 26.1483 23.8772C26.0335 23.8608 25.9169 23.8901 25.8235 23.9587Z" fill="#6D5349"/>
<path d="M37.956 24.6617L38.6531 25.1948C39.1198 25.5402 39.6477 24.8533 39.1909 24.4915L38.4938 23.9584C38.4005 23.8871 38.2827 23.8558 38.1664 23.8713C38.05 23.8868 37.9446 23.948 37.8732 24.0412C37.8019 24.1345 37.7706 24.2523 37.7861 24.3686C37.8016 24.485 37.8628 24.5904 37.956 24.6617Z" fill="#6D5349"/>
</svg>
