<svg width="43" height="43" viewBox="0 0 43 43" fill="none" xmlns="http://www.w3.org/2000/svg">
<path d="M42.3701 28.5299H40.7941V4.55666C40.7941 3.27371 39.7504 2.22995 38.4675 2.22995H4.53247C3.24961 2.22995 2.20585 3.27371 2.20585 4.55666V28.5298H0.629883C0.281936 28.5298 0 28.8118 0 29.1597V30.8562C0 32.1394 1.04359 33.1834 2.32637 33.1834H7.54406L6.65223 34.0752C6.40498 33.8503 6.0226 33.8566 5.78367 34.0954L0.184514 39.6947C-0.0614766 39.9407 -0.0614766 40.3395 0.184514 40.5854C0.430588 40.8314 0.829346 40.8314 1.07534 40.5854L6.2292 35.4315L8.22291 37.4252L5.95348 39.6946C5.70749 39.9406 5.70749 40.3395 5.95348 40.5854C6.07652 40.7083 6.23777 40.7699 6.39894 40.7699C6.5601 40.7699 6.72135 40.7084 6.84439 40.5854L9.55919 37.8706C9.79804 37.6317 9.80425 37.2493 9.57934 37.0021L10.6419 35.9395C10.7618 36.0486 10.9133 36.1039 11.065 36.1039C11.2262 36.1039 11.3874 36.0424 11.5105 35.9194L13.2094 34.2204C14.6565 35.0408 16.3277 35.51 18.1066 35.51C20.537 35.51 22.7665 34.6347 24.4976 33.1834H33.2654C33.6133 33.1834 33.8953 32.9014 33.8953 32.5535C33.8953 32.2057 33.6133 31.9236 33.2654 31.9236H25.7549C26.2953 31.2765 26.755 30.56 27.1191 29.7896H41.7402V30.8562C41.7402 31.4448 41.2618 31.9236 40.6736 31.9236H36.2048C35.8569 31.9236 35.5749 32.2057 35.5749 32.5535C35.5749 32.9014 35.8569 33.1834 36.2048 33.1834H40.6736C41.9564 33.1834 43 32.1394 43 30.8562V29.1597C43 28.8118 42.7181 28.5299 42.3701 28.5299ZM1.25977 30.8562V29.7896H9.09391C9.1994 30.0127 9.31278 30.2314 9.43396 30.4452L7.9555 31.9236H2.32637C1.73831 31.9236 1.25977 31.4448 1.25977 30.8562ZM7.54423 34.965L8.60462 33.9045L9.74991 35.0498L8.68953 36.1103L7.54423 34.965ZM11.0649 34.5833L9.07124 32.5896L10.1392 31.5216C10.7064 32.2763 11.3782 32.9481 12.1329 33.5153L11.0649 34.5833ZM9.40423 25.548C9.40423 20.7495 13.3081 16.8457 18.1065 16.8457C22.905 16.8457 26.8087 20.7495 26.8087 25.548C26.8087 30.3464 22.905 34.2503 18.1065 34.2503C13.3081 34.2503 9.40423 30.3464 9.40423 25.548ZM27.9516 27.0744H37.4495C37.7974 27.0744 38.0794 26.7924 38.0794 26.4445V5.57438C38.0794 5.22652 37.7974 4.9445 37.4495 4.9445H10.3116C9.96365 4.9445 9.68172 5.22652 9.68172 5.57438C9.68172 5.92224 9.96365 6.20426 10.3116 6.20426H36.8196V25.8146H28.0649C28.0672 25.726 28.0685 25.6372 28.0685 25.548C28.0685 20.0549 23.5995 15.5859 18.1065 15.5859C12.6134 15.5859 8.14447 20.0548 8.14447 25.548C8.14447 25.6372 8.14573 25.726 8.14808 25.8146H6.18041V6.20426H7.37215C7.7201 6.20426 8.00203 5.92224 8.00203 5.57438C8.00203 5.22652 7.7201 4.9445 7.37215 4.9445H5.55053C5.20258 4.9445 4.92064 5.22652 4.92064 5.57438V26.4445C4.92064 26.7924 5.20258 27.0744 5.55053 27.0744H8.26129C8.33822 27.5726 8.45236 28.0587 8.60042 28.5298H3.46562V4.55666C3.46562 3.96835 3.94416 3.48972 4.53247 3.48972H38.4675C39.0558 3.48972 39.5344 3.96835 39.5344 4.55666V28.5298H27.6125C27.7606 28.0587 27.8747 27.5727 27.9516 27.0744Z" fill="#8E6F63"/>
<path d="M7.63574 8.28959V13.3798C7.63574 13.7277 7.91768 14.0097 8.26562 14.0097H34.735C35.0829 14.0097 35.3649 13.7277 35.3649 13.3798V8.28959C35.3649 7.94173 35.0829 7.65971 34.735 7.65971H8.26562C7.91776 7.65971 7.63574 7.94173 7.63574 8.28959ZM34.1051 12.7499H26.8811V8.91948H34.1051V12.7499ZM8.89551 8.91948H25.6213V12.7499H8.89551V8.91948Z" fill="#8E6F63"/>
<path d="M19.0433 18.3604C18.6983 18.3154 18.3824 18.5589 18.3376 18.904C18.2928 19.249 18.5361 19.5649 18.8811 19.6097C21.8533 19.9956 24.0945 22.5484 24.0945 25.5476C24.0945 28.8495 21.4082 31.5357 18.1064 31.5357C14.805 31.5357 12.1191 28.8495 12.1191 25.5476C12.1191 22.9518 13.7781 20.6648 16.2472 19.8567C16.5779 19.7484 16.7581 19.3927 16.6499 19.0621C16.5418 18.7315 16.1862 18.5512 15.8554 18.6594C12.8671 19.6375 10.8594 22.4056 10.8594 25.5476C10.8594 29.5441 14.1104 32.7955 18.1064 32.7955C22.1029 32.7955 25.3542 29.5441 25.3542 25.5476C25.3542 21.9174 22.6411 18.8275 19.0433 18.3604Z" fill="#8E6F63"/>
</svg>
