<svg width="43" height="43" viewBox="0 0 43 43" fill="none" xmlns="http://www.w3.org/2000/svg">
<g clip-path="url(#clip0_90_628)">
<path d="M40.9103 3.90796C40.8944 3.73655 40.8036 3.58109 40.6621 3.4835C40.5206 3.38591 40.3425 3.35559 40.1775 3.40145L36.6736 4.36803L36.6263 3.58454C36.6082 3.28454 36.3646 3.04771 36.0646 3.03864C29.8309 2.84304 25.0634 4.23852 21.5 7.2859C17.9367 4.23802 13.1699 2.84043 6.93544 3.03864C6.63544 3.04771 6.3918 3.28454 6.37366 3.58454L6.32638 4.36803L2.82247 3.40137C2.65752 3.35559 2.47931 3.38583 2.33788 3.48342C2.19637 3.58101 2.10558 3.73655 2.08971 3.90788L0.00252575 26.3111C-0.0224176 26.5786 0.139504 26.8286 0.394481 26.9153L10.3157 30.2811L7.50141 39.2244C7.44581 39.4011 7.47755 39.5933 7.58732 39.7427C7.69667 39.8917 7.87069 39.9798 8.0557 39.9798H11.8085C11.9156 39.9798 12.0208 39.9504 12.112 39.8944L21.5 34.143L30.8881 39.8944C30.9793 39.9504 31.0845 39.9798 31.1915 39.9798H34.9444C35.1294 39.9798 35.3034 39.8917 35.4128 39.7427C35.5225 39.5933 35.5543 39.401 35.4987 39.2244L32.6844 30.2811L42.6056 26.9153C42.8606 26.8286 43.0225 26.5786 42.9976 26.3111L40.9103 3.90796ZM22.0811 8.31227C25.3338 5.44504 29.7173 4.096 35.4986 4.18754L35.557 5.15471C35.5571 5.1563 35.5571 5.15798 35.5572 5.15966L36.6615 23.4711C31.3372 22.7728 26.44 24.1525 22.0811 27.5803V8.31227ZM20.9189 8.31865V27.5837C16.5596 24.1549 11.6644 22.7718 6.33847 23.4711L7.44279 5.15966C7.44295 5.15798 7.44295 5.1563 7.44304 5.15471L7.50141 4.18754C13.2863 4.09886 17.6664 5.45025 20.9189 8.31865ZM3.18226 4.70623L6.25491 5.55405L5.13548 24.1161C5.1249 24.2924 5.19486 24.4642 5.32655 24.5826C5.45748 24.7006 5.63527 24.7532 5.81004 24.7241C11.3692 23.8059 16.4521 25.2773 20.919 29.0888V32.6508L1.20216 25.9619L3.18226 4.70623ZM11.6447 38.8177H8.84784L11.4165 30.6545L20.1394 33.6137L11.6447 38.8177ZM34.1522 38.8177H31.3553L22.8606 33.6137L31.5835 30.6545L34.1522 38.8177ZM22.0811 32.6508V29.0888C26.5475 25.2777 31.6286 23.8062 37.19 24.7241C37.3648 24.7543 37.5426 24.701 37.6735 24.5826C37.8052 24.4642 37.8752 24.2924 37.8646 24.1161L36.7452 5.55397L39.8178 4.70615L41.7979 25.9618L22.0811 32.6508ZM9.50267 6.95752C9.52686 6.63712 9.80644 6.39499 10.1253 6.42111C13.501 6.67306 16.3225 7.59462 18.5117 9.16085C18.7727 9.34738 18.8328 9.71053 18.646 9.97155C18.5325 10.13 18.3543 10.2144 18.173 10.2144C18.0558 10.2144 17.9377 10.1792 17.8352 10.1058C15.7934 8.6456 13.2432 7.81937 10.039 7.58026C9.71901 7.55641 9.47882 7.27758 9.50267 6.95752ZM9.22989 11.4863C9.24652 11.1659 9.52115 10.92 9.84046 10.9362C13.1714 11.1102 16.0791 11.9641 18.4825 13.4735C18.7541 13.6445 18.8363 14.0031 18.6656 14.2748C18.5552 14.4504 18.366 14.5469 18.173 14.5469C18.0671 14.5469 17.9604 14.5181 17.8643 14.4579C15.6308 13.0548 12.9108 12.2603 9.77982 12.0969C9.4595 12.0802 9.21326 11.8067 9.22989 11.4863ZM8.95711 16.0139C8.96693 15.6995 9.22493 15.4509 9.53744 15.4509C9.54349 15.4509 9.54953 15.4509 9.556 15.4514C12.8265 15.5532 15.8204 16.3397 18.4539 17.7889C18.735 17.9436 18.8375 18.297 18.6827 18.5784C18.5768 18.7706 18.3778 18.8792 18.1731 18.8792C18.0781 18.8792 17.9821 18.8561 17.8932 18.8073C15.4225 17.4473 12.6052 16.7088 9.51972 16.6127C9.1989 16.603 8.94695 16.3347 8.95711 16.0139ZM8.68441 20.5412C8.68819 20.2223 8.9477 19.9665 9.2655 19.9665H9.27197C12.4653 20.0025 15.5448 20.7228 18.4252 22.1074C18.7146 22.2462 18.8364 22.5935 18.6972 22.8826C18.5973 23.0907 18.3896 23.212 18.1732 23.212C18.0888 23.212 18.003 23.1935 17.922 23.1545C15.1955 21.8444 12.281 21.1627 9.25912 21.1286C8.93787 21.1248 8.68097 20.862 8.68441 20.5412ZM24.354 9.97155C24.1671 9.71053 24.2272 9.34738 24.4883 9.16085C26.6776 7.59462 29.499 6.67306 32.8746 6.42111C33.1935 6.39801 33.4731 6.63754 33.4973 6.95752C33.5211 7.27758 33.2808 7.55641 32.9608 7.58018C29.7566 7.81928 27.2064 8.64552 25.1647 10.1058C25.0621 10.1792 24.9441 10.2143 24.8268 10.2143C24.6456 10.2144 24.4675 10.13 24.354 9.97155ZM24.3343 14.2748C24.1637 14.0032 24.2458 13.6445 24.5174 13.4735C26.9208 11.9641 29.8285 11.1102 33.1595 10.9362C33.4738 10.9207 33.7534 11.1658 33.77 11.4863C33.7867 11.8067 33.5404 12.0802 33.2199 12.0969C30.0891 12.2603 27.369 13.0547 25.1354 14.4579C25.0394 14.518 24.9327 14.5469 24.8267 14.5469C24.634 14.5468 24.4447 14.4507 24.3343 14.2748ZM33.444 15.4514C33.7614 15.4396 34.0331 15.6935 34.0429 16.0139C34.0531 16.3347 33.8012 16.603 33.4804 16.6128C30.3949 16.7089 27.5776 17.4473 25.1069 18.8074C25.0179 18.8562 24.9219 18.8793 24.827 18.8793C24.622 18.8793 24.4233 18.7707 24.3173 18.5785C24.1626 18.2971 24.2651 17.9437 24.5462 17.789C27.1795 16.3396 30.1735 15.5531 33.444 15.4514ZM33.741 21.1286C30.7191 21.1626 27.8045 21.8444 25.0781 23.1545C24.9971 23.1935 24.9112 23.212 24.8269 23.212C24.6104 23.212 24.4028 23.0906 24.3029 22.8826C24.1637 22.5936 24.2855 22.2462 24.5749 22.1074C27.4553 20.7227 30.5348 20.0025 33.7281 19.9665C34.0505 19.959 34.3119 20.22 34.3157 20.5412C34.319 20.862 34.0621 21.1248 33.741 21.1286Z" fill="#8E6F63"/>
</g>
<defs>
<clipPath id="clip0_90_628">
<rect width="43" height="43" fill="white"/>
</clipPath>
</defs>
</svg>
