<svg width="95" height="68" viewBox="0 0 95 68" fill="none" xmlns="http://www.w3.org/2000/svg">
<path fill-rule="evenodd" clip-rule="evenodd" d="M69.6697 24.1618C69.6857 23.9513 69.6937 23.738 69.6937 23.5247C69.6937 22.0853 69.3551 20.7231 68.7393 19.5209C68.5981 19.2383 68.4408 18.9637 68.2702 18.6998C67.9849 18.2573 67.6597 17.8415 67.3025 17.4576C66.948 17.0738 66.5588 16.7059 66.1296 16.4047L65.9541 16.2816C65.5297 15.984 65.1041 15.6856 64.6848 15.3811C64.2183 15.0425 63.7545 14.7013 63.296 14.3548C62.8375 14.0082 62.3817 13.6563 61.9312 13.3018C61.478 12.9446 61.0302 12.5847 60.585 12.2222C60.1425 11.857 59.7 11.4891 59.2628 11.1159C58.8283 10.7427 58.3938 10.3669 57.9646 9.98569C57.5354 9.60449 57.1089 9.21797 56.6877 8.82878C56.2639 8.43958 55.848 8.04773 55.4322 7.64787C55.019 7.25069 54.6085 6.85083 54.2033 6.44298C53.7981 6.04046 53.3929 5.63528 53.0011 5.22209C52.4733 4.66763 51.9535 4.11316 51.4337 3.54271C50.386 2.39379 49.3624 1.21022 48.3761 0C47.3285 1.15691 46.2462 2.28983 45.1293 3.39876C40.387 8.10904 35.0983 12.2649 29.3644 15.7729L29.3379 15.7896L29.3379 15.7897L29.3379 15.7897L29.3378 15.7897L29.3378 15.7897L29.3378 15.7897L29.3378 15.7897L29.3378 15.7897L29.3378 15.7897L29.3377 15.7897C29.1952 15.8798 29.0569 15.9672 28.9139 16.0475C28.4874 16.3247 28.0848 16.6366 27.7117 16.9805C27.2638 17.3963 26.8586 17.8575 26.5041 18.356C26.1469 18.8571 25.8403 19.3929 25.5951 19.958C25.3419 20.5312 25.1526 21.131 25.0273 21.7441C24.8967 22.3892 24.8434 23.0449 24.8514 23.7033C24.862 24.4791 24.9846 25.2494 25.2006 25.9958C26.2722 29.7092 29.6976 32.4255 33.7521 32.4255C34.5598 32.4255 35.3515 32.3135 36.1006 32.1109C38.4864 31.4632 40.4723 29.8451 41.6132 27.7072C42.277 26.4623 42.6502 25.0415 42.6502 23.5247V23.3381H33.2136C33.7175 24.9482 35.0636 26.1824 36.7324 26.5316C35.9753 27.2887 34.917 27.7579 33.7521 27.7579C31.4863 27.7579 29.6363 25.9772 29.519 23.738V23.5247C29.519 22.0773 30.2414 20.8004 31.3477 20.0327C31.4783 19.9474 31.6036 19.8701 31.7315 19.8034C33.8614 18.4999 35.922 17.1191 37.9159 15.6556C38.8436 14.9812 39.7553 14.2828 40.6509 13.5764C41.8158 12.6567 42.9488 11.7104 44.0657 10.7401C45.4865 9.50586 46.8593 8.22633 48.1975 6.90681C48.7067 7.46927 49.2265 8.02374 49.7623 8.57554C52.0894 10.988 54.5419 13.2698 57.1222 15.4077C59.0549 17.0178 61.0568 18.5426 63.1174 19.99C63.1728 20.0242 63.2215 20.0583 63.2701 20.0924L63.3067 20.118C64.3543 20.9017 65.026 22.1359 65.026 23.5247C65.026 25.8572 63.1281 27.7579 60.7849 27.7579C59.6253 27.7579 58.5697 27.2887 57.8047 26.5316C59.4814 26.1904 60.8276 24.9482 61.3287 23.3381H51.8922C51.8842 23.3968 51.8842 23.4661 51.8842 23.5247C51.8842 25.0415 52.26 26.4623 52.9238 27.7072C54.0647 29.8371 56.04 31.4552 58.4178 32.1003C59.1748 32.3135 59.9665 32.4255 60.7849 32.4255C65.4872 32.4255 69.3365 28.7788 69.6697 24.1618ZM39.8174 20.2061H44.9035V35.07C44.9035 36.8826 43.7093 38.4501 41.9899 39.1671H52.5088C50.7867 38.4501 49.5951 36.8826 49.5951 35.07L49.5792 13.9817V12.5662L49.5712 12.193C48.7021 13.0167 47.8145 13.8271 46.9135 14.6108C45.7965 15.5918 44.6636 16.5274 43.496 17.4551C43.2081 17.6843 42.9096 17.9162 42.611 18.1455C42.0059 18.6146 41.3848 19.0731 40.7637 19.5263C40.4492 19.7556 40.1319 19.9848 39.8174 20.2061ZM1.37816 49.6646C1.53011 49.3021 1.74869 49.0169 2.03126 48.8143C2.31915 48.6144 2.66303 48.5131 3.06288 48.5131C3.23349 48.5131 3.39343 48.5264 3.53738 48.553C3.68399 48.5824 3.81727 48.6223 3.93723 48.673C4.05985 48.7263 4.17181 48.7876 4.27311 48.8596L4.39306 49.8939H5.27274V48.3531C5.0115 48.1319 4.70761 47.9533 4.36107 47.828L4.35631 47.8259C4.33327 47.8156 4.30602 47.8035 4.2811 47.796C3.90258 47.6654 3.49206 47.5987 3.04955 47.5987C2.59105 47.5987 2.18054 47.676 1.818 47.828C1.67672 47.884 1.54077 47.9533 1.41548 48.0359C1.32485 48.0919 1.23688 48.1559 1.15425 48.2198C0.826365 48.4837 0.562461 48.8196 0.367866 49.2195C0.119956 49.7259 0 50.3017 0 50.9522V51.1201C0 51.7892 0.119956 52.373 0.367866 52.8768C0.562461 53.274 0.826365 53.5992 1.15425 53.8578C1.24488 53.9271 1.33818 53.9911 1.43681 54.0497C1.53544 54.111 1.6394 54.1643 1.74869 54.207C2.14588 54.3856 2.60438 54.4709 3.12153 54.4709C3.5507 54.4709 3.94789 54.4202 4.32109 54.3136C4.43571 54.2816 4.54767 54.247 4.65164 54.207C4.88355 54.1243 5.08614 54.023 5.26474 53.9058V52.373H4.39306L4.27044 53.3113C4.1185 53.3859 3.94523 53.4473 3.74797 53.4952C3.5507 53.5432 3.35078 53.5645 3.15085 53.5645C2.735 53.5645 2.37513 53.4686 2.07924 53.274C1.78068 53.0794 1.5541 52.7968 1.39416 52.4316C1.23688 52.0664 1.15425 51.6319 1.15425 51.1201V50.9442C1.15425 50.4537 1.22888 50.0272 1.37816 49.6646ZM14.1385 48.3049V47.5825H16.5163V48.3049L15.9112 48.3929L13.912 53.1485C13.784 53.4284 13.6481 53.6683 13.5014 53.8629C13.4055 53.9935 13.2908 54.1028 13.1656 54.1881C13.1016 54.2361 13.0323 54.2734 12.963 54.3081C12.7524 54.4067 12.4831 54.4547 12.1606 54.4547C12.09 54.4547 12.0082 54.4502 11.9194 54.4454L11.9192 54.4454L11.894 54.444L11.8885 54.4436L11.8883 54.4436L11.8881 54.4435C11.79 54.4358 11.7226 54.4305 11.6808 54.42L11.6834 54.1881L11.6888 53.535C11.6964 53.5357 11.7059 53.5363 11.7171 53.537L11.732 53.5378L11.77 53.5399C11.799 53.5415 11.8335 53.5433 11.8727 53.5457L11.9428 53.5478L11.9433 53.5478C12.002 53.5496 12.0483 53.551 12.0833 53.551C12.3179 53.551 12.4911 53.4977 12.6004 53.3857C12.7124 53.2791 12.8164 53.1058 12.915 52.8739L13.0509 52.5594L11.0943 48.3982L10.4492 48.3049V47.5825H12.883V48.3049L12.3499 48.3876L13.3255 50.6294L13.5627 51.2345H13.5894L14.6557 48.4036L14.1385 48.3049ZM26.5369 48.489V53.5272H23.5833C23.7406 53.2979 23.8792 53.0287 23.9965 52.7221C24.1138 52.4156 24.2098 52.0637 24.2791 51.6745C24.3537 51.2826 24.399 50.8455 24.4177 50.3683L24.527 48.489H26.5369ZM27.7285 53.5272V48.441L28.4749 48.2997V47.5693H22.6477V48.2997L23.3408 48.433L23.2181 50.3683C23.2021 50.9654 23.1488 51.4666 23.0555 51.8744C22.9649 52.2876 22.8476 52.6262 22.7063 52.8901C22.5624 53.1513 22.4104 53.3646 22.2478 53.5272H21.6934L21.7253 54.2709L21.8106 56.1315H22.8796V54.4415H27.4059V56.1315H28.4829L28.5629 54.2709L28.5948 53.5272H27.7285ZM39.9728 53.5191L40.0528 52.6447H40.9671V54.4227H35.6171V53.6977L36.3661 53.5564V48.4249L35.6171 48.2836V47.5532H40.8498V49.3206H39.9275L39.8449 48.4676H37.555V50.4135H39.9675V51.3332H37.555V53.5191H39.9728ZM52.8148 53.138C52.5935 53.3699 52.2736 53.4872 51.8605 53.4872H50.4636V51.1094H51.8605C52.2843 51.1094 52.6015 51.2187 52.8174 51.4346C53.0334 51.6478 53.1427 51.9251 53.1427 52.2636C53.1427 52.6181 53.0334 52.9087 52.8148 53.138ZM54.0303 51.1707C53.8331 50.8588 53.5505 50.6189 53.1826 50.4456C52.8148 50.275 52.3749 50.1897 51.8605 50.1897H50.4636V48.4543H52.5989L52.6602 49.1821H53.6065V47.5347H48.499V48.2677L49.2481 48.409V53.5325L48.499 53.6764V54.3988H51.8605C52.263 54.3988 52.6255 54.3428 52.9427 54.2282C53.0227 54.2016 53.1027 54.1696 53.1773 54.1349C53.5452 53.9617 53.8304 53.7111 54.0303 53.3912C54.2276 53.0713 54.3289 52.6981 54.3289 52.2716C54.3289 51.8478 54.2303 51.4799 54.0303 51.1707ZM65.3947 48.2171V47.4894H68.0684V48.2171L67.322 48.3584V53.4605L68.0684 53.6018V54.3216H65.3947V53.6018L66.1438 53.4605V51.408H63.1529V53.4605L63.9019 53.6018V54.3216H61.2256V53.6018L61.972 53.4605V48.3584L61.2256 48.2171V47.4894H63.9019V48.2171L63.1529 48.3584V50.491H66.1438V48.3584L65.3947 48.2171ZM80.4431 47.5053V48.233L81.1868 48.3716V53.4791L80.4431 53.6204V54.3428H83.1141V53.6204L82.3704 53.4791V48.3716L83.1141 48.233V47.5053H80.4431ZM78.8757 53.0872C78.6598 53.3165 78.3399 53.4338 77.924 53.4338H76.5325V51.064H77.924C78.3479 51.064 78.6651 51.1733 78.8783 51.3865C79.0916 51.6025 79.2009 51.877 79.2009 52.2156C79.2009 52.5674 79.0916 52.858 78.8757 53.0872ZM80.0912 51.1253C79.8913 50.8134 79.6087 50.5735 79.2435 50.4029C78.8783 50.235 78.4385 50.1497 77.924 50.1497H76.5325V48.3716L77.2816 48.233V47.5053H74.6026V48.233L75.3516 48.3716V53.4791L74.6026 53.6204V54.3428H77.924C78.3319 54.3428 78.6944 54.2868 79.0063 54.1722C79.0863 54.1455 79.1662 54.1135 79.2382 54.0789C79.6061 53.9056 79.8886 53.655 80.0886 53.3378C80.2858 53.0179 80.3845 52.6447 80.3845 52.2236C80.3845 51.8024 80.2858 51.4345 80.0912 51.1253ZM94.0032 53.4364L94.0832 52.5647H95.0002V54.3427H89.6475V53.6177L90.3965 53.4764V48.3423L89.6475 48.201V47.4706H94.8829V49.2406H93.9552L93.8779 48.3849H91.5881V50.3309H93.9979V51.2505H91.5881V53.4364H94.0032ZM6.10977 60.5433C5.87785 60.0714 5.58196 59.6796 5.21143 59.3597C5.09147 59.2584 4.96352 59.1598 4.82757 59.0745C4.27844 58.7226 3.63867 58.5413 2.90561 58.5413C2.47909 58.5413 2.08191 58.5973 1.71138 58.704C1.34618 58.8132 1.01829 58.9572 0.7304 59.1465C0.623772 59.2158 0.527807 59.2851 0.434508 59.3597C0.271901 59.4903 0.125288 59.6289 0 59.7756V61.343H1.05028L1.23955 60.2154C1.40482 60.0448 1.61541 59.9115 1.87398 59.8049C2.12722 59.7009 2.43378 59.6503 2.79365 59.6503C3.26014 59.6503 3.66266 59.7569 3.99054 59.9755C4.32375 60.1887 4.57966 60.49 4.76359 60.8765C4.94486 61.2657 5.05149 61.7135 5.08614 62.228L5.07281 62.2547H2.06858V63.3689H5.07281L5.08614 63.3982C5.05149 63.91 4.94486 64.3579 4.76359 64.7444C4.57966 65.1283 4.32909 65.4242 4.00654 65.6401C3.87059 65.7281 3.72664 65.7974 3.57469 65.848C3.35877 65.9227 3.11886 65.96 2.85496 65.96C2.56173 65.96 2.28983 65.9227 2.04459 65.848C1.99394 65.8347 1.94329 65.8214 1.89531 65.8027C1.61008 65.6961 1.38616 65.5628 1.23955 65.3948L1.05028 64.2619H0V65.8347L0.0133285 65.848C0.306555 66.1945 0.69308 66.4878 1.19423 66.7144C1.69272 66.9489 2.26584 67.0662 2.90561 67.0662C3.62534 67.0662 4.26511 66.8903 4.81424 66.5331C5.1048 66.3438 5.36604 66.1172 5.58729 65.848C5.78455 65.6188 5.95782 65.3522 6.09911 65.0616C6.40566 64.4379 6.56294 63.7208 6.56294 62.9157V62.7052C6.56294 61.8895 6.41099 61.167 6.10977 60.5433ZM14.5068 65.9306L14.5681 66.0159L15.4265 66.1652V67.0662H12.2916V66.1652L12.8434 66.0879L12.8301 66.0639L12.7368 65.9306L10.9401 63.4782H9.89514V65.9893L10.8015 66.1652V67.0662H7.48535V66.1652L8.41834 65.9893V59.6156L7.48535 59.4397V58.528H10.8015V59.4397L9.89514 59.6156V62.1667H10.7295L12.4729 59.6636C12.5822 59.509 12.6941 59.373 12.7981 59.2477C13.0033 59.0052 13.1926 58.8292 13.3685 58.7146C13.6351 58.5387 13.9363 58.4534 14.2722 58.4534C14.4748 58.4534 14.6561 58.4747 14.808 58.528C14.9653 58.5813 15.1119 58.648 15.2505 58.7386L15.1412 59.2477L15.0159 59.8235C14.9907 59.8185 14.9663 59.8134 14.9428 59.8086L14.9392 59.8078L14.9367 59.8073L14.9359 59.8072C14.8749 59.7945 14.8195 59.7831 14.7707 59.7756C14.6934 59.7622 14.6214 59.7542 14.5441 59.7542C14.3735 59.7542 14.2162 59.8049 14.0643 59.9062C13.9177 60.0048 13.7444 60.1861 13.5498 60.4473L12.0064 62.5825L14.5068 65.9306ZM17.6681 61.0258C17.852 60.5699 18.1212 60.2234 18.4811 59.9675C18.8383 59.7169 19.2648 59.5916 19.7633 59.5916C19.9766 59.5916 20.1765 59.6103 20.3577 59.6423C20.539 59.6796 20.7043 59.7249 20.8589 59.7915C21.0082 59.8555 21.1468 59.9355 21.2721 60.0288L21.4267 61.3137H22.5223V59.3917L22.5027 59.3751C22.4591 59.3382 22.4167 59.3022 22.3703 59.2744C22.0531 59.0292 21.6959 58.8372 21.2854 58.6986C20.8136 58.536 20.3018 58.4534 19.75 58.4534C18.9583 58.4534 18.2812 58.6346 17.7134 58.9918C17.5774 59.0798 17.4495 59.1731 17.3269 59.2744C16.943 59.5943 16.6364 59.9941 16.4019 60.474C16.098 61.1004 15.9434 61.8201 15.9434 62.6332V62.8464C15.9434 63.6781 16.098 64.4032 16.4019 65.0323C16.5431 65.3149 16.7057 65.5654 16.9057 65.792C17.1376 66.0719 17.4148 66.3038 17.7374 66.4984C18.3185 66.8476 19.0196 67.0209 19.8379 67.0209C20.3711 67.0209 20.8722 66.9543 21.3334 66.8236C21.7972 66.6984 22.1864 66.5278 22.509 66.3172V64.4085H21.4267L21.2667 65.5761C21.0961 65.6641 20.8962 65.7387 20.6723 65.792C20.659 65.7974 20.6403 65.8027 20.6217 65.808C20.3764 65.864 20.1258 65.896 19.8753 65.896C19.6034 65.896 19.3528 65.864 19.1209 65.792C18.9129 65.7387 18.7183 65.6454 18.5397 65.5281C18.1639 65.2829 17.8813 64.9337 17.6814 64.4778C17.4868 64.022 17.3828 63.4782 17.3828 62.8464V62.6252C17.3828 62.0121 17.4761 61.4816 17.6681 61.0258ZM23.8984 59.3889V58.4746H32.5326V59.3889L31.597 59.5675V65.9812L32.5326 66.1598V67.0635H29.1765V66.1598L30.1148 65.9812V59.6235H26.3242V65.9812L27.2572 66.1598V67.0635H23.8984V66.1598L24.8368 65.9812V59.5675L23.8984 59.3889ZM39.9139 64.8349L39.8126 65.9198V65.9305H36.7844V63.1901H39.8099V62.0359H36.7844V59.5968H39.6553L39.7566 60.6684H40.9135V58.4479H34.3506V59.3675L35.2942 59.5435V65.9785L34.3506 66.1571V67.0661H41.0628V64.8349H39.9139ZM46.6121 62.6332C47.1426 62.6332 47.5371 62.4893 47.809 62.2067C48.0676 61.9215 48.2036 61.559 48.2036 61.1244C48.2036 60.6819 48.0676 60.3167 47.809 60.0208C47.5371 59.7276 47.1426 59.5837 46.6121 59.5837H44.9967V62.6332H46.6121ZM48.8647 59.1545C49.0486 59.3118 49.2059 59.4957 49.3311 59.7036C49.5764 60.1088 49.699 60.5753 49.699 61.1164C49.699 61.6523 49.5764 62.1241 49.3311 62.5239C49.0859 62.9238 48.734 63.2383 48.2702 63.4596C47.809 63.6808 47.2599 63.7901 46.6121 63.7901H44.9967V65.976L45.9431 66.1546V67.0663H42.5576V66.1546L43.5039 65.976V59.525L42.5576 59.3464V58.4268H46.6121C47.2599 58.4268 47.809 58.5361 48.2702 58.7626C48.4915 58.8746 48.6914 59.0052 48.8647 59.1545ZM50.4805 58.4053V60.6631H51.6001L51.7307 59.5542H53.4741V65.9732L52.5278 66.1518V67.0661H55.9212V66.1518L54.9749 65.9732V59.5542H56.7182L56.8489 60.6631H57.9791V58.4053H50.4805ZM66.3861 59.3063V58.3787H69.7796V59.3063L68.8386 59.4849V65.9706L69.7796 66.1491V67.0661H66.3861V66.1491L67.3298 65.9706V59.4849L66.3861 59.3063ZM61.4173 62.9023V65.9119H63.1873C63.7151 65.9119 64.1176 65.76 64.3949 65.4694C64.6694 65.1788 64.8107 64.811 64.8107 64.3658C64.8107 63.934 64.6694 63.5848 64.4002 63.3075C64.1283 63.0383 63.7258 62.9023 63.1873 62.9023H61.4173ZM64.864 62.0626C65.3305 62.2812 65.6877 62.5851 65.9356 62.9796C66.1862 63.3715 66.3142 63.838 66.3142 64.3738C66.3142 64.9123 66.1862 65.3841 65.9356 65.7893C65.9116 65.8293 65.8823 65.8719 65.853 65.9119C65.6104 66.2611 65.2719 66.5357 64.8534 66.7303C64.3895 66.9542 63.8324 67.0661 63.1873 67.0661H58.9648V66.1491L59.9165 65.9706V59.4849L58.9648 59.3063V58.3787H62.3689V59.3063L61.4173 59.4849V61.7374H63.1873C63.8377 61.7374 64.4002 61.8441 64.864 62.0626ZM81.2983 58.3493V59.2796L82.2446 59.4582V64.571L82.2126 64.5737L78.8565 59.085L78.4087 58.3493H75.9482V59.2796L76.8999 59.4582V65.9652L75.9482 66.1465V67.0635H79.3603V66.1465L78.4087 65.9652V60.8444L78.446 60.8337L81.5409 65.9065L82.2446 67.0635H83.7481V59.4582L84.7024 59.2796V58.3493H81.2983ZM88.1171 61.1003C88.1171 61.3909 88.0452 61.6281 87.8959 61.804C87.7466 61.98 87.536 62.0733 87.2588 62.0733C86.9709 62.0733 86.7523 61.98 86.603 61.804C86.4537 61.6281 86.3764 61.3909 86.3764 61.1003V60.4099C86.3764 60.1273 86.4537 59.8927 86.603 59.7141C86.7523 59.5329 86.9682 59.4422 87.2455 59.4422C87.528 59.4422 87.7439 59.5329 87.8959 59.7141C88.0452 59.8927 88.1171 60.1273 88.1171 60.4099V61.1003ZM89.1514 59.3276C89.1141 59.2636 89.0741 59.2023 89.0261 59.1437C88.8689 58.9198 88.6583 58.7332 88.3997 58.5946C88.0745 58.416 87.6906 58.3253 87.2455 58.3253C86.8083 58.3253 86.4297 58.416 86.1045 58.5946C85.846 58.7332 85.6354 58.9198 85.4728 59.1437C85.4248 59.2023 85.3848 59.2636 85.3475 59.3276C85.1715 59.6395 85.0782 60.002 85.0782 60.4099V61.1003C85.0782 61.7187 85.2755 62.2172 85.6674 62.5984C86.0672 62.9823 86.5924 63.1742 87.2588 63.1742C87.9145 63.1742 88.437 62.9823 88.8315 62.5984C89.2181 62.2172 89.4153 61.7187 89.4153 61.1003V60.4099C89.4153 60.002 89.33 59.6395 89.1514 59.3276ZM85.4061 65.0509H89.0981V63.9819H85.4061V65.0509ZM90.5963 66.1386V67.0636H94.9573V66.1386L93.5312 65.96V58.3121L90.5723 58.8879V59.7783L92.0224 59.7649V65.96L90.5963 66.1386Z" fill="white"/>
</svg>
