<svg width="18" height="27" viewBox="0 0 18 27" fill="none" xmlns="http://www.w3.org/2000/svg">
<path d="M9.084 0C4.16779 0 0.167969 3.99983 0.167969 8.91603C0.167969 10.3919 0.536956 11.8552 1.23841 13.1531L8.59642 26.4607C8.69438 26.6381 8.88104 26.748 9.084 26.748C9.28696 26.748 9.47362 26.6381 9.57158 26.4607L16.9323 13.1487C17.631 11.8552 18 10.3918 18 8.91598C18 3.99983 14.0002 0 9.084 0ZM9.084 13.374C6.6259 13.374 4.62601 11.3741 4.62601 8.91603C4.62601 6.45793 6.6259 4.45804 9.084 4.45804C11.5421 4.45804 13.542 6.45793 13.542 8.91603C13.542 11.3741 11.5421 13.374 9.084 13.374Z" fill="#8E6F63"/>
</svg>
