<svg width="19" height="19" viewBox="0 0 19 19" fill="none" xmlns="http://www.w3.org/2000/svg">
<path d="M9.50034 0C6.0082 0 3.16699 2.84121 3.16699 6.33335C3.16699 7.38169 3.4291 8.42112 3.92736 9.34306L9.154 18.7959C9.22358 18.9219 9.35617 19 9.50034 19C9.64451 19 9.7771 18.9219 9.84668 18.7959L15.0752 9.33995C15.5716 8.42112 15.8337 7.38165 15.8337 6.33331C15.8337 2.84121 12.9925 0 9.50034 0ZM9.50034 9.5C7.75427 9.5 6.33368 8.07942 6.33368 6.33335C6.33368 4.58728 7.75427 3.16669 9.50034 3.16669C11.2464 3.16669 12.667 4.58728 12.667 6.33335C12.667 8.07942 11.2464 9.5 9.50034 9.5Z" fill="#C7B39B"/>
</svg>
