<svg width="151" height="17" viewBox="0 0 151 17" fill="none" xmlns="http://www.w3.org/2000/svg">
<path fill-rule="evenodd" clip-rule="evenodd" d="M37.0371 2.58304L31.5527 14.5171H32.4604L33.944 11.1987H40.8891L42.3842 14.5133H43.3453L37.8609 2.57919L37.0371 2.58304ZM34.3254 10.3941L37.4414 3.54546L40.5344 10.3941H34.3254ZM59.497 6.02467C59.5013 5.61243 59.425 5.20338 59.2725 4.82092C59.12 4.43846 58.8944 4.09008 58.6084 3.79569C57.9028 3.08735 56.7472 2.64078 55.3018 2.64078H50.3742V14.4594H51.2476V9.56255H55.092L58.8334 14.4594H59.9433L56.0646 9.40857C58.044 9.13909 59.497 8.00727 59.497 6.03237V6.02467ZM51.24 8.76182V3.46462H55.2522C57.3842 3.46462 58.6275 4.46169 58.6275 6.04777C58.6275 7.78784 57.1668 8.78491 55.195 8.78491L51.24 8.76182ZM76.4803 2.63693H75.2903L67.8037 10.3941V2.63693H66.9303V14.4594H67.8037V11.4528L70.7251 8.46924L75.5573 14.4478H76.7015L71.362 7.84559L76.4803 2.63693ZM99.0737 3.46462H103.17V14.4748H104.043V3.46462H108.135V2.63693H99.0737V3.46462ZM115.157 14.4748H116.03V2.63693H115.157V14.4748ZM131.984 12.9349L123.875 2.63693H123.052V14.4594H123.891V3.95353L132.167 14.4594H132.823V2.63693H131.984V12.9349ZM145.386 8.31525V9.08519H149.2V12.3844C148.173 13.2217 146.896 13.6843 145.576 13.6971C142.525 13.6971 140.702 11.4836 140.702 8.51159C140.702 5.70515 142.636 3.34528 145.397 3.34528C146.748 3.29819 148.062 3.79384 149.051 4.72347L149.604 4.08442C148.462 3.05975 146.974 2.51799 145.447 2.57149C142.052 2.57149 139.825 5.41257 139.825 8.51159C139.825 11.7761 141.953 14.4517 145.546 14.4517C147.193 14.4389 148.78 13.8265 150.016 12.727V8.30755L145.386 8.31525ZM83.6923 3.48387H92.0829V2.63308H83.6923V3.48387ZM89.5161 8.15356H83.6923V8.99665H89.5161V8.15356ZM83.6923 14.4594H92.0829V13.6163H83.6923V14.4594Z" fill="white"/>
<path fill-rule="evenodd" clip-rule="evenodd" d="M19.4509 0L15.5684 6.71389L11.7049 0H7.02148V9.97459C8.47158 11.2684 10.0397 12.4207 11.7049 13.4162V8.46936L15.3586 14.6289H15.7782L19.4509 8.46936V16.4921H24.1115V0H19.4509Z" fill="white"/>
<path fill-rule="evenodd" clip-rule="evenodd" d="M4.68345 7.60317V0H0C1.1226 2.78419 2.70635 5.35527 4.68345 7.60317V7.60317Z" fill="white"/>
<path fill-rule="evenodd" clip-rule="evenodd" d="M0 9.57022V16.4997H4.68345V12.8309C3.03926 11.8709 1.47319 10.7805 0 9.57022H0Z" fill="white"/>
<path fill-rule="evenodd" clip-rule="evenodd" d="M7.02148 14.082V16.4919H11.7049V15.9722C10.1021 15.4528 8.5372 14.8212 7.02148 14.082V14.082Z" fill="white"/>
</svg>
