<svg width="35" height="35" viewBox="0 0 35 35" fill="none" xmlns="http://www.w3.org/2000/svg">
<g clip-path="url(#clip0_240_2809)">
<path d="M25.4221 11.4698C25.2625 11.0374 25.0079 10.646 24.6771 10.3247C24.3559 9.99391 23.9647 9.73933 23.5321 9.57976C23.1812 9.44347 22.654 9.28125 21.683 9.23705C20.6327 9.18915 20.3178 9.17883 17.6587 9.17883C14.9994 9.17883 14.6845 9.18889 13.6344 9.23679C12.6634 9.28125 12.136 9.44347 11.7854 9.57976C11.3527 9.73933 10.9613 9.99391 10.6403 10.3247C10.3095 10.646 10.0549 11.0371 9.89507 11.4698C9.75878 11.8207 9.59656 12.3481 9.55236 13.3191C9.50446 14.3692 9.49414 14.6841 9.49414 17.3434C9.49414 20.0025 9.50446 20.3174 9.55236 21.3677C9.59656 22.3387 9.75878 22.8658 9.89507 23.2168C10.0549 23.6494 10.3092 24.0406 10.64 24.3618C10.9613 24.6926 11.3524 24.9472 11.7851 25.1068C12.136 25.2433 12.6634 25.4056 13.6344 25.4498C14.6845 25.4977 14.9991 25.5077 17.6584 25.5077C20.318 25.5077 20.633 25.4977 21.6828 25.4498C22.6537 25.4056 23.1812 25.2433 23.5321 25.1068C24.4006 24.7718 25.0871 24.0853 25.4221 23.2168C25.5584 22.8658 25.7206 22.3387 25.7651 21.3677C25.813 20.3174 25.823 20.0025 25.823 17.3434C25.823 14.6841 25.813 14.3692 25.7651 13.3191C25.7209 12.3481 25.5587 11.8207 25.4221 11.4698ZM17.6587 22.457C14.8342 22.457 12.5446 20.1676 12.5446 17.3431C12.5446 14.5187 14.8342 12.2293 17.6587 12.2293C20.4829 12.2293 22.7726 14.5187 22.7726 17.3431C22.7726 20.1676 20.4829 22.457 17.6587 22.457ZM22.9747 13.2222C22.3147 13.2222 21.7796 12.6871 21.7796 12.0271C21.7796 11.3671 22.3147 10.832 22.9747 10.832C23.6347 10.832 24.1698 11.3671 24.1698 12.0271C24.1696 12.6871 23.6347 13.2222 22.9747 13.2222Z" fill="#8E6F63"/>
<path d="M20.9771 17.3433C20.9771 19.1767 19.4909 20.6629 17.6575 20.6629C15.8241 20.6629 14.3379 19.1767 14.3379 17.3433C14.3379 15.5099 15.8241 14.0237 17.6575 14.0237C19.4909 14.0237 20.9771 15.5099 20.9771 17.3433Z" fill="#8E6F63"/>
<path d="M32.4993 0H2.81606C1.4344 0 0.314453 1.11994 0.314453 2.50161V32.1849C0.314453 33.5665 1.4344 34.6865 2.81606 34.6865H32.4993C33.881 34.6865 35.0009 33.5665 35.0009 32.1849V2.50161C35.0009 1.11994 33.881 0 32.4993 0V0ZM27.5564 21.4491C27.5083 22.5092 27.3397 23.233 27.0936 23.8665C26.5762 25.2043 25.5187 26.2618 24.181 26.7791C23.5477 27.0252 22.8237 27.1935 21.7638 27.242C20.7018 27.2904 20.3625 27.302 17.658 27.302C14.9531 27.302 14.6141 27.2904 13.5518 27.242C12.492 27.1935 11.7679 27.0252 11.1347 26.7791C10.4699 26.529 9.8681 26.1371 9.37059 25.6303C8.86407 25.1331 8.47215 24.531 8.22206 23.8665C7.97595 23.2333 7.80738 22.5092 7.75921 21.4493C7.71026 20.3871 7.69888 20.0478 7.69888 17.3432C7.69888 14.6386 7.71026 14.2994 7.75895 13.2374C7.80711 12.1773 7.97542 11.4535 8.22154 10.8199C8.47162 10.1554 8.86381 9.55339 9.37059 9.05614C9.86784 8.54936 10.4699 8.15743 11.1344 7.90735C11.7679 7.66123 12.4917 7.49293 13.5518 7.4445C14.6138 7.39607 14.9531 7.38442 17.6577 7.38442C20.3623 7.38442 20.7015 7.39607 21.7635 7.44476C22.8237 7.49293 23.5474 7.66123 24.181 7.90708C24.8455 8.15716 25.4475 8.54936 25.9451 9.05614C26.4516 9.55365 26.8438 10.1554 27.0936 10.8199C27.34 11.4535 27.5083 12.1773 27.5567 13.2374C27.6051 14.2994 27.6165 14.6386 27.6165 17.3432C27.6165 20.0478 27.6051 20.3871 27.5564 21.4491Z" fill="#8E6F63"/>
</g>
<defs>
<clipPath id="clip0_240_2809">
<rect width="34.6865" height="34.6865" fill="white" transform="translate(0.314453)"/>
</clipPath>
</defs>
</svg>
