<svg width="107" height="76" viewBox="0 0 107 76" fill="none" xmlns="http://www.w3.org/2000/svg">
<path fill-rule="evenodd" clip-rule="evenodd" d="M78.4712 27.2136C78.4892 26.9765 78.4983 26.7363 78.4983 26.4961C78.4983 24.8748 78.1169 23.3406 77.4234 21.9865C77.2643 21.6682 77.0871 21.359 76.895 21.0618C76.5737 20.5634 76.2074 20.095 75.8051 19.6626C75.4058 19.2303 74.9674 18.816 74.4841 18.4767L74.2868 18.3383L74.2863 18.338C73.8082 18.0028 73.329 17.6668 72.8568 17.3238C72.3313 16.9425 71.8089 16.5582 71.2925 16.1679C70.7761 15.7775 70.2627 15.3812 69.7553 14.9819C69.2449 14.5796 68.7405 14.1743 68.2391 13.7659C67.7407 13.3546 67.2423 12.9403 66.7499 12.52C66.2605 12.0996 65.7711 11.6763 65.2878 11.2469C64.8044 10.8176 64.324 10.3823 63.8496 9.94391C63.3722 9.50556 62.9039 9.06421 62.4355 8.61385C61.9701 8.1665 61.5077 7.71614 61.0514 7.25677C60.595 6.80341 60.1387 6.34705 59.6973 5.88168C59.1028 5.25718 58.5174 4.63268 57.9319 3.99017C56.752 2.69614 55.599 1.36308 54.4882 0C53.3082 1.30304 52.0892 2.57905 50.8313 3.82804C45.49 9.13326 39.5333 13.814 33.0751 17.7651L33.0452 17.784L33.0452 17.7841C32.8847 17.8855 32.7289 17.9839 32.5677 18.0744C32.0873 18.3866 31.634 18.7379 31.2136 19.1252C30.7092 19.5936 30.2529 20.113 29.8536 20.6744C29.4512 21.2389 29.106 21.8424 28.8298 22.4789C28.5445 23.1244 28.3314 23.7999 28.1902 24.4905C28.0431 25.2171 27.9831 25.9556 27.9921 26.6972C28.0041 27.5709 28.1422 28.4386 28.3854 29.2793C29.5924 33.4616 33.4504 36.521 38.0171 36.521C38.9268 36.521 39.8185 36.3949 40.6622 36.1668C43.3493 35.4372 45.5861 33.6147 46.8711 31.2068C47.6187 29.8047 48.039 28.2044 48.039 26.4961V26.2859H37.4106C37.978 28.0993 39.4942 29.4895 41.3737 29.8828C40.521 30.7354 39.3291 31.2639 38.0171 31.2639C35.465 31.2639 33.3814 29.2583 33.2493 26.7363V26.4961C33.2493 24.8658 34.0629 23.4276 35.3089 22.5629C35.456 22.4669 35.5971 22.3798 35.7412 22.3047C38.1402 20.8366 40.461 19.2813 42.7068 17.633C43.7516 16.8734 44.7784 16.0868 45.7872 15.2912C47.0993 14.2553 48.3753 13.1895 49.6333 12.0966C51.2336 10.7065 52.7798 9.26537 54.287 7.77919C54.8605 8.41269 55.4459 9.03719 56.0494 9.65868C58.6705 12.3758 61.4327 14.9459 64.339 17.3538C66.5157 19.1672 68.7705 20.8846 71.0914 22.5149C71.1538 22.5533 71.2085 22.5917 71.2633 22.6302L71.3045 22.659C72.4845 23.5417 73.2411 24.9318 73.2411 26.4961C73.2411 29.1232 71.1034 31.2639 68.4643 31.2639C67.1582 31.2639 65.9693 30.7354 65.1076 29.8828C66.9961 29.4985 68.5123 28.0993 69.0768 26.2859H58.4483C58.4393 26.352 58.4393 26.43 58.4393 26.4961C58.4393 28.2044 58.8626 29.8047 59.6102 31.2068C60.8953 33.6057 63.12 35.4282 65.7981 36.1548C66.6508 36.3949 67.5425 36.521 68.4643 36.521C73.7605 36.521 78.0959 32.4138 78.4712 27.2136ZM44.8466 22.7581H50.5751V39.4994C50.5751 41.541 49.2301 43.3064 47.2935 44.1141H59.141C57.2014 43.3064 55.8593 41.541 55.8593 39.4994L55.8413 15.7475V14.1532L55.8323 13.7329C54.8535 14.6606 53.8538 15.5734 52.8389 16.4561C51.5809 17.5609 50.3049 18.6148 48.9899 19.6596C48.6656 19.9178 48.3294 20.179 47.9931 20.4372C47.3115 20.9657 46.612 21.4821 45.9124 21.9925C45.5582 22.2507 45.2009 22.5089 44.8466 22.7581ZM1.55223 55.9376C1.72337 55.5292 1.96957 55.208 2.28782 54.9798C2.61208 54.7546 2.99939 54.6405 3.44974 54.6405C3.6419 54.6405 3.82204 54.6555 3.98417 54.6856C4.1493 54.7186 4.29942 54.7636 4.43453 54.8207C4.57264 54.8807 4.69874 54.9498 4.81283 55.0308L4.94793 56.1958H5.93872V54.4604C5.64449 54.2112 5.30222 54.01 4.91191 53.8689L4.9065 53.8665C4.88055 53.855 4.84988 53.8413 4.82183 53.8329C4.3955 53.6858 3.93313 53.6107 3.43473 53.6107C2.91832 53.6107 2.45595 53.6978 2.04763 53.8689C1.8885 53.932 1.73538 54.01 1.59427 54.1031C1.49219 54.1662 1.39311 54.2382 1.30003 54.3103C0.93074 54.6075 0.633504 54.9858 0.414329 55.4362C0.135107 56.0066 0 56.6551 0 57.3877V57.5769C0 58.3305 0.135107 58.988 0.414329 59.5554C0.633504 60.0028 0.93074 60.3691 1.30003 60.6603C1.40211 60.7384 1.5072 60.8104 1.61829 60.8765C1.72938 60.9456 1.84647 61.0056 1.96957 61.0536C2.41692 61.2548 2.93333 61.3509 3.5158 61.3509C3.99918 61.3509 4.44654 61.2938 4.86687 61.1737C4.99597 61.1377 5.12207 61.0987 5.23917 61.0536C5.50037 60.9606 5.72856 60.8465 5.92972 60.7144V58.988H4.94793L4.80982 60.0448C4.63869 60.1289 4.44353 60.198 4.22136 60.252C3.99918 60.306 3.774 60.3301 3.54882 60.3301C3.08045 60.3301 2.67513 60.222 2.34186 60.0028C2.00559 59.7836 1.75039 59.4654 1.57025 59.0541C1.39311 58.6427 1.30003 58.1533 1.30003 57.5769V57.3787C1.30003 56.8263 1.3841 56.3459 1.55223 55.9376ZM15.9248 54.4063V53.5926H18.603V54.4063L17.9214 54.5053L15.6696 59.8616C15.5255 60.1769 15.3724 60.4471 15.2073 60.6662C15.0992 60.8134 14.9701 60.9365 14.829 61.0325C14.7569 61.0866 14.6788 61.1286 14.6008 61.1676C14.3636 61.2787 14.0604 61.3328 13.6971 61.3328C13.6175 61.3328 13.5255 61.3278 13.4255 61.3223L13.4254 61.3223L13.3968 61.3208L13.3906 61.3203L13.3905 61.3203C13.2799 61.3115 13.2038 61.3055 13.1566 61.2937L13.1596 61.0325L13.1656 60.297C13.1853 60.2986 13.2155 60.3002 13.255 60.3023L13.2554 60.3024L13.2564 60.3024L13.2569 60.3024L13.2571 60.3024C13.2898 60.3042 13.3286 60.3063 13.3728 60.309L13.4513 60.3113L13.4515 60.3113C13.518 60.3134 13.5704 60.315 13.61 60.315C13.8742 60.315 14.0694 60.2549 14.1925 60.1288C14.3186 60.0087 14.4357 59.8136 14.5467 59.5524L14.6999 59.1981L12.4961 54.5114L11.7695 54.4063V53.5926H14.5107V54.4063L13.9102 54.4993L15.0091 57.0243L15.2763 57.7059H15.3063L16.5073 54.5174L15.9248 54.4063ZM29.887 54.6134V60.2879H26.5603C26.7375 60.0297 26.8936 59.7265 27.0257 59.3812C27.1578 59.0359 27.2659 58.6396 27.344 58.2013C27.428 57.7599 27.4791 57.2675 27.5001 56.7301L27.6232 54.6134H29.887ZM31.229 60.2879V54.5594L32.0697 54.4003V53.5776H25.5065V54.4003L26.2871 54.5504L26.149 56.7301C26.131 57.4026 26.0709 57.9671 25.9659 58.4265C25.8638 58.8918 25.7317 59.2731 25.5725 59.5704C25.4104 59.8646 25.2393 60.1048 25.0561 60.2879H24.4316L24.4677 61.1256L24.5637 63.2213H25.7677V61.3178H30.8658V63.2213H32.0787L32.1688 61.1256L32.2048 60.2879H31.229ZM45.0211 60.2789L45.1112 59.2941H46.141V61.2967H40.1152V60.48L40.9589 60.3209V54.5413L40.1152 54.3822V53.5595H46.0089V55.5501H44.9701L44.877 54.5893H42.298V56.7811H45.0151V57.8169H42.298V60.2789H45.0211ZM59.4868 59.8496C59.2376 60.1108 58.8774 60.2429 58.412 60.2429H56.8387V57.5648H58.412C58.8894 57.5648 59.2467 57.6879 59.4898 57.9311C59.733 58.1713 59.8561 58.4835 59.8561 58.8648C59.8561 59.2641 59.733 59.5914 59.4868 59.8496ZM60.8559 57.6338C60.6338 57.2826 60.3155 57.0123 59.9012 56.8172C59.4868 56.625 58.9914 56.5289 58.412 56.5289H56.8387V54.5744H59.2437L59.3127 55.394H60.3786V53.5386H54.626V54.3642L55.4696 54.5234V60.2939L54.626 60.4561V61.2697H58.412C58.8653 61.2697 59.2737 61.2067 59.631 61.0776C59.721 61.0475 59.8111 61.0115 59.8952 60.9725C60.3095 60.7773 60.6308 60.4951 60.8559 60.1348C61.0781 59.7745 61.1922 59.3542 61.1922 58.8738C61.1922 58.3964 61.0811 57.9821 60.8559 57.6338ZM73.6537 54.3072V53.4875H76.6651V54.3072L75.8245 54.4663V60.2129L76.6651 60.372V61.1826H73.6537V60.372L74.4974 60.2129V57.901H71.1287V60.2129L71.9724 60.372V61.1826H68.958V60.372L69.7987 60.2129V54.4663L68.958 54.3072V53.4875H71.9724V54.3072L71.1287 54.4663V56.8682H74.4974V54.4663L73.6537 54.3072ZM90.6036 53.5055V54.3251L91.4413 54.4812V60.2338L90.6036 60.3929V61.2066H93.612V60.3929L92.7744 60.2338V54.4812L93.612 54.3251V53.5055H90.6036ZM88.8382 59.7925C88.595 60.0507 88.2347 60.1828 87.7664 60.1828H86.1991V57.5136H87.7664C88.2438 57.5136 88.601 57.6367 88.8412 57.8769C89.0814 58.1201 89.2045 58.4294 89.2045 58.8107C89.2045 59.207 89.0814 59.5343 88.8382 59.7925ZM90.2073 57.5827C89.9821 57.2314 89.6639 56.9612 89.2525 56.7691C88.8412 56.5799 88.3458 56.4838 87.7664 56.4838H86.1991V54.4812L87.0428 54.3251V53.5055H84.0254V54.3251L84.8691 54.4812V60.2338L84.0254 60.3929V61.2066H87.7664C88.2257 61.2066 88.6341 61.1435 88.9853 61.0144C89.0754 60.9844 89.1655 60.9484 89.2466 60.9093C89.6609 60.7142 89.9791 60.432 90.2043 60.0747C90.4265 59.7144 90.5376 59.2941 90.5376 58.8197C90.5376 58.3453 90.4265 57.931 90.2073 57.5827ZM105.878 60.1858L105.968 59.204H107V61.2066H100.972V60.39L101.815 60.2308V54.4482L100.972 54.2891V53.4665H106.868V55.46H105.824L105.736 54.4963H103.157V56.688H105.872V57.7238H103.157V60.1858H105.878ZM6.88147 68.1903C6.62026 67.6589 6.287 67.2175 5.86967 66.8572C5.73456 66.7431 5.59045 66.6321 5.43732 66.536C4.81883 66.1397 4.09826 65.9355 3.2726 65.9355C2.79222 65.9355 2.34486 65.9986 1.92753 66.1186C1.51621 66.2417 1.14691 66.4039 0.822654 66.617C0.702559 66.6951 0.594473 66.7732 0.489389 66.8572C0.306244 67.0043 0.141112 67.1605 0 67.3256V69.091H1.18294L1.39611 67.821C1.58226 67.6288 1.81945 67.4787 2.11068 67.3586C2.39591 67.2415 2.74118 67.1845 3.1465 67.1845C3.67192 67.1845 4.12528 67.3046 4.49457 67.5508C4.86987 67.791 5.1581 68.1302 5.36527 68.5656C5.56943 69.0039 5.68952 69.5083 5.72856 70.0878L5.71354 70.1178H2.32985V71.3728H5.71354L5.72856 71.4059C5.68952 71.9823 5.56943 72.4867 5.36527 72.9221C5.1581 73.3544 4.87588 73.6877 4.51259 73.9309C4.35947 74.0299 4.19734 74.108 4.0262 74.165C3.78301 74.2491 3.51279 74.2911 3.21556 74.2911C2.88529 74.2911 2.57905 74.2491 2.30283 74.165C2.24579 74.15 2.18874 74.135 2.1347 74.114C1.81344 73.9939 1.56124 73.8438 1.39611 73.6546L1.18294 72.3786H0V74.15L0.0150119 74.165C0.345275 74.5554 0.780621 74.8856 1.34507 75.1408C1.90652 75.405 2.55203 75.5371 3.2726 75.5371C4.08325 75.5371 4.80382 75.339 5.42231 74.9367C5.74957 74.7235 6.04381 74.4683 6.293 74.165C6.51518 73.9068 6.71034 73.6066 6.86946 73.2793C7.21474 72.5768 7.39188 71.7691 7.39188 70.8624V70.6252C7.39188 69.7065 7.22074 68.8929 6.88147 68.1903ZM16.339 74.2581L16.408 74.3541L17.3748 74.5223V75.5371H13.844V74.5223L14.4655 74.4352L14.4505 74.4082L14.3454 74.2581L12.3218 71.4959H11.1448V74.3241L12.1656 74.5223V75.5371H8.43066V74.5223L9.4815 74.3241V67.1454L8.43066 66.9473V65.9204H12.1656V66.9473L11.1448 67.1454V70.0187H12.0846L14.0481 67.1995C14.1712 67.0253 14.2973 66.8722 14.4144 66.7311C14.6456 66.4579 14.8588 66.2597 15.0569 66.1306C15.3572 65.9324 15.6964 65.8364 16.0747 65.8364C16.3029 65.8364 16.5071 65.8604 16.6782 65.9204C16.8554 65.9805 17.0205 66.0555 17.1766 66.1576L17.0535 66.7311L16.9124 67.3796L16.8647 67.3699L16.8223 67.3612C16.7535 67.3469 16.6911 67.334 16.6362 67.3256C16.5491 67.3105 16.4681 67.3015 16.381 67.3015C16.1888 67.3015 16.0117 67.3586 15.8406 67.4727C15.6754 67.5838 15.4803 67.7879 15.2611 68.0822L13.5227 70.4871L16.339 74.2581ZM19.8996 68.7337C20.1067 68.2203 20.41 67.83 20.8153 67.5417C21.2176 67.2595 21.698 67.1184 22.2595 67.1184C22.4996 67.1184 22.7248 67.1394 22.929 67.1754C23.1331 67.2175 23.3193 67.2685 23.4934 67.3436C23.6616 67.4156 23.8177 67.5057 23.9588 67.6108L24.1329 69.0579H25.3669V66.8932L25.3448 66.8745C25.2957 66.8329 25.248 66.7924 25.1958 66.7611C24.8385 66.4849 24.4362 66.2687 23.9738 66.1126C23.4424 65.9294 22.8659 65.8364 22.2444 65.8364C21.3527 65.8364 20.5901 66.0405 19.9506 66.4428C19.7975 66.5419 19.6534 66.647 19.5153 66.7611C19.0829 67.1214 18.7377 67.5717 18.4734 68.1122C18.1312 68.8177 17.957 69.6284 17.957 70.5441V70.7843C17.957 71.721 18.1312 72.5377 18.4734 73.2463C18.6326 73.5645 18.8157 73.8467 19.0409 74.1019C19.3021 74.4172 19.6143 74.6784 19.9776 74.8976C20.6322 75.2909 21.4218 75.486 22.3435 75.486C22.944 75.486 23.5084 75.411 24.0279 75.2639C24.5503 75.1227 24.9886 74.9306 25.3519 74.6934V72.5437H24.1329L23.9528 73.8587C23.7606 73.9578 23.5355 74.0419 23.2833 74.1019C23.2683 74.1079 23.2472 74.1139 23.2262 74.1199C22.95 74.183 22.6678 74.219 22.3856 74.219C22.0793 74.219 21.7971 74.183 21.5359 74.1019C21.3017 74.0419 21.0825 73.9368 20.8814 73.8047C20.458 73.5285 20.1398 73.1352 19.9146 72.6218C19.6954 72.1084 19.5783 71.4959 19.5783 70.7843V70.5351C19.5783 69.8446 19.6834 69.2471 19.8996 68.7337ZM26.917 66.8902V65.8604H36.6417V66.8902L35.5879 67.0914V74.3151L36.6417 74.5163V75.5341H32.8617V74.5163L33.9186 74.3151V67.1544H29.6492V74.3151L30.7 74.5163V75.5341H26.917V74.5163L27.9738 74.3151V67.0914L26.917 66.8902ZM44.9535 73.024L44.8394 74.246V74.258H41.4287V71.1715H44.8364V69.8715H41.4287V67.1243H44.6623L44.7763 68.3313H46.0794V65.8303H38.6875V66.8661L39.7503 67.0642V74.312L38.6875 74.5132V75.537H46.2475V73.024H44.9535ZM52.4993 70.5442C53.0967 70.5442 53.5411 70.382 53.8473 70.0638C54.1386 69.7425 54.2917 69.3342 54.2917 68.8448C54.2917 68.3464 54.1386 67.9351 53.8473 67.6018C53.5411 67.2716 53.0967 67.1094 52.4993 67.1094H50.6798V70.5442H52.4993ZM55.0363 66.6261C55.2434 66.8032 55.4206 67.0104 55.5617 67.2445C55.8379 67.7009 55.976 68.2263 55.976 68.8358C55.976 69.4393 55.8379 69.9707 55.5617 70.4211C55.2855 70.8714 54.8892 71.2257 54.3667 71.4749C53.8473 71.7241 53.2288 71.8472 52.4993 71.8472H50.6798V74.3092L51.7457 74.5103V75.5371H47.9326V74.5103L48.9985 74.3092V67.0434L47.9326 66.8422V65.8064H52.4993C53.2288 65.8064 53.8473 65.9295 54.3667 66.1847C54.6159 66.3108 54.8411 66.4579 55.0363 66.6261ZM56.8564 65.7823V68.3253H58.1175L58.2646 67.0763H60.2281V74.3061L59.1623 74.5072V75.537H62.9843V74.5072L61.9185 74.3061V67.0763H63.882L64.0292 68.3253H65.3022V65.7823H56.8564ZM74.7708 66.7972V65.7523H78.5928V66.7972L77.533 66.9983V74.3031L78.5928 74.5043V75.5371H74.7708V74.5043L75.8336 74.3031V66.9983L74.7708 66.7972ZM69.1743 70.8474V74.2371H71.1679C71.7624 74.2371 72.2157 74.066 72.528 73.7387C72.8372 73.4114 72.9963 72.9971 72.9963 72.4957C72.9963 72.0093 72.8372 71.616 72.534 71.3038C72.2277 71.0005 71.7744 70.8474 71.1679 70.8474H69.1743ZM73.0564 69.9016C73.5818 70.1479 73.9841 70.4901 74.2634 70.9345C74.5456 71.3758 74.6897 71.9012 74.6897 72.5047C74.6897 73.1112 74.5456 73.6426 74.2634 74.099C74.2363 74.144 74.2033 74.1921 74.1703 74.2371C73.8971 74.6304 73.5158 74.9397 73.0444 75.1588C72.522 75.411 71.8945 75.5371 71.1679 75.5371H66.4121V74.5043L67.484 74.3031V66.9983L66.4121 66.7972V65.7523H70.2462V66.7972L69.1743 66.9983V69.5354H71.1679C71.9005 69.5354 72.534 69.6555 73.0564 69.9016ZM91.5678 65.7193V66.7671L92.6336 66.9683V72.7269L92.5976 72.7299L88.8176 66.5479L88.3132 65.7193H85.542V66.7671L86.6138 66.9683V74.2971L85.542 74.5013V75.5341H89.385V74.5013L88.3132 74.2971V68.5295L88.3552 68.5175L91.841 74.231L92.6336 75.5341H94.327V66.9683L95.4018 66.7671V65.7193H91.5678ZM99.2479 68.8177C99.2479 69.145 99.1668 69.4122 98.9987 69.6104C98.8306 69.8085 98.5934 69.9136 98.2811 69.9136C97.9569 69.9136 97.7107 69.8085 97.5425 69.6104C97.3744 69.4122 97.2873 69.145 97.2873 68.8177V68.0401C97.2873 67.7219 97.3744 67.4577 97.5425 67.2565C97.7107 67.0523 97.9539 66.9503 98.2661 66.9503C98.5844 66.9503 98.8276 67.0523 98.9987 67.2565C99.1668 67.4577 99.2479 67.7219 99.2479 68.0401V68.8177ZM100.413 66.8212C100.371 66.7491 100.326 66.68 100.272 66.614C100.095 66.3618 99.8574 66.1516 99.5661 65.9955C99.1999 65.7943 98.7675 65.6923 98.2661 65.6923C97.7737 65.6923 97.3474 65.7943 96.9811 65.9955C96.6899 66.1516 96.4527 66.3618 96.2695 66.614C96.2155 66.68 96.1704 66.7491 96.1284 66.8212C95.9303 67.1724 95.8252 67.5808 95.8252 68.0401V68.8177C95.8252 69.5143 96.0473 70.0757 96.4887 70.5051C96.9391 70.9374 97.5305 71.1536 98.2811 71.1536C99.0197 71.1536 99.6082 70.9374 100.053 70.5051C100.488 70.0757 100.71 69.5143 100.71 68.8177V68.0401C100.71 67.5808 100.614 67.1724 100.413 66.8212ZM96.1945 73.2673H100.353V72.0633H96.1945V73.2673ZM102.04 74.4923V75.5341H106.952V74.4923L105.345 74.2911V65.6772L102.013 66.3258V67.3286L103.646 67.3135V74.2911L102.04 74.4923Z" fill="#8E6F63"/>
</svg>
