<svg width="35" height="35" viewBox="0 0 35 35" fill="none" xmlns="http://www.w3.org/2000/svg">
<g clip-path="url(#clip0_240_2806)">
<path d="M17.7154 8.4325C12.9564 8.4325 9.0861 12.3012 9.08398 17.0567C9.08346 18.6864 9.53969 20.2734 10.4032 21.6466L10.6083 21.9729L9.73658 25.1557L13.0019 24.2993L13.3171 24.4862C14.6416 25.2721 16.1601 25.6879 17.7082 25.6884H17.7117C22.4669 25.6884 26.3373 21.8194 26.3394 17.0636C26.3402 14.7589 25.4436 12.5921 23.8147 10.9619C22.1859 9.33173 20.0196 8.43329 17.7154 8.4325ZM22.7901 20.7648C22.5739 21.3703 21.5378 21.9231 21.0395 21.9978C20.5925 22.0645 20.0273 22.0923 19.4059 21.8951C19.029 21.7755 18.5461 21.6159 17.9271 21.3489C15.3254 20.2258 13.6262 17.6069 13.4965 17.4339C13.3669 17.2608 12.4375 16.0278 12.4375 14.7515C12.4375 13.4754 13.1075 12.848 13.3452 12.5886C13.5831 12.329 13.8641 12.2642 14.0369 12.2642C14.2097 12.2642 14.3828 12.2658 14.5339 12.2732C14.6932 12.2811 14.9071 12.2126 15.1174 12.7183C15.3337 13.2375 15.8523 14.5136 15.9172 14.6433C15.982 14.7732 16.0251 14.9246 15.9389 15.0976C15.8523 15.2707 15.4443 15.792 15.2905 15.9844C15.1759 16.1273 15.0253 16.2541 15.1767 16.5137C15.3278 16.7731 15.8486 17.6223 16.6195 18.3098C17.6103 19.1932 18.446 19.4668 18.7054 19.5967C18.9645 19.7264 19.1158 19.7047 19.2672 19.5319C19.4183 19.3588 19.9156 18.7748 20.0884 18.5152C20.2612 18.2555 20.4343 18.2989 20.6719 18.3855C20.9098 18.4718 22.1848 19.0992 22.4442 19.2289C22.7035 19.3588 22.8763 19.4237 22.9412 19.5319C23.0063 19.6401 23.0063 20.1591 22.7901 20.7648Z" fill="#8E6F63"/>
<path d="M32.1849 0H2.50161C1.11994 0 0 1.11994 0 2.50161V32.1849C0 33.5665 1.11994 34.6865 2.50161 34.6865H32.1849C33.5665 34.6865 34.6865 33.5665 34.6865 32.1849V2.50161C34.6865 1.11994 33.5665 0 32.1849 0V0ZM17.7108 27.441C17.7106 27.441 17.7111 27.441 17.7108 27.441H17.7066C15.9692 27.4402 14.2621 27.0046 12.746 26.1779L7.24337 27.6209L8.71608 22.2435C7.80758 20.67 7.32964 18.8847 7.33044 17.0558C7.33282 11.3344 11.9894 6.6797 17.7108 6.6797C20.4874 6.68076 23.0938 7.76153 25.0534 9.72275C27.0133 11.6842 28.092 14.2914 28.0909 17.064C28.0885 22.7858 23.4315 27.441 17.7108 27.441V27.441Z" fill="#8E6F63"/>
</g>
<defs>
<clipPath id="clip0_240_2806">
<rect width="34.6865" height="34.6865" fill="white"/>
</clipPath>
</defs>
</svg>
