<svg width="28" height="28" viewBox="0 0 28 28" fill="none" xmlns="http://www.w3.org/2000/svg">
<g clip-path="url(#clip0_112_155)">
<path d="M14.2996 6.80688C10.458 6.80688 7.33374 9.92984 7.33203 13.7686C7.3316 15.0841 7.69989 16.3652 8.39694 17.4737L8.5625 17.7371L7.85883 20.3064L10.4947 19.6151L10.7491 19.7659C11.8183 20.4004 13.0441 20.736 14.2938 20.7364H14.2966C18.1352 20.7364 21.2594 17.6132 21.2611 13.7742C21.2618 11.9138 20.538 10.1646 19.2232 8.84869C17.9083 7.53278 16.1596 6.80753 14.2996 6.80688ZM18.396 16.7619C18.2215 17.2507 17.3851 17.697 16.9829 17.7572C16.6221 17.811 16.1658 17.8335 15.6642 17.6743C15.36 17.5778 14.9701 17.4489 14.4705 17.2334C12.3703 16.3268 10.9987 14.2128 10.894 14.0731C10.7893 13.9333 10.0391 12.9381 10.0391 11.9078C10.0391 10.8777 10.58 10.3712 10.7718 10.1618C10.9638 9.95227 11.1907 9.89993 11.3302 9.89993C11.4697 9.89993 11.6094 9.90121 11.7314 9.9072C11.86 9.9136 12.0326 9.85828 12.2024 10.2665C12.377 10.6856 12.7957 11.7157 12.848 11.8204C12.9003 11.9253 12.9352 12.0475 12.8655 12.1872C12.7957 12.3269 12.4663 12.7477 12.3421 12.903C12.2496 13.0184 12.1281 13.1207 12.2503 13.3303C12.3723 13.5396 12.7927 14.2252 13.415 14.7802C14.2148 15.4932 14.8894 15.7141 15.0987 15.819C15.3079 15.9237 15.4301 15.9062 15.5523 15.7667C15.6742 15.627 16.0756 15.1555 16.2151 14.9459C16.3546 14.7364 16.4943 14.7714 16.6862 14.8412C16.8782 14.9109 17.9074 15.4174 18.1168 15.5221C18.3261 15.627 18.4656 15.6793 18.518 15.7667C18.5705 15.854 18.5705 16.2729 18.396 16.7619Z" fill="#C7B39B"/>
<path d="M25.9806 0H2.01938C0.904053 0 0 0.904053 0 2.01938V25.9806C0 27.0959 0.904053 28 2.01938 28H25.9806C27.0959 28 28 27.0959 28 25.9806V2.01938C28 0.904053 27.0959 0 25.9806 0V0ZM14.2967 22.1512C14.2965 22.1512 14.2969 22.1512 14.2967 22.1512H14.2933C12.8909 22.1506 11.5128 21.799 10.2889 21.1316L5.84708 22.2965L7.03589 17.9557C6.30252 16.6855 5.91672 15.2444 5.91736 13.768C5.91928 9.14948 9.67819 5.39206 14.2967 5.39206C16.5381 5.39291 18.642 6.26535 20.2239 7.84851C21.806 9.43188 22.6767 11.5365 22.6759 13.7746C22.674 18.3934 18.9146 22.1512 14.2967 22.1512Z" fill="#C7B39B"/>
</g>
<defs>
<clipPath id="clip0_112_155">
<rect width="28" height="28" fill="white"/>
</clipPath>
</defs>
</svg>
