<svg width="858" height="125" viewBox="0 0 858 125" fill="none" xmlns="http://www.w3.org/2000/svg">
<path d="M75.2607 83.2393H98.0879C97.4792 91.3187 95.238 98.485 91.3643 104.738C87.4906 110.936 82.0951 115.806 75.1777 119.348C68.2604 122.889 59.8766 124.66 50.0264 124.66C42.445 124.66 35.6107 123.332 29.5234 120.676C23.4915 117.964 18.3174 114.118 14.001 109.138C9.73991 104.102 6.47493 98.07 4.20605 91.042C1.93717 83.9587 0.802734 76.0176 0.802734 67.2188V58.0049C0.802734 49.2061 1.96484 41.265 4.28906 34.1816C6.61328 27.0983 9.93359 21.0664 14.25 16.0859C18.6217 11.0501 23.8512 7.17643 29.9385 4.46484C36.0811 1.75326 42.943 0.397461 50.5244 0.397461C60.3747 0.397461 68.7031 2.22363 75.5098 5.87598C82.3164 9.47298 87.6012 14.4258 91.3643 20.7344C95.1273 27.043 97.3962 34.2923 98.1709 42.4824H75.3438C74.901 37.3913 73.7943 33.0749 72.0234 29.5332C70.3079 25.9915 67.707 23.3076 64.2207 21.4814C60.7897 19.5999 56.2243 18.6592 50.5244 18.6592C46.0973 18.6592 42.196 19.4893 38.8203 21.1494C35.5 22.8096 32.7331 25.2998 30.5195 28.6201C28.306 31.8851 26.6458 35.9801 25.5391 40.9053C24.4323 45.7751 23.8789 51.4196 23.8789 57.8389V67.2188C23.8789 73.3613 24.377 78.8675 25.373 83.7373C26.3691 88.6071 27.9186 92.7298 30.0215 96.1055C32.1243 99.4811 34.8359 102.054 38.1562 103.825C41.4766 105.596 45.4333 106.481 50.0264 106.481C55.6156 106.481 60.1533 105.596 63.6396 103.825C67.1813 102.054 69.8652 99.4535 71.6914 96.0225C73.5729 92.5915 74.7627 88.3304 75.2607 83.2393ZM213.635 59.499V65.7246C213.635 74.8555 212.417 83.0732 209.982 90.3779C207.548 97.6273 204.089 103.798 199.606 108.889C195.124 113.98 189.784 117.881 183.586 120.593C177.388 123.304 170.498 124.66 162.917 124.66C155.446 124.66 148.584 123.304 142.331 120.593C136.133 117.881 130.765 113.98 126.228 108.889C121.69 103.798 118.176 97.6273 115.686 90.3779C113.195 83.0732 111.95 74.8555 111.95 65.7246V59.499C111.95 50.3128 113.195 42.0951 115.686 34.8457C118.176 27.5964 121.662 21.4261 126.145 16.335C130.627 11.1885 135.967 7.25944 142.165 4.54785C148.418 1.83626 155.28 0.480469 162.751 0.480469C170.332 0.480469 177.222 1.83626 183.42 4.54785C189.618 7.25944 194.958 11.1885 199.44 16.335C203.978 21.4261 207.465 27.5964 209.899 34.8457C212.39 42.0951 213.635 50.3128 213.635 59.499ZM190.559 65.7246V59.333C190.559 52.7477 189.95 46.9648 188.732 41.9844C187.515 36.9486 185.716 32.7152 183.337 29.2842C180.957 25.8532 178.024 23.2799 174.538 21.5645C171.052 19.7936 167.123 18.9082 162.751 18.9082C158.324 18.9082 154.395 19.7936 150.964 21.5645C147.588 23.2799 144.711 25.8532 142.331 29.2842C139.951 32.7152 138.125 36.9486 136.853 41.9844C135.635 46.9648 135.026 52.7477 135.026 59.333V65.7246C135.026 72.2546 135.635 78.0374 136.853 83.0732C138.125 88.109 139.951 92.3701 142.331 95.8564C144.766 99.2874 147.699 101.888 151.13 103.659C154.561 105.43 158.49 106.315 162.917 106.315C167.344 106.315 171.273 105.43 174.704 103.659C178.135 101.888 181.013 99.2874 183.337 95.8564C185.716 92.3701 187.515 88.109 188.732 83.0732C189.95 78.0374 190.559 72.2546 190.559 65.7246ZM330.095 2.14062V123H307.185L255.803 39.1621V123H232.976V2.14062H255.803L307.351 86.0615V2.14062H330.095ZM402.727 2.14062V123H379.982V2.14062H402.727ZM440.246 2.14062V20.1533H342.878V2.14062H440.246ZM495.031 20.4854L460.583 123H436.428L481.584 2.14062H497.023L495.031 20.4854ZM523.835 123L489.221 20.4854L487.146 2.14062H502.668L548.073 123H523.835ZM522.258 78.0928V96.1055H457.429V78.0928H522.258ZM629.753 83.2393H652.58C651.971 91.3187 649.73 98.485 645.856 104.738C641.983 110.936 636.587 115.806 629.67 119.348C622.753 122.889 614.369 124.66 604.519 124.66C596.937 124.66 590.103 123.332 584.016 120.676C577.984 117.964 572.81 114.118 568.493 109.138C564.232 104.102 560.967 98.07 558.698 91.042C556.429 83.9587 555.295 76.0176 555.295 67.2188V58.0049C555.295 49.2061 556.457 41.265 558.781 34.1816C561.105 27.0983 564.426 21.0664 568.742 16.0859C573.114 11.0501 578.343 7.17643 584.431 4.46484C590.573 1.75326 597.435 0.397461 605.017 0.397461C614.867 0.397461 623.195 2.22363 630.002 5.87598C636.809 9.47298 642.093 14.4258 645.856 20.7344C649.619 27.043 651.888 34.2923 652.663 42.4824H629.836C629.393 37.3913 628.286 33.0749 626.516 29.5332C624.8 25.9915 622.199 23.3076 618.713 21.4814C615.282 19.5999 610.716 18.6592 605.017 18.6592C600.59 18.6592 596.688 19.4893 593.312 21.1494C589.992 22.8096 587.225 25.2998 585.012 28.6201C582.798 31.8851 581.138 35.9801 580.031 40.9053C578.924 45.7751 578.371 51.4196 578.371 57.8389V67.2188C578.371 73.3613 578.869 78.8675 579.865 83.7373C580.861 88.6071 582.411 92.7298 584.514 96.1055C586.617 99.4811 589.328 102.054 592.648 103.825C595.969 105.596 599.925 106.481 604.519 106.481C610.108 106.481 614.646 105.596 618.132 103.825C621.674 102.054 624.357 99.4535 626.184 96.0225C628.065 92.5915 629.255 88.3304 629.753 83.2393ZM719.65 2.14062V123H696.906V2.14062H719.65ZM757.17 2.14062V20.1533H659.802V2.14062H757.17ZM834.284 91.623C834.284 89.2988 833.924 87.2236 833.205 85.3975C832.541 83.516 831.296 81.8281 829.47 80.334C827.699 78.7845 825.181 77.2904 821.916 75.8516C818.706 74.3574 814.556 72.8079 809.465 71.2031C803.82 69.4323 798.563 67.4401 793.693 65.2266C788.824 63.013 784.535 60.4398 780.827 57.5068C777.175 54.5739 774.325 51.1982 772.277 47.3799C770.23 43.5062 769.206 39.0238 769.206 33.9326C769.206 28.9521 770.257 24.4144 772.36 20.3193C774.519 16.2243 777.562 12.7103 781.491 9.77734C785.42 6.78906 790.041 4.49251 795.354 2.8877C800.721 1.28288 806.643 0.480469 813.117 0.480469C822.082 0.480469 829.829 2.11296 836.359 5.37793C842.945 8.6429 848.036 13.07 851.633 18.6592C855.23 24.2484 857.028 30.5293 857.028 37.502H834.284C834.284 33.7389 833.482 30.4186 831.877 27.541C830.327 24.6634 827.948 22.3945 824.738 20.7344C821.584 19.0742 817.6 18.2441 812.785 18.2441C808.137 18.2441 804.263 18.9359 801.164 20.3193C798.12 21.7028 795.824 23.5843 794.274 25.9639C792.78 28.3434 792.033 30.9997 792.033 33.9326C792.033 36.1462 792.559 38.1383 793.61 39.9092C794.662 41.6247 796.239 43.2572 798.342 44.8066C800.445 46.3008 803.046 47.7119 806.145 49.04C809.299 50.3128 812.951 51.5856 817.102 52.8584C823.742 54.8506 829.553 57.0641 834.533 59.499C839.569 61.9339 843.747 64.7008 847.067 67.7998C850.443 70.8988 852.961 74.3851 854.621 78.2588C856.337 82.1325 857.194 86.5319 857.194 91.457C857.194 96.6589 856.171 101.307 854.123 105.402C852.076 109.497 849.143 112.984 845.324 115.861C841.506 118.739 836.913 120.925 831.545 122.419C826.232 123.913 820.284 124.66 813.698 124.66C807.832 124.66 802.022 123.885 796.267 122.336C790.567 120.731 785.393 118.352 780.744 115.197C776.096 111.988 772.388 107.948 769.621 103.078C766.854 98.153 765.471 92.3978 765.471 85.8125H788.381C788.381 89.6309 788.99 92.8958 790.207 95.6074C791.48 98.2637 793.251 100.45 795.52 102.165C797.844 103.825 800.555 105.043 803.654 105.817C806.753 106.592 810.101 106.979 813.698 106.979C818.347 106.979 822.165 106.343 825.153 105.07C828.197 103.742 830.466 101.916 831.96 99.5918C833.509 97.2676 834.284 94.6113 834.284 91.623Z" fill="url(#paint0_linear_31_828)"/>
<defs>
<linearGradient id="paint0_linear_31_828" x1="-24.2698" y1="70.0014" x2="693.554" y2="70.0014" gradientUnits="userSpaceOnUse">
<stop stop-color="#61D2FF"/>
<stop offset="1" stop-color="#006AFF"/>
</linearGradient>
</defs>
</svg>
