<svg width="183" height="44" viewBox="0 0 183 44" fill="none" xmlns="http://www.w3.org/2000/svg">
<g clip-path="url(#clip0_53_83)">
<path fill-rule="evenodd" clip-rule="evenodd" d="M36.9091 35.0808L33.9351 35.3635C33.4624 35.412 33.0541 35.5332 32.4773 35.5338C31.9509 35.5347 31.3886 35.4926 30.8831 35.5691C29.8718 35.721 28.7327 35.5638 27.6763 35.6206L23.5102 35.7146C23.0633 35.7011 23.058 35.6314 22.6109 35.6183C22.2862 35.609 21.9336 35.6387 21.6118 35.6217C21.2064 35.5995 21.1796 35.5312 20.7098 35.5285C19.7247 35.523 18.5883 35.3087 17.6035 35.1066C15.9812 34.7732 14.2172 34.2498 13.2194 32.9834C12.3411 31.8685 12.5755 30.5029 13.2125 29.3331L13.8341 28.3291C13.9246 28.2155 13.8205 28.336 13.9584 28.1831L14.455 27.6862C14.4684 27.6738 14.4882 27.6556 14.5025 27.6436L14.6973 27.4775C14.9168 27.2983 15.1546 27.113 15.3652 26.9708C16.3222 26.3246 17.5186 26.0285 18.6338 25.7195C19.1981 25.5626 19.9942 25.5606 20.6078 25.4322C21.2857 25.2902 22.9214 25.19 24.0943 24.9379L40.7106 22.7378L40.0306 25.0347C39.9205 25.3592 39.8704 25.4688 39.7861 25.7818L37.1574 34.2467C37.0691 34.5023 36.9298 34.8335 36.9086 35.0811L36.9091 35.0808ZM103.8 20.8453L104.447 18.6062C105.249 16.5608 106.02 14.3791 107.441 12.6672C108.025 11.964 108.333 11.5206 109.09 10.8857L110.478 9.83441C111.18 9.3943 112.432 8.8985 113.255 8.63496L116.496 7.8967C117.097 7.80419 117.766 7.81285 118.291 7.7006C119.251 7.49518 125.363 7.42819 126.377 7.65401C127.429 7.88716 128.499 7.87296 129.459 8.18952C129.737 8.28091 129.91 8.28424 130.187 8.36588C131.122 8.64051 132.457 9.23347 133.052 10.019C133.882 11.1164 133.659 12.6269 132.985 13.6768C132.023 15.1757 130.321 16.0628 128.693 16.7024C127.413 17.2053 124.374 18.0316 122.987 18.231C122.647 18.2796 122.303 18.3027 121.957 18.377L119.838 18.7002C119.609 18.7286 119.042 18.7543 118.773 18.8118L108.092 20.2533C107.042 20.4784 105.976 20.5339 104.909 20.6881C104.49 20.7482 104.416 20.8456 103.8 20.8456V20.8453ZM11.5651 8.3224C11.5651 8.61056 11.6818 8.79623 11.8577 8.93244C12.4186 9.36457 13.1026 9.18999 13.6957 9.09194L27.0812 8.09058C27.9005 7.96813 28.8107 8.13739 29.63 8.01405C31.1359 7.78822 35.4825 7.80797 37.0408 8.10123L39.2539 8.51162C39.5182 8.57174 39.7123 8.615 39.9771 8.69264C41.418 9.11323 42.9899 9.84395 43.584 11.3187C44.1601 12.7473 43.7472 14.8521 42.2638 15.5437C41.5423 15.8805 36.8046 16.4286 35.7725 16.6505C35.6049 16.6871 35.4656 16.747 35.3468 16.7674C34.4254 16.9229 33.5955 16.9242 32.7078 17.1134C32.3104 17.198 32.2371 17.2097 31.7771 17.2692C31.2032 17.3428 30.6679 17.465 30.0383 17.5198C28.8753 17.6225 27.6968 17.9282 26.576 18.0378C26.1006 18.0837 26.1017 18.0418 25.697 18.1541L17.7448 19.4285C15.9304 19.7721 13.9444 20.2562 12.2325 20.8788L11.1097 21.2926C10.9428 21.3593 10.9034 21.3582 10.7037 21.429L9.98625 21.7063C7.4627 22.7008 4.43992 24.477 2.78467 26.6106C1.4762 28.2961 0.645569 30.0221 0.199161 32.146C-0.306084 34.5549 0.121157 37.072 1.81229 38.9314L2.16019 39.3052C3.39711 40.4885 4.78559 41.122 6.3586 41.7933L9.21244 42.6471C9.98112 42.7966 10.7115 43.0183 11.5477 43.115C12.0734 43.1758 12.6052 43.3428 13.1949 43.3679C14.4318 43.4204 15.3855 43.6443 16.6342 43.6389C17.899 43.6327 18.8634 43.8189 20.1645 43.8189L24.5109 43.8209C25.4055 43.8248 26.9943 43.6356 28.2199 43.6383C30.0035 43.6425 31.6447 43.5553 33.2112 43.3814C33.616 43.3368 34.035 43.3996 34.4426 43.3464L36.7283 43.0981C37.3675 43.0799 37.4625 42.979 37.9171 42.9304L42.4721 42.2381C42.8708 42.1449 43.1916 42.1198 43.5279 42.0278C44.4884 41.764 45.5977 41.5471 46.3775 40.99C47.0459 40.5133 47.5498 39.9649 47.8555 39.2178L49.5707 33.7177C49.7236 33.2248 50.7453 30.2444 50.7582 29.6739H50.9396C50.9396 31.5129 51.2452 33.3062 51.9075 35.0165C52.0339 35.3433 52.1039 35.4675 52.2499 35.7577C52.7159 36.6858 53.2436 37.5485 53.9414 38.3085L54.986 39.3409C55.2348 39.5625 55.2958 39.6402 55.5675 39.8427L57.5082 41.0644C59.7421 42.3292 62.3507 42.8858 64.8246 43.3322C65.957 43.5362 69.8131 43.8191 70.8523 43.8191H74.1116C75.663 43.8191 81.3497 43.65 82.9969 43.4744C83.524 43.418 83.9071 43.3674 84.4309 43.3694C85.2087 43.3728 87.6872 42.955 88.3895 42.7148C89.5586 42.3159 90.4987 41.8649 91.055 40.7738C91.1896 40.5107 91.4116 39.9989 91.4796 39.6648C91.6527 38.8121 91.9618 37.9143 92.0334 37.0618L93.4448 38.7202C93.4945 38.7697 93.536 38.8041 93.5863 38.8493C93.9008 39.1335 94.0795 39.3667 94.4402 39.6215L94.7499 39.8542C97.0105 41.7432 100.6 42.7527 103.387 43.3293C105.77 43.8222 109.707 43.9994 112.128 43.9994L121.722 43.9087C122.048 43.9087 122.398 43.9216 122.721 43.912C123.168 43.8985 123.173 43.8288 123.62 43.816C124.227 43.7978 124.926 43.8619 125.519 43.8138C126.105 43.7665 126.663 43.6314 127.333 43.6374C128.398 43.6483 129.867 43.3934 130.716 43.131C131.464 42.9005 132.088 42.5608 132.635 42.0681L133.039 41.5692C133.77 40.53 134.426 37.8174 134.872 36.5463C135.487 34.7925 134.45 34.8304 133.218 34.8994C132.761 34.9251 132.453 34.8858 132.002 34.9508C130.947 35.1028 128.128 35.2556 127.059 35.2563L118.28 35.6166C117.736 35.6181 117.623 35.7073 117.11 35.7139C114.357 35.7477 111.559 35.6363 108.863 35.2658C107 35.0103 105.154 34.4863 103.751 33.2374L103.057 32.3955C102.881 32.1116 102.74 31.8765 102.623 31.5668C102.499 31.2362 102.418 30.9738 102.352 30.575L102.171 28.5028L116.689 26.6461C117.153 26.5615 117.699 26.5582 118.178 26.5068C118.378 26.485 118.623 26.4136 118.861 26.3756L121.79 26.0478C121.985 26.02 122.234 25.9293 122.46 25.9029C122.944 25.8475 123.479 25.8503 123.949 25.7645L126.12 25.402C126.386 25.3466 126.579 25.3648 126.842 25.31C128.546 24.9537 130.432 24.6556 132.093 24.0499C132.383 23.9444 132.406 23.9559 132.72 23.8634C132.93 23.8013 133.146 23.7145 133.327 23.6564C133.678 23.5428 133.572 23.5508 133.923 23.4395C135.818 22.835 137.821 21.8811 139.45 20.7417L139.711 20.5512C139.832 20.4687 139.858 20.4565 139.98 20.3686L142.564 18.076C142.847 17.7967 143.119 17.3242 143.355 17.1511C143.298 17.8277 142.363 20.5093 142.115 21.4126C141.453 23.8283 140.61 26.2048 139.943 28.6199L138.267 34.16C137.727 36.1734 137.036 38.0665 136.513 40.0719C136.344 40.7203 135.71 41.9594 136.002 42.5722C136.254 43.1001 136.867 43.3688 137.472 43.3688H147.067C147.915 43.3688 148.809 42.8432 149.15 42.1092C149.345 41.6886 149.394 41.3825 149.554 40.8895C149.636 40.634 149.655 40.5419 149.737 40.2615L154.468 23.8873C154.608 23.4344 154.68 23.0745 154.818 22.6149L155.212 21.2952C155.277 21.0714 155.327 20.8713 155.394 20.6657L155.748 19.3952C155.834 19.0367 155.861 19.0512 155.955 18.7015L157.488 13.4698C157.751 12.7147 158.274 12.0013 158.769 11.4116C158.898 11.2581 159.031 11.1359 159.178 11.0081L159.325 10.8837C160.085 10.2732 161.002 9.82288 161.932 9.51475C163.124 9.11989 165.094 8.77294 166.346 8.77294H174.583C176.479 8.77294 178.028 8.95285 179.923 8.95285C180.659 8.95285 181.393 8.22945 181.671 7.62961L183 3.63727C183 2.33489 182.242 1.44534 181.232 0.892973C179.739 0.0761825 176.422 0.31421 175.192 0.1485C173.574 -0.0700058 167.938 -0.0112199 166.412 0.189096C165.804 0.269621 165.046 0.257864 164.453 0.311326L159.313 1.23149C158.289 1.46819 157.134 1.82911 156.165 2.24239L155.452 2.52434C153.139 3.52569 150.915 4.80545 149.096 6.55749L148.672 6.94681C148.576 7.03865 148.542 7.07791 148.451 7.17796L147.233 8.57817C146.957 8.93843 146.158 10.2157 145.89 10.3943C145.89 9.13653 145.933 8.31108 145.56 7.11851C145.405 6.62138 145.21 6.28752 144.981 5.89332C143.329 3.04276 139.265 1.59685 136.232 0.997679L127.153 0.0335904C125.179 0.0335904 123.088 -0.103503 121.142 0.176229C120.242 0.305336 119.365 0.212832 118.513 0.352587C117.4 0.53449 116.303 0.5671 115.216 0.854818C114.383 1.07599 113.043 1.25434 112.105 1.54184C111.817 1.62968 111.587 1.66806 111.312 1.74393C111.047 1.81691 110.874 1.88989 110.557 1.98395C110.271 2.06913 110.08 2.12104 109.8 2.22109L105.119 4.22913C103.562 5.11424 102.053 6.04306 100.667 7.18506L97.1538 10.6257C96.9675 10.8631 96.8902 10.913 96.7 11.1645C96.5356 11.3837 96.429 11.5277 96.2741 11.7324L92.7241 17.7485L91.0742 22.323C90.9852 22.5927 91.0465 22.3332 90.9567 22.6564C90.8747 22.9525 90.8346 23.1628 90.7552 23.4461C90.4726 24.4479 90.2206 25.6028 90.135 26.613C89.9652 28.6237 89.8165 29.4332 90.1078 31.5007C90.2502 32.5127 90.3625 33.6999 90.8562 34.6292C89.6219 34.6292 86.6711 34.5061 85.5532 34.6662C84.3963 34.8319 78.0601 35.0799 77.008 35.0799H75.4688C73.9609 35.0799 72.7077 34.8459 71.3043 34.8102C70.6542 34.794 68.2802 34.274 67.569 34.024C66.3934 33.6114 65.4729 33.1908 64.6735 32.4013L63.9826 31.4676C63.6884 30.8416 63.6111 30.3913 63.4413 29.7537C63.2097 28.883 63.3401 27.7146 63.3401 26.7911C63.3401 26.0041 64.0606 22.8243 64.3691 21.8689C65.8587 17.2505 67.6573 13.8525 71.9219 11.2777C72.9611 10.6503 74.0737 10.0984 75.2556 9.73082L77.4878 9.0702C77.6583 9.0336 77.8694 9.02228 78.0434 8.99256C79.1255 8.80733 80.0987 8.51007 81.2603 8.50097C82.1306 8.49365 82.6359 8.32173 83.5251 8.32173C86.124 8.32173 88.6291 8.37586 91.2239 8.58749C91.6041 8.61854 91.9888 8.56442 92.3733 8.61455C92.6938 8.65714 93.0662 8.7654 93.4789 8.77538C94.4152 8.79712 95.0109 8.9524 95.9258 8.9524C96.6711 8.9524 97.0118 8.01538 97.0118 7.42109L96.6735 5.86537C96.5113 4.81588 96.4975 3.4272 96.031 2.54097C95.3089 1.17115 93.9164 0.657164 92.3909 0.30822L82.9815 0.0331467L76.0857 0.737024C75.5667 0.80668 75.5076 0.876336 75.0227 0.940002L69.1068 2.61928C66.1616 3.74309 63.4221 5.27906 61.0365 7.29065L60.3937 7.8215C59.5874 8.49742 58.8818 9.26009 58.2065 10.0594L55.7367 13.277C55.7367 11.255 56.2664 10.2408 55.4902 7.84656C55.2258 7.03199 54.8035 6.12736 54.2613 5.46607C52.6936 3.55409 50.5547 2.34731 48.224 1.56491C48.006 1.49192 47.7907 1.43314 47.5346 1.35062C47.2331 1.25257 47.1482 1.24569 46.8165 1.16405L44.5878 0.680013C44.1842 0.625886 44.1829 0.611688 43.827 0.535821L42.2368 0.31665C38.3956 -0.0739988 34.6202 0.0333686 30.7546 0.0333686C28.9585 0.0333686 27.4724 0.214606 25.7763 0.213275C25.2042 0.213275 24.6236 0.203293 24.0531 0.209948C22.8278 0.224811 18.9015 0.539149 17.7176 0.751L16.3367 1.08841C14.3761 1.78297 13.5388 2.52234 12.8314 4.44674L12.1982 6.33965C12.1149 6.61894 12.0598 6.69858 11.966 7.00914C11.8742 7.30995 11.5655 8.11587 11.5655 8.32218L11.5651 8.3224Z" fill="#83B813"/>
</g>
<defs>
<clipPath id="clip0_53_83">
<rect width="183" height="44" fill="white"/>
</clipPath>
</defs>
</svg>
