<svg width="106" height="94" viewBox="0 0 106 94" fill="none" xmlns="http://www.w3.org/2000/svg">
<path fill-rule="evenodd" clip-rule="evenodd" d="M52.0562 22.263C47.9289 18.9763 44.4496 14.1936 35.1897 14.3429C27.8273 14.4614 21.39 18.8666 21.4046 26.1019C21.4335 40.462 47.5994 48.1272 51.612 46.0472C50.8821 44.6429 51.7995 45.7404 50.499 44.9142L45.8602 43.0296C26.2225 34.2075 31.2961 19.4903 42.116 21.3945C48.9288 22.593 49.544 28.1052 52.6009 29.5044C54.1934 28.4498 54.0188 27.8678 55.849 26.0988C57.0168 24.9699 58.026 23.651 59.542 22.7424C71.0547 15.8462 77.4919 32.5369 68.1145 42.5469C64.9365 45.9388 57.7422 52.5336 50.428 52.0812C39.378 51.3974 19.6031 43.9393 13.355 34.7765C-0.698751 14.1674 26.9681 -0.620571 47.8533 11.9287C56.3407 17.0288 49.4081 14.745 61.4484 10.069C73.2871 5.47202 86.887 7.29291 93.14 17.2235C97.8639 24.7256 94.1653 33.6643 90.2276 39.1166C87.4642 42.9433 83.0196 47.163 79.3879 49.946C77.5931 51.3214 76.0877 51.9054 75.5371 53.5931C79.0517 55.3992 93.8181 45.6541 97.4693 40.9103C119.203 12.6729 89.5196 -6.32648 64.6653 1.95306C57.6121 4.30254 54.8011 7.23794 52.056 7.97995C48.1161 5.57272 45.6376 3.73573 40.3643 2.12869C26.2623 -2.16857 7.90204 -0.434425 1.89221 12.5166C-2.7346 22.4871 1.86159 31.2515 7.7461 38.734C15.6408 48.7726 44.0083 61.1938 57.6086 56.3939C67.1702 53.019 73.5555 47.8763 78.0077 41.5692C91.1296 22.9801 75.5573 6.87682 57.5391 18.6058C55.6707 19.8218 53.8596 21.7426 52.056 22.263H52.0562Z" fill="#FF0000"/>
<path fill-rule="evenodd" clip-rule="evenodd" d="M16.796 81.2469C16.4935 84.9679 15.1517 92.1825 18.8594 93.9995C20.1074 92.175 19.8263 85.2908 20.2372 82.4468C20.7118 79.1651 22.5522 74.037 21.514 71.4962C15.7056 70.8038 13.1882 82.4196 9.97589 86.9567L9.39884 87.6628C9.23009 81.6816 11.7266 73.5453 11.191 69.2891C8.21673 69.5826 7.63208 72.6208 6.65107 77.1091C5.93372 80.3904 5.28718 85.5029 6.05079 88.8757C7.0129 93.1233 10.6361 95.1679 12.6453 90.5529L15.3168 83.5431C15.527 83.0759 15.643 82.8196 15.919 82.3839C16.0007 82.2547 16.1082 82.1183 16.1877 82.0026L16.7958 81.2467L16.796 81.2469Z" fill="#FF0000"/>
<path fill-rule="evenodd" clip-rule="evenodd" d="M72.344 71.3448C73.5988 68.9269 74.155 66.0952 77.4471 66.1682C79.3554 70.4755 76.1935 75.7666 73.3621 77.1295C72.4263 75.048 73.8864 74.405 74.3064 71.9177C73.1061 71.3242 73.3699 72.1427 72.344 71.3448V71.3448ZM66.8007 89.5692C70.0015 89.9165 70.0149 86.6823 70.7418 79.4176C72.9019 79.8558 74.3175 80.7486 76.4997 78.8847C81.4745 74.6358 84.5845 60.7162 73.9416 64.7898C74.3336 62.9279 74.8811 63.3959 73.8247 61.834C70.0566 61.9441 70.506 65.7731 68.6523 74.3221C67.8138 78.1902 64.99 86.5893 66.8007 89.5692V89.5692Z" fill="#FF0000"/>
<path fill-rule="evenodd" clip-rule="evenodd" d="M44.8943 78.2686C43.766 74.6311 47.4279 69.4637 40.9954 69.7147C39.5086 71.5572 31.1997 83.7854 36.2742 86.5623C38.9735 84.9239 37.6546 79.5871 41.1579 74.1594C41.9836 75.7491 41.23 81.4438 42.0672 83.8762C45.3462 83.704 46.1878 81.0333 48.0573 77.6872L49.6414 75.3165C49.7018 75.242 49.8262 75.0966 49.9279 74.995C49.6755 79.2305 49.2831 83.4163 53.4065 83.9698C53.9566 81.3335 53.102 79.296 53.0583 76.2397C53.011 72.9434 53.7917 71.0888 51.512 69.3359C48.2508 70.0047 46.8109 75.4515 44.8941 78.2688L44.8943 78.2686Z" fill="#FF0000"/>
<path fill-rule="evenodd" clip-rule="evenodd" d="M85.9307 71.1993C88.2359 78.3399 93.5874 78.2476 94.5 76.6461C95.0254 75.7235 90.4896 75.2486 88.7845 70.2991C90.2105 68.802 91.0729 68.7174 92.4316 67.1762C94.4668 64.868 95.056 63.5989 93.7796 62.3686C91.314 59.9921 91.3129 64.635 86.3243 67.695C87.1031 64.3177 89.2221 57.8249 89.1131 54.6995C84.7247 54.5936 85.2568 58.2487 82.5864 68.1737C82.0232 70.2669 80.0249 75.1516 82.0006 76.7839C84.463 78.8184 84.4087 74.2393 85.2297 72.3798C85.5887 71.5667 85.563 71.6607 85.9309 71.1993H85.9307Z" fill="#FF0000"/>
<path fill-rule="evenodd" clip-rule="evenodd" d="M29.4751 79.7382L26.1182 80.6549L27.6771 72.6034C22.9139 71.719 23.376 76.4895 22.6672 80.5789C21.9496 84.7194 20.1385 88.98 24.5697 89.7332L25.471 83.8989L29.0857 82.6186C28.9535 85.6809 28.275 88.4052 29.7433 90.3015C31.1405 89.5605 30.2932 91.0166 31.1843 88.4482C31.4232 87.7603 31.6571 86.1217 31.8137 85.3127C32.6371 81.0566 32.2859 82.8187 34.7185 80.5426C33.8457 78.9755 32.9274 79.9705 34.2939 75.4078C34.8957 73.3991 35.7399 71.4998 35.524 69.4262C30.7102 68.193 31.7186 72.3947 29.4749 79.7379L29.4751 79.7382Z" fill="#FF0000"/>
<path fill-rule="evenodd" clip-rule="evenodd" d="M57.4986 78.7847C56.444 76.4829 60.1734 67.1084 63.7082 70.0788C63.4704 71.4434 58.7283 77.9843 57.4986 78.7847V78.7847ZM63.217 76.4041C62.8558 79.2253 62.2939 82.7387 64.9959 83.5608C66.0696 81.7474 67.2787 71.7225 68.1759 68.6819C66.734 67.3901 66.8602 68.3891 65.4129 66.8784C65.3421 66.8044 64.8929 66.1403 64.7748 66.002C58.8686 65.5054 55.6658 70.3339 54.7491 75.7342C53.9479 80.4547 56.7052 84.6218 60.7376 78.8968C61.6111 77.6569 61.8353 76.8934 63.2167 76.4041H63.217Z" fill="#FF0000"/>
<path fill-rule="evenodd" clip-rule="evenodd" d="M96.6268 72.0525C96.4225 70.489 96.2785 69.7393 96.5906 68.1277C97.1672 65.1516 97.6009 66.3189 98.2516 65.8886C100.879 64.1506 99.025 63.654 102.405 61.9858C101.952 66.1656 100.311 71.2444 96.6271 72.0525H96.6268ZM99.9254 58.8243C93.7909 61.5261 90.3833 78.1751 99.7629 73.9034C102.102 72.8381 104.368 68.9516 105.336 65.4058C107.438 57.6975 103.983 58.858 102.741 58.796C101.792 58.7483 100.53 58.5581 99.9256 58.8243H99.9254Z" fill="#FF0000"/>
</svg>
