<svg width="175" height="63" viewBox="0 0 175 63" fill="none" xmlns="http://www.w3.org/2000/svg">
<path fill-rule="evenodd" clip-rule="evenodd" d="M136.907 28.8606C137.526 26.6757 138.63 24.5975 139.762 23.1409C141.272 21.2084 142.269 20.5189 144.766 20.9851C145.133 26.1416 141.736 28.3265 136.907 28.8606V28.8606ZM98.8912 28.4237C98.446 24.5975 97.4588 16.7705 101.814 16.6734C103.633 19.7615 101.011 27.404 98.8912 28.4237ZM0.0290344 5.32128V7.51595C5.24555 13.5173 8.77807 26.4523 11.3137 35.4641L17.6819 58.9452C18.7369 62.0721 19.7627 63.4899 23.0243 62.849C24.6696 58.7995 20.8661 40.5915 20.1402 34.7552C19.2885 27.9187 17.2948 10.5458 20.5951 5.4281C27.9698 8.55503 27.6311 46.2627 30.128 48.8846C31.3281 50.1471 33.1863 49.8072 33.9896 48.2146C34.7058 46.7871 35.0348 26.2678 37.0963 17.3434C37.9673 13.5756 38.8771 9.46786 42.1579 8.87549C47.0744 16.013 35.2865 49.3022 47.4035 50.7297C52.2232 51.3027 54.3814 45.5247 55.3492 41.3975C56.3751 42.4074 55.9493 41.9413 56.7139 43.1843C57.372 44.2428 57.2655 44.4176 58.0398 45.379C59.0463 46.6317 60.5754 47.6028 62.9756 47.4571C65.9081 47.2823 67.4469 45.3013 68.6276 43.1358L69.7406 41.145C69.7987 41.0479 69.9052 40.8731 70.0019 40.7469C83.2126 53.9732 80.706 24.0537 80.2027 15.644C95.378 18.6544 79.3994 26.6368 83.3481 39.2902C84.2578 42.2132 86.9 44.3593 90.6744 43.5533C92.4262 43.1746 93.8876 42.2229 94.8457 41.3198L97.062 38.7852C97.933 37.9598 97.0523 38.5716 98.204 37.8821C100.856 43.9903 110.747 48.0883 113.07 34.2794L113.979 36.037C115.044 38.659 116.418 45.9714 122.196 43.6893C125.138 42.5337 126.851 38.0181 127.548 34.9106C127.897 33.3665 127.916 32.1138 128.913 30.9582C131.623 31.8322 131.139 31.0942 130.868 34.0366C130.423 38.8726 130.51 44.7089 135.833 46.9327C143.14 49.982 146.895 40.3099 150.011 37.4451C149.45 41.4752 146.256 47.0201 147.737 50.1859C150.882 50.9045 151.356 49.3411 152.547 47.7096C154.095 45.5732 161.799 35.1436 163.831 36.8333C163.841 36.8431 165.651 37.0179 163.512 40.5138C162.757 41.7374 162.147 42.2812 161.441 43.7378C160.415 45.8354 159.118 49.5741 160.125 52.3903C162.225 58.2849 172.406 52.6331 175 50.8171V48.4768C171.584 45.6994 169.813 50.4287 164.054 50.2636C164.993 44.2719 172.532 38.8532 169.067 33.4539C164.644 26.5689 155.673 37.0081 154.55 37.7656C154.831 35.6292 155.295 33.6481 155.615 31.5117C156.021 28.7441 156.67 26.0153 154.957 24.6072C151.221 21.5386 144.098 45.0488 137.662 42.7473C135.02 40.7469 134.487 36.1439 136.191 32.4731C141.097 32.3663 143.827 31.0068 146.101 28.3654C148.133 25.9959 149.721 21.3735 147.475 18.266C145.24 15.1876 140.894 15.5858 138.039 17.9261C135.92 19.6644 133.471 23.6459 132.581 27.1515L128.729 26.0348C128.38 22.2669 128.951 16.8288 126.319 14.8574C122.699 12.1481 119.506 15.9451 120.086 20.4315C120.948 27.0933 126.242 24.7723 123.106 35.1533C121.819 39.4359 121.228 38.9309 119.835 39.4456C118.896 35.8817 117.725 31.8613 117.038 27.7439C116.244 22.9564 117.144 17.7319 111.56 18.936C108.473 23.374 112.518 34.3765 106.73 38.1152C103.198 38.0958 102.617 36.241 101.33 33.3568C103.004 30.5601 107.66 27.0156 108.792 19.6644C111.066 4.81631 91.5261 5.02995 94.236 26.5494C94.7005 30.2202 96.4039 32.376 94.7489 34.7649C90.568 40.8537 85.6708 41.1644 89.0001 29.589C89.6969 27.1709 91.4003 23.1215 91.739 21.0336C93.0649 12.8667 85.7676 12.2743 80.4834 10.1573C78.8574 7.95295 76.8153 -2.23385 70.5052 3.44706C64.2144 9.10855 75.2378 14.032 75.5475 14.2457C76.2153 20.2859 77.1154 33.4733 75.1023 38.3968C69.1599 32.4925 72.8473 26.3941 66.3823 28.5208C64.9016 32.949 67.2727 39.5815 62.4046 42.1549C56.9558 36.911 58.6205 21.7134 62.4046 20.1014C64.9403 22.0921 64.0789 26.7145 68.3083 23.976C70.8826 18.1397 60.0238 7.56451 55.4267 21.6842C53.6459 27.1709 54.9331 34.8911 50.065 43.194C48.7197 45.4858 49.3682 44.7089 47.8197 45.0974C43.6 37.4937 50.4521 18.5767 47.6842 8.89491C46.0679 3.23342 39.5836 1.30094 36.264 6.52544C34.609 9.12797 31.783 18.3728 31.8507 21.8882C30.0796 14.401 28.9183 -2.0105 19.5305 0.203602C11.8557 2.00984 14.614 21.1793 14.6527 28.783C12.3493 24.8403 7.95543 -1.93281 0 5.30186L0.0290344 5.32128Z" fill="#FD0116"/>
</svg>
