<svg width="107" height="114" viewBox="0 0 107 114" fill="none" xmlns="http://www.w3.org/2000/svg">
<path fill-rule="evenodd" clip-rule="evenodd" d="M0 86.3539V110.874C0 111.911 0.78032 112.637 1.92619 112.637H3.6992C4.55348 112.637 5.09377 112.231 5.38115 111.665C5.56435 111.303 5.56393 111.072 5.56393 110.54V93.2817C5.73761 93.2957 5.83165 93.5868 5.99055 93.8606L7.81342 97.0623C8.29287 97.8624 8.7894 98.8242 9.28089 99.6447C9.34659 99.7546 9.39414 99.8468 9.45605 99.9568L11.8522 104.169C11.9777 104.392 12.0954 104.585 12.218 104.808L13.3087 106.732C13.4287 106.956 13.5601 107.143 13.6757 107.37L15.1508 109.945C15.3714 110.314 15.6831 110.913 15.9028 111.233C16.4123 111.976 17.3094 112.637 18.5567 112.637H21.614C22.751 112.637 23.5096 111.898 23.5096 110.692V88.9365H63.0078C63.6419 88.9365 64.2002 88.4938 64.2002 87.8426V85.8676C64.2002 85.0715 63.5903 84.7132 62.8242 84.7132H20.0244C18.7894 84.7132 17.9702 85.3695 17.9753 86.5962C17.9994 92.2723 17.9761 97.9942 17.9761 103.673H17.8844C17.8483 103.539 17.6199 103.191 17.5383 103.045C17.4117 102.818 17.3057 102.616 17.1797 102.399C17.1225 102.3 17.0669 102.191 17.0037 102.087L11.2868 91.9693C11.2208 91.8607 11.1779 91.7712 11.1103 91.6583C11.0446 91.5491 10.9971 91.4562 10.9352 91.3462C10.8646 91.2208 10.8202 91.142 10.7509 91.0129L8.42449 86.9138C7.98688 86.1798 7.63572 85.442 6.82813 85.0367C6.36391 84.8038 5.88235 84.6523 5.19732 84.6523H1.77301C1.24074 84.6523 0.798698 84.8747 0.526768 85.1454C0.266661 85.4042 0 85.8494 0 86.3538L0 86.3539Z" fill="#005594"/>
<path fill-rule="evenodd" clip-rule="evenodd" d="M47.8447 11.7892H51.2382C51.1985 11.9582 50.3668 13.4283 50.2293 13.7034C50.1585 13.8451 50.0845 13.9653 50.015 14.0978C49.9184 14.2817 49.6592 14.7129 49.6178 14.8885C50.0784 14.8782 52.3389 14.1591 54.7847 14.1591C56.1617 14.1591 57.6678 14.4118 58.1999 15.7479C58.4412 16.3541 58.5931 16.9989 58.715 17.727C59.2955 21.1959 59.5989 24.8621 60.8899 28.0842C61.5842 29.8181 62.963 31.9879 64.2694 33.4456C64.3742 33.5625 64.4655 33.6717 64.5627 33.7923L65.4715 34.773C65.6477 34.9998 66.2812 35.6284 66.5468 35.8613L67.2198 36.4686C67.7832 37.0258 68.4688 37.5449 69.0848 38.0487C69.2933 38.2191 70.0859 38.8619 70.1924 38.8619C70.4081 38.8619 70.6203 38.826 70.6203 38.558C70.6203 38.3239 70.2059 38.0084 70.0472 37.852L68.196 35.8325C68.0921 35.7105 67.9936 35.6101 67.8996 35.4892C67.8081 35.3716 67.7092 35.2716 67.6072 35.1418C67.4126 34.8942 67.223 34.6869 67.0347 34.4345C65.6662 32.6009 64.84 31.4902 63.752 29.3415C63.2309 28.3125 62.8085 27.237 62.4466 26.1418C61.2732 22.592 61.392 17.0484 60.0735 14.4021C59.9974 14.2485 59.9188 14.1429 59.8288 14.007C58.706 12.312 56.0909 12.1363 53.9946 12.4324L52.461 12.7008C52.689 12.2726 53.8687 10.4339 53.9283 10.1788H51.4216C51.7033 9.76085 52.2178 8.83557 52.5125 8.34602C52.6408 8.13307 52.7555 7.94407 52.8582 7.71726C53.0068 7.38753 53.1105 6.97951 53.2291 6.62752L53.6531 5.5907C53.7594 5.37902 53.8921 5.14359 54.0198 4.95226C54.2103 4.66707 54.4553 4.4014 54.6621 4.13215C54.8018 3.9505 54.9934 3.80728 55.1585 3.65334C55.7516 3.10079 56.6202 2.67447 57.3889 2.46698C59.7912 1.81826 62.1814 2.47895 63.9908 3.91521C64.6374 4.4289 65.2472 4.9892 65.8137 5.59782L69.2403 9.63632C69.6169 10.1011 70.3456 10.8495 70.765 11.2505L74.7432 14.376C75.2184 14.7585 75.7811 15.2268 76.2073 15.6556L78.5905 17.9964C78.6683 18.089 78.686 18.1207 78.7754 18.2083C78.8451 18.277 78.9102 18.3337 78.9738 18.4057C79.0499 18.4916 79.0695 18.5325 79.1572 18.6184C79.3005 18.7581 79.3967 18.8835 79.5401 19.0275C79.9168 19.4055 80.7973 20.4768 81.1768 20.9254L81.5248 21.3395C81.5935 21.4244 81.6387 21.4727 81.7048 21.5557L82.4032 22.4413C82.5255 22.5969 82.6271 22.7384 82.7504 22.8865L83.4176 23.7732C83.5328 23.9397 83.6366 24.0596 83.7538 24.2287L85.2279 26.3189C85.2855 26.4033 85.3329 26.4762 85.3865 26.556L86.9516 28.8896C87.7465 30.0749 89.0331 32.0244 89.726 33.1818L91.5256 36.1026C91.9244 36.7595 92.3117 37.4051 92.6946 38.0706C92.7839 38.2264 92.8784 38.3842 92.9777 38.5486L93.99 40.3077C94.0469 40.403 94.0798 40.474 94.1314 40.5624L95.3933 42.8326C95.7815 43.6128 96.237 44.3508 96.6266 45.1314C96.8105 45.4999 96.9829 45.8091 97.1667 46.1745L98.7358 49.3244C98.8288 49.5097 98.9013 49.6856 98.9905 49.8614C99.0359 49.9505 99.0762 50.0259 99.1236 50.1244C99.9876 51.9136 100.923 54.0188 101.646 55.8211C102.026 56.7678 102.425 57.6935 102.763 58.6612C102.812 58.8038 102.955 59.1338 102.965 59.2503C102.863 59.2417 102.841 59.2142 102.776 59.1648L97.1999 55.3179C96.248 54.6335 95.3187 53.9841 94.3831 53.2863C93.686 52.7659 92.9602 52.2736 92.2885 51.7219C92.1678 51.6228 92.0674 51.5568 91.9415 51.459L86.7533 47.2571C86.4166 46.9759 85.5795 46.2755 85.302 45.9949L84.6601 45.4178C84.2027 44.9579 83.5715 44.4266 83.086 43.9438C82.8747 43.734 82.6847 43.5469 82.4747 43.336L81.8475 42.7438C81.7334 42.6321 81.6747 42.5401 81.5572 42.4246L78.7786 39.4744C78.2823 38.8582 77.7312 38.2857 77.237 37.6643C77.0474 37.4263 76.8797 37.2304 76.6909 36.9914L74.848 34.5994C74.754 34.4753 74.6813 34.3707 74.5902 34.2483L73.5793 32.8219C73.247 32.3284 72.934 31.8561 72.6012 31.3632L69.862 26.8236C69.16 25.6755 68.1853 23.6293 67.5837 22.4342C67.2423 21.7556 66.9564 21.0379 66.6158 20.3574L66.0529 19.094C65.879 18.6669 65.367 18.7372 65.3696 19.141C65.3729 19.7973 66.0755 22.1463 66.2857 22.9036C66.5993 24.032 67.4227 26.1396 67.9708 27.2147L68.8574 29.0071C69.6372 30.5593 70.6767 32.1858 71.6293 33.6057C71.8061 33.8688 71.9746 34.1158 72.1666 34.3781L72.7238 35.1612C73.7114 36.6019 76.2052 39.6258 77.3838 40.8909L78.5153 42.1058C78.5815 42.1804 78.5929 42.2131 78.6677 42.2885C78.7302 42.3513 78.7731 42.3925 78.8365 42.4553L79.1568 42.8052C79.2754 42.924 79.3745 43.0202 79.4938 43.1389L80.1512 43.8225C80.5153 44.1843 81.8308 45.542 82.1548 45.8115L82.5053 46.1317C82.6241 46.2498 82.7198 46.351 82.8409 46.4665L85.4701 48.8671C85.959 49.3365 87.0434 50.2168 87.6109 50.7194L88.5275 51.4796C88.6522 51.5903 88.7697 51.6733 88.8942 51.7835L90.0028 52.6872C91.2546 53.6589 92.4926 54.6535 93.7676 55.5998L94.5358 56.1727C95.2367 56.6963 95.0873 56.4697 95.3795 57.3395C96.1043 59.4949 96.9212 61.6248 97.6415 63.7816C97.865 64.4504 98.1116 65.0864 98.3371 65.7643L98.8641 67.2461C98.9285 67.4168 98.9659 67.5704 99.0342 67.7453C99.8037 69.7204 98.8856 69.4291 97.187 69.4291C96.0339 69.4291 96.0086 68.381 95.6762 67.5279C95.4026 66.8259 95.0279 65.6971 94.7831 64.9818L93.8966 62.4293C93.8233 62.2077 93.7462 62.011 93.6752 61.7988L93.2393 60.5304C93.1584 60.2874 93.0814 60.0404 92.7846 60.0404C92.6584 60.0404 92.479 60.1895 92.479 60.3139C92.479 60.6222 93.0455 63.2359 93.1184 63.598L94.1327 68.4543C94.1826 68.6985 94.2641 69.0171 94.2819 69.2784C94.3053 69.6264 94.3212 69.8233 94.1435 70.0808C94.0013 70.2864 93.3707 70.8977 93.1899 71.0775C92.9505 71.3155 92.4579 71.9209 92.051 71.9209C91.5946 71.9209 91.4507 71.5341 91.3653 71.1441L90.4123 66.9254C90.1926 65.9642 89.8982 64.9144 89.6996 63.9578C89.5377 63.1787 89.3123 62.364 89.116 61.5899L87.3307 54.5225C87.2341 54.1388 87.1469 53.5684 86.7317 53.5684C86.5037 53.5684 86.3725 53.8009 86.3983 54.0487C86.4236 54.2921 86.4659 54.5471 86.5046 54.7968L87.9021 63.4349C87.979 63.8931 88.0525 64.3906 88.1455 64.864C88.2361 65.3218 88.3063 65.8075 88.3906 66.2914C88.4703 66.7463 88.5577 67.2337 88.6446 67.7102C88.9049 69.1375 89.135 70.5399 89.4139 71.9592C89.5063 72.4285 89.5792 72.9256 89.6903 73.3557C89.9511 74.3644 90.4485 75.02 91.5922 75.02C92.079 75.02 92.65 74.7124 92.8999 74.4662L95.301 72.1734C96.2279 71.4211 97.9445 71.6473 99.4796 71.6473C100.271 71.6473 100.53 71.6618 101.005 71.3092C102.17 70.442 101.408 68.6794 100.995 67.6191L100.218 65.4753C100.137 65.2323 100.043 65.008 99.9571 64.7617C99.6229 63.803 99.2539 62.8785 98.933 61.9207C98.8525 61.6796 98.7707 61.4415 98.6758 61.2037L98.1609 59.7712C98.145 59.729 97.6218 58.4221 97.6762 58.369C97.7153 58.3312 97.8353 58.449 97.8549 58.4643C97.9234 58.5168 97.9781 58.5561 98.0472 58.608L99.2704 59.489C99.9491 59.9897 100.687 60.4116 101.393 60.8732C101.541 60.9696 101.691 61.0502 101.835 61.1327C102.136 61.3052 102.435 61.4637 102.751 61.6204C103.12 61.8039 104.923 62.7511 105.417 62.1129C105.8 61.6177 105.491 60.2709 105.374 59.8032C104.73 57.2314 103.721 54.8589 102.703 52.4312L99.439 45.6481C99.2448 45.2621 99.0561 44.9198 98.8685 44.5441C98.7749 44.357 98.6828 44.2058 98.583 44.0073C98.3479 43.5388 97.6776 42.276 97.4069 41.8339L95.2819 38.0817C95.1727 37.9009 95.0886 37.7387 94.9802 37.5611L91.4948 31.819C90.8463 30.7948 90.2164 29.7548 89.5379 28.7501C89.4228 28.5798 89.3287 28.4229 89.2138 28.252L88.2112 26.7267C87.9758 26.3756 87.7662 26.0479 87.5325 25.6995C86.8096 24.622 86.0874 23.5409 85.3037 22.5061C84.524 21.4773 83.7557 20.4247 82.9033 19.4532L82.5129 18.9906C82.2236 18.6168 81.8659 18.2356 81.5417 17.8895L78.8671 15.109C78.7137 14.9559 78.5789 14.8528 78.4238 14.6988C78.3522 14.6274 78.2987 14.5682 78.2254 14.5006L73.1483 10.3098C72.3546 9.66739 71.9397 9.25557 71.2086 8.47036C71.131 8.38699 71.1126 8.34184 71.0258 8.257C70.9336 8.16692 70.9085 8.11544 70.8269 8.02894C70.6811 7.87436 70.566 7.73935 70.4276 7.5751C70.1637 7.26344 69.9241 6.97657 69.6657 6.66134L68.5375 5.29144C68.0435 4.68304 67.0041 3.61304 66.486 3.13694C66.4032 3.06072 66.3565 3.04076 66.2711 2.95528L65.8209 2.55227C65.7393 2.48991 65.6753 2.43214 65.5857 2.36052C64.9716 1.86845 64.0335 1.19453 63.3009 0.893801C62.9916 0.766968 62.709 0.624999 62.3932 0.519976C61.4546 0.208546 60.5595 0.0358912 59.6653 0H58.9602C58.164 0.0315166 57.3592 0.1701 56.5161 0.414346C55.7199 0.64451 54.8151 1.13089 54.1555 1.62338L53.7449 1.94448C52.9265 2.57303 52.3275 3.42254 51.8014 4.29721C51.7124 4.44442 51.6442 4.61873 51.5751 4.77079C51.5039 4.92662 51.4316 5.12255 51.3716 5.29792C50.7836 7.01536 50.9312 6.6302 49.9789 8.19837L47.8448 11.7893L47.8447 11.7892Z" fill="#005594"/>
<path fill-rule="evenodd" clip-rule="evenodd" d="M96.8196 95.9848C97.4368 95.9848 98.11 96.1148 98.6659 96.3074C99.0873 96.4532 99.7108 96.8011 100.053 97.116C100.448 97.4805 100.744 97.8262 101.018 98.3147C101.233 98.6982 101.528 99.5393 101.528 99.9956H92.1116L92.3014 99.1209C92.5826 98.1181 93.3065 97.2042 94.2031 96.6655C94.9291 96.2295 95.959 95.9848 96.8196 95.9848ZM107 101.575V102.424C106.98 102.704 106.935 102.95 106.857 103.135C106.522 103.92 105.841 104.037 104.921 104.037H92.0812C92.0812 104.31 92.1757 104.767 92.2399 105.003C92.3599 105.445 92.5285 105.815 92.7436 106.204C93.137 106.915 94.0175 107.736 94.7757 108.043C95.8341 108.473 96.0937 108.473 97.217 108.473C97.9809 108.473 98.9769 108.207 99.5656 107.829C99.9629 107.574 100.332 107.279 100.624 106.906C100.936 106.507 101.146 106.116 101.615 105.946C102.15 105.753 104.316 105.829 105.013 105.829C105.367 105.829 105.692 105.857 105.905 106.006C106.462 106.396 106.262 107.162 106.087 107.687C105.773 108.63 105.089 109.56 104.394 110.258C103.829 110.827 102.61 111.648 101.829 111.963C101.217 112.21 101.174 112.253 100.454 112.48C99.1342 112.897 98.0794 112.997 96.6149 113H96.5447C95.0193 113 93.4025 112.548 92.3766 112.038L91.5405 111.593C91.2645 111.43 91.0181 111.267 90.7709 111.082L89.261 109.696L88.0703 108.023C88.0232 107.946 87.9957 107.88 87.9524 107.806C87.9129 107.737 87.8848 107.699 87.8417 107.612C86.935 105.809 86.5781 104.228 86.5781 101.97C86.5781 100.483 87.0077 98.8278 87.4753 97.7878C87.6995 97.2891 87.8398 96.9883 88.1242 96.5185C88.5227 95.86 88.9455 95.2879 89.4902 94.7465C90.1131 94.1278 90.1907 94.0665 90.8497 93.5759C90.9799 93.4791 91.095 93.4037 91.2309 93.317L92.0506 92.8554C92.5061 92.6294 92.9078 92.4755 93.3995 92.3123C96.3862 91.3212 100.197 91.7434 102.768 93.4459C102.902 93.535 103.012 93.6194 103.139 93.7147C103.206 93.7643 103.246 93.7933 103.314 93.8445L104.134 94.5795C104.617 95.0598 105.156 95.7581 105.493 96.359C106.059 97.3682 106.475 98.2814 106.723 99.4814C106.808 99.8936 106.956 100.756 107 101.575L107 101.575Z" fill="#005594"/>
<path fill-rule="evenodd" clip-rule="evenodd" d="M35.616 95.9846C36.6788 95.9846 38.1184 96.3876 38.8493 97.1157C38.8979 97.1645 38.9216 97.1934 38.9744 97.2348C39.0471 97.2919 39.0555 97.2827 39.1193 97.3642C39.3706 97.6838 39.5582 97.8106 39.8149 98.3136C39.9373 98.553 40.0619 98.8118 40.1448 99.0797C40.2115 99.2952 40.3239 99.7215 40.3239 99.9954H30.9384C30.9384 99.4449 31.2338 98.6935 31.4272 98.3237C31.7316 97.7418 32.1543 97.2726 32.6719 96.887C33.4736 96.2902 34.6184 95.9846 35.616 95.9846L35.616 95.9846ZM25.3745 102.092C25.3745 104.305 25.7422 105.613 26.5054 107.318C26.659 107.662 26.8665 108.05 27.0742 108.363C27.4993 109.006 27.95 109.623 28.5003 110.167C30.2568 111.902 32.7626 113 35.3407 113H35.4173C37.0283 112.995 38.4571 112.831 39.9571 112.241C40.9965 111.831 41.8007 111.419 42.6708 110.714C42.7752 110.629 42.8339 110.569 42.9316 110.487C43.0366 110.399 43.0765 110.371 43.1745 110.273C43.7489 109.699 44.2226 109.11 44.5941 108.372C44.8647 107.834 45.4384 106.524 44.7229 106.015C44.6188 105.941 44.4903 105.887 44.3515 105.867C43.834 105.793 41.9093 105.829 41.2714 105.829C40.0044 105.829 39.964 106.282 39.1924 107.166C39.1307 107.237 39.0223 107.322 38.941 107.402C38.295 108.041 36.9915 108.473 36.0747 108.473C35.4008 108.473 35.0773 108.504 34.4067 108.338C34.0739 108.255 33.8558 108.158 33.5716 108.043C33.1583 107.876 32.5901 107.456 32.2605 107.128C31.5345 106.407 30.9883 105.362 30.8773 104.037C35.0454 104.037 39.2131 104.037 43.381 104.037C44.6655 104.037 45.7655 103.968 45.7655 102.244C45.7655 100.905 45.6341 99.7625 45.2347 98.548L44.8994 97.6356C44.6763 97.1408 44.5636 96.8594 44.2809 96.3967C44.0432 96.0074 43.7994 95.6272 43.5131 95.2761C43.2249 94.9233 42.8207 94.455 42.4593 94.166C41.5942 93.4738 41.1512 93.0718 39.9658 92.6033C37.2193 91.5171 33.9021 91.4846 31.2446 92.6732C31.1123 92.7322 30.9596 92.7929 30.8262 92.8648C30.7432 92.9095 30.7117 92.9364 30.6333 92.9767C29.9326 93.3371 29.1365 93.9014 28.5768 94.4579C28.1913 94.8409 28.0301 94.9946 27.6713 95.4417C27.4695 95.6931 27.3212 95.9092 27.1355 96.185C26.0764 97.7563 25.3745 99.9928 25.3745 102.092V102.092Z" fill="#005594"/>
<path fill-rule="evenodd" clip-rule="evenodd" d="M47.2942 97.8703C47.2942 98.9626 47.3379 99.4444 47.8243 100.413C48.5208 101.8 49.8708 102.705 51.2812 103.266C53.0813 103.982 56.2787 104.51 58.2585 105.174C58.8001 105.355 59.523 105.786 59.523 106.469C59.523 107.315 59.2147 107.823 58.4734 108.222C57.6861 108.645 56.729 108.687 55.7627 108.687C54.5915 108.687 53.0674 108.22 52.3426 107.255C51.5105 106.147 51.846 105.831 49.9234 105.831H48.2728C47.2416 105.831 46.8359 106.09 46.8359 107.107C46.8359 107.641 47.0073 108.223 47.173 108.595C47.7213 109.829 48.6867 110.727 49.8565 111.428C50.6404 111.897 51.4404 112.245 52.4198 112.526C53.4255 112.815 54.56 112.975 55.7078 113.002H56.389C57.5049 112.976 58.6119 112.822 59.6039 112.536C60.3906 112.308 60.9354 112.118 61.6328 111.757C62.4516 111.333 63.4141 110.607 63.9314 109.848C64.0072 109.737 64.0564 109.682 64.1293 109.559C64.8176 108.396 64.995 107.649 64.995 106.196C64.995 105.455 64.7687 104.625 64.5266 104.109C63.8147 102.591 62.5925 101.687 61.0824 101.091C60.1373 100.718 56.9874 99.9497 55.9706 99.6994C55.6176 99.6127 55.2991 99.5251 54.9498 99.4379C54.6021 99.3512 54.2528 99.259 53.9411 99.134C53.2717 98.8658 52.7363 98.5458 52.7363 97.6879C52.7363 96.1481 54.6192 95.8043 55.8544 95.8043C57.4214 95.8043 58.5582 96.1788 59.3356 97.2059C59.4102 97.3046 59.4604 97.3981 59.5245 97.504C59.7083 97.8072 59.8148 98.0834 60.2756 98.2161C60.7105 98.341 62.7455 98.2957 63.2833 98.2957C63.6097 98.2957 63.9017 98.2399 64.0839 98.089C64.3979 97.8299 64.3838 97.3775 64.3838 96.989C64.3838 96.1164 63.7287 95.0916 63.1377 94.4601C63.0541 94.3706 63.0392 94.316 62.9382 94.2331L62.4806 93.837C62.2036 93.5906 61.7882 93.3397 61.4621 93.1479C58.0731 91.1511 51.7677 91.2778 48.9682 94.0648C48.0209 95.008 47.2943 96.3506 47.2943 97.8704L47.2942 97.8703Z" fill="#005594"/>
<path fill-rule="evenodd" clip-rule="evenodd" d="M6.1763 32.6664C6.1763 33.1425 6.27436 33.4377 6.44255 33.8603C6.71618 34.5459 6.5239 35.2318 6.34767 35.9358C6.07529 37.0211 6.11777 37.8418 6.69758 38.8333C6.82712 39.0546 6.95219 39.2911 7.09314 39.5035C7.49502 40.1089 8.28614 40.7713 8.16569 41.6015C8.12049 41.9127 8.04293 42.1733 7.97363 42.4745C7.64631 43.8946 7.97151 45.5041 8.75016 46.6984C8.8032 46.7801 8.83829 46.8397 8.89088 46.9233C9.22263 47.4482 9.62748 47.9601 10.0511 48.4135L11.8706 50.4032C11.9528 50.484 11.9678 50.521 12.0386 50.6008C12.1026 50.673 12.1671 50.7289 12.2372 50.7986C12.3053 50.866 12.3589 50.9112 12.4177 50.9839C12.4783 51.0595 12.5504 51.1332 12.5962 51.2012C12.2617 51.2289 5.92294 53.938 5.12637 54.2898C4.80731 54.431 4.51719 54.5473 4.21969 54.6954C3.79624 54.9062 3.36772 55.1337 2.98823 55.4161C2.84266 55.5245 2.74354 55.586 2.60642 55.7051L2.25016 56.0193C2.11599 56.1209 2.03802 56.236 1.91885 56.3585C1.71009 56.5723 1.52542 56.8734 1.37814 57.1275C0.674929 58.3395 0.705162 59.9148 0.704102 61.3497L0.795794 63.6588C1.14612 63.6588 1.5455 63.6655 1.87998 63.6124C2.66412 63.4885 3.02775 62.9788 3.02775 62.1094C3.02775 59.5699 2.73108 58.1801 4.29342 56.9564C4.7604 56.5907 5.30259 56.3343 5.85303 56.106L6.99299 55.6287C7.19668 55.5489 7.37397 55.4716 7.57406 55.3857L11.0286 53.9577C11.2232 53.8741 11.4093 53.801 11.5921 53.7277C11.7886 53.6494 11.9864 53.5599 12.1726 53.4841L15.6358 52.0346C15.8369 51.95 16.0093 51.8973 16.2126 51.8179C17.3513 51.3727 18.5612 51.3013 19.7607 51.6465C21.3413 52.101 22.9412 53.0657 24.2619 54.0095L24.9872 54.5646C25.0789 54.6381 25.1542 54.6908 25.2433 54.7658C25.3839 54.8834 26.9348 56.2321 26.9954 56.4581C27.2813 56.3075 27.5425 56.0576 27.8034 55.8633C27.9778 55.7335 28.4847 55.3914 28.585 55.2425C28.3965 54.9622 27.6067 54.1587 27.3929 53.9965C27.2889 53.9178 27.2384 53.8502 27.1412 53.7609L26.0742 52.8768C24.8002 51.9292 23.9225 51.3689 22.5112 50.5839C22.2874 50.4592 22.0926 50.371 21.8507 50.268C21.7258 50.2153 21.6474 50.1721 21.5147 50.116L20.4494 49.7161C19.7291 49.4755 19.1068 49.4085 18.3131 49.4085C16.8922 49.4085 15.7053 50.3592 14.3291 49.6011C13.8053 49.3123 13.1281 48.5061 12.723 48.0063L11.5665 46.6647C11.5123 46.6007 11.4708 46.5465 11.4172 46.4786C11.3502 46.393 11.3107 46.3552 11.2509 46.2791C10.6055 45.4559 9.85841 44.4823 10.1559 43.2762L10.3036 42.8457C10.4712 42.89 10.8048 43.1886 10.9571 43.2896C11.2978 43.5152 11.6477 43.6865 11.9978 43.8963C12.2746 44.0622 12.8519 44.2964 13.1595 44.4127C14.1414 44.7838 15.1878 45.0531 16.2432 45.2065C16.4029 45.2301 16.6128 45.2731 16.7541 45.2763C16.7541 45.0684 16.6449 44.658 16.6037 44.4532C16.5754 44.3117 16.5521 44.1979 16.5223 44.0479C16.3573 43.2283 16.6531 43.6985 14.9984 43.0409C13.5411 42.4615 12.006 41.5614 10.8464 40.4828L10.1888 39.8602C9.5744 39.2499 8.74419 38.1591 8.74419 37.285C8.74419 37.0471 8.76044 36.7869 8.82447 36.5748C8.87816 36.3988 8.95083 36.2625 8.98887 36.0999C9.12895 36.1371 9.21791 36.2564 9.32927 36.3391C9.89471 36.7568 10.4946 37.1216 11.1289 37.4369C12.3122 38.0253 14.1915 38.774 15.6535 38.774C16.624 38.774 17.4732 38.4397 18.1821 38.1574C18.5734 38.0016 18.9115 37.8653 19.3256 37.7445C20.892 37.2873 22.6059 37.671 24.0786 38.0875C25.5662 38.5083 27.0011 39.1073 28.4282 39.6894C28.7456 39.819 28.866 39.8373 29.2273 39.8373C29.7431 39.8373 29.9377 39.3874 30.1344 39.0375C30.2082 38.9063 30.2914 38.8067 30.3276 38.6522C29.9745 38.4668 29.6465 38.2679 29.278 38.0852L27.6475 37.3052C26.4485 36.7499 24.7782 36.0937 23.5041 35.7721C23.2932 35.7192 23.091 35.6652 22.8793 35.6031C22.1116 35.378 21.2983 35.2797 20.4531 35.2797C19.1186 35.2797 18.1223 35.8236 17.0075 36.2608C15.745 36.756 14.7322 36.436 13.4957 36.0874C12.8309 35.8996 12.1715 35.6153 11.5568 35.31L9.91332 34.2696C9.52769 33.9151 8.82364 33.2437 9.19153 32.5034C9.6864 31.5075 11.9589 30.9422 12.8166 30.7282C13.9096 30.4552 16.3391 30.023 17.549 30.023C17.6395 29.6361 18.2592 28.571 18.2827 28.291C15.1975 28.291 12.0432 28.8097 9.51313 29.8149C8.53629 30.203 7.85971 30.5661 7.0498 31.1953C6.97565 31.253 6.96761 31.2564 6.90188 31.3217C6.62548 31.5962 6.17627 32.1456 6.17627 32.6666L6.1763 32.6664Z" fill="#005594"/>
<path fill-rule="evenodd" clip-rule="evenodd" d="M0.702733 4.5275C0.702733 5.63151 1.03301 6.46799 1.64302 7.14801C1.70978 7.22257 1.75585 7.25112 1.82094 7.33577C1.92639 7.47269 2.06605 7.57433 2.19263 7.69573C2.37518 7.87129 2.60444 8.03533 2.81196 8.1735C2.69045 8.42572 2.85992 9.15297 2.91592 9.37684C3.1289 10.231 3.58216 10.9248 4.10892 11.5943C4.59049 12.2069 5.34312 12.7717 6.03239 13.1163C6.63648 13.4185 7.38766 13.6428 8.28442 13.6428C8.31211 13.9718 8.55657 14.3366 8.76049 14.507C8.90545 14.6279 8.97728 14.7016 9.14123 14.7968C9.25998 14.8648 9.48397 14.9759 9.65997 14.9797V15.2229C7.93239 15.2229 6.45393 15.4715 5.27783 16.0329C4.99215 16.1692 4.70351 16.3303 4.46326 16.4993C3.68802 17.0445 2.93452 17.8545 2.93452 18.8693C2.37078 18.9995 1.69462 19.6997 1.3876 20.1575C0.54958 21.4072 0.534801 22.8372 1.09135 24.2256C2.01936 26.5399 4.95748 27.7359 7.35721 26.4555C7.88629 26.173 7.61902 26.1176 8.18636 26.2589C9.50804 26.5882 11.1951 26.3702 12.2192 25.5449C12.4035 25.3957 12.601 25.241 12.7432 25.0629C12.7986 24.9942 12.8493 24.9589 12.9055 24.8898C12.9581 24.8247 13.0071 24.7651 13.0536 24.7034C13.2884 24.3925 13.195 24.5502 13.5998 24.5385C13.6417 24.5373 13.7319 24.5209 13.8168 24.52C14.6696 24.5101 15.5465 24.1086 16.1652 23.572L16.6385 23.131C17.021 22.753 17.6392 21.8613 17.6392 21.3V21.1479C17.6392 20.8734 17.3157 20.7762 17.1106 20.9568L16.6535 21.4442C15.9522 22.1419 15.0597 22.4565 14.0803 22.6545C13.7344 22.7246 12.7263 22.8194 12.3198 22.8194C12.0109 23.278 11.6398 23.6867 11.1887 24.004C10.1601 24.7279 8.8534 24.7237 7.74451 24.1765C7.56279 24.0868 7.43962 23.9994 7.27564 23.9129C6.96544 24.3732 6.08411 24.7332 5.53305 24.7332C4.31743 24.7332 3.3313 24.1397 3.03929 22.9884C2.81511 22.106 3.01542 21.137 3.67298 20.545C3.72876 20.4948 3.75835 20.4658 3.81306 20.4108C3.98379 20.2386 4.20418 20.1115 4.43068 20.0219C4.65086 19.9351 4.48922 19.6745 4.86027 18.9298C5.55458 17.5364 7.56193 16.9246 8.98757 16.9246L10.0574 16.9853C10.1373 16.8673 10.2372 16.7316 10.3397 16.6277C10.4071 16.5596 10.4445 16.5237 10.5163 16.4687C10.8193 16.2364 11.1667 15.9939 11.5511 15.8569C11.8894 15.7364 12.2069 15.653 12.6042 15.5965C12.9841 15.5426 13.4204 15.5174 13.4204 15.1015C13.4204 14.2203 11.6041 14.9573 10.0172 13.0147C9.81502 12.7666 9.4334 12.1864 9.35437 11.8504C8.60701 11.8504 7.97499 11.691 7.33244 11.4291C6.90687 11.2558 6.54852 11.0089 6.20093 10.7306C5.97738 10.5517 5.76926 10.344 5.59387 10.1184C5.32509 9.77232 5.07514 9.40105 4.8913 8.9936C4.64237 8.44274 4.49362 7.75707 4.49362 6.95817C4.34086 6.8855 4.26796 6.87039 4.12618 6.77629C3.25773 6.19855 2.79965 5.32429 2.99489 4.19254C3.27803 2.54962 5.21669 1.67431 6.621 2.50447C6.94915 2.69852 7.22404 2.91757 7.4286 3.22102C7.77638 3.0551 8.46057 3.06896 8.89587 3.06896C9.94475 3.06896 11.1301 3.53874 11.8995 4.21623C12.2881 4.55876 12.5699 4.88763 12.8457 5.34166C13.0766 5.72219 13.3794 6.43497 13.39 6.89741C14.0007 6.94802 14.5293 7.12843 14.9697 7.3632C15.3824 7.58349 15.802 7.96888 16.0621 8.34353C17.0357 9.7445 16.7739 11.2121 17.3335 11.2121C17.6027 11.2121 17.6944 10.9844 17.7586 10.7834C17.9792 10.0906 17.997 9.54857 18.4278 8.86603L18.7927 8.37818C18.9592 8.20619 19.1399 8.14191 19.1388 7.87123C19.1367 7.33047 19.2821 6.83945 19.4237 6.42236C19.9982 4.72822 21.6142 3.58536 23.5091 3.58536C23.559 3.4917 23.5966 3.39929 23.6554 3.30583C23.7152 3.21089 23.7631 3.14642 23.8316 3.05529C24.1919 2.57794 24.8847 2.15727 25.5573 2.15727C26.2408 2.15727 26.7171 2.21817 27.2612 2.6214C27.3971 2.72199 27.4507 2.77892 27.5676 2.894C28.3779 3.69035 28.5222 5.36079 27.6595 6.22202C27.5587 6.32324 27.4066 6.52675 27.2694 6.56328C27.2694 6.74072 27.3577 7.01396 27.3945 7.19856C27.5796 8.12828 27.4247 9.03699 26.8808 9.76235C26.4669 10.3149 25.8434 10.7406 25.1944 10.9729C24.7009 11.1495 24.8665 11.1324 24.6673 11.7249C24.3315 12.7218 23.7166 13.4812 22.8552 14.0564C22.3856 14.3693 21.3078 14.7203 21.3078 15.0103C21.3078 15.4725 21.888 15.4053 22.2248 15.4053C23.5214 15.4053 25.0436 14.7402 25.784 13.6557C25.9684 13.3856 26.2604 12.7936 26.2604 12.3667C26.5966 12.339 27.1912 11.9582 27.4572 11.7637C27.8141 11.5031 28.1106 11.2104 28.391 10.8682C28.8508 10.3071 29.4094 9.26502 29.4094 8.26453C29.4094 8.01776 29.4103 7.75759 29.3612 7.52257C29.3255 7.35141 29.2579 7.24725 29.226 7.11011C29.3414 6.93854 29.525 6.764 29.6539 6.59348C30.5135 5.45713 30.572 3.93456 29.9897 2.64382C29.7811 2.18157 29.3602 1.55996 28.9579 1.2082C28.1615 0.510748 27.1937 0 26.0466 0H26.0102C25.2555 0.00229908 24.6977 0.0745605 24.0413 0.346714C23.714 0.482807 23.3941 0.669512 23.1211 0.890639C23.0197 0.972321 22.954 1.0343 22.8579 1.11515C22.7548 1.20188 22.7116 1.23212 22.6144 1.32893C22.5221 1.42071 22.4762 1.49086 22.3856 1.58768C22.2751 1.7057 22.1986 1.92433 22.0314 1.96508C21.9549 1.98376 21.8778 1.97242 21.7975 1.97558C21.047 2.00605 20.0165 2.53841 19.481 3.046C19.2317 3.28248 18.9663 3.50779 18.7525 3.77998C18.1285 4.5732 17.7361 5.44474 17.539 6.46349C17.5001 6.66424 17.5016 6.92698 17.4847 7.13888C17.4771 7.23442 17.458 7.24831 17.4559 7.35307C17.0073 7.35307 17.3133 7.31316 16.9657 6.71591C16.6228 6.12725 15.9872 5.67698 15.3142 5.53188C14.7392 5.40776 15.0021 5.60916 14.4996 4.45747C14.3183 4.04185 14.0303 3.6359 13.7609 3.27702C12.8986 2.12953 11.6329 1.3949 10.1549 1.2097C9.84364 1.17065 9.1208 1.15551 8.80849 1.18955C8.69524 1.20194 8.49322 1.2364 8.37617 1.24585C8.17207 0.943231 7.51091 0.559539 7.17832 0.400551C6.62556 0.136987 5.97793 0.00447044 5.32692 6.38634e-05H5.26312C4.56941 0.00427885 3.87487 0.153783 3.29105 0.445479C1.72594 1.22777 0.702637 2.743 0.702637 4.52744L0.702733 4.5275Z" fill="#005594"/>
<path fill-rule="evenodd" clip-rule="evenodd" d="M67.5931 86.6594V92.4932C67.0105 92.4932 66.1751 92.442 65.7637 92.7108C65.4864 92.8916 65.2696 93.2289 65.2696 93.6783C65.2696 94.2642 65.1963 95.283 65.3822 95.7236C65.456 95.8981 65.5287 95.9699 65.6595 96.0863C66.0916 96.471 66.9435 96.3824 67.5931 96.3824V105.073C67.5931 105.675 67.6176 106.24 67.6554 106.803C67.7201 107.773 68.0497 108.802 68.5112 109.599C68.6694 109.872 68.8875 110.151 69.0865 110.394C69.1262 110.443 69.1484 110.458 69.1901 110.504C69.5106 110.862 69.8595 111.206 70.265 111.472C72.2385 112.766 73.8807 112.638 76.2754 112.638C77.8707 112.638 77.6205 111.13 77.6205 109.965C77.6205 108.144 76.3973 108.53 75.3292 108.383C74.8138 108.312 74.3392 108.131 73.9587 107.801C73.7871 107.651 73.6967 107.579 73.5477 107.358C73.2677 106.941 73.0349 106.305 73.0349 105.619V96.3823H76.3977C77.2349 96.3823 77.7428 95.943 77.7428 95.1063V93.7694C77.7428 92.6733 76.9771 92.4932 76.0615 92.4932H73.0349V86.325C73.0349 85.8113 72.8185 85.426 72.5535 85.1626C72.2687 84.8795 71.8799 84.7148 71.3227 84.7148H69.3661C68.1027 84.7148 67.5931 85.4629 67.5931 86.6593V86.6594Z" fill="#005594"/>
<path fill-rule="evenodd" clip-rule="evenodd" d="M37.9097 61.6798C36.6956 61.6798 35.6479 61.3925 34.5726 60.9551C34.2168 60.8104 33.9098 60.6323 33.5787 60.4542C33.4559 60.3882 33.3699 60.3183 33.2609 60.2534C32.874 60.023 32.606 59.7353 32.265 59.481C32.1788 59.4163 32.1718 59.4258 32.1619 59.31C32.2661 59.2821 32.3301 59.2023 32.4136 59.1345C32.5055 59.0597 32.5725 59.0074 32.6686 58.932C32.8442 58.7947 32.9936 58.6817 33.1639 58.5433C33.3126 58.4221 34.0528 57.891 34.1492 57.7602C34.1198 57.651 33.9909 57.5098 33.9178 57.413C33.7796 57.2303 33.2131 56.5497 33.1708 56.393C32.795 56.5908 31.7733 57.4243 31.3304 57.7238C31.1151 57.8693 30.9264 58.0201 30.7164 58.1768L28.8908 59.5225C28.6863 59.675 28.4834 59.8186 28.2753 59.9738L24.3491 62.9085C23.5859 63.4806 23.755 63.484 23.755 62.7737C23.755 62.0414 23.7389 61.1801 23.61 60.5171C23.5631 60.2754 23.5151 60.0457 23.4456 59.83C23.3427 59.5106 23.2189 59.1985 23.0532 58.9133C22.8903 58.6325 22.5529 58.1212 22.3095 57.9206L21.8465 57.53C21.7495 57.4544 21.6794 57.4073 21.5784 57.3407C20.8545 56.8634 20.0874 56.5223 19.2739 56.1977C19.1875 56.1632 19.0434 56.0861 18.9707 56.1044C18.8773 56.1286 17.132 57.1456 17.0599 57.2435C17.1751 57.2704 17.3714 57.3521 17.4916 57.3918C18.7719 57.8141 20.1049 58.3675 21.0425 59.332C21.6992 60.0083 21.9513 61.1163 21.9513 62.075C21.9513 63.5366 21.9056 64.8024 20.7822 65.8354L20.3006 66.2073C19.2783 66.8819 17.7456 67.4214 16.4788 67.4531C16.3083 67.4571 16.2802 67.4823 16.1131 67.4846C15.7437 67.4891 15.289 67.4785 14.982 67.6363C14.3726 67.9502 14.4307 68.8127 14.4307 69.4585C16.6305 69.4585 18.2518 69.3522 20.2393 68.3646C21.6852 67.6459 22.8577 66.5677 24.135 65.6128L26.8297 63.5207C26.9142 63.455 26.9688 63.4086 27.0522 63.3468C27.1936 63.2424 27.3233 63.1395 27.4636 63.0261C27.6079 62.91 27.7339 62.8218 27.8748 62.7058L29.9694 61.081C30.088 60.9936 30.2889 60.8029 30.4193 60.7683C30.8235 61.3681 32.2485 62.3026 32.8342 62.5918C33.8311 63.083 34.8471 63.4957 35.9807 63.7185C39.6157 64.4326 41.7494 63.0343 45.0805 62.5479C45.7106 62.4558 46.3633 62.4041 47.0213 62.3501L57.6892 62.3178C59.5961 62.3178 61.5105 62.0985 63.2951 61.5092C64.3136 61.1728 65.2981 60.6837 66.2282 60.1704C66.8029 59.8529 67.3479 59.5343 67.8877 59.1762C68.0092 59.0954 68.0963 59.0376 68.2182 58.9574C69.1183 58.3646 69.9396 57.6762 70.7781 57.0049C70.8368 56.9581 70.8632 56.9218 70.922 56.8747L72.8452 55.0487C72.9479 54.9475 72.988 54.874 73.0888 54.7746L74.0969 53.6492C74.188 53.5425 74.2486 53.4511 74.3427 53.3466C74.5149 53.1544 74.6505 52.9528 74.8162 52.7537C75.2997 52.1722 75.7354 51.5212 76.1544 50.8937L76.764 49.9192C76.8341 49.8028 76.9005 49.7016 76.9689 49.5763C77.0372 49.452 77.0983 49.361 77.1616 49.2514C77.5538 48.5722 77.9096 47.8473 78.2429 47.1353L78.4166 46.7609C78.0979 46.5933 77.8232 46.3888 77.509 46.2044C77.2064 46.0267 76.9222 45.7995 76.6127 45.6367C76.56 45.861 75.9363 47.0274 75.7508 47.3323L75.1245 48.4114C75.0638 48.5126 75.0182 48.5764 74.9601 48.6732C74.9077 48.7612 74.8604 48.8423 74.797 48.9368L74.1121 49.9574C73.6635 50.6307 73.1539 51.2763 72.6428 51.9002L72.4473 52.1314C72.366 52.2182 72.3273 52.2772 72.2485 52.3593C72.1642 52.4475 72.135 52.5025 72.05 52.5874C71.6927 52.9446 71.3853 53.339 71.0257 53.696C70.8754 53.8453 70.7478 53.9724 70.5978 54.1217L69.4851 55.1425C69.3961 55.2131 69.3596 55.2633 69.2581 55.3425C68.7643 55.7259 68.3679 56.0796 67.8346 56.4797C67.7465 56.5456 67.6757 56.5897 67.5853 56.6576L66.316 57.523C65.4186 58.081 64.5136 58.5955 63.5368 59.0145C61.4599 59.9054 59.5436 60.0391 56.8331 60.0391L47.4482 60.07C46.281 60.0648 44.7343 60.2893 43.6129 60.5121C42.6494 60.7036 41.7679 60.9371 40.8783 61.1971C39.9234 61.4763 38.9622 61.6797 37.9095 61.6797L37.9097 61.6798Z" fill="#005594"/>
<path fill-rule="evenodd" clip-rule="evenodd" d="M79.1494 86.4441V110.903C79.1494 111.898 79.7766 112.635 80.7699 112.635H83.0321C84.1289 112.635 84.7134 111.909 84.7134 110.812V86.5352C84.7134 85.8132 84.4366 85.1027 83.7315 84.8373C83.1912 84.6338 81.6115 84.7121 80.9225 84.7121C80.5476 84.7121 80.1753 84.7719 79.8886 84.9603C79.8102 85.0116 79.6952 85.0939 79.6295 85.1588C79.3079 85.4784 79.1494 85.9633 79.1494 86.444L79.1494 86.4441Z" fill="#005594"/>
<path fill-rule="evenodd" clip-rule="evenodd" d="M53.805 54.9972C53.688 54.4968 53.2166 53.5066 52.9552 53.0769C52.7752 52.781 52.6165 52.5199 52.4233 52.2379C52.2374 51.9653 52.0365 51.6896 51.8104 51.4498C51.5822 51.2072 51.3958 50.968 51.1275 50.7609C50.8576 50.5528 50.6193 50.3451 50.3323 50.154C48.5549 48.97 46.6925 49.533 44.8561 50.2659L42.3722 51.3216C42.2497 51.3746 42.1421 51.422 42.0151 51.4832C41.7751 51.5985 41.5577 51.6778 41.3217 51.7969L39.9611 52.45C39.7046 52.5693 39.5223 52.6758 39.2736 52.7995C39.1542 52.8585 39.0582 52.9066 38.9475 52.9614L37.6385 53.666C37.5253 53.7342 37.427 53.7882 37.307 53.8531C37.0722 53.9804 36.8853 54.1163 36.6543 54.2379C36.6811 54.3362 36.8223 54.4907 36.8903 54.5804C36.985 54.7058 37.0579 54.8026 37.1525 54.9278C37.322 55.1516 37.5324 55.3894 37.6632 55.6353C38.7096 55.0852 39.79 54.594 40.8526 54.0652L41.3322 53.8431C41.4884 53.774 41.6405 53.7179 41.8011 53.6404C42.5901 53.2609 43.3806 52.9432 44.1966 52.6185C45.4205 52.1319 47.3012 51.3544 48.5435 51.7495C48.8752 51.8553 49.1628 52.0256 49.446 52.2197C50.0482 52.6323 50.6611 53.4909 50.9726 54.1056C51.1273 54.4114 51.2942 54.706 51.425 55.0235C51.4854 55.1701 51.5634 55.3665 51.6346 55.5137C51.444 55.5137 50.6508 55.6918 50.3898 55.7352C49.758 55.84 49.0764 55.8936 48.4117 55.9871C47.9572 56.0511 47.5086 56.0685 47.0488 56.0912C46.8497 56.1009 46.545 56.1414 46.346 56.1521L45.643 56.183C45.3615 56.1815 45.2043 56.2143 44.9396 56.213C44.7069 56.2118 44.434 56.2004 44.2055 56.2126C44.0671 56.2199 44.0384 56.2439 43.8704 56.2443C43.2923 56.2449 42.8342 56.2903 42.5639 56.8296C42.4329 57.0915 42.3801 57.3914 42.3106 57.6717C42.282 57.7856 42.2491 57.8616 42.2491 58.0055C42.9747 58.0055 43.9228 58.0559 44.6074 57.9796C44.9245 57.9439 45.2897 57.9855 45.6129 57.9761C45.7636 57.9714 45.7655 57.9481 45.9168 57.9437L46.897 57.9156C47.055 57.9137 47.0652 57.891 47.2015 57.8836C48.4682 57.8175 49.6384 57.7242 50.899 57.548C53.6596 57.1618 56.3702 56.5746 58.9453 55.5181C59.5726 55.2606 60.1577 54.9439 60.7549 54.643C61.4644 54.2851 61.0452 54.3624 61.8528 54.5344C62.3375 54.6375 63.1772 54.6902 63.667 54.6201C65.5731 54.3469 67.0499 53.7683 68.6505 52.7062C68.8216 52.5926 68.9619 52.4952 69.1211 52.3841C69.198 52.3303 69.2652 52.278 69.3486 52.2152C70.4017 51.426 70.1097 50.8336 70.0077 49.6191C69.6406 49.8633 68.8696 50.4944 68.3874 50.8344C68.3321 50.8737 68.2864 50.8995 68.2224 50.9436C68.1444 50.9974 68.1216 51.0207 68.0455 51.0721C67.808 51.2324 67.5876 51.3693 67.3349 51.5201C66.3171 52.1287 65.1541 52.6575 63.8628 52.6575C63.4901 52.6575 63.0749 52.6459 62.7317 52.5663C62.7829 52.3486 63.4432 51.4203 63.6055 51.1559C64.1345 50.2934 65.0765 48.9069 65.7664 48.1379C66.3359 47.5032 66.4762 47.3106 67.1415 46.6489L67.738 46.0873C68.2435 45.6199 68.7882 45.2095 69.3439 44.7966C69.4595 44.7107 69.562 44.6368 69.6835 44.5568C70.2679 44.1712 70.8543 43.7711 71.4852 43.461C71.5909 43.4089 71.7861 43.3142 71.8419 43.2381C71.6553 43.1886 71.2061 42.8658 71.0041 42.7343C70.7246 42.5524 70.4604 42.3844 70.1912 42.2051L69.5897 42.4884C68.7992 42.8809 68.0842 43.417 67.396 43.9545C67.0038 44.2604 66.5121 44.6584 66.1634 45.0083L65.4757 45.6614C65.3153 45.8208 65.1775 45.9579 65.0171 46.1174L64.1307 47.0595C64.0802 47.1164 64.0846 47.1235 64.0371 47.1794C63.9917 47.2327 63.9627 47.252 63.9196 47.3054L62.7095 48.8374C61.5963 50.3163 60.7894 52.0018 59.1859 53.0529C57.9946 53.8342 56.0113 54.4591 54.5449 54.8212C54.3617 54.8661 53.9909 54.9817 53.8049 54.9972L53.805 54.9972Z" fill="#005594"/>
<path fill-rule="evenodd" clip-rule="evenodd" d="M19.1685 33.2094L19.7449 33.1743C20.331 33.1107 21.0146 33.1485 21.6142 33.1485C21.6265 33.0015 22.6027 31.0009 22.7453 30.7176L24.4678 27.4163L26.1511 24.7744C26.6841 24.007 27.3003 23.3079 27.9025 22.5957L29.3873 20.8505C29.8095 20.3797 30.3018 19.7492 30.6576 19.2265C30.8584 18.9315 31.0405 18.6828 31.2311 18.3682C32.325 16.5587 32.6842 15.3401 33.2251 13.2097C33.6137 11.6804 34.0203 10.5212 35.4501 9.67841C36.8635 8.84532 38.5968 9.05195 40.0497 9.69058C40.2116 9.76157 40.3757 9.82792 40.5465 9.89577C40.722 9.96507 40.9105 10.0354 41.088 10.0867C41.4654 10.1952 41.7054 10.174 42.049 10.2255C42.4194 10.2809 42.8249 10.2185 43.1972 10.2011C43.0037 10.5829 42.0105 11.6932 41.9442 11.94C42.0287 11.962 42.0896 12.0265 42.1703 12.0798L43.2468 12.8329C43.3369 12.8922 43.3738 12.926 43.4605 12.9854C43.5467 13.0447 43.6327 13.0818 43.6868 13.1551C43.5251 13.1687 43.1148 13.3477 42.973 13.4183C42.7338 13.5377 42.5481 13.6455 42.3353 13.787C42.2279 13.8584 42.1569 13.9158 42.0568 13.9966C41.7861 14.215 41.484 14.4618 41.267 14.7308C40.9636 15.108 40.6785 15.48 40.4252 15.8995C40.2422 16.2028 39.8346 16.98 39.8346 17.3788C39.8346 17.776 40.3666 17.7277 40.7954 17.1791C40.86 17.096 40.9048 17.0626 40.9661 16.9838C42.1513 15.4594 43.8567 14.6399 45.6779 14.0401C45.9445 13.9525 46.4878 13.7234 46.7439 13.7022C46.7101 13.5758 46.1714 13.2299 46.0713 13.1551C45.7696 12.9309 44.102 11.7235 43.9925 11.5752C44.2169 11.1541 44.7363 10.4817 45.0258 10.0501C45.322 9.60826 45.841 8.93897 46.0713 8.50655C45.2356 8.50655 44.4001 8.50467 43.5644 8.50655C42.7613 8.50844 41.9683 8.39106 41.3889 8.17705C39.8602 7.61253 39.2448 7.01758 37.2058 7.01758C35.7108 7.01758 34.2949 7.62115 33.2241 8.55988C32.2056 9.45243 31.6085 10.5814 31.1719 12.0505C30.9619 12.7578 30.8019 13.4903 30.5754 14.1923L30.2469 15.2329C30.1818 15.427 30.1338 15.5654 30.0605 15.7468C29.74 16.5417 29.3679 17.3225 28.8553 18.0124C28.6549 18.2815 28.4834 18.5362 28.2695 18.7974C27.9583 19.1769 27.6593 19.5671 27.3237 19.9237L25.3973 22.1412C24.7983 22.8099 24.0719 23.7386 23.5827 24.4705L22.2386 26.5981C22.1888 26.6817 22.171 26.7323 22.1211 26.8154L20.7272 29.5628C20.6879 29.6419 20.6674 29.7073 20.626 29.7963C20.5484 29.9616 20.4791 30.1065 20.4014 30.2722L19.5659 32.2066C19.4774 32.43 19.1858 33.001 19.1685 33.2093V33.2094Z" fill="#005594"/>
<path fill-rule="evenodd" clip-rule="evenodd" d="M46.4994 20.5389C46.4649 20.6855 46.361 20.8898 46.2984 21.0381L45.8832 22.0232C45.8264 22.1637 45.7077 22.4 45.6738 22.5445C45.7752 22.5527 46.058 22.685 46.163 22.7268L47.1195 23.113C47.2835 23.1783 47.4639 23.2655 47.6306 23.3039C47.6042 23.4022 47.5765 23.3915 47.4967 23.4444C47.219 23.6283 46.9868 23.8697 46.7514 24.1015C46.4624 24.3865 46.2109 24.7003 45.966 25.0226C45.7964 25.2467 45.633 25.4622 45.4845 25.6984C44.0588 27.9642 43.4361 29.9826 43.6584 32.8425C43.7089 33.4913 43.8296 34.2275 43.968 34.8141C44.0098 34.9913 44.1222 35.5886 44.2124 35.6953C44.2995 35.7982 44.5114 35.8402 44.6553 35.752C44.7749 35.6789 44.815 35.518 44.8191 35.3378C44.8791 32.6917 45.1762 30.0483 46.4175 27.8411C46.7499 27.2495 47.0855 26.6621 47.5125 26.134C47.7703 25.815 48.0091 25.4747 48.2947 25.1797C48.5236 24.9434 48.7454 24.6891 48.9973 24.4802L50.7792 23.0913C50.4768 23.0212 48.5436 22.123 48.0016 21.9021L47.5998 21.7242C47.6604 21.5986 47.7134 21.4579 47.7703 21.3161L48.7816 18.8575C48.8281 18.7551 48.9362 18.5171 48.9449 18.4121C48.6561 18.4121 48.265 18.5448 47.9746 18.6024C46.9061 18.8135 45.9903 19.0443 44.8785 19.0508C43.0771 19.0609 41.7975 17.9188 38.8298 19.1148C38.5885 19.2123 38.2701 19.3864 38.0556 19.5302C37.6989 19.7686 37.3778 20.0212 37.0756 20.3188C36.9632 20.4293 36.9116 20.5137 36.8003 20.6223C36.2251 21.1849 35.7499 22.1358 35.4974 22.8824C35.2863 23.5066 35.2056 24.1778 35.1177 24.8448C35.0291 25.5164 35.0236 26.2951 34.9085 26.9764C34.765 27.8254 34.5375 28.4582 34.1237 29.1134C33.5961 29.9499 32.9447 30.7028 32.3754 31.5084C31.8913 32.1936 31.3618 32.8623 30.8955 33.562C30.7305 33.8096 30.5783 34.0335 30.4184 34.2725C30.2511 34.523 29.5857 35.5344 29.5322 35.7619C29.6413 35.7871 29.9215 35.9341 30.0311 35.995C30.4704 36.2396 31.0491 36.4923 31.4584 36.7647C31.5882 36.5719 31.7245 36.3829 31.8555 36.1871C31.9222 36.0878 31.9791 36.0036 32.0511 35.8952L33.2879 34.1467C34.2823 32.8102 35.5165 31.0314 36.3251 29.6909C36.5653 29.2929 36.7997 28.8259 36.9442 28.3313C37.1479 27.6333 37.2343 26.8688 37.2351 26.1289L37.3361 24.7406C37.4016 24.2263 37.5711 23.6065 37.7763 23.2027C37.8344 23.0878 37.8809 22.9811 37.9403 22.8797C37.9887 22.797 38.0696 22.6678 38.1311 22.5834C38.2076 22.4775 38.2623 22.4032 38.3407 22.3053C38.4254 22.1993 38.4911 22.1302 38.5769 22.0233C39.159 21.2985 40.3436 20.793 41.2435 20.6933C41.8711 20.624 42.5591 20.6757 43.1032 20.7849C44.3232 21.0287 44.9614 21.0413 46.1062 20.6645C46.237 20.6217 46.3623 20.5505 46.4994 20.5389V20.5389Z" fill="#005594"/>
<path fill-rule="evenodd" clip-rule="evenodd" d="M82.2369 14.6148L83.6433 16.134C83.889 15.9702 84.6095 14.9599 84.8401 14.6499C85.3943 13.9039 85.9357 12.9961 86.4557 12.2142C86.5055 12.1395 87.9861 9.84488 88.0146 9.72287H88.3204C88.3204 10.548 88.2931 11.0184 88.608 11.807C88.7381 12.1325 89.0356 12.5891 89.2907 12.8306L89.7779 13.1964C91.4064 14.1547 93.5557 13.6396 95.2538 13.1805C97.6856 12.5229 99.7092 11.6997 102.013 10.9344L103.361 10.4823V8.26414C103.15 8.3135 102.905 8.41051 102.693 8.48086L100.06 9.41898C99.8408 9.50571 99.604 9.57902 99.3834 9.65818L96.0357 10.7973C95.7989 10.8741 95.5802 10.9481 95.3393 11.0165C94.5214 11.2488 93.1526 11.6371 92.356 11.6371C91.8624 11.6371 91.4651 11.6497 91.0191 11.3853C90.3123 10.9661 90.3383 10.1198 90.3383 9.44922C90.3383 7.86911 91.3337 5.27926 91.9501 3.84993C92.0141 3.70145 92.6839 2.28789 92.6921 2.1875H90.4604L89.534 3.81864C89.2194 4.38063 88.883 4.88024 88.5557 5.42879C87.5239 7.15885 86.1061 9.20034 84.9883 10.8773C84.3155 11.887 83.2857 13.28 82.5292 14.237C82.42 14.3752 82.3317 14.4741 82.2368 14.6148H82.2369Z" fill="#005594"/>
<path fill-rule="evenodd" clip-rule="evenodd" d="M87.9238 86.87V88.1156C87.9238 88.6003 88.2987 88.9361 88.7796 88.9361H105.227C105.89 88.9361 106.419 88.4904 106.419 87.7815V85.7458C106.419 84.9289 106.008 84.2871 105.166 84.2871C104.754 84.2871 104.42 84.3537 104.036 84.3795C103.012 84.448 101.728 84.6408 100.642 84.7137L98.3876 84.9339C97.2884 85.073 96.1195 85.1513 95.021 85.2643C94.6664 85.3008 94.2521 85.3586 93.885 85.3811C93.5385 85.4023 93.1034 85.4527 92.7759 85.494C92.3812 85.5436 92.0241 85.5574 91.6279 85.599C90.9038 85.6751 90.0971 85.7382 89.3822 85.8281C88.8882 85.8905 87.9239 85.8464 87.9239 86.87H87.9238Z" fill="#005594"/>
<path fill-rule="evenodd" clip-rule="evenodd" d="M16.6305 41.1098C16.7169 41.4783 16.783 41.9973 17.0803 42.2728C17.4465 42.6114 17.9716 42.3827 18.3295 42.2819C19.4414 41.9683 19.5111 41.8083 20.8493 41.8083C21.3743 41.8083 21.7642 42.0147 22.0725 42.2334C22.356 42.4343 22.6512 42.8237 22.8547 43.1272C23.2944 43.7826 23.5296 44.3711 23.8657 45.0391C23.9199 45.146 23.9471 45.2376 23.9982 45.3331L23.3741 45.4726C23.1442 45.518 22.9557 45.5482 22.7195 45.5818C21.3881 45.7689 19.6271 45.8193 18.3117 45.8193C18.3117 46.06 18.44 46.8515 18.6122 47.1006C18.8474 47.4414 19.3676 47.521 19.7792 47.521C21.0785 47.521 21.4734 47.5388 22.7473 47.4324C22.9278 47.4171 23.0689 47.4087 23.2475 47.3824L24.6376 47.1537C24.7652 47.1285 24.9694 47.0678 25.0985 47.0651C25.1204 47.1468 25.2039 47.2367 25.2516 47.3083C25.3083 47.3936 25.3505 47.4496 25.4173 47.5383C25.9191 48.2038 26.3533 48.6778 26.9705 49.2457L27.8929 49.9702C29.6122 51.1047 31.2791 51.7141 33.5058 51.7141C35.5757 51.7141 37.3386 51.1421 39.0653 50.4337L41.1794 49.4046C41.0475 48.8439 40.8516 48.2931 40.7206 47.7336C40.5962 47.7624 39.7641 48.2237 39.5695 48.3212C38.7589 48.7269 37.4856 49.2358 36.6136 49.4855C33.9977 50.2336 31.497 50.2812 29.2211 48.6196C28.95 48.4216 28.729 48.213 28.4706 47.998C28.3789 47.922 28.1923 47.7359 28.1209 47.6469C27.7092 47.1345 27.6427 47.1439 27.1772 46.4881C26.541 45.5913 25.9305 44.3771 25.4249 43.3684C24.9757 42.4729 24.6325 41.7803 23.9766 41.0095C23.8042 40.8067 23.8454 40.8336 23.6267 40.6584C23.5466 40.5944 23.5236 40.5576 23.4308 40.4885C23.1511 40.2798 22.8791 40.1252 22.5119 40.0042C21.6479 39.7201 20.8331 39.7789 19.9594 39.9519C19.5347 40.0361 19.1818 40.1563 18.7829 40.2716C18.3142 40.4066 16.781 41.0748 16.6304 41.1099L16.6305 41.1098Z" fill="#005594"/>
<path fill-rule="evenodd" clip-rule="evenodd" d="M57.1383 47.4311C56.2213 47.4311 55.9417 46.443 55.8101 45.6212C55.7771 45.4137 55.7345 45.148 55.7317 44.9395C55.7294 44.7635 55.7051 44.7291 55.7002 44.5758L55.6402 42.6605C55.2641 42.6605 54.1368 42.8125 53.7491 42.8772C53.1401 42.9793 52.5347 43.0763 51.9471 43.2132L50.2352 43.6389C49.1398 43.934 46.9598 44.7498 45.9798 45.2434C45.8553 45.306 45.7353 45.3484 45.6024 45.4149L43.4727 46.4892C43.3496 46.5496 43.2481 46.6047 43.1351 46.67C43.0191 46.7372 42.8887 46.7912 42.7695 46.8535C42.8143 47.0438 43.1945 48.4103 43.1976 48.5552L44.6025 47.7942C45.2392 47.4265 46.5773 46.816 47.2592 46.5453L48.5287 46.0753C49.3754 45.7947 49.6976 45.7182 50.5618 45.4826C50.7723 45.4255 51.0275 45.3726 51.2604 45.3264C51.4875 45.2816 51.7684 45.226 52.0063 45.1863L53.5306 44.97C53.5306 47.7614 55.2939 51.0937 58.5885 49.1154L59.313 48.6202C59.4307 48.5265 59.5332 48.4461 59.6519 48.3494L60.9218 47.1807C60.9933 47.1095 60.999 47.0873 61.0602 47.0144L61.9454 46.0708C62.0066 46.002 62.0149 45.9751 62.0831 45.9041C62.152 45.8319 62.1609 45.8104 62.2222 45.7384L63.2149 44.5678C63.3129 44.4479 63.3917 44.3534 63.4902 44.2335L64.7204 42.6912C64.7641 42.6343 64.8013 42.5794 64.8518 42.5179C64.9501 42.3984 65.027 42.2961 65.1212 42.1783L66.5895 40.295C66.6552 40.2101 66.6975 40.1912 66.707 40.0776C66.6045 40.0505 65.8029 39.4503 65.6847 39.3617C65.5861 39.288 65.4301 39.1317 65.3314 39.1055C65.2947 39.2428 63.8828 40.9653 63.7511 41.1201C63.292 41.6596 62.5499 42.6534 62.1136 43.1087L60.6755 44.748C60.5969 44.8419 60.5041 44.9192 60.4164 45.0072C60.3193 45.1046 60.2766 45.1792 60.1726 45.2813C59.4704 45.9711 58.0797 47.4311 57.1383 47.4311V47.4311Z" fill="#005594"/>
<path fill-rule="evenodd" clip-rule="evenodd" d="M87.4033 20.7237C87.4337 20.8526 87.6024 21.0345 87.6833 21.1443L88.5957 22.4254C88.7096 22.4157 89.2332 22.1962 89.3775 22.1387C90.2398 21.7949 90.8716 21.6002 91.7785 21.3348C93.6891 20.7764 95.2199 20.8379 97.1869 20.8457C97.4005 20.8467 97.4838 20.8127 97.7057 20.8146C98.8196 20.8234 101.407 20.4582 102.451 20.2132L103.361 20.0248V18.2928L102.029 18.5488C101.509 18.6459 96.6969 19.6111 96.6969 18.779C96.6969 18.5213 96.8311 18.4535 97.0855 18.3447L103.846 15.645C104.03 15.5711 104.225 15.5075 104.423 15.4283L105.291 15.1062C105.402 15.0661 105.461 15.0221 105.593 15.0115V12.7324L105.016 12.9487C104.817 13.0204 104.627 13.0901 104.414 13.1707C104.006 13.3253 103.631 13.4698 103.226 13.631L98.5752 15.5106C97.704 15.8548 96.5987 16.353 95.71 16.7346L92.6206 18.1303C90.7377 19.0289 89.3175 19.7172 87.4034 20.7237L87.4033 20.7237Z" fill="#005594"/>
<path fill-rule="evenodd" clip-rule="evenodd" d="M30.2051 44.3629C30.2051 46.2582 31.9396 47.0365 33.69 47.0365C35.4282 47.0365 36.9094 46.735 38.4403 46.2276C39.7349 45.7985 40.9942 45.2907 42.1889 44.697C42.5746 44.5055 42.9695 44.3173 43.3511 44.1199L43.9303 43.8146C44.0247 43.76 44.1048 43.7169 44.2071 43.6642C44.3127 43.6098 44.3823 43.5422 44.5124 43.5119C44.4809 43.3775 44.1351 42.9414 44.0326 42.8042C43.4889 42.0772 42.8075 42.4682 42.1687 42.7622C41.9946 42.8424 41.8522 42.9193 41.6798 43.0054L40.6953 43.4555C40.5324 43.5214 40.3657 43.6081 40.1891 43.6814C39.8315 43.8299 39.5144 43.9691 39.1497 44.1069C38.4467 44.3726 37.7226 44.6311 36.9613 44.8184C36.1598 45.0161 32.9569 45.7095 32.4365 44.4847C32.2721 44.0981 32.3921 43.6886 32.5798 43.35C32.8547 42.8544 33.6236 42.2298 34.0813 41.9255C34.2902 41.7865 34.4798 41.6651 34.693 41.5309C34.8939 41.4051 35.1054 41.2827 35.3106 41.1722C36.0753 40.7608 36.5152 40.5581 37.277 40.1793L39.3242 39.2971C39.5503 39.2078 39.8197 39.0679 40.0494 39.015L38.9792 37.6172C38.4518 37.7394 35.5356 39.0803 34.9801 39.4157L32.8868 40.7081C32.6677 40.8709 32.2508 41.1684 32.0623 41.3472C31.5304 41.8506 31.1133 42.1782 30.6766 42.8865C30.4564 43.2437 30.2052 43.8064 30.2052 44.3629H30.2051Z" fill="#005594"/>
<path fill-rule="evenodd" clip-rule="evenodd" d="M56.6491 37.8588C54.8369 37.8588 54.1754 37.7433 52.4936 37.5519C49.8454 37.2512 47.7766 36.9979 45.1294 37.7126C44.6179 37.8508 44.0715 38.0793 43.6051 38.2939C43.3518 38.4105 42.3908 38.9405 42.2803 39.1043L43.2892 40.411C43.3987 40.3854 43.5117 40.3262 43.6167 40.2806C44.1203 40.0645 44.8285 39.8616 45.3617 39.736C46.0264 39.5792 47.5661 39.3129 48.2106 39.3164C48.3927 39.3173 48.5098 39.3135 48.6482 39.2944L49.5572 39.3164C50.1279 39.3139 52.3956 39.5884 52.9369 39.6642C56.5305 40.1661 58.9199 40.0181 62.2747 38.5583C62.5557 38.436 63.231 38.1313 63.4909 37.9742C63.5718 37.9253 63.8142 37.7861 63.8945 37.7674L62.9236 36.8177C62.8139 36.709 62.6932 36.584 62.6104 36.4609C61.9332 36.8171 59.8967 37.4119 59.133 37.5625C58.3483 37.7175 57.4826 37.8588 56.649 37.8588H56.6491Z" fill="#005594"/>
<path fill-rule="evenodd" clip-rule="evenodd" d="M79.8828 31.6602C79.8828 32.1384 80.5716 33.1196 80.8742 33.6219L83.2368 37.047C83.5856 37.5088 84.3812 38.4895 84.7666 38.8991L86.4175 40.6617C86.4595 40.7037 86.4838 40.7251 86.524 40.7684C86.5521 40.7986 86.5565 40.8051 86.5806 40.8336C86.5846 40.8383 86.5904 40.8452 86.5946 40.85L89.3985 43.4414C89.4885 43.5285 89.5644 43.5871 89.6589 43.6688C89.7482 43.7465 89.8311 43.8125 89.9281 43.8876L93.4747 46.6215C93.6877 46.7677 94.7649 47.5817 94.9545 47.5817C95.3443 47.5817 95.4335 47.1772 95.16 46.9519L93.9077 45.7964C93.8103 45.6983 93.7414 45.6624 93.6471 45.5693L88.1141 40.0085C87.5676 39.4652 87.0064 38.8133 86.4784 38.2917C86.1327 37.95 85.6985 37.4239 85.3165 37.0463L84.8569 36.5307C84.7755 36.4341 84.6935 36.3789 84.6168 36.2829L83.9257 35.5115C83.8296 35.4181 83.8004 35.3578 83.7123 35.2677C83.6654 35.2196 83.6343 35.1969 83.5908 35.1455C83.539 35.0837 83.5415 35.0724 83.4828 35.0098L80.8094 31.863C80.48 31.4585 80.4834 31.3867 80.158 31.3867C80.0069 31.3867 79.8829 31.51 79.8829 31.6601L79.8828 31.6602Z" fill="#005594"/>
<path fill-rule="evenodd" clip-rule="evenodd" d="M16.9058 15.4982C16.9879 15.6524 17.0907 15.7897 17.1933 15.9417C17.3 16.1005 17.393 16.2458 17.4927 16.404L19.6469 20.218C19.8289 20.5796 20.987 22.9815 21.0635 23.307L21.7749 22.3128C21.9045 22.1402 22.012 22.0018 22.1466 21.8313C22.2166 21.7433 22.2677 21.6824 22.3378 21.5961C22.4035 21.5152 22.4832 21.4331 22.5308 21.3625L22.0321 20.4305C21.5161 19.5073 20.9731 18.6853 20.3472 17.8203L18.2898 15.2471C18.2093 15.1645 18.19 15.1513 18.1159 15.0555C18.0755 15.0035 17.793 14.6985 17.7619 14.6777C17.6688 14.7397 16.9907 15.3722 16.9058 15.4983V15.4982Z" fill="#005594"/>
<path fill-rule="evenodd" clip-rule="evenodd" d="M48.8228 30.358H58.2695C58.2585 30.2282 58.1601 30.056 58.1119 29.9369C58.0128 29.6925 57.639 28.8364 57.597 28.6562H49.7096C49.5589 28.9394 49.4192 29.2019 49.2714 29.4969L48.8228 30.358V30.358Z" fill="#005594"/>
<path fill-rule="evenodd" clip-rule="evenodd" d="M19.627 12.2458L20.6664 12.8536L24.5433 6.83179C24.6274 6.70116 24.7628 6.51027 24.7628 6.35128C24.7628 6.14296 24.5458 6.03586 24.3882 6.06818C24.2472 6.09695 24.0581 6.26644 23.9463 6.36051C23.3245 6.88324 22.2762 7.93832 21.7626 8.5654C20.9628 9.54133 20.3794 10.6084 19.8511 11.7395C19.7679 11.9174 19.7134 12.0841 19.627 12.2458L19.627 12.2458Z" fill="#005594"/>
<path fill-rule="evenodd" clip-rule="evenodd" d="M7.30664 21.2073C7.30664 21.3814 7.43827 21.5414 7.6124 21.5414C7.76793 21.5414 7.92407 21.457 8.05972 21.4087C9.61592 20.8524 11.4857 20.2431 13.058 19.7221L14.8887 19.1105L14.5521 17.9863C14.1517 18.0195 12.7873 18.3446 12.4125 18.4422C12.06 18.5342 11.7429 18.638 11.4069 18.7497C10.2904 19.1204 9.33808 19.6485 8.37075 20.2897C8.22685 20.3846 8.11337 20.4686 7.97329 20.5629C7.81355 20.6702 7.30664 21.0113 7.30664 21.2072V21.2073Z" fill="#005594"/>
<path fill-rule="evenodd" clip-rule="evenodd" d="M7.30664 6.34857C7.30664 6.5088 7.47865 6.67009 7.57732 6.74841L12.0628 10.4939C12.1991 10.6006 13.1034 11.3953 13.207 11.4228L13.9715 10.5723C13.9159 10.3658 12.6996 9.17401 12.5911 9.08792C12.4577 8.98229 12.3709 8.87015 12.2243 8.7536L11.8315 8.41464C11.2988 8.00199 11.1547 7.88605 10.5962 7.51538C9.88708 7.04497 9.01208 6.59217 8.24169 6.27024L7.71113 6.0661C7.47088 6.01402 7.3067 6.18664 7.3067 6.34857H7.30664Z" fill="#005594"/>
<path fill-rule="evenodd" clip-rule="evenodd" d="M56.2817 8.23346C56.9521 8.23346 57.491 7.91759 57.9674 7.53875C58.2468 7.31676 58.9413 6.78733 58.9413 6.34945C58.9413 5.76708 57.8366 5.31643 57.2907 5.31643C56.806 5.31643 56.4586 5.30634 56.0592 5.70306C55.8652 5.89605 55.6858 6.2306 55.6083 6.53111C55.4424 7.17709 55.55 8.23346 56.2817 8.23346V8.23346Z" fill="#005594"/>
<path fill-rule="evenodd" clip-rule="evenodd" d="M37.6029 13.4611C38.2854 13.4611 39.7121 12.7676 39.7121 11.8812C39.7121 11.0176 37.4155 9.98689 36.8342 11.9377C36.7108 12.3514 36.6943 13.0486 37.114 13.309C37.2095 13.3683 37.4527 13.4611 37.6029 13.4611H37.6029Z" fill="#005594"/>
<path fill-rule="evenodd" clip-rule="evenodd" d="M41.1191 23.6704V23.9743C41.1191 24.4248 41.386 24.9465 41.8224 24.9465C42.3487 24.9465 42.874 24.643 43.1903 24.3614C43.626 23.9733 44.202 23.384 43.7188 22.7577C43.5546 22.5446 43.1616 22.3648 42.8909 22.3045C42.6984 22.2619 42.4795 22.2535 42.3096 22.2688C41.8978 22.3062 41.6495 22.4452 41.4502 22.693C41.2922 22.889 41.1191 23.3226 41.1191 23.6704Z" fill="#005594"/>
</svg>
