<svg width="165" height="98" viewBox="0 0 165 98" fill="none" xmlns="http://www.w3.org/2000/svg">
<path fill-rule="evenodd" clip-rule="evenodd" d="M87.2059 34.4446C101.103 32.3665 93.0216 49.2667 89.596 53.3383C86.6633 56.8259 81.9329 56.483 76.3367 56.119C69.44 55.6662 61.7769 54.6377 55.2529 52.7161C52.8794 52.0178 50.2698 51.6326 53.0782 49.2878C55.8493 46.9812 59.5276 44.8268 63.1189 42.9984C69.3985 39.8029 80.1683 35.4942 87.2018 34.4446H87.2059ZM101.517 54.0578C101.256 52.9913 102.308 52.094 102.801 51.5057C106.335 47.2859 110.725 40.078 113.356 35.2869C115.129 32.0533 116.926 28.5318 118.546 25.1035C119.594 22.8857 122.406 16.1138 123.372 14.7594C124.946 14.5478 126.168 15.7413 127.203 16.4778C130.202 18.6025 133.209 21.5483 134.841 25.2221C140.011 36.8444 127.576 45.8638 118.256 49.7153C115.858 50.7057 103.659 55.2429 101.521 54.0578H101.517ZM81.4897 4.93585C85.4206 4.5253 92.6571 5.23636 96.6005 5.76542C101.285 6.39605 105.697 7.24678 110.104 8.51652C113.161 9.39687 114.694 9.86667 111.695 12.1776C110.212 13.3204 108.617 14.4758 106.906 15.4832C103.593 17.4216 100.03 19.3051 96.1945 20.9007C85.1638 25.4845 62.4106 34.9821 72.7454 12.4569C74.4976 8.63503 76.5853 5.45221 81.4897 4.94009V4.93585ZM63.4586 7.08171C63.7486 8.22448 62.7337 9.01172 61.984 9.97249C54.5528 19.4617 48.2401 31.503 43.489 42.6344C41.8155 46.5494 41.8859 47.5271 38.945 45.5421C36.9815 44.2131 35.3909 42.9518 33.9494 41.4112C30.6315 37.8729 27.9805 33.3526 29.2563 27.8589C31.3109 19.0046 41.3764 13.6209 48.965 10.6031C51.2473 9.69738 61.1514 6.34103 63.4586 7.08171V7.08171ZM77.5463 0.220888C64.2953 1.33826 53.8901 2.64609 41.8652 8.74507C33.7796 12.8463 21.1624 21.9673 24.8614 35.2022C27.587 44.9496 38.7586 51.8231 48.8987 55.5773C71.2253 63.8433 101.791 63.0941 123.185 52.4834C131.006 48.6064 143.929 39.2019 140.123 26.077C139.315 23.3005 137.824 20.6849 136.283 18.8691C130.857 12.4823 124.324 8.7874 116.143 5.6977C105.846 1.80806 89.741 -0.803368 77.5463 0.225121V0.220888Z" fill="white"/>
<path fill-rule="evenodd" clip-rule="evenodd" d="M137.821 85.0304C137.667 83.8242 137.759 82.0296 137.759 80.7599C137.759 78.9865 138.119 78.7495 139.784 78.7622C142.485 78.7833 145.372 78.6564 148.114 78.7833L148.081 85.0728L137.825 85.0304H137.821ZM132.138 97.8379L137.775 97.8887V90.4057L148.089 90.3464L148.127 97.8718L153.793 97.8844V73.5054C150.156 73.3277 146.163 73.4716 142.522 73.48C138.819 73.4927 134.896 72.7521 132.987 75.3677C131.645 77.2004 132.129 83.3586 132.133 86.1605C132.146 90.0502 132.109 93.944 132.138 97.8337V97.8379Z" fill="white"/>
<path fill-rule="evenodd" clip-rule="evenodd" d="M111.128 92.632L111.086 78.8004C113.874 78.7199 116.72 78.7919 119.508 78.7792C122.08 78.7665 121.409 80.0616 121.421 85.6442C121.425 87.096 121.409 88.5477 121.417 89.9995C121.425 91.6755 121.512 92.632 119.686 92.6532C116.877 92.6828 113.928 92.6998 111.128 92.632V92.632ZM105.403 97.8422C106.832 98.02 119.669 97.9311 122.059 97.9015C124.752 97.8676 126.45 96.619 126.93 94.2954C127.295 92.5305 127.046 87.7266 127.051 85.6485C127.059 80.0235 128.48 73.6621 122.233 73.4844L105.432 73.5352L105.403 97.8464V97.8422Z" fill="white"/>
<path fill-rule="evenodd" clip-rule="evenodd" d="M0 97.8845L5.64584 97.8888L5.65827 88.1287L15.989 88.0991L16.0014 97.8972L21.6472 97.8888V73.5225L16.0428 73.4844L15.9931 82.7619L5.71626 82.8043L5.64584 73.5309L0.0414222 73.4844L0 97.8845Z" fill="white"/>
<path fill-rule="evenodd" clip-rule="evenodd" d="M51.5222 97.8409C54.72 98.1583 59.4007 97.9002 62.7559 97.8875C66.4756 97.8748 70.5018 98.6239 72.3576 95.9659C73.6789 94.0782 73.1529 87.9031 73.1653 85.1139C73.1819 81.7829 73.4552 76.6278 73.1197 73.5L67.5484 73.4746C67.3455 76.0818 67.6934 90.9886 67.4366 91.8308C67.1052 92.9186 65.7093 92.635 64.4583 92.635C62.9837 92.635 58.3113 92.8254 57.2012 92.5376L57.1722 73.4873L51.5388 73.4788L51.5181 97.8367L51.5222 97.8409Z" fill="white"/>
<path fill-rule="evenodd" clip-rule="evenodd" d="M78.4675 97.8217L84.1134 97.9021L84.1216 78.801C86.2176 78.6063 89.084 78.7629 91.2131 78.7671C95.1275 78.7756 94.4441 78.8349 94.4523 82.8557C94.4648 87.8331 94.5186 92.8739 94.4482 97.8471L100.131 97.8979C100.098 94.0379 100.144 90.1863 100.127 86.3433C100.115 83.4398 100.653 77.5101 99.3153 75.4616C97.5631 72.7782 93.6902 73.5147 89.8503 73.485C86.6028 73.4596 81.5452 73.193 78.4882 73.5316L78.4634 97.8259L78.4675 97.8217Z" fill="white"/>
<path fill-rule="evenodd" clip-rule="evenodd" d="M33.7491 97.8875L39.3991 97.8832C39.3867 96.5077 39.2459 90.1717 39.4778 89.376C39.7139 88.5718 48.6777 74.6851 49.1085 73.5085L42.5058 73.4831L38.1067 80.6613C37.6801 81.3809 37.067 82.6506 36.5037 82.9977L30.6052 73.4746L24.0273 73.4831C24.367 74.6004 33.2272 88.3136 33.6083 89.2786C33.9355 90.104 33.7284 96.4527 33.7408 97.8875H33.7491Z" fill="white"/>
<path fill-rule="evenodd" clip-rule="evenodd" d="M159.325 97.879H165V73.5169L159.383 73.4746L159.325 97.879Z" fill="white"/>
</svg>
