<svg width="218" height="54" viewBox="0 0 218 54" fill="none" xmlns="http://www.w3.org/2000/svg">
<path d="M28.1098 0C35.8715 0 42.8992 3.02227 47.9866 7.90833C53.0735 12.7944 56.2201 19.545 56.2201 26.9997C56.2201 34.4553 53.0735 41.2055 47.9866 46.0916C42.8992 50.9776 35.8715 53.9999 28.1098 53.9999C20.3482 53.9999 13.3204 50.9776 8.23347 46.0916C3.14653 41.2051 0 34.4549 0 26.9997C0 19.5446 3.14653 12.7944 8.23347 7.90833C13.3204 3.02227 20.3486 0 28.1098 0ZM46.2576 9.56899C41.6137 5.10884 35.1973 2.3495 28.1098 2.3495C21.0227 2.3495 14.6064 5.10844 9.96241 9.56899C5.31847 14.0295 2.44609 20.1921 2.44609 26.9997C2.44609 33.8066 5.31889 39.9703 9.96241 44.4309C14.6064 48.8915 21.0223 51.6504 28.1098 51.6504C35.1969 51.6504 41.6137 48.891 46.2576 44.4309C50.9016 39.9703 53.774 33.8078 53.774 26.9997C53.774 20.1925 50.9016 14.0295 46.2576 9.56899V9.56899Z" fill="white"/>
<path fill-rule="evenodd" clip-rule="evenodd" d="M28.1997 26.4799C28.5052 24.9204 28.7108 24.34 30.0181 23.825C30.021 23.8314 30.1326 24.1389 30.1581 24.2272L30.7181 25.6831C29.9228 26.2688 29.3528 26.5526 28.1997 26.4803V26.4799ZM39.2337 15.9022C39.7431 16.186 39.0151 15.9387 39.9366 16.1691C40.1782 16.2297 40.6174 16.2775 40.8648 16.3024C42.9235 16.5083 42.417 16.1093 43.2566 20.2066C43.8906 19.8686 43.7518 19.5567 44.2174 18.9855L44.968 16.9029L48.191 17.5062C47.5996 16.2823 47.1303 15.8994 46.2861 14.9528C45.3332 13.8839 45.7048 13.0473 45.5247 11.2128C44.4811 11.4593 45.4595 11.0627 44.6855 11.6913C44.375 11.9438 44.4782 11.9839 43.9616 12.3524C42.796 12.1212 42.0597 11.1851 40.7094 10.707L42.0438 14.0468C41.297 14.8681 40.2714 15.4855 39.2337 15.9022V15.9022ZM26.4043 26.0801C26.2372 23.6949 29.1346 20.4563 30.3357 22.0772C30.0369 22.76 30.4473 22.2984 29.7815 22.6364C27.4462 23.8217 29.0452 22.4561 26.4047 26.0801H26.4043ZM13.9841 13.1926C9.60805 14.5667 4.06014 17.8739 4.17215 23.1076C0.911105 26.0753 2.55479 25.5595 1.32568 26.6192C1.32568 27.7942 1.74611 30.8783 1.86188 31.264C2.50924 32.2431 2.96185 33.7809 3.6138 34.8146C6.4306 39.2807 8.89926 40.4099 11.79 43.16C12.4374 42.9589 12.3016 42.6494 12.8666 42.4078L13.9231 43.3704C13.9156 44.551 13.1867 46.8996 12.3191 47.4392L13.3844 48.3656C16.7002 50.557 23.8659 53.2368 27.5733 52.959C28.5646 52.8848 28.17 52.8583 28.9185 52.8924L35.2785 52.1305C35.8702 51.9716 36.4056 51.8278 36.913 51.6966C35.2488 50.0018 31.1757 49.7312 28.9503 48.6462C28.6431 46.8687 30.0603 43.4972 30.841 42.1974C31.971 40.3148 34.8288 39.4377 36.4069 39.4192L37.6769 38.4305C39.372 36.9349 37.2001 36.0919 37.4742 34.0856L37.5022 32.8308L35.6947 32.3651C36.4746 31.9199 37.1098 31.5779 37.5164 30.8337C37.0776 29.7555 36.7195 30.0871 36.121 29.0309C36.6288 27.9804 37.0103 28.2967 36.9986 26.9705C35.594 25.749 33.649 26.5622 32.3982 24.8622C31.7157 24.3139 30.7515 22.2305 31.088 21.0672C30.2367 20.3246 29.6574 19.0224 28.9971 18.2135C29.3645 17.5018 29.5145 17.9109 29.7845 17.1277C25.9082 14.2841 26.0374 15.5152 24.6507 14.5237L21.8298 14.5073L22.592 13.5081C20.1388 13.1396 19.102 14.0352 17.0738 14.0123L18.4651 12.2693C16.5949 12.2621 15.5797 12.6527 13.9837 13.1922L13.9841 13.1926Z" fill="white"/>
<path fill-rule="evenodd" clip-rule="evenodd" d="M76.1396 35.7279H73.7266V18.9863C76.7883 18.3011 80.7639 19.3484 82.3788 20.7205C88.2414 25.7013 85.718 35.7279 76.1396 35.7279ZM139.691 16.4072C139.691 14.2255 139.963 14.3504 137.664 14.3504H137.264C133.497 14.3504 133.524 13.5166 133.524 16.9118V24.9546V26.1982L132.719 25.4644C131.516 23.0852 125.564 17.3048 123.299 15.6722C122.187 14.8714 121.821 14.3504 119.862 14.3355C115.701 14.3038 116.63 12.6981 116.63 25.4267V40.1065H122.529C122.529 36.9325 122.943 25.291 122.349 23.1077C124.208 23.7829 124.299 24.7607 125.747 25.6796C127.948 28.864 130.658 31.2416 132.685 36.0181C133.253 37.3548 133.681 38.932 134.328 40.1061C141.145 40.1061 139.691 43.1276 139.691 25.4271V16.4068V16.4072ZM174.028 14.6081C173.246 14.258 170.927 14.1063 169.72 14.3468C168.696 14.5507 168.898 14.647 168.889 15.8657C168.883 16.632 168.919 17.4461 168.919 18.2249V30.3204V40.1061H174.818V29.2899V23.1073C175.688 23.3305 175.751 23.5934 176.369 24.1991C176.816 24.6379 177.218 24.9109 177.502 25.4251C179.157 26.6354 181.797 30.3717 182.879 32.1067C185.688 36.6094 185.213 37.2954 186.617 40.1061H191.98V28.2599L191.967 15.3929C191.955 15.3138 191.942 15.2459 191.927 15.1741C191.912 15.1062 191.883 15.0312 191.868 14.9734C191.608 14.0328 189.869 14.3411 189.033 14.348C188.05 14.3564 187.064 14.3504 186.081 14.3504V26.4559C185.401 25.9774 184.152 24.1124 183.462 23.3052L177.434 17.2474C176.435 16.2788 175.257 15.2524 174.028 14.6081V14.6081ZM161.074 15.3804C159.603 14.7418 158.673 14.2175 156.839 13.8486C154.403 13.3597 153.569 13.6936 151.316 13.8349C149.181 14.527 147.69 15.0637 146.062 16.3482C144.287 17.7484 143.509 18.6781 142.373 20.6037C139.116 25.5315 139.964 36.5741 149.952 40.2956C158.622 43.5262 167.579 35.9747 167.579 28.8785C168.239 27.6196 167.752 25.7269 167.509 24.4613C166.97 21.6441 164.869 18.1418 162.527 16.3655C162.037 15.9942 161.49 15.7581 161.074 15.3796V15.3804ZM100.273 23.5862C100.705 22.8676 100.974 22.2053 101.457 21.4117C102.07 20.4045 102.085 19.9999 103.062 19.5014L106.555 26.8601C106.886 27.6847 107.208 28.9351 107.513 29.546H98.1277C98.2556 28.0688 99.6741 24.7635 100.273 23.5862V23.5862ZM111.803 23.7672C111.131 21.5751 108.815 18.157 107.364 16.296C105.999 14.5467 106.099 14.3239 103.227 14.3456C99.043 14.3773 100.619 13.9566 98.5703 16.1531C94.6327 19.4259 91.1347 31.1007 90.3034 36.7121C89.6665 41.0169 88.8725 40.1061 95.9821 40.1061C96.1284 38.4186 96.6445 36.3384 96.7866 34.6974C99.8228 34.6974 102.871 34.7235 105.906 34.6954C108.353 34.6729 108.663 34.1298 108.955 36.1445C109.097 37.12 109.389 38.8942 109.389 40.1061H115.825C115.797 38.9248 115.438 37.0533 115.247 35.7676C115.048 34.4233 114.711 32.934 114.374 31.4548C113.759 28.7544 112.735 26.0999 111.803 23.7672H111.803ZM199.686 22.5919C199.735 22.5469 199.808 22.4088 199.829 22.4518C199.85 22.4943 199.942 22.343 199.971 22.3113C200.157 22.1013 200.188 22.068 200.345 21.8669C203.549 17.7648 208.098 18.0675 210.554 20.462C211.295 21.1841 212.092 22.9042 212.092 24.3063V24.9097H199.22C199.32 23.7592 199.719 23.7166 199.686 22.5919H199.686ZM217.722 24.5616C217.722 22.0512 216.539 19.4118 215.427 17.8427C212.507 13.7242 206.502 12.8455 201.797 14.2496C199.648 14.8911 197.204 16.3864 196.27 18.0518C196.083 18.2024 196.182 18.084 195.905 18.3963C195.747 18.5753 195.723 18.6094 195.568 18.8185C190.302 25.869 192.464 43.8518 208.762 40.7713C211.752 40.2061 216.586 37.4259 217.186 34.9543C215.952 34.8556 212.575 33.7533 211.636 33.9817C211.057 34.1222 210.385 34.8769 209.449 35.2506C207.202 36.1477 203.335 35.9783 201.422 34.1266C200.523 33.2559 199.257 31.1762 199.22 29.5456L217.138 29.4995C218.27 29.0904 218.082 25.4267 217.722 24.5612V24.5616ZM146.662 24.9867C147.391 21.5522 151.013 17.8889 156.158 19.1373C158.441 19.6916 159.629 20.7847 160.764 22.4405C161.805 23.9607 162.391 26.5149 161.947 28.5866C161.891 30.7182 160.341 32.8983 159.067 33.9913C154.476 37.9312 147.28 34.5553 146.453 28.974C146.279 27.8027 146.204 25.7462 146.662 24.9867V24.9867ZM67.8263 20.016V34.4393C67.8263 36.7816 67.5585 38.0645 67.5585 40.363C73.0997 41.603 79.2431 41.0631 83.5615 38.9934C87.9585 36.886 91.1551 33.0179 91.1551 28.0002C91.1551 24.3204 91.4276 23.3393 89.6427 19.9232C86.1944 13.3223 75.2946 13.0036 68.3258 14.077C66.5555 14.3496 67.8263 15.4378 67.8263 20.016V20.016Z" fill="white"/>
</svg>
