<svg width="205" height="70" viewBox="0 0 205 70" fill="none" xmlns="http://www.w3.org/2000/svg">
<path fill-rule="evenodd" clip-rule="evenodd" d="M8.6422 37.7186L24.7147 37.632C27.5425 37.632 29.8654 37.1844 31.4091 38.8449C33.025 40.592 32.5345 43.1621 30.9619 44.4039C30.1539 45.0392 27.4992 45.3424 24.0366 45.3424H0L0.0721386 53.6592L19.7083 53.7459C22.9545 53.7459 26.2007 53.7459 29.447 53.7459C32.2604 53.7459 36.43 53.125 38.2334 54.7855C40.4697 56.8502 39.2867 60.0124 37.1946 60.9798C35.521 61.7451 10.6477 61.4996 8.6422 61.3119L8.61334 58.5829L0.0721386 58.5974L0.0865663 69.8453C5.5691 69.9608 35.7952 70.2785 39.0702 69.3833C51.3627 65.9901 49.7612 48.7933 40.2533 46.2232C40.513 43.5808 41.3498 42.6279 40.8448 39.5524C39.9359 34.0078 35.4489 29.4162 29.1584 29.1563C20.0834 28.7809 9.21931 28.9397 0.0577108 29.1708L0.0432831 40.3754L8.57006 40.3465L8.6422 37.7331V37.7186Z" fill="#0D48A1"/>
<path fill-rule="evenodd" clip-rule="evenodd" d="M75.3829 51.5669C76.5083 49.9208 82.3515 41.8928 83.4624 41.0553C84.6599 41.9361 101.035 63.9555 103.214 66.8577C105.017 69.2546 104.916 69.861 106.778 69.8755H115.983C115.203 68.2728 113.097 65.7604 111.972 64.302C110.37 62.2373 109.302 60.7934 107.889 58.9452L91.5997 37.4311C90.2435 35.6263 88.8873 33.9369 87.5166 32.0743C86.5067 30.7026 84.5734 27.8148 83.4624 26.9629C82.5535 27.6704 51.7936 68.0562 50.9424 69.8899L61.3303 69.8322C62.6288 68.6482 64.6199 65.6882 65.7452 64.1865C69.28 59.4939 68.2412 60.1147 71.6606 60.1436C78.3117 60.1869 85.2082 60.2736 91.8449 60.1292C91.2823 58.7864 89.6375 56.9093 88.7141 55.6964C84.155 49.6465 86.9107 52.2311 75.3829 51.5958V51.5669Z" fill="#0D48A1"/>
<path fill-rule="evenodd" clip-rule="evenodd" d="M127.082 10.7318C131.497 10.8473 136.114 10.3708 140.745 10.4574C151.479 10.6596 164.897 12.9698 173.395 18.4711C184.014 25.344 184.677 34.7871 176.41 44.8799C175.357 46.165 170.784 50.6844 169.528 51.2908C171.115 50.7999 178.156 45.5585 179.714 44.3312C183.018 41.7322 185.875 39.0899 188.414 35.8844C195.614 26.8312 193.781 18.5866 185.962 13.273C173.352 4.69629 144.352 6.19794 128.597 10.0531L127.082 10.7029V10.7318Z" fill="#0D48A1"/>
<path fill-rule="evenodd" clip-rule="evenodd" d="M108.163 37.6315H159.078L159.136 29.1847L108.178 29.127L108.163 37.6315Z" fill="#0D48A1"/>
<path fill-rule="evenodd" clip-rule="evenodd" d="M155.836 3.25751C166.44 3.9217 188.659 0.990591 195.829 13.7835C199.003 19.4436 196.868 24.0207 196.277 28.0925C197.561 27.2839 215.292 6.21749 196.204 1.26493C189.726 -0.409989 182.21 -0.106771 175.284 0.398593C171.591 0.658494 158.635 2.13127 155.821 3.25751H155.836Z" fill="#0D48A1"/>
<path fill-rule="evenodd" clip-rule="evenodd" d="M129.433 69.8587L137.902 69.8298V42.4824H129.404L129.433 69.8587Z" fill="#0D48A1"/>
</svg>
