<svg width="142" height="105" viewBox="0 0 142 105" fill="none" xmlns="http://www.w3.org/2000/svg">
<path fill-rule="evenodd" clip-rule="evenodd" d="M105.081 102.893C103.881 102.546 102.608 102.109 101.377 101.696C98.1565 100.619 92.7588 99.4672 89.402 98.8414C77.552 96.6326 64.8947 96.5532 53.037 98.8399C49.5982 99.5029 44.394 100.58 41.0867 101.698C40.1939 101.999 38.0917 102.783 37.2531 102.897L33.0017 88.4263C34.0753 88.2656 36.1026 87.4389 37.2191 87.0657C41.2767 85.71 46.5286 84.5773 50.732 83.7449C63.7439 81.1683 78.5776 81.1479 91.5903 83.7365C94.6587 84.3471 97.8255 84.9514 100.76 85.8095C102.201 86.231 103.641 86.6275 105.114 87.0654C106.578 87.5013 107.889 88.0222 109.34 88.4709C109.271 89.3923 105.323 102.59 105.081 102.892L105.081 102.893ZM136.525 90.4261L139.716 96.611L108.155 96.6281L110.675 87.911C110.195 87.4785 107.969 86.8283 107.104 86.5421C106.355 86.2942 106.195 86.3392 105.836 85.9627C108.46 84.4511 106.009 84.4802 110.956 84.4802C113.181 84.4802 115.407 84.4802 117.632 84.4802C118.551 84.943 118.185 85.3488 119.768 85.0275C119.79 85.0581 119.824 85.0662 119.833 85.1192C119.842 85.1708 119.882 85.1891 119.895 85.2097C120.221 85.7538 120.339 86.1207 121.161 86.5076C122.1 86.9506 122.74 86.5091 123.373 86.1359C123.716 86.2421 125.779 87.2875 126.658 85.5661C126.785 85.317 126.782 85.249 126.879 84.9942C127.127 84.3384 126.887 84.7182 127.245 84.4799H139.863L136.526 90.4255L136.525 90.4261ZM1.9751 84.5236L12.4736 84.4793C12.6033 86.2139 14.0869 86.2049 15.7582 86.1521C16.5103 86.129 17.291 86.1054 17.9447 85.808C18.5799 85.5194 18.6079 85.3039 18.8668 84.8593C19.1668 84.345 18.8101 84.7209 19.2285 84.4802L33.2478 84.4796C35.2435 84.4739 34.3518 84.5407 36.5917 85.9957L34.2432 86.8871C33.3993 87.1967 32.5288 87.5828 31.7054 87.7504L34.2561 96.6245L2.18803 96.6272L5.28622 90.4672L1.9745 84.5236H1.9751ZM84.3323 81.5139C85.9302 79.8929 87.1976 80.5868 89.5902 80.7601C92.7373 80.9885 92.8148 79.866 92.6094 77.0277C93.0534 77.18 93.4879 77.2999 94.0903 77.3361C94.486 78.9658 94.5621 78.6511 95.8638 79.1813C95.828 79.9856 95.5692 80.8566 95.2468 81.5079C94.8573 82.2942 94.4383 82.5097 93.7301 82.9623L84.3326 81.5142L84.3323 81.5139ZM82.5164 81.3281C81.36 81.0574 78.6715 80.9255 77.309 80.9255V80.6573C78.2164 80.5817 79.9801 79.6729 80.7379 79.2725C81.8356 78.6931 84.2789 77.073 85.0886 76.2646C85.7366 75.6171 86.6011 74.9775 87.0028 74.4313L88.0988 73.117C88.4078 72.7258 88.5184 72.8631 88.658 72.3374L89.7506 73.5204C91.0798 75.2017 91.5954 76.7097 91.5954 79.0471C91.5954 80.7976 87.0458 78.2147 84.3037 79.9043C83.3488 80.4927 82.8952 81.0733 82.5161 81.3284L82.5164 81.3281ZM50.7392 79.0468C50.7392 77.3448 50.7753 76.2556 51.6994 74.7787C52.2315 73.929 52.7459 73.0073 53.5427 72.471C53.753 72.7864 53.8782 72.8307 54.1019 73.1167L55.8438 75.1235C56.802 76.0865 58.8316 77.6982 60.0311 78.4299C60.3528 78.6265 60.4584 78.6799 60.7984 78.8666C63.4141 80.3048 63.3395 80.0071 64.8437 80.7052L65.1586 80.9252C63.8727 80.9252 60.796 81.0676 59.6845 81.3278C59.0684 80.9136 58.7028 80.3344 57.9963 79.9379C57.2001 79.4907 56.7862 79.3168 55.6347 79.2425C54.744 79.1852 50.7386 80.3617 50.7386 79.0465L50.7392 79.0468ZM46.6664 75.4238C47.5638 72.7141 48.8002 70.3965 51.0061 68.6874L52.8204 71.4354C51.4558 72.9959 49.0289 75.7412 49.5976 79.2788C49.8717 80.9831 51.816 80.9154 53.5418 80.6612C54.9986 80.4469 55.7835 80.1162 57.0802 80.8611C58.0261 81.4042 57.7151 81.2475 57.8914 81.501L48.6024 83.0093C47.7671 82.5852 47.3798 82.2684 47.0323 81.4864C48.5887 81.148 48.7092 80.0488 48.2828 78.4371C47.8942 76.9681 47.318 76.2253 46.6661 75.4238H46.6664ZM91.1949 68.6517C91.8137 68.9878 91.4102 68.9464 92.0562 69.4586C92.499 69.8099 92.6079 69.8729 92.8244 70.3384C90.9826 70.7922 90.826 71.4885 90.2603 72.2837C89.8568 71.9486 89.6725 71.8686 89.4438 71.3977L91.1949 68.6514V68.6517ZM107.351 67.7741C107.351 66.9123 107.487 66.4325 108.285 65.895C108.591 67.2118 110.598 70.3003 111.81 71.2106C116.875 75.0149 118.525 73.8175 120.519 74.5348C121.677 74.9514 121.765 76.6605 121.5 77.7009C121.204 78.8666 120.314 79.0444 119.465 79.8168C118.655 80.5542 117.365 81.8883 117.365 83.3415H107.618C107.233 83.3415 104.657 85.6228 104.547 85.6228L97.6322 83.8498C97.2806 83.7632 96.8497 83.6907 96.4286 83.583C96.0624 83.4898 95.6965 83.3522 95.2006 83.3412C96.026 82.6203 96.0213 82.5756 96.5363 81.3287C96.8348 80.6063 97.0701 79.5455 97.0701 78.5102L97.9701 77.2675C98.3685 76.7391 98.7658 75.8464 99.7117 75.1262C101.753 73.5729 106.437 73.7168 107.27 73.4638C107.985 73.2462 108.673 72.7678 108.901 72.0136C109.323 70.6201 108.648 70.5593 107.748 68.9857C107.515 68.5798 107.351 68.4587 107.351 67.7738V67.7741ZM41.526 78.9125C41.832 78.9125 41.6814 78.8669 42.0601 78.7788C42.0601 80.7907 43.8223 81.1944 45.5314 81.1944C45.8737 81.7082 46.1925 82.4743 46.6279 82.9101L47.1337 83.3412C45.348 83.4904 38.2641 85.6225 37.9209 85.6225C37.9098 85.6225 36.4697 84.5704 36.3716 84.4961C36.031 84.2368 36.0051 84.1565 35.6249 83.9044C35.4796 83.8082 35.3642 83.7314 35.23 83.6304C35.0317 83.4802 35.041 83.3412 34.7162 83.3412H19.2282C19.2282 82.5049 19.0168 81.6114 18.6709 81.0829C16.9534 78.459 14.3837 79.4193 15.1024 74.7662C15.1877 74.214 15.154 73.7671 15.6308 73.5525C16.8807 72.9881 19.1247 74.318 21.135 72.7774C21.4526 72.5337 21.5892 72.4749 21.8224 72.1257C22.0643 71.7628 22.1958 71.5757 22.299 71.1288C23.8089 71.1288 25.9053 70.0383 26.7067 68.7144C28.0012 66.5748 26.5423 67.1356 28.8658 67.7492C30.0315 68.0574 30.8638 68.1847 32.046 67.9078C31.825 68.2396 31.6377 68.3796 31.3431 68.6775C31.1298 68.893 31.1361 68.8972 30.9777 69.1154C28.7778 72.1449 29.334 72.9105 32.9797 74.753C35.0678 75.8087 35.5092 75.2625 37.6882 77.1332C38.5647 77.8859 40.3436 78.9122 41.5257 78.9122L41.526 78.9125ZM30.7111 60.7886C31.638 60.7637 32.6955 60.9712 33.7822 60.9388C39.6854 60.764 39.3905 59.1356 41.1222 62.008C42.4022 64.131 42.4189 64.2452 41.0018 66.044C39.2297 68.2924 36.2729 68.7626 35.7293 70.2652C34.882 72.6074 39.327 73.6616 41.1535 74.063C43.7221 74.6265 43.7662 75.5767 45.2842 76.2139C46.5471 76.7447 46.2972 76.4618 46.8954 77.8142C47.2017 78.5066 47.6067 79.4949 47.267 80.2547C46.8048 80.4696 44.6734 80.0134 44.0677 79.848C43.0833 79.5794 43.2593 79.1945 42.7538 77.272C41.7568 77.5361 41.3423 78.5888 38.3455 76.2031C37.7452 75.725 37.2895 75.2041 36.4653 74.8768C35.015 74.3013 30.2686 73.0525 30.9083 71.1944C31.083 70.6867 31.9598 69.7017 32.2756 69.3468C32.7867 68.7719 33.5135 68.5621 33.71 67.6401C33.557 65.9121 29.954 67.8077 27.8444 66.0299C28.6683 63.804 29.2502 62.5406 30.7111 60.7889V60.7886ZM98.939 70.9762C101.027 71.0431 103.03 69.9376 101.721 67.7966C100.844 66.3632 99.2733 65.2746 98.7407 63.9494C97.9656 62.0215 98.427 59.9553 99.2796 58.3257C99.9208 57.1 100.251 57.6515 101.457 58.0013C104.204 58.7986 106.434 58.2198 109.015 57.8479C108.188 60.7221 107.501 61.3039 107.809 64.8675C105.307 66.1084 104.905 63.6155 102.745 63.3301C102.909 64.0864 103.825 64.7941 104.35 65.1556C104.972 65.5848 105.609 66.0611 106.474 66.2289C105.716 69.4775 107.154 69.8111 107.741 70.8722C108.856 72.8862 104.23 72.5658 103.456 72.694C98.5141 73.5111 98.3006 74.9118 96.06 77.9944C95.0553 77.9434 95.2256 77.4075 94.826 75.815C94.3104 75.8791 93.1444 76.6824 92.9535 75.6921C93.0591 74.9424 93.5481 74.7901 93.4083 73.9449L91.8364 73.9404C90.8033 72.8793 91.3792 72.0298 92.6466 71.5158C94.5144 70.758 96.9001 70.916 98.939 70.9765V70.9762ZM97.2031 61.8695C97.2031 64.9508 98.9399 65.9433 99.8734 67.2373C100.559 68.1877 100.942 68.069 100.942 69.3849C99.7761 70.0045 97.6642 69.7947 95.8668 69.786C93.4679 69.7749 95.0527 70.8219 91.6965 67.5385C93.0546 65.0048 94.8669 59.3715 94.9334 56.3671H95.4675C95.6017 56.7394 97.5672 58.7156 98.8949 56.0548C99.4961 54.8499 99.3264 53.9647 99.6064 53.6833L102.01 52.4756C102.918 53.84 106.472 54.319 107.977 54.9326C108.988 55.3438 109.22 55.2407 109.22 56.6357C107.327 56.7943 104.322 57.9735 101.34 56.7721C100.617 56.4807 100.76 56.5017 99.8734 56.5017C98.288 56.5017 97.2031 60.0399 97.2031 61.8698V61.8695ZM43.5286 55.0252C42.704 55.0252 41.5257 55.6184 41.5257 56.9043C41.5257 61.4367 43.0344 60.5809 45.5481 59.7392C46.0488 59.5717 47.2348 59.0873 47.6675 59.0513C48.1396 61.0893 48.7104 63.6473 49.5559 65.6079L50.4714 67.5061C50.0965 68.0687 49.4756 68.5792 48.9693 69.0828C47.7146 70.3294 45.8049 73.3322 45.665 75.0212C45.1261 74.976 44.9728 74.7299 44.62 74.4607C42.4269 72.7876 41.4527 73.2492 38.775 72.1497C37.7413 71.7253 35.5897 71.1 37.4374 69.9724C38.4818 69.3354 39.1084 69.137 39.9601 68.4824C41.3522 67.4111 43.2614 65.7625 43.2614 63.8826C43.2614 63.2246 42.1985 61.5811 41.8836 60.9727C41.7148 60.6469 41.2138 59.9664 40.9609 59.753C39.819 58.792 38.4988 59.3127 37.5069 59.4407C36.8962 59.5192 36.3466 59.5582 35.7316 59.6691C35.0791 59.7869 34.4239 59.6559 33.7905 59.7308C33.4046 59.7767 33.4058 59.8966 32.8505 59.8627C32.3293 59.8316 32.5276 59.7359 31.9124 59.7221L32.7554 59.0936C36.4253 57.1698 36.6886 58.7093 40.4545 56.4981C41.6787 55.7791 42.6715 54.798 43.5649 53.7195L45.4524 51.1882C45.7226 50.7794 45.7252 50.5791 46.0658 50.3283C46.0658 51.8192 46.4741 54.1868 45.0763 54.9712C44.5148 55.2863 44.2097 55.0255 43.5289 55.0255L43.5286 55.0252ZM125.857 51.4019C125.82 50.0912 126.653 47.2847 127.912 46.1744C128.579 47.2934 128.58 48.9719 129.381 49.9392C130.145 50.0195 130.694 49.6065 131.372 49.3925C131.572 50.8831 132.036 52.2259 132.337 53.6575C132.92 56.4334 133.031 53.8631 135.938 54.2018C136.032 55.7389 134.261 58.135 133.538 58.9323C130.957 61.7793 131.276 65.2659 127.261 66.8512C125.69 67.4708 123.004 67.2163 121.705 66.2991L122.163 64.1095C123.518 64.8207 124.734 65.5917 126.762 65.0102C131.45 63.6661 132.081 55.6645 126.043 55.6645C125.201 55.6645 124.691 55.8924 123.993 56.1031C123.967 53.8652 124.254 53.2582 125.848 52.8197C126.494 52.6423 126.567 52.6902 126.849 52.3413C126.535 51.7853 126.427 52.0134 125.857 51.4019V51.4019ZM49.3334 44.1551C49.8338 41.7497 51.3908 38.2889 52.5175 36.4149C54.1168 33.7541 56.3057 30.8894 58.769 29.011C62.9924 25.7902 67.5685 24.1677 73.1625 24.7085C79.1245 25.2849 83.4293 28.4474 87.0682 32.6019C89.9913 35.9398 93.5049 43.6515 93.6072 47.7784C93.145 48.1941 92.672 48.695 92.2601 49.1197C91.3932 50.0138 90.6328 51.8644 90.9411 52.8518C91.1642 53.5664 92.2079 54.0271 92.2082 54.0262C92.3353 53.7927 92.3761 55.1517 92.6589 55.5689C92.9672 56.0239 93.2562 55.8986 93.7927 56.3671C93.3844 59.8058 92.5998 62.6407 91.3887 65.5536C90.8272 66.9039 90.1043 68.2003 89.4211 69.3459C88.0368 71.6671 87.2477 72.4962 85.6298 74.125C82.011 77.7681 77.7446 80.2068 72.2354 80.5506C67.3556 80.8554 62.681 79.1679 59.1054 76.4063C58.5194 75.9543 58.0566 75.5659 57.5535 75.1474L54.772 72.1749C54.3488 71.582 54.013 71.2376 53.5758 70.5563C51.2968 67.0074 49.2004 62.8248 48.711 58.3463C49.7756 57.7765 49.4879 56.4088 49.3906 55.0189C49.1553 51.6555 49.3298 50.6061 49.9337 47.3743C50.254 45.6601 50.1204 45.1751 49.3334 44.1545V44.1551ZM134.366 45.8082C136.276 47.6438 136.45 46.2551 137.017 44.3187C137.293 43.3794 137.713 40.0804 138.06 39.6083C138.685 39.7732 138.632 39.9084 138.845 40.5483C139.859 43.6105 138.115 43.8104 137.788 47.371C137.659 48.7633 138.25 48.9683 138.815 49.6571C138.509 50.0474 137.741 50.3693 137.12 50.4628C134.91 50.7956 134.339 47.1402 134.365 45.8082H134.366ZM123.506 84.2269C122.941 84.4508 123.347 84.2011 122.742 85.1225C122.017 86.2274 121.016 85.1825 120.897 84.7589C120.828 84.5131 120.987 83.7014 120.989 83.3034C119.954 83.4293 119.731 84.2446 118.738 83.9742C117.823 82.5756 120.1 80.728 120.648 80.3315C121.253 79.8932 121.827 79.5554 122.18 78.92C123.29 76.924 122.677 74.2176 121.104 73.5456C120.142 73.1344 118.449 73.1449 117.353 72.8916C115.257 72.4069 112.753 70.7529 111.801 69.6058C111.611 69.3768 111.414 69.2126 111.238 68.968C111.096 68.7686 110.969 68.5612 110.802 68.3298C110.052 67.287 108.81 64.8276 108.788 63.6191C108.733 60.5926 110.252 58.7432 110.343 56.2826C111.444 56.8135 112.595 58.5208 113.52 58.8412C113.141 57.2091 111.077 55.1841 109.281 54.2884C107.659 53.48 104.062 52.9135 103.109 51.9394C103.367 51.604 104.63 50.8276 105.081 50.5573C105.256 50.6843 105.129 50.577 105.327 50.7491C105.88 51.2293 106.185 51.6648 107.465 51.3741C108.474 51.1453 108.768 50.7416 109.15 49.9863C110.195 47.9213 109.923 48.4516 111.813 47.1717C111.954 47.0764 111.948 47.0797 112.064 46.9798L112.225 46.7904C111.023 46.8737 109.266 47.4313 108.804 48.1656C108.09 49.3022 108.325 50.5492 106.395 50.3115C106.231 50.1026 106.224 50.0867 106.034 49.926C106.21 49.4461 106.719 49.1419 105.997 48.6407C105.359 48.7073 105.204 49.0609 104.717 49.4263C103.65 50.2272 102.321 51.1687 101.061 51.7868C100.131 52.243 99.0091 52.5403 98.5588 53.3059C97.9913 54.2714 98.4541 55.3951 97.4697 56.2493C96.3994 56.2709 96.1012 55.5102 95.7812 54.744C95.2551 54.854 95.2537 55.0114 94.9951 55.2983C92.5685 55.3537 93.9173 54.0738 93.5979 52.7574C92.8408 52.6995 92.5554 53.0781 92.0627 52.6776C91.8316 52.0521 92.236 51.0476 92.5581 50.4985C93.003 49.7399 93.2601 49.5651 93.9048 49.0259C95.8808 47.3734 94.7628 47.984 97.507 47.0098C99.6088 46.2635 99.6628 46.0072 101.059 44.9422L104.439 42.6687C102.496 42.8233 100.197 44.4234 99.551 44.697C98.8681 42.1612 98.8174 40.7767 100.026 38.6539L101.456 38.552C102.127 41.9334 107.248 37.7397 108.336 37.7823C108.539 39.3026 108.651 41.9802 110.286 41.9322C111.678 41.8911 112.916 40.0846 113.385 38.9315C114.894 40.6427 117.216 47.716 117.541 50.8081C118.498 59.9191 119.621 56.0896 120.654 59.7794C121.06 61.2328 121.284 62.9546 121.026 64.5072L120.702 65.5072C120.33 65.137 119.054 62.8556 117.94 62.7235C117.861 63.7057 121.287 68.3349 122.167 69.2608C123.215 70.3615 123.419 70.4142 124.363 71.2103C125.446 72.1233 125.778 72.5532 125.718 73.8013C125.678 74.6172 125.661 75.5272 125.661 76.3641C125.438 78.3382 126.88 79.8902 126.015 84.1145C125.659 85.8554 124.42 85.8725 123.926 84.8021C123.668 84.2434 123.901 84.5113 123.506 84.2275L123.506 84.2269ZM5.70671 41.7676C5.94141 45.6718 7.26788 47.6914 9.6927 43.2924C10.0413 42.66 10.2635 42.1696 10.3723 41.4484L10.5495 40.8208C11.3153 42.3884 9.02111 45.6583 8.46105 46.6172C7.96303 47.469 7.50705 48.2819 7.02752 49.2012C6.78357 49.6691 6.5787 50.0606 6.35056 50.5321C6.08992 51.0713 6.01715 51.5581 5.52867 51.6171C5.66913 50.5698 6.00284 50.1769 5.53225 49.066C4.27973 46.1082 2.69798 45.7713 3.28607 42.3575C4.97399 42.2406 4.49177 42.1414 5.70671 41.7679V41.7676ZM93.331 41.6055L98.0041 41.8744C98.0041 43.9543 98.4556 44.3652 98.5382 45.363L94.6662 46.8393C94.4592 45.9469 94.314 45.1508 94.0796 44.2081C93.8625 43.3353 93.4354 42.4232 93.331 41.6055V41.6055ZM11.0135 81.8017C10.8325 81.1219 11.7665 76.5778 11.7665 75.1558C11.7901 69.8297 11.0186 71.0029 13.8021 70.5245C16.6436 70.0365 18.3759 68.5492 19.1343 65.3977C20.3886 60.1843 18.7562 58.8622 22.0503 54.3718C23.2918 52.6797 23.921 52.4978 25.9268 51.2901C28.4673 49.7611 28.7095 49.9188 29.5409 47.9441C31.386 43.5625 32.1775 41.9388 30.7618 36.7898C31.8936 36.726 31.9896 36.8228 32.5619 36.1289C33.2919 36.4757 33.8198 36.7803 34.8152 37.0737C36.204 37.4837 36.3835 37.3465 37.5886 36.9943C38.019 37.6168 38.7985 38.1878 39.5017 38.671L45.7357 42.874C47.6001 44.1734 49.2204 44.8376 49.0012 46.5749C48.7265 48.7486 48.2371 50.366 48.2371 52.7439L48.4283 57.1758C47.9043 57.7873 46.758 58.1449 45.8675 58.4509C44.9728 58.7582 43.2121 59.6907 42.7946 58.9794L42.6425 57.9819C42.4758 54.8633 43.757 56.8836 45.472 56.0329C46.0846 55.729 46.78 54.8511 47.0174 54.093C47.2139 53.4668 47.134 51.5929 47.1761 50.7914C47.3365 47.7502 47.7898 47.9513 41.4541 46.1025C40.5306 45.833 39.6428 45.622 38.7001 45.3936C36.7387 44.9188 36.895 44.4096 36.0931 44.6053C35.2482 46.086 39.1513 46.5974 40.3648 46.931C42.0962 47.4067 43.887 48.0047 45.5499 48.5205C45.0829 49.9881 42.8101 53.1329 41.7813 54.0735C37.4386 58.0436 34.7305 55.9013 31.1555 58.8262C26.2107 62.8712 27.5089 68.3703 23.5843 69.7401C22.1928 70.226 22.203 69.8312 21.0694 69.5537C19.7537 69.2317 19.3741 69.6927 18.6941 70.2074C17.8776 70.3507 17.3846 70.1076 16.7119 70.4196C16.8461 70.8267 16.9239 70.8773 17.4664 71.0149C19.7075 71.5841 19.1787 70.1864 21.2305 70.7274C21.107 71.4822 20.377 72.1326 19.6001 72.3098C16.7327 72.9644 14.1639 70.5353 13.8174 75.7127C13.6056 78.875 15.1787 79.2407 17.376 81.3095C17.9724 81.8709 18.1624 82.6386 18.0604 83.7542C17.9572 84.883 17.3724 84.9798 16.2905 85.0419C12.0516 85.285 14.1755 83.8315 14.423 81.9887L11.0132 81.8014L11.0135 81.8017ZM92.7576 40.4506C92.295 38.4432 90.5821 36.0834 90.0059 34.7627L91.29 34.7999C91.5814 36.0492 92.3087 37.2047 93.4655 37.7145C95.3199 38.5307 96.2822 37.2787 96.9156 36.7979C97.2252 37.1846 97.1497 37.5698 97.5747 38.0095C97.9412 38.3893 98.2719 38.4123 98.7479 38.6725C98.4517 39.4096 98.2069 39.7819 98.0978 40.7698L92.7579 40.45L92.7576 40.4506ZM123.641 48.448C123.277 47.8581 122.962 47.3575 122.581 46.6981C120.981 43.9261 120.004 41.1097 120.798 37.6744C121.466 34.7867 123.784 32.5677 126.707 32.2062C128.866 31.9388 129.664 32.7176 131.368 33.1642C133.482 33.7187 134.923 32.4999 136.323 32.7245C136.907 32.8183 137.847 33.2496 138.404 33.4738C139.547 33.9336 139.636 33.7283 140.836 33.8668C140.847 34.5724 140.219 35.1395 140.132 36.098C140.008 37.4625 140.676 37.5737 140.731 38.409C139.581 39.1092 138.916 38.7627 137.843 38.3326C136.711 37.8791 137.054 38.195 136.947 38.2439C136.744 38.9444 136.662 41 136.458 42.0035C136.261 42.9687 135.997 44.6209 135.522 45.3289C134.975 44.9125 134.689 44.4824 134.109 43.9654C133.734 43.6308 133.282 43.0556 132.85 42.5503C128.489 37.4553 133.595 36.5998 132.12 35.0957C131.347 34.308 129.483 33.8224 128.041 33.8416C121.778 33.9246 120.869 43.3746 125.776 47.0608L124.914 50.2488L123.641 48.4474L123.641 48.448ZM2.58496 35.3496C4.03519 34.7375 5.44964 34.6611 6.87274 34.1548C11.0866 32.6558 13.8675 28.7151 18.2298 32.4127C21.8627 35.492 22.4239 40.3436 20.5848 44.4515C19.2491 47.4349 21.2293 46.9595 21.6199 47.8824C21.9623 48.6911 19.6275 51.5404 18.9917 53.0331C18.8182 52.8614 18.902 53.1977 18.7072 52.5853C18.4794 51.8683 18.4087 49.4087 17.2251 49.7809C16.9668 49.8619 15.4307 52.3797 14.8423 53.1689C13.6143 54.816 11.9946 57.0419 12.7476 59.3897C13.6465 62.192 15.8679 62.1506 18.5203 61.6549L18.3494 63.6667C15.5273 63.5349 13.7347 63.2882 11.9043 61.4475C10.2975 59.8322 10.9482 56.7595 11.8375 54.8436C12.8467 52.6701 13.9688 51.425 15.1924 49.7626C18.3914 45.4167 14.9419 44.5636 14.706 44.2735C16.0078 43.2783 15.912 43.207 17.9152 43.4636C20.1002 43.7432 20.9961 38.1033 17.8475 34.808C14.2721 31.0657 10.704 33.1534 11.3269 36.9295C11.5926 38.54 12.1429 38.7999 12.6913 39.7171C11.103 39.7492 9.47977 39.2282 9.2397 41.0788C9.13861 41.8585 8.88094 42.3536 8.54843 42.9492C8.24425 43.4933 7.99255 44.1095 7.47813 44.4051C7.09134 43.7711 7.01976 42.9312 6.98845 42.1447C6.94998 41.1682 7.49661 40.4755 6.99471 39.9422C6.13256 39.3379 4.94297 41.5054 3.24313 41.1553C2.66518 41.0357 2.27839 40.944 1.95184 40.6079C2.53844 40.2519 4.47626 38.2592 4.59704 37.1774C4.18967 36.1352 3.53061 35.9659 2.58496 35.3496V35.3496ZM60.8428 23.9822C63.0875 22.4928 68.0439 21.5987 71.1669 21.6071C74.2367 21.6151 79.2915 22.5632 81.4414 24.0263L81.7399 26.4701C80.9436 26.1361 80.2384 25.6829 79.3777 25.2957C74.9053 23.2811 69.8589 22.9496 65.1431 24.4123C63.0037 25.076 60.9886 26.2761 60.5735 26.3981L60.8431 23.9819L60.8428 23.9822ZM33.3811 23.2203H33.2475L33.359 23.0638L33.3811 23.2203ZM60.187 20.6707C61.113 20.0403 63.9276 19.2966 65.2272 19.0017C69.9361 17.9328 75.3762 18.2044 79.916 19.7936C80.6723 20.0583 81.5982 20.483 82.274 20.656L81.5827 22.794C80.8906 22.586 80.0329 22.1745 79.2793 21.9083C74.1425 20.0919 68.1349 20.0445 63.0106 21.8681C62.2254 22.1475 61.5096 22.4916 60.7808 22.7206L60.1873 20.671L60.187 20.6707ZM56.6839 18.0623C57.3152 17.6954 57.7202 17.9226 58.2087 18.3345C58.2731 19.1414 58.0121 19.9144 57.0504 19.5814C56.3937 19.3542 56.4814 18.6273 56.6839 18.0623V18.0623ZM84.1247 18.3366C84.8276 17.7833 84.7823 17.7728 85.6856 18.0551L85.8198 19.0826C85.0975 20.0754 84.0087 19.7822 84.1247 18.3366ZM87.0935 14.6042C88.454 14.0805 89.3686 16.3346 87.8426 16.9068C86.4643 17.4242 85.3289 15.2837 87.0935 14.6042V14.6042ZM54.5552 14.6387C55.9828 14.0275 56.8565 16.3981 55.2891 16.9245C54.0083 17.3552 52.7987 15.3907 54.5552 14.6387ZM99.4722 11.8289C101.745 11.8256 101.429 12.0615 103.362 11.1659C104.693 10.5496 105.799 10.7714 107.35 10.802C111.671 10.8859 113.236 8.77693 114.161 8.54433C114.565 10.1812 114.775 11.9122 115.693 12.961C116.619 14.0179 117.428 14.2391 118.251 16.1596C118.83 17.5099 119.446 19.1639 120.294 19.8686C121.272 20.6815 122.408 21.6988 124.317 21.6262C123.644 22.7296 121.675 23.056 122.873 25.4785C123.12 25.9767 123.076 26.1646 122.778 26.5141C121.155 28.4208 121.858 28.0836 122.072 29.8412C118.88 31.0414 119.283 30.9395 119.255 33.555C118.102 34.4144 117.272 33.6593 116.882 35.6089C116.758 36.2287 116.774 36.9664 116.747 37.5872C116.733 37.9343 116.717 38.296 116.659 38.6386C116.371 40.3388 114.7 39.0205 114.439 38.3704L113.906 36.6244C113.768 36.2896 113.856 36.4391 113.625 36.2509C112.563 37.2065 112.029 40.7863 110.154 40.8055C109.641 40.2033 109.589 39.1086 109.488 38.2514C109.303 36.6942 109.47 36.7701 109.681 35.3748C108.807 35.602 108.084 36.6241 106.405 37.4403C101.651 39.7522 102.589 38.6623 102.99 37.2973C100.345 37.4963 97.2353 38.5307 98.226 35.2543C99.0735 32.4514 103.981 32.6534 107.583 32.2868C111.455 31.8933 115.647 31.2299 116.754 26.6436C117.094 25.2339 117.937 19.7855 116.394 18.966C116.773 22.2857 116.918 22.7709 115.829 26.3726C113.968 32.532 105.477 30.7444 100.166 32.1013C98.3363 32.5689 97.9588 33.5655 97.3134 34.6074C94.8168 38.6392 92.2604 36.6016 92.2604 33.5553C92.2604 28.3518 97.926 30.4308 103.039 29.2166C107.383 28.1852 109.667 24.817 109.12 20.4105C107.656 20.8349 106.452 21.3295 104.786 21.5333C101.78 21.9014 101.804 22.7086 100.824 23.0446C100.532 22.8063 99.3386 21.313 99.2244 20.9386C100.405 20.138 102.437 20.5094 102.708 18.9319C103.156 16.3202 99.6115 16.6523 98.1863 16.7411C97.5443 15.0403 98.5582 15.6065 98.5066 14.3776C98.4673 13.446 97.8177 13.0617 97.9275 12.1403C98.4309 11.8508 98.863 11.8307 99.4722 11.8298V11.8289ZM89.365 10.3119C91.4093 9.48102 92.55 12.6817 90.5442 13.4403C89.5085 13.8318 88.641 13.2173 88.3624 12.5108C88.1635 12.0072 88.1972 11.5531 88.4394 11.061C88.6881 10.5565 88.7877 10.5469 89.365 10.3119ZM51.9109 10.2765C54.0208 9.52178 55.0398 12.8336 52.9353 13.4799C50.8489 14.1204 49.7646 11.0439 51.9109 10.2765ZM27.6022 14.5107C27.5348 13.5464 26.3482 12.9011 26.6133 11.8727C28.2538 11.7638 29.0345 12.5465 30.4335 12.7299L30.135 12.1451C30.7654 12.0201 31.4316 11.765 32.1775 11.8229C32.8753 11.8775 33.4392 12.0822 34.183 12.0972C33.9817 13.0377 34.2668 13.2092 34.7472 13.7937L37.2081 16.153C37.6426 16.5672 37.934 16.9772 38.3622 17.4077L42.1269 21.0025C43.2715 22.0564 42.871 23.0857 42.1922 23.2397C42.0291 23.2769 39.4442 21.9308 40.0537 24.2954C40.1068 24.5008 40.1781 24.6209 40.2189 24.8203C40.351 25.4644 40.2646 25.0394 40.1474 25.1968C39.6935 25.6425 39.0314 25.3137 38.6563 25.0265C37.3444 24.0227 37.0533 23.2775 35.143 22.5207C34.1657 22.134 32.985 22.0129 32.1306 21.5213C31.1021 20.9296 31.2518 19.5658 30.6989 19.0874C30.0318 21.26 31.8605 23.2284 32.8783 24.531C33.3208 25.0972 33.6149 25.4434 34.0255 25.9257C35.5327 27.6963 37.645 28.7265 40.2464 30.0094C45.1601 32.4328 48.7993 35.4101 47.6219 42.7775C47.5095 42.7415 41.8052 39.0904 41.1225 38.3848C41.9939 37.6963 43.6798 36.9424 42.9944 35.1643C42.7762 34.5975 42.3235 33.987 42.0008 33.4786C38.8251 28.4753 30.8632 31.5045 25.147 26.2635C22.1937 23.556 23.3761 18.7268 23.2011 17.7596C22.6518 18.44 22.4597 21.358 22.5045 22.4152C22.6938 26.8657 26.0309 28.9177 30.5116 30.2621C35.2023 31.6694 39.0651 30.5807 41.648 34.9027C42.1168 35.6868 42.2689 36.0699 41.5982 36.7146C41.1744 37.122 40.6012 37.4214 39.9216 37.6105C38.2179 36.5291 37.6799 35.3781 36.7232 35.1233L36.6901 36.1937C35.6323 36.2782 34.7872 35.9841 33.8773 35.605C32.7399 35.1311 32.9126 34.3038 32.0081 34.0355C31.9279 34.5676 31.808 35.2504 31.6219 35.6688C29.9462 35.8016 29.9134 34.686 29.2484 33.6785C28.9203 33.1807 28.6147 32.8812 28.238 32.4193C27.867 31.9649 27.7501 31.5983 27.0764 31.4203L26.6196 34.9416C23.0153 34.7465 23.1426 30.8466 22.03 29.6551C21.4309 30.0912 21.4562 30.8715 20.6949 31.1331C18.1466 28.7598 19.7471 25.8274 19.7346 24.8326C19.7191 23.5659 18.1552 24.145 17.4246 24.3602C17.331 23.2266 17.7929 22.2299 17.472 20.8253C17.2036 19.6506 16.6072 19.1902 15.5962 18.7934L16.0516 18.547C17.1574 18.2215 17.8546 18.0719 18.9905 17.4763C23.4835 15.1227 23.3651 12.2168 25.8645 13.9963C26.2334 14.2586 26.177 14.2652 26.5024 14.5646C26.9965 15.0184 27.2736 14.8761 27.6007 14.5107H27.6022ZM57.5475 10.6053C57.5475 9.67255 57.4664 9.18278 58.0223 8.39835C58.223 8.1148 58.7338 7.70565 59.0642 7.56687C60.0666 7.14574 61.1181 7.0687 62.3047 7.2998C63.7606 7.58306 65.0564 8.24129 66.3166 8.90372C66.8072 9.1612 67.0818 9.41118 67.5611 9.66596C67.5611 10.3503 68.0573 12.6253 68.219 13.4334L68.8965 17.3157C68.2106 17.3157 66.6459 17.5662 66.0596 17.6852C62.7207 18.363 63.749 18.9495 60.7164 15.8748L59.2301 14.0137C58.9274 13.6118 58.741 13.458 58.4854 13.0177C58.1362 12.4167 57.5475 11.528 57.5475 10.6056V10.6053ZM79.044 18.2547C78.5311 18.2547 78.1452 18.0842 77.6996 17.9955C77.2255 17.9011 76.8044 17.8168 76.3639 17.7278L73.4363 17.3157C73.4363 16.6484 73.6146 16.1107 73.7169 15.4501C73.8106 14.8446 73.9963 14.1498 74.0903 13.5443L74.7714 9.66596C76.7981 8.58809 79.9375 6.23362 83.0509 7.51742C83.7716 7.81476 83.6237 7.75331 84.154 8.28745C84.4567 8.59289 84.3624 8.43432 84.5405 8.83867C85.8168 11.7318 82.0142 15.4917 80.0138 17.4853C79.9002 17.5983 79.0986 18.255 79.044 18.255V18.2547ZM23.0997 9.26341C25.1228 9.26341 24.8246 9.80024 26.3041 9.80024C26.477 10.1285 26.5501 10.4156 26.7046 10.7396C26.5033 10.7867 26.296 10.8335 26.0849 10.9222C24.8878 11.4242 26.0276 11.6469 23.6329 9.93513C23.5446 9.87188 23.4495 9.84251 23.3237 9.70912C22.9861 9.35123 23.1898 9.43606 23.0997 9.26371V9.26341ZM89.7491 5.20791C91.8838 4.27152 93.0224 7.63971 90.9349 8.33151C88.9651 8.98465 87.6467 6.12991 89.7491 5.20791ZM51.3234 5.22949C53.4831 4.27392 54.4392 7.43858 52.6773 8.26407C51.686 8.72837 50.7818 8.16546 50.4747 7.51412C50.2668 7.0741 50.2185 6.51538 50.4419 6.00822C50.7365 5.34009 51.1892 5.28884 51.3234 5.22979V5.22949ZM30.3097 10.8739C30.2489 10.1369 29.7756 9.49121 29.7756 8.86086C29.7756 8.62196 30.5569 7.71464 30.763 7.43798C31.1355 6.93652 31.5127 6.59451 32.0454 6.31096C31.9571 6.69133 31.8977 7.20538 31.7981 7.5387C31.5095 8.50386 31.0693 10.3626 30.3097 10.8739V10.8739ZM79.5614 3.83719C80.2902 4.30539 80.5285 4.72982 81.5806 4.68846C82.5937 4.64919 82.7195 4.22146 83.3166 3.8273C83.5844 4.23765 83.5134 4.5257 83.9243 5.02687C84.1731 5.3302 84.4274 5.62994 84.8366 5.85745C85.9779 6.492 86.5809 6.24771 87.695 5.93688C87.44 8.12019 88.0225 8.10641 89.0492 9.24872C87.0517 9.9642 86.8859 11.6577 87.5772 13.4115C85.5493 13.6726 84.7734 14.8389 85.3292 16.7935C84.397 16.7494 83.7669 16.9835 83.3965 17.5306C83.2268 17.7815 83.0479 18.1289 83.0139 18.5188C82.9677 19.0539 83.2447 19.6806 82.4156 19.5802L81.4506 19.1917C81.0116 19.0173 80.5631 18.9127 80.2548 18.648C81.8827 17.5384 86.8561 12.3097 85.77 8.95467C85.122 6.9536 83.1209 6.05408 80.6439 6.24471C78.3047 6.42486 76.751 7.39962 75.027 8.25808L75.7698 4.22176C76.2261 4.7583 76.6475 5.52024 77.8463 5.41953C78.8451 5.3353 79.3798 4.68066 79.5617 3.83749L79.5614 3.83719ZM54.6381 5.93658C58.166 6.92153 58.3772 4.80745 59.0165 3.8273C59.6425 4.24094 59.7958 4.70105 60.8864 4.69145C61.8597 4.68246 62.0801 4.28171 62.7717 3.83719C63.0541 5.16774 64.7519 6.4872 66.5555 4.24304L67.2545 8.27756C65.5082 7.4137 63.9959 6.39698 61.56 6.23512C59.1379 6.07416 57.1732 7.01355 56.5524 8.93339C55.7883 11.2972 57.3739 13.2931 58.3414 14.636C59.3267 16.0043 60.8208 17.711 62.0655 18.7208L59.6836 19.6189C58.82 18.737 59.8512 16.6745 57.0056 16.7908C57.5281 14.7229 56.6731 13.6627 54.7574 13.4091C55.5626 11.4875 55.0031 9.87728 53.2833 9.24812C54.1651 8.26707 54.9011 8.20952 54.6375 5.93628L54.6381 5.93658ZM28.1963 7.61363C28.9457 6.98537 30.8412 3.6001 32.9126 4.49123C34.6419 5.23459 33.4082 9.52208 32.5792 10.7582L31.6839 10.6992C32.0111 9.69174 33.6808 6.29327 32.4805 5.30802C31.4689 5.14167 30.6938 6.20904 30.2555 6.65956C29.8549 7.0711 29.7452 7.29351 29.4437 7.72604C29.1565 8.13758 28.8953 8.21671 28.6492 8.57011L29.4816 11.1925L27.8828 10.9318L27.2924 8.82878C25.4371 8.78562 23.1453 7.46106 21.823 8.63395C21.6417 9.66626 22.5265 10.4561 23.0183 10.8251L24.9463 12.3298C24.0546 12.3765 23.9747 12.5468 23.4447 12.1427C22.9897 11.7959 22.7735 11.6014 22.3482 11.233C21.835 10.7891 20.8067 9.82542 21.0295 8.65463C21.4872 6.24921 25.8848 8.06354 26.9232 8.0027L26.4538 6.39039L27.6472 6.01151L28.1966 7.61393L28.1963 7.61363ZM69.5496 1.26002C70.8343 1.12873 71.4364 1.10565 72.7179 1.26931C73.1011 1.90476 72.7993 2.17513 73.4372 2.82197C73.9743 3.3675 74.1842 3.2506 74.7759 3.63217L72.2369 17.2848L70.0682 17.3022L67.5751 3.52336C68.4707 3.31264 69.0468 2.83336 69.3078 2.02765C69.4336 1.63949 69.3101 1.69884 69.5499 1.25972L69.5496 1.26002ZM77.3209 2.57828L77.9946 2.58997C78.9593 3.31294 78.6867 4.41419 77.2559 4.2895C76.8882 3.87646 76.7525 3.82011 76.8172 3.10402L77.3209 2.57828ZM64.3427 2.57138L65.0119 2.59596C65.3871 2.92808 65.5878 3.11811 65.5237 3.77694L65.0769 4.2895C64.0746 4.36953 63.7424 4.0638 63.8399 3.04647L64.3424 2.57168L64.3427 2.57138ZM85.7417 1.44256C88.1537 0.683015 89.2311 4.22416 86.9876 5.03526C84.476 5.94317 83.3195 2.206 85.7417 1.44256ZM55.5038 1.41139C57.9754 0.712689 58.9157 4.41719 56.5828 5.07902C54.0682 5.793 53.1136 2.0876 55.5038 1.41139V1.41139ZM80.9427 1.33765C82.472 0.516659 83.3354 2.85734 81.9826 3.49669C81.294 3.82191 80.6186 3.40556 80.38 2.95685C80.0117 2.26475 80.2723 1.69764 80.9427 1.33765V1.33765ZM60.3669 1.32806C61.8374 0.57271 62.8132 2.76022 61.4038 3.4823C60.7346 3.8252 60.0352 3.43014 59.8 2.97843C59.4767 2.35737 59.63 1.70663 60.3672 1.32806H60.3669ZM33.3808 23.2206C34.9613 23.2559 36.2505 24.332 37.2836 25.3367C37.475 25.5226 37.4673 25.4995 37.6534 25.6362C38.9366 26.5786 39.8089 26.97 41.3918 25.9044C41.3918 25.0921 41.3083 24.7669 41.2582 24.1596C42.0738 24.5532 42.6512 24.4288 43.2566 23.8866C43.91 23.3009 44.0797 22.5398 43.8822 21.6565C43.76 21.1107 43.6347 21.0396 43.3723 20.6928C42.831 19.9753 41.8609 19.1962 41.1577 18.49L35.2497 12.6187C35.3684 12.1068 35.3833 12.0852 35.3833 11.4108C34.7753 10.8811 34.5924 11.028 33.7813 11.0082C33.8666 9.97589 36.7492 4.31078 32.8789 3.32613C30.8182 2.80159 29.8779 4.49452 28.5741 5.37187C28.5031 5.06613 28.4706 5.06313 28.4405 4.70075C27.3881 4.72443 26.095 5.40814 25.1025 5.64014C25.1365 6.05198 25.2293 6.28548 25.3694 6.57982C24.2085 6.48271 23.3484 6.07116 22.0261 6.44015C19.7421 7.07859 19.3499 9.46094 20.7321 11.1068C20.9391 11.3529 20.9442 11.3664 21.147 11.6293C21.5147 12.105 22.3479 12.5402 22.6989 13.0216C21.7148 14.4984 19.9547 15.7282 18.3831 16.4674L16.5079 17.2665C15.9031 17.4691 14.1979 17.5671 14.0201 18.2556C14.1549 19.8823 15.6899 19.5604 16.2541 20.7075C16.8443 21.9077 16.1566 23.8872 16.1566 25.1002C16.8693 25.7207 17.2227 25.5471 18.5599 25.2342C18.2897 25.7998 18.2444 26.9302 18.1028 27.7332C17.8922 28.9279 19.4743 32.428 20.8219 32.3495C21.4169 32.3144 21.325 31.9637 21.8976 31.8102C22.177 33.0152 22.6941 34.0388 23.5789 34.8166C23.8602 35.0639 24.1825 35.2989 24.5201 35.4815C26.2781 36.4344 27.9061 36.39 27.9061 33.823C28.3874 34.177 28.9797 35.4569 29.2412 36.104C30.9458 40.3217 30.4177 43.3218 28.7071 47.1087C27.995 48.6854 28.1083 48.6572 26.5438 49.6311L24.2547 50.9538C23.9443 51.1256 23.9902 51.1313 23.6771 51.3126C23.038 51.6822 22.6568 52.0515 22.1314 52.5769C20.0668 54.6421 19.0228 57.1252 18.5695 60.0012C18.4567 60.7167 18.1496 60.5512 17.4166 60.7209C15.9201 61.068 14.2882 60.6774 13.803 59.0016C13.4488 57.7783 13.843 56.9957 14.287 56.0992C14.7108 55.2446 15.1462 54.6682 15.7027 53.8991C16.1494 53.2822 16.8124 52.1723 17.3578 51.8051C17.3766 52.6495 17.7849 54.9296 18.9601 54.6232C19.6088 54.1868 20.0776 53.4132 20.4721 52.6539C21.8531 49.9982 24.4092 48.3089 21.2299 46.1687C21.2299 45.1973 21.6775 44.8778 21.9498 44.0739C22.2107 43.3038 22.3181 42.6624 22.4892 41.7982C23.21 38.1624 22.1117 34.6599 19.6627 32.1765L18.1081 30.7869C17.979 30.6988 17.8242 30.6362 17.679 30.5474C16.1727 29.6281 14.3843 29.5226 12.6069 30.1209C11.227 30.5852 9.97421 31.2755 8.75957 32.0249C6.48208 33.4306 3.6326 33.4016 1.19735 34.4887C0.585701 34.7618 0.798629 34.7462 0.534407 35.2989C0.863342 35.9239 1.25311 36.0579 1.86625 36.3759C2.0926 36.4937 1.92768 36.4329 2.20026 36.5773C2.45285 36.7104 2.38933 36.6442 2.64699 36.7991C2.9297 36.9694 3.08865 37.1435 3.33856 37.3117C3.17364 37.5593 2.85902 37.993 2.64013 38.2205L1.90532 39.0922C1.25401 39.8166 0.846642 39.9545 0.401104 40.801C0.61433 41.2476 0.506375 41.3891 0.981139 41.6939C1.28711 41.8908 1.68792 41.9987 2.13674 42.0086C2.13674 43.3542 1.85223 44.4249 2.32044 45.5822C2.5277 46.0947 2.72452 46.455 3.01737 46.8944C3.34571 47.3875 3.53836 47.7157 3.84612 48.2091C5.00291 50.0642 4.56244 49.9638 4.41125 51.279C4.2189 52.9519 5.93753 53.1347 6.6461 52.3116C7.13667 51.7424 7.71551 50.3867 8.10021 49.6131L10.3613 45.7122C11.3311 44.1197 11.7501 42.9243 11.7501 40.801C12.4327 40.801 14.1534 41.0489 14.1534 39.8619C14.1534 39.1956 12.1831 38.0464 12.422 35.846C12.5803 34.3886 13.4097 33.662 14.7096 34.0682C17.9891 35.0933 19.7459 39.3961 18.1588 42.4112C16.6934 41.7044 15.0779 42.4966 14.1868 43.2502C12.4283 44.7375 14.2885 45.3172 15.3547 46.0348C15.3547 47.1396 15.1754 47.5146 14.7311 48.3602C13.4702 50.7599 8.36443 55.426 10.0622 60.4799C11.1614 63.7537 14.738 64.8228 18.0249 64.8228C18.0249 65.8444 17.4359 66.9222 16.9812 67.531C16.0784 68.7411 14.7761 69.2081 13.3002 69.4676C12.614 69.5887 12.2186 69.4434 11.6263 69.6643C9.70433 70.3809 10.896 74.2269 10.6011 75.8806L10.1153 79.1502C9.90115 80.4268 9.10192 82.8526 11.0872 83.0687C11.7438 83.1403 12.4512 82.84 12.8177 83.3424H0C0.156565 83.6397 0.258555 83.9107 0.452696 84.2293C0.646538 84.5473 0.800418 84.7089 0.98084 85.0404L4.00567 90.3206C3.80586 91.1824 3.15634 92.2507 2.71647 93.0513C2.11825 94.1399 0.648625 96.6317 0.400806 97.7018H34.5814C34.6306 98.2923 34.8546 98.8438 35.0076 99.4208C35.1295 99.8815 35.3451 100.59 35.4972 101.076C35.8372 102.16 36.1915 103.293 36.4509 104.412C36.9997 104.147 37.7234 104.045 38.3616 103.783C41.2549 102.593 45.1443 101.703 48.2556 100.978C50.9151 100.36 56.5073 99.1831 59.1486 99.0437C59.9049 99.0038 60.7289 98.8291 61.4205 98.7769C63.8608 98.595 71.1776 97.8675 73.6221 98.3195C74.4165 98.4664 75.2867 98.3105 76.1074 98.3714L80.7796 98.7754C81.4449 98.8102 82.4091 98.9945 83.0506 99.0425C85.2836 99.2092 87.582 99.6147 89.7802 100.062C92.6654 100.65 95.2748 101.119 98.084 101.915C99.9309 102.439 104.36 103.679 105.881 104.412C106.038 104.082 106.063 103.915 106.173 103.498L107.692 98.3147C107.939 97.3747 108.208 97.7018 109.753 97.7018H141.53C140.897 96.5004 140.377 95.2514 139.707 94.0323C139.215 93.1358 138.359 91.1105 137.792 90.4549C138.519 89.3624 139.105 88.1439 139.822 86.9932C140.194 86.3949 140.461 85.7897 140.835 85.1939C141.194 84.6211 141.641 84.0168 141.797 83.3424H127.244C127.628 81.6848 127.419 80.3983 127.12 78.9038C126.794 77.2693 126.842 75.9025 126.843 73.9482C126.844 73.622 126.878 73.0408 126.839 72.7441C126.816 72.5634 126.562 71.9159 126.468 71.775L125.219 70.4817C124.983 70.3051 124.751 70.1519 124.539 69.9574C123.861 69.3351 123.089 68.688 122.571 67.909C126.382 68.8019 128.437 68.2438 131.019 65.3959C131.518 64.8447 131.858 64.0006 132.184 63.3466C132.303 63.1074 132.412 62.9072 132.542 62.6323C133.441 60.7287 133.417 61.0572 134.642 59.3756C135.604 58.0559 137.826 55.1934 136.811 53.5963C136.096 52.4723 134.538 53.3305 133.519 53.4159C132.831 52.1096 132.756 48.5067 131.649 48.1821C130.78 47.9267 130.077 49.4075 129.644 47.7829C128.994 45.3493 128.463 43.1366 126.442 46.169C125.461 45.509 124.496 44.1014 124.12 43.0008C123.363 40.7851 123.604 37.1097 125.747 35.6739C126.188 35.3784 126.201 35.3493 126.722 35.1772C128.884 34.4627 130.05 35.4203 131.249 35.7012C129.984 37.6003 129.4 37.9657 130.295 40.5516C130.478 41.0815 130.609 41.2095 130.845 41.6097C131.106 42.0545 131.23 42.2442 131.538 42.657C131.807 43.0167 131.96 43.1908 132.236 43.5658C132.506 43.9321 132.774 44.1929 133.118 44.424C133.118 46.4121 133.587 49.8385 135.094 51.0267C136.608 52.2199 138.196 51.3129 139.749 50.5525C140.427 50.2204 140.594 50.2251 140.594 49.2552C138.336 48.6491 138.679 47.0344 139.432 45.1343C139.701 44.4545 140.188 43.4618 140.305 42.791C140.501 41.6687 139.948 40.8151 139.927 39.8616C140.998 39.8373 142.016 39.0433 141.859 38.0595C141.632 36.6442 140.681 36.9889 141.616 35.1173C142.076 34.1995 142.378 32.9996 140.974 32.77C140.229 32.6483 140.004 32.8452 139.273 32.6007C138.781 32.4358 138.353 32.2479 137.833 32.0356C134.392 30.6323 134.333 33.2448 130.089 31.4991C127.799 30.5567 125.795 31.0714 123.772 32.0776C121.582 33.1654 120.104 35.3016 119.622 37.7029C118.636 42.612 120.755 45.7122 122.974 49.5199L124.573 51.9388C123.917 52.8386 123.347 52.6584 122.998 54.2477C122.681 55.6891 122.72 56.464 123.371 57.4411H124.039C124.574 57.0808 125.411 56.6312 126.417 56.7943C127.167 56.916 128.137 57.3254 128.617 57.8053C129.063 58.2522 129.452 59.1877 129.383 60.1265C129.324 60.9343 128.893 61.7706 128.448 62.4096C128.043 62.992 127.525 63.5244 126.764 63.8034C125.285 64.3451 122.887 63.9887 122.278 62.2981C121.997 61.5197 122.015 60.4029 121.755 59.6025C120.801 56.6738 120.286 57.558 119.455 55.607C118.475 53.3086 119.443 50.2917 116.483 42.7583C116.283 42.2511 116.175 42.0992 115.984 41.6486C115.784 41.1763 115.707 40.9374 115.493 40.5321C117.018 40.5321 117.448 40.2674 117.756 38.7798C117.899 38.0883 117.901 37.7511 117.896 36.907C117.891 36.015 118.006 35.8472 118.164 35.164L119.285 34.8139C119.708 34.6905 120.07 34.5304 120.243 34.1665C120.629 33.3545 119.976 32.1037 120.61 31.5833C121.021 31.2464 122.134 31.1967 122.743 30.6407C123.568 29.888 123.057 29.2693 122.837 28.3195C123.135 27.7541 123.088 27.925 123.47 27.4802C123.694 27.2203 123.946 26.8202 124.064 26.4656C124.435 25.3526 123.375 24.7624 123.638 23.8911C123.89 23.0584 125.816 22.6804 125.557 21.1401C125.46 20.5637 125.242 20.4812 124.84 20.2675C123.619 20.5535 123.751 20.7417 122.567 20.1362C120.246 18.9477 120.085 17.0723 118.877 14.8527C118.493 14.1465 118.063 13.794 117.529 13.2566C116.302 12.0222 115.872 11.2867 115.503 9.3875C114.937 6.47372 113.799 7.28482 112.584 8.21701C112.172 8.53324 111.204 8.91451 110.687 9.12942C108.37 10.0919 104.956 9.18068 103.342 9.93243C100.16 11.4147 101.513 10.4219 98.5445 10.7471C97.0585 10.9093 96.4304 11.8975 96.9472 13.2766C97.1348 13.7772 97.3197 13.7889 97.3355 14.4969C97.0337 14.9498 96.6765 15.3434 96.8482 16.1922C97.2669 18.2622 97.8613 17.8492 99.605 17.8513C100.711 17.8528 100.874 17.8645 101.608 18.2544V18.9256C100.538 19.4414 98.2484 19.3059 98.0548 20.9797C97.9821 21.6083 99.9688 23.9849 100.54 24.1593C101.31 24.3943 102.279 23.2095 103.981 22.7865C104.559 22.643 105.375 22.6301 106.072 22.4718C106.748 22.3189 107.47 22.027 108.151 22.012C108.151 23.2742 107.699 24.2286 107.082 25.2321C106.706 25.8448 106.267 26.2521 105.723 26.6841C105.534 26.8345 105.51 26.9131 105.296 27.0602C105.145 27.1637 104.853 27.3246 104.704 27.4055C104.307 27.6211 103.816 27.7805 103.361 27.9334C100.8 28.7963 97.7468 28.3419 95.4332 28.823C92.728 29.385 91.1934 30.1677 91.1934 33.6869C89.3865 33.6869 89.1959 33.5478 88.3368 32.398L86.3563 30.0942C85.7235 29.424 83.5811 27.8579 83.2882 27.4076C82.4759 26.1583 82.5191 23.8812 82.8096 22.5767C83.018 21.6403 83.3264 21.2761 83.7165 20.5355C84.9991 20.564 84.7435 21.2339 86.1216 20.403C86.9003 19.9336 86.9208 19.3503 86.9208 18.1199C89.6582 18.1199 90.1875 16.0169 89.4578 14.6309C91.0049 14.6309 91.9384 14.2859 92.5351 12.893C92.7507 12.3897 92.7328 11.2924 92.4895 10.7786C92.1218 10.002 91.7207 9.93663 91.327 9.39679C92.1134 8.97865 92.3356 8.87434 92.8279 8.08692C93.2329 7.43828 93.2809 6.52227 92.9741 5.72886C92.2733 3.91782 90.8206 3.78144 89.1912 4.16301C89.4166 3.19005 89.408 2.63943 88.972 1.83342C88.8461 1.60052 88.5926 1.20337 88.4283 1.03791C87.599 0.204028 86.3044 0.0478633 85.297 0.383274C84.3899 0.685113 84.0776 1.48063 83.5835 1.61341C83.5009 0.615873 82.1795 -0.13348 81.2076 0.0199873C80.7152 0.09792 80.2142 0.400659 79.8641 0.692906C79.4913 1.00284 79.228 1.40869 79.1776 2.01536C78.5513 1.59423 78.1213 1.32266 77.2997 1.45964C76.5858 1.57864 76.0147 2.02646 75.8396 2.68619C74.3047 2.68619 74.2943 2.36696 73.9203 1.12633C73.6191 0.127295 72.4048 0.27117 71.1666 0.27117C69.8511 0.27117 68.9222 0.0580544 68.4176 0.997443C67.8796 1.99828 68.3994 2.64362 66.4935 2.68619C66.1287 1.31367 64.4975 1.11224 63.1555 2.01507C62.9635 -0.303433 59.2906 -0.721872 58.7493 1.61311C58.2492 1.47853 57.9731 0.727676 57.1354 0.416845C54.6545 -0.50396 52.5535 1.6251 53.1416 4.16241C51.5283 3.78444 50.1416 3.90493 49.3996 5.63504C48.6979 7.27133 49.6358 8.66782 51.0055 9.39619C50.4049 10.2199 49.6844 10.1608 49.6644 11.6727C49.6587 12.0867 49.6313 12.4616 49.7542 12.8013C50.2784 14.2505 51.3478 14.6303 52.8747 14.6303C52.4429 15.4504 52.4653 16.4638 53.0399 17.1481C53.7023 17.9352 54.0291 18.1193 55.4114 18.1193C55.4114 19.3494 55.4322 19.9327 56.2109 20.4024C57.3534 21.0912 57.4855 20.6653 58.616 20.4006C59.2023 21.2806 59.6488 22.2167 59.6893 23.3479C59.7391 24.7352 59.5489 25.8523 59.2029 26.8954C58.8692 27.9025 57.869 28.1864 57.1798 28.8878C57.0122 29.0586 56.8893 29.2091 56.7128 29.3578C56.4366 29.591 56.3856 29.5439 56.1077 29.823C54.4216 31.5159 52.8595 33.6324 51.6711 35.6973C50.93 36.9853 50.1991 38.2954 49.6519 39.7066C49.5412 39.9917 49.4765 40.1035 49.3525 40.4794L49.0027 41.2017C49.0027 40.1478 49.1467 38.8092 48.7885 37.5251C48.3373 35.9077 47.0168 33.4046 45.6307 32.2443L41.9513 29.6353C41.6602 29.478 41.5335 29.4759 41.2296 29.2864C38.2605 27.4385 36.5082 27.5416 33.7801 23.8908C33.529 23.5551 33.4944 23.6462 33.3808 23.2188V23.2206Z" fill="white"/>
<path fill-rule="evenodd" clip-rule="evenodd" d="M75.983 50.0536C75.2383 47.7516 72.7759 39.7147 71.4453 38.8169C71.3931 39.5495 71.8798 42.6776 71.6552 46.1117C71.5055 48.4009 71.2103 50.7254 70.797 52.9129C70.2116 56.0122 69.477 58.9721 68.3393 61.8512C68.0292 62.6365 67.3311 63.9682 67.1641 64.5899C68.5937 64.2107 70.0955 62.052 70.791 60.6894C71.6549 58.9958 72.1449 56.9183 72.7995 55.0593C73.3446 55.8947 74.7185 63.1796 75.3057 64.0231C75.6296 63.6418 75.8008 62.3742 75.9487 61.704C76.3197 60.0215 77.1842 55.5008 77.647 54.4203C78.4773 57.4489 79.2875 60.6552 81.2459 63.1496L82.7663 64.7119C83.2291 65.0623 82.8969 65.0104 83.4349 65.1156L82.0049 59.1787C81.1797 55.2521 80.7697 49.6775 80.7303 45.6343C80.7121 43.7627 80.7267 41.1414 80.9635 39.2519C80.9701 39.2018 81.0106 38.9228 81.0106 38.912L80.9584 38.5825C80.9528 38.5586 80.9286 38.5178 80.9134 38.4863C79.4095 39.3676 76.3814 49.456 75.9827 50.0533L75.983 50.0536Z" fill="white"/>
<path fill-rule="evenodd" clip-rule="evenodd" d="M53.4348 54.8895C52.9353 47.6822 55.0563 41.1709 59.4162 36.3691L60.652 35.1953C63.0598 33.217 65.3552 31.6745 69.0284 31.1392C74.3862 30.3577 80.0658 32.8912 83.019 36.5348C84.6911 38.5976 85.745 39.8137 86.8944 42.571C90.3516 50.8648 89.3982 59.0373 85.0433 66.2871C83.9569 68.0961 81.892 70.1511 80.2918 71.3087C75.6065 74.6982 70.3772 75.3324 64.9878 73.0433C60.7838 71.2574 57.1948 67.0985 55.3995 62.8119C54.4166 60.4656 53.6317 57.731 53.4345 54.8898L53.4348 54.8895ZM69.1346 30.1245C64.641 30.7375 61.184 33.0362 58.3364 36.0888C53.8732 40.873 52.0174 48.4627 52.4516 54.8016C52.743 59.0595 54.1175 63.0427 56.2754 66.5029L57.8834 68.7771C58.1124 69.0489 58.3077 69.1607 58.5484 69.4509C59.9563 71.1477 62.2821 72.8835 64.423 73.8769C77.519 79.9538 90.852 67.3995 89.8751 50.7351C89.5124 44.5472 86.7769 38.7343 82.5926 34.6824C79.2719 31.4662 74.0465 29.4543 69.1346 30.1248V30.1245Z" fill="white"/>
<path fill-rule="evenodd" clip-rule="evenodd" d="M63.1566 53.3908C62.3359 52.6423 62.7608 50.4737 62.7886 49.2555L62.9141 39.9938C62.969 37.4877 64.1553 37.8084 64.9504 38.8647C66.3353 40.7039 66.1629 44.2789 65.9855 46.8393C65.8176 49.257 66.0189 53.5925 63.1569 53.3911L63.1566 53.3908ZM58.4507 64.7965C58.51 64.8376 58.3043 65.3292 59.2371 64.6458C59.954 64.1206 60.3861 63.5523 60.9014 62.69C61.5647 61.58 61.9607 60.5597 62.3326 59.3053C63.5511 55.197 62.0699 55.2201 64.4493 54.1725C67.0391 53.0326 68.8642 50.3631 69.0977 46.8351C69.3094 43.6393 68.8594 41.0486 67.2499 38.9738C66.1265 37.5261 64.2531 36.3844 62.4477 37.8048C61.8006 38.3144 61.8909 38.7442 61.4737 39.2427C61.0902 39.701 60.2904 39.7561 59.8812 40.0613C59.4062 40.4159 59.561 41.3646 59.6093 42.0944C59.9105 46.6589 59.6746 56.2617 59.1452 60.7998C59.0734 61.4164 58.4468 64.7687 58.4513 64.7962L58.4507 64.7965Z" fill="white"/>
<path fill-rule="evenodd" clip-rule="evenodd" d="M72.2129 88.7066L73.1147 88.6935L73.2319 85.0255C73.2429 85.1904 73.9264 88.4776 74.0419 88.7732L74.8721 88.7888C75.2658 87.8668 75.3141 86.3048 75.8544 85.4664L75.8016 88.8232L76.7085 88.8077L76.8284 84.1653L75.4178 84.1242C75.2565 85.1307 74.9619 86.595 74.5068 87.4229C74.2673 86.9969 74.0738 85.7161 73.984 85.2042C73.7278 83.7459 73.8984 84.0798 72.3596 84.0301L72.2129 88.7069V88.7066Z" fill="white"/>
<path fill-rule="evenodd" clip-rule="evenodd" d="M67.0869 93.3633C66.8361 93.1628 66.9888 93.3546 66.7395 93.0198L65.1867 90.4564L64.1504 90.5008L64.3323 95.1111L65.1989 95.1396L65.2845 92.1943C65.9314 92.9395 64.8184 91.576 65.416 92.3499C65.4951 92.4527 65.592 92.6113 65.6785 92.7507C65.8523 93.03 65.954 93.2189 66.1377 93.4991C66.4977 94.0479 66.7607 94.5575 67.1615 95.0182L68.0633 94.9939L67.8656 90.4238L67.0112 90.3398L67.0866 93.3633H67.0869Z" fill="white"/>
<path fill-rule="evenodd" clip-rule="evenodd" d="M88.7787 96.415L89.4562 96.5271L90.0595 93.61C90.3112 93.8579 90.0843 93.4089 90.3575 93.9925L90.7583 95.186C90.9685 95.784 91.174 96.3176 91.3127 96.906L92.3111 97.0273L93.1494 92.4587L92.2508 92.322L91.6929 95.3908L90.4705 92.01L89.4801 91.793C89.3811 92.3796 88.5362 95.8533 88.779 96.4153L88.7787 96.415Z" fill="white"/>
<path fill-rule="evenodd" clip-rule="evenodd" d="M93.6757 87.1766C94.6211 87.179 95.7465 87.4818 95.0574 88.5444C94.4099 88.6466 94.1159 88.4937 93.4491 88.3735L93.676 87.1769L93.6757 87.1766ZM91.9434 90.7244L92.8994 90.8781L93.2442 89.1633C93.5212 89.1789 93.7184 89.2137 93.9739 89.2688C94.9047 89.4706 94.7078 89.4592 94.5853 91.2987L95.6311 91.4803C95.5247 90.537 96.017 89.6429 95.397 89.1747C95.8202 88.9442 96.1223 88.7722 96.2422 88.2752C96.7557 86.1497 92.8902 86.2465 92.889 86.2468L91.9434 90.7241V90.7244Z" fill="white"/>
<path fill-rule="evenodd" clip-rule="evenodd" d="M81.9015 88.4298C79.3914 88.6516 79.9822 85.6155 81.1106 85.2795C82.0414 85.0029 82.5823 85.6347 82.6623 86.4269C82.7699 87.4889 82.4386 87.9196 81.9015 88.4298V88.4298ZM80.6618 84.5167C78.121 85.4312 79.0216 90.4027 82.3256 89.1813C83.2894 88.8252 83.89 87.3384 83.5945 86.025C83.3288 84.8455 82.0867 84.0038 80.6618 84.5167V84.5167Z" fill="white"/>
<path fill-rule="evenodd" clip-rule="evenodd" d="M86.1731 94.2118C85.5385 95.9344 83.1561 95.1839 83.9317 92.8096C84.5088 91.0453 87.0007 91.9667 86.1731 94.2118ZM84.484 91.1355C81.7309 91.9161 82.4532 96.9164 85.7914 95.8897C88.1154 95.1752 87.7373 90.2123 84.484 91.1355Z" fill="white"/>
<path fill-rule="evenodd" clip-rule="evenodd" d="M88.7666 87.3294C86.5532 87.919 87.2272 86.4065 87.277 86.1091C87.8871 85.9826 88.5301 86.209 88.8918 86.4475C88.9547 86.8525 88.9014 87.0623 88.7666 87.3297V87.3294ZM85.7728 89.7189L86.7288 89.7918L86.9785 88.094C87.4052 88.0587 88.1442 88.094 88.4036 88.4606C88.972 89.5559 87.4574 90.0238 89.5002 90.248C89.2756 89.1827 89.864 88.683 89.1241 87.9735C90.0027 87.4385 90.2979 86.3525 89.4972 85.715C89.0693 85.3745 87.0473 85.0588 86.4616 85.1539L85.7725 89.7192L85.7728 89.7189Z" fill="white"/>
<path fill-rule="evenodd" clip-rule="evenodd" d="M44.8654 93.4133L45.5829 96.3972C45.2996 96.2579 45.4467 96.3852 45.192 96.155L43.1859 93.9124C42.6702 93.9732 42.5459 93.9774 42.1475 94.2106L43.238 98.6534L44.0799 98.4795L43.3633 95.4015L45.9325 97.9541L46.8047 97.7787L45.7493 93.291L44.8657 93.413L44.8654 93.4133Z" fill="white"/>
<path fill-rule="evenodd" clip-rule="evenodd" d="M59.4434 91.7131C60.6727 91.6022 61.2411 91.3657 61.1674 92.6429C60.7648 92.8644 60.1362 92.9825 59.4759 92.9264L59.4434 91.7131V91.7131ZM58.3594 91.003L58.7987 95.6325L59.6745 95.5821L59.5934 93.7531L61.0335 93.6563C61.3329 94.1829 61.3076 94.6742 61.4934 95.3483L62.5678 95.2785C62.0528 94.6973 62.5905 94.0849 61.6821 93.1401C62.3281 92.4729 62.3967 91.4139 61.4704 90.934C60.8447 90.61 59.1601 90.9364 58.3594 91.003V91.003Z" fill="white"/>
<path fill-rule="evenodd" clip-rule="evenodd" d="M46.1433 86.7878L46.5337 88.5973L44.7927 88.9432L44.3979 87.2862L43.4814 87.4412L44.4897 91.9688L45.433 91.8096L44.9788 89.7474L46.7404 89.3506L47.185 91.3337L48.0725 91.1571C48.0573 90.7348 47.352 87.2062 46.9998 86.6289L46.143 86.7878H46.1433Z" fill="white"/>
<path fill-rule="evenodd" clip-rule="evenodd" d="M102.159 90.6419C102.915 91.4674 103.752 91.6943 104.067 92.018C104.848 92.8208 102.986 93.5701 102.419 92.0663C102.272 91.6739 102.397 91.7911 101.529 91.5657C101.187 93.6399 103.997 94.2736 104.895 93.2209C106.507 91.3313 102.354 90.7094 103.169 89.749C103.501 89.3563 104.18 89.6951 104.588 89.8584L104.775 90.6006L105.587 90.8338C106.043 88.4331 101.803 87.6739 102.159 90.6419H102.159Z" fill="white"/>
<path fill-rule="evenodd" clip-rule="evenodd" d="M52.9565 91.7623L53.6189 96.2947C54.1745 96.417 56.5056 96.0555 57.0314 95.8229L56.9873 95.1179L54.4453 95.4189L54.2717 94.2109L56.4302 93.9046L56.3544 93.1091L54.1446 93.4148L54.009 92.4397L56.3392 92.1019L56.2832 91.334L52.9568 91.7623H52.9565Z" fill="white"/>
<path fill-rule="evenodd" clip-rule="evenodd" d="M96.8114 94.5238L96.905 96.3156L95.8093 96.0762L96.8114 94.5238V94.5238ZM93.8587 97.4268L94.7954 97.6144C95.0384 97.3255 95.1721 97.0659 95.3516 96.8018L97.0195 97.1963L97.1033 98.1992L98.0973 98.4195L97.593 93.4792L96.5421 93.2676C96.0282 93.9222 95.6098 94.6404 95.1947 95.2818C94.7805 95.9218 94.1778 96.7425 93.8584 97.4268H93.8587Z" fill="white"/>
<path fill-rule="evenodd" clip-rule="evenodd" d="M71.8703 91.5381L72.3603 93.1776L71.2199 93.1806L71.8703 91.5378V91.5381ZM69.6167 94.9317L70.5758 94.9641L70.9199 94.0388L72.6356 94.0193L72.9573 94.9545L73.9453 94.9845L72.4033 90.3253L71.2387 90.2773L69.617 94.9317H69.6167Z" fill="white"/>
<path fill-rule="evenodd" clip-rule="evenodd" d="M71.8328 7.02568C71.4236 7.31313 71.1895 7.62306 70.5722 7.31193C70.1619 7.10571 70.0306 6.61443 70.2176 6.16092C70.5361 5.39059 72.088 5.32045 71.8328 7.02568ZM70.4959 4.65352C67.8876 5.45533 69.1309 9.22877 71.6655 8.41857C73.9972 7.67282 72.9741 3.89188 70.4959 4.65352Z" fill="white"/>
<path fill-rule="evenodd" clip-rule="evenodd" d="M38.795 89.5843C39.3908 89.393 39.5354 89.2725 40.1695 89.423C40.3952 89.747 40.4361 90.0468 40.363 90.5206L39.0744 90.9043L38.795 89.584V89.5843ZM37.5776 89.1475L38.8576 93.5624L39.7603 93.3139L39.3464 91.6812C39.9458 91.5473 40.8121 91.2841 41.1154 90.9805C41.9248 90.1682 41.3298 87.1225 37.5776 89.1478V89.1475Z" fill="white"/>
<path fill-rule="evenodd" clip-rule="evenodd" d="M63.8365 86.4443L63.7637 85.0843C64.8439 85.0439 65.5092 84.8056 65.2685 86.1535C64.7952 86.4808 64.6014 86.4592 63.8365 86.4443ZM63.0089 89.0094L63.9549 88.9627L63.9134 87.2751C65.3621 87.2053 66.6695 87.098 66.2816 85.2843C65.981 83.8794 64.1296 84.2756 62.7969 84.3335L63.0092 89.01L63.0089 89.0094Z" fill="white"/>
<path fill-rule="evenodd" clip-rule="evenodd" d="M74.8721 91.1406L76.2257 91.2224L76.0942 95.0768L77.0389 95.131L77.2417 91.3318L78.6499 91.3294L78.6597 90.5873L74.9252 90.334L74.8721 91.1406Z" fill="white"/>
<path fill-rule="evenodd" clip-rule="evenodd" d="M47.4771 92.8119L47.5799 93.5352L49.0066 93.3689L49.734 97.0895L50.6695 96.9837L49.9394 93.1456L51.2865 92.8884L51.1281 92.0977L47.4771 92.8119Z" fill="white"/>
<path fill-rule="evenodd" clip-rule="evenodd" d="M54.0083 89.9955L57.2341 89.6043L57.1796 88.8391L54.8997 89.0792L54.3283 85.3066L53.4399 85.4143C53.3209 86.1966 53.8774 89.0009 54.008 89.9955H54.0083Z" fill="white"/>
<path fill-rule="evenodd" clip-rule="evenodd" d="M101.81 94.5915L100.879 94.4219L99.6255 98.8796L102.796 99.7351L102.914 98.9594L100.753 98.3623L101.81 94.5915Z" fill="white"/>
<path fill-rule="evenodd" clip-rule="evenodd" d="M79.8931 95.3132L80.8611 95.3903L81.2529 90.7386L80.2709 90.6855L79.8931 95.3132Z" fill="white"/>
<path fill-rule="evenodd" clip-rule="evenodd" d="M59.0311 84.6868L59.4844 89.2938L60.4506 89.2303L60.0289 84.9515C59.9236 84.4152 59.6433 84.5987 59.0308 84.6868H59.0311Z" fill="white"/>
<path fill-rule="evenodd" clip-rule="evenodd" d="M104.74 12.661C104.757 13.3097 105.441 13.89 106.067 14.0177C106.697 14.146 107.91 13.756 108.305 13.4212C107.883 12.5432 105.529 11.739 104.74 12.661Z" fill="white"/>
<path fill-rule="evenodd" clip-rule="evenodd" d="M40.4619 99.4794L41.4251 99.218L40.0563 94.7695L39.1724 94.9605L40.4619 99.4794Z" fill="white"/>
<path fill-rule="evenodd" clip-rule="evenodd" d="M97.9766 92.106L98.9034 92.2964L100.089 87.7637L99.2085 87.5781L97.9766 92.106Z" fill="white"/>
<path fill-rule="evenodd" clip-rule="evenodd" d="M49.7544 86.1583L50.565 90.6013L51.4536 90.5126L50.6929 85.9355L50.0669 85.9997C49.7723 86.0992 49.8442 86.1049 49.7544 86.1583Z" fill="white"/>
<path fill-rule="evenodd" clip-rule="evenodd" d="M31.9585 16.0076C32.1619 16.5789 33.6822 17.2521 34.2768 17.2599C34.644 16.8873 34.8745 16.3502 34.7105 15.7228C33.9029 15.5591 32.5248 15.6329 31.9585 16.0076Z" fill="white"/>
</svg>
