<svg width="175" height="75" viewBox="0 0 175 75" fill="none" xmlns="http://www.w3.org/2000/svg">
<path fill-rule="evenodd" clip-rule="evenodd" d="M73.6942 74.911C74.102 73.5994 71.4803 71.1907 70.5433 70.3178C65.6252 65.7484 62.3189 63.4018 54.682 61.5559C49.8464 60.3873 46.2634 59.5383 42.8067 57.0485C40.1898 55.1597 38.6314 53.3615 36.7719 50.8002C36.3398 50.2088 35.5581 48.7063 34.927 48.3677C33.7861 50.08 35.0775 53.2995 34.6891 55.3887C21.7068 56.4666 8.89933 43.5217 12.5551 27.9725C13.3028 24.8006 14.7836 21.8386 16.7159 19.5015C17.517 18.538 18.0025 18.0992 18.8666 17.2406C25.45 10.7109 36.267 9.54713 44.3845 13.8303C51.065 17.3504 57.0949 24.7672 56.1288 35.79C54.4587 36.1477 49.7736 35.2558 48.5695 36.0571C48.7977 36.453 51.6185 36.8775 53.8032 37.8696C55.4151 38.5993 57.1969 39.8204 58.197 40.7791C62.1393 44.5472 62.1975 49.2501 62.8044 50.5331C63.6977 50.0418 65.3678 46.2642 65.8533 45.1434C72.1503 30.6483 65.6106 12.4853 51.332 4.52941C43.1756 -0.016108 32.9413 -1.50902 22.8477 1.75822C14.3758 4.50079 7.70015 10.6871 4.09774 17.3837C-4.86459 34.0443 1.28184 54.6112 18.5559 63.168C37.9808 72.7885 51.6913 57.6113 70.9365 73.5278C72.5193 74.8347 72.4804 75.202 73.6845 74.9015L73.6942 74.911Z" fill="white"/>
<path fill-rule="evenodd" clip-rule="evenodd" d="M134.077 30.5283C133.669 28.9352 133.31 27.4041 132.907 25.8111L131.815 21.7139C131.295 20.76 126.421 21.1654 125.251 21.3228C124.891 22.2815 126.833 28.7921 127.188 30.266C127.911 33.2422 128.649 36.1613 129.402 39.0994C132.655 51.7487 131.183 49.9839 135.228 49.9839C136.65 49.9839 139.393 50.2796 140.51 49.8312C141.039 49.4544 144.04 33.8671 144.525 33.0276C145.079 33.2613 144.855 32.9799 145.059 33.8575C145.137 34.1914 145.176 34.6159 145.244 34.9689L146.7 41.3555C147.05 42.815 147.399 44.1362 147.739 45.653C148.016 46.8931 148.108 48.9584 148.754 49.8074C149.545 50.1937 155.852 50.1365 157.041 49.8789C157.648 48.6627 158.498 44.4653 158.92 42.7769C159.765 39.4095 164.256 22.4293 164.105 21.4182C163.275 21.0843 158.367 21.07 157.735 21.4372C157.289 21.8188 157.415 21.671 157.216 22.458L153.934 35.4363C153.75 36.1708 153.536 37.0198 153.366 37.7067C153.259 38.1407 153.196 38.5223 153.084 38.9325L152.541 39.9818C152.036 37.8593 147.894 22.1193 147.326 21.3419C146.273 21.1749 142.831 21.0891 142.015 21.3896C141.724 21.5756 141.602 22.0668 141.496 22.4246L140.505 26.0495C140.063 27.614 139.66 29.0831 139.233 30.6618C138.388 33.7812 137.378 36.9674 136.699 39.9866C136 39.2425 135.534 36.333 135.276 35.2837C134.868 33.6477 134.49 32.15 134.077 30.5331V30.5283Z" fill="white"/>
<path fill-rule="evenodd" clip-rule="evenodd" d="M95.6633 26.8208C100.577 25.967 102.795 30.1882 103.038 34.5382C103.3 39.2077 101.912 43.758 97.8383 44.4591C92.9008 45.3081 90.5752 40.9725 90.3519 36.6464C90.1188 32.077 91.4685 27.5553 95.6633 26.8256V26.8208ZM83.5937 36.2553C83.5937 44.0442 88.1866 50.0826 95.9157 50.3926C100.814 50.5882 103.004 51.4706 105.155 54.3896C107.519 57.5949 107.199 57.509 108.646 56.3643C109.398 55.7729 111.83 54.1035 112.151 53.3737C111.753 52.4865 110.005 50.2877 109.296 49.5532C107.179 47.3687 106.636 47.8647 105.164 46.906C105.189 46.8631 105.237 46.8154 105.257 46.7915L105.995 46.1476C112.127 41.3111 112.097 20.8301 97.0809 20.8301C88.439 20.8301 83.5889 26.692 83.5889 34.9245V36.2553H83.5937Z" fill="white"/>
<path fill-rule="evenodd" clip-rule="evenodd" d="M114.534 49.7436C115.005 50.1109 115.088 50.006 115.85 50.006C116.733 50.0107 120.389 50.2683 120.86 49.715C121.297 49.1999 121.03 29.4057 121.03 25.9906C121.03 20.5388 121.724 21.2733 117.797 21.2733C113.214 21.2733 114.345 20.9919 114.345 25.7998C114.345 29.4438 114.068 48.9996 114.529 49.7436H114.534Z" fill="white"/>
<path fill-rule="evenodd" clip-rule="evenodd" d="M168.41 49.6763C168.925 50.2439 169.983 49.9959 171.435 49.9959C172.421 49.9959 174.018 50.2153 174.732 49.786C175.207 49.3043 174.906 29.4242 174.906 25.9948C174.906 20.4428 175.78 21.2775 171.629 21.2775C167.517 21.2775 168.235 20.4428 168.235 25.804C168.235 29.2191 168.032 49.1659 168.41 49.6811V49.6763Z" fill="white"/>
<path fill-rule="evenodd" clip-rule="evenodd" d="M49.3291 55.475C50.2515 59.2764 56.1455 59.0141 55.223 55.5322C54.3103 52.1076 48.2901 51.2061 49.3291 55.475Z" fill="white"/>
<path fill-rule="evenodd" clip-rule="evenodd" d="M57.2858 48.8185C57.6256 51.0603 61.0193 54.6709 60.762 50.7168C60.5095 46.8009 56.8197 45.723 57.2858 48.8185Z" fill="white"/>
</svg>
