<svg width="142" height="105" viewBox="0 0 142 105" fill="none" xmlns="http://www.w3.org/2000/svg">
<path fill-rule="evenodd" clip-rule="evenodd" d="M105.043 102.893C103.844 102.547 102.571 102.109 101.34 101.697C100.138 101.294 98.7386 100.97 97.472 100.615C89.7397 98.4458 79.1466 97.1362 71.1406 97.143C62.5036 97.1501 49.4329 98.8674 41.0706 101.698C40.1784 102 38.0765 102.784 37.2385 102.898L32.9884 88.4193C34.0614 88.2586 36.0884 87.4312 37.2046 87.0579C47.105 83.7453 60.8364 81.7874 71.1408 81.7843C83.2452 81.781 93.7587 83.6887 105.076 87.0577C106.54 87.4936 107.85 88.0151 109.301 88.4641C109.232 89.3859 105.285 102.591 105.043 102.894L105.043 102.893ZM136.476 90.42L139.666 96.6083L108.116 96.6257L110.635 87.9037C110.155 87.4709 107.929 86.8204 107.065 86.5341C106.878 86.4724 106.678 86.4091 106.462 86.3387C105.662 86.0801 105.979 86.1449 105.797 85.9544L107.634 84.5784C108.083 84.3723 117.329 84.4091 117.589 84.4712C118.508 84.9342 118.142 85.3402 119.725 85.0188L119.852 85.2012C120.758 86.7174 121.653 87.1159 123.329 86.1281C124.201 86.3981 124.601 86.8599 125.77 86.3297C126.235 86.1193 126.404 85.9666 126.612 85.5581C126.74 85.3093 126.737 85.2409 126.833 84.9861C127.081 84.3297 126.842 84.7092 127.2 84.4712H139.813L136.477 90.4201L136.476 90.42ZM1.97206 84.5143L12.467 84.47C12.5967 86.2055 14.0798 86.1965 15.7505 86.1439C16.5024 86.1208 17.2829 86.0971 17.9364 85.7998C19.0548 85.291 18.6402 84.6262 19.2199 84.4712L33.2343 84.4707C34.4262 84.4673 34.4108 84.35 35.1924 84.9876C35.6358 85.3495 36.1382 85.7023 36.577 85.9876C36.4709 86.0859 36.5232 86.0859 36.3328 86.1824L31.6923 87.7432L34.2422 96.6221L2.18524 96.625L5.28239 90.4615L1.97189 84.5146L1.97206 84.5143ZM84.3012 81.503C85.8986 79.881 87.1654 80.5753 89.5571 80.7487C92.7033 80.9769 92.7811 79.8542 92.5755 77.0144C93.0194 77.1669 93.4536 77.2869 94.0559 77.323C94.4516 78.9535 94.5275 78.6386 95.8288 79.1691C95.7929 79.9737 95.5343 80.8453 95.2118 81.4969C94.8226 82.2835 94.4037 82.4992 93.6955 82.952L84.3012 81.503ZM82.4859 81.3169C81.8166 81.1602 80.7429 81.0784 79.9459 81.0526C79.1166 81.0254 78.9277 80.914 77.2803 80.914V80.6456C79.0292 80.4996 83.6913 77.6157 85.0572 76.2502C85.7039 75.6034 86.5716 74.9602 86.9713 74.416C87.3594 73.8866 88.4966 72.807 88.6256 72.3208C88.8546 72.475 89.0019 72.5932 89.1852 72.8318C90.7714 74.8953 91.562 76.0142 91.562 79.0342C91.562 80.7889 87.0182 78.198 84.2727 79.8919C83.8989 80.1228 83.6925 80.2988 83.3392 80.5645C82.9643 80.8459 82.859 81.0656 82.4859 81.3169V81.3169ZM50.7194 79.0342C50.7194 77.3327 50.7557 76.24 51.6797 74.7638C52.2135 73.9109 52.7227 72.9937 53.5221 72.455C53.7326 72.7712 53.8577 72.815 54.0814 73.1009C55.2913 74.6467 56.3713 75.586 57.826 76.8527C58.0918 77.0844 58.295 77.238 58.5706 77.4463C59.9466 78.4888 61.773 79.4655 63.3565 80.1513C63.6477 80.2775 63.9854 80.4102 64.2164 80.4949L65.1344 80.9138C64.6585 80.9138 64.1297 80.8909 63.661 80.909C63.0697 80.9313 63.0458 81.0482 62.3314 81.0482C61.7229 81.0482 60.176 81.1965 59.6621 81.3166C59.046 80.9021 58.6807 80.3228 57.9746 79.9258C57.177 79.4776 56.7662 79.3052 55.6136 79.2302C54.7243 79.172 50.7194 80.3509 50.7194 79.0341V79.0342ZM46.6481 75.4092C47.1882 73.777 47.5047 72.8406 48.3792 71.5752C49.0698 70.5758 50.1905 69.2865 50.9864 68.6692L51.3182 69.0335C51.3827 69.1309 51.4455 69.258 51.5104 69.3742L52.8003 71.4188C51.436 72.9801 49.01 75.7271 49.5785 79.2667C49.8524 80.9717 51.7961 80.904 53.5216 80.6495C54.9762 80.4352 55.764 80.1043 57.0588 80.8493C57.1674 80.9119 57.3753 81.0297 57.4662 81.0943C58.0881 81.5365 57.5917 81.0884 57.8695 81.4896L48.5838 82.9986C47.7489 82.5743 47.3615 82.2572 47.0141 81.4749C48.5699 81.1364 48.6902 80.0365 48.2642 78.4241C47.8761 76.9547 47.2996 76.211 46.6483 75.4092H46.6481ZM91.1615 68.6333C91.4025 68.7642 92.6245 69.9636 92.7903 70.3211C90.9493 70.7748 90.7925 71.4719 90.2271 72.2675C89.8239 71.9321 89.6395 71.8521 89.4107 71.381L91.1613 68.6334L91.1615 68.6333ZM107.312 67.7552C107.312 66.893 107.448 66.4128 108.246 65.8752C108.449 66.7535 109.796 69.0309 110.349 69.6682C110.83 70.2232 111.162 70.7374 111.769 71.1937C116.84 75.0016 118.476 73.8007 120.476 74.5194C121.634 74.9358 121.72 76.6471 121.456 77.6878C121.17 78.82 120.205 79.0904 119.422 79.8038C118.612 80.5421 117.322 81.8766 117.322 83.331H107.579C107.194 83.331 104.619 85.6137 104.509 85.6137L95.1656 83.331C95.1894 83.3101 95.2269 83.246 95.2375 83.2689C95.3758 83.5657 96.311 81.7774 96.5009 81.3174C96.7992 80.5955 97.0343 79.5334 97.0343 78.4976C97.093 78.3021 99.1779 75.4903 99.6751 75.1116C101.715 73.5574 106.4 73.7005 107.231 73.4484C108.83 72.9624 109.667 71.3194 108.278 69.8713C107.906 69.484 107.956 69.4012 107.708 68.9673C107.476 68.5617 107.312 68.441 107.312 67.7552H107.312ZM41.5094 78.8999C41.8154 78.8999 41.6646 78.8544 42.0436 78.766C42.0436 80.7789 43.8052 81.1831 45.5138 81.1831C46.0911 82.0499 46.0789 82.4608 46.8979 83.1473C46.9182 83.1642 46.9534 83.1919 46.9718 83.2073C46.99 83.2223 47.029 83.2567 47.044 83.2689C47.0586 83.2813 47.092 83.3101 47.1158 83.331C45.6239 83.4561 41.8569 84.595 40.2285 84.9961C39.7671 85.11 39.4298 85.2253 39.0819 85.3193C37.5085 85.7459 38.1829 85.866 35.216 83.6203C35.0178 83.4701 35.0274 83.3309 34.7028 83.3309H19.2199C19.2199 82.4937 19.0089 81.6008 18.6628 81.0716C16.9439 78.444 14.378 79.4073 15.0956 74.7505C15.3906 72.835 15.7352 73.5289 19.0863 73.5289C20.4455 73.5289 21.9836 72.4341 22.2896 71.1119C23.8904 71.1119 25.9483 69.9334 26.6956 68.6965C27.9894 66.5542 26.5324 67.1171 28.854 67.7305C30.0196 68.0387 30.8514 68.1663 32.0332 67.8891C31.6419 68.4768 29.5012 70.2931 29.6508 71.7587C29.816 73.3786 31.8763 74.1864 32.9665 74.738C35.0542 75.7941 35.4934 75.2468 37.6731 77.1194C38.5487 77.8719 40.328 78.8995 41.5094 78.8995V78.8999ZM30.6983 60.766C31.625 60.7413 32.6818 60.9488 33.7683 60.9162C34.7623 60.8872 35.7673 60.8001 36.7315 60.6782C39.9516 60.2718 39.7425 59.7241 41.1059 61.9859C42.3856 64.1096 42.4016 64.225 40.9854 66.0241C40.1304 67.1108 38.8494 67.864 37.3985 68.7227C32.5648 71.5836 38.3642 73.4383 41.1369 74.0476C43.7048 74.6117 43.7483 75.5614 45.266 76.1998C46.5289 76.7312 46.2786 76.4472 46.8767 77.8009C47.1826 78.4939 47.5879 79.4825 47.2482 80.2428C46.7863 80.4579 44.6553 80.0013 44.0502 79.8359C43.0663 79.5672 43.242 79.1829 42.7366 77.2585C41.5848 77.5634 41.7975 78.1228 40.2117 77.3861C38.2536 76.4762 37.7299 75.3707 36.4502 74.8622C35.714 74.5702 34.9751 74.3221 34.2106 74.0254C32.9914 73.5527 30.3849 72.6584 30.8951 71.1779C31.4017 69.7084 33.7639 68.3867 33.6962 67.6214C33.1571 66.2975 31.9998 66.9101 30.6954 66.9028C29.7678 66.8977 28.4145 66.5011 27.8325 66.0101C28.6559 63.783 29.2379 62.5189 30.6981 60.766H30.6983ZM98.903 70.9592C100.99 71.026 102.992 69.92 101.684 67.7773C100.807 66.3433 99.2364 65.2527 98.7048 63.9283C97.9302 61.9985 98.3911 59.9325 99.2437 58.3015C99.8849 57.0748 100.215 57.6271 101.42 57.9771C104.168 58.775 106.393 58.1956 108.976 57.8235C108.149 60.6994 107.462 61.2815 107.77 64.847C105.269 66.0884 104.867 63.5944 102.708 63.3088C102.872 64.0655 103.788 64.7732 104.312 65.1349C104.935 65.5647 105.571 66.0413 106.436 66.2092C105.678 69.4588 107.114 69.7905 107.702 70.8543C108.241 71.8279 107.248 72.3275 106.384 72.4841C105.388 72.6645 104.36 72.5216 103.418 72.6776C98.4776 73.4957 98.2655 74.8958 96.0251 77.9808C95.0206 77.9297 95.1911 77.3936 94.7914 75.8001C94.2758 75.8642 93.1103 76.6679 92.9195 75.6772C93.0251 74.9272 93.5138 74.775 93.3742 73.929L91.8029 73.9244C90.77 72.8628 91.346 72.0132 92.6127 71.4984C94.4799 70.7403 96.8648 70.8981 98.903 70.9589V70.9592ZM97.1677 61.8473C97.1677 62.6836 97.3515 63.4882 97.5836 64.1144C97.8499 64.8338 98.1247 65.205 98.6001 65.7773C98.872 66.1054 98.8735 66.1877 99.2024 66.5141C100.149 67.4541 100.905 68.2188 100.905 69.3667C99.7404 69.9867 97.6288 69.7766 95.8318 69.768C93.4337 69.7569 95.0177 70.8045 91.6629 67.5192C93.4587 64.1655 93.9756 61.6349 94.6894 58.0114C94.7649 57.6279 94.8914 56.6771 94.8987 56.342H95.4324C95.5406 56.6422 95.5107 56.5482 95.7148 56.7294C96.9807 57.8556 98.1026 57.5461 98.8588 56.0295C99.0639 55.6176 99.1518 55.4764 99.2528 54.9484C99.584 53.2183 99.2583 53.8834 100.771 53.1194C101.235 52.8854 101.555 52.7292 101.973 52.448C102.882 53.8132 106.435 54.2925 107.938 54.9063C108.948 55.3183 109.18 55.2141 109.18 56.6104C108.493 56.6683 107.686 56.9033 106.925 57.0271C105.143 57.3176 103.014 57.4376 101.303 56.7468C100.581 56.4552 100.722 56.4764 99.837 56.4764C98.2522 56.4764 97.1676 60.0165 97.1676 61.8473H97.1677ZM43.5115 54.9991C42.6873 54.9991 41.5094 55.5926 41.5094 56.8792C41.5094 57.7643 41.4435 58.8967 41.8776 59.5972C42.7706 61.038 44.216 60.1563 45.5305 59.7158C46.0312 59.5482 47.2168 59.0636 47.6493 59.0275C48.1142 61.036 48.1274 61.4696 48.8005 63.5092C48.94 63.9323 49.0025 64.1062 49.1592 64.4909C49.7331 65.9033 49.6394 65.9417 50.4521 67.487C49.8515 68.3893 47.5616 70.0751 46.4291 72.7049C46.1948 73.2487 45.7055 74.2985 45.6472 75.0061C44.5742 74.9163 44.6294 73.7102 41.1871 72.9137C40.5905 72.7751 36.7045 71.6825 36.7045 70.8437C36.7045 69.9911 38.7983 69.3465 39.9442 68.4636C40.153 68.3027 40.2843 68.2352 40.4766 68.0588C40.6663 67.8844 40.6677 67.8436 40.895 67.6745C41.8658 66.9503 43.2445 65.3212 43.2445 63.8614C43.2445 63.7937 41.8613 59.1619 39.374 59.1619L35.7174 59.6457C35.0657 59.7638 34.4093 59.6322 33.7765 59.7075C31.7196 59.952 33.0778 59.7255 31.8992 59.6987C31.923 59.6778 31.9601 59.6133 31.9708 59.6362C31.9812 59.6588 32.0274 59.5862 32.0421 59.5738C32.7319 58.9885 32.8093 59.0317 33.7207 58.5767C34.2643 58.305 35.358 58.0334 36.0405 57.9564C39.1259 57.6091 40.1334 56.6995 42.124 55.2144C43.5309 54.165 45.8086 50.4755 46.0477 50.2994C46.0477 51.7906 46.4557 54.1605 45.0584 54.9448C44.4971 55.2599 44.192 54.999 43.5115 54.999V54.9991ZM125.811 51.3737C125.774 50.0624 126.608 47.2542 127.867 46.1433C128.533 47.2627 128.534 48.9422 129.335 49.91C130.098 49.9904 130.647 49.5771 131.326 49.3628L132.418 54.3106C132.437 54.3985 132.464 54.5471 132.499 54.6311C132.843 55.4674 133.943 53.9482 135.889 54.1749C135.984 55.7127 134.213 58.1103 133.491 58.908C130.91 61.7579 131.229 65.2452 127.215 66.8312C125.645 67.4512 122.96 67.1965 121.661 66.2788L122.119 64.0879C123.474 64.7997 124.689 65.571 126.717 64.9892C131.404 63.6444 132.034 55.6386 125.998 55.6386C125.156 55.6386 124.647 55.8664 123.949 56.0773C123.937 55.0643 123.981 53.7295 124.744 53.2019C125.078 52.9706 125.403 52.9022 125.803 52.7923C126.449 52.6145 126.521 52.663 126.803 52.3137C126.49 51.7572 126.382 51.9862 125.811 51.3737ZM49.3144 44.1231C50.0592 40.5392 52.5095 35.8895 54.7022 33.094C56.1359 31.2657 56.0313 31.6784 57.2667 30.297C57.6378 29.882 57.634 29.8647 58.0172 29.5782C60.1313 27.9957 60.9825 27.1402 63.8953 25.957C71.2403 22.9734 78.688 24.865 84.4351 29.8142L85.7487 31.1734C85.9705 31.4024 86.1918 31.5768 86.4279 31.8272C89.6662 35.2691 93.4644 43.3541 93.573 47.7485C93.1111 48.1643 92.6382 48.666 92.2265 49.0907C91.3013 50.0466 90.099 52.5585 91.4817 53.6077C91.5929 53.6918 91.7462 53.759 91.9049 53.8423C92.7923 54.3082 92.027 54.6591 92.6254 55.5434C92.8765 55.9146 93.1671 55.9313 93.5069 56.14C93.6599 56.2339 93.6806 56.2735 93.7589 56.342C92.9399 63.2443 90.3545 69.3179 85.5986 74.1097C81.9808 77.7546 77.7163 80.1948 72.2089 80.5388C67.3287 80.8441 62.6597 79.1554 59.0835 76.3926C57.1148 74.8717 57.3757 74.8352 56.1335 73.7208C55.6475 73.2841 55.1488 72.7171 54.7514 72.1587C54.3291 71.5656 53.9928 71.2208 53.5557 70.5393C51.2773 66.989 49.1817 62.8032 48.6924 58.3227C50.1588 57.537 49.0398 54.4918 49.3319 51.109C49.6515 47.4086 50.8183 46.0754 49.3146 44.1231H49.3144ZM134.317 45.777C136.227 47.6134 136.401 46.2244 136.968 44.2868C137.244 43.3472 137.664 40.0462 138.01 39.5738C138.636 39.7387 138.583 39.874 138.795 40.5143C139.81 43.5776 138.067 43.7758 137.739 47.3406C137.61 48.7335 138.201 48.9388 138.766 49.628C138.46 50.0184 137.692 50.3406 137.071 50.4341C134.862 50.7673 134.292 47.1097 134.318 45.7768L134.317 45.777ZM122.991 84.6088C122.879 84.7793 122.82 84.9259 122.698 85.1127C121.972 86.2186 120.972 85.1714 120.853 84.7491C120.784 84.5041 120.943 83.6895 120.945 83.2925C119.911 83.4184 119.688 84.2341 118.695 83.9635C117.78 82.564 120.056 80.716 120.604 80.3186C121.209 79.8799 121.783 79.5422 122.136 78.9065C123.246 76.9065 122.632 74.2006 121.061 73.5293C120.098 73.118 118.406 73.1284 117.311 72.8749C114.188 72.1518 111.233 69.7115 109.911 66.8833C109.505 66.0146 108.768 64.6738 108.749 63.5967C108.694 60.5686 110.213 58.7182 110.303 56.2562C111.404 56.7872 112.555 58.4956 113.479 58.8163C113.291 58.0046 112.145 56.5777 111.725 56.0604C109.535 53.3627 104.405 53.2752 103.072 51.9105C103.329 51.5748 104.592 50.7982 105.042 50.5278L105.498 50.9193C106.052 51.4216 106.566 51.5405 107.426 51.345C109.8 50.806 108.285 49.2931 111.27 47.4346C111.436 47.3313 111.571 47.2765 111.773 47.1404L112.104 46.8577C112.12 46.8002 112.157 46.7917 112.184 46.759C110.983 46.8423 109.226 47.4001 108.765 48.135C108.052 49.2722 108.286 50.5198 106.357 50.2821C106.192 50.0732 106.185 50.0571 105.995 49.8964C106.172 49.4161 106.68 49.1119 105.958 48.6104C105.321 48.6772 105.166 49.0308 104.679 49.3964C103.61 50.1984 102.287 51.1389 101.025 51.7582C100.095 52.2147 98.973 52.5123 98.5232 53.2782C97.9557 54.2438 98.4188 55.3685 97.4345 56.2231C96.3648 56.2448 96.0664 55.4833 95.7465 54.7168C95.2206 54.8269 95.2191 54.9844 94.9607 55.2713C92.5348 55.3266 93.8834 54.0463 93.5639 52.7288C92.807 52.671 92.5217 53.0498 92.029 52.6489C91.7983 52.023 92.2019 51.0176 92.524 50.4685C92.9905 49.6723 94.7523 48.0854 95.4154 47.7334C96.2767 47.2768 97.7293 47.0089 99.4186 46.1173C100.142 45.7354 100.48 45.3231 101.022 44.9093C102.638 43.6753 102.623 43.8056 104.032 42.9731C104.399 42.7562 104.25 42.8362 104.401 42.6343C103.47 42.7086 101.449 43.5623 100.551 44.0352C100.058 44.2953 99.9294 44.488 99.5145 44.6636C98.8317 42.1263 98.7812 40.7413 99.9891 38.6173L101.419 38.5153C102.09 41.8984 107.209 37.7024 108.297 37.7452C108.499 39.2657 108.611 41.9456 110.246 41.8974C111.638 41.8565 112.876 40.0487 113.344 38.8952C114.853 40.6073 117.174 47.684 117.499 50.7784C118.456 59.8963 119.578 56.0629 120.61 59.7547C120.993 61.1232 121.384 63.8786 120.768 65.3173L120.659 65.4856C120.072 64.9015 120.316 64.7365 118.708 63.1392C118.422 62.8556 118.323 62.7506 117.897 62.7004C117.819 63.6831 121.244 68.3167 122.124 69.2413L123.548 70.6214C124.878 71.6222 125.751 72.1657 125.673 73.7848C125.492 77.531 125.595 77.0356 126.284 81.1825C126.285 81.1863 126.412 86.2825 124.393 85.3926C123.705 85.0894 124.154 84.7131 123.462 84.2162C123.023 84.3901 123.298 84.1385 122.991 84.6083L122.991 84.6088ZM5.70267 41.734C5.78936 43.1758 6.41945 47.1104 8.27497 45.3285C10.1273 43.5499 10.4042 40.9854 10.5437 40.7868C11.3768 42.4938 8.21578 46.883 7.02306 49.172C6.53194 50.1146 6.04285 51.5266 5.52474 51.589C5.66506 50.541 5.99883 50.148 5.52845 49.0366C4.2762 46.0766 2.69508 45.7401 3.283 42.3243C4.97021 42.2074 4.48837 42.1079 5.70267 41.7342V41.734ZM93.297 41.5716C94.2357 41.5716 94.5971 41.7128 95.567 41.7048C96.4386 41.6977 96.9642 41.8406 97.9685 41.8406C97.9685 42.5969 98.0166 43.0326 98.1312 43.6904C98.2162 44.178 98.4557 44.7681 98.5023 45.3312C97.8545 45.676 97.3688 45.8233 96.5835 46.0864L94.6317 46.8084C94.4251 45.9156 94.2797 45.1188 94.0454 44.1757C93.8286 43.3024 93.4014 42.3903 93.297 41.5715V41.5716ZM11.0077 81.7899C10.8267 81.1098 11.7604 76.5632 11.7604 75.1406C11.784 69.8111 11.0131 70.9853 13.795 70.5067C16.636 70.0182 18.3675 68.5304 19.1254 65.377C20.3799 60.1592 18.7468 58.8403 22.0405 54.3449C23.5425 52.2952 25.5314 51.5488 28.0644 49.9329C29.0681 49.2931 29.0355 49.0863 29.5285 47.9141C31.3729 43.5296 32.1644 41.9064 30.749 36.7536C31.8804 36.6899 31.9763 36.7867 32.5486 36.0925C33.2782 36.4394 33.806 36.7441 34.8009 37.0377C36.1893 37.4479 36.3686 37.3107 37.5734 36.9583C38.2597 37.9515 40.4329 39.2722 41.5639 40.0392C42.9752 40.996 44.319 41.8653 45.7177 42.8411C47.5823 44.1417 49.2014 44.8058 48.9818 46.5444C48.7074 48.7191 48.2181 50.3377 48.2181 52.7163L48.4092 57.1508C48.2854 57.5139 43.3032 59.8532 42.777 58.9561C42.5607 58.5867 42.5873 56.6138 42.6028 56.5794C43.1543 55.3664 45.7008 57.5483 46.9637 54.1649C47.1988 53.5351 47.1145 51.5802 47.1576 50.7629C47.2216 49.5481 47.5009 48.5685 46.6825 47.9134C45.7858 47.1965 40.3548 45.7671 38.6842 45.3623C36.7239 44.8877 36.8796 44.3779 36.0781 44.5735C35.2337 46.0552 39.1351 46.5668 40.3484 46.9005C42.0788 47.3766 43.8694 47.9748 45.532 48.4908C45.0653 49.9585 42.7924 53.107 41.7646 54.0466C37.4223 58.0195 34.7201 55.8749 31.1428 58.8018C26.2016 62.8441 27.4967 68.3516 23.5738 69.7217C22.1821 70.2077 22.1936 69.8134 21.0599 69.535C19.7446 69.2128 19.3654 69.6742 18.6854 70.1893C17.8693 70.3326 17.3765 70.0893 16.7038 70.4015C16.8382 70.8092 16.9156 70.8594 17.4585 70.9972C19.6975 71.5673 19.1705 70.1682 21.2211 70.7094C21.0977 71.4646 20.3679 72.1155 19.5914 72.2928C16.725 72.9478 14.1574 70.5172 13.8107 75.6973C13.6361 78.3052 14.7278 79.1747 16.5994 80.597C16.8471 80.7854 17.1407 81.0831 17.3681 81.2974C17.9644 81.8592 18.1542 82.6274 18.052 83.7435C17.9489 84.8728 17.3644 84.9697 16.2831 85.0317C12.0454 85.275 14.1687 83.8208 14.4163 81.9769L11.0077 81.7894V81.7899ZM92.7239 40.416C92.5507 39.6643 91.8051 38.0674 91.4512 37.3811C90.9862 36.4788 90.3357 35.5563 89.9731 34.7253L91.2568 34.7626C91.548 36.0127 92.2749 37.1688 93.4315 37.6788C95.2849 38.4956 96.2467 37.2426 96.8803 36.7618C97.1898 37.1486 97.1146 37.5339 97.5389 37.974C97.9054 38.3541 98.2363 38.3772 98.7121 38.6374C98.4159 39.3748 98.1712 39.7472 98.0621 40.736L92.724 40.4162L92.7239 40.416ZM124.87 50.2202C124.422 49.8912 124.49 49.8554 124.164 49.3223L122.538 46.6667C120.937 43.8898 119.961 41.0786 120.755 37.6385C121.423 34.7489 123.74 32.5286 126.662 32.1669C128.821 31.8994 129.618 32.6785 131.322 33.1254C133.435 33.6802 134.876 32.4604 136.275 32.6852C136.859 32.7792 137.798 33.2109 138.355 33.4353C139.498 33.8955 139.586 33.69 140.786 33.8286C140.797 34.5348 140.169 35.102 140.082 36.0612C139.959 37.4257 140.627 37.5378 140.682 38.3734C139.532 39.0737 138.868 38.7275 137.794 38.2973C136.662 37.8432 137.005 38.1598 136.898 38.2084C136.641 39.0977 136.448 43.844 135.474 45.2973C134.132 44.2764 131.126 40.9422 130.996 38.8894C130.859 36.7389 133.194 36.2014 132.073 35.0589C131.3 34.2703 129.438 33.7847 127.996 33.8038C121.734 33.8872 120.827 43.3423 125.732 47.0303L124.87 50.22L124.87 50.2202ZM2.58225 35.3122C4.03199 34.6999 5.44598 34.6233 6.86857 34.1169C8.22438 33.6342 9.2874 32.9229 10.426 32.3205C13.6452 30.6175 15.4626 30.0327 18.2216 32.3739C20.4507 34.2658 21.6559 36.8473 21.5456 39.9607C21.4878 41.592 21.1623 43.1086 20.576 44.4195C20.2954 45.0471 19.8077 45.7379 20.2505 46.5803C20.5399 47.1309 21.2517 47.4397 21.6109 47.8521C21.9529 48.6613 19.6189 51.513 18.9834 53.0057C18.608 52.6336 18.5917 52.0356 18.4276 51.2285C17.7433 47.8623 16.3164 51.0083 16.1619 51.2527C15.0284 53.0478 13.4329 54.6635 12.7802 56.7121C12.3304 58.1232 12.6627 60.142 13.7967 61.1237C15.0655 62.2225 16.6688 61.9769 18.5126 61.6322L18.3417 63.6451C16.9652 63.5808 15.7399 63.4819 14.5207 63.0843C10.523 61.7789 10.1823 58.3734 11.8319 54.8172C12.8413 52.6413 13.9625 51.3971 15.1855 49.7334C18.3829 45.3833 14.9366 44.533 14.6991 44.2413C16.0001 43.2459 15.9048 43.1741 17.9069 43.431C19.9529 43.6938 20.2301 39.6542 19.431 37.3297C19.0322 36.1688 18.5134 35.4764 17.8395 34.7706C14.2699 31.029 10.698 33.1114 11.3212 36.8931C11.5866 38.5049 12.1368 38.7649 12.6851 39.6826C11.0977 39.7148 9.47393 39.1933 9.23461 41.0448C9.11874 41.944 8.53858 43.0282 8.05707 43.7729L7.47387 44.3728C6.36025 42.5459 7.61588 40.346 6.99068 39.9076C6.23933 39.5837 5.2721 40.5581 4.67254 40.903C4.20335 41.1731 3.87717 41.2525 3.24033 41.1212C2.66135 41.0014 2.27581 40.9094 1.94929 40.5735C2.53553 40.2172 4.47285 38.2235 4.59344 37.141C4.18631 36.0984 3.52721 35.9287 2.58208 35.312L2.58225 35.3122ZM60.8202 23.9387C63.0643 22.4485 68.0187 21.5538 71.1406 21.5623C74.2095 21.5705 79.2625 22.5191 81.4116 23.9829L81.71 26.4282C79.7578 25.608 79.789 25.2807 76.9292 24.3336C75.277 23.786 72.9017 23.4577 71.0071 23.4685C64.7232 23.5047 62.1646 25.8818 60.5509 26.3562L60.8202 23.9387V23.9387ZM33.3677 23.1763H33.2341L33.3456 23.0199L33.3677 23.1763V23.1763ZM60.1647 20.6253C61.0906 19.9939 63.9039 19.2506 65.203 18.9552C69.0461 18.0818 73.4702 18.0925 77.2862 19.0123C79.7581 19.6083 81.0389 20.3014 82.2441 20.6102C82.1223 21.0957 81.9638 21.2888 81.8245 21.7104C81.7091 22.0596 81.6368 22.4478 81.5531 22.7495C79.8563 22.2389 79.4806 21.826 76.7747 21.1439C73.2976 20.2676 68.9428 20.2515 65.4833 21.1032C62.7802 21.7691 62.6559 22.079 60.7582 22.676L60.1649 20.6253H60.1647ZM56.6628 18.0155C57.2939 17.6485 57.6986 17.8757 58.1869 18.288C58.2512 19.0949 57.9902 19.8691 57.0287 19.5355C56.3727 19.3081 56.4602 18.581 56.6628 18.0155ZM84.0942 18.2898C84.797 17.7362 84.7515 17.7257 85.6546 18.0083L85.7887 19.0363C85.0697 20.025 83.9693 19.7362 84.0942 18.2898ZM87.062 14.5555C88.4217 14.0316 89.3363 16.2867 87.8108 16.8592C86.4329 17.3767 85.2977 15.2353 87.062 14.5555ZM54.5349 14.5899C55.962 13.9785 56.8356 16.3502 55.2685 16.877C54.5514 17.1184 53.9254 16.6542 53.7452 16.1122C53.455 15.2389 53.94 14.8448 54.535 14.5899H54.5349ZM99.4366 11.7786C101.708 11.7752 101.393 12.0112 103.325 11.1152C105.763 9.98453 107.212 11.5965 111.232 10.0641C112.909 9.42463 113.496 8.6496 114.12 8.49215C115.277 13.1771 114.689 11.7774 117.132 14.3707C118.506 15.829 118.859 18.6641 120.252 19.8222C121.229 20.6356 122.365 21.6534 124.273 21.5808C123.601 22.683 121.631 23.0123 122.83 25.4351C123.076 25.9329 123.032 26.1221 122.735 26.4716C122.41 26.853 122.331 26.8908 122.067 27.2795C121.354 28.3284 121.894 28.6891 122.029 29.8001C121.395 30.0386 120.196 30.3958 119.731 30.8366C118.933 31.5938 119.225 32.3766 119.213 33.5159C118.061 34.376 117.23 33.6204 116.841 35.5709C116.718 36.1912 116.733 36.9289 116.707 37.5497C116.692 37.8975 116.676 38.2589 116.618 38.6022C116.33 40.3032 114.659 38.9831 114.398 38.3337C114.279 38.0384 114.166 37.5424 114.059 37.2014C113.852 36.5462 113.916 36.4825 113.585 36.2129C112.523 37.1683 111.989 40.7508 110.114 40.77C109.602 40.1675 109.55 39.0723 109.449 38.2143C109.264 36.6559 109.431 36.7324 109.642 35.3359C108.947 35.5166 108.475 36.0575 107.95 36.4406C107.394 36.8458 107.057 37.0674 106.367 37.4024C101.614 39.7162 102.553 38.6244 102.953 37.2593C100.309 37.4583 97.2004 38.4932 98.1909 35.2155C99.0384 32.4102 103.943 32.613 107.545 32.246C111.415 31.8524 115.606 31.1886 116.712 26.6C117.053 25.1896 117.895 19.7381 116.353 18.9183C116.731 22.241 116.876 22.7235 115.788 26.3291C114.328 31.1679 108.975 30.9804 104.835 31.4362C103.443 31.5895 101.411 31.7338 100.13 32.0609C97.6293 32.7003 97.8051 34.3709 96.0858 36.0521C94.1475 37.9476 92.2275 36.0865 92.2275 33.5156C92.2275 26.4733 102.726 32.7361 107.684 26.2369C108.955 24.572 109.404 22.966 109.081 20.3636C107.618 20.7883 106.413 21.2832 104.748 21.487C101.744 21.8552 101.768 22.6629 100.788 22.9992C100.496 22.761 99.303 21.2666 99.1889 20.8921C100.369 20.091 102.4 20.4627 102.671 18.8842C103.119 16.271 99.5759 16.6035 98.1511 16.6922C97.5092 14.9907 98.5232 15.557 98.4714 14.3275C98.4321 13.395 97.783 13.011 97.8924 12.0889C98.3957 11.7993 98.8276 11.7792 99.4368 11.7784L99.4366 11.7786ZM89.3329 10.2607C91.376 9.42922 92.5171 12.6316 90.5117 13.3909C89.4761 13.783 88.6094 13.1678 88.3308 12.461C87.9813 11.5745 88.2669 10.6947 89.3329 10.2607ZM51.8916 10.2255C54.0002 9.47027 55.0199 12.7828 52.916 13.4304C50.8311 14.0719 49.7453 10.9934 51.8916 10.2255ZM27.5913 14.462C27.524 13.4973 26.3377 12.8515 26.6029 11.8225C28.243 11.7136 29.0234 12.4968 30.4218 12.6802C30.3271 12.4552 30.3547 12.5412 30.295 12.4252L30.1235 12.0948C30.7538 11.9698 31.4201 11.7143 32.1654 11.7725C32.8631 11.8269 33.4266 12.0319 34.17 12.0468C33.9688 12.9878 34.2536 13.159 34.7341 13.7441C35.1539 14.2555 35.4806 14.4895 35.9675 14.9248C36.432 15.3395 36.7477 15.679 37.1941 16.1047C38.3496 17.2068 39.1734 18.2352 40.8787 19.7825C41.3103 20.1746 41.645 20.5275 42.1112 20.957C43.2557 22.0111 42.8546 23.0413 42.1766 23.1955C42.0134 23.2328 39.4298 21.8859 40.039 24.2513C40.0921 24.4577 40.1628 24.5766 40.2039 24.7768C40.3366 25.4205 40.2486 24.9974 40.1324 25.1535C39.4731 25.9102 38.1264 24.5747 37.5734 24.0501C35.2873 21.8804 33.6475 22.3565 32.1185 21.4761C31.0902 20.8843 31.2402 19.5196 30.6871 19.0408C29.955 21.4281 32.4919 24.0947 34.0128 25.883C38.3507 30.9835 49.5515 30.5527 47.6046 42.7439C47.1497 42.5988 43.5471 40.0653 42.6627 39.4725C42.1238 39.1111 41.5305 38.7864 41.1074 38.3488C43.5122 36.4462 43.8439 36.3721 41.9856 33.4401C38.811 28.4324 30.8597 31.4689 25.1374 26.221C22.1857 23.514 23.3669 18.6787 23.1924 17.7124C22.6432 18.3931 22.4511 21.3127 22.4962 22.3706C22.6856 26.823 26.0218 28.8771 30.5006 30.2219C35.1873 31.6292 39.0527 30.5415 41.6331 34.8651C42.1021 35.6503 42.2539 36.0319 41.5831 36.678C41.16 37.0857 40.5869 37.3851 39.9074 37.5743C38.2042 36.4922 37.6665 35.3405 36.7101 35.0857L36.677 36.1566C35.6191 36.2413 34.7755 35.9471 33.8652 35.5677C32.7278 35.0936 32.9012 34.2658 31.9967 33.9974C31.9164 34.5298 31.7967 35.2129 31.6105 35.6315C29.9356 35.7645 29.9022 34.6484 29.2377 33.6403C28.8355 33.0297 27.7564 31.5632 27.0667 31.3809L26.6101 34.904C25.1045 34.8223 24.1127 33.9576 23.5185 32.952C22.9183 31.9348 22.7653 30.411 22.0221 29.6146C21.8789 29.7192 21.9312 29.6437 21.7993 29.7996C21.4395 30.2234 21.35 30.8656 20.6873 31.0934C16.8535 27.5198 22.5673 22.799 17.4183 24.3167C17.2755 22.5837 18.5532 19.9106 15.5905 18.7469C15.9586 18.4374 16.0067 18.536 16.4793 18.4047L18.9838 17.4293C21.8576 15.9225 23.3357 13.6613 24.2169 13.4338C25.9831 12.9773 26.5179 15.6622 27.5908 14.462H27.5913ZM57.5264 10.5546C57.5264 9.4075 57.5543 8.13959 59.0428 7.51454C62.2346 6.17385 65.2997 8.42361 67.537 9.61449L68.5498 15.3093C68.669 15.8999 68.8591 16.6992 68.8717 17.2684C66.9886 17.2684 63.8412 18.2084 63.2659 18.2084C63.0097 18.2084 60.6531 15.8385 60.3295 15.3885C59.5029 14.2406 57.5264 12.2925 57.5264 10.5548V10.5546ZM79.0156 18.2082L73.4097 17.2683C73.4097 16.4515 73.9207 14.4199 74.0636 13.4949C74.1756 12.7709 74.2934 12.2913 74.4245 11.5753C74.5373 10.9596 74.7326 10.1472 74.7444 9.61432L76.5257 8.58666C78.7476 7.35523 82.076 6.17079 84.1239 8.23511C84.7515 8.86779 84.755 9.40343 84.755 10.2857C84.755 13.1479 79.3105 18.208 79.0156 18.208V18.2082ZM23.0905 9.21187C25.1131 9.21187 24.815 9.74886 26.2937 9.74886C26.4666 10.0772 26.5396 10.3646 26.6943 10.6888C26.4931 10.736 26.286 10.7828 26.0748 10.8715C25.2172 11.2312 25.7329 11.5081 24.8251 10.8235L23.3145 9.65775C22.9772 9.30061 23.1805 9.38442 23.0905 9.21204V9.21187ZM89.7171 5.15433C91.8509 4.21761 92.9895 7.58682 90.9023 8.2799C88.9339 8.93345 87.6154 6.07697 89.7171 5.15433ZM51.3043 5.17571C53.4631 4.21981 54.4192 7.38628 52.6579 8.21187C51.6668 8.67624 50.7633 8.11329 50.456 7.4611C50.0165 6.52947 50.2953 5.62227 51.3043 5.17571V5.17571ZM30.2979 10.823C30.237 10.0857 29.7641 9.43956 29.7641 8.80892C29.7641 8.47145 30.0265 8.37135 30.2448 8.08411C30.4544 7.80891 30.5445 7.66283 30.7507 7.38458C31.1228 6.88339 31.5009 6.54134 32.033 6.25749C31.9448 6.63805 31.8856 7.15248 31.7857 7.48587C31.6576 7.9136 31.5623 8.2855 31.4161 8.72527C31.1578 9.50115 30.8661 10.4401 30.2977 10.823H30.2979ZM79.5328 3.78241C80.2614 4.25086 80.4997 4.67536 81.5514 4.63481C82.5637 4.59494 82.6904 4.16705 83.2867 3.77257C83.5544 4.18333 83.4832 4.47126 83.8944 4.97279C85.132 6.48264 86.1376 6.30924 87.6638 5.88304C87.4089 8.06765 87.991 8.05391 89.0176 9.19677C87.0207 9.91276 86.8549 11.607 87.5462 13.3619C86.4851 13.4985 86.0941 13.6496 85.5618 14.3198C84.9876 15.0429 85.0272 15.7884 85.2991 16.7459C84.3676 16.7017 83.7367 16.9359 83.3668 17.4832C82.5583 18.68 83.3579 19.016 82.7781 19.4352C82.6759 19.5087 82.9492 19.7618 82.0884 19.4203C81.8633 19.3309 81.6644 19.2421 81.4214 19.1453C80.9824 18.9709 80.5343 18.866 80.2258 18.6012C81.3939 17.8044 83.0536 15.7937 84.0199 14.5168C87.8329 9.47791 85.3576 5.82535 80.6146 6.19098C78.276 6.37117 76.7234 7.34606 74.9998 8.20542L75.7423 4.16705C76.1984 4.7037 76.6199 5.46668 77.8183 5.36556C78.8166 5.28141 79.3512 4.62616 79.533 3.78258L79.5328 3.78241ZM54.6179 5.88287C58.1447 6.86846 58.3557 4.75307 58.9947 3.7724C59.6206 4.18622 59.7738 4.64669 60.8638 4.63685C61.8366 4.62803 62.0573 4.22694 62.7486 3.78224C63.031 5.11344 64.7279 6.43394 66.5312 4.18825L67.2299 8.22493C65.4837 7.36049 63.9727 6.34385 61.5374 6.18148C59.116 6.02064 57.152 6.96041 56.5317 8.88103C55.7676 11.2462 57.3529 13.2428 58.3203 14.5865C59.3059 15.9561 60.7978 17.6627 62.043 18.6738L59.6619 19.5725C58.7986 18.6902 59.8294 16.6264 56.9849 16.743C57.5072 14.6737 56.6527 13.6132 54.7374 13.3595C55.5422 11.4369 54.983 9.82555 53.2637 9.19626C54.1453 8.21492 54.8811 8.15707 54.6175 5.88253L54.6179 5.88287ZM28.185 7.56069C28.9347 6.9314 30.8283 3.54539 32.8999 4.43647C34.6286 5.17978 33.3955 9.4701 32.5664 10.707L31.6714 10.6479C31.9984 9.63994 33.6676 6.23968 32.4676 5.25375C31.4965 4.8133 29.8744 7.03744 29.4318 7.67301C29.1453 8.08496 28.8832 8.16402 28.6377 8.51743L29.4698 11.1413L27.8715 10.8804L27.2814 8.77617C25.4268 8.73291 23.1357 7.40765 21.8138 8.58106C21.6325 9.61381 22.5171 10.4043 23.0087 10.7733L24.9359 12.2789C23.5809 12.3507 23.9612 12.5867 22.3383 11.1815C20.0247 9.17845 20.8051 7.05085 23.7592 7.34471C24.9118 7.45957 25.8311 8.01234 26.912 7.94939L26.4428 6.33622L27.6359 5.95701L28.185 7.56035V7.56069ZM69.5243 1.2035C70.8086 1.07218 71.4105 1.04911 72.6914 1.21283C73.0744 1.84891 72.7729 2.11918 73.4104 2.76646C73.948 3.31227 74.1568 3.19503 74.7485 3.57695L72.2104 17.237L70.0424 17.2545L67.55 3.46819C69.358 3.04216 69.121 1.89624 69.5243 1.20333V1.2035ZM77.2931 2.52248L77.9667 2.53402C78.9311 3.2573 78.6587 4.35928 77.2284 4.2344C76.8607 3.8211 76.7251 3.76494 76.7897 3.04827L77.2931 2.52231V2.52248ZM64.3193 2.51569L64.9883 2.54029C65.3633 2.87267 65.564 3.06252 65.5 3.72184L65.0536 4.23457C64.0516 4.31482 63.7194 4.00875 63.817 2.99093L64.3195 2.51569H64.3193ZM85.7111 1.38606C88.1222 0.62596 89.1997 4.16806 86.9566 4.98059C84.4469 5.89 83.2892 2.14972 85.7111 1.38606V1.38606ZM55.4836 1.35467C57.954 0.655652 58.8946 4.36114 56.5624 5.02436C54.049 5.73916 53.0939 2.03147 55.4836 1.35467V1.35467ZM80.9138 1.28104C82.4424 0.459688 83.3056 2.80107 81.9533 3.44105C81.2649 3.7668 80.5899 3.34994 80.3511 2.901C79.983 2.20877 80.2437 1.6409 80.9138 1.28104ZM60.3448 1.27137C61.8145 0.515508 62.7906 2.70334 61.3812 3.42697C60.5013 3.87844 59.3034 3.06778 59.7211 1.88742C59.8724 1.45936 60.0085 1.44409 60.3446 1.27137H60.3448ZM33.368 23.176C34.9475 23.2113 36.2373 24.2882 37.2695 25.2934C37.4609 25.4801 37.4528 25.4563 37.6392 25.5931C37.8726 25.7648 37.8569 25.7802 38.0728 25.9624C38.3627 26.2074 38.7054 26.334 39.119 26.3893C40.2736 26.5444 40.5665 26.4071 41.3764 25.8616C41.3764 25.0488 41.2931 24.7235 41.2428 24.116C42.2368 24.5956 42.9481 24.2286 43.5525 23.4855C44.5022 22.3175 43.6476 20.6487 42.6307 19.9003L39.6138 17.027C39.5951 17.0066 39.5725 16.9736 39.5543 16.9525C39.5364 16.9316 39.5136 16.8986 39.4959 16.8774L36.6715 14.0789C36.3947 13.8003 36.2149 13.6184 35.9373 13.3407L35.2366 12.5685C35.3553 12.0563 35.3701 12.0346 35.3701 11.3598C34.7623 10.83 34.5795 10.9771 33.7684 10.9569C33.8344 10.1596 34.5441 8.60787 34.7611 7.65927C34.8942 7.0785 34.8972 6.23611 34.8291 5.59325C34.7719 5.05575 34.4805 4.45259 34.1993 4.07865C33.521 3.17739 32.0743 3.04115 31.0766 3.41543C30.0171 3.81244 29.4307 4.73305 28.5631 5.31755C28.4921 5.01181 28.4596 5.00875 28.4295 4.64618C27.3775 4.66993 26.0848 5.35402 25.0927 5.58613C25.1266 5.99824 25.2192 6.23187 25.3595 6.52624C24.7197 6.4728 24.5185 6.2619 23.7627 6.25274C22.1109 6.23306 20.5612 6.53472 19.9965 8.24733C19.4987 9.75803 20.6067 11.1968 21.6475 12.0063C21.803 12.1271 22.6118 12.8638 22.6901 12.9713C22.0523 13.9298 20.8901 14.8025 19.9864 15.4883C19.7338 15.6795 19.724 15.6469 19.4886 15.7932L17.7713 16.7511C17.3885 16.9188 16.9866 17.056 16.5012 17.2187C15.8967 17.4215 14.192 17.5192 14.0144 18.2082C14.1492 19.8358 15.6831 19.5131 16.2475 20.6614C16.8375 21.8621 16.1502 23.843 16.1502 25.0564C16.8628 25.6772 17.2161 25.5036 18.5529 25.1904C18.2818 25.7585 18.2385 26.8857 18.0963 27.6908C17.8847 28.8861 19.4678 32.3887 20.8147 32.3096C21.4085 32.2752 21.3176 31.9234 21.8898 31.7701C22.0824 32.6009 22.4015 33.3225 22.821 33.9214C22.9793 34.1472 22.9969 34.1425 23.1856 34.3602C23.9004 35.1846 25.7628 36.4496 26.88 35.9869C27.6305 35.6756 27.8961 34.8147 27.8961 33.7842C28.9502 34.5609 29.8452 37.4561 30.1141 38.803C30.6241 41.3572 30.1797 43.2907 29.4814 45.1811C29.1286 46.1365 28.4262 48.2412 27.6544 48.8482C27.2469 49.1689 26.9798 49.3231 26.534 49.6009C25.0108 50.5512 23.4001 51.27 22.1233 52.5486C21.043 53.6303 19.7965 55.5105 19.2354 57.0287C17.9894 60.4008 19.4815 60.2155 17.4099 60.6972C14.2558 61.4303 12.8377 58.9893 14.2816 56.0729C14.7472 55.1333 16.5715 52.3019 17.3516 51.7765C17.3642 52.345 17.6089 53.0868 17.7226 53.5517C17.9106 54.3213 18.1216 54.5269 18.9534 54.596C19.5972 54.4284 21.2451 51.2789 21.7812 50.4587C23.1348 48.3878 23.3107 47.544 21.2225 46.1368C21.2225 45.1648 21.6698 44.8452 21.9421 44.0408C23.2583 40.1488 22.8893 35.9374 20.2553 32.8768C19.9827 32.5597 19.9648 32.4499 19.656 32.1369C19.4088 31.8861 19.1754 31.6177 18.9194 31.4009C18.6915 31.208 18.7333 31.2857 18.5284 31.1228C15.2059 28.4799 11.9885 29.9872 8.75665 31.985C7.07635 33.0234 4.48382 33.4927 2.29453 34.0777C1.10822 34.3953 0.969082 34.3493 0.534125 35.2606C0.976671 36.102 1.80425 36.2423 3.33714 37.2747C2.84265 38.0178 1.79565 39.2976 1.09136 39.8495C0.508658 40.3063 0.746965 40.1076 0.40072 40.7659C0.800091 41.6032 1.02744 41.9495 2.13566 41.9742C2.13566 43.3204 1.85131 44.3918 2.31915 45.5496C2.90202 46.9928 3.90787 48.0909 4.50085 49.5323C4.86598 50.4202 4.5022 50.4383 4.4091 51.2495C4.21684 52.9238 5.93491 53.1063 6.64325 52.2828C7.13319 51.7134 7.71218 50.3564 8.09704 49.5826L10.3573 45.6799C11.3273 44.0862 11.7457 42.8903 11.7457 40.7657C12.4695 40.7657 12.4793 40.8964 13.187 40.7411C15.2943 40.2786 13.2394 38.6564 12.9883 38.1727C12.7212 37.6586 12.3319 36.5962 12.4174 35.8079C12.8671 31.671 17.4998 35.14 18.3382 37.6247C18.9048 39.3054 18.9059 40.9444 18.1523 42.3769C16.6876 41.6699 15.072 42.4624 14.1817 43.2162C12.424 44.7047 14.2832 45.2843 15.3491 46.0023C15.3491 46.7663 15.2969 47.2052 15.0651 47.731C13.9282 50.3097 8.28475 55.17 10.0585 60.4556C10.3319 61.2703 10.7034 61.7859 11.1861 62.4096C12.566 64.1931 15.7473 64.8009 18.0186 64.8009C18.0186 66.7478 16.539 68.503 14.7988 69.081C12.32 69.9049 10.5381 68.6083 10.544 72.3204C10.5479 74.6143 10.793 75.0215 10.3975 77.5434C9.82017 81.2253 8.65242 83.0623 12.0187 83.0555C12.705 83.0541 12.5416 82.9576 12.8133 83.3305H0L3.44289 89.4006C3.6537 89.7386 3.79908 90.0051 4.00417 90.3127C3.59805 92.0657 0.815776 95.9039 0.400383 97.6979H34.5692C34.6621 98.8179 35.1418 99.9791 35.4846 101.074C35.8248 102.158 36.1787 103.292 36.438 104.412C37.6265 103.838 42.8627 102.413 44.1642 101.979C47.8768 100.742 57.2048 99.0844 61.3987 98.7733C63.8341 98.5929 71.1597 97.8634 73.5962 98.3159C74.3904 98.4638 75.2607 98.3069 76.081 98.3678L80.7512 98.7716C85.0257 98.994 94.1755 100.815 98.0498 101.913C99.3098 102.271 100.824 102.609 101.975 103.067C102.574 103.305 103.255 103.521 103.859 103.723C104.469 103.928 105.322 104.16 105.844 104.412C106.001 104.082 106.026 103.915 106.136 103.498C106.219 103.181 106.351 102.865 106.458 102.479L107.655 98.312C107.812 97.7146 107.668 97.704 108.37 97.6886L120.259 97.6983C127.333 97.6983 134.407 97.6983 141.481 97.6983C140.849 96.4962 140.328 95.2466 139.658 94.0269C139.068 92.9504 138.574 91.7101 137.921 90.6714C137.716 90.3436 137.906 90.6356 137.744 90.4475C139.027 88.5192 140.052 86.3164 141.267 84.3241C141.512 83.922 141.631 83.8351 141.748 83.3309H127.199C127.584 81.6714 127.374 80.3856 127.076 78.8899C126.75 77.2541 126.798 75.8873 126.799 73.9316C126.799 73.6058 126.833 73.0235 126.795 72.7269C126.772 72.5474 126.517 71.8971 126.425 71.7575C126.339 71.6277 126.287 71.6189 126.168 71.4777L125.175 70.4633C124.94 70.2868 124.707 70.1329 124.495 69.9387C124.034 69.5147 123.508 69.1755 123.114 68.6419C122.865 68.3034 122.721 68.1801 122.528 67.8893C123.561 68.1316 124.92 68.5326 126.35 68.2439C127.568 67.9982 128.486 67.556 129.313 66.9274L130.973 65.375C131.472 64.8241 131.813 63.9788 132.138 63.3244L133.632 60.5307C134.591 59.0723 135.259 58.7925 136.275 56.7446C138.916 51.4265 133.817 53.3593 133.473 53.3878C133.155 52.7833 132.851 51.4019 132.701 50.6723C132.531 49.8408 132.517 48.419 131.604 48.1511C130.735 47.8959 130.031 49.3769 129.599 47.7515C128.95 45.3156 128.418 43.1034 126.398 46.1368C125.418 45.4765 124.452 44.0676 124.077 42.9668C123.568 41.4753 123.617 39.5429 124.077 38.0272C124.93 35.2146 127.472 34.3383 130.157 35.2394C130.623 35.3955 130.722 35.5506 131.203 35.6632C129.95 37.5463 128.96 38.4447 130.799 41.5752C131.363 42.5345 132.136 43.761 133.072 44.3911C133.072 45.6521 133.336 47.1964 133.578 48.1782C134.616 52.3786 136.647 52.0196 139.701 50.523C140.379 50.1906 140.546 50.1956 140.546 49.2249C137.028 48.2802 139.885 44.8932 140.257 42.7571C140.452 41.6354 139.9 40.7796 139.879 39.8263C140.949 39.802 141.968 39.007 141.81 38.0234C141.582 36.6059 140.633 36.9516 141.568 35.0796C142.998 32.2161 140.528 32.9983 139.225 32.5616C138.733 32.3966 138.305 32.2087 137.785 31.9964C134.347 30.5917 134.285 33.2068 130.043 31.4597C129.406 31.1969 129.223 31.1829 128.456 31.0425C126.518 30.6866 124.616 31.3457 123.113 32.359C122.332 32.8849 121.693 33.4976 121.091 34.219C120.886 34.4647 120.861 34.6132 120.687 34.887C118.356 38.5686 119.489 43.6465 121.462 47.0751L124.53 51.9107C123.874 52.8104 123.303 52.6314 122.955 54.221C122.639 55.6637 122.677 56.4375 123.328 57.4162H123.995C124.53 57.056 125.368 56.6057 126.373 56.7691C127.122 56.8907 128.093 57.3006 128.572 57.7804C129.791 59.0015 129.327 61.0585 128.403 62.3875C127.404 63.8263 125.63 64.3613 123.943 63.78C123.475 63.6188 123.24 63.4917 122.899 63.2187C121.571 62.1537 122.19 58.9253 120.762 57.4465C117.746 54.3245 119.598 51.4638 117.341 45.0442L115.944 41.6152C115.744 41.1426 115.667 40.9038 115.453 40.498C116.332 40.498 116.586 40.6118 117.095 40.1349C117.489 39.7664 117.596 39.3215 117.715 38.7447C117.951 37.6006 117.814 36.4589 118.123 35.1269C122.085 34.1978 119.362 32.5341 120.568 31.5442C120.979 31.2063 122.09 31.1589 122.7 30.6009C123.525 29.8479 123.015 29.2293 122.794 28.2785C123.092 27.7127 123.046 27.8839 123.428 27.4388C123.651 27.1786 123.903 26.779 124.021 26.4234C124.392 25.3099 123.332 24.7198 123.595 23.8477C124.022 23.2074 124.736 22.922 125.229 22.2681C125.678 21.6712 125.649 20.3333 124.797 20.2223C123.956 20.1127 123.471 21.3945 120.865 18.807C119.499 17.4515 119.926 15.6619 117.488 13.2075C117.342 13.0601 117.297 13.012 117.166 12.8602L116.145 11.6042C115.502 10.6296 115.573 7.69473 114.386 7.33164C113.227 7.33164 113.201 7.66147 112.545 8.16538C112.133 8.48163 111.165 8.86304 110.649 9.07784C108.333 10.0414 104.92 9.12874 103.306 9.88137C100.124 11.3648 101.477 10.3707 98.5097 10.6959C98.2387 10.7258 97.7163 10.8661 97.4806 11.0034C95.7249 12.0265 97.5352 13.6406 97.3013 14.4483C96.9999 14.9011 96.642 15.2956 96.8141 16.1444C96.9507 16.82 97.1396 17.4259 97.648 17.7255C98.3996 18.1688 100.242 17.4997 101.572 18.208V18.8794C100.959 19.1753 100.121 19.2301 99.3821 19.496C96.7862 20.43 98.6357 22.0849 99.0372 22.638C101.131 25.5233 101.243 23.4152 103.945 22.7427C104.523 22.5986 105.338 22.5857 106.034 22.4276C106.71 22.2746 107.432 21.9826 108.112 21.9677C108.112 23.2313 107.66 24.1853 107.044 25.1896C106.489 26.0943 105.596 26.8596 104.668 27.3644C101.831 28.9065 98.0644 28.228 95.3999 28.7828C94.8072 28.9059 94.4222 28.9496 93.8791 29.1326C91.9366 29.7862 91.1615 31.0863 91.1615 33.6493C90.3315 33.6493 89.2473 33.6008 88.8632 33.1416L88.3062 32.3597C87.5729 31.3763 86.4792 30.1236 85.5303 29.3786L83.2591 27.3666C82.4467 26.117 82.491 23.8367 82.7802 22.5326C82.9882 21.5969 83.2977 21.2306 83.6869 20.4909C84.9697 20.5197 84.7127 21.1896 86.0912 20.3582C86.8698 19.8889 86.8902 19.3049 86.8902 18.0738C89.6262 18.0738 90.1558 15.9696 89.4264 14.5828C90.9738 14.5828 91.9052 14.2372 92.5028 12.8439C92.8691 11.9893 92.6276 10.6581 92.0007 9.97859C91.6711 9.62111 91.5511 9.69797 91.2949 9.34591C93.7791 8.02354 93.709 5.17621 91.5214 4.14991C90.5375 3.68859 90.1318 3.8815 89.1596 4.10919C89.7335 1.63004 87.7611 -0.503163 85.2667 0.327349C84.3593 0.629523 84.0473 1.42525 83.5534 1.55827C83.5211 1.16753 83.4736 1.09831 83.2849 0.888263C82.3563 -0.146187 80.9632 -0.302279 79.8352 0.637328C79.4628 0.947306 79.1992 1.35365 79.149 1.96055C78.2669 1.36689 77.2133 1.13275 76.3655 1.84619C76.0736 2.09153 75.9129 2.25254 75.8122 2.63191C74.2773 2.63191 74.2673 2.3126 73.8934 1.07099C73.5925 0.0714939 72.3782 0.21554 71.1406 0.21554C69.8258 0.21554 68.8969 0.00260986 68.3926 0.941707C68.1374 1.41694 68.2924 1.81514 67.9091 2.20113C67.645 2.46632 66.967 2.62089 66.4691 2.63191C66.1048 1.25898 64.4738 1.05708 63.1323 1.96055C62.9404 -0.359286 59.2686 -0.777681 58.7276 1.55827C58.0631 1.37927 57.3536 -0.560849 54.868 0.360434C53.3312 0.930509 52.7578 2.53724 53.1217 4.10919C52.1877 3.89032 51.7823 3.7003 50.8491 4.1058C48.4396 5.15127 48.6141 8.08326 50.9864 9.34574C50.7274 9.70153 50.6825 9.57971 50.3462 9.91039C49.6836 10.5626 49.4012 11.8296 49.7355 12.7526C49.9249 13.2757 50.3465 13.8419 50.7685 14.1303C51.3713 14.5419 51.8877 14.5826 52.8548 14.5826C52.4233 15.4028 52.4453 16.4174 53.02 17.1018C53.6823 17.8896 54.0087 18.0737 55.3906 18.0737C55.3906 19.3046 55.4114 19.8887 56.1899 20.358C57.3323 21.0472 57.4634 20.6217 58.5942 20.3563C59.1801 21.2369 59.627 22.1735 59.6672 23.3053C59.7166 24.6947 59.5272 25.8096 59.1808 26.8547C58.8468 27.8623 57.8474 28.1464 57.1584 28.8483L55.596 30.3652C53.7621 32.5612 53.2813 32.8278 51.6516 35.662C50.7742 37.1877 49.8956 38.7374 49.3338 40.4466C49.3046 40.536 49.2373 40.7783 49.2032 40.8529C49.0383 41.213 49.0828 41.0545 48.984 41.1694C48.984 40.1268 49.1277 38.7739 48.7698 37.4907C48.3362 35.9359 47.6663 34.503 46.6161 33.3461L45.0122 31.7372C44.7223 31.4604 44.7285 31.4862 44.4231 31.2555C43.9929 30.9311 43.6412 30.6778 43.1916 30.3459C40.9241 28.6711 37.8557 28.1674 35.2693 25.5601C34.751 25.0376 33.566 23.9254 33.3674 23.1765L33.368 23.176Z" fill="black"/>
<path fill-rule="evenodd" clip-rule="evenodd" d="M58.4277 64.777C58.4231 64.7493 59.0495 61.395 59.1214 60.7783C59.6506 56.2379 59.886 46.6297 59.5853 42.0625C59.3701 38.7992 60.4352 40.4235 61.4493 39.2093C61.866 38.7104 61.776 38.2795 62.4227 37.7705C62.8639 37.4239 63.4544 37.0796 64.202 37.1039C69.5276 37.274 71.8889 50.8571 64.424 54.1471C62.0446 55.1956 63.5267 55.1714 62.3079 59.2827C61.7588 61.1344 60.8076 63.4571 59.2134 64.626C59.1957 64.6387 58.8149 64.8952 58.8031 64.8984C58.1167 65.0596 58.6226 64.9129 58.4273 64.7768L58.4277 64.777ZM75.9546 50.0237C76.2619 49.5632 76.7876 47.6426 77.0251 46.9477L79.3535 40.9714C79.6188 40.3418 80.2819 38.8031 80.8835 38.4502C81.0827 38.8742 80.9265 39.1061 80.8481 40.0182C80.284 46.5958 81.054 55.893 82.6549 62.2272C82.8784 63.1117 83.297 64.2193 83.4039 65.0939C82.8266 64.9809 82.0762 64.1326 81.6283 63.6572C79.4636 61.3587 78.4408 57.396 77.6182 54.3926C76.9834 55.876 75.7209 63.192 75.4023 63.8499L75.2777 64.0007C74.9011 63.4587 74.2452 60.4186 74.0092 59.5038C73.7869 58.641 73.0912 55.5212 72.7725 55.0321C72.1183 56.8921 71.6283 58.971 70.7648 60.6653C70.0696 62.0287 68.568 64.1884 67.1391 64.5679C67.1523 64.5186 68.7717 60.656 69.2849 59.0416C70.5046 55.2078 71.3619 50.1588 71.6285 46.0793C71.8533 42.6431 71.3664 39.5146 71.4185 38.7807C72.7485 39.6787 75.2104 47.7203 75.9546 50.0235V50.0237ZM53.4143 54.8673C53.9223 62.203 58.2653 70.1825 64.9637 73.0308C70.352 75.3222 75.5775 74.6866 80.2627 71.2953C81.8612 70.1384 83.927 68.0798 85.0123 66.271C87.7688 61.6765 89.3351 56.9254 88.8457 50.4604C88.2925 43.1533 84.178 35.3909 77.2851 32.2966C74.8208 31.1902 72.0727 30.6557 69.0026 31.1038C65.332 31.6395 63.0358 33.1834 60.6293 35.1622L59.3939 36.3366C55.0352 41.1433 52.9153 47.6532 53.4145 54.8672L53.4143 54.8673Z" fill="#FF0000"/>
<path fill-rule="evenodd" clip-rule="evenodd" d="M93.8232 97.4248C94.1427 96.7399 94.7451 95.9189 95.1591 95.2786C95.5739 94.6371 95.9923 93.9184 96.506 93.2633L97.5564 93.475L98.0605 98.4181L97.0668 98.1975L96.9831 97.1941L95.3158 96.7994C95.1365 97.0638 95.003 97.3234 94.7599 97.6125L93.8234 97.4247L93.8232 97.4248ZM39.1548 94.9615L40.0382 94.7702L41.4066 99.2211L40.4438 99.4825L39.1548 94.9613V94.9615ZM100.716 98.3658L102.876 98.9632L102.757 99.7396L99.5888 98.8836L100.842 94.4235L101.773 94.5931L100.716 98.3658H100.716ZM71.2121 90.2755L72.3761 90.3235L73.9176 94.9852L72.93 94.9554L72.6083 94.0196L70.8933 94.0392L70.5493 94.9648L69.5906 94.9324L71.2119 90.2755H71.2121ZM84.4522 91.1321C87.7043 90.2086 88.0826 95.1739 85.7591 95.889C82.4224 96.9162 81.6996 91.9132 84.4522 91.1321ZM45.1732 96.1556C45.428 96.3856 45.2821 96.2586 45.5645 96.3978L44.8472 93.4122L45.7306 93.2903L46.7855 97.7804L45.9136 97.9557C45.4965 97.5144 45.0403 97.1529 44.6406 96.7053C44.2201 96.2343 43.8735 95.74 43.3455 95.4017L44.0619 98.4813L43.2203 98.6552L42.13 94.21C42.5282 93.9766 42.6525 93.9727 43.1681 93.9116C43.5091 94.37 43.8801 94.717 44.2884 95.1671L45.1733 96.1556H45.1732ZM89.4457 91.7933L90.4358 92.0105L91.6577 95.3931L92.2156 92.3228L93.114 92.4594L92.276 97.0305L91.2781 96.909C91.1395 96.3205 90.934 95.7865 90.7239 95.1883C90.6203 94.8936 90.5249 94.6649 90.4395 94.391C90.4048 94.2789 90.3444 94.039 90.3233 93.994C90.0508 93.4094 90.277 93.8597 90.0253 93.6114L89.4222 96.5302L88.7451 96.418L89.4458 91.7933H89.4457ZM51.1081 92.0946L51.2665 92.8859L49.9199 93.1432L50.6499 96.9834L49.7145 97.0892L48.9874 93.3668L47.5615 93.533L47.4584 92.8094L51.1083 92.0946H51.1081ZM80.2394 90.6852L81.2208 90.7383L80.8293 95.3924L79.8616 95.3154L80.2394 90.6852V90.6852ZM56.2604 91.3303L56.3166 92.0985L53.9873 92.4365L54.1229 93.4122L56.332 93.1065L56.4077 93.9024L54.2498 94.209L54.4231 95.4177L56.9644 95.1164L57.0084 95.8217C56.4831 96.0543 54.1526 96.416 53.5972 96.2937L52.9353 91.7589L56.2606 91.3303H56.2604ZM66.9854 90.3357L67.8395 90.4195L68.037 94.9922L67.1355 95.0164L65.6529 92.7477C65.5664 92.6082 65.4696 92.4496 65.3905 92.3467C64.7978 91.5775 65.9002 92.9306 65.2594 92.1912C65.2438 92.1733 65.193 92.1647 65.1812 92.1155C65.169 92.0644 65.1254 92.0653 65.0822 92.0402L65.1736 95.1381L64.3072 95.1096L64.1254 90.4967L65.1613 90.4524L66.51 92.6888C66.5776 92.7964 66.6368 92.9146 66.7132 93.0174C66.9633 93.3534 66.8109 93.1608 67.061 93.361L66.9854 90.3359V90.3357ZM58.3362 90.9977C59.1368 90.9314 60.8208 90.6048 61.446 90.9289C62.3721 91.4088 62.3036 92.4684 61.6579 93.136C62.5661 94.0812 62.0284 94.6939 62.5433 95.2755L61.4693 95.3456C61.2834 94.6712 61.3091 94.1796 61.0096 93.6528L59.5699 93.7497L59.651 95.5797L58.7754 95.6299L58.3362 90.9977V90.9977ZM77.2114 91.3303L77.0088 95.1315L76.0646 95.0773L76.1959 91.2207L74.8427 91.1387L74.896 90.3316L78.6291 90.5851L78.6193 91.3276L77.2116 91.3301L77.2114 91.3303ZM102.12 90.636C101.763 87.6659 106.002 88.4259 105.546 90.8281L104.735 90.595L104.548 89.8525C104.139 89.6891 103.462 89.3499 103.129 89.7429C102.315 90.7037 106.466 91.3262 104.855 93.2166C103.958 94.2699 101.148 93.6359 101.49 91.5605C102.356 91.7853 102.233 91.6689 102.381 92.061C102.946 93.5666 104.809 92.8157 104.027 92.0127C103.978 91.9625 103.512 91.6584 103.382 91.5849C102.783 91.2473 102.562 91.1194 102.12 90.636V90.636ZM37.5607 89.1457C38.564 88.6036 40.5801 88.0335 41.1361 89.0754C42.0283 90.7468 40.8052 91.3498 39.329 91.6808L39.7427 93.3143L38.8401 93.5631L37.5607 89.1458V89.1457ZM92.8543 86.2422C93.4139 86.1222 95.3124 86.5797 95.7536 86.9017C96.3814 87.3601 96.6517 88.4685 95.3615 89.1716C95.9815 89.6401 95.4892 90.5347 95.5956 91.4786L94.5503 91.2967C94.6493 89.8031 94.8242 89.6231 94.358 89.3762L93.2097 89.1599L92.8651 90.8756L91.9092 90.7217L92.8543 86.242V86.2422ZM98.8221 88.6148C98.8648 88.4473 98.9021 88.2627 98.9552 88.0809L99.1711 87.5758L100.051 87.7615L98.866 92.2969L97.9392 92.1063L98.8221 88.6148V88.6148ZM80.6303 84.5102C82.0549 83.9967 83.2964 84.8392 83.5619 86.0196C83.8573 87.3335 83.2568 88.8211 82.2934 89.1774C78.9905 90.3993 78.0908 85.4252 80.6303 84.5102ZM44.4717 91.9665L43.4637 87.4366L44.3797 87.2816L44.7743 88.9394L46.5148 88.5932L46.1244 86.7827L46.981 86.6238C47.2476 87.0612 47.4881 88.3708 47.6009 88.8847C47.7569 89.5953 48.0265 90.4095 48.0533 91.1547L47.1662 91.3315L46.7216 89.3472L44.9605 89.7443L45.4145 91.8075L44.4716 91.9669L44.4717 91.9665ZM86.4285 85.1467C87.0135 85.0518 89.0357 85.3674 89.463 85.7079C90.2635 86.346 89.9682 87.4327 89.0901 87.968C89.8297 88.6777 89.2414 89.1777 89.4659 90.2436C87.4237 90.0195 88.938 89.5513 88.3697 88.4553C88.1101 88.0885 87.3714 88.0532 86.9449 88.0885L86.6954 89.7872L85.7395 89.7144L86.4285 85.1467V85.1467ZM50.6726 85.931L51.4332 90.5106L50.5448 90.5994L49.7346 86.1538L50.6728 85.931H50.6726ZM53.9865 89.9909C53.8558 88.9957 53.2994 86.1898 53.4185 85.4071L54.3064 85.2995L54.8775 89.0742L57.1567 88.834L57.2111 89.5997L53.9865 89.9909V89.9909ZM62.7727 84.3263C64.1052 84.2685 65.9556 83.8721 66.2564 85.2778C66.6443 87.0926 65.3379 87.2001 63.8891 87.2699L63.9306 88.9585L62.9848 89.0054L62.7727 84.3263ZM59.0078 84.6848C59.6193 84.5968 59.9008 84.4132 60.0052 84.9497L60.427 89.2308L59.461 89.2943L59.0078 84.6847V84.6848ZM72.3302 84.0242C73.8685 84.0742 73.6978 83.7398 73.954 85.1989L74.4765 87.4188C74.9314 86.5905 75.2258 85.1255 75.3872 84.1185L76.7972 84.1594L76.6773 88.8043L75.7708 88.8199L75.8235 85.4614C75.2834 86.3002 75.2351 87.8628 74.8416 88.7855L74.0117 88.7699C73.8963 88.4743 73.213 85.1852 73.202 85.0203L73.0846 88.6903L72.1832 88.7035L72.3299 84.0242H72.3302ZM105.042 102.896C105.284 102.594 109.231 89.3886 109.3 88.4668C107.849 88.0179 106.539 87.4965 105.075 87.0605C93.7576 83.6914 83.2441 81.7837 71.1397 81.7871C60.8353 81.7902 47.1041 83.7481 37.2035 87.0607C36.0873 87.4339 34.0603 88.2614 32.9873 88.422L37.2374 102.9C38.0754 102.786 40.1773 102.002 41.0695 101.701C49.4318 98.87 62.5025 97.1527 71.1395 97.1457C79.1455 97.1389 89.7386 98.4486 97.4709 100.617C98.7375 100.973 100.137 101.297 101.339 101.699C102.57 102.112 103.842 102.55 105.042 102.896L105.042 102.896Z" fill="#8D743D"/>
<path fill-rule="evenodd" clip-rule="evenodd" d="M69.1092 30.0894C72.3487 29.6468 75.3465 30.3071 77.9419 31.5107C79.8155 32.3789 82.4763 34.3421 83.82 35.9359C85.2417 37.6226 86.8215 39.731 87.843 42.3552C88.8769 45.0117 89.6574 47.5461 89.8426 50.7112C90.8181 67.3827 77.4946 79.9459 64.3992 73.8658C62.2599 72.8726 59.9333 71.1343 58.5267 69.4375C58.2862 69.1472 58.0906 69.0352 57.8616 68.7633C54.7995 65.1306 52.7598 59.5764 52.4316 54.7801C51.8416 46.1486 54.8415 38.1736 61.7239 33.0423C63.6229 31.6264 66.2677 30.4771 69.109 30.0894H69.1092ZM49.3145 44.1258C50.8183 46.0782 49.6515 47.4112 49.3319 51.1118C49.0398 54.4946 50.1587 57.5397 48.6924 58.3255C49.1815 62.806 51.2773 66.9918 53.5557 70.542C53.993 71.2236 54.3291 71.5684 54.7514 72.1615C55.1488 72.7199 55.6475 73.2869 56.1335 73.7236C57.3757 74.838 57.1146 74.8744 59.0834 76.3953C62.6597 79.1582 67.3287 80.8468 72.2089 80.5416C77.7163 80.1975 81.9808 77.7572 85.5986 74.1125C90.3545 69.3206 92.9399 63.2471 93.7589 56.3448C93.6806 56.2762 93.6599 56.2367 93.5069 56.1427C93.1671 55.934 92.8767 55.9174 92.6254 55.5462C92.027 54.6619 92.7923 54.311 91.9049 53.8451C91.746 53.7618 91.5929 53.6946 91.4817 53.6105C90.0989 52.5613 91.3013 50.0495 92.2265 49.0935C92.6382 48.6688 93.1111 48.1671 93.573 47.7512C93.4644 43.3567 89.6662 35.2718 86.4279 31.83C86.1919 31.5796 85.9705 31.4052 85.7487 31.1761L84.4351 29.8169C78.688 24.8678 71.2403 22.9762 63.8953 25.9598C60.9825 27.143 60.1313 27.9985 58.0172 29.5809C57.6342 29.8675 57.6378 29.8846 57.2667 30.2998C56.0313 31.6812 56.1361 31.2684 54.7022 33.0967C52.5095 35.8923 50.0592 40.542 49.3144 44.1258H49.3145Z" fill="#8D743D"/>
<path fill-rule="evenodd" clip-rule="evenodd" d="M101.419 38.516L99.9891 38.618C98.7812 40.7419 98.8318 42.127 99.5145 44.6644C99.9292 44.4887 100.058 44.2958 100.551 44.0359C101.449 43.5631 103.47 42.7093 104.401 42.635C104.25 42.8369 104.399 42.757 104.032 42.9738C102.623 43.8064 102.638 43.6759 101.022 44.91C100.48 45.3238 100.142 45.7361 99.4186 46.118C97.7293 47.0096 96.2767 47.2775 95.4154 47.7341C94.7523 48.0862 92.9903 49.6732 92.524 50.4693C92.2019 51.0185 91.7983 52.0238 92.029 52.6497C92.5215 53.0506 92.807 52.6717 93.5639 52.7296C93.8834 54.0468 92.5348 55.3273 94.9607 55.272C95.2193 54.9851 95.2206 54.8276 95.7465 54.7175C96.0664 55.4841 96.3648 56.2455 97.4345 56.2238C98.4188 55.3692 97.9557 54.2445 98.5232 53.2789C98.973 52.5131 100.095 52.2155 101.025 51.7589C102.287 51.1398 103.61 50.1993 104.679 49.3972C105.166 49.0315 105.321 48.6781 105.958 48.6111C106.68 49.1125 106.172 49.4168 105.995 49.8972C106.185 50.0578 106.192 50.074 106.357 50.2828C108.286 50.5205 108.052 49.273 108.765 48.1357C109.226 47.4009 110.983 46.8429 112.184 46.7597C112.157 46.7925 112.12 46.8009 112.104 46.8585L111.773 47.1411C111.571 47.2772 111.436 47.332 111.27 47.4353C108.285 49.2938 109.8 50.8069 107.426 51.3458C106.566 51.5412 106.052 51.4223 105.498 50.9201L105.042 50.5285C104.592 50.7989 103.329 51.5757 103.072 51.9113C104.405 53.2761 109.535 53.3636 111.725 56.0611C112.144 56.5782 113.291 58.0051 113.479 58.817C112.555 58.4963 111.404 56.788 110.303 56.2569C110.212 58.7187 108.694 60.5691 108.749 63.5975C108.768 64.6745 109.505 66.0154 109.911 66.8841C111.233 69.7122 114.188 72.1525 117.311 72.8756C118.406 73.1291 120.098 73.1188 121.061 73.53C122.632 74.2014 123.246 76.9072 122.136 78.9072C121.783 79.543 121.209 79.8808 120.604 80.3193C120.056 80.7165 117.78 82.5647 118.695 83.9643C119.688 84.2347 119.911 83.4191 120.945 83.2932C120.943 83.6903 120.784 84.5047 120.853 84.7498C120.972 85.1721 121.972 86.2193 122.698 85.1134C122.82 84.9264 122.879 84.78 122.991 84.6095C123.298 84.1397 123.023 84.3913 123.462 84.2174C124.154 84.7144 123.705 85.0907 124.393 85.3939C126.412 86.2838 126.284 81.1875 126.284 81.1838C125.595 77.0367 125.492 77.5323 125.673 73.7861C125.751 72.1669 124.878 71.6235 123.548 70.6226L122.124 69.2426C121.244 68.3179 117.819 63.6843 117.897 62.7016C118.323 62.7519 118.422 62.8569 118.707 63.1404C120.316 64.7378 120.071 64.9027 120.659 65.4869L120.767 65.3186C121.384 63.8798 120.993 61.1243 120.61 59.7559C119.578 56.0642 118.456 59.8976 117.499 50.7796C117.174 47.6852 114.853 40.6085 113.344 38.8964C112.876 40.05 111.637 41.8577 110.246 41.8986C108.611 41.947 108.499 39.2671 108.297 37.7464C107.209 37.7038 102.09 41.8997 101.419 38.5165L101.419 38.516Z" fill="#8D743D"/>
<path fill-rule="evenodd" clip-rule="evenodd" d="M30.749 36.7505C32.1644 41.9033 31.3729 43.5264 29.5285 47.9109C29.0353 49.0832 29.0679 49.2901 28.0644 49.9298C25.5314 51.5455 23.5425 52.292 22.0404 54.3418C18.7468 58.8372 20.3799 60.156 19.1254 65.3739C18.3673 68.5271 16.6358 70.0151 13.795 70.5036C11.013 70.9822 11.784 69.8079 11.7604 75.1375C11.7604 76.5601 10.8267 81.1066 11.0077 81.7868L14.4163 81.9743C14.1687 83.8182 12.0454 85.2724 16.2831 85.0291C17.3644 84.967 17.9491 84.8702 18.052 83.7409C18.1542 82.6248 17.9644 81.8566 17.3681 81.2948C17.1407 81.0805 16.8473 80.7826 16.5994 80.5944C14.7278 79.1721 13.6361 78.3024 13.8107 75.6946C14.1573 70.5144 16.7248 72.9451 19.5914 72.2901C20.3679 72.1128 21.0977 71.462 21.2211 70.7068C19.1705 70.1656 19.6975 71.5645 17.4585 70.9946C16.9157 70.8568 16.8383 70.8066 16.7037 70.3989C17.3765 70.0867 17.8693 70.33 18.6854 70.1866C19.3654 69.6717 19.7446 69.2104 21.0599 69.5324C22.1937 69.8108 22.1821 70.2051 23.5738 69.719C27.4967 68.3488 26.2015 62.8415 31.1428 58.7992C34.7201 55.8723 37.4223 58.0169 41.7646 54.044C42.7924 53.1044 45.0653 49.9559 45.532 48.4881C43.8694 47.972 42.079 47.3738 40.3484 46.8979C39.1351 46.5641 35.2337 46.0526 36.0781 44.5709C36.8796 44.3753 36.7239 44.8851 38.6842 45.3597C40.3548 45.7645 45.7858 47.1939 46.6825 47.9108C47.5008 48.5658 47.2217 49.5455 47.1576 50.7603C47.1145 51.5776 47.199 53.5325 46.9637 54.1623C45.7008 57.5457 43.1543 55.3638 42.6028 56.5768C42.5873 56.6112 42.5607 58.5841 42.777 58.9534C43.3032 59.8506 48.2854 57.5113 48.4092 57.1482L48.2181 52.7137C48.2181 50.3351 48.7072 48.7165 48.9818 46.5417C49.2012 44.8032 47.5823 44.1391 45.7177 42.8385C44.319 41.8627 42.9752 40.9935 41.5639 40.0366C40.4329 39.2695 38.2597 37.9489 37.5734 36.9556C36.3685 37.308 36.1893 37.4451 34.8009 37.035C33.806 36.7414 33.2781 36.4368 32.5486 36.0898C31.9763 36.7841 31.8803 36.6872 30.749 36.751V36.7505Z" fill="#8D743D"/>
<path fill-rule="evenodd" clip-rule="evenodd" d="M104.702 12.6135C105.491 11.6912 107.844 12.4958 108.266 13.3741C107.871 13.7092 106.658 14.0995 106.029 13.971C105.404 13.8431 104.719 13.2627 104.702 12.6135H104.702ZM99.4368 11.7784C98.8274 11.7793 98.3955 11.7993 97.8924 12.0889C97.783 13.0111 98.4321 13.395 98.4714 14.3275C98.5234 15.5571 97.5094 14.9907 98.1511 16.6923C99.5759 16.6035 103.119 16.271 102.671 18.8842C102.4 20.4628 100.369 20.0908 99.1889 20.8922C99.303 21.2665 100.496 22.7609 100.788 22.9993C101.768 22.663 101.744 21.8552 104.748 21.487C106.413 21.2833 107.618 20.7883 109.081 20.3637C109.404 22.9658 108.955 24.572 107.684 26.237C102.726 32.7362 92.2275 26.4733 92.2275 33.5156C92.2275 36.0866 94.1475 37.9476 96.0858 36.0521C97.8051 34.3709 97.6293 32.7004 100.13 32.0609C101.411 31.7336 103.443 31.5894 104.835 31.4362C108.975 30.9805 114.328 31.168 115.788 26.3291C116.876 22.7235 116.732 22.241 116.353 18.9183C117.895 19.7381 117.053 25.1896 116.712 26.6001C115.606 31.1887 111.415 31.8524 107.545 32.246C103.943 32.613 99.0384 32.4102 98.1909 35.2155C97.2006 38.4933 100.309 37.4583 102.953 37.2593C102.553 38.6244 101.614 39.716 106.367 37.4025C107.057 37.0674 107.394 36.8458 107.95 36.4406C108.475 36.0575 108.947 35.5166 109.642 35.336C109.431 36.7323 109.264 36.6558 109.449 38.2143C109.55 39.0723 109.602 40.1675 110.114 40.77C111.989 40.7508 112.523 37.1683 113.585 36.213C113.916 36.4826 113.852 36.5462 114.059 37.2014C114.166 37.5425 114.279 38.0386 114.398 38.3338C114.659 38.9831 116.33 40.3032 116.618 38.6022C116.676 38.259 116.692 37.8976 116.707 37.5497C116.733 36.9289 116.718 36.1912 116.841 35.5709C117.23 33.6203 118.061 34.3758 119.213 33.516C119.225 32.3768 118.933 31.5938 119.731 30.8366C120.196 30.3958 121.395 30.0387 122.029 29.8001C121.894 28.6891 121.354 28.3283 122.067 27.2796C122.331 26.8909 122.41 26.853 122.735 26.4716C123.032 26.1221 123.076 25.9329 122.83 25.4351C121.631 23.0121 123.601 22.683 124.273 21.5808C122.365 21.6535 121.229 20.6356 120.252 19.8223C118.859 18.6641 118.506 15.829 117.132 14.3708C114.689 11.7772 115.277 13.1772 114.12 8.49219C113.496 8.64981 112.909 9.42467 111.232 10.0641C107.212 11.5966 105.763 9.98456 103.325 11.1152C101.393 12.0114 101.708 11.7752 99.4366 11.7786L99.4368 11.7784Z" fill="#8D743D"/>
<path fill-rule="evenodd" clip-rule="evenodd" d="M34.6962 15.6715C34.8601 16.2991 34.6297 16.8366 34.2626 17.2093C33.7246 17.2026 33.3716 17.0095 32.9427 16.756C32.5498 16.5237 32.1202 16.4494 31.945 15.9564C32.5113 15.5814 33.8887 15.5078 34.696 15.6715H34.6962ZM27.5912 14.4597C26.5182 15.66 25.9834 12.975 24.2173 13.4316C23.3361 13.6591 21.858 15.9202 18.9841 17.427L16.4796 18.4024C16.0071 18.5337 15.959 18.4352 15.5908 18.7446C18.5536 19.9084 17.2758 22.5815 17.4187 24.3144C22.5677 22.7966 16.8537 27.5174 20.6877 31.0912C21.3503 30.8633 21.4399 30.221 21.7996 29.7973C21.9315 29.6414 21.8794 29.7169 22.0224 29.6124C22.7655 30.4088 22.9185 31.9326 23.5189 32.9497C24.113 33.9553 25.1047 34.8201 26.6105 34.9017L27.067 31.3786C27.7568 31.561 28.8358 33.0274 29.2381 33.638C29.9026 34.6462 29.936 35.7622 31.6109 35.6292C31.7969 35.2105 31.9168 34.5276 31.9971 33.9952C32.9016 34.2636 32.7282 35.0914 33.8656 35.5654C34.7756 35.9448 35.6192 36.239 36.6774 36.1543L36.7104 35.0834C37.6669 35.3384 38.2045 36.4899 39.9078 37.5721C40.5873 37.3829 41.1603 37.0834 41.5835 36.6757C42.2542 36.0298 42.1024 35.6481 41.6334 34.8628C39.0529 30.5393 35.1877 31.6272 30.5009 30.2196C26.0222 28.8749 22.6859 26.8207 22.4965 22.3684C22.4516 21.3105 22.6436 18.3909 23.1927 17.7102C23.3673 18.6763 22.186 23.5117 25.1378 26.2187C30.86 31.4667 38.8113 28.4302 41.9859 33.4378C43.8443 36.3698 43.5125 36.4441 41.1077 38.3466C41.5309 38.7842 42.1242 39.1089 42.663 39.4703C43.5473 40.0631 47.1499 42.5965 47.6049 42.7416C49.5517 30.5505 38.3509 30.9812 34.0132 25.8808C32.4924 24.0925 29.9554 21.4259 30.6875 19.0385C31.2403 19.5173 31.0906 20.8821 32.1188 21.4739C33.6478 22.3541 35.2875 21.8782 37.5738 24.0479C38.1266 24.5725 39.4735 25.9079 40.1327 25.1512C40.2489 24.9951 40.337 25.4183 40.2042 24.7745C40.1629 24.5743 40.0923 24.4556 40.0393 24.2491C39.43 21.8835 42.0136 23.2304 42.177 23.1933C42.855 23.039 43.256 22.0088 42.1115 20.9547C41.6454 20.5253 41.3106 20.1724 40.879 19.7803C39.1738 18.2328 38.3499 17.2046 37.1945 16.1024C36.748 15.6768 36.4323 15.3373 35.9678 14.9226C35.4809 14.4872 35.1543 14.2533 34.7345 13.7419C34.254 13.1565 33.9691 12.9855 34.1703 12.0446C33.4269 12.0296 32.8634 11.8247 32.1657 11.7702C31.4203 11.712 30.7541 11.9675 30.1238 12.0926L30.2954 12.4229C30.3551 12.539 30.3274 12.4528 30.4222 12.6779C29.0237 12.4943 28.2434 11.7112 26.6032 11.8203C26.3379 12.8493 27.5242 13.495 27.5917 14.4597H27.5912Z" fill="#8D743D"/>
<path fill-rule="evenodd" clip-rule="evenodd" d="M5.28249 90.4604L2.18535 96.6238L34.2423 96.621L31.6924 87.742L36.3329 86.1813C36.5231 86.0847 36.471 86.0847 36.5771 85.9865C36.1381 85.7011 35.6359 85.3484 35.1925 84.9865C34.4109 84.3491 34.4263 84.4661 33.2344 84.4695L19.22 84.47C18.6405 84.6251 19.0551 85.2899 17.9365 85.7987C17.2828 86.0959 16.5025 86.1197 15.7506 86.1428C14.08 86.1954 12.5968 86.2043 12.4671 84.4688L1.97217 84.5131L5.28266 90.4601L5.28249 90.4604Z" fill="#8D743D"/>
<path fill-rule="evenodd" clip-rule="evenodd" d="M139.814 84.4706H127.201C126.844 84.7086 127.082 84.3291 126.835 84.9855C126.739 85.2405 126.741 85.3087 126.614 85.5575C126.405 85.966 126.236 86.1187 125.772 86.3291C124.602 86.8593 124.202 86.3975 123.33 86.1275C121.655 87.1153 120.759 86.7168 119.853 85.2007L119.726 85.0183C118.144 85.3396 118.51 84.9336 117.591 84.4706C117.33 84.4085 108.085 84.3719 107.635 84.5778L105.799 85.9538C105.98 86.1443 105.664 86.0794 106.463 86.3381C106.68 86.4083 106.879 86.4716 107.067 86.5336C107.931 86.8198 110.156 87.4703 110.636 87.9031L108.117 96.6251L139.667 96.6078L136.478 90.4194L139.814 84.4704L139.814 84.4706Z" fill="#8D743D"/>
<path fill-rule="evenodd" clip-rule="evenodd" d="M75.9542 50.0226C75.2099 47.7194 72.7481 39.6779 71.4181 38.7797C71.3658 39.5137 71.8529 42.6423 71.6281 46.0784C71.3614 50.1577 70.5042 55.2069 69.2845 59.0406C68.7712 60.655 67.1518 64.5174 67.1387 64.567C68.5675 64.1876 70.0692 62.0278 70.7644 60.6643C71.6279 58.9701 72.118 56.891 72.772 55.0311C73.0908 55.5204 73.7865 58.6401 74.0088 59.5028C74.2447 60.4175 74.9006 63.4577 75.2772 63.9998L75.4018 63.849C75.7204 63.1908 76.983 55.8749 77.6178 54.3916C78.4403 57.3951 79.4633 61.3578 81.6278 63.6562C82.0758 64.1316 82.8261 64.9801 83.4034 65.0929C83.2965 64.2183 82.8777 63.1107 82.6544 62.2263C81.0536 55.892 80.2835 46.595 80.8476 40.0173C80.9259 39.1051 81.0822 38.8732 80.8831 38.4492C80.2813 38.8021 79.6182 40.3408 79.3531 40.9704L77.0246 46.9467C76.7872 47.6415 76.2616 49.5623 75.9542 50.0228V50.0226Z" fill="#FFFDFD"/>
<path fill-rule="evenodd" clip-rule="evenodd" d="M2.58298 35.314C3.52812 35.9305 4.18721 36.1002 4.59434 37.143C4.47359 38.2254 2.53643 40.2192 1.9502 40.5754C2.27654 40.9114 2.66225 41.0035 3.24124 41.1231C3.87807 41.2544 4.20408 41.175 4.67344 40.9049C5.27283 40.56 6.24023 39.5856 6.99158 39.9095C7.61678 40.3479 6.36132 42.5478 7.47477 44.3748L8.05797 43.7748C8.53948 43.03 9.11965 41.9458 9.23551 41.0468C9.47483 39.1952 11.0986 39.7168 12.686 39.6845C12.1375 38.767 11.5875 38.5069 11.3221 36.8951C10.6987 33.1132 14.2708 31.0309 17.8404 34.7726C18.5141 35.4784 19.0331 36.1706 19.4319 37.3316C20.2309 39.6564 19.9536 43.6958 17.9078 43.433C15.9057 43.1761 16.0012 43.2477 14.7 44.2433C14.9375 44.5349 18.3838 45.3853 15.1864 49.7353C13.9634 51.3991 12.8422 52.6432 11.8328 54.8192C10.1832 58.3754 10.5239 61.7807 14.5216 63.0863C15.7408 63.4838 16.9661 63.5826 18.3426 63.647L18.5135 61.6341C16.6696 61.9789 15.0664 62.2244 13.7976 61.1257C12.6636 60.144 12.3311 58.1251 12.7811 56.714C13.434 54.6655 15.0293 53.0498 16.1628 51.2547C16.3171 51.0102 17.7442 47.8643 18.4285 51.2304C18.5926 52.0375 18.6089 52.6356 18.9843 53.0077C19.6197 51.515 21.9538 48.6632 21.6118 47.8541C21.2526 47.4416 20.5408 47.1327 20.2514 46.5823C19.8086 45.7399 20.2963 45.049 20.5769 44.4214C21.1632 43.1106 21.4887 41.594 21.5465 39.9626C21.6568 36.8494 20.4518 34.2678 18.2225 32.3759C15.4635 30.0348 13.6461 30.6195 10.4269 32.3224C9.2883 32.9249 8.22528 33.6361 6.86947 34.1188C5.44688 34.6253 4.03306 34.7018 2.58315 35.3141L2.58298 35.314Z" fill="#8D743D"/>
<path fill-rule="evenodd" clip-rule="evenodd" d="M30.6976 60.7645C29.2374 62.5172 28.6554 63.7815 27.832 66.0086C28.4141 66.4996 29.7673 66.8962 30.6949 66.9013C31.9993 66.9086 33.1568 66.296 33.6958 67.6199C33.7634 68.3852 31.4012 69.7068 30.8946 71.1764C30.3844 72.6569 32.991 73.5514 34.2102 74.0239C34.9747 74.3206 35.7135 74.5689 36.4497 74.8607C37.7294 75.3692 38.2531 76.4747 40.2112 77.3846C41.797 78.1211 41.5844 77.5619 42.7361 77.257C43.2415 79.1814 43.0658 79.5657 44.0497 79.8344C44.6549 79.9998 46.7858 80.4564 47.2477 80.2413C47.5872 79.481 47.1821 78.4922 46.8762 77.7995C46.2781 76.4457 46.5284 76.7297 45.2656 76.1983C43.7478 75.56 43.7043 74.6102 41.1364 74.0461C38.3636 73.4368 32.5641 71.5819 37.398 68.7212C38.849 67.8627 40.1299 67.1093 40.985 66.0226C42.4011 64.2237 42.3851 64.1081 41.1054 61.9844C39.742 59.7228 39.9511 60.2705 36.731 60.6767C35.7667 60.7986 34.7618 60.8855 33.7678 60.9147C32.6815 60.9471 31.6245 60.7396 30.6978 60.7645H30.6976Z" fill="#8D743D"/>
<path fill-rule="evenodd" clip-rule="evenodd" d="M98.9035 70.9607C96.8651 70.9 94.4802 70.7422 92.6132 71.5002C91.3464 72.015 90.7705 72.8647 91.8033 73.9263L93.3747 73.9309C93.5145 74.7767 93.0256 74.9288 92.92 75.6791C93.1109 76.6698 94.2763 75.8661 94.7919 75.8019C95.1916 77.3954 95.0212 77.9316 96.0256 77.9827C98.266 74.8976 98.4781 73.4975 103.419 72.6794C104.36 72.5235 105.388 72.6664 106.384 72.486C107.248 72.3292 108.241 71.8296 107.703 70.8562C107.114 69.7924 105.678 69.4607 106.436 66.2111C105.571 66.0431 104.935 65.5665 104.313 65.1368C103.788 64.7751 102.872 64.0674 102.708 63.3107C104.868 63.596 105.269 66.0901 107.771 64.8489C107.463 61.2833 108.149 60.7012 108.976 57.8254C106.394 58.1975 104.168 58.7769 101.421 57.9789C100.215 57.6289 99.8855 57.0767 99.2441 58.3033C98.3916 59.9343 97.9307 62.0003 98.7053 63.9301C99.2369 65.2545 100.808 66.3451 101.684 67.7791C102.993 69.9217 100.99 71.0279 98.9035 70.9611V70.9607Z" fill="#8D743D"/>
<path fill-rule="evenodd" clip-rule="evenodd" d="M53.414 54.8638C52.9148 47.6498 55.0348 41.14 59.3935 36.3333L60.6288 35.1589C63.0354 33.1801 65.3316 31.636 69.0021 31.1005C72.0723 30.6524 74.8205 31.1869 77.2847 32.2933C84.1776 35.3876 88.292 43.1498 88.8452 50.4571C89.3346 56.922 87.7684 61.6732 85.0119 66.2677C83.9266 68.0765 81.8608 70.1351 80.2623 71.292C75.5773 74.6833 70.3517 75.3189 64.9632 73.0275C58.2648 70.1792 53.9218 62.1997 53.4139 54.864L53.414 54.8638ZM69.1084 30.0854C66.2671 30.4731 63.6224 31.6224 61.7232 33.0383C54.8407 38.1696 51.841 46.1444 52.431 54.7761C52.759 59.5722 54.7987 65.1266 57.8609 68.7593C58.0899 69.0311 58.2856 69.1432 58.5261 69.4335C59.9327 71.1303 62.2592 72.8686 64.3986 73.8618C77.494 79.9419 90.8174 67.3787 89.842 50.7072C89.6568 47.5421 88.8762 45.0076 87.8424 42.3512C86.8209 39.727 85.2411 37.6186 83.8193 35.9319C82.4757 34.3382 79.8148 32.3749 77.9413 31.5067C75.3459 30.3031 72.3481 29.6428 69.1086 30.0854H69.1084Z" fill="black"/>
<path fill-rule="evenodd" clip-rule="evenodd" d="M63.1308 53.3617C62.3105 52.6126 62.7352 50.443 62.7628 49.2243L62.8883 39.9575C62.943 37.4503 64.1291 37.7708 64.9241 38.8277C66.3083 40.6674 66.1359 44.2453 65.9586 46.8065C65.7912 49.2249 65.992 53.5634 63.1308 53.3619V53.3617ZM58.4268 64.7737C58.6221 64.9098 58.1161 65.0566 58.8025 64.8954C58.8143 64.8923 59.1951 64.6356 59.2129 64.6229C60.807 63.4541 61.758 61.1314 62.3073 59.2796C63.5262 55.1683 62.044 55.1927 64.4234 54.144C71.8882 50.8541 69.5268 37.271 64.2014 37.1008C63.4538 37.0766 62.8634 37.4206 62.4222 37.7674C61.7752 38.2764 61.8654 38.7074 61.4487 39.2062C60.4344 40.4205 59.3694 38.7959 59.5847 42.0595C59.8856 46.6267 59.6502 56.2348 59.1208 60.7752C59.0489 61.3918 58.4225 64.7461 58.4271 64.7739L58.4268 64.7737Z" fill="#FFFDFD"/>
<path fill-rule="evenodd" clip-rule="evenodd" d="M124.871 50.223L125.732 47.0333C120.827 43.3453 121.735 33.8901 127.996 33.8068C129.438 33.7877 131.3 34.2732 132.074 35.0619C133.194 36.2044 130.859 36.742 130.996 38.8924C131.127 40.9452 134.133 44.2794 135.475 45.3003C136.449 43.847 136.642 39.1007 136.899 38.2113C137.005 38.1628 136.663 37.8462 137.795 38.3003C138.868 38.7305 139.533 39.0766 140.682 38.3764C140.627 37.5407 139.959 37.4287 140.083 36.0642C140.17 35.1049 140.798 34.5378 140.786 33.8316C139.587 33.693 139.498 33.8985 138.356 33.4383C137.799 33.2139 136.859 32.7822 136.275 32.6882C134.877 32.4634 133.435 33.6832 131.322 33.1283C129.619 32.6814 128.821 31.9022 126.663 32.1699C123.741 32.5316 121.423 34.7517 120.756 37.6414C119.961 41.0816 120.937 43.8928 122.538 46.6697L124.164 49.3253C124.491 49.8584 124.423 49.8942 124.871 50.2231L124.871 50.223Z" fill="#8D743D"/>
<path fill-rule="evenodd" clip-rule="evenodd" d="M125.811 51.373C126.382 51.9853 126.49 51.7565 126.803 52.313C126.521 52.6621 126.449 52.6136 125.803 52.7916C125.403 52.9017 125.078 52.9701 124.744 53.2012C123.981 53.7288 123.937 55.0637 123.949 56.0767C124.647 55.8658 125.156 55.6379 125.998 55.6379C132.034 55.6379 131.403 63.6439 126.717 64.9885C124.689 65.5704 123.474 64.799 122.119 64.0872L121.661 66.2781C122.96 67.196 125.645 67.4507 127.215 66.8305C131.229 65.2445 130.91 61.757 133.49 58.9073C134.213 58.1094 135.984 55.712 135.889 54.1742C133.943 53.9475 132.843 55.4667 132.499 54.6304C132.464 54.5466 132.437 54.3978 132.418 54.3099L131.326 49.3621C130.647 49.5764 130.098 49.9897 129.335 49.9093C128.534 48.9415 128.533 47.2619 127.867 46.1426C126.608 47.2535 125.774 50.0615 125.811 51.373V51.373Z" fill="#8D743D"/>
<path fill-rule="evenodd" clip-rule="evenodd" d="M70.469 4.59776C72.946 3.83579 73.9693 7.61831 71.6381 8.36484C69.6021 9.01652 68.4012 6.68549 69.3461 5.38806C69.6674 4.94676 69.877 4.78015 70.469 4.59776ZM69.5241 1.20157C69.1208 1.89448 69.3576 3.0404 67.5498 3.46643L70.0422 17.2528L72.2102 17.2353L74.7483 3.57519C74.1566 3.19327 73.9478 3.31034 73.4102 2.7647C72.7725 2.11725 73.0742 1.84715 72.6912 1.21107C71.4103 1.04734 70.8084 1.07042 69.5241 1.20174V1.20157Z" fill="#8D743D"/>
<path fill-rule="evenodd" clip-rule="evenodd" d="M60.1652 20.6268L60.7585 22.6775C62.6562 22.0805 62.7805 21.7706 65.4837 21.1047C68.9431 20.253 73.2979 20.2689 76.775 21.1454C79.4811 21.8275 79.8568 22.2406 81.5535 22.751C81.6371 22.4495 81.7095 22.0613 81.8248 21.7119C81.964 21.2905 82.1227 21.0972 82.2444 20.6117C81.0394 20.3029 79.7585 19.6096 77.2865 19.0138C73.4706 18.094 69.0467 18.0831 65.2034 18.9567C63.9043 19.2521 61.0908 19.9954 60.165 20.6268H60.1652Z" fill="#8D743D"/>
<path fill-rule="evenodd" clip-rule="evenodd" d="M46.6486 75.4099C47.2999 76.2117 47.8764 76.9554 48.2645 78.4248C48.6905 80.0372 48.5704 81.1371 47.0144 81.4756C47.3618 82.2579 47.7491 82.575 48.5841 82.9993L57.8698 81.4903C57.592 81.0891 58.0884 81.5372 57.4665 81.095C57.3756 81.0304 57.1677 80.9126 57.0591 80.85C55.7641 80.105 54.9764 80.4359 53.5219 80.6502C51.7966 80.9045 49.8528 80.9724 49.5788 79.2674C49.0103 75.7278 51.4363 72.9808 52.8006 71.4195L51.5107 69.3749C51.4459 69.2585 51.383 69.1316 51.3184 69.0342L50.9867 68.6699C50.1908 69.2872 49.0701 70.5765 48.3795 71.576C47.505 72.8413 47.1885 73.7779 46.6484 75.4099H46.6486Z" fill="#8D743D"/>
<path fill-rule="evenodd" clip-rule="evenodd" d="M79.5332 3.78149C79.3514 4.62507 78.8168 5.28032 77.8185 5.36447C76.6202 5.46559 76.1986 4.70278 75.7426 4.16596L75 8.20433C76.7236 7.34498 78.2763 6.37008 80.6148 6.18989C85.358 5.82427 87.8332 9.47682 84.0201 14.5157C83.0539 15.7926 81.3941 17.8035 80.2261 18.6001C80.5345 18.8649 80.9826 18.9696 81.4216 19.1442C81.6647 19.2411 81.8637 19.3296 82.0887 19.4192C82.9495 19.7607 82.6761 19.5076 82.7783 19.4341C83.3581 19.0149 82.5585 18.679 83.3671 17.4821C83.7369 16.9346 84.3678 16.7007 85.2993 16.7448C85.0274 15.7874 84.9878 15.0418 85.5621 14.3187C86.0945 13.6486 86.4855 13.4974 87.5465 13.3608C86.8553 11.6058 87.0211 9.91167 89.0178 9.19568C87.9912 8.05282 87.4092 8.06673 87.664 5.88195C86.1379 6.30832 85.1323 6.48155 83.8946 4.9717C83.4834 4.47034 83.5548 4.18224 83.2869 3.77148C82.6906 4.16596 82.5639 4.59385 81.5517 4.63372C80.4998 4.67444 80.2615 4.24977 79.5331 3.78132L79.5332 3.78149Z" fill="#8D743D"/>
<path fill-rule="evenodd" clip-rule="evenodd" d="M54.6184 5.88161C54.882 8.15598 54.146 8.21383 53.2646 9.19535C54.9839 9.82463 55.5432 11.4359 54.7383 13.3586C56.6534 13.6121 57.508 14.6728 56.9858 16.7421C59.8305 16.6255 58.7997 18.6893 59.6628 19.5716L62.0439 18.6729C60.7987 17.6618 59.3068 15.9552 58.3212 14.5856C57.3538 13.2417 55.7685 11.2451 56.5326 8.88011C57.1528 6.9595 59.1167 6.01955 61.5383 6.18056C63.9736 6.34293 65.4848 7.35957 67.2308 8.22401L66.5321 4.18733C64.729 6.43302 63.0319 5.11252 62.7495 3.78132C62.0584 4.22602 61.8375 4.62711 60.8647 4.63593C59.7747 4.64577 59.6214 4.1853 58.9957 3.77148C58.3566 4.75198 58.1456 6.86754 54.6188 5.88195L54.6184 5.88161Z" fill="#8D743D"/>
<path fill-rule="evenodd" clip-rule="evenodd" d="M63.1313 53.3604C65.9925 53.562 65.7915 49.2235 65.9591 46.8051C66.1365 44.2438 66.3087 40.6659 64.9246 38.8262C64.1296 37.7695 62.9436 37.449 62.8888 39.956L62.7633 49.2228C62.7355 50.4417 62.311 52.6113 63.1313 53.3602V53.3604Z" fill="#FF0000"/>
<path fill-rule="evenodd" clip-rule="evenodd" d="M60.8201 23.935L60.5508 26.3525C62.1645 25.8782 64.7231 23.501 71.0069 23.4648C72.9016 23.4538 75.2769 23.7821 76.929 24.33C79.7887 25.2772 79.7577 25.6043 81.7098 26.4245L81.4115 23.9793C79.2624 22.5154 74.2093 21.5668 71.1405 21.5587C68.0186 21.5502 63.0642 22.4448 60.8201 23.935V23.935Z" fill="#8D743D"/>
<path fill-rule="evenodd" clip-rule="evenodd" d="M28.1851 7.55941L27.636 5.95608L26.443 6.33528L26.9121 7.94846C25.8314 8.0114 24.9121 7.45863 23.7593 7.34377C20.8052 7.04991 20.0249 9.17751 22.3384 11.1806C23.9614 12.5857 23.5811 12.3497 24.936 12.278L23.0088 10.7724C22.5172 10.4033 21.6326 9.61287 21.8139 8.58012C23.1358 7.40672 25.427 8.73197 27.2815 8.77524L27.8716 10.8794L29.4699 11.1404L28.6378 8.5165C28.8834 8.16308 29.1455 8.08402 29.432 7.67207C29.8745 7.03651 31.4966 4.81236 32.4678 5.25281C33.6677 6.23874 31.9986 9.639 31.6715 10.647L32.5666 10.706C33.3957 9.46917 34.6287 5.17884 32.9 4.43554C30.8286 3.54445 28.9348 6.93047 28.1851 7.55975V7.55941Z" fill="#8D743D"/>
<path fill-rule="evenodd" clip-rule="evenodd" d="M5.70399 41.7365C4.48968 42.1102 4.97153 42.2097 3.28432 42.3266C2.69639 45.7424 4.27752 46.0791 5.52977 49.0389C6.00014 50.1503 5.66638 50.5435 5.52606 51.5913C6.04416 51.5289 6.53326 50.1169 7.02437 49.1743C8.21709 46.8855 11.3783 42.4961 10.545 40.7891C10.4055 40.9877 10.1286 43.5522 8.27629 45.3308C6.42059 47.1127 5.79067 43.1781 5.70399 41.7363V41.7365Z" fill="#8D743D"/>
<path fill-rule="evenodd" clip-rule="evenodd" d="M84.3018 81.5062L93.6961 82.9552C94.4041 82.5023 94.8232 82.2867 95.2124 81.5001C95.5349 80.8484 95.7935 79.9771 95.8294 79.1723C94.5281 78.6418 94.4523 78.9567 94.0565 77.3262C93.4542 77.2901 93.0201 77.1701 92.5761 77.0176C92.7818 79.8574 92.7041 80.9801 89.5577 80.7519C87.166 80.5785 85.8992 79.8842 84.3018 81.5062Z" fill="#8D743D"/>
<path fill-rule="evenodd" clip-rule="evenodd" d="M134.317 45.7791C134.291 47.112 134.861 50.7695 137.071 50.4365C137.692 50.343 138.46 50.0209 138.765 49.6304C138.2 48.9412 137.61 48.7359 137.738 47.3429C138.067 43.7779 139.809 43.5798 138.795 40.5166C138.583 39.8763 138.635 39.7411 138.01 39.5762C137.663 40.0485 137.243 43.3495 136.968 44.2891C136.401 46.2267 136.227 47.6158 134.317 45.7793L134.317 45.7791Z" fill="#8D743D"/>
<path fill-rule="evenodd" clip-rule="evenodd" d="M92.7245 40.4136L98.0626 40.7334C98.1717 39.7447 98.4164 39.3723 98.7126 38.6348C98.2368 38.3745 97.9061 38.3513 97.5394 37.9714C97.1151 37.5313 97.1903 37.1458 96.8808 36.7591C96.2472 37.24 95.2854 38.493 93.432 37.6762C92.2756 37.1663 91.5487 36.0102 91.2573 34.76L89.9736 34.7227C90.3362 35.5538 90.9867 36.4761 91.4517 37.3784C91.8055 38.0647 92.5513 39.6616 92.7244 40.4134L92.7245 40.4136Z" fill="#8D743D"/>
<path fill-rule="evenodd" clip-rule="evenodd" d="M72.1855 88.6996L73.087 88.6863L73.2044 85.0163C73.2153 85.1812 73.8987 88.4704 74.0141 88.7659L74.844 88.7815C75.2375 87.8589 75.2857 86.2963 75.8259 85.4574L75.7731 88.816L76.6797 88.8004L76.7996 84.1554L75.3896 84.1145C75.2282 85.1217 74.9339 86.5866 74.4789 87.4149L73.9564 85.195C73.7002 83.7358 73.8707 84.0703 72.3326 84.0202L72.1859 88.6996H72.1855Z" fill="black"/>
<path fill-rule="evenodd" clip-rule="evenodd" d="M55.4829 1.35689C53.0932 2.03369 54.0483 5.74138 56.5618 5.02658C58.8939 4.36336 57.9535 0.657869 55.4829 1.35689V1.35689Z" fill="#8D743D"/>
<path fill-rule="evenodd" clip-rule="evenodd" d="M85.7107 1.38743C83.2886 2.1511 84.4464 5.89137 86.9562 4.98196C89.1994 4.16944 88.1217 0.627333 85.7107 1.38743V1.38743Z" fill="#8D743D"/>
<path fill-rule="evenodd" clip-rule="evenodd" d="M93.643 87.1681C94.588 87.1703 95.7131 87.4733 95.0241 88.5366C94.377 88.6388 94.0829 88.4861 93.4164 88.3656L93.6432 87.1683L93.643 87.1681ZM91.9111 90.7178L92.8671 90.8717L93.2116 89.1561L94.36 89.3724C94.8261 89.6191 94.6512 89.7993 94.5522 91.2928L95.5976 91.4747C95.4911 90.5309 95.9834 89.6362 95.3635 89.1678C96.6537 88.4648 96.3833 87.3564 95.7556 86.8978C95.3144 86.5756 93.4159 86.1184 92.8563 86.2383L91.9111 90.718V90.7178Z" fill="black"/>
<path fill-rule="evenodd" clip-rule="evenodd" d="M86.1412 94.2096C85.5068 95.9328 83.1252 95.1824 83.9005 92.8066C84.4769 91.0417 86.9685 91.9634 86.1412 94.2096ZM84.4527 91.1317C81.7001 91.9128 82.4231 96.9157 85.7596 95.8886C88.0829 95.1734 87.7046 90.2082 84.4527 91.1317Z" fill="black"/>
<path fill-rule="evenodd" clip-rule="evenodd" d="M81.8707 88.4245C79.3615 88.6464 79.9523 85.6089 81.0799 85.2726C82.0102 84.9959 82.5512 85.6281 82.6313 86.4206C82.7391 87.483 82.4073 87.9141 81.8707 88.4245V88.4245ZM80.6314 84.5091C78.0918 85.4241 78.9916 90.3982 82.2945 89.1763C83.258 88.82 83.8586 87.3323 83.563 86.0185C83.2975 84.8381 82.0559 83.9955 80.6314 84.5091Z" fill="black"/>
<path fill-rule="evenodd" clip-rule="evenodd" d="M88.733 87.323C86.5201 87.9131 87.1942 86.3995 87.2439 86.1019C87.8538 85.9755 88.4967 86.2018 88.8581 86.4404C88.921 86.8455 88.8677 87.0556 88.733 87.323ZM85.7402 89.7137L86.6962 89.7865L86.9456 88.0878C87.3721 88.0525 88.1108 88.0878 88.3704 88.4546C88.9387 89.5507 87.4244 90.0188 89.4666 90.2429C89.2422 89.1771 89.8304 88.6771 89.0909 87.9674C89.969 87.4321 90.2642 86.3454 89.4638 85.7072C89.0364 85.3667 87.0142 85.0512 86.4292 85.146L85.7402 89.7137V89.7137Z" fill="black"/>
<path fill-rule="evenodd" clip-rule="evenodd" d="M59.4205 91.7076C60.6495 91.5967 61.2175 91.3601 61.144 92.6379C60.7416 92.8595 60.1132 92.9777 59.4531 92.9216L59.4205 91.7076ZM58.3369 90.9971L58.7761 95.6293L59.6517 95.579L59.5706 93.749L61.0102 93.6521C61.3098 94.179 61.2841 94.6705 61.47 95.3449L62.544 95.2748C62.0291 94.6932 62.5667 94.0806 61.6585 93.1353C62.3043 92.4677 62.3728 91.4082 61.4467 90.9282C60.8215 90.6041 59.1375 90.9307 58.3369 90.9971V90.9971Z" fill="black"/>
<path fill-rule="evenodd" clip-rule="evenodd" d="M67.0616 93.3573C66.8114 93.1571 66.9639 93.3497 66.7138 93.0138C66.6374 92.9109 66.5782 92.7927 66.5106 92.6851L65.1618 90.4488L64.126 90.493L64.3078 95.1059L65.1742 95.1344L65.0827 92.0365C65.1259 92.0616 65.1698 92.0607 65.1817 92.1118C65.1936 92.161 65.2443 92.1697 65.26 92.1875C65.9007 92.9269 64.7984 91.5736 65.391 92.3431C65.4701 92.4459 65.567 92.6045 65.6535 92.744L67.1361 95.0128L68.0376 94.9885L67.8401 90.4158L66.986 90.332L67.0616 93.3572V93.3573Z" fill="black"/>
<path fill-rule="evenodd" clip-rule="evenodd" d="M44.8482 93.413L45.5655 96.3986C45.2832 96.2595 45.429 96.3864 45.1742 96.1563L44.2893 95.1679C43.881 94.7179 43.5099 94.3708 43.1689 93.9123C42.6533 93.9732 42.529 93.9773 42.1309 94.2108L43.2212 98.656L44.0628 98.4821L43.3463 95.4025C43.8746 95.7408 44.2211 96.2351 44.6414 96.706C45.0411 97.1535 45.4973 97.5152 45.9144 97.9565L46.7864 97.7812L45.7314 93.291L44.848 93.413H44.8482Z" fill="black"/>
<path fill-rule="evenodd" clip-rule="evenodd" d="M88.7443 96.4118L89.4215 96.524L90.0246 93.6052C90.2764 93.8535 90.05 93.4032 90.3226 93.9878C90.3437 94.0328 90.404 94.2727 90.4388 94.3849C90.5241 94.6587 90.6196 94.8874 90.7231 95.1821C90.9333 95.7804 91.1387 96.3143 91.2773 96.9029L92.2752 97.0243L93.1133 92.4532L92.2149 92.3166L91.657 95.3869L90.4351 92.0043L89.4449 91.7871L88.7441 96.4118H88.7443Z" fill="black"/>
<path fill-rule="evenodd" clip-rule="evenodd" d="M46.1265 86.7824L46.5169 88.5929L44.7764 88.939L44.3818 87.2812L43.4658 87.4362L44.4739 91.9661L45.4168 91.8068L44.9628 89.7435L46.7239 89.3465L47.1684 91.3307L48.0556 91.154C48.0286 90.409 47.7592 89.5947 47.6032 88.884C47.4904 88.3701 47.2499 87.0604 46.9833 86.623L46.1267 86.782L46.1265 86.7824Z" fill="black"/>
<path fill-rule="evenodd" clip-rule="evenodd" d="M102.121 90.6373C102.563 91.1207 102.784 91.2486 103.383 91.5862C103.513 91.6597 103.979 91.9637 104.028 92.0139C104.81 92.8168 102.947 93.5679 102.382 92.0623C102.234 91.6702 102.356 91.7864 101.491 91.5618C101.149 93.6371 103.958 94.2713 104.856 93.2179C106.467 91.3275 102.316 90.705 103.13 89.7442C103.463 89.3512 104.14 89.6902 104.549 89.8538L104.736 90.5962L105.547 90.8293C106.003 88.4272 101.764 87.6673 102.121 90.6373V90.6373Z" fill="#162026"/>
<path fill-rule="evenodd" clip-rule="evenodd" d="M52.9357 91.7528L53.5977 96.2876C54.1531 96.4099 56.4835 96.0482 57.0089 95.8156L56.9648 95.1103L54.4236 95.4116L54.2502 94.2029L56.4081 93.8963L56.3324 93.1005L54.1234 93.4062L53.9878 92.4304L56.317 92.0925L56.2609 91.3242L52.9355 91.7528H52.9357Z" fill="black"/>
<path fill-rule="evenodd" clip-rule="evenodd" d="M96.776 94.5205L96.8698 96.3134L95.7744 96.0737L96.776 94.5205V94.5205ZM93.8244 97.4251L94.7609 97.6129C95.0039 97.3238 95.1375 97.064 95.3168 96.7998L96.9841 97.1945L97.0678 98.1979L98.0615 98.4184L97.5574 93.4754L96.507 93.2637C95.9934 93.9187 95.575 94.6374 95.1601 95.279C94.7462 95.9193 94.1436 96.7403 93.8242 97.4252L93.8244 97.4251Z" fill="black"/>
<path fill-rule="evenodd" clip-rule="evenodd" d="M71.8448 91.5349L72.3346 93.1756L71.1947 93.1786L71.845 91.5349H71.8448ZM69.5918 94.9304L70.5504 94.9628L70.8945 94.0371L72.6095 94.0176L72.9311 94.9533L73.9188 94.9832L72.3773 90.3215L71.2132 90.2734L69.592 94.9304H69.5918Z" fill="black"/>
<path fill-rule="evenodd" clip-rule="evenodd" d="M71.8046 6.97428C71.396 7.26203 71.1614 7.57201 70.5446 7.26051C70.1343 7.05351 70.0032 6.56267 70.1904 6.10882C70.5083 5.33803 72.0598 5.26779 71.8046 6.97411V6.97428ZM70.4682 4.60083C69.8764 4.78322 69.6667 4.94983 69.3453 5.39113C68.4003 6.68873 69.6013 9.0196 71.6373 8.36791C73.9683 7.62138 72.945 3.83886 70.4682 4.60083Z" fill="black"/>
<path fill-rule="evenodd" clip-rule="evenodd" d="M38.7784 89.5813C39.3739 89.3899 39.5187 89.2692 40.1524 89.4201C40.378 89.7441 40.419 90.0443 40.3458 90.5183L39.0576 90.9023L38.7784 89.5813V89.5813ZM37.5615 89.1442L38.8409 93.5614L39.7436 93.3127L39.3299 91.6792C40.8061 91.3483 42.0291 90.7452 41.137 89.0738C40.5811 88.032 38.5648 88.6019 37.5615 89.144V89.1442Z" fill="black"/>
<path fill-rule="evenodd" clip-rule="evenodd" d="M63.813 86.438L63.7403 85.0774C64.8202 85.0371 65.485 84.7985 65.2445 86.1472C64.7713 86.4746 64.5777 86.4529 63.813 86.438V86.438ZM62.9856 89.0047L63.9314 88.9579L63.8899 87.2692C65.3387 87.1994 66.645 87.0919 66.2571 85.2771C65.9566 83.8715 64.106 84.2678 62.7734 84.3257L62.9856 89.0047Z" fill="black"/>
<path fill-rule="evenodd" clip-rule="evenodd" d="M51.8919 10.2226C49.7456 10.9905 50.8314 14.0691 52.9163 13.4276C55.0202 12.78 54.0007 9.46742 51.8919 10.2226Z" fill="#8D743D"/>
<path fill-rule="evenodd" clip-rule="evenodd" d="M89.333 10.2598C88.2667 10.6938 87.9814 11.5735 88.3308 12.46C88.6094 13.167 89.4761 13.7822 90.5117 13.3899C92.5171 12.6307 91.376 9.42822 89.333 10.2598Z" fill="#8D743D"/>
<path fill-rule="evenodd" clip-rule="evenodd" d="M89.7178 5.15355C87.616 6.07619 88.9346 8.93285 90.9029 8.27913C92.99 7.58605 91.8514 4.21666 89.7178 5.15355Z" fill="#8D743D"/>
<path fill-rule="evenodd" clip-rule="evenodd" d="M51.3036 5.17215C50.2944 5.6187 50.0158 6.52591 50.4553 7.45754C50.7626 8.10973 51.6661 8.67268 52.6572 8.20831C54.4185 7.38272 53.4624 4.21625 51.3036 5.17215V5.17215Z" fill="#8D743D"/>
<path fill-rule="evenodd" clip-rule="evenodd" d="M74.8438 91.1333L76.197 91.2152L76.0658 95.0717L77.0101 95.126L77.2127 91.3246L78.6204 91.3221L78.6302 90.5797L74.8972 90.3262L74.8438 91.1333Z" fill="black"/>
<path fill-rule="evenodd" clip-rule="evenodd" d="M47.458 92.8066L47.5611 93.5302L48.987 93.3639L49.7141 97.0864L50.6494 96.9805L49.9195 93.1403L51.266 92.8831L51.1078 92.0918L47.458 92.8066Z" fill="black"/>
<path fill-rule="evenodd" clip-rule="evenodd" d="M86.1414 94.2069C86.9688 91.9607 84.4771 91.0392 83.9006 92.8039C83.1252 95.1798 85.5067 95.9302 86.1414 94.2069Z" fill="#8D743D"/>
<path fill-rule="evenodd" clip-rule="evenodd" d="M81.8716 88.4231C82.4082 87.9125 82.7398 87.4814 82.6322 86.4192C82.5523 85.6266 82.0112 84.9945 81.0808 85.2712C79.9532 85.6075 79.3624 88.645 81.8716 88.4231V88.4231Z" fill="#8D743D"/>
<path fill-rule="evenodd" clip-rule="evenodd" d="M53.987 89.9902L57.2116 89.599L57.1571 88.8333L54.878 89.0735L54.3069 85.2988L53.4189 85.4064C53.2999 86.1891 53.8563 88.995 53.987 89.9902V89.9902Z" fill="black"/>
<path fill-rule="evenodd" clip-rule="evenodd" d="M101.775 94.5896L100.844 94.4199L99.5908 98.8803L102.76 99.7362L102.878 98.9598L100.718 98.3624L101.775 94.5896Z" fill="black"/>
<path fill-rule="evenodd" clip-rule="evenodd" d="M89.4111 71.3844C89.6398 71.8556 89.8242 71.9355 90.2276 72.2709C90.7927 71.4754 90.9498 70.7782 92.7908 70.3246C92.625 69.9671 91.4029 68.7679 91.1619 68.6367L89.4113 71.3843L89.4111 71.3844Z" fill="#8D743D"/>
<path fill-rule="evenodd" clip-rule="evenodd" d="M87.0615 14.5549C85.2971 15.2348 86.4323 17.3763 87.8103 16.8586C89.336 16.286 88.4214 14.0308 87.0615 14.5549Z" fill="#8D743D"/>
<path fill-rule="evenodd" clip-rule="evenodd" d="M54.5354 14.5922C53.9404 14.8472 53.4555 15.2414 53.7456 16.1144C53.9257 16.6565 54.5519 17.1207 55.2689 16.8793C56.836 16.3525 55.9624 13.9806 54.5352 14.5922H54.5354Z" fill="#8D743D"/>
<path fill-rule="evenodd" clip-rule="evenodd" d="M60.3441 1.26785C60.0078 1.44057 59.8717 1.45584 59.7206 1.8839C59.3027 3.06426 60.5008 3.87492 61.3806 3.42344C62.7901 2.69982 61.8139 0.512157 60.3443 1.26785H60.3441Z" fill="#8D743D"/>
<path fill-rule="evenodd" clip-rule="evenodd" d="M80.914 1.28006C80.2437 1.64009 79.983 2.20779 80.3513 2.90003C80.5901 3.34896 81.2651 3.766 81.9535 3.44007C83.306 2.80009 82.4426 0.458712 80.914 1.28006V1.28006Z" fill="#8D743D"/>
<path fill-rule="evenodd" clip-rule="evenodd" d="M79.8623 95.3099L80.8299 95.3869L81.2215 90.7328L80.2401 90.6797L79.8623 95.3099Z" fill="black"/>
<path fill-rule="evenodd" clip-rule="evenodd" d="M97.9404 92.1009L98.8672 92.2914L100.053 87.7561L99.1723 87.5703L98.9564 88.0754C98.9033 88.2573 98.866 88.4419 98.8233 88.6093L97.9404 92.1009V92.1009Z" fill="black"/>
<path fill-rule="evenodd" clip-rule="evenodd" d="M59.0088 84.6808L59.462 89.2904L60.428 89.2269L60.0062 84.9458C59.9018 84.4093 59.6203 84.5929 59.0088 84.6809V84.6808Z" fill="black"/>
<path fill-rule="evenodd" clip-rule="evenodd" d="M104.703 12.6123C104.72 13.2615 105.405 13.8419 106.03 13.9698C106.659 14.0983 107.872 13.708 108.267 13.3729C107.845 12.4946 105.492 11.69 104.703 12.6123H104.703Z" fill="black"/>
<path fill-rule="evenodd" clip-rule="evenodd" d="M40.4453 99.48L41.4081 99.2186L40.0397 94.7676L39.1562 94.9588L40.4453 99.48Z" fill="black"/>
<path fill-rule="evenodd" clip-rule="evenodd" d="M49.7373 86.1523L50.5475 90.5979L51.436 90.5093L50.6755 85.9297L49.7373 86.1523Z" fill="black"/>
<path fill-rule="evenodd" clip-rule="evenodd" d="M31.9453 15.9609C32.1204 16.4537 32.5501 16.5281 32.9431 16.7605C33.3719 17.014 33.7249 17.2071 34.2629 17.2138C34.6301 16.8411 34.8605 16.3036 34.6966 15.676C33.8892 15.5123 32.5118 15.5859 31.9455 15.9609H31.9453Z" fill="black"/>
<path fill-rule="evenodd" clip-rule="evenodd" d="M71.8062 6.97006C72.0614 5.26373 70.5099 5.33398 70.192 6.10477C70.0048 6.55845 70.1358 7.04946 70.5462 7.25645C71.1631 7.56779 71.3977 7.25781 71.8062 6.97023V6.97006Z" fill="#8D743D"/>
<path fill-rule="evenodd" clip-rule="evenodd" d="M56.6635 18.0165C56.4609 18.582 56.3732 19.3094 57.0295 19.5365C57.991 19.8699 58.2519 19.0958 58.1876 18.289C57.6994 17.8769 57.2946 17.6495 56.6635 18.0165Z" fill="#8D743D"/>
<path fill-rule="evenodd" clip-rule="evenodd" d="M84.0937 18.2902C83.9689 19.7366 85.0692 20.0254 85.7882 19.0368L85.6541 18.0088C84.751 17.7261 84.7965 17.7366 84.0937 18.2902Z" fill="#8D743D"/>
<path fill-rule="evenodd" clip-rule="evenodd" d="M76.7889 3.05118C76.7243 3.76768 76.8599 3.82384 77.2276 4.23731C78.6581 4.36202 78.9303 3.26021 77.966 2.53693L77.2924 2.52539L76.7889 3.05135V3.05118Z" fill="#8D743D"/>
<path fill-rule="evenodd" clip-rule="evenodd" d="M63.8161 2.99086C63.7185 4.00868 64.0507 4.31476 65.0527 4.2345L65.4991 3.72178C65.563 3.06263 65.3625 2.8726 64.9874 2.54023L64.3184 2.51562L63.8159 2.99086H63.8161Z" fill="#8D743D"/>
<path fill-rule="evenodd" clip-rule="evenodd" d="M88.7332 87.3238C88.868 87.0564 88.9213 86.8464 88.8584 86.4412C88.497 86.2026 87.8539 85.9761 87.2442 86.1027C87.1944 86.4003 86.5203 87.9139 88.7332 87.3238Z" fill="#8D743D"/>
<path fill-rule="evenodd" clip-rule="evenodd" d="M93.4162 88.3655C94.0827 88.4861 94.3768 88.6388 95.024 88.5365C95.7129 87.4732 94.5878 87.1703 93.6428 87.168L93.416 88.3653L93.4162 88.3655Z" fill="#8D743D"/>
<path fill-rule="evenodd" clip-rule="evenodd" d="M59.4525 92.9196C60.1126 92.9757 60.741 92.8575 61.1434 92.6359C61.2169 91.3582 60.6489 91.5947 59.4199 91.7056L59.4525 92.9196Z" fill="#8D743D"/>
<path fill-rule="evenodd" clip-rule="evenodd" d="M63.8129 86.4374C64.5776 86.4523 64.7714 86.474 65.2445 86.1465C65.485 84.7979 64.8201 85.0364 63.7402 85.0768L63.8129 86.4374V86.4374Z" fill="#8D743D"/>
<path fill-rule="evenodd" clip-rule="evenodd" d="M38.7793 89.5807L39.0586 90.9018L40.3468 90.5178C40.42 90.0438 40.379 89.7436 40.1533 89.4196C39.5197 89.2687 39.3748 89.3894 38.7793 89.5807V89.5807Z" fill="#8D743D"/>
<path fill-rule="evenodd" clip-rule="evenodd" d="M95.7734 96.0707L96.8688 96.3104L96.7751 94.5176L95.7734 96.0707Z" fill="#8D743D"/>
<path fill-rule="evenodd" clip-rule="evenodd" d="M71.1934 93.1808L72.3333 93.1778L71.8437 91.5371L71.1934 93.1808Z" fill="#8D743D"/>
</svg>
