<svg width="106" height="94" viewBox="0 0 106 94" fill="none" xmlns="http://www.w3.org/2000/svg">
<path fill-rule="evenodd" clip-rule="evenodd" d="M52.0559 22.2636C47.9287 18.977 44.4495 14.1941 35.1894 14.3433C27.8269 14.4619 21.3899 18.8672 21.4042 26.1024C21.4332 40.4628 47.599 48.1281 51.6118 46.0479C50.8817 44.6436 51.7993 45.741 50.4987 44.9149L45.8598 43.0302C26.2221 34.208 31.2957 19.4908 42.1156 21.3948C48.9283 22.5934 49.5437 28.1055 52.6005 29.5049C54.193 28.4504 54.0184 27.8682 55.8486 26.0992C57.0165 24.9702 58.0257 23.6513 59.5417 22.7428C71.0546 15.8465 77.4917 32.5373 68.1143 42.5475C64.9364 45.9393 57.7419 52.5343 50.4279 52.082C39.3779 51.3982 19.6029 43.94 13.3548 34.777C-0.699122 14.1678 26.9679 -0.620496 47.8531 11.929C56.3405 17.029 49.408 14.7452 61.4482 10.0691C73.287 5.47195 86.8869 7.29297 93.14 17.2236C97.8638 24.7256 94.1653 33.6646 90.2276 39.117C87.4642 42.9437 83.0196 47.1634 79.388 49.9466C77.5934 51.3219 76.0878 51.906 75.5372 53.5938C79.0519 55.4 93.8183 45.6547 97.4696 40.9108C119.203 12.6732 89.5199 -6.32653 64.6655 1.95306C57.6124 4.3025 54.8014 7.23793 52.0562 7.97992C48.1164 5.57261 45.638 3.7357 40.3644 2.12857C26.2623 -2.16881 7.90219 -0.434446 1.89219 12.5167C-2.73459 22.4874 1.86164 31.2517 7.74597 38.7344C15.6406 48.773 44.0082 61.1945 57.6087 56.3946C67.1704 53.0198 73.5555 47.8769 78.008 41.5696C91.1298 22.9803 75.5575 6.87684 57.5394 18.606C55.6709 19.822 53.8598 21.7427 52.0562 22.2631L52.0559 22.2636Z" fill="white"/>
<path fill-rule="evenodd" clip-rule="evenodd" d="M16.7951 81.2467C16.4926 84.9678 15.1508 92.1824 18.8585 93.9995C20.1064 92.1749 19.8253 85.2906 20.2363 82.4468C20.7109 79.1651 22.5513 74.037 21.5131 71.496C15.7047 70.8036 13.1872 82.4196 9.975 86.9568L9.398 87.663C9.22937 81.6817 11.7257 73.5452 11.1901 69.2891C8.21569 69.5825 7.63122 72.6208 6.65015 77.1091C5.93285 80.3905 5.28617 85.5029 6.04977 88.8758C7.01191 93.1235 10.635 95.1682 12.6443 90.5531L15.3157 83.5431C15.526 83.0761 15.642 82.8196 15.918 82.3839C15.9996 82.2546 16.1072 82.1183 16.1867 82.0027L16.7947 81.2467H16.7951Z" fill="white"/>
<path fill-rule="evenodd" clip-rule="evenodd" d="M72.344 71.3469C73.5989 68.9289 74.1552 66.0971 77.4471 66.1703C79.3556 70.4776 76.1935 75.7689 73.3622 77.1319C72.4263 75.0505 73.8863 74.4074 74.3063 71.92C73.106 71.3265 73.3698 72.1449 72.344 71.3471V71.3469ZM66.8008 89.5714C70.0017 89.9189 70.0149 86.6845 70.7419 79.4199C72.9021 79.858 74.3176 80.7509 76.4998 78.8869C81.4746 74.638 84.5845 60.7181 73.9415 64.7918C74.3335 62.9297 74.8809 63.3979 73.8248 61.8359C70.0566 61.946 70.5061 65.7751 68.6523 74.3242C67.8138 78.1922 64.9901 86.5915 66.8006 89.5714H66.8008Z" fill="white"/>
<path fill-rule="evenodd" clip-rule="evenodd" d="M44.8948 78.2691C43.7665 74.6315 47.4283 69.4641 40.9959 69.7151C39.509 71.5577 31.2002 83.786 36.2747 86.5629C38.974 84.9245 37.6552 79.5877 41.1585 74.1597C41.9842 75.7494 41.2307 81.4441 42.0678 83.8766C45.3469 83.7044 46.1884 81.0338 48.0578 77.6874L49.642 75.3167C49.7024 75.2423 49.8267 75.0969 49.9283 74.9954C49.676 79.2308 49.2835 83.4167 53.4068 83.9701C53.9571 81.3338 53.1023 79.2963 53.0587 76.2399C53.0113 72.9437 53.7921 71.0889 51.5125 69.3359C48.2513 70.0046 46.8114 75.4515 44.8946 78.269L44.8948 78.2691Z" fill="white"/>
<path fill-rule="evenodd" clip-rule="evenodd" d="M85.9306 71.2054C88.2359 78.346 93.5874 78.2537 94.4999 76.6523C95.0254 75.7297 90.4896 75.2548 88.7842 70.3052C90.2103 68.808 91.0726 68.7234 92.4312 67.1823C94.4664 64.8739 95.0556 63.6049 93.7791 62.3746C91.3135 59.9981 91.3124 64.641 86.3237 67.701C87.1024 64.3236 89.2215 57.8308 89.1126 54.7054C84.7243 54.5995 85.2562 58.2546 82.5859 68.1799C82.0227 70.2731 80.0245 75.1579 82.0001 76.7902C84.4626 78.8246 84.4082 74.2456 85.2292 72.3859C85.5881 71.5728 85.5626 71.6668 85.9304 71.2054H85.9306Z" fill="white"/>
<path fill-rule="evenodd" clip-rule="evenodd" d="M29.4754 79.7382L26.1186 80.655L27.6775 72.6032C22.9142 71.7189 23.3763 76.4895 22.6676 80.579C21.9502 84.7196 20.139 88.98 24.5701 89.7335L25.4715 83.8993L29.0861 82.6189C28.954 85.6813 28.2755 88.4057 29.7438 90.3018C31.1409 89.5608 30.2936 91.0169 31.1849 88.4484C31.4237 87.7605 31.6579 86.1218 31.8144 85.3128C32.6377 81.0566 32.2866 82.8187 34.7193 80.5427C33.8464 78.9755 32.9282 79.9705 34.2947 75.4078C34.8963 73.399 35.7408 71.4999 35.5247 69.4263C30.7109 68.193 31.7193 72.3947 29.4754 79.7381V79.7382Z" fill="white"/>
<path fill-rule="evenodd" clip-rule="evenodd" d="M57.4984 78.7866C56.4438 76.4847 60.173 67.1102 63.7078 70.0805C63.47 71.4453 58.7279 77.9863 57.4984 78.7866ZM63.2168 76.4061C62.8556 79.2273 62.2938 82.7407 64.9958 83.5628C66.0694 81.7493 67.2786 71.7243 68.1757 68.6838C66.7338 67.392 66.8601 68.3908 65.4127 66.8804C65.3419 66.8064 64.8929 66.1424 64.7748 66.004C58.8685 65.5075 55.6659 70.3358 54.7491 75.7362C53.9479 80.4568 56.7053 84.624 60.7376 78.8989C61.6111 77.659 61.8353 76.8955 63.2166 76.4062L63.2168 76.4061Z" fill="white"/>
<path fill-rule="evenodd" clip-rule="evenodd" d="M96.6278 72.0527C96.4234 70.4893 96.2794 69.7395 96.5915 68.1279C97.168 65.1516 97.602 66.319 98.2524 65.8887C100.88 64.1507 99.0257 63.6541 102.405 61.9858C101.953 66.1655 100.312 71.2445 96.6276 72.0527H96.6278ZM99.9264 58.8243C93.792 61.5261 90.3843 78.1754 99.7638 73.9036C102.102 72.8383 104.369 68.9517 105.336 65.4057C107.439 57.6975 103.983 58.8578 102.742 58.7959C101.793 58.7482 100.531 58.5581 99.9262 58.8243H99.9264Z" fill="white"/>
</svg>
