<svg width="101" height="102" viewBox="0 0 101 102" fill="none" xmlns="http://www.w3.org/2000/svg">
<path fill-rule="evenodd" clip-rule="evenodd" d="M29.9131 38.8326L35.7438 38.8783L35.7292 58.7688L35.1899 58.779L30.3291 58.7798L29.933 58.7762L29.9107 58.2291L29.9101 39.565L29.9131 38.8328V38.8326ZM83.99 38.7863C84.0368 38.6965 84.0977 38.5618 84.1572 38.4684L84.3999 38.18C84.6472 38.8766 85.3202 40.0347 85.6995 40.7699C86.1501 41.6439 86.6137 42.4769 87.022 43.3336C87.9346 45.2483 94.7969 58.1966 94.8924 58.7787L88.7364 58.7828L87.6831 56.4293L80.5503 56.4425L79.5559 58.7685C77.9144 58.7828 74.9684 58.8514 73.5373 58.7569L83.9897 38.7866L83.99 38.7863ZM8.34261 38.1841C8.68749 38.269 19.3588 46.6826 20.1343 47.0812L20.1337 38.8356L25.7939 38.8378L25.7801 59.4869C25.2069 59.2508 15.2043 51.03 13.9678 50.3184L13.9535 58.7795L8.33159 58.7385L8.34261 38.1838V38.1841ZM59.5786 38.835L72.4688 38.8315L72.4504 43.9239L65.2132 43.9311L65.2641 46.3221L71.4414 46.343L71.4099 51.1972L65.2181 51.2057L65.2223 53.6898L72.5595 53.7265L72.5517 58.7776L59.5784 58.7715V38.8348L59.5786 38.835ZM47.6291 59.4803L37.6172 38.835L43.938 38.8554L47.787 47.7715L48.0054 47.5192C48.0186 47.4983 48.0308 47.474 48.042 47.452L51.6911 38.8356L57.7014 38.8309C57.4945 39.5044 52.9742 48.6927 52.6665 49.2676C51.9255 50.6551 47.99 59.1404 47.6289 59.4803H47.6291ZM0 48.7993C0 52.8039 0.0355344 53.7496 0.477374 57.7509C0.853654 61.1537 1.77397 64.3386 2.87857 67.5006C3.3912 68.9688 3.96085 70.4431 4.66521 71.8383L7.86937 77.675C8.62 78.9295 9.51277 80.1129 10.3865 81.2814L14.6537 86.1518C16.6403 88.1384 18.9079 90.1958 21.2295 91.7271C25.9873 94.8663 27.8196 95.8579 33.1324 98.0027C35.2965 98.8762 37.9464 99.5444 40.2512 100.022C44.8255 100.97 47.8214 101.001 52.4927 101.001C54.5195 101.001 56.2128 100.707 58.0259 100.507C62.2875 100.039 66.948 98.4079 70.9064 96.765C71.3471 96.5813 71.5581 96.4507 71.9755 96.2786C75.1507 94.9668 79.5385 92.048 82.208 89.8881L83.85 88.5169C84.1831 88.2593 84.3437 88.0222 84.6453 87.7566L85.4706 87.0272C89.2474 83.228 91.9525 79.8344 94.677 75.1391C95.4299 73.8406 96.1362 72.4495 96.7091 71.0472L98.0291 67.7984C99.7199 63.507 101 57.0697 101 52.4935C101 47.9129 101.014 47.5972 100.506 42.9741C100.417 42.1585 100.202 41.1858 100.054 40.4134C99.58 37.9401 98.8335 35.5926 98.0481 33.2815C97.522 31.7325 96.873 30.3594 96.2397 28.9661C95.158 26.5872 93.8228 24.372 92.3921 22.2176C92.2458 21.9978 92.2409 21.9592 92.0852 21.7468C90.717 19.8833 89.3551 17.9383 87.7059 16.3084L86.2 14.7036C83.6614 12.1644 80.8084 9.89208 77.7858 7.95311C74.5833 5.89817 71.2089 4.26606 67.6436 2.93035C63.207 1.26905 56.9805 0 52.201 0C46.9876 0 44.5244 0.141587 39.557 1.15997L37.1211 1.73733C36.6986 1.86239 36.3793 1.94916 35.9105 2.08166C34.3943 2.51028 32.8454 3.11519 31.399 3.69421C26.8459 5.51693 21.6154 8.57593 18.0091 11.7875C16.6872 12.9643 15.2473 14.0995 14.0783 15.4396L13.7237 15.863C13.5846 16.0225 13.497 16.1059 13.3428 16.2591C12.7932 16.8037 12.4266 17.2618 11.9269 17.8568L9.24943 21.3041C6.0819 25.5884 3.83166 30.5676 2.17394 35.6143C1.4817 37.7213 0.72033 40.9641 0.486189 43.1611C0.288683 45.0078 0.000275461 46.7085 0.000275461 48.7998L0 48.7993Z" fill="#0B2B77"/>
<path fill-rule="evenodd" clip-rule="evenodd" d="M8.33105 58.7399L13.9529 58.7809L13.9673 50.3199C15.2038 51.0314 25.2063 59.2523 25.7796 59.4883L25.7934 38.8392L20.1332 38.837L20.1337 47.0827C19.3583 46.6841 8.68695 38.2707 8.34207 38.1855L8.33105 58.7402V58.7399Z" fill="#FEFEFE"/>
<path fill-rule="evenodd" clip-rule="evenodd" d="M59.5791 58.7685L72.5525 58.7745L72.5602 53.7234L65.223 53.6868L65.2189 51.2024L71.4104 51.1941L71.4418 46.3397L65.2646 46.3187L65.2134 43.9277L72.4508 43.9206L72.4693 38.8281L59.5791 38.8317V58.7685Z" fill="#FEFEFE"/>
<path fill-rule="evenodd" clip-rule="evenodd" d="M82.4313 52.0015C82.4597 51.8583 83.8676 48.3819 84.1885 48.1067L85.8305 52.0009L82.4313 52.0015ZM73.5381 58.7566C74.9688 58.8511 77.9149 58.7825 79.5566 58.7682L80.551 56.4422L87.6838 56.429L88.7372 58.7825L94.8932 58.7784C94.7976 58.1963 87.935 45.2483 87.0227 43.3333C86.6145 42.4769 86.1509 41.6436 85.7002 40.7696C85.3209 40.0346 84.648 38.8763 84.4006 38.1797L84.1579 38.4681C84.0984 38.5615 84.0376 38.6962 83.9907 38.786L73.5384 58.7563L73.5381 58.7566Z" fill="#FEFEFE"/>
<path fill-rule="evenodd" clip-rule="evenodd" d="M47.6298 59.4775C47.9909 59.1376 51.9264 50.6523 52.6674 49.2648C52.9751 48.6902 57.4952 39.5019 57.7023 38.8281L51.692 38.8328L48.043 47.4492C48.0314 47.4715 48.0196 47.4955 48.0063 47.5164L47.7879 47.7688L43.9389 38.8526L37.6182 38.8323L47.6301 59.4775H47.6298Z" fill="#FEFEFE"/>
<path fill-rule="evenodd" clip-rule="evenodd" d="M29.9092 39.5662L29.9097 58.2303L29.932 58.7774L30.3282 58.7809L35.1889 58.7804L35.7283 58.7702L35.7426 38.8797L29.9122 38.834L29.9092 39.5662Z" fill="#FEFEFE"/>
<path fill-rule="evenodd" clip-rule="evenodd" d="M82.4307 52.0002L85.8299 51.9997L84.1878 48.1055C83.8669 48.3807 82.459 51.857 82.4307 52.0002Z" fill="#0B2B77"/>
</svg>
