<svg width="98" height="108" viewBox="0 0 98 108" fill="none" xmlns="http://www.w3.org/2000/svg">
<g clip-path="url(#clip0_53_561)">
<path fill-rule="evenodd" clip-rule="evenodd" d="M53.2086 103.696C53.1194 103.313 53.0004 103.24 52.8626 102.89C52.0805 100.912 53.2382 98.8971 54.4123 99.1497C55.8417 99.4579 55.6589 103.493 53.2086 103.696V103.696ZM45.1297 100.452C44.4806 100.019 44.4018 99.0492 44.3915 98.1547C44.3767 96.8904 44.0631 90.5116 45.8646 90.5116C47.8539 90.5116 46.7269 96.509 46.5376 97.2522C46.2872 98.2346 45.8957 99.9415 45.1299 100.452H45.1297ZM41.5627 95.7439C41.5627 98.31 41.6685 100.146 42.5224 102.638C42.681 103.101 42.8034 103.231 42.4729 103.657C40.3084 106.443 36.5265 105.296 36.5265 102.545C36.5265 101.436 36.5269 101.885 36.7085 100.948C37.6278 96.1957 34.0245 95.0655 33.3037 100.482C33.0883 102.102 33.373 101.66 32.7171 102.827C30.0125 107.64 28.5619 99.0249 27.5236 97.0841C27.4322 96.9134 27.3524 96.7916 27.2092 96.6649C25.8302 95.4419 24.0527 98.7016 22.968 100.01C22.7688 100.251 22.6041 100.452 22.4085 100.708C21.6048 101.76 21.2407 101.339 20.8715 99.7421C20.7179 99.0802 20.5179 98.3694 20.3686 97.732C18.8533 97.732 18.85 98.4084 18.4924 99.5227C18.0366 100.944 17.8383 102.233 17.364 103.838C17.0797 104.801 15.8423 107.777 17.4311 107.777C17.8075 107.777 18.3726 107.394 18.6325 107.197C20.1492 106.042 21.8165 104.272 23.3391 102.996C25.2951 101.357 26.2335 100.462 27.893 104.668C28.5137 106.24 29.7928 109.032 31.624 107.178C32.716 106.072 33.4101 104.101 34.162 104.272C34.9714 104.455 35.5328 107.777 37.9957 107.777C41.0441 107.777 41.3557 106.839 43.1379 105.785C44.4542 105.006 45.0656 107.777 47.4382 107.777C49.2004 107.777 50.0757 107.123 51.2155 106.522C52.3479 107.278 52.1025 107.777 54.3631 107.777C55.9299 107.777 57.9516 106.959 58.9025 106.026C59.5734 105.367 59.4936 105.638 60.0732 104.892C62.3239 101.993 62.3423 102.572 62.8482 104.233C63.813 107.401 65.193 109.126 68.4836 106.583C69.4794 105.814 70.3968 104.06 70.9424 102.966C71.1984 102.452 71.2776 102.003 71.496 101.425C71.8682 100.442 72.6593 97.2824 71.9262 96.1214C71.0635 94.7557 68.8422 96.4453 68.8422 98.6737C68.8422 101.478 69.7644 101.575 68.8008 103.969C68.2029 105.456 67.1922 105.987 66.2168 104.117C65.0632 101.905 64.5158 96.4765 63.281 96.4765C62.0935 96.4765 61.6107 99.2615 61.1147 100.28C60.6786 101.176 60.2349 102.231 59.7138 102.964C58.6755 104.424 57.7252 105.476 55.622 105.476C55.2536 105.476 55.0213 105.383 54.7765 105.272C54.4405 105.12 54.3565 105.111 54.2578 104.743C54.694 104.627 55.518 103.917 55.8764 103.637C56.1312 103.438 56.1589 103.425 56.3846 103.202C57.0265 102.566 57.687 101.818 57.8242 100.869C57.9919 99.7118 57.785 98.7755 57.2976 97.9444C55.6667 95.1631 53.2245 96.4694 51.7582 98.6921C50.5369 100.543 50.3761 102.123 50.3761 104.22C50.3761 104.629 50.4564 104.997 50.586 105.266C48.2909 106.799 45.9696 103.842 45.9696 103.278L47.405 100.315C48.1013 98.9347 48.9073 96.0419 48.9073 94.1747C48.9073 92.2953 49.1572 90.03 48.1284 88.4639C46.8968 86.5897 44.9498 86.6368 43.7632 88.3121C42.419 90.2089 41.5631 93.4278 41.5631 95.7444L41.5627 95.7439Z" fill="#007CC1"/>
<path fill-rule="evenodd" clip-rule="evenodd" d="M9.03758 0.732157C9.59801 1.56636 11.6603 1.59836 13.1297 2.30135C13.0468 2.6096 12.9743 2.65237 12.7292 2.84404C11.54 3.77584 9.02597 4.84641 8.93262 5.96378C9.42952 6.29598 9.50288 6.23697 10.2336 6.34068C10.7548 6.41481 11.3286 6.38249 11.8707 6.38249C12.8203 6.38217 14.0716 6.30884 14.8083 6.80088C14.6403 7.11748 14.5479 7.36462 14.3299 7.68396C14.0798 8.05025 13.893 8.14464 13.6379 8.45851C13.4067 8.74296 13.253 9.01566 13.0001 9.28741C12.0422 10.3134 10.126 12.138 9.74585 13.3801C9.17236 15.2523 12.7834 13.2782 13.2708 13.0103C13.6384 12.8087 13.8362 12.672 14.2128 12.4847C15.2953 11.9455 16.3922 11.1248 17.2217 11.2999C17.642 13.0997 16.3243 16.1133 17.851 16.1133C19.1785 16.1133 19.7407 14.3256 20.894 14.2299C21.4675 15.3105 21.2634 17.1543 21.7422 18.7203C21.9457 19.3853 21.9898 19.468 22.5724 19.7756C23.4814 19.2958 23.725 17.8821 24.0062 16.9152C24.2111 16.208 24.5144 13.8112 25.1955 13.8112C25.6146 13.8112 26.0791 14.7044 26.6817 15.2588C27.0205 15.5703 26.9083 15.4857 27.5039 15.4857C27.6151 15.0095 27.7052 15.0836 27.9322 13.9244C28.0038 13.5588 28.0453 13.0474 28.2534 12.7797C28.389 12.6054 28.4859 12.5046 28.7197 12.5358C29.3454 12.618 31.0194 14.1876 31.4757 14.5583C32.0942 15.0606 33.0267 15.8845 33.7763 16.0432C35.6949 16.4499 33.4606 11.9745 33.4538 11.9584C33.2524 11.4934 32.159 9.06776 32.4353 8.7883C33.0182 8.5098 34.9818 9.2218 35.5522 9.44692C36.1549 9.68489 38.8416 10.6825 39.5953 10.0695C40.4142 9.40334 39.2569 8.26893 38.8943 7.78767L38.1119 6.89366C33.5939 2.63147 34.2517 2.89517 38.3564 1.30025C39.6953 0.779913 39.7832 0.103449 38.3103 0.103449C36.7198 0.103449 31.3861 0.80564 31.3861 2.09136C31.3861 3.14135 35.2314 5.80363 35.0251 6.89092C34.8688 7.7158 32.8479 6.77853 32.4948 6.63606C31.9605 6.42044 30.8627 5.96297 30.232 5.96297C29.6756 5.96297 29.6022 6.61452 29.6022 7.00943C29.6022 8.33196 31.2813 10.8224 31.2813 11.9275C30.6446 11.8746 29.3807 10.4813 28.8524 10.0594C28.4243 9.71753 27.1095 8.26057 26.818 9.46412C26.5765 10.4614 27.1675 12.5924 26.2874 12.1021C26.0255 11.9563 25.7423 11.4467 25.6138 11.1965C24.6069 9.22872 24.2722 9.93493 23.7484 11.8444C23.6376 12.2475 23.5767 12.5097 23.4762 12.9329C23.3853 13.3158 23.3721 13.8109 22.9924 13.8109C21.7012 13.8109 23.8635 5.91329 20.0561 11.8243C19.8358 12.1666 19.7515 12.406 19.2149 12.4506C18.9146 11.1639 20.4021 8.26523 19.1101 8.26523C17.9406 8.26523 16.5323 9.7304 15.2283 9.7304C15.2436 9.03673 15.621 8.96341 15.9868 8.60306L18.2587 6.15271C18.3875 5.94062 18.3109 6.19227 18.3966 5.87116C18.5429 5.31947 18.1397 5.26046 18.0699 5.22187C17.6601 4.99547 16.6384 4.93887 16.1758 4.91363C15.6352 4.88452 13.9694 4.7591 13.9694 4.28878C13.9694 3.85254 14.2446 3.58562 14.5369 3.3901C15.3663 2.83519 17.1167 2.00051 17.1167 1.25442C17.1167 0.153295 11.9158 -0.228271 9.91901 0.144612C9.27394 0.265048 9.28683 0.262314 9.03774 0.731353L9.03758 0.732157Z" fill="#007CC1"/>
<path fill-rule="evenodd" clip-rule="evenodd" d="M51.8449 72.201C51.8449 71.8878 51.9151 71.6278 52.0963 71.4059C52.4837 70.9304 54.0481 70.6161 54.0481 72.3057C54.0481 73.5565 51.8449 73.6361 51.8449 72.2012V72.201ZM40.6181 72.0967C40.554 72.8641 40.2744 73.2877 39.8073 73.6943C38.5833 74.7609 36.3075 74.1333 36.0575 73.7151C35.997 73.6139 35.824 72.9653 35.7484 72.768C35.3165 71.6466 34.0555 69.5889 32.7491 69.4807C32.7491 70.4866 32.8253 71.6969 32.045 72.5451C30.9949 73.6868 28.5858 73.8861 27.1885 73.5613C27.6731 74.4751 29.4295 75.6486 30.4261 75.9832C32.8613 76.8014 32.6838 75.3376 35.7782 77.656C36.0809 77.8829 36.3198 78.0665 36.6295 78.272C39.3569 80.0795 43.6589 80.5295 46.9036 79.5159C47.9953 79.1748 49.106 78.4193 49.6411 78.3747C50.3853 81.1536 57.2895 79.6228 56.374 78.1609C55.9061 77.4127 53.1585 79.0113 50.2683 76.8076C48.5285 75.4809 48.7858 74.0846 47.8578 74.0846C47.4402 74.0846 46.132 75.4166 44.782 76.1439C43.1768 77.0091 38.3603 77.5537 37.3658 76.0725C39.4186 76.0725 39.57 76.4444 42.194 75.7607C47.3578 74.415 47.8276 70.0023 49.4318 73.2468C50.7662 75.9456 53.596 77.4305 55.1247 75.89C55.4918 75.5198 55.7549 74.8702 55.9684 74.3251C56.7545 72.3192 56.291 72.1049 57.1874 71.983C58.005 71.872 57.9303 71.699 57.9303 71.0494C57.9303 70.5992 57.2014 70.4461 56.9973 69.9923C56.641 69.1993 57.0878 68.6431 56.0419 68.6431C55.4062 68.6431 55.5031 68.9684 55.3072 69.3754C54.8383 69.3363 54.3377 69.1453 53.8629 69.0371C51.883 68.5865 51.1299 69.0613 50.1662 69.0613C49.9658 68.3133 47.7633 67.1173 47.1237 66.9688C46.694 68.8079 45.7128 70.2501 44.0114 71.0849C41.7933 72.1735 42.3883 71.6845 40.6185 72.0962L40.6181 72.0967Z" fill="#007CC1"/>
<path fill-rule="evenodd" clip-rule="evenodd" d="M74.298 25.2187C74.9213 25.2704 74.7583 25.6913 75.3885 26.7466C75.89 27.585 76.2385 27.8347 77.0257 27.8347L77.3404 26.265C78.4972 26.3612 77.2486 27.445 78.9891 28.702C79.3248 28.944 79.5387 28.9931 79.6485 29.4042C78.7448 29.8368 78.1191 28.7765 76.8412 30.0575C76.6277 30.2719 76.5958 30.3087 76.343 30.5023C76.051 30.7255 76.1258 30.7544 75.6615 30.7647C75.6615 29.5121 76.6061 29.5539 76.6061 28.8813C76.6061 28.5596 76.2984 28.4626 75.9762 28.4626C74.8099 28.4626 73.8161 29.8229 72.7238 29.8229C72.3229 29.8229 72.6855 29.8548 72.409 29.7183C72.5914 29.0376 73.4582 28.9299 73.4582 28.2533C73.4582 27.1259 70.7863 28.666 69.9963 27.8349C70.5012 27.0825 70.7752 27.8088 71.9897 26.9975C71.9441 26.4512 70.844 25.1729 71.7153 25.3662C71.7274 25.3689 72.0987 25.5993 72.1148 25.6129C72.6185 26.0271 73.1825 27.3385 73.9493 27.1742C74.4821 27.0595 74.298 26.152 74.298 25.2189V25.2187ZM75.1372 32.3342C76.6008 32.3342 77.4289 32.2556 78.7194 31.8256C79.4541 31.5809 80.7039 30.9675 81.3633 31.0506C83.048 31.2632 84.6851 32.9035 84.6851 34.741C84.6851 35.9486 84.6347 36.1168 84.0923 37.1841C82.639 40.0432 81.852 37.4892 81.852 37.0426C81.852 35.7986 82.926 32.648 82.0619 32.648C81.0884 32.648 78.9144 34.6246 78.9144 36.101C78.9144 38.1267 80.9464 38.8487 82.4818 39.6588C81.9575 40.4396 80.6099 42.6563 80.5928 43.426C80.292 43.2064 80.3879 43.0887 80.2983 42.6735C80.1132 41.8154 78.0859 36.6754 77.6243 35.9229C76.1273 33.4851 74.2654 34.0808 73.4582 33.6944C73.5218 34.4524 75.0804 36.08 75.6931 36.8024C77.2836 38.6776 77.5877 38.7829 78.9488 41.194C79.4744 42.1254 79.7538 43.3591 79.7538 44.7865L79.3033 43.875C79.1594 43.5421 79.0597 43.1971 78.9088 42.9086C78.6084 42.3352 78.2173 41.7822 77.8619 41.2318C76.8293 39.6337 74.986 38.6028 73.6918 37.2293C72.9292 36.4202 72.5935 34.4394 71.9034 33.5714C71.5055 33.0708 70.9169 32.7087 70.2059 32.5434C71.3511 34.7021 67.5266 37.635 72.5956 39.0543C73.2228 39.2299 74.0584 39.3819 74.6151 39.6562C75.8392 40.26 76.6829 41.1099 77.4023 42.2135C78.3497 43.6658 79.0136 45.037 79.4597 46.7542C79.6912 47.6474 79.6184 47.5199 79.9639 47.6115C80.0811 47.1095 80.6328 46.2305 80.9216 45.8463C81.3393 45.2904 81.6091 44.7865 82.5867 44.7865C83.6986 44.7865 83.8458 46.0422 83.8458 47.1928C84.4009 46.8227 85.0563 45.9304 85.3523 45.3466C87.2127 41.6769 85.163 39.8292 83.1557 42.4236C82.4623 43.3201 82.2619 43.4071 81.4327 43.8443C81.6629 42.8608 82.3984 41.5013 83.0061 40.7047L84.3936 38.8447C85.5585 37.1007 85.8397 36.6644 85.8397 34.6365C85.8397 33.6737 85.5841 33.1705 85.2468 32.5069C84.9639 31.9511 84.4747 31.2751 84.0255 30.8995C82.7538 29.8365 82.3415 29.8117 81.552 29.2857C80.7979 28.7834 78.3147 23.5444 74.6127 23.5444H73.2492C71.7911 23.5444 70.2207 24.0485 68.6664 23.5108C68.1378 23.328 68.0412 23.0681 67.4785 23.0215C67.4785 25.3209 68.2772 27.7542 69.5161 29.465C70.7797 31.2104 72.929 32.3346 75.1377 32.3346L75.1372 32.3342Z" fill="#007CC1"/>
<path fill-rule="evenodd" clip-rule="evenodd" d="M61.0774 6.38339C61.5729 6.49852 62.087 6.77525 62.6513 6.9063V7.11565C62.1286 7.15891 61.543 7.32147 61.0774 7.42969C61.0932 8.1203 61.3599 7.85724 61.6022 8.89437C61.098 8.85256 60.6273 8.59062 60.1331 8.47598C59.6439 8.80271 59.4682 9.40473 58.979 9.73179C58.979 7.52439 58.6259 8.10358 57.7024 8.0645C56.5622 8.01611 57.7617 7.57263 58.3497 6.69694C58.1803 6.0639 57.4699 5.96999 57.3005 5.33662C57.8311 5.33662 58.1951 5.4413 58.8739 5.4413C58.9537 5.10122 59.0295 4.93769 59.1244 4.53988C59.2347 4.07615 59.1872 3.99865 59.5038 3.76726C59.6638 4.45193 60.0002 4.76773 60.1331 5.33646C61.1201 5.33646 60.9986 4.98544 61.8121 4.91823C61.3155 5.85325 61.0908 5.77816 61.0774 6.38323V6.38339ZM61.7072 3.45323C60.9149 3.45323 60.6053 2.07409 63.4721 1.65442C65.2813 1.38943 67.4435 2.28618 68.1207 3.96311C69.0392 6.23916 69.0459 9.37466 67.1417 11.1752C66.7538 11.5423 65.3446 12.2428 64.6446 12.2428C63.3135 12.2428 63.0257 12.2878 61.7787 11.7531C61.0455 11.4386 60.7075 11.0455 60.868 10.3594C62.414 10.3594 62.3874 11.301 63.9105 11.301C63.9105 9.37675 62.2424 8.73614 64.9019 9.16161C68.9078 9.80173 64.9366 7.78633 64.6447 6.69694C65.3859 6.30621 66.6188 5.99122 67.058 5.33662C66.6625 4.74763 66.4466 4.99477 65.6187 4.88929C65.1882 4.83398 64.2696 4.74763 63.8055 4.70904C63.8263 3.78399 64.4147 3.85538 64.4348 2.93032C63.3154 2.63398 62.902 3.45323 61.7072 3.45323V3.45323ZM57.8249 2.09291C57.4037 2.08342 57.1479 1.98292 56.8455 1.81441C56.2217 1.46661 54.796 0.642375 54.1525 0.628225C54.1525 1.2788 54.5912 1.93243 54.9475 2.45148C56.6075 4.86806 56.0664 4.13806 54.5217 5.18161C54.215 5.3892 54.2473 5.29706 54.1523 5.65065C54.6189 6.34513 56.0413 6.3969 56.0413 7.11565C56.0413 8.26228 54.1388 8.32242 54.0479 9.41775C54.4529 9.51214 54.4867 9.56874 54.9849 9.63402C55.3769 9.68564 55.6827 9.75301 56.0413 9.83646C56.0413 11.377 54.6773 11.9688 54.6773 13.4986C55.7362 13.4751 56.5274 11.8766 57.5102 11.6152C58.2499 12.1093 57.8625 13.0183 58.2445 13.8124C59.045 13.746 58.8837 13.0064 59.7136 12.4521C60.8938 12.7268 62.9277 15.1657 67.4654 13.3822C68.0492 13.1525 68.9979 12.4486 69.4476 12.0104C71.8478 9.67197 71.9658 5.33164 70.0278 2.68849C68.2975 0.328986 64.4916 -0.399736 61.875 0.481741C60.0528 1.0955 59.9266 1.45262 59.0564 0.550883C58.726 0.209033 58.7059 0.012542 58.1397 0C57.9928 0.629512 58.1003 0.913475 57.8248 2.09274L57.8249 2.09291Z" fill="#007CC1"/>
<path fill-rule="evenodd" clip-rule="evenodd" d="M14.1788 40.3911C14.1788 37.8298 14.8081 37.925 14.8081 35.0541C14.8081 34.8475 13.8373 33.0571 12.8777 37.2097L12.3557 39.828C12.2538 40.2314 12.1538 40.3887 12.0803 40.7046C11.0749 40.6824 11.3456 39.8016 11.3456 37.9841C11.3456 37.5304 11.6253 36.3098 11.1356 36.3098C10.1667 36.3098 9.90854 37.9769 9.71087 38.8646C9.44001 40.0785 9.40905 41.2354 9.26217 42.4989C9.20042 43.0326 9.43388 45.6896 9.55013 46.2625C10.0802 48.8767 10.7637 49.999 12.4571 47.7773C14.1472 45.5606 12.4998 44.9744 12.4998 43.8435C12.4998 43.2788 12.7961 42.4837 13.3392 42.4837C13.9945 42.4837 14.2066 43.0771 14.5698 43.4536C15.3518 44.2636 15.5428 44.0881 15.5428 45.204C15.5428 46.0967 14.2517 47.7225 13.6829 48.4765C13.3962 48.8561 13.2545 49.1554 12.9833 49.5575C11.5237 51.7212 11.1358 53.2204 11.1358 55.8774C11.1358 57.5064 12.0245 59.5461 12.8392 60.352C13.7888 61.2918 12.9874 60.8062 14.4307 61.7996C14.7518 62.0206 15.9731 63.0162 16.2772 63.0971C17.0529 61.6353 17.1691 60.4801 16.2185 59.0748C15.8375 58.512 15.7924 58.7321 15.2257 58.0771C14.4423 57.1727 12.8148 56.5357 12.8148 54.0985C12.8148 53.2932 13.1829 52.5722 13.3392 51.9011L13.8881 52.6097C14.9545 53.7633 15.4338 53.3621 16.8015 53.6803C16.7009 53.3043 16.6663 53.4103 16.4154 53.1236C15.2774 51.8242 15.3621 50.6599 15.9914 49.1053C16.2288 48.5191 16.437 47.9229 16.6951 47.4004C16.8188 47.1493 16.9326 46.9031 17.083 46.6357C18.2582 44.5479 20.8937 39.1235 20.8937 37.0425C20.8937 36.1382 21.0183 35.7531 20.2639 35.5778C19.2819 36.2337 19.179 37.714 18.6218 38.8579C18.2223 39.6792 17.4171 41.5314 16.5919 41.7512C16.2703 41.3676 16.8375 39.8921 16.9708 39.5135C17.2362 38.7606 18.4307 35.3146 18.3569 34.6568C18.2781 33.9551 17.4572 33.1162 16.606 35.3825L15.2415 39.3581C15.1406 39.6384 14.9905 40.0716 14.8495 40.3317C14.6586 40.6861 14.1788 40.981 14.1788 40.3915V40.3911Z" fill="#007CC1"/>
<path fill-rule="evenodd" clip-rule="evenodd" d="M47.2285 58.5979C47.2285 60.2359 47.7973 62.4509 48.7399 63.6827C49.3719 64.5089 49.9847 65.2616 50.8563 65.8626C53.1361 67.4354 56.5486 67.8956 59.0844 66.7599C61.8634 65.5153 63.8058 62.9104 63.8058 59.7489C63.4216 59.8513 62.1836 60.7957 59.9236 60.7957C57.5594 60.7957 56.1319 60.9439 54.0477 59.4363C53.6381 59.1398 53.4993 58.9668 52.9994 58.7028L52.6155 59.0527C52.4691 59.2737 52.4794 59.418 52.4767 59.7523C52.4671 60.8322 52.384 60.3771 51.6352 60.3771C50.8054 60.3771 51.3964 62.9933 54.5728 62.9933C56.8859 62.9933 57.9884 61.9002 58.3502 62.2605C58.6127 62.8064 58.1403 62.9654 58.1403 63.4115C58.1403 64.1371 59.0844 63.4263 59.0844 64.2486C59.0844 65.4697 53.2249 66.6322 50.6042 62.6612C49.5217 61.0214 49.6951 58.4489 51.6381 57.4503C52.6827 56.9134 54.6779 56.9668 54.6779 55.7731C54.6779 55.2254 54.3548 54.9788 53.8386 54.9361C54.0323 54.6472 54.3314 54.3867 54.7414 54.2661C54.8495 54.2343 55.3559 54.1503 55.4473 54.1444C56.1357 54.0981 58.1403 54.6498 58.1403 53.3663C58.1403 52.6614 57.5618 52.5274 57.042 52.3689C56.5391 52.2153 56.8326 52.4728 56.5664 52.1107C57.0605 51.4385 58.5601 51.8437 58.5601 51.169C58.5601 50.651 58.1601 50.4668 57.7564 50.2961C56.1265 49.6069 53.7317 50.2911 52.3528 50.8383C51.6997 51.097 51.5781 51.2647 51.0483 51.6304C50.4565 52.0386 50.3281 52.1084 49.8248 52.6072C48.3663 54.0534 47.2287 56.4515 47.2287 58.5981L47.2285 58.5979Z" fill="#007CC1"/>
<path fill-rule="evenodd" clip-rule="evenodd" d="M75.5567 101.812C75.5567 101.208 75.681 100.327 75.8733 99.9308C76.858 97.9009 79.6993 99.3661 78.1789 101.812C77.9371 102.201 77.623 102.367 77.2032 102.618C75.7368 103.492 75.5567 103.401 75.5567 101.812ZM87.7273 103.277C87.2179 103.142 87.0334 102.664 86.9294 102.085C86.6537 100.55 86.5705 96.9994 85.6288 96.9994C84.3554 96.9994 84.1427 99.3481 83.5022 100.843C80.6899 107.405 76.3959 105.714 76.3959 104.743C76.3959 104.304 77.2576 104.223 77.9688 103.905C78.9847 103.45 80.1739 102.917 80.801 101.916C82.3668 99.4134 80.0878 96.6855 78.3891 96.6855C76.4891 96.6855 75.5791 97.2295 74.4017 98.7778C72.8818 100.777 72.4019 104.894 74.1214 106.592L75.3435 107.466C76.0012 107.775 76.8541 107.777 77.6551 107.777C80.1725 107.777 81.9878 106.162 83.2776 104.385C83.5407 104.023 84.2759 102.843 84.3701 102.441C84.6606 102.653 84.5732 102.687 84.6674 103.085C84.9105 104.112 85.4958 107.777 86.5734 107.777C87.9897 107.777 88.0311 106.739 88.7063 105.405C88.9681 104.887 89.0889 104.465 89.3358 103.94L90.6965 101.112C91.3042 100.086 92.4534 97.9411 93.9175 97.9411C94.5608 97.9411 94.5707 99.5103 96.2258 99.5103C98.5674 99.5103 99.0381 95.4297 94.8623 95.4297C92.6138 95.4297 91.2112 96.9119 90.2862 98.2955C89.7137 99.1524 89.4385 99.8496 88.9848 100.765C88.7982 101.141 88.5775 101.644 88.4221 102.087C88.2428 102.599 88.1127 103.02 87.7275 103.277H87.7273Z" fill="#007CC1"/>
<path fill-rule="evenodd" clip-rule="evenodd" d="M11.8703 91.6638C11.8703 92.6818 12.1014 93.6075 12.4694 94.5196C13.7214 97.6266 12.7592 103.514 10.5824 105.343C9.33098 106.394 7.0051 106.545 5.70818 105.448C3.1648 103.298 3.71572 97.2462 4.13604 94.1004C4.32661 92.6735 6.02902 87.6771 2.57293 89.6116C1.7102 90.0942 1.35066 90.9088 1.08399 91.8939C0.25028 94.9783 -0.512007 99.209 0.444883 102.535C0.867946 104.006 1.1638 104.747 2.08828 105.814C2.18566 105.926 2.24048 105.981 2.33786 106.089L2.59551 106.355C2.91393 106.64 3.39955 106.94 3.76893 107.173C5.37976 108.192 8.4647 108.197 10.3116 107.584C10.8968 107.39 11.4236 107.008 11.9145 106.672C13.2974 105.724 14.4822 103.68 15.0062 102.116C15.2292 101.452 15.3572 100.876 15.4981 100.096C15.9576 97.56 16.0379 93.7857 15.517 91.1659C15.3148 90.1503 15.0723 88.9434 13.9687 88.9434C12.7113 88.9434 11.8703 90.3838 11.8703 91.6637V91.6638Z" fill="#007CC1"/>
<path fill-rule="evenodd" clip-rule="evenodd" d="M77.6551 10.6742C77.6771 10.6602 77.7145 10.6189 77.7262 10.6404L79.4384 10.0466C80.1227 9.74287 80.3863 9.49251 80.9552 9.04792C82.039 8.2002 82.4814 6.97495 82.4814 5.54661C83.9897 5.89714 84.5964 8.57019 81.7143 10.0143C80.642 10.5517 79.2157 10.6742 77.6549 10.6742H77.6551ZM82.3766 1.98902C82.3766 1.1196 83.7401 0.60345 83.7401 2.09354C83.7401 2.73334 82.8756 2.59634 82.4814 2.40757C82.414 2.12682 82.3766 2.21027 82.3766 1.98886V1.98902ZM81.1174 4.18676C81.1174 4.67076 80.9901 5.49274 80.6421 5.80549C80.1733 6.22645 78.9142 6.32839 78.9142 4.81435C78.9142 3.36993 80.0562 2.20288 79.0484 1.12266C77.9272 -0.0796062 74.2373 0.263691 72.8724 0.567754C72.1881 0.720027 71.5695 0.7874 71.2548 1.2566C72.3274 1.97262 73.2756 1.49393 75.4672 3.1252C76.0723 3.57526 76.0823 3.56272 76.5011 4.18676L74.2757 4.58296C73.8717 4.67864 73.5987 4.7407 73.1837 4.85438C72.7229 4.98061 72.5225 5.01872 72.409 5.44209C72.7716 5.68409 72.9185 5.66527 73.3936 5.82028C74.7455 6.26102 77.6309 7.00244 77.4106 8.6448C77.1881 10.3013 75.4141 10.2182 74.1743 9.22704C73.724 8.8667 73.4383 8.32498 72.8289 8.16274C72.386 8.82168 72.8289 8.67165 72.8289 10.36C72.8289 11.1135 72.4929 11.5214 72.0229 11.8583C71.7715 12.0381 71.5922 12.1418 71.3128 12.3014C70.9364 12.5158 70.8422 12.4542 70.7305 12.8715C71.3899 13.1868 74.5384 13.3944 75.6615 13.3944C79.1746 13.3944 83.5921 12.6922 85.1044 9.31371C86.7788 5.57394 83.8201 3.11812 85.1459 1.19309C85.4043 0.817629 85.6267 0.813449 85.8393 0.524179C85.531 0.37689 83.3138 0.105469 82.7963 0.105469C81.9308 0.105469 81.2759 0.716972 81.0583 1.40694C80.7672 2.33055 81.1177 3.16572 81.1177 4.1866L81.1174 4.18676Z" fill="#007CC1"/>
<path fill-rule="evenodd" clip-rule="evenodd" d="M30.2316 30.7646L29.8477 30.101C29.3914 29.183 28.3653 27.7896 27.462 27.248C26.3107 26.5579 24.8459 26.4148 24.365 27.6346C24.0609 28.4062 24.1462 29.0062 24.1462 30.0324C24.6974 29.8333 24.2758 29.4043 25.5102 29.4043C26.9143 29.4043 28.614 30.7553 29.182 31.6016C28.7215 31.5918 28.1369 31.443 27.64 31.3609C26.0998 31.1065 24.4338 30.9696 23.409 32.3317C22.8559 33.0667 22.071 34.4838 22.4346 35.7152C22.5729 36.1842 22.3211 35.8409 22.6769 36.1012C22.7535 35.774 22.8431 35.6433 23.0095 35.3865C24.101 33.7017 26.4395 32.7529 28.5527 32.7529C29.1333 32.7529 28.6419 33.1191 28.4972 33.318C28.3689 33.4946 28.154 33.9352 28.068 34.1532C27.8941 34.5954 27.7256 35.8636 27.7135 36.4153C27.4352 36.5487 27.6014 36.5109 27.1889 36.52C27.1889 37.8443 27.9234 38.1808 27.9234 39.973C27.9234 40.3203 27.7135 40.1912 27.7135 40.3917C27.7135 41.878 28.9727 42.2742 28.9727 43.5308C28.9727 44.0088 28.5551 44.0344 29.8728 45.0395C30.5842 45.5822 30.8597 46.4606 31.176 46.4606C31.8801 46.4606 32.9428 45.618 32.4639 44.9779C32.1724 44.5875 31.3511 43.7488 31.281 42.9027C30.1809 42.8115 30.7201 40.9654 30.2593 40.1546C29.8187 39.3792 29.5647 40.425 29.8214 37.5749C29.8506 37.2496 29.9683 37.0559 29.9115 36.741C29.8548 36.4262 29.8801 36.5978 29.7242 36.4L29.6241 36.2887C29.4543 36.0725 29.4972 36.3333 29.4972 36.1014C29.4972 35.0958 30.5706 34.2408 30.6512 33.2764C31.6986 33.8289 32.7495 35.2289 32.7495 36.8341C32.7495 37.5185 32.5531 37.9129 32.54 38.5082C33.6964 38.2395 35.6011 36.9592 35.7483 35.2299C35.8342 34.2172 35.334 33.5673 34.6857 33.1246C34.2515 32.8283 32.8072 32.3349 32.1202 32.3349L32.3951 32.1902C32.4965 32.1481 32.6866 32.0905 32.7906 32.0614C33.1222 31.9688 33.2243 31.9568 33.5722 31.8994C34.7916 31.6968 36.2705 31.5655 37.3635 32.1285C37.877 32.393 38.3983 32.822 38.4153 33.5908C39.3727 33.3356 40.2456 29.3003 36.4221 29.3003C33.9733 29.3003 32.1587 31.0061 31.4906 31.1841C32.4734 29.3318 32.4546 28.9867 34.0088 28.9867C33.9882 28.0531 31.7881 25.0969 30.6627 26.8001C30.1123 27.6327 30.232 29.6633 30.232 30.7654L30.2316 30.7646Z" fill="#007CC1"/>
<path fill-rule="evenodd" clip-rule="evenodd" d="M21.1036 62.8889C21.1036 65.1209 22.0108 66.684 23.8299 67.5991C26.3635 68.8732 29.2794 67.8291 28.7685 64.9784C28.4262 63.0696 26.1345 61.6718 25.1323 62.512C24.1403 63.3444 25.4196 64.7723 27.1888 64.7723C27.4411 64.7723 27.8185 64.5481 27.8185 64.877C27.8185 66.0612 25.5876 66.5216 24.1182 65.2188C22.1901 63.5092 23.2568 60.2593 27.1266 61.6953C29.3937 62.5372 30.5825 66.9467 28.6307 68.5125C27.2544 69.6169 25.0354 69.3117 23.5007 68.7645C22.7449 68.495 22.1253 67.9388 21.6001 67.4162C20.6252 66.4463 19.8445 64.6039 19.8445 62.6797C19.8445 61.8543 20.0391 61.365 20.0544 60.6918C19.3057 60.8656 18.8778 61.3194 18.4778 61.84C18.0331 62.4187 17.8111 62.8339 17.6165 63.7014C17.0862 66.0654 18.1013 67.4254 18.9315 68.8221C19.1648 69.2142 19.2477 69.256 19.5558 69.5598C20.5081 70.4995 21.3951 71.3042 22.7668 71.7985C24.51 72.4266 27.1783 72.6443 28.8659 71.6766C29.0753 71.5567 29.564 71.2431 29.7227 71.0661C29.8537 70.9201 29.8753 70.845 30.0485 70.6585C31.5212 69.0695 31.4691 66.2202 30.8264 64.2833C30.0129 61.8326 27.9266 59.6445 25.0904 59.6445C23.7777 59.6445 23.1226 59.7762 22.2307 60.5598C21.6778 61.0454 21.1036 61.8878 21.1036 62.8887V62.8889Z" fill="#007CC1"/>
<path fill-rule="evenodd" clip-rule="evenodd" d="M74.6119 58.8068C74.6119 58.2273 74.4984 57.3421 75.4518 57.3421C77.2685 57.3421 79.4789 60.272 76.5009 60.272C75.6828 60.272 74.6119 59.5941 74.6119 58.8068ZM65.7987 63.8296C66.7192 63.8296 67.9642 62.9751 68.6021 62.44L70.0224 61.1353C70.5158 60.638 72.6187 58.1796 72.6187 59.7484C72.6187 60.394 72.3164 60.704 71.8975 61.1224C71.0992 61.9193 71.096 61.7841 70.3434 62.3974C69.8322 62.8133 67.7923 64.1069 67.7923 64.876C67.7923 65.6541 69.7975 67.1781 71.1497 67.1781C73.6923 67.1781 75.7051 62.2599 76.3961 62.2599C77.4028 62.2599 76.4275 64.5835 75.3716 65.6329C74.5045 66.4947 75.5524 65.6977 73.9377 66.9237C72.7713 67.81 72.0394 67.7203 71.7032 68.2628C71.2893 68.9319 72.3394 70.2122 73.0385 70.2122C73.4479 70.2122 73.9051 69.811 74.2151 69.6071C75.0822 69.0347 76.3811 67.6896 77.0711 66.8051C77.3702 66.4217 77.6303 66.1429 77.8861 65.7339C78.1531 65.3068 78.3608 65.0124 78.6202 64.5834C79.6501 62.8802 79.8033 60.9444 79.155 59.0897C78.7919 58.0511 77.7971 57.0852 76.8517 56.5729C75.6778 55.9376 73.3155 55.8837 72.1343 56.5451C70.8914 57.2408 70.0972 59.0583 68.7431 59.8597C67.8632 60.3805 67.5656 60.6603 66.4514 60.9226C65.4996 61.1467 64.6575 61.1486 64.8499 62.4636C64.9192 62.9372 65.3247 63.8294 65.7986 63.8294L65.7987 63.8296Z" fill="#007CC1"/>
<path fill-rule="evenodd" clip-rule="evenodd" d="M34.0078 23.8581C33.6757 23.6155 33.5885 23.0611 33.5885 22.4978C33.5885 22.292 33.9046 21.9326 34.0181 21.7757C34.2268 21.4869 34.2434 21.3579 34.7425 21.3468C34.802 22.0646 34.8623 21.9497 34.7001 22.7696C34.5955 23.2989 34.4812 23.7319 34.0077 23.8583L34.0078 23.8581ZM35.5817 25.7415C34.9976 24.527 35.7515 22.3306 36.2873 21.2134C36.5841 20.5943 36.6765 20.4002 37.0508 20.3004C37.3715 21.6739 36.8972 25.0474 35.5817 25.7415V25.7415ZM30.6504 23.021C30.4318 22.0847 30.5503 21.5813 30.8715 20.6255C31.0675 20.0433 31.1373 19.6183 31.8045 19.4633C32.4915 19.922 32.3291 20.5482 32.3291 21.6606C32.3291 21.8754 31.4141 23.0038 30.6502 23.0209L30.6504 23.021ZM28.2371 24.0675C27.7668 23.181 28.5472 21.2679 28.7345 20.3781C28.8912 19.6339 29.0652 19.2912 29.3156 18.6551C29.7003 17.6778 29.8605 17.3836 30.4405 17.3707C30.4405 18.9724 29.8673 21.4041 29.2177 22.848C28.9453 23.4537 28.9335 23.9056 28.2371 24.0675V24.0675ZM25.4045 19.1493C28.3007 17.2152 27.3641 21.0371 26.9799 21.872C26.4253 23.0773 25.1514 23.2441 24.8343 21.8107L24.4604 20.4051C23.3134 20.4306 23.4113 21.6688 23.4113 22.7072C23.4113 24.0895 24.8717 25.7415 26.5588 25.7415C29.4775 25.7415 30.0355 25.244 32.0879 23.5131C32.3315 23.3073 32.3838 23.195 32.6438 23.021C32.6762 24.4637 34.1183 27.7299 36.3161 27.7299C37.3383 27.7299 37.6422 27.6225 38.3919 26.87C38.8173 26.4428 39.0865 25.8623 39.1492 25.1138C37.6487 25.9054 37.7852 24.9112 37.7852 23.4393C37.7852 22.7731 37.9848 21.8275 38.7294 21.7654C39.2806 22.8044 38.777 23.3566 39.254 24.0675C40.3122 23.9795 40.0897 21.2986 39.8888 20.5043C39.6821 19.6881 39.5339 19.5869 39.019 19.0698C37.3456 17.3884 35.313 18.6879 33.9827 20.1706C33.839 20.3306 33.7466 20.4631 33.6173 20.6432C33.5187 20.7816 33.5448 20.7501 33.4476 20.8926C33.3097 21.0937 33.426 20.963 33.2736 21.1378C33.3097 20.708 33.3785 20.9037 33.3785 20.5097C33.3785 19.2859 33.0901 18.0549 32.5568 17.3527C32.4144 17.1659 32.2762 17.0379 32.1216 16.8451C30.9783 15.4182 28.1917 15.7052 26.798 16.8764C26.2258 17.3577 25.4806 18.235 25.4045 19.1493V19.1493Z" fill="#007CC1"/>
<path fill-rule="evenodd" clip-rule="evenodd" d="M54.4681 38.7154C54.4681 40.1719 55.2065 40.9789 56.4278 41.5745C57.1854 41.9447 58.7698 42.8366 58.7698 43.7382C58.7698 44.3029 58.7616 44.4013 58.0356 44.7846C57.678 44.5954 57.7825 44.6642 57.4829 44.3937C57.2559 44.189 57.1788 44.1646 56.9612 43.9728C56.2651 43.3585 56.5494 43.2149 55.4123 43.2149C54.1947 43.2149 54.8929 46.1908 54.674 47.1874C54.4465 48.2219 54.0757 48.2001 53.6289 48.8654C55.5746 48.8654 56.8909 47.8564 57.884 46.5172C58.2939 45.9645 58.4079 45.7266 59.2946 45.7266C59.5392 46.7738 58.3963 47.1858 58.5235 48.2994C58.7136 49.9608 61.9178 50.6038 61.9178 48.8654C61.9178 48.2554 59.7699 45.9357 61.0781 45.9357C61.7408 45.9357 62.603 45.87 63.177 46.1446C63.1027 47.0324 61.2128 48.5451 65.109 47.5485C66.9315 47.0829 67.9273 46.9002 67.2456 45.9586C66.8582 45.4236 66.3658 45.0264 65.8735 44.6058C65.6765 44.4379 63.2813 42.6102 63.2813 43.4243C63.2813 44.8793 63.8027 44.8893 62.1272 44.8893C61.1876 44.8893 59.4591 43.1021 62.9007 41.8932C63.6768 41.6205 65.0847 41.2063 65.1703 40.1806C64.5603 40.1671 63.8063 39.9137 63.3513 39.6927C62.362 39.2128 60.1691 38.1226 60.2304 40.4928C60.2565 41.496 60.7346 42.4827 59.7146 42.4827C58.9465 42.4827 59.269 40.895 59.2979 40.2835C59.4618 36.8299 57.6659 37.9573 56.063 36.3929C55.7981 36.1342 55.6607 35.8232 55.6223 35.3672C55.089 35.7566 54.4683 37.7002 54.4683 38.7156L54.4681 38.7154Z" fill="#007CC1"/>
<path fill-rule="evenodd" clip-rule="evenodd" d="M37.5753 46.1454C37.5753 47.1563 36.1172 46.503 35.6233 46.2087C35.1951 45.9531 35.0827 45.7451 34.7427 45.5178C34.0341 46.1881 33.4719 47.0111 33.2278 48.1926C32.4313 52.0393 36.345 54.726 39.2542 54.726C39.9241 54.726 40.1742 54.562 40.7228 54.5167V54.3073C38.9155 54.3073 36.9014 52.144 39.1055 48.8226C40.0728 47.3647 41.098 45.7976 39.3008 44.4247C35.9374 41.8557 40.0936 41.4613 40.0936 38.4023C40.0936 36.6942 38.0642 35.0071 37.3654 34.9492C37.5661 35.8096 38.4181 36.912 36.5427 38.4189C35.6033 39.1736 34.3435 39.9176 33.6651 40.6764C31.3945 43.2152 37.5753 45.1772 37.5753 46.1454V46.1454Z" fill="#007CC1"/>
<path fill-rule="evenodd" clip-rule="evenodd" d="M44.3951 56.4009C44.3951 58.8154 41.3779 60.8048 41.2364 59.3341C41.2328 59.2923 41.3526 57.8952 41.3742 57.7829C41.5369 56.945 42.0986 57.357 43.3884 56.338C43.6564 56.1269 44.3951 55.6865 44.3951 56.4009ZM39.7787 51.1693C39.7787 53.0715 42.5068 53.4637 42.5068 54.3085C42.5068 54.9788 42.6131 55.1712 41.4974 55.7084C40.4994 56.1895 39.4233 56.0875 38.3096 56.0875C36.9901 56.0875 35.1851 55.3008 34.4575 54.4881C34.0552 54.0388 34.117 53.8523 33.3787 53.6807C33.1593 53.8708 32.9989 53.9409 32.8489 54.3033C32.3669 55.4685 32.8638 56.9783 33.308 57.9368C34.4103 60.3161 36.7703 61.8427 39.464 61.8427C40.4194 61.8427 41.518 61.6977 42.1911 61.423C44.9449 60.3002 46.6473 57.6041 46.0171 54.5748C45.3846 51.5359 42.061 52.3105 41.1682 49.9931C40.9794 49.5039 41.0838 49.1309 40.723 48.8672C40.6524 49.1323 39.7789 50.5721 39.7789 51.1693H39.7787Z" fill="#007CC1"/>
<path fill-rule="evenodd" clip-rule="evenodd" d="M65.1697 42.2748C65.2099 42.7541 65.5094 42.7761 66.1977 43.2374C67.0321 43.7976 69.1566 44.7825 69.1566 46.3554C69.1566 48.6615 65.6221 49.3063 63.9109 49.704C63.9355 50.0026 63.7364 50.0812 64.7754 50.3063C65.3285 50.4263 65.478 50.4209 65.9043 50.6454C65.6537 51.1182 64.2807 53.1754 65.542 52.5C65.6439 52.4457 65.8943 52.2764 66.0034 52.2093C66.3251 52.0107 66.5265 51.8086 67.0585 51.7964C67.1356 52.1254 67.2035 52.1765 67.3108 52.5912C67.4155 52.9946 67.5108 53.1599 67.5835 53.4709C68.0122 53.4354 68.0069 53.3725 68.0888 53.0334C68.2942 52.1847 68.1741 51.2299 68.3609 50.3745C68.4633 49.9056 69.21 48.1344 70.1012 48.1344C70.9843 48.1344 71.1503 49.2388 71.1503 50.2272C71.1503 51.9659 69.1422 54.8008 70.4949 54.0967C70.7718 53.9531 71.0944 53.568 71.6751 53.2616C72.8307 54.0334 72.6154 54.7396 73.4585 54.9361C73.6766 54.0033 73.354 53.5455 73.354 52.5293C73.9446 52.3918 74.6514 52.3527 75.2425 52.2154C75.1396 51.8316 75.0708 51.922 74.7001 51.71C74.4412 51.5613 74.2077 51.4184 73.9762 51.281C73.4483 50.9665 73.1221 50.6966 72.6954 50.2558C72.1693 49.7122 70.7469 47.402 72.3049 47.402C74.4389 47.402 75.079 50.6162 75.9767 50.8551C76.3493 50.0813 75.8885 48.9717 76.5015 48.9717C77.0371 48.9717 77.8931 49.0629 78.2848 48.9717C78.2416 48.4509 77.9701 48.5175 77.53 48.2599C77.0835 47.9989 76.9146 47.7981 76.6066 47.7159C76.6066 47.0201 76.8791 46.7432 77.2088 46.3268C77.3354 46.1668 77.5583 45.9264 77.5179 45.7301C77.3504 44.915 76.6323 46.5648 73.1442 46.5648C71.7075 46.5648 71.803 45.0549 73.8632 44.4567C74.6564 44.2263 75.7718 44.2529 76.1868 43.6351C75.1496 43.0879 74.259 43.4773 74.5429 42.6386C74.7393 42.0578 75.2713 41.3384 75.0351 41.1035C74.6936 40.763 74.0324 41.9607 73.249 41.9607C72.7373 41.9607 72.5417 41.0016 72.0993 40.8151C70.988 40.3475 72.6281 43.9967 71.3736 45.3226C70.7595 45.9719 69.8916 45.5225 69.8916 44.3675C69.8916 42.3256 70.8827 40.2867 70.1011 40.2867C69.6059 40.2867 69.3023 41.3645 68.4225 41.4377C68.3774 41.2693 67.6612 40.0225 67.0585 39.9727C67.0585 40.4377 67.2375 41.7028 66.9653 41.972C66.8518 42.0842 65.5657 42.0855 65.1701 42.2748H65.1697Z" fill="#007CC1"/>
<path fill-rule="evenodd" clip-rule="evenodd" d="M19.2146 47.6113C18.4057 47.6113 18.6389 47.145 17.9556 47.0884C16.7618 49.5696 21.8594 51.5334 21.8381 45.8326C21.8333 44.5728 21.6849 42.0129 22.1499 40.9118C22.1612 40.8848 22.2616 40.683 22.291 40.6341C22.4137 40.4339 22.3555 40.5201 22.4672 40.3916C22.4672 44.6268 24.2556 46.2959 23.8412 48.5584C23.639 49.6632 22.5001 49.8017 22.2578 48.7624C21.3185 49.3895 22.0474 51.2739 23.4118 51.2739C24.0542 51.2739 24.534 51.185 25.0038 50.6647C26.7593 48.7229 23.5163 43.5598 23.5163 41.124C23.5163 40.3149 23.4689 39.9586 23.6658 39.1799C23.7622 38.7985 23.8373 38.532 24.041 38.2984C24.041 41.6838 25.5604 43.8158 26.8047 46.1106L27.9943 48.0632C28.5895 49.1321 28.9724 49.4798 28.9724 50.7502C28.9724 51.7597 27.0835 52.1588 27.0835 50.4366C25.5812 50.5611 25.7326 53.9941 28.5526 53.9941C30.1139 53.9941 31.0708 52.8371 31.0708 51.1691C31.0708 49.7291 30.0441 48.3482 29.3081 47.2765L27.8801 45.2478C26.7228 43.5889 25.0904 40.8692 25.0904 38.822C25.0904 35.9574 25.2981 36.8599 25.7202 35.0547C25.1241 35.2134 23.5958 36.6942 23.121 37.1716C22.6083 37.6879 21.4987 39.4209 21.2554 40.1246C19.8631 44.1478 21.3938 47.6113 19.2148 47.6113H19.2146Z" fill="#007CC1"/>
<path fill-rule="evenodd" clip-rule="evenodd" d="M62.7567 75.4439L63.1205 73.8171C63.3 72.7191 62.7215 72.6027 63.7975 72.6129C65.8698 72.6332 66.2609 71.8013 67.163 71.7815C67.1843 72.7289 67.3172 73.5898 65.9404 74.4335C64.9152 75.0615 64.0562 75.4146 62.7565 75.4439H62.7567ZM63.4909 70.9444C60.3427 70.9444 60.483 69.535 59.0794 71.8812C58.4225 72.9788 57.5206 74.6748 58.136 76.1802C58.5454 77.1811 59.4779 77.6412 60.7632 77.6412C63.4296 77.6412 65.356 76.938 67.055 75.9636C67.4344 75.7465 67.8628 75.3966 68.2146 75.1315C68.6773 74.7829 68.8124 74.557 69.188 74.1145C69.8612 73.3221 70.4156 72.6638 70.4156 71.2579C70.4156 69.7492 69.308 68.8351 68.7031 69.0483C68.5535 69.1014 68.0922 69.5048 67.8557 69.6468C66.7503 70.3102 65.2101 70.9442 63.491 70.9442L63.4909 70.9444Z" fill="#007CC1"/>
<path fill-rule="evenodd" clip-rule="evenodd" d="M19.0047 0.627392C19.169 1.23986 19.7061 0.905407 20.143 1.38088C20.9219 2.22811 19.4683 2.71885 19.1456 2.86067C18.9033 2.96712 18.7045 3.05073 18.4802 3.13836C17.9838 3.33244 17.4711 3.43423 17.3262 3.97578C18.1942 4.55529 19.025 3.87111 20.3687 3.87111C21.3459 3.87111 21.2282 4.53696 20.7765 5.11469C20.2386 5.8029 19.5453 6.50605 19.5297 7.2195C19.9413 7.31517 19.9044 7.32771 20.2617 7.11965C21.0149 6.68116 22.4848 4.83202 23.1768 6.30249C23.5399 7.0743 23.0904 9.10273 23.8314 9.10273C24.8499 9.10273 24.4247 3.47603 26.9957 6.99374C27.41 7.56119 27.5029 8.05628 28.448 8.05628C28.825 6.63887 27.3002 6.26904 27.7138 4.49853C29.0892 3.8404 29.8533 5.08607 30.9662 4.49853C30.6725 3.24176 28.3431 3.22439 28.3431 1.77804C28.3431 1.43346 28.7418 1.25642 28.9851 1.16204C29.3841 1.00703 29.5995 1.02858 29.7072 0.62691C29.3896 0.194372 27.5044 0.219456 27.2461 0.260297C25.8642 0.478335 25.9988 1.03115 25.4276 1.48588C24.8388 1.95491 23.8977 1.92259 23.351 1.42027C22.732 0.851862 22.9361 -0.107762 19.929 0.291974C19.4291 0.358382 19.237 0.311269 19.0052 0.626588L19.0047 0.627392Z" fill="#007CC1"/>
<path fill-rule="evenodd" clip-rule="evenodd" d="M67.478 17.7891C68.2365 17.7891 68.7884 18.0587 69.4488 18.2303C70.7186 18.561 71.4237 18.5626 72.5494 18.6971C73.0102 18.7522 73.4782 18.6257 73.2401 19.0151C72.7806 19.7657 69.5231 20.206 67.9191 18.6049C67.4312 18.1184 67.7193 18.3287 67.478 17.7891V17.7891ZM64.4349 16.0105C64.0756 17.5496 65.3067 19.225 66.2968 20.2228C68.237 22.1771 71.3453 22.5103 73.8478 21.5261C75.0026 21.0723 75.7662 20.7295 75.7662 19.3587C75.7662 18.6377 75.3423 17.5051 75.0531 17.0356C74.7403 16.5287 74.276 15.3826 73.5629 15.3826C72.8435 15.3826 72.4402 16.0103 71.1496 16.0103C70.3389 16.0103 70.8678 14.8594 69.3663 14.8594C69.069 14.8594 68.5977 15.1248 68.2883 15.2488C66.1886 16.089 65.9629 15.6555 64.4348 16.0103L64.4349 16.0105Z" fill="#007CC1"/>
<path fill-rule="evenodd" clip-rule="evenodd" d="M43.7662 64.4575C43.3486 64.3465 43.3764 64.1196 42.8575 63.8984C40.1579 62.7488 39.488 66.1735 38.8387 67.0776C37.4559 69.0023 35.0133 67.5362 34.5331 68.0152C34.1128 68.4344 35.1772 70.9454 38.6248 70.9454C41.3349 70.9454 44.7104 69.3196 44.7104 66.7597C44.7104 66.1374 44.513 65.972 44.5004 65.3994C45.6598 64.8448 45.5626 65.8181 46.2838 65.8181C47.1564 65.8181 47.536 64.3935 46.5987 64.1436C47.5481 62.7297 46.513 62.2602 46.0743 62.2602C45.7126 62.2602 45.6679 62.3375 45.3396 62.3649C45.2364 61.1271 43.2467 61.2287 43.6751 62.7596C44.0197 63.9907 44.0247 63.3491 43.766 64.4576L43.7662 64.4575Z" fill="#007CC1"/>
<path fill-rule="evenodd" clip-rule="evenodd" d="M80.0687 51.3785C76.8996 49.8622 75.3107 53.1199 76.9481 54.5949C78.3221 55.8327 81.0565 55.56 81.3272 58.8077C82.234 58.2022 83.3505 56.4913 83.7566 55.4756C84.3085 54.0982 84.8127 52.6155 84.4152 50.7061C83.562 46.6084 79.5802 47.0123 79.7486 50.2293C79.781 50.8479 79.9581 50.9069 80.0685 51.3785H80.0687Z" fill="#007CC1"/>
<path fill-rule="evenodd" clip-rule="evenodd" d="M19.3191 55.3529C19.3191 53.9683 21.4174 53.9633 21.4174 55.2484C21.4174 57.0853 19.3191 56.5216 19.3191 55.3529V55.3529ZM17.7456 53.2601L17.8502 54.2018C16.037 54.2018 14.9865 56.6825 16.9048 57.8656C17.8547 58.4514 18.5133 58.0026 19.1094 57.8642C19.2081 59.0427 21.1081 59.8568 22.3802 58.7196C23.014 58.1531 23.1951 57.1786 22.7817 56.399C24.4114 56.3632 25.4782 54.4645 24.2235 53.0776C23.4511 52.224 22.505 52.3787 21.6274 52.8413C21.1225 50.6804 17.7456 51.0447 17.7456 53.26V53.2601Z" fill="#007CC1"/>
<path fill-rule="evenodd" clip-rule="evenodd" d="M11.9756 24.9036C11.9756 24.2644 11.9924 23.6299 12.7098 23.4384C12.9368 23.9102 12.971 25.1956 14.1559 25.9727C14.4474 26.1637 14.6758 26.3819 15.0181 26.4733C14.1136 27.8203 11.9756 26.3717 11.9756 24.9036V24.9036ZM14.9133 22.7063C14.9133 22.1444 15.2114 22.1834 15.6474 22.1834C16.3363 22.1834 16.2686 22.6948 16.5182 23.1984C16.7605 23.6872 17.1434 23.8477 17.4314 24.2762C16.9524 26.3261 14.9132 24.3268 14.9132 22.7065L14.9133 22.7063ZM9.5625 27.3104C9.5625 28.2449 10.2872 27.9666 11.1243 28.0549C12.437 28.1933 13.1263 28.9564 15.4705 27.9708C17.1567 27.2617 18.7956 25.188 18.7956 23.3342C18.7956 22.9847 18.2333 22.81 17.982 22.4706C17.7342 22.136 17.7103 21.6031 17.5364 21.241C14.4343 20.5205 11.1 21.7361 10.1508 24.7579C9.9409 25.427 9.9251 26.1502 9.77516 26.6852C9.70486 26.9356 9.5625 27.1357 9.5625 27.3102V27.3104Z" fill="#007CC1"/>
<path fill-rule="evenodd" clip-rule="evenodd" d="M78.9141 21.9751C78.9141 23.5043 80.2119 24.9802 81.1426 26.0305L82.7215 27.5951C83.081 27.9011 84.226 28.6719 84.7891 28.6719C85.8936 28.6719 86.1298 20.3374 85.6352 19.3522C85.4843 19.0512 85.3522 18.9298 84.999 18.8359C84.4039 19.9578 83.7831 20.5257 82.6205 21.1723C81.8218 21.6166 79.9477 22.1933 78.9141 21.9751V21.9751Z" fill="#007CC1"/>
<path fill-rule="evenodd" clip-rule="evenodd" d="M33.7982 63.4116C33.7982 61.9952 36.5263 63.2478 36.5263 64.3532C36.5263 65.4365 33.7982 64.245 33.7982 63.4116ZM25.5099 56.8195C25.5099 58.1875 27.7389 58.1192 28.834 58.6315C29.8934 59.1269 31.0372 59.915 31.3251 61.1693C31.6322 62.5076 31.7975 64.1025 32.5985 64.9224C34.6838 67.0575 37.9953 66.7442 37.9953 65.2953C37.9953 63.1577 35.8505 61.4276 34.2333 61.5435C33.4208 61.6019 32.8606 61.7398 32.5224 60.9172C31.8921 59.3834 31.9836 57.5074 30.083 56.1302C28.3384 54.866 25.5098 55.473 25.5098 56.8195H25.5099Z" fill="#007CC1"/>
<path fill-rule="evenodd" clip-rule="evenodd" d="M59.3993 22.1837L58.3528 22.0598C58.4908 21.5554 58.8745 21.6015 58.8745 20.8234C58.8745 20.1801 57.7142 20.6837 56.71 20.4708C55.8821 20.2951 55.773 19.7246 55.0979 19.5678C54.2811 21.1066 54.1428 22.5142 54.7145 24.2403C54.923 24.8714 55.1856 25.5157 55.9371 25.5323C56.4863 23.1818 57.4435 25.8185 60.9631 24.5804C62.8614 23.9123 63.9614 21.7675 63.4678 19.4864C63.3899 19.128 63.2516 18.8431 63.1767 18.5215H62.9668C62.9451 19.4914 62.6145 20.4891 61.9991 21.1141C61.3842 21.7395 60.1292 22.2834 59.3995 22.1839L59.3993 22.1837Z" fill="#007CC1"/>
<path fill-rule="evenodd" clip-rule="evenodd" d="M62.0222 55.3542C61.7236 55.3542 61.2875 55.1448 61.2875 54.936C61.2875 54.5378 61.4911 53.284 61.6023 53.0521C62.8844 53.3504 62.9825 55.3542 62.0222 55.3542ZM60.2384 52.2152C60.2384 53.5543 59.0796 54.9691 59.2117 56.2667C59.5215 59.3136 62.6155 59.2152 63.7273 58.1014C65.3459 56.4799 64.6718 52.9717 61.5685 51.3072C61.0572 51.033 60.451 50.75 59.7139 50.75C59.9169 51.1333 60.2382 51.6561 60.2382 52.2152H60.2384Z" fill="#007CC1"/>
<path fill-rule="evenodd" clip-rule="evenodd" d="M18.165 29.1947C18.165 30.9234 19.1611 32.3342 20.7881 32.3342C22.5327 32.3342 23.2262 30.3552 22.7878 28.7707C22.4594 27.5853 20.666 25.9512 19.634 25.9512C19.0152 25.9512 18.165 28.3517 18.165 29.1949V29.1947Z" fill="#007CC1"/>
<path fill-rule="evenodd" clip-rule="evenodd" d="M55.5166 17.3707L55.5679 18.0517C55.6811 18.5455 55.526 18.2984 55.8315 18.5217C55.8895 17.8253 56.9148 16.8472 57.9299 16.8472C58.7957 16.8472 58.8416 16.8612 59.6087 17.2659C59.2813 17.7533 58.5559 18.3006 59.3975 18.8356C60.2061 19.3496 60.2872 19.2993 60.7628 20.1956C61.1578 20.0904 61.3885 19.86 61.6057 19.5715C62.9396 17.8026 62.9761 15.2778 62.4414 15.2778C62.0215 15.2778 61.9201 15.4934 61.4972 15.5914C60.6701 15.0392 59.7679 14.5449 58.6646 14.5449C57.8844 14.5449 56.9104 14.9043 56.4835 15.2997C55.9248 15.8163 55.5168 16.6547 55.5168 17.3704L55.5166 17.3707Z" fill="#007CC1"/>
<path fill-rule="evenodd" clip-rule="evenodd" d="M60.9727 67.4914V68.3285C60.9727 69.6435 63.2847 69.7877 64.4397 69.7001C65.6546 69.6084 67.5832 69.3254 67.5832 67.8051V67.2822C67.5832 65.1729 60.9727 65.3707 60.9727 67.4915V67.4914Z" fill="#007CC1"/>
<path fill-rule="evenodd" clip-rule="evenodd" d="M83.6353 14.9639C83.6353 16.4101 82.2964 17.5086 81.0459 18.0319C79.1372 18.8304 77.1299 18.0619 77.1299 19.6728C77.1299 20.592 78.3786 20.9702 79.2892 20.8853C80.5113 20.7716 81.1204 20.5798 82.0272 20.1614C85.1905 18.7041 86.381 14.8134 83.4255 14.127C83.4684 14.6409 83.6354 14.5101 83.6354 14.9639H83.6353Z" fill="#007CC1"/>
<path fill-rule="evenodd" clip-rule="evenodd" d="M12.0802 16.0091V16.5323C12.0802 18.6057 14.335 19.5666 16.4868 19.5666C16.8355 18.0743 16.9971 17.4897 16.3696 15.8118C16.1443 15.2093 15.6974 14.7227 15.1294 14.4325C13.6063 13.6557 12.0801 14.7129 12.0801 16.0091H12.0802Z" fill="#007CC1"/>
<path fill-rule="evenodd" clip-rule="evenodd" d="M65.2744 57.3417C65.2744 59.545 69.2613 60.1111 69.2613 56.7137C69.2613 55.7949 68.6251 55.0834 68.0661 54.6619C67.4516 54.1987 66.626 53.8887 65.5888 53.8887C66.3732 55.3664 65.2746 55.9108 65.2746 57.3417H65.2744Z" fill="#007CC1"/>
<path fill-rule="evenodd" clip-rule="evenodd" d="M39.9887 15.2772C39.9887 14.2048 39.7288 14.2559 39.0192 13.6279C37.9035 12.6408 32.3715 8.03319 35.393 12.8498C35.9809 13.7874 37.7097 16.2853 38.4559 16.8086C39.4418 17.5001 39.9887 16.2786 39.9887 15.2772V15.2772Z" fill="#007CC1"/>
<path fill-rule="evenodd" clip-rule="evenodd" d="M61.4971 35.9954C61.4971 37.4187 61.9985 38.4021 63.7004 38.4021C66.3929 38.4021 66.2414 34.2168 63.5955 34.2168C62.4836 34.2168 61.4971 35.2398 61.4971 35.9954V35.9954Z" fill="#007CC1"/>
<path fill-rule="evenodd" clip-rule="evenodd" d="M34.2178 89.9884C34.2178 91.2208 34.444 92.0812 36.0016 92.0812C38.0139 92.0812 38.6524 88.7537 37.0368 88.0139C35.3364 87.2348 34.2178 88.942 34.2178 89.9884Z" fill="#007CC1"/>
<path fill-rule="evenodd" clip-rule="evenodd" d="M78.1795 15.0674C77.2886 15.0674 77.2457 15.1356 76.501 14.9627C76.5929 15.307 76.6757 15.2539 76.7952 15.6111C77.2758 17.0497 76.8367 17.4742 78.7045 17.4742C79.4026 17.4742 80.5481 17.0214 81.0302 16.7595C82.9427 15.7199 82.7831 14.2305 81.5369 14.2305C80.3347 14.2305 79.5419 15.0676 78.1795 15.0676V15.0674Z" fill="#007CC1"/>
<path fill-rule="evenodd" clip-rule="evenodd" d="M61.707 27.5201C61.707 30.0536 65.583 30.1829 65.6568 27.613C65.69 26.4674 64.7463 25.6367 63.4905 25.6367C62.6692 25.6367 61.707 26.661 61.707 27.5201Z" fill="#007CC1"/>
<path fill-rule="evenodd" clip-rule="evenodd" d="M58.4551 30.3447C58.4551 31.0625 58.4533 31.4521 59.0005 31.998C59.9471 32.9419 62.1269 32.7475 62.1269 30.3447C62.1269 29.5642 61.2287 28.7754 60.2386 28.7754C59.392 28.7754 58.4551 29.5433 58.4551 30.3447Z" fill="#007CC1"/>
<path fill-rule="evenodd" clip-rule="evenodd" d="M54.6777 32.5422C54.6777 34.8259 58.1401 34.8233 58.1401 32.5422C58.1401 30.1697 54.6777 30.2609 54.6777 32.5422Z" fill="#007CC1"/>
<path fill-rule="evenodd" clip-rule="evenodd" d="M8.93217 18.3115C8.93217 18.8321 8.89106 19.223 9.14338 19.6704L9.62497 20.2365C10.9382 21.4526 12.9605 20.7204 13.1293 20.09C12.4153 20.0312 11.591 19.3087 11.2219 18.8527C10.6484 18.1438 10.611 17.4694 10.611 16.2188C9.82763 16.2839 8.93217 17.4268 8.93217 18.3115V18.3115Z" fill="#007CC1"/>
<path fill-rule="evenodd" clip-rule="evenodd" d="M56.0416 56.5057C56.0416 57.1558 55.7662 57.8467 55.8659 58.3468C56.1838 59.9445 58.6646 59.8253 58.6646 57.9709C58.6646 57.327 58.2638 56.6953 57.7687 56.3529C57.1942 55.9563 56.6577 55.7734 55.7266 55.7734C55.8036 55.9182 56.0414 56.3328 56.0414 56.5057H56.0416Z" fill="#007CC1"/>
<path fill-rule="evenodd" clip-rule="evenodd" d="M14.9131 30.8687C14.9131 32.5553 16.9663 33.0642 18.0606 32.3339C17.7372 31.8517 16.9065 31.1536 16.9065 29.7177C16.9065 29.1476 17.075 28.854 17.1164 28.3574C16.0822 28.4431 14.9132 29.7332 14.9132 30.8689L14.9131 30.8687Z" fill="#007CC1"/>
<path fill-rule="evenodd" clip-rule="evenodd" d="M14.3887 32.7517C13.0318 32.8645 11.0785 33.667 9.79918 32.6201C9.36773 32.2671 9.17168 31.7961 8.72266 31.4961C8.72266 37.7584 13.9882 33.3483 14.3887 32.7517V32.7517Z" fill="#007CC1"/>
<path fill-rule="evenodd" clip-rule="evenodd" d="M9.03711 9.62695C9.03711 11.3714 10.813 9.83003 11.3464 9.41856C11.8162 9.05597 12.587 8.42388 12.6046 7.63856C12.4032 7.59177 12.0058 7.42969 11.8704 7.42969C10.7505 7.42969 9.72604 7.6786 9.31603 8.64948C9.25428 8.79548 9.03727 9.50764 9.03727 9.62695H9.03711Z" fill="#007CC1"/>
<path fill-rule="evenodd" clip-rule="evenodd" d="M65.7988 33.7973C65.7988 35.7434 68.6319 35.7705 68.6319 33.6927C68.6319 32.0862 65.7988 31.7895 65.7988 33.7973V33.7973Z" fill="#007CC1"/>
<path fill-rule="evenodd" clip-rule="evenodd" d="M39.4642 5.44147C40.1019 5.44147 40.5965 3.03517 39.3593 3.03517C38.5799 3.03517 35.7031 3.01636 37.0721 4.26847C37.4921 4.65261 38.7223 5.44147 39.4642 5.44147V5.44147Z" fill="#007CC1"/>
<path fill-rule="evenodd" clip-rule="evenodd" d="M13.8641 29.9264C13.1595 29.9421 12.3682 30.2701 11.0634 29.6852C10.0427 29.2269 10.2842 29.1174 9.77246 28.7754C9.77246 29.8226 9.77923 31.2505 11.2964 31.4431C12.2912 31.5697 13.6772 30.6241 13.8641 29.9264V29.9264Z" fill="#007CC1"/>
<path fill-rule="evenodd" clip-rule="evenodd" d="M65.6943 30.1358C65.6943 31.641 68.2126 32.0211 68.2126 29.9264C68.2126 28.4995 65.6943 28.2197 65.6943 30.1358Z" fill="#007CC1"/>
<path fill-rule="evenodd" clip-rule="evenodd" d="M58.665 34.5303C58.665 36.2381 61.1828 36.0811 61.1828 34.5303C61.1828 32.9427 58.665 32.8451 58.665 34.5303Z" fill="#007CC1"/>
<path fill-rule="evenodd" clip-rule="evenodd" d="M62.5469 32.0203C62.5469 34.4968 66.1963 33.1727 64.7151 31.3231C63.9452 30.3621 62.5469 31.1762 62.5469 32.0203Z" fill="#007CC1"/>
<path fill-rule="evenodd" clip-rule="evenodd" d="M20.8939 24.1716C22.4256 24.1716 22.5404 21.6602 20.9987 21.6602C19.0725 21.6602 19.4559 24.1716 20.8939 24.1716Z" fill="#007CC1"/>
<path fill-rule="evenodd" clip-rule="evenodd" d="M19.4241 21.451C20.4373 21.451 20.9598 20.0972 20.2949 19.4314C19.8647 19.0006 19.6255 19.0442 19.2142 19.0442C17.8753 19.0442 17.574 21.4508 19.4241 21.4508V21.451Z" fill="#007CC1"/>
<path fill-rule="evenodd" clip-rule="evenodd" d="M55.7266 28.2528C55.7266 30.0795 58.1398 29.9407 58.1398 28.2528C58.1398 26.7742 55.7266 26.719 55.7266 28.2528Z" fill="#007CC1"/>
<path fill-rule="evenodd" clip-rule="evenodd" d="M66.1143 37.4612C66.1143 39.0942 68.5275 39.0987 68.5275 37.4612C68.5275 35.9494 66.1143 36.0301 66.1143 37.4612Z" fill="#007CC1"/>
<path fill-rule="evenodd" clip-rule="evenodd" d="M65.17 25.1136C66.611 25.1136 66.8133 22.707 65.0652 22.707C63.6302 22.707 63.5807 25.1136 65.17 25.1136Z" fill="#007CC1"/>
<path fill-rule="evenodd" clip-rule="evenodd" d="M58.5596 26.7875C58.5596 27.0655 58.7163 27.3797 58.8533 27.5403C59.8097 28.6659 61.6977 27.2474 60.6786 26.034C60.0092 25.2374 58.5596 25.6579 58.5596 26.7873V26.7875Z" fill="#007CC1"/>
</g>
<defs>
<clipPath id="clip0_53_561">
<rect width="98" height="108" fill="white"/>
</clipPath>
</defs>
</svg>
