<svg width="175" height="63" viewBox="0 0 175 63" fill="none" xmlns="http://www.w3.org/2000/svg">
<path fill-rule="evenodd" clip-rule="evenodd" d="M136.881 28.8539C137.496 26.6701 138.605 24.5861 139.738 23.1327C141.244 21.204 142.242 20.5051 144.74 20.9748C145.111 26.1338 141.708 28.3177 136.881 28.8521V28.8539ZM98.8648 28.4175C98.4226 24.588 97.4314 16.7624 101.787 16.6644C103.609 19.7543 100.978 27.3986 98.8648 28.4175ZM0 5.30335V7.50382C5.21767 13.5043 8.75323 26.4445 11.2902 35.4609L17.6575 58.9449C18.7151 62.0699 19.7413 63.4882 23.0023 62.8502C24.6476 58.8025 20.8467 40.5904 20.1171 34.7471C19.2623 27.9053 17.2688 10.5309 20.5759 5.40691C27.9492 8.53564 27.6138 46.2524 30.1121 48.8763C31.3097 50.1356 33.1723 49.8009 33.9719 48.2051C34.685 46.7813 35.0166 26.2522 37.0819 17.3246C37.9552 13.5505 38.858 9.44171 42.1485 8.85554C47.0695 15.9987 35.2764 49.2979 47.3993 50.7292C52.2209 51.2987 54.3765 45.5238 55.3419 41.391C56.3663 42.4044 55.9388 41.9384 56.709 43.1736C57.3704 44.235 57.2598 44.4051 58.0336 45.3667C59.0414 46.6167 60.5688 47.5875 62.9731 47.4469C65.9099 47.275 67.4428 45.2927 68.6311 43.1237L69.7458 41.1359C69.801 41.0434 69.9097 40.864 70.0037 40.7364C83.2174 53.967 80.7117 24.0388 80.2014 15.6215C95.379 18.6338 79.3944 26.622 83.3463 39.2775C84.2602 42.2028 86.9003 44.3459 90.6717 43.5379C92.4201 43.1644 93.8811 42.2047 94.8466 41.3078L97.063 38.7745C97.9289 37.9516 97.0574 38.5619 98.2034 37.8703C100.858 43.9798 110.75 48.0775 113.072 34.27L113.984 36.0285C115.047 38.6469 116.425 45.9621 122.206 43.6803C125.145 42.5209 126.86 38.0071 127.556 34.8969C127.901 33.3566 127.923 32.0954 128.92 30.9434C131.626 31.8199 131.147 31.0766 130.875 34.0259C130.427 38.8651 130.512 44.6973 135.838 46.9236C143.143 49.9766 146.896 40.2982 150.021 37.4283C149.461 41.4613 146.26 47.0087 147.747 50.1726C150.894 50.8956 151.371 49.3331 152.556 47.6947C154.102 45.559 161.805 35.1262 163.842 36.8181C163.852 36.8255 165.659 37.0067 163.518 40.4998C162.766 41.7276 162.157 42.2657 161.442 43.7283C160.419 45.8253 159.12 49.5624 160.126 52.3841C162.229 58.2829 172.404 52.6264 175 50.8068V48.4621C171.581 45.6829 169.816 50.4111 164.056 50.2502C164.998 44.2553 172.537 38.8337 169.071 33.4398C164.646 26.5517 155.681 36.9938 154.557 37.7575C154.839 35.6217 155.303 33.6358 155.618 31.4982C156.027 28.7282 156.672 25.9989 154.962 24.5935C151.224 21.5203 144.099 45.0449 137.668 42.7372C135.024 40.7327 134.493 36.1266 136.195 32.4579C141.102 32.3506 143.836 30.9915 146.106 28.3509C148.143 25.9822 149.73 21.3575 147.476 18.2473C145.242 15.1629 140.897 15.5679 138.043 17.907C135.923 19.6452 133.472 23.6301 132.588 27.1398L128.736 26.0229C128.391 22.2507 128.955 16.8087 126.329 14.8412C122.711 12.1267 119.513 15.934 120.091 20.42C120.951 27.088 126.245 24.7673 123.116 35.1447C121.827 39.4236 121.243 38.928 119.846 39.442C118.905 35.8732 117.738 31.8569 117.053 27.7333C116.259 22.9496 117.162 17.7184 111.577 18.9241C108.488 23.3638 112.537 34.3736 106.752 38.1088C103.218 38.0903 102.644 36.232 101.352 33.351C103.025 30.5514 107.684 27.0103 108.81 19.6508C111.082 4.80039 91.5376 5.00934 94.2515 26.5369C94.7139 30.2093 96.4163 32.3617 94.7692 34.7563C90.5833 40.8455 85.6899 41.1562 89.0172 29.5806C89.7136 27.1601 91.4179 23.1105 91.7569 21.0228C93.0852 12.8552 85.782 12.2561 80.5017 10.1462C78.8748 7.94576 76.8371 -2.24851 70.5232 3.43203C64.2333 9.09408 75.2545 14.0202 75.564 14.2384C76.2273 20.2813 77.1338 33.473 75.1145 38.3991C69.1709 32.4875 72.8576 26.3927 66.3981 28.5211C64.9205 32.9516 67.2917 39.5844 62.4185 42.1584C56.9669 36.9143 58.6324 21.7126 62.4185 20.102C64.9574 22.0972 64.0896 26.7163 68.3197 23.9814C70.8991 18.14 60.0363 7.5593 55.4414 21.6904C53.6579 27.1749 54.9476 34.8987 50.0819 43.2124C48.7406 45.5035 49.3817 44.7287 47.8378 45.1207C43.6187 37.5116 50.4743 18.5949 47.6978 8.90362C46.0765 3.24342 39.5986 1.31108 36.2768 6.52933C34.6168 9.13476 31.7961 18.3767 31.8606 21.8956C30.0919 14.4048 28.9311 -2.00997 19.5386 0.203445C11.8669 2.01005 14.6249 21.1856 14.6581 28.7929C12.3514 24.8542 7.96468 -1.9323 0.00552719 5.30151L0 5.30335Z" fill="white"/>
</svg>
