<svg width="107" height="113" viewBox="0 0 107 113" fill="none" xmlns="http://www.w3.org/2000/svg">
<path fill-rule="evenodd" clip-rule="evenodd" d="M0 86.3522V110.873C0 111.909 0.780389 112.635 1.92626 112.635H3.69924C4.55347 112.635 5.09375 112.229 5.38114 111.663C5.56427 111.301 5.56388 111.07 5.56388 110.538V93.2798C5.73752 93.2939 5.8315 93.5849 5.99041 93.8588L7.81339 97.0603C8.29282 97.8604 8.78931 98.8222 9.28095 99.6427C9.34665 99.7525 9.39413 99.8448 9.45614 99.9547L11.8523 104.167C11.9779 104.389 12.0955 104.583 12.218 104.806L13.3087 106.73C13.4286 106.953 13.5602 107.141 13.6757 107.368L15.1508 109.943C15.3714 110.312 15.6832 110.911 15.9029 111.231C16.4124 111.974 17.3096 112.634 18.5569 112.634H21.6141C22.751 112.634 23.5097 111.895 23.5097 110.69V88.9347H63.0079C63.6419 88.9347 64.2002 88.4921 64.2002 87.8407V85.8657C64.2002 85.0695 63.5904 84.7113 62.8243 84.7113H20.0246C18.7896 84.7113 17.9705 85.3675 17.9755 86.5942C17.9995 92.2702 17.9763 97.9921 17.9763 103.671H17.8846C17.8486 103.536 17.6201 103.189 17.5385 103.043C17.412 102.816 17.306 102.613 17.18 102.397C17.1228 102.298 17.0672 102.189 17.004 102.085L11.2871 91.9672C11.2212 91.8586 11.1781 91.7692 11.1107 91.6562C11.045 91.547 10.9975 91.4541 10.9355 91.3442C10.865 91.2188 10.8206 91.14 10.7512 91.011L8.42479 86.9118C7.98722 86.1777 7.63607 85.4401 6.82836 85.0346C6.36404 84.8018 5.88267 84.6504 5.19762 84.6504H1.77337C1.24103 84.6504 0.798993 84.8729 0.527107 85.1435C0.267042 85.4021 0.000387578 85.8474 0.000387578 86.3519L0 86.3522Z" fill="white"/>
<path fill-rule="evenodd" clip-rule="evenodd" d="M47.8443 11.787H51.2378C51.198 11.9561 50.3663 13.4261 50.2289 13.7013C50.1582 13.843 50.0841 13.9632 50.0146 14.0957C49.9181 14.2797 49.6588 14.7109 49.6173 14.8864C50.0779 14.8762 52.3385 14.157 54.7841 14.157C56.1612 14.157 57.6673 14.4097 58.1993 15.7458C58.4405 16.3521 58.5925 16.9968 58.7144 17.725C59.2948 21.194 59.5982 24.86 60.8892 28.0821C61.5836 29.8159 62.9622 31.9858 64.2687 33.4434C64.3736 33.5603 64.4649 33.6695 64.5619 33.7901L65.4708 34.7709C65.647 34.9977 66.2805 35.6262 66.5461 35.8591L67.2192 36.4664C67.7825 37.0236 68.4681 37.5426 69.084 38.0465C69.2925 38.2167 70.0851 38.8597 70.1917 38.8597C70.4074 38.8597 70.6196 38.8238 70.6196 38.5557C70.6196 38.3215 70.2053 38.0062 70.0466 37.8496L68.1953 35.8302C68.0914 35.7083 67.9928 35.6077 67.8988 35.4868C67.8073 35.3691 67.7085 35.2691 67.6064 35.1395C67.4118 34.8918 67.2223 34.6846 67.0339 34.4323C65.6654 32.5987 64.8391 31.4879 63.7511 29.3394C63.23 28.3103 62.8078 27.235 62.4458 26.1397C61.2724 22.59 61.3912 17.0464 60.0726 14.4001C59.9965 14.2466 59.918 14.1408 59.8279 14.005C58.7051 12.3101 56.0901 12.1343 53.9936 12.4305L52.46 12.6988C52.6879 12.2706 53.8677 10.432 53.9272 10.1768H51.4205C51.7021 9.75888 52.2166 8.8336 52.5115 8.344C52.6398 8.13098 52.7546 7.94204 52.8573 7.71515C53.0059 7.38541 53.1096 6.97748 53.2282 6.6254L53.6522 5.58861C53.7584 5.37693 53.8911 5.14157 54.0188 4.95012C54.2095 4.66488 54.4543 4.39927 54.6612 4.13001C54.801 3.94839 54.9926 3.80509 55.1575 3.6512C55.7507 3.09862 56.6193 2.67238 57.3881 2.46495C59.7903 1.81626 62.1805 2.47689 63.9899 3.91314C64.6364 4.42682 65.2462 4.9871 65.8129 5.59573L69.2394 9.63426C69.616 10.099 70.3448 10.8475 70.7642 11.2483L74.7423 14.3739C75.2174 14.7564 75.7802 15.2246 76.2063 15.6535L78.5896 17.9943C78.6673 18.0869 78.6851 18.1185 78.7744 18.2061C78.8442 18.2749 78.9093 18.3315 78.9729 18.4035C79.049 18.4894 79.0686 18.5305 79.1562 18.6164C79.2994 18.756 79.3955 18.8814 79.5391 19.0255C79.9159 19.4035 80.7964 20.4748 81.1759 20.9234L81.5239 21.3375C81.5925 21.4224 81.6379 21.4706 81.704 21.5536L82.4024 22.4392C82.5247 22.5948 82.6264 22.7364 82.7494 22.8845L83.4167 23.771C83.5318 23.9376 83.6356 24.0574 83.7529 24.2265L85.2268 26.3167C85.2846 26.401 85.3319 26.474 85.3856 26.5538L86.9506 28.8874C87.7455 30.0727 89.0321 32.0222 89.7249 33.1796L91.5246 36.1004C91.9234 36.7574 92.3106 37.4028 92.6935 38.0684C92.7829 38.2243 92.8774 38.382 92.9767 38.5465L93.989 40.3055C94.0458 40.4009 94.0788 40.4719 94.1303 40.5603L95.3923 42.8306C95.7804 43.6108 96.236 44.3487 96.6255 45.1293C96.8094 45.4979 96.9817 45.8071 97.1656 46.1724L98.7347 49.3223C98.8278 49.5076 98.9002 49.6834 98.9894 49.8593C99.0347 49.9483 99.0752 50.0238 99.1225 50.1222C99.9864 51.9115 100.921 54.0166 101.645 55.8188C102.025 56.7655 102.424 57.6913 102.762 58.659C102.811 58.8015 102.954 59.1314 102.964 59.248C102.862 59.2393 102.841 59.2118 102.775 59.1625L97.1991 55.3156C96.2472 54.6312 95.318 53.9818 94.3822 53.284C93.6852 52.7636 92.9594 52.2713 92.2876 51.7196C92.1668 51.6205 92.0664 51.5546 91.9407 51.4567L86.7524 47.2549C86.4157 46.9737 85.5786 46.2734 85.3011 45.9928L84.659 45.4157C84.2015 44.9558 83.5703 44.4246 83.0849 43.9417C82.8737 43.732 82.6836 43.5448 82.4737 43.334L81.8466 42.7418C81.7324 42.6301 81.6737 42.538 81.5563 42.4226L78.7777 39.4725C78.2814 38.8564 77.7303 38.284 77.2361 37.6624C77.0466 37.4246 76.8788 37.2285 76.6902 36.9895L74.8473 34.5975C74.7533 34.4735 74.6806 34.3689 74.5896 34.2464L73.5788 32.82C73.2464 32.3265 72.9334 31.8541 72.6007 31.3612L69.8615 26.8217C69.1596 25.6736 68.1848 23.6275 67.5833 22.4322C67.2419 21.7537 66.956 21.0359 66.6153 20.3554L66.0524 19.0919C65.8785 18.6647 65.3666 18.735 65.3691 19.1389C65.3724 19.7951 66.075 22.1441 66.2853 22.9014C66.5989 24.0297 67.4223 26.1374 67.9705 27.2125L68.8571 29.0049C69.6367 30.5571 70.6764 32.1836 71.6289 33.6035C71.8058 33.8666 71.9742 34.1135 72.1662 34.3758L72.7234 35.159C73.7109 36.5996 76.2048 39.6235 77.3834 40.8885L78.515 42.1035C78.581 42.178 78.5925 42.2108 78.6673 42.2863C78.7299 42.3491 78.7727 42.3903 78.8361 42.4531L79.1564 42.803C79.275 42.9219 79.374 43.0182 79.4934 43.1368L80.1507 43.8204C80.5149 44.1823 81.8303 45.5399 82.1543 45.8094L82.5049 46.1297C82.6237 46.2478 82.7194 46.3489 82.8403 46.4644L85.4695 48.8651C85.9584 49.3344 87.0428 50.2148 87.6103 50.7173L88.5269 51.4775C88.6515 51.5883 88.7691 51.6711 88.8935 51.7815L90.0022 52.6852C91.2539 53.6569 92.492 54.6515 93.7669 55.5977L94.5353 56.1705C95.2363 56.694 95.0868 56.4675 95.3791 57.3373C96.1038 59.4926 96.9207 61.6226 97.641 63.7794C97.8646 64.4483 98.1111 65.0841 98.3365 65.762L98.8634 67.2439C98.9279 67.4146 98.9653 67.5683 99.0336 67.7432C99.8031 69.7183 98.8849 69.4269 97.1863 69.4269C96.0333 69.4269 96.0079 68.3788 95.6756 67.5257C95.4019 66.8237 95.0273 65.6948 94.7824 64.9797L93.896 62.4273C93.8227 62.2058 93.7456 62.009 93.6745 61.7969L93.2387 60.5284C93.1577 60.2853 93.0809 60.0384 92.784 60.0384C92.6579 60.0384 92.4784 60.1875 92.4784 60.3119C92.4784 60.6203 93.0449 63.2339 93.1177 63.596L94.132 68.4521C94.1818 68.6964 94.2634 69.0149 94.2813 69.2763C94.3047 69.6243 94.3206 69.8212 94.1429 70.0787C94.0007 70.2842 93.3703 70.8955 93.1893 71.0754C92.9499 71.3133 92.4573 71.9188 92.0504 71.9188C91.594 71.9188 91.45 71.5321 91.3647 71.1421L90.4117 66.9234C90.1919 65.9622 89.8976 64.9125 89.6989 63.9558C89.5371 63.1767 89.3115 62.362 89.1152 61.5879L87.33 54.5205C87.2335 54.1368 87.1461 53.5665 86.731 53.5665C86.5031 53.5665 86.3717 53.799 86.3975 54.0469C86.4229 54.2903 86.4652 54.5452 86.5037 54.795L87.9013 63.4331C87.9783 63.8913 88.0517 64.3888 88.1447 64.8622C88.2354 65.32 88.3056 65.8058 88.3899 66.2896C88.4695 66.7445 88.5569 67.2318 88.6439 67.7083C88.9042 69.1355 89.1344 70.5379 89.4133 71.9572C89.5055 72.4265 89.5786 72.9236 89.6896 73.3537C89.9505 74.3624 90.4477 75.018 91.5915 75.018C92.0783 75.018 92.6492 74.7104 92.8992 74.4643L95.3002 72.1713C96.2271 71.419 97.9437 71.6453 99.4789 71.6453C100.27 71.6453 100.529 71.6598 101.004 71.3073C102.169 70.4402 101.407 68.6777 100.995 67.6172L100.217 65.4735C100.136 65.2305 100.042 65.0063 99.9564 64.7599C99.6221 63.8013 99.2531 62.8768 98.9322 61.919C98.8518 61.6779 98.77 61.4398 98.675 61.2021L98.1601 59.7697C98.1442 59.7276 97.6212 58.4207 97.6755 58.3676C97.7146 58.3298 97.8346 58.4475 97.8541 58.4629C97.9226 58.5155 97.9774 58.5546 98.0464 58.6066L99.2696 59.4876C99.9482 59.9881 100.687 60.4101 101.393 60.8718C101.54 60.9681 101.69 61.0488 101.834 61.1315C102.136 61.3038 102.435 61.4623 102.75 61.6191C103.12 61.8027 104.923 62.7497 105.416 62.1116C105.799 61.6164 105.491 60.2695 105.374 59.8019C104.729 57.2301 103.72 54.8577 102.702 52.43L99.4384 45.647C99.2442 45.261 99.0554 44.9188 98.8679 44.543C98.7743 44.3558 98.6822 44.2046 98.5824 44.0062C98.3471 43.5376 97.677 42.2749 97.4063 41.8329L95.2812 38.0808C95.1719 37.8999 95.0878 37.7377 94.9795 37.5602L91.4942 31.818C90.8458 30.7938 90.2158 29.7539 89.5373 28.7493C89.4222 28.579 89.3282 28.422 89.2131 28.2512L88.2104 26.726C87.975 26.3748 87.7655 26.0472 87.5318 25.6988C86.8089 24.6212 86.0867 23.5401 85.303 22.5054C84.5234 21.4765 83.755 20.424 82.9027 19.4525L82.5122 18.9898C82.2229 18.616 81.8652 18.2348 81.5412 17.8887L78.8665 15.1083C78.713 14.9551 78.5783 14.8521 78.4231 14.6982C78.3514 14.6268 78.2981 14.5676 78.2247 14.5L73.1476 10.3093C72.354 9.667 71.9389 9.25502 71.2079 8.46997C71.1304 8.38657 71.112 8.3415 71.0252 8.25656C70.9332 8.16642 70.908 8.115 70.8264 8.02852C70.6806 7.87386 70.5653 7.73884 70.427 7.57474C70.163 7.26311 69.9235 6.97613 69.665 6.66103L68.5369 5.29123C68.043 4.68279 67.0035 3.61287 66.4855 3.13675C66.4027 3.06048 66.356 3.04064 66.2706 2.95513L65.8202 2.5522C65.7386 2.4898 65.6747 2.43201 65.585 2.36056C64.9708 1.86845 64.0327 1.19453 63.3002 0.893877C62.9909 0.76695 62.7083 0.625001 62.3925 0.520032C61.454 0.20859 60.5588 0.036017 59.6645 0H58.9593C58.1632 0.0315871 57.3582 0.17007 56.5152 0.414292C55.7191 0.644454 54.8143 1.13078 54.1547 1.62327L53.744 1.94434C52.9257 2.57281 52.3267 3.42239 51.8005 4.297C51.7116 4.44415 51.6434 4.61846 51.5742 4.77062C51.5031 4.92643 51.4308 5.12231 51.3707 5.29777C50.7828 7.01523 50.9304 6.63002 49.9779 8.1982L47.8438 11.7891L47.8443 11.787Z" fill="white"/>
<path fill-rule="evenodd" clip-rule="evenodd" d="M96.8197 95.9831C97.4369 95.9831 98.1101 96.1131 98.6661 96.3057C99.0874 96.4515 99.711 96.7993 100.053 97.1142C100.449 97.4788 100.744 97.8246 101.018 98.313C101.233 98.6965 101.528 99.5376 101.528 99.9939H92.1118L92.3015 99.1192C92.5827 98.1165 93.3067 97.2024 94.2032 96.6639C94.9291 96.2279 95.9591 95.9833 96.8197 95.9833V95.9831ZM107 101.573V102.422C106.98 102.702 106.935 102.948 106.857 103.133C106.522 103.918 105.841 104.035 104.921 104.035H92.0812C92.0812 104.308 92.1755 104.765 92.2399 105.001C92.3598 105.443 92.5284 105.813 92.7435 106.202C93.1369 106.913 94.0175 107.734 94.7756 108.041C95.8341 108.471 96.0938 108.471 97.217 108.471C97.9809 108.471 98.977 108.206 99.5655 107.827C99.9628 107.572 100.332 107.277 100.624 106.904C100.936 106.505 101.146 106.114 101.615 105.945C102.15 105.751 104.316 105.827 105.013 105.827C105.367 105.827 105.692 105.855 105.905 106.004C106.462 106.394 106.262 107.16 106.087 107.685C105.773 108.628 105.088 109.558 104.394 110.256C103.828 110.825 102.61 111.646 101.829 111.961C101.217 112.207 101.174 112.251 100.454 112.478C99.1341 112.895 98.0791 112.995 96.6147 112.998H96.5445C95.0192 112.998 93.4022 112.546 92.3765 112.036L91.5403 111.591C91.2643 111.428 91.018 111.265 90.7708 111.08L89.2608 109.694L88.0701 108.021C88.023 107.944 87.9955 107.878 87.9523 107.804C87.9128 107.735 87.8847 107.697 87.8416 107.61C86.9349 105.807 86.5781 104.226 86.5781 101.968C86.5781 100.481 87.0078 98.8259 87.4754 97.7858C87.6996 97.287 87.8399 96.9863 88.1242 96.5166C88.5226 95.8581 88.9455 95.286 89.4902 94.7446C90.113 94.126 90.1907 94.0645 90.8496 93.574C90.9799 93.4771 91.095 93.4018 91.2308 93.3151L92.0503 92.8534C92.5059 92.6275 92.9077 92.4736 93.3993 92.3103C96.386 91.3193 100.197 91.7413 102.767 93.444C102.902 93.5329 103.012 93.6175 103.139 93.7128C103.206 93.7623 103.246 93.7914 103.314 93.8427L104.134 94.5776C104.617 95.058 105.156 95.7562 105.492 96.3571C106.058 97.3663 106.474 98.2795 106.722 99.4794C106.808 99.8916 106.955 100.754 107 101.573H107Z" fill="white"/>
<path fill-rule="evenodd" clip-rule="evenodd" d="M35.6159 95.9823C36.6786 95.9823 38.1183 96.3852 38.8493 97.1134C38.8979 97.1622 38.9215 97.1911 38.9743 97.2325C39.0469 97.2897 39.0554 97.2804 39.1192 97.3619C39.3704 97.6816 39.5581 97.8084 39.8147 98.3114C39.937 98.5509 40.0618 98.8095 40.1445 99.0776C40.2114 99.2931 40.3238 99.7194 40.3238 99.9933H30.9384C30.9384 99.4428 31.2337 98.6914 31.4271 98.3216C31.7316 97.7398 32.1542 97.2706 32.6718 96.885C33.4735 96.2881 34.6183 95.9827 35.6159 95.9827V95.9823ZM25.3745 102.09C25.3745 104.302 25.7421 105.61 26.5055 107.316C26.6591 107.66 26.8665 108.047 27.0742 108.361C27.4994 109.004 27.9502 109.621 28.5003 110.164C30.2568 111.9 32.7627 112.998 35.3407 112.998H35.4174C37.0284 112.993 38.4572 112.829 39.9571 112.238C40.9964 111.829 41.8007 111.417 42.6708 110.712C42.7752 110.627 42.834 110.566 42.9316 110.485C43.0367 110.397 43.0766 110.369 43.1746 110.27C43.749 109.696 44.2226 109.107 44.5941 108.369C44.8649 107.832 45.4385 106.521 44.723 106.012C44.6188 105.938 44.4905 105.885 44.3515 105.865C43.8341 105.79 41.9094 105.827 41.2714 105.827C40.0044 105.827 39.9641 106.28 39.1925 107.164C39.1308 107.234 39.0223 107.32 38.9409 107.4C38.295 108.039 36.9914 108.471 36.0746 108.471C35.4008 108.471 35.0773 108.502 34.4066 108.336C34.0739 108.253 33.8557 108.155 33.5716 108.041C33.1582 107.874 32.5901 107.453 32.2604 107.126C31.5345 106.404 30.9882 105.359 30.8773 104.034C35.0454 104.034 39.2132 104.034 43.381 104.034C44.6655 104.034 45.7656 103.966 45.7656 102.242C45.7656 100.903 45.6342 99.7604 45.2348 98.546L44.8995 97.6335C44.6765 97.1387 44.5637 96.8573 44.2812 96.3946C44.0434 96.0052 43.7996 95.6252 43.5134 95.2741C43.2252 94.9212 42.821 94.453 42.4595 94.1639C41.5945 93.4717 41.1515 93.0697 39.9661 92.6013C37.2197 91.5152 33.9024 91.4827 31.245 92.6712C31.1126 92.7302 30.9599 92.791 30.8266 92.8627C30.7434 92.9073 30.712 92.9343 30.6338 92.9746C29.933 93.3349 29.1369 93.8993 28.5773 94.4557C28.1918 94.8388 28.0306 94.9925 27.6719 95.4395C27.4701 95.6909 27.3217 95.907 27.1361 96.1828C26.077 97.754 25.3751 99.9906 25.3751 102.09H25.3745Z" fill="white"/>
<path fill-rule="evenodd" clip-rule="evenodd" d="M47.2936 97.8682C47.2936 98.9605 47.3374 99.4422 47.8238 100.41C48.5203 101.798 49.8702 102.703 51.2806 103.264C53.0807 103.98 56.278 104.508 58.258 105.172C58.7996 105.353 59.5224 105.784 59.5224 106.467C59.5224 107.313 59.2141 107.821 58.4729 108.22C57.6855 108.643 56.7284 108.685 55.7622 108.685C54.5909 108.685 53.0667 108.218 52.342 107.253C51.5098 106.145 51.8455 105.829 49.9229 105.829H48.2722C47.241 105.829 46.8354 106.088 46.8354 107.105C46.8354 107.638 47.0068 108.221 47.1724 108.593C47.7207 109.826 48.6861 110.724 49.856 111.425C50.6399 111.895 51.4399 112.243 52.4193 112.524C53.4251 112.813 54.5595 112.973 55.7073 113H56.3885C57.5043 112.974 58.6114 112.82 59.6034 112.533C60.39 112.306 60.9348 112.115 61.6324 111.754C62.4512 111.331 63.4137 110.605 63.931 109.846C64.0067 109.735 64.0559 109.68 64.129 109.557C64.8171 108.394 64.9947 107.647 64.9947 106.194C64.9947 105.453 64.7683 104.623 64.5263 104.107C63.8145 102.589 62.5923 101.685 61.0821 101.089C60.1369 100.716 56.9871 99.9476 55.9703 99.6972C55.6172 99.6105 55.2988 99.5229 54.9494 99.4359C54.6016 99.3492 54.2523 99.2569 53.9407 99.1319C53.2714 98.8638 52.7359 98.5437 52.7359 97.6859C52.7359 96.1462 54.6188 95.8024 55.854 95.8024C57.421 95.8024 58.5578 96.1768 59.3352 97.204C59.4099 97.3026 59.46 97.3962 59.5242 97.5019C59.7081 97.8051 59.8145 98.0813 60.2753 98.214C60.7102 98.339 62.7452 98.2935 63.2829 98.2935C63.6095 98.2935 63.9013 98.2377 64.0835 98.0869C64.3974 97.8276 64.3833 97.3754 64.3833 96.9869C64.3833 96.1144 63.7282 95.0895 63.1372 94.458C63.0535 94.3686 63.0387 94.3139 62.9378 94.2309L62.48 93.8349C62.2031 93.5886 61.7876 93.3376 61.4615 93.146C58.0725 91.1492 51.767 91.2758 48.9675 94.0628C48.0203 95.006 47.2936 96.3484 47.2936 97.8682V97.8682Z" fill="white"/>
<path fill-rule="evenodd" clip-rule="evenodd" d="M6.17632 32.6605C6.17632 33.1367 6.27438 33.4319 6.44259 33.8545C6.71622 34.5402 6.52398 35.226 6.34763 35.93C6.07536 37.0153 6.1178 37.836 6.69761 38.8275C6.82706 39.0488 6.95225 39.2854 7.09314 39.4976C7.49506 40.103 8.2861 40.7653 8.16576 41.5957C8.12061 41.9069 8.04309 42.1675 7.97372 42.4687C7.64641 43.8888 7.97158 45.4982 8.75023 46.6925C8.80333 46.7742 8.8384 46.8339 8.89092 46.9175C9.22269 47.4424 9.62751 47.9543 10.0511 48.4077L11.8706 50.3973C11.9528 50.4782 11.9679 50.5152 12.0386 50.5949C12.1026 50.6671 12.1671 50.723 12.2373 50.7927C12.3053 50.8601 12.359 50.9052 12.4177 50.978C12.4783 51.0537 12.5504 51.1273 12.5962 51.1954C12.2617 51.2232 5.92284 53.9323 5.12637 54.284C4.80739 54.4252 4.51729 54.5416 4.21963 54.6895C3.7962 54.9004 3.36773 55.1278 2.9881 55.4102C2.84257 55.5186 2.74335 55.5801 2.60634 55.6991L2.25015 56.0132C2.11605 56.1149 2.03795 56.2299 1.91877 56.3524C1.71006 56.5662 1.52538 56.8674 1.3781 57.1215C0.674839 58.3333 0.705071 59.9087 0.704102 61.3438L0.795764 63.6527C1.14613 63.6527 1.54553 63.6594 1.88001 63.6063C2.66409 63.4824 3.02783 62.9726 3.02783 62.1032C3.02783 59.5637 2.73114 58.1739 4.29346 56.9503C4.7605 56.5847 5.30272 56.3282 5.85308 56.0999L6.99295 55.6226C7.19662 55.5429 7.37394 55.4655 7.57393 55.3796L11.0284 53.9516C11.223 53.868 11.4092 53.795 11.592 53.7216C11.7885 53.6432 11.9863 53.5539 12.1724 53.478L15.6356 52.0284C15.8367 51.9439 16.0092 51.8911 16.2125 51.8118C17.3512 51.3665 18.561 51.2952 19.7606 51.6404C21.3411 52.0949 22.941 53.0597 24.2617 54.0034L24.987 54.5585C25.0787 54.6321 25.1539 54.6847 25.2432 54.7598C25.3837 54.8775 26.9346 56.2261 26.9953 56.452C27.2811 56.3014 27.5424 56.0516 27.8034 55.8572C27.9778 55.7274 28.4846 55.3854 28.5849 55.2365C28.3964 54.956 27.6067 54.1527 27.3927 53.9905C27.2889 53.9117 27.2383 53.8441 27.141 53.755L26.074 52.8709C24.8 51.9233 23.9224 51.363 22.511 50.5779C22.2872 50.4531 22.0924 50.3649 21.8506 50.2621C21.7258 50.2093 21.6473 50.1662 21.5145 50.1101L20.4491 49.7103C19.7288 49.4695 19.1065 49.4027 18.3128 49.4027C16.8917 49.4027 15.7049 50.3534 14.3286 49.5953C13.8048 49.3066 13.1275 48.5003 12.7225 48.0005L11.566 46.659C11.5117 46.5949 11.4703 46.5408 11.4166 46.473C11.3495 46.3873 11.31 46.3495 11.2503 46.2734C10.605 45.4502 9.85793 44.4766 10.1554 43.2705L10.3031 42.8401C10.4707 42.8844 10.8042 43.1831 10.9565 43.284C11.2972 43.5096 11.647 43.681 11.9972 43.8907C12.2739 44.0566 12.8512 44.2908 13.1589 44.4071C14.1409 44.7782 15.1871 45.0473 16.2427 45.201C16.4024 45.2245 16.6123 45.2677 16.7535 45.2707C16.7535 45.0629 16.6442 44.6525 16.6031 44.4477C16.5749 44.3062 16.5516 44.1923 16.5218 44.0425C16.3566 43.2228 16.6526 43.6931 14.9978 43.0356C13.5405 42.4562 12.0053 41.556 10.8457 40.4774L10.1881 39.8547C9.57364 39.2443 8.74345 38.1536 8.74345 37.2796C8.74345 37.0417 8.75972 36.7815 8.82367 36.5693C8.87735 36.3932 8.95003 36.257 8.98801 36.0945C9.12812 36.1317 9.21707 36.2509 9.3285 36.3337C9.89397 36.7515 10.4938 37.1163 11.1282 37.4314C12.3115 38.0198 14.1909 38.7684 15.6528 38.7684C16.6233 38.7684 17.4725 38.4341 18.1814 38.1519C18.5726 37.9961 18.9108 37.8597 19.3249 37.7389C20.8913 37.2817 22.6052 37.6654 24.0778 38.082C25.5653 38.5028 27.0003 39.1018 28.4274 39.6839C28.7448 39.8135 28.8652 39.8318 29.2266 39.8318C29.7424 39.8318 29.937 39.3819 30.1337 39.0321C30.2075 38.9009 30.2907 38.8014 30.3269 38.6467C29.9738 38.4612 29.6459 38.2624 29.2773 38.0797L27.6468 37.2996C26.4478 36.7443 24.7776 36.0881 23.5034 35.7665C23.2926 35.7135 23.0902 35.6596 22.8786 35.5974C22.111 35.3722 21.2977 35.274 20.4526 35.274C19.118 35.274 18.1217 35.8179 17.007 36.2551C15.7445 36.7503 14.7317 36.4302 13.4952 36.0816C12.8305 35.8938 12.171 35.6095 11.5563 35.304L9.91277 34.2636C9.52713 33.909 8.82309 33.2378 9.19091 32.4974C9.68584 31.5016 11.9582 30.9362 12.8159 30.7222C13.9089 30.4493 16.3384 30.0171 17.5485 30.0171C17.639 29.6303 18.2587 28.565 18.2821 28.2852C15.197 28.2852 12.0427 28.8038 9.5126 29.809C8.5357 30.1971 7.85919 30.5602 7.04934 31.1894C6.97512 31.2472 6.96717 31.2505 6.90148 31.3158C6.62514 31.5902 6.17593 32.1396 6.17593 32.6607L6.17632 32.6605Z" fill="white"/>
<path fill-rule="evenodd" clip-rule="evenodd" d="M0.702831 4.5262C0.702831 5.63021 1.03305 6.46669 1.6431 7.14658C1.70995 7.22112 1.75588 7.24963 1.82099 7.33437C1.92642 7.47131 2.06614 7.57301 2.19268 7.69435C2.37523 7.87 2.60448 8.03391 2.81203 8.1722C2.69053 8.42451 2.86009 9.15159 2.9159 9.37559C3.12888 10.2296 3.58215 10.9236 4.10887 11.593C4.59044 12.2057 5.34311 12.7704 6.03242 13.115C6.63646 13.4172 7.38778 13.6416 8.28445 13.6416C8.31216 13.9707 8.55653 14.3355 8.76059 14.5058C8.90554 14.6268 8.97744 14.7005 9.14138 14.7957C9.26017 14.8637 9.48419 14.9748 9.66016 14.9786V15.2219C7.93252 15.2219 6.45411 15.4706 5.278 16.032C4.99235 16.1684 4.70361 16.3294 4.4635 16.4985C3.68815 17.0437 2.9347 17.8536 2.9347 18.8685C2.37097 18.9987 1.69484 19.6988 1.38768 20.1566C0.549737 21.4064 0.534815 22.8363 1.09138 24.2246C2.01943 26.5389 4.95747 27.7348 7.35716 26.4544C7.88621 26.1718 7.61897 26.1166 8.18639 26.2577C9.50803 26.5871 11.1952 26.3691 12.2193 25.5438C12.4036 25.3947 12.6011 25.2398 12.7433 25.0619C12.7988 24.9931 12.8493 24.9579 12.9055 24.8889C12.9581 24.8238 13.0071 24.7641 13.0536 24.7025C13.2883 24.3916 13.1949 24.5493 13.5999 24.5376C13.6417 24.5362 13.7319 24.5199 13.8169 24.5191C14.6698 24.5093 15.5467 24.1077 16.1653 23.5711L16.6385 23.13C17.021 22.752 17.6392 21.8604 17.6392 21.299V21.147C17.6392 20.8725 17.3158 20.7753 17.1106 20.9559L16.6536 21.4434C15.9523 22.141 15.0597 22.4557 14.0805 22.6537C13.7346 22.7238 12.7265 22.8186 12.3199 22.8186C12.011 23.2772 11.6399 23.6859 11.1888 24.0033C10.1601 24.7271 8.85341 24.7231 7.74455 24.1757C7.56277 24.0859 7.43972 23.9987 7.27558 23.9122C6.96532 24.3725 6.08397 24.7325 5.53303 24.7325C4.31739 24.7325 3.33119 24.1391 3.03935 22.9877C2.81513 22.1052 3.01551 21.1362 3.67304 20.5443C3.72885 20.4941 3.7585 20.4652 3.81315 20.4101C3.98388 20.2379 4.20421 20.1108 4.43075 20.0212C4.6509 19.9345 4.48928 19.674 4.86038 18.9292C5.55473 17.5357 7.562 16.9239 8.98771 16.9239L10.0574 16.9846C10.1373 16.8666 10.2373 16.731 10.3398 16.627C10.4072 16.559 10.4446 16.5229 10.5165 16.4681C10.8196 16.2358 11.1669 15.9933 11.5512 15.8563C11.8895 15.7358 12.2069 15.6524 12.6042 15.5959C12.984 15.542 13.4204 15.5168 13.4204 15.1009C13.4204 14.2198 11.6041 14.9567 10.0173 13.0141C9.81519 12.766 9.43342 12.1859 9.35455 11.8498C8.6071 11.8498 7.97516 11.6903 7.33255 11.4286C6.90699 11.2552 6.54868 11.0083 6.20102 10.73C5.97739 10.5511 5.76926 10.3434 5.59388 10.1179C5.32509 9.77178 5.0751 9.40044 4.89139 8.99308C4.64257 8.44223 4.49374 7.75656 4.49374 6.95764C4.34103 6.88503 4.26797 6.86981 4.12631 6.77582C3.25794 6.19801 2.79982 5.32378 2.99497 4.19203C3.2781 2.54912 5.21676 1.67392 6.62115 2.50405C6.94924 2.698 7.22422 2.91718 7.42867 3.22054C7.77652 3.0547 8.4606 3.06857 8.89585 3.06857C9.94483 3.06857 11.13 3.53833 11.8994 4.21592C12.2879 4.55837 12.5699 4.88733 12.8457 5.3413C13.0767 5.72189 13.3794 6.43452 13.39 6.89697C14.0006 6.94762 14.5293 7.1279 14.9698 7.36268C15.3824 7.58302 15.8021 7.96843 16.0622 8.34304C17.0358 9.74404 16.774 11.2115 17.3336 11.2115C17.6028 11.2115 17.6945 10.9838 17.7588 10.783C17.9793 10.0902 17.9972 9.54817 18.428 8.86558L18.7929 8.37771C18.9593 8.20571 19.1399 8.14138 19.139 7.87077C19.1368 7.32994 19.2822 6.83899 19.4238 6.42201C19.9984 4.72786 21.6144 3.58494 23.5093 3.58494C23.5591 3.49134 23.5967 3.39889 23.6556 3.30548C23.7155 3.21052 23.7634 3.146 23.8318 3.0549C24.192 2.57762 24.8848 2.15698 25.5575 2.15698C26.241 2.15698 26.7173 2.21784 27.2614 2.62115C27.3973 2.72169 27.451 2.7787 27.5678 2.89369C28.3783 3.69011 28.5224 5.36037 27.6597 6.2217C27.5589 6.32301 27.4068 6.5264 27.2696 6.56299C27.2696 6.74038 27.358 7.01369 27.3946 7.1982C27.5796 8.1279 27.4248 9.03661 26.8808 9.76196C26.4669 10.3145 25.8433 10.7402 25.1945 10.9725C24.7009 11.1491 24.8666 11.1321 24.6674 11.7246C24.3315 12.7215 23.7167 13.481 22.8553 14.0561C22.3857 14.3691 21.3079 14.72 21.3079 15.0098C21.3079 15.4721 21.8881 15.4049 22.2249 15.4049C23.5213 15.4049 25.0435 14.7398 25.784 13.6553C25.9685 13.3852 26.2605 12.7932 26.2605 12.3662C26.5968 12.3384 27.1913 11.9576 27.4574 11.7633C27.8143 11.5027 28.1106 11.21 28.391 10.8679C28.8509 10.3068 29.4096 9.26465 29.4096 8.26427C29.4096 8.01754 29.4104 7.75733 29.3613 7.52235C29.3257 7.35113 29.2581 7.24712 29.2261 7.10999C29.3414 6.93838 29.5251 6.76388 29.654 6.59342C30.5136 5.45706 30.5721 3.93452 29.9898 2.64388C29.7813 2.18163 29.3604 1.56009 28.9581 1.20821C28.1616 0.510787 27.194 0 26.0468 0H26.0103C25.2555 0.00231125 24.6978 0.0745379 24.0414 0.346688C23.7141 0.482859 23.3942 0.669493 23.1211 0.890602C23.0198 0.972266 22.9541 1.03429 22.8578 1.11518C22.7547 1.20185 22.7115 1.23209 22.6144 1.32897C22.5221 1.42065 22.4762 1.49095 22.3855 1.58764C22.2751 1.7057 22.1985 1.92431 22.0315 1.96495C21.9549 1.98363 21.8778 1.97227 21.7976 1.97554C21.047 2.00597 20.0164 2.53833 19.481 3.04604C19.2316 3.28256 18.9663 3.5079 18.7524 3.78005C18.1284 4.5732 17.7359 5.44473 17.5389 6.46361C17.4999 6.6643 17.5014 6.92701 17.4846 7.13907C17.477 7.2346 17.458 7.24847 17.4559 7.35325C17.0073 7.35325 17.3133 7.31338 16.9656 6.71611C16.6226 6.12751 15.9872 5.6772 15.3141 5.53217C14.7392 5.40814 15.0021 5.60941 14.4997 4.45783C14.3183 4.04219 14.0303 3.63637 13.7609 3.27735C12.8986 2.12982 11.6329 1.39523 10.1549 1.21013C9.84367 1.17103 9.12084 1.15601 8.80845 1.18991C8.69528 1.20224 8.49316 1.23671 8.37611 1.24615C8.17205 0.943569 7.51084 0.559901 7.1783 0.40081C6.62561 0.137327 5.97797 0.00481511 5.32683 0.000385209H5.26308C4.56931 0.0046225 3.87477 0.154083 3.29108 0.445879C1.72604 1.22824 0.702637 2.74346 0.702637 4.52774L0.702831 4.5262Z" fill="white"/>
<path fill-rule="evenodd" clip-rule="evenodd" d="M67.5934 86.6572V92.491C67.0109 92.491 66.1755 92.4398 65.7641 92.7087C65.4868 92.8895 65.2701 93.2268 65.2701 93.6761C65.2701 94.262 65.1968 95.2807 65.3827 95.7214C65.4565 95.8959 65.5292 95.9677 65.66 96.0841C66.0921 96.4689 66.944 96.3801 67.5936 96.3801V105.07C67.5936 105.673 67.618 106.238 67.656 106.801C67.7208 107.771 68.0504 108.8 68.5118 109.596C68.6701 109.87 68.8881 110.149 69.0872 110.392C69.1269 110.44 69.149 110.455 69.1906 110.502C69.5112 110.86 69.86 111.204 70.2656 111.469C72.2391 112.764 73.8813 112.636 76.276 112.636C77.8712 112.636 77.6211 111.128 77.6211 109.962C77.6211 108.141 76.3979 108.527 75.3297 108.381C74.8144 108.31 74.3398 108.129 73.9592 107.798C73.7877 107.649 73.6972 107.577 73.5482 107.356C73.2682 106.939 73.0354 106.303 73.0354 105.617V96.3803H76.3982C77.2354 96.3803 77.7433 95.941 77.7433 95.1043V93.7674C77.7433 92.6713 76.9777 92.4912 76.062 92.4912H73.0354V86.3231C73.0354 85.8094 72.819 85.424 72.554 85.1607C72.2692 84.8776 71.8804 84.7129 71.3233 84.7129H69.3666C68.1033 84.7129 67.5936 85.461 67.5936 86.6574L67.5934 86.6572Z" fill="white"/>
<path fill-rule="evenodd" clip-rule="evenodd" d="M37.9096 61.6793C36.6955 61.6793 35.6479 61.3919 34.5726 60.9545C34.2168 60.8099 33.9098 60.6317 33.5786 60.4536C33.4559 60.3877 33.3699 60.3178 33.2608 60.2529C32.874 60.0225 32.606 59.7348 32.2649 59.4805C32.1787 59.4158 32.1717 59.4253 32.1618 59.3095C32.2661 59.2816 32.33 59.2018 32.4136 59.1338C32.5054 59.0591 32.5725 59.0067 32.6686 58.9314C32.8442 58.7941 32.9936 58.681 33.1639 58.5427C33.3127 58.4216 34.0528 57.8904 34.1491 57.7596C34.1197 57.6504 33.9908 57.5092 33.9177 57.4125C33.7796 57.2298 33.2131 56.5493 33.1709 56.3925C32.7949 56.5903 31.7733 57.4239 31.3305 57.7234C31.1152 57.869 30.9264 58.0196 30.7163 58.1764L28.8907 59.5221C28.6862 59.6747 28.4833 59.8182 28.2752 59.9734L24.349 62.9081C23.5859 63.4802 23.7549 63.4836 23.7549 62.7733C23.7549 62.041 23.7388 61.1797 23.6099 60.5167C23.563 60.275 23.5149 60.0453 23.4456 59.8295C23.3427 59.5102 23.2188 59.198 23.0531 58.9129C22.8902 58.6321 22.5528 58.1208 22.3094 57.9203L21.8464 57.5296C21.7495 57.454 21.6794 57.407 21.5782 57.3405C20.8542 56.8632 20.0872 56.5221 19.2739 56.1974C19.1874 56.1629 19.0433 56.0859 18.9706 56.1042C18.8772 56.1283 17.1319 57.1454 17.0598 57.2432C17.1749 57.2702 17.3712 57.3519 17.4916 57.3916C18.7718 57.8139 20.105 58.3673 21.0424 59.3318C21.6991 60.0081 21.9513 61.1161 21.9513 62.0747C21.9513 63.5364 21.9055 64.802 20.7821 65.8351L20.3006 66.207C19.2783 66.8815 17.7455 67.421 16.4788 67.4528C16.3083 67.4569 16.2802 67.4821 16.1132 67.4844C15.7438 67.4888 15.2892 67.4782 14.982 67.636C14.3726 67.9499 14.4307 68.8124 14.4307 69.4582C16.6306 69.4582 18.2518 69.3519 20.2393 68.3642C21.6852 67.6456 22.8578 66.5674 24.1351 65.6125L26.8297 63.5204C26.9142 63.4547 26.9687 63.4083 27.0522 63.3465C27.1935 63.2421 27.3233 63.1392 27.4636 63.0258C27.608 62.9097 27.7339 62.8215 27.8748 62.7055L29.9695 61.0807C30.0881 60.9933 30.289 60.8026 30.4193 60.7679C30.8235 61.3677 32.2484 62.3022 32.8343 62.5915C33.8311 63.0826 34.8472 63.4954 35.9808 63.7182C39.6157 64.4322 41.7495 63.0341 45.0806 62.5476C45.7106 62.4553 46.3635 62.4037 47.0214 62.3498L57.6893 62.3174C59.5962 62.3174 61.5106 62.0982 63.2952 61.5089C64.3138 61.1724 65.298 60.6834 66.2282 60.1701C66.803 59.8525 67.3479 59.5339 67.8878 59.1758C68.0093 59.0949 68.0963 59.0372 68.2182 58.957C69.1184 58.3642 69.9397 57.6758 70.7782 57.0046C70.8369 56.9578 70.8633 56.9214 70.9222 56.8744L72.8453 55.0483C72.9481 54.947 72.9882 54.8736 73.0889 54.7742L74.097 53.6489C74.1881 53.5422 74.2488 53.4509 74.3428 53.3463C74.515 53.1541 74.6507 52.9526 74.8162 52.7534C75.2997 52.172 75.7353 51.521 76.1543 50.8935L76.764 49.9191C76.8341 49.8028 76.9004 49.7014 76.969 49.5761C77.0372 49.4518 77.0982 49.3607 77.1616 49.2511C77.5538 48.572 77.9096 47.847 78.2428 47.1352L78.4164 46.7608C78.0978 46.5932 77.823 46.3886 77.5089 46.2043C77.2064 46.0267 76.9221 45.7995 76.6126 45.6367C76.5601 45.8611 75.9363 47.0273 75.7506 47.3324L75.1243 48.4114C75.0637 48.5127 75.0181 48.5764 74.96 48.6733C74.9077 48.7613 74.8602 48.8424 74.7968 48.9368L74.112 49.9574C73.6633 50.6308 73.1537 51.2762 72.6426 51.9002L72.4471 52.1313C72.3657 52.218 72.3272 52.2771 72.2483 52.3592C72.164 52.4474 72.1347 52.5025 72.0498 52.5872C71.6925 52.9445 71.3851 53.3388 71.0255 53.6959C70.8753 53.8451 70.7476 53.9722 70.5976 54.1215L69.4849 55.1423C69.3959 55.2128 69.3593 55.2631 69.2579 55.3422C68.7641 55.7257 68.3677 56.0793 67.8343 56.4794C67.7462 56.5452 67.6754 56.5894 67.5849 56.6573L66.3156 57.5227C65.4182 58.0807 64.5132 58.5951 63.5365 59.0142C61.4597 59.905 59.5433 60.0389 56.8327 60.0389L47.4479 60.0697C46.2807 60.0645 44.7339 60.2889 43.6126 60.5117C42.6491 60.7032 41.7676 60.9368 40.8781 61.1968C39.9233 61.4759 38.9621 61.6795 37.9092 61.6795L37.9096 61.6793Z" fill="white"/>
<path fill-rule="evenodd" clip-rule="evenodd" d="M79.1499 86.442V110.901C79.1499 111.896 79.777 112.633 80.7704 112.633H83.0325C84.1293 112.633 84.7138 111.906 84.7138 110.81V86.5333C84.7138 85.8113 84.4371 85.1009 83.7319 84.8353C83.1916 84.6318 81.6118 84.7102 80.9229 84.7102C80.5481 84.7102 80.1756 84.7701 79.889 84.9584C79.8105 85.0097 79.6956 85.0919 79.6299 85.1568C79.3082 85.4765 79.1499 85.9613 79.1499 86.442V86.442Z" fill="white"/>
<path fill-rule="evenodd" clip-rule="evenodd" d="M53.806 54.9959C53.689 54.4955 53.2175 53.5053 52.9562 53.0756C52.7762 52.7798 52.6175 52.5186 52.4245 52.2367C52.2384 51.9641 52.0377 51.6883 51.8115 51.4485C51.5832 51.206 51.397 50.9668 51.1286 50.7598C50.8589 50.5516 50.6205 50.3439 50.3335 50.1529C48.5561 48.9689 46.6937 49.5319 44.8572 50.2648L42.3734 51.3204C42.2509 51.3734 42.1434 51.4208 42.0163 51.4818C41.7762 51.5972 41.5587 51.6766 41.3227 51.7956L39.9621 52.4487C39.7055 52.5679 39.5232 52.6744 39.2745 52.7981C39.1552 52.857 39.0592 52.9052 38.9486 52.9601L37.6395 53.6646C37.5264 53.7328 37.4281 53.7869 37.308 53.8518C37.0733 53.9791 36.8863 54.1149 36.6553 54.2367C36.682 54.3349 36.8233 54.4895 36.8913 54.5791C36.9859 54.7045 37.0589 54.8014 37.1535 54.9264C37.3229 55.1502 37.5333 55.388 37.6641 55.6338C38.7104 55.0837 39.7908 54.5926 40.8535 54.0637L41.3331 53.8414C41.4893 53.7723 41.6415 53.7162 41.8021 53.6388C42.591 53.2594 43.3815 52.9416 44.1975 52.6169C45.4213 52.1303 47.3022 51.3528 48.5444 51.7478C48.8762 51.8538 49.1638 52.024 49.4469 52.218C50.0492 52.6307 50.6622 53.4892 50.9736 54.1038C51.1282 54.4096 51.2953 54.7041 51.4259 55.0217C51.4863 55.1683 51.5643 55.3647 51.6356 55.5119C51.4449 55.5119 50.6517 55.69 50.3909 55.7334C49.7591 55.8382 49.0774 55.8917 48.4127 55.9851C47.9582 56.0493 47.5096 56.0666 47.0497 56.0893C46.8507 56.0989 46.5461 56.1396 46.3469 56.1502L45.6438 56.181C45.3624 56.1795 45.2051 56.2122 44.9403 56.211C44.7078 56.2097 44.4347 56.1985 44.2063 56.2107C44.0679 56.218 44.0392 56.2419 43.8712 56.2424C43.2931 56.243 42.835 56.2885 42.5647 56.8278C42.4337 57.0897 42.3808 57.3896 42.3114 57.6698C42.2829 57.7837 42.25 57.8597 42.25 58.0036C42.9755 58.0036 43.9237 58.0541 44.6082 57.9778C44.9254 57.9422 45.2905 57.9838 45.6138 57.9741C45.7643 57.9695 45.7663 57.9462 45.9176 57.9418L46.8978 57.9137C47.0559 57.9117 47.066 57.889 47.2023 57.8817C48.4691 57.8156 49.6392 57.7222 50.8998 57.5462C53.6605 57.16 56.371 56.5728 58.9461 55.5163C59.5734 55.2588 60.1584 54.9422 60.7557 54.6411C61.4651 54.2833 61.046 54.3605 61.8535 54.5325C62.3382 54.6355 63.1778 54.6883 63.6677 54.6182C65.5739 54.3449 67.0507 53.7665 68.6512 52.7045C68.8223 52.5909 68.9626 52.4934 69.1218 52.3823C69.1987 52.3285 69.2659 52.2761 69.3493 52.2133C70.4023 51.4241 70.1103 50.8318 70.0083 49.6172C69.6413 49.8615 68.8702 50.4926 68.3881 50.8326C68.3326 50.8719 68.2871 50.8977 68.223 50.9418C68.1451 50.9955 68.1222 51.0188 68.046 51.0702C67.8084 51.2305 67.5881 51.3674 67.3354 51.5182C66.3176 52.1269 65.1545 52.6556 63.8633 52.6556C63.4906 52.6556 63.0753 52.644 62.7321 52.5645C62.7833 52.3466 63.4435 51.4185 63.6059 51.154C64.135 50.2915 65.077 48.905 65.7669 48.1359C66.3364 47.5013 66.4767 47.3087 67.142 46.6469L67.7385 46.0853C68.2439 45.6178 68.7886 45.2074 69.3444 44.7946C69.4599 44.7087 69.5624 44.6348 69.6839 44.5548C70.2684 44.1692 70.8548 43.7692 71.4856 43.4591C71.5912 43.4071 71.7865 43.3123 71.8424 43.2363C71.6557 43.1868 71.2065 42.8639 71.0046 42.7324C70.725 42.5506 70.461 42.3824 70.1917 42.2031L69.5901 42.4864C68.7997 42.879 68.0846 43.4152 67.3964 43.9526C67.0042 44.2586 66.5126 44.6565 66.1639 45.0063L65.4762 45.6594C65.3157 45.8189 65.1781 45.956 65.0177 46.1153L64.1313 47.0573C64.0807 47.1141 64.0852 47.1215 64.0377 47.1773C63.9923 47.2307 63.9633 47.2499 63.9203 47.3033L62.7102 48.8353C61.5971 50.3141 60.7902 51.9996 59.1866 53.0508C57.9953 53.832 56.0119 54.457 54.5455 54.8191C54.3624 54.864 53.9915 54.9795 53.8056 54.9951L53.806 54.9959Z" fill="white"/>
<path fill-rule="evenodd" clip-rule="evenodd" d="M19.1682 33.2089L19.7445 33.1738C20.3307 33.1103 21.0142 33.148 21.6138 33.148C21.626 33.0011 22.6023 31.0005 22.7449 30.7172L24.4675 27.4159L26.1508 24.774C26.6839 24.0066 27.2999 23.3075 27.9022 22.5954L29.3871 20.8502C29.8093 20.3793 30.3015 19.7489 30.6573 19.2262C30.8581 18.9311 31.0403 18.6825 31.2308 18.3679C32.3247 16.5584 32.6838 15.3398 33.2249 13.2096C33.6134 11.6803 34.02 10.5211 35.4498 9.67841C36.8631 8.84539 38.5965 9.05186 40.0493 9.69054C40.2111 9.76161 40.3753 9.82787 40.546 9.89566C40.7216 9.965 40.9101 10.0353 41.0877 10.0865C41.465 10.1952 41.7051 10.174 42.0487 10.2254C42.419 10.2809 42.8246 10.2185 43.1969 10.2011C43.0033 10.5829 42.0103 11.6932 41.9438 11.94C42.0283 11.9619 42.0892 12.0264 42.17 12.0798L43.2465 12.8329C43.3364 12.892 43.3734 12.9259 43.46 12.9854C43.5463 13.0446 43.6323 13.0817 43.6864 13.1551C43.5248 13.1688 43.1143 13.3477 42.9726 13.4182C42.7335 13.5376 42.5477 13.6455 42.3349 13.787C42.2275 13.8585 42.1566 13.9157 42.0564 13.9966C41.7857 14.215 41.4836 14.4617 41.2665 14.7308C40.9631 15.1079 40.678 15.4798 40.4247 15.8995C40.2418 16.2027 39.834 16.98 39.834 17.3787C39.834 17.7759 40.3662 17.7275 40.7948 17.179C40.8596 17.0958 40.9043 17.0625 40.9656 16.9837C42.1508 15.4592 43.8561 14.6399 45.6774 14.0399C45.944 13.9523 46.4872 13.7233 46.7434 13.7021C46.7097 13.5758 46.1709 13.2298 46.0708 13.1551C45.769 12.9307 44.1015 11.7235 43.992 11.5752C44.2164 11.1541 44.7357 10.4818 45.0253 10.0501C45.3216 9.6083 45.8405 8.939 46.0708 8.5066C45.2351 8.5066 44.3995 8.50468 43.5639 8.5066C42.7608 8.50853 41.9677 8.39104 41.3884 8.17706C39.8596 7.61253 39.2443 7.01758 37.2053 7.01758C35.7104 7.01758 34.2944 7.6212 33.2235 8.55995C32.2049 9.45248 31.6079 10.5815 31.1713 12.0505C30.9612 12.7578 30.8013 13.4902 30.5748 14.1925L30.2461 15.2331C30.181 15.4271 30.1331 15.5655 30.0597 15.747C29.7392 16.5419 29.3671 17.3227 28.8545 18.0126C28.6541 18.2817 28.4826 18.5363 28.2689 18.7976C27.9577 19.1771 27.6586 19.5673 27.3232 19.924L25.3967 22.1414C24.7977 22.8102 24.0712 23.7387 23.5821 24.4706L22.238 26.5981C22.1882 26.6817 22.1703 26.7324 22.1205 26.8156L20.7266 29.5629C20.6873 29.642 20.6667 29.7073 20.6255 29.7963C20.5479 29.9616 20.4786 30.1064 20.4009 30.2722L19.5654 32.2066C19.4769 32.43 19.1852 33.0011 19.168 33.2093L19.1682 33.2089Z" fill="white"/>
<path fill-rule="evenodd" clip-rule="evenodd" d="M46.4993 20.5396C46.4648 20.6862 46.361 20.8905 46.2984 21.0388L45.8831 22.024C45.8263 22.1644 45.7075 22.4008 45.6736 22.5452C45.775 22.5535 46.0577 22.6856 46.1627 22.7274L47.1193 23.1136C47.2832 23.1789 47.4636 23.2661 47.6305 23.3044C47.6041 23.4027 47.5764 23.3921 47.4966 23.4449C47.2189 23.6288 46.9867 23.8701 46.7513 24.102C46.4621 24.3871 46.2108 24.7008 45.9658 25.0231C45.7961 25.2471 45.6329 25.4626 45.4843 25.6989C44.0586 27.9647 43.4359 29.983 43.6582 32.843C43.7088 33.4917 43.8293 34.228 43.9677 34.8145C44.0095 34.9917 44.1219 35.5889 44.2122 35.6956C44.2992 35.7985 44.5113 35.8405 44.655 35.7523C44.7746 35.6793 44.8147 35.5183 44.8188 35.3382C44.8789 32.6922 45.176 30.0487 46.4174 27.8416C46.7497 27.25 47.0854 26.6627 47.5123 26.1344C47.77 25.8154 48.0088 25.4751 48.2946 25.18C48.5235 24.9437 48.7454 24.6895 48.9971 24.4805L50.779 23.0916C50.4767 23.0215 48.5434 22.1232 48.0014 21.9023L47.5995 21.7243C47.6601 21.5987 47.7132 21.458 47.77 21.3162L48.7812 18.8576C48.8277 18.7551 48.9358 18.5173 48.9446 18.4121C48.6556 18.4121 48.2646 18.5448 47.9743 18.6024C46.9057 18.8135 45.9899 19.0442 44.8781 19.0508C43.0768 19.0608 41.7972 17.9188 38.8294 19.1149C38.5881 19.2124 38.2697 19.3865 38.0552 19.5304C37.6984 19.7688 37.3773 20.0213 37.0752 20.3189C36.9628 20.4294 36.9112 20.5138 36.7998 20.6224C36.2246 21.185 35.7495 22.1359 35.497 22.8825C35.2859 23.5067 35.2051 24.1777 35.1173 24.8447C35.0288 25.5163 35.0233 26.295 34.9082 26.9763C34.7648 27.8253 34.5371 28.4582 34.1234 29.1132C33.5957 29.9497 32.9444 30.7026 32.375 31.508C31.8909 32.1933 31.3615 32.8621 30.895 33.5618C30.7299 33.8095 30.5778 34.0333 30.4179 34.2723C30.2505 34.5229 29.5852 35.5342 29.5317 35.7617C29.6408 35.7869 29.9209 35.9339 30.0306 35.9948C30.4699 36.2394 31.0485 36.4921 31.4578 36.7644C31.5875 36.5716 31.7239 36.3827 31.8549 36.187C31.9217 36.0876 31.9785 36.0034 32.0506 35.895L33.2874 34.1465C34.2817 32.8101 35.5159 31.0314 36.3246 29.6908C36.5649 29.2929 36.7992 28.8258 36.9438 28.3312C37.1475 27.6332 37.2339 26.8688 37.2347 26.1288L37.3356 24.7405C37.4011 24.2263 37.5705 23.6065 37.7757 23.2026C37.8339 23.0878 37.8804 22.9811 37.9397 22.8796C37.9881 22.7967 38.0689 22.6677 38.1306 22.5833C38.2071 22.4774 38.2617 22.4031 38.3402 22.3052C38.4249 22.1991 38.4906 22.1301 38.5765 22.0232C39.1586 21.2985 40.343 20.7931 41.243 20.6933C41.8705 20.624 42.5586 20.6756 43.1026 20.7848C44.3227 21.0286 44.9608 21.0412 46.1056 20.6644C46.2364 20.6217 46.3617 20.5504 46.4988 20.5388L46.4993 20.5396Z" fill="white"/>
<path fill-rule="evenodd" clip-rule="evenodd" d="M82.2373 14.6128L83.6436 16.132C83.8894 15.9683 84.6099 14.9579 84.8405 14.6478C85.3947 13.9019 85.936 12.9939 86.4561 12.2121C86.5059 12.1374 87.9864 9.84292 88.0151 9.72081H88.3209C88.3209 10.5459 88.2936 11.0163 88.6085 11.805C88.7387 12.1305 89.0362 12.5869 89.2912 12.8285L89.7784 13.1942C91.4068 14.1524 93.5561 13.6374 95.2543 13.1782C97.6862 12.5207 99.7097 11.6975 102.013 10.9323L103.362 10.4801V8.26202C103.15 8.31133 102.906 8.4084 102.693 8.4787L100.06 9.41688C99.8413 9.50355 99.6045 9.57693 99.384 9.65609L96.0363 10.7952C95.7994 10.872 95.5807 10.946 95.3398 11.0143C94.5218 11.2466 93.1531 11.6349 92.3564 11.6349C91.8628 11.6349 91.4655 11.6474 91.0194 11.3832C90.3127 10.9641 90.3387 10.1178 90.3387 9.44711C90.3387 7.86699 91.3342 5.27723 91.9504 3.84791C92.0144 3.69942 92.6843 2.28589 92.6924 2.18555H90.4608L89.5344 3.81671C89.2197 4.37873 88.8835 4.87835 88.5562 5.42688C87.5245 7.15686 86.1065 9.19846 84.9889 10.8753C84.3161 11.8849 83.2863 13.278 82.5297 14.2351C82.4204 14.3732 82.3323 14.4722 82.2373 14.613V14.6128Z" fill="white"/>
<path fill-rule="evenodd" clip-rule="evenodd" d="M87.9238 86.8701V88.1157C87.9238 88.6005 88.2986 88.9362 88.7796 88.9362H105.227C105.89 88.9362 106.419 88.4905 106.419 87.7815V85.7459C106.419 84.9291 106.008 84.2871 105.166 84.2871C104.754 84.2871 104.42 84.3537 104.036 84.3796C103.012 84.4479 101.728 84.6407 100.642 84.7137L98.3877 84.9341C97.2885 85.0731 96.1196 85.1515 95.021 85.2644C94.6663 85.301 94.252 85.3588 93.885 85.3811C93.5385 85.4023 93.1034 85.4527 92.7759 85.4942C92.3812 85.5437 92.0242 85.5575 91.6279 85.5991C90.9037 85.6752 90.097 85.7384 89.3823 85.8283C88.8883 85.8907 87.9238 85.8466 87.9238 86.8701V86.8701Z" fill="white"/>
<path fill-rule="evenodd" clip-rule="evenodd" d="M16.6308 41.1098C16.7172 41.4784 16.7833 41.9973 17.0805 42.2727C17.4468 42.6113 17.9718 42.3825 18.3297 42.2818C19.4415 41.9682 19.5112 41.8081 20.8495 41.8081C21.3747 41.8081 21.7644 42.0146 22.0727 42.2332C22.3563 42.4341 22.6514 42.8236 22.8551 43.1271C23.2948 43.7825 23.53 44.3709 23.8661 45.0391C23.9201 45.146 23.9475 45.2375 23.9986 45.333L23.3744 45.4724C23.1446 45.5179 22.956 45.5481 22.7198 45.5816C21.3885 45.7689 19.6275 45.8191 18.3121 45.8191C18.3121 46.0599 18.4404 46.8513 18.6124 47.1003C18.8477 47.4412 19.3678 47.5208 19.7794 47.5208C21.0788 47.5208 21.4736 47.5387 22.7475 47.4322C22.9279 47.4168 23.0692 47.4085 23.2477 47.3821L24.6377 47.1535C24.7654 47.1283 24.9695 47.0676 25.0986 47.0649C25.1205 47.1466 25.204 47.2365 25.2519 47.3082C25.3084 47.3935 25.3507 47.4495 25.4175 47.5381C25.9195 48.2036 26.3536 48.6776 26.9708 49.2456L27.893 49.9701C29.6123 51.1046 31.2793 51.714 33.5059 51.714C35.5758 51.714 37.3387 51.1419 39.0653 50.4335L41.1794 49.4045C41.0476 48.8438 40.8517 48.2929 40.7207 47.7334C40.5963 47.7621 39.7641 48.2236 39.5696 48.3211C38.759 48.7269 37.4858 49.2357 36.6137 49.4854C33.9978 50.2334 31.4971 50.281 29.2212 48.6194C28.9501 48.4214 28.7292 48.2128 28.4707 47.9979C28.379 47.9218 28.1924 47.7357 28.1209 47.6468C27.7093 47.1344 27.6428 47.1439 27.1772 46.4878C26.5409 45.5911 25.9305 44.3769 25.4249 43.3682C24.9757 42.4728 24.6325 41.7802 23.9767 41.0094C23.8043 40.8066 23.8455 40.8334 23.6267 40.6583C23.5467 40.5942 23.5236 40.5576 23.4308 40.4884C23.151 40.2796 22.8791 40.1252 22.5119 40.0042C21.648 39.7201 20.8331 39.7789 19.9593 39.952C19.5345 40.0362 19.1816 40.1564 18.7828 40.2717C18.3142 40.4068 16.7809 41.0751 16.6304 41.1101L16.6308 41.1098Z" fill="white"/>
<path fill-rule="evenodd" clip-rule="evenodd" d="M57.1384 47.4308C56.2214 47.4308 55.9418 46.4427 55.8102 45.6209C55.7772 45.4135 55.7346 45.1477 55.7317 44.9393C55.7294 44.7632 55.7052 44.7287 55.7003 44.5756L55.6402 42.6604C55.2641 42.6604 54.1368 42.8123 53.749 42.877C53.1402 42.9791 52.5348 43.0762 51.947 43.2131L50.2351 43.6388C49.1398 43.9339 46.9596 44.7497 45.9796 45.2432C45.8552 45.3058 45.7351 45.3482 45.6023 45.4148L43.4726 46.489C43.3493 46.5494 43.248 46.6045 43.135 46.6698C43.0189 46.737 42.8887 46.791 42.7695 46.8534C42.8143 47.0437 43.1945 48.4102 43.1976 48.555L44.6026 47.794C45.2392 47.4264 46.5773 46.8158 47.2592 46.5452L48.5288 46.0752C49.3754 45.7946 49.6977 45.7182 50.5618 45.4826C50.7723 45.4254 51.0275 45.3726 51.2604 45.3264C51.4875 45.2817 51.7683 45.2261 52.0063 45.1864L53.5306 44.9701C53.5306 47.7615 55.2939 51.0937 58.5885 49.1155L59.3131 48.6203C59.4308 48.5267 59.5333 48.4462 59.6521 48.3497L60.922 47.181C60.9935 47.1097 60.9991 47.0876 61.0603 47.0146L61.9456 46.071C62.0068 46.0021 62.0151 45.9753 62.0833 45.9042C62.1521 45.832 62.161 45.8106 62.2223 45.7386L63.2149 44.5679C63.3129 44.4479 63.3918 44.3536 63.4902 44.2336L64.7204 42.6912C64.7642 42.6344 64.8014 42.5795 64.8518 42.5178C64.9501 42.3984 65.027 42.2962 65.1212 42.1783L66.5895 40.295C66.6552 40.2101 66.6975 40.1912 66.707 40.0775C66.6044 40.0504 65.8027 39.4502 65.6847 39.3616C65.5861 39.2879 65.4301 39.1317 65.3314 39.1055C65.2946 39.2428 63.8829 40.9653 63.7511 41.1201C63.292 41.6596 62.5498 42.6534 62.1136 43.1087L60.6755 44.748C60.5968 44.8418 60.5042 44.9192 60.4164 45.0073C60.3191 45.1047 60.2764 45.1792 60.1726 45.2813C59.4705 45.9712 58.0797 47.4312 57.1382 47.4312L57.1384 47.4308Z" fill="white"/>
<path fill-rule="evenodd" clip-rule="evenodd" d="M87.4035 20.7238C87.4339 20.8526 87.6025 21.0346 87.6835 21.1444L88.5959 22.4254C88.7098 22.4158 89.2335 22.1962 89.3776 22.1388C90.24 21.795 90.8718 21.6003 91.7787 21.3349C93.6893 20.7765 95.2202 20.838 97.1872 20.8459C97.4007 20.8468 97.484 20.8129 97.7059 20.8149C98.8198 20.8237 101.407 20.4586 102.451 20.2134L103.362 20.025V18.2931L102.03 18.5491C101.509 18.6461 96.6971 19.6113 96.6971 18.7792C96.6971 18.5215 96.8312 18.4537 97.0856 18.3449L103.846 15.6452C104.03 15.5712 104.225 15.5077 104.423 15.4285L105.291 15.1063C105.402 15.0662 105.461 15.0223 105.593 15.0115V12.7324L105.016 12.9487C104.817 13.0204 104.627 13.0901 104.414 13.1708C104.006 13.3255 103.631 13.4699 103.226 13.6311L98.5751 15.5107C97.7038 15.8549 96.5986 16.353 95.7099 16.7347L92.6205 18.1305C90.7377 19.0292 89.3176 19.7174 87.4033 20.724L87.4035 20.7238Z" fill="white"/>
<path fill-rule="evenodd" clip-rule="evenodd" d="M30.2038 44.3591C30.2038 46.2543 31.9384 47.0326 33.6887 47.0326C35.4268 47.0326 36.9081 46.731 38.4389 46.2237C39.7336 45.7945 40.9928 45.2868 42.1875 44.693C42.5732 44.5016 42.9681 44.3134 43.3497 44.116L43.9289 43.8107C44.0233 43.7562 44.1035 43.7131 44.2057 43.6603C44.3113 43.606 44.3808 43.5384 44.5111 43.5079C44.4797 43.3735 44.1338 42.9374 44.0312 42.8001C43.4877 42.073 42.8061 42.464 42.1674 42.7581C41.9934 42.8384 41.8509 42.9153 41.6785 43.0014L40.694 43.4515C40.531 43.5174 40.3644 43.6042 40.1878 43.6774C39.8303 43.8259 39.5131 43.9652 39.1485 44.1029C38.4455 44.3685 37.7215 44.6272 36.9601 44.8144C36.1586 45.012 32.9558 45.7054 32.4353 44.4806C32.271 44.094 32.3909 43.6844 32.5785 43.346C32.8535 42.8504 33.6222 42.2258 34.08 41.9215C34.2889 41.7824 34.4784 41.6611 34.6918 41.5268C34.8927 41.401 35.1042 41.2785 35.3094 41.1682C36.0741 40.7568 36.514 40.5542 37.2758 40.1753L39.3229 39.293C39.5491 39.2038 39.8185 39.0638 40.0481 39.011L38.9778 37.6133C38.4503 37.7356 35.5342 39.0765 34.9788 39.4118L32.8855 40.7042C32.6663 40.8669 32.2494 41.1645 32.0609 41.3433C31.5291 41.8467 31.1119 42.1743 30.6751 42.8826C30.455 43.2398 30.2036 43.8024 30.2036 44.3589L30.2038 44.3591Z" fill="white"/>
<path fill-rule="evenodd" clip-rule="evenodd" d="M56.6487 37.8589C54.8365 37.8589 54.175 37.7433 52.4933 37.552C49.8451 37.2514 47.7762 36.9981 45.1291 37.7127C44.6175 37.8508 44.0712 38.0794 43.6047 38.294C43.3514 38.4105 42.3904 38.9405 42.2798 39.1044L43.2887 40.4111C43.3981 40.3854 43.5111 40.3261 43.6162 40.2807C44.1196 40.0646 44.8279 39.8618 45.361 39.7362C46.0257 39.5794 47.5656 39.313 48.2099 39.3165C48.3921 39.3173 48.5091 39.3136 48.6475 39.2945L49.5566 39.3165C50.1273 39.314 52.395 39.5884 52.9363 39.6643C56.5299 40.1663 58.9191 40.0181 62.274 38.5584C62.555 38.4361 63.2303 38.1314 63.4902 37.9744C63.5712 37.9255 63.8134 37.7862 63.8939 37.7676L62.923 36.8178C62.8133 36.709 62.6928 36.584 62.6098 36.4609C61.9325 36.8171 59.8962 37.4118 59.1325 37.5624C58.3476 37.7175 57.482 37.8587 56.6485 37.8587L56.6487 37.8589Z" fill="white"/>
<path fill-rule="evenodd" clip-rule="evenodd" d="M79.8835 31.6606C79.8835 32.1388 80.5724 33.12 80.8749 33.6223L83.2374 37.0474C83.5862 37.5092 84.3817 38.49 84.7672 38.8994L86.4181 40.662C86.4601 40.704 86.4843 40.7253 86.5246 40.7687C86.5527 40.7989 86.5572 40.8055 86.5812 40.834C86.5853 40.8386 86.5909 40.8455 86.5952 40.8503L89.3991 43.4416C89.489 43.5287 89.565 43.5874 89.6594 43.6691C89.7487 43.7467 89.8317 43.8128 89.9286 43.8879L93.4753 46.6217C93.6883 46.7679 94.7655 47.5818 94.9551 47.5818C95.345 47.5818 95.4341 47.1774 95.1607 46.952L93.9082 45.7966C93.8107 45.6986 93.7419 45.6625 93.6478 45.5695L88.1147 40.0087C87.5682 39.4653 87.007 38.8135 86.4791 38.2918C86.1334 37.9501 85.6991 37.4241 85.3171 37.0464L84.8575 36.5308C84.7761 36.4341 84.6941 36.379 84.6174 36.2829L83.9261 35.5115C83.83 35.4181 83.8007 35.3578 83.7128 35.2677C83.6659 35.2195 83.6349 35.197 83.5913 35.1454C83.5395 35.0836 83.542 35.0724 83.4833 35.0098L80.81 31.863C80.4806 31.4586 80.484 31.3867 80.1585 31.3867C80.0073 31.3867 79.8833 31.51 79.8833 31.6602L79.8835 31.6606Z" fill="white"/>
<path fill-rule="evenodd" clip-rule="evenodd" d="M16.9058 15.498C16.9879 15.6521 17.0906 15.7894 17.1933 15.9416C17.3001 16.1003 17.3929 16.2457 17.4927 16.4039L19.6469 20.2178C19.8289 20.5795 20.987 22.9813 21.0635 23.3068L21.7749 22.3126C21.9044 22.14 22.0119 22.0015 22.1466 21.8311C22.2166 21.743 22.2677 21.6822 22.3379 21.5959C22.4036 21.515 22.4832 21.4329 22.5307 21.3625L22.0321 20.4304C21.516 19.5073 20.973 18.6853 20.3471 17.8203L18.2896 15.2471C18.2092 15.1644 18.1898 15.1513 18.1158 15.0556C18.0755 15.0036 17.7929 14.6985 17.7619 14.6777C17.6687 14.7398 16.9906 15.3723 16.9058 15.4982V15.498Z" fill="white"/>
<path fill-rule="evenodd" clip-rule="evenodd" d="M48.8223 30.352H58.2691C58.2581 30.2222 58.1596 30.05 58.1115 29.931C58.0125 29.6866 57.6387 28.8307 57.5966 28.6504H49.7092C49.5587 28.9335 49.4189 29.196 49.2711 29.4911L48.8225 30.352H48.8223Z" fill="white"/>
<path fill-rule="evenodd" clip-rule="evenodd" d="M19.627 12.2401L20.6662 12.8478L24.5432 6.82601C24.6273 6.69542 24.7628 6.50455 24.7628 6.34546C24.7628 6.13706 24.5457 6.02998 24.3882 6.06233C24.2473 6.09103 24.0581 6.26052 23.9463 6.35471C23.3245 6.87743 22.2762 7.93252 21.7625 8.55964C20.9627 9.53557 20.3794 10.6026 19.8512 11.7338C19.7678 11.9117 19.7134 12.0783 19.627 12.2401V12.2401Z" fill="white"/>
<path fill-rule="evenodd" clip-rule="evenodd" d="M7.30664 21.2073C7.30664 21.3814 7.43822 21.5414 7.61244 21.5414C7.76805 21.5414 7.92405 21.4571 8.05971 21.4087C9.61583 20.8525 11.4857 20.2433 13.0579 19.7221L14.8886 19.1106L14.552 17.9863C14.1517 18.0195 12.7872 18.3446 12.4124 18.4422C12.0599 18.5343 11.7429 18.6379 11.4068 18.7496C10.2904 19.1202 9.33794 19.6485 8.37074 20.2897C8.22675 20.3846 8.11338 20.4686 7.97328 20.563C7.81359 20.6703 7.30664 21.0114 7.30664 21.2073V21.2073Z" fill="white"/>
<path fill-rule="evenodd" clip-rule="evenodd" d="M7.30664 6.34863C7.30664 6.50887 7.47873 6.67008 7.57736 6.74847L12.0628 10.494C12.199 10.6008 13.1035 11.3954 13.2069 11.423L13.9714 10.5724C13.9158 10.366 12.6996 9.17413 12.5911 9.08804C12.4578 8.98249 12.3709 8.8702 12.2242 8.75368L11.8314 8.41469C11.2987 8.00194 11.1547 7.88619 10.5962 7.51542C9.88714 7.04508 9.01218 6.59227 8.24167 6.27024L7.71108 6.06607C7.47078 6.01407 7.30664 6.18665 7.30664 6.34863V6.34863Z" fill="white"/>
<path fill-rule="evenodd" clip-rule="evenodd" d="M56.2819 8.23342C56.9524 8.23342 57.4912 7.91755 57.9677 7.5387C58.2469 7.31662 58.9415 6.78735 58.9415 6.34937C58.9415 5.76693 57.8369 5.31643 57.2908 5.31643C56.8061 5.31643 56.4586 5.30641 56.0592 5.70299C55.8653 5.89598 55.6858 6.23053 55.6083 6.53099C55.4424 7.17699 55.55 8.23323 56.2817 8.23323L56.2819 8.23342Z" fill="white"/>
<path fill-rule="evenodd" clip-rule="evenodd" d="M37.603 13.4572C38.2855 13.4572 39.7122 12.7639 39.7122 11.8773C39.7122 11.0137 37.4156 9.98303 36.8342 11.9337C36.7108 12.3474 36.6943 13.0447 37.1141 13.3051C37.2096 13.3642 37.4528 13.457 37.603 13.457V13.4572Z" fill="white"/>
<path fill-rule="evenodd" clip-rule="evenodd" d="M41.1191 23.6704V23.9744C41.1191 24.4249 41.386 24.9464 41.8224 24.9464C42.3487 24.9464 42.8741 24.6429 43.1904 24.3613C43.626 23.9732 44.2021 23.3838 43.7188 22.7577C43.5547 22.5445 43.1617 22.3648 42.891 22.3045C42.6985 22.2619 42.4795 22.2535 42.3096 22.2689C41.8978 22.3062 41.6495 22.4453 41.4503 22.6932C41.2922 22.889 41.1191 23.3228 41.1191 23.6706V23.6704Z" fill="white"/>
</svg>
