<svg width="205" height="70" viewBox="0 0 205 70" fill="none" xmlns="http://www.w3.org/2000/svg">
<path fill-rule="evenodd" clip-rule="evenodd" d="M8.64006 37.7288L24.7167 37.6419C27.5389 37.6419 29.8684 37.1864 31.405 38.8605C33.0143 40.6098 32.5357 43.1857 30.9569 44.4254C30.1522 45.0571 27.499 45.3576 24.0341 45.3576L0 45.3529L0.0703779 53.6745L19.6988 53.759C22.9479 53.759 26.1947 53.759 29.4414 53.759C32.2519 53.759 36.4276 53.1367 38.2222 54.7968C40.4603 56.8655 39.2803 60.0283 37.183 60.9887C35.515 61.7518 10.6388 61.5076 8.63537 61.3151L8.60018 58.5889L0.0633401 58.6007L0.0821076 69.8479C5.57159 69.963 35.7801 70.2846 39.0574 69.3806C51.343 65.9853 49.7502 48.7881 40.2444 46.2264C40.5095 43.5825 41.3423 42.6362 40.838 39.5509C39.9301 34.0071 35.4376 29.4166 29.1529 29.1536C20.0835 28.7756 9.21012 28.9423 0.0609942 29.1701L0.0469186 40.3774L8.57438 40.3445L8.64475 37.7311L8.64006 37.7288Z" fill="white"/>
<path fill-rule="evenodd" clip-rule="evenodd" d="M75.3846 51.573C76.5107 49.9317 82.3497 41.899 83.4687 41.056C84.6698 41.9412 101.037 63.9566 103.224 66.8588C105.028 69.2515 104.927 69.8691 106.792 69.8714L116.002 69.8644C115.228 68.2606 113.117 65.7482 111.991 64.2877C110.395 62.2214 109.328 60.7797 107.909 58.9247L91.6138 37.4095C90.2508 35.6108 88.9042 33.9202 87.5248 32.0465C86.5114 30.6682 84.576 27.7824 83.4664 26.9395C82.5538 27.6415 51.801 68.0352 50.9424 69.8761L61.3231 69.8151C62.6251 68.6269 64.6145 65.6637 65.7405 64.168C69.2758 59.4742 68.2389 60.1011 71.6523 60.127C78.3077 60.1763 85.2024 60.2631 91.8413 60.1105C91.276 58.7627 89.6315 56.896 88.7119 55.6797C84.1467 49.6335 86.9055 52.214 75.3799 51.5753L75.3846 51.573Z" fill="white"/>
<path fill-rule="evenodd" clip-rule="evenodd" d="M127.073 10.7441C131.491 10.8662 136.103 10.3848 140.738 10.4741C151.476 10.6783 164.883 12.9794 173.389 18.4903C184.009 25.3702 184.675 34.8 176.401 44.906C175.35 46.1904 170.778 50.7081 169.521 51.3233C171.104 50.8372 178.151 45.5917 179.702 44.3683C183.005 41.7643 185.86 39.1228 188.401 35.9247C195.598 26.8659 193.77 18.6312 185.944 13.3152C173.333 4.74479 144.337 6.23815 128.591 10.0913L127.076 10.7441H127.073Z" fill="white"/>
<path fill-rule="evenodd" clip-rule="evenodd" d="M108.161 37.6363L159.07 37.6316L159.124 29.1927L108.166 29.1387L108.161 37.6363Z" fill="white"/>
<path fill-rule="evenodd" clip-rule="evenodd" d="M155.825 3.25925C166.433 3.92375 188.642 0.993372 195.821 13.7833C198.997 19.4444 196.865 24.0185 196.274 28.0947C197.562 27.2917 215.292 6.21781 196.203 1.2634C189.729 -0.417812 182.208 -0.100824 175.282 0.399313C171.597 0.666992 158.638 2.12983 155.825 3.25925V3.25925Z" fill="white"/>
<path fill-rule="evenodd" clip-rule="evenodd" d="M129.418 69.8725L137.891 69.8491V42.4941H129.39L129.418 69.8725Z" fill="white"/>
</svg>
