<svg width="96" height="106" viewBox="0 0 96 106" fill="none" xmlns="http://www.w3.org/2000/svg">
<g clip-path="url(#clip0_53_499)">
<path fill-rule="evenodd" clip-rule="evenodd" d="M52.1224 101.777C52.035 101.401 51.9185 101.329 51.7834 100.986C51.0173 99.0438 52.1514 97.0665 53.3015 97.3144C54.7018 97.617 54.5227 101.577 52.1224 101.777V101.777ZM44.2084 98.5927C43.5726 98.1673 43.4953 97.2158 43.4852 96.3378C43.4707 95.0969 43.1635 88.8363 44.9283 88.8363C46.8769 88.8363 45.773 94.7226 45.5875 95.452C45.3423 96.4163 44.9588 98.0915 44.2086 98.5927H44.2084ZM40.7142 93.9717C40.7142 96.4903 40.8178 98.2921 41.6542 100.738C41.8097 101.192 41.9295 101.32 41.6058 101.738C39.4854 104.473 35.7807 103.347 35.7807 100.647C35.7807 99.5584 35.7812 99.999 35.959 99.0791C36.8596 94.4152 33.3298 93.3059 32.6237 98.6224C32.4127 100.212 32.6916 99.7781 32.0491 100.924C29.3997 105.647 27.9787 97.192 26.9616 95.2871C26.8721 95.1195 26.7939 95 26.6536 94.8757C25.3028 93.6753 23.5615 96.8746 22.4989 98.1591C22.3039 98.3953 22.1424 98.5926 21.9509 98.8438C21.1635 99.8761 20.8069 99.4633 20.4452 97.8958C20.2947 97.2462 20.0989 96.5485 19.9526 95.9229C18.4682 95.9229 18.465 96.5869 18.1147 97.6806C17.6682 99.0753 17.474 100.34 17.0093 101.916C16.7309 102.861 15.5187 105.782 17.075 105.782C17.4438 105.782 17.9974 105.406 18.252 105.213C19.7377 104.079 21.3709 102.342 22.8625 101.09C24.7786 99.4805 25.6978 98.6024 27.3234 102.73C27.9315 104.273 29.1844 107.013 30.9783 105.194C32.048 104.108 32.7279 102.174 33.4645 102.342C34.2574 102.521 34.8073 105.782 37.22 105.782C40.2061 105.782 40.5114 104.861 42.2573 103.827C43.5467 103.062 44.1456 105.782 46.4698 105.782C48.196 105.782 49.0535 105.14 50.1699 104.55C51.2793 105.292 51.0389 105.782 53.2534 105.782C54.7882 105.782 56.7686 104.979 57.7001 104.063C58.3573 103.417 58.2791 103.683 58.8469 102.95C61.0517 100.105 61.0697 100.673 61.5653 102.303C62.5104 105.413 63.8622 107.106 67.0857 104.61C68.0611 103.855 68.9598 102.134 69.4943 101.06C69.7451 100.555 69.8226 100.114 70.0366 99.5477C70.4012 98.5828 71.1762 95.4817 70.458 94.3422C69.6129 93.0017 67.437 94.6601 67.437 96.8473C67.437 99.5996 68.3404 99.6945 67.3964 102.045C66.8107 103.504 65.8206 104.025 64.8651 102.19C63.7351 100.019 63.1989 94.6907 61.9892 94.6907C60.826 94.6907 60.353 97.4241 59.8672 98.4237C59.44 99.3036 59.0053 100.338 58.4948 101.058C57.4777 102.491 56.5468 103.523 54.4865 103.523C54.1257 103.523 53.8981 103.433 53.6583 103.324C53.3292 103.174 53.2469 103.165 53.1502 102.804C53.5775 102.69 54.3847 101.993 54.7358 101.718C54.9853 101.523 55.0125 101.511 55.2336 101.291C55.8623 100.667 56.5094 99.9332 56.6438 99.002C56.8081 97.8662 56.6054 96.9472 56.128 96.1314C54.5303 93.4017 52.138 94.6838 50.7016 96.8653C49.5052 98.6819 49.3477 100.232 49.3477 102.291C49.3477 102.692 49.4264 103.054 49.5534 103.318C47.3051 104.822 45.0311 101.919 45.0311 101.367L46.4372 98.458C47.1194 97.1034 47.9089 94.2641 47.9089 92.4316C47.9089 90.587 48.1537 88.3637 47.1459 86.8265C45.9394 84.987 44.0322 85.0332 42.8697 86.6775C41.553 88.5392 40.7145 91.6985 40.7145 93.9722L40.7142 93.9717Z" fill="white"/>
<path fill-rule="evenodd" clip-rule="evenodd" d="M8.85282 0.718707C9.40181 1.53746 11.422 1.56887 12.8614 2.25884C12.7803 2.56138 12.7092 2.60336 12.4691 2.79148C11.3042 3.70603 8.84145 4.75678 8.75 5.85345C9.23676 6.1795 9.30863 6.12158 10.0244 6.22337C10.535 6.29612 11.0971 6.2644 11.6281 6.2644C12.5584 6.26409 13.7841 6.19212 14.5057 6.67504C14.3412 6.98578 14.2507 7.22835 14.0371 7.54177C13.7922 7.90128 13.6091 7.99392 13.3593 8.30198C13.1328 8.58116 12.9823 8.84882 12.7345 9.11553C11.7961 10.1226 9.91906 11.9133 9.54664 13.1324C8.98485 14.9699 12.5222 13.0324 12.9996 12.7695C13.3597 12.5716 13.5535 12.4374 13.9225 12.2536C14.9829 11.7244 16.0573 10.9189 16.8699 11.0908C17.2816 12.8572 15.9908 15.815 17.4863 15.815C18.7868 15.815 19.3375 14.0604 20.4673 13.9665C21.029 15.027 20.8291 16.8367 21.2982 18.3737C21.4975 19.0264 21.5408 19.1076 22.1114 19.4095C23.0018 18.9385 23.2405 17.551 23.5159 16.6021C23.7167 15.908 24.0137 13.5556 24.681 13.5556C25.0915 13.5556 25.5465 14.4322 26.1369 14.9764C26.4687 15.2821 26.3588 15.1991 26.9422 15.1991C27.0512 14.7316 27.1395 14.8044 27.3619 13.6667C27.432 13.3078 27.4726 12.8059 27.6765 12.5432C27.8093 12.3721 27.9042 12.2731 28.1332 12.3038C28.7462 12.3844 30.3861 13.925 30.833 14.2888C31.4389 14.7818 32.3524 15.5905 33.0866 15.7462C34.9661 16.1453 32.7774 11.7528 32.7708 11.737C32.5735 11.2806 31.5024 8.89995 31.7731 8.62566C32.344 8.35232 34.2675 9.05114 34.8263 9.27208C35.4167 9.50565 38.0486 10.4847 38.7869 9.88315C39.5891 9.22931 38.4554 8.11591 38.1002 7.64357L37.3338 6.7661C32.908 2.58284 33.5524 2.84166 37.5733 1.27627C38.8849 0.765579 38.9709 0.101642 37.5282 0.101642C35.9701 0.101642 30.7452 0.790829 30.7452 2.05274C30.7452 3.08328 34.512 5.69626 34.31 6.76342C34.1568 7.57302 32.1772 6.65311 31.8314 6.51328C31.3079 6.30165 30.2325 5.85266 29.6147 5.85266C29.0697 5.85266 28.9978 6.49213 28.9978 6.87973C28.9978 8.17778 30.6426 10.622 30.6426 11.7067C30.0189 11.6548 28.7808 10.2873 28.2632 9.87321C27.8439 9.53769 26.5559 8.10771 26.2704 9.28897C26.0338 10.2678 26.6128 12.3593 25.7506 11.8781C25.4941 11.735 25.2166 11.2349 25.0907 10.9893C24.1044 9.05792 23.7765 9.75106 23.2634 11.6251C23.1549 12.0208 23.0952 12.2782 22.9968 12.6936C22.9077 13.0693 22.8948 13.5552 22.5228 13.5552C21.258 13.5552 23.3761 5.80389 19.6464 11.6054C19.4307 11.9414 19.3481 12.1764 18.8225 12.2201C18.5282 10.9573 19.9854 8.11228 18.7198 8.11228C17.5741 8.11228 16.1946 9.55031 14.9172 9.55031C14.9322 8.86949 15.3019 8.79753 15.6603 8.44386L17.8858 6.03888C18.0119 5.83072 17.9369 6.07771 18.0208 5.76254C18.1642 5.22107 17.7692 5.16315 17.7008 5.12528C17.2993 4.90307 16.2985 4.84752 15.8454 4.82274C15.3158 4.79418 13.684 4.67108 13.684 4.20947C13.684 3.78131 13.9536 3.51933 14.2399 3.32742C15.0524 2.7828 16.7671 1.96357 16.7671 1.2313C16.7671 0.150565 11.6723 -0.223935 9.71626 0.142043C9.08435 0.260248 9.09699 0.257565 8.85297 0.717918L8.85282 0.718707Z" fill="white"/>
<path fill-rule="evenodd" clip-rule="evenodd" d="M50.7871 70.8639C50.7871 70.5565 50.8558 70.3013 51.0333 70.0835C51.4128 69.6168 52.9453 69.3083 52.9453 70.9666C52.9453 72.1943 50.7871 72.2724 50.7871 70.864V70.8639ZM39.7894 70.7615C39.7265 71.5147 39.4527 71.9304 38.9951 72.3295C37.796 73.3763 35.5668 72.7604 35.3218 72.3499C35.2626 72.2506 35.0931 71.614 35.019 71.4204C34.5959 70.3197 33.3607 68.3001 32.0809 68.1939C32.0809 69.1812 32.1556 70.3691 31.3912 71.2016C30.3625 72.3221 28.0026 72.5178 26.6338 72.199C27.1086 73.0959 28.8291 74.2476 29.8053 74.5761C32.1908 75.379 32.0169 73.9424 35.0482 76.2178C35.3447 76.4405 35.5788 76.6207 35.8822 76.8224C38.5538 78.5965 42.7681 79.0382 45.9466 78.0433C47.016 77.7086 48.104 76.967 48.6282 76.9233C49.3573 79.6507 56.1205 78.1482 55.2237 76.7134C54.7654 75.9791 52.0738 77.5481 49.2426 75.3852C47.5383 74.083 47.7904 72.7126 46.8813 72.7126C46.4722 72.7126 45.1907 74.0199 43.8683 74.7337C42.2959 75.5829 37.5776 76.1175 36.6035 74.6636C38.6143 74.6636 38.7626 75.0287 41.3331 74.3576C46.3915 73.0369 46.8517 68.7059 48.4232 71.8903C49.7303 74.5391 52.5024 75.9966 53.9998 74.4845C54.3595 74.1212 54.6172 73.4837 54.8263 72.9487C55.5964 70.9799 55.1424 70.7695 56.0205 70.6499C56.8214 70.541 56.7483 70.3712 56.7483 69.7336C56.7483 69.2917 56.0342 69.1415 55.8343 68.6961C55.4852 67.9178 55.9229 67.3719 54.8983 67.3719C54.2756 67.3719 54.3705 67.6911 54.1786 68.0906C53.7193 68.0522 53.2289 67.8647 52.7638 67.7585C50.8243 67.3163 50.0866 67.7824 49.1426 67.7824C48.9463 67.0482 46.7887 65.8743 46.1622 65.7285C45.7413 67.5336 44.7801 68.9491 43.1133 69.7685C40.9406 70.8369 41.5234 70.357 39.7897 70.761L39.7894 70.7615Z" fill="white"/>
<path fill-rule="evenodd" clip-rule="evenodd" d="M72.7819 24.7503C73.3925 24.801 73.2328 25.2141 73.8502 26.2499C74.3413 27.0728 74.6828 27.3178 75.4539 27.3178L75.7622 25.7772C76.8954 25.8716 75.6723 26.9353 77.3772 28.1691C77.7061 28.4066 77.9156 28.4548 78.0232 28.8583C77.138 29.2828 76.525 28.2422 75.2732 29.4995C75.0641 29.7099 75.0328 29.746 74.7851 29.936C74.4991 30.1551 74.5724 30.1835 74.1175 30.1936C74.1175 28.9642 75.0429 29.0052 75.0429 28.3451C75.0429 28.0293 74.7414 27.9341 74.4258 27.9341C73.2833 27.9341 72.3098 29.2693 71.2398 29.2693C70.8471 29.2693 71.2023 29.3005 70.9315 29.1665C71.1101 28.4985 71.9592 28.3927 71.9592 27.7286C71.9592 26.6222 69.3418 28.1338 68.5679 27.318C69.0626 26.5796 69.3309 27.2924 70.5207 26.4961C70.476 25.96 69.3984 24.7053 70.2519 24.895C70.2637 24.8977 70.6274 25.1239 70.6432 25.1371C71.1366 25.5437 71.6891 26.8308 72.4402 26.6695C72.9622 26.557 72.7819 25.6663 72.7819 24.7505V24.7503ZM73.6039 31.734C75.0377 31.734 75.8489 31.6569 77.113 31.2349C77.8327 30.9947 79.0571 30.3926 79.703 30.4742C81.3533 30.6828 82.957 32.2927 82.957 34.0963C82.957 35.2815 82.9076 35.4465 82.3763 36.4941C80.9526 39.3003 80.1817 36.7935 80.1817 36.3553C80.1817 35.1342 81.2338 32.0419 80.3874 32.0419C79.4337 32.0419 77.3041 33.982 77.3041 35.4311C77.3041 37.4193 79.2946 38.1279 80.7986 38.9229C80.285 39.6893 78.965 41.865 78.9482 42.6204C78.6535 42.4049 78.7475 42.2893 78.6597 41.8819C78.4784 41.0396 76.4925 35.9948 76.0403 35.2562C74.5738 32.8635 72.75 33.4483 71.9592 33.069C72.0216 33.813 73.5483 35.4104 74.1485 36.1195C75.7066 37.9599 76.0044 38.0633 77.3377 40.4298C77.8526 41.3439 78.1263 42.5548 78.1263 43.9557L77.6851 43.0611C77.544 42.7344 77.4464 42.3957 77.2986 42.1126C77.0043 41.5498 76.6212 41.0071 76.2731 40.4669C75.2615 38.8983 73.4558 37.8866 72.188 36.5385C71.441 35.7443 71.1121 33.8002 70.4362 32.9483C70.0464 32.457 69.4697 32.1016 68.7732 31.9394C69.8951 34.0581 66.1486 36.9367 71.1142 38.3297C71.7286 38.502 72.5472 38.6512 73.0925 38.9204C74.2916 39.513 75.1181 40.3472 75.8228 41.4303C76.7508 42.8557 77.4012 44.2016 77.8382 45.8869C78.065 46.7636 77.9937 46.6385 78.3321 46.7284C78.4469 46.2357 78.9874 45.3729 79.2703 44.9959C79.6795 44.4503 79.9437 43.9557 80.9015 43.9557C81.9906 43.9557 82.1348 45.1881 82.1348 46.3175C82.6786 45.9542 83.3206 45.0784 83.6106 44.5054C85.433 40.9037 83.4251 39.0902 81.4588 41.6366C80.7795 42.5164 80.5832 42.6018 79.7709 43.0309C79.9965 42.0657 80.717 40.7314 81.3123 39.9495L82.6715 38.1239C83.8126 36.4122 84.088 35.9841 84.088 33.9937C84.088 33.0487 83.8377 32.5549 83.5073 31.9035C83.2301 31.358 82.7509 30.6945 82.3109 30.3258C81.0651 29.2825 80.6612 29.2582 79.8878 28.742C79.1491 28.249 76.7166 23.107 73.0902 23.107H71.7545C70.3261 23.107 68.7878 23.6017 67.2653 23.074C66.7474 22.8945 66.6528 22.6395 66.1016 22.5938C66.1016 24.8505 66.884 27.2388 68.0976 28.918C69.3353 30.6311 71.4408 31.7344 73.6044 31.7344L73.6039 31.734Z" fill="white"/>
<path fill-rule="evenodd" clip-rule="evenodd" d="M59.8314 6.26518C60.3167 6.37818 60.8204 6.64978 61.3732 6.77841V6.98388C60.8612 7.02634 60.2875 7.18589 59.8314 7.2921C59.8469 7.96993 60.1081 7.71174 60.3455 8.72966C59.8516 8.68862 59.3904 8.43154 58.9064 8.31902C58.4272 8.6397 58.255 9.23057 57.7758 9.55157C57.7758 7.38505 57.43 7.95351 56.5253 7.91516C55.4084 7.86766 56.5834 7.4324 57.1594 6.57293C56.9934 5.9516 56.2975 5.85944 56.1315 5.23779C56.6513 5.23779 57.0079 5.34053 57.6729 5.34053C57.751 5.00675 57.8253 4.84625 57.9183 4.45581C58.0263 4.00067 57.9797 3.9246 58.2899 3.6975C58.4466 4.36948 58.7762 4.67944 58.9064 5.23764C59.8733 5.23764 59.7542 4.89312 60.5511 4.82715C60.0647 5.74486 59.8445 5.67116 59.8314 6.26503V6.26518ZM60.4483 3.38928C59.6722 3.38928 59.369 2.03568 62.1773 1.62378C63.9495 1.3637 66.0676 2.24384 66.7309 3.88972C67.6307 6.12362 67.6373 9.20106 65.7719 10.9683C65.3919 11.3286 64.0115 12.016 63.3258 12.016C62.0218 12.016 61.7399 12.0602 60.5184 11.5355C59.8001 11.2268 59.4691 10.8409 59.6262 10.1675C61.1407 10.1675 61.1146 11.0917 62.6067 11.0917C62.6067 9.20311 60.9727 8.57437 63.5778 8.99195C67.502 9.62022 63.6118 7.64214 63.3259 6.57293C64.052 6.18943 65.2597 5.88027 65.6899 5.23779C65.3025 4.65971 65.091 4.90227 64.28 4.79875C63.8583 4.74446 62.9584 4.65971 62.5039 4.62183C62.5242 3.71391 63.1006 3.78398 63.1203 2.87606C62.0237 2.5852 61.6188 3.38928 60.4483 3.38928V3.38928ZM56.6453 2.05415C56.2326 2.04484 55.9821 1.9462 55.6858 1.78081C55.0748 1.43945 53.6781 0.63048 53.0478 0.616592C53.0478 1.25512 53.4776 1.89665 53.8266 2.40608C55.4527 4.77791 54.9227 4.06142 53.4095 5.08566C53.1091 5.2894 53.1407 5.19897 53.0477 5.54601C53.5047 6.22762 54.8981 6.27844 54.8981 6.98388C54.8981 8.10928 53.0344 8.1683 52.9453 9.24335C53.3421 9.33599 53.3752 9.39154 53.8632 9.45562C54.2472 9.50628 54.5468 9.5724 54.8981 9.65431C54.8981 11.1664 53.5619 11.7471 53.5619 13.2486C54.5992 13.2256 55.3742 11.6567 56.337 11.4001C57.0616 11.8851 56.6821 12.7772 57.0563 13.5567C57.8404 13.4915 57.6825 12.7655 58.4954 12.2215C59.6515 12.4911 61.6439 14.8848 66.0891 13.1343C66.661 12.909 67.5903 12.218 68.0307 11.788C70.382 9.49286 70.4976 5.2329 68.5992 2.6387C66.9042 0.322894 63.1759 -0.392333 60.6127 0.47282C58.8277 1.07521 58.704 1.42572 57.8516 0.540682C57.528 0.205162 57.5083 0.0123097 56.9536 0C56.8097 0.617854 56.9151 0.896559 56.6452 2.05399L56.6453 2.05415Z" fill="white"/>
<path fill-rule="evenodd" clip-rule="evenodd" d="M13.8888 39.6421C13.8888 37.1282 14.5053 37.2216 14.5053 34.404C14.5053 34.2012 13.5543 32.4439 12.6143 36.5197L12.1029 39.0894C12.0031 39.4854 11.9051 39.6397 11.8331 39.9498C10.8482 39.928 11.1134 39.0635 11.1134 37.2797C11.1134 36.8343 11.3874 35.6364 10.9078 35.6364C9.95854 35.6364 9.70568 37.2726 9.51205 38.1439C9.24672 39.3353 9.21639 40.4708 9.07251 41.7109C9.01202 42.2347 9.24072 44.8425 9.35459 45.4048C9.87389 47.9706 10.5434 49.0721 12.2022 46.8916C13.8579 44.7159 12.2441 44.1405 12.2441 43.0306C12.2441 42.4763 12.5344 41.6959 13.0663 41.6959C13.7083 41.6959 13.916 42.2784 14.2718 42.6479C15.0378 43.4429 15.225 43.2706 15.225 44.3659C15.225 45.2421 13.9602 46.8377 13.403 47.5777C13.1222 47.9504 12.9834 48.2441 12.7177 48.6388C11.2879 50.7623 10.9079 52.2338 10.9079 54.8416C10.9079 56.4404 11.7785 58.4424 12.5765 59.2333C13.5068 60.1558 12.7217 59.6792 14.1355 60.6542C14.4501 60.871 15.6465 61.8482 15.9444 61.9276C16.7042 60.4929 16.8181 59.3591 15.8869 57.9798C15.5137 57.4274 15.4695 57.6435 14.9143 57.0005C14.1469 56.113 12.5527 55.4877 12.5527 53.0957C12.5527 52.3053 12.9132 51.5977 13.0663 50.9389L13.6041 51.6344C14.6487 52.7666 15.1182 52.3729 16.458 52.6852C16.3594 52.3162 16.3255 52.4202 16.0797 52.1388C14.965 50.8635 15.0479 49.7207 15.6644 48.195C15.897 47.6196 16.1009 47.0344 16.3538 46.5216C16.4749 46.2751 16.5864 46.0335 16.7338 45.7711C17.885 43.722 20.4666 38.398 20.4666 36.3555C20.4666 35.468 20.5887 35.09 19.8497 34.918C18.8877 35.5617 18.787 37.0146 18.2411 38.1373C17.8498 38.9434 17.061 40.7613 16.2527 40.977C15.9376 40.6005 16.4932 39.1524 16.6238 38.7807C16.8838 38.0418 18.054 34.6596 17.9816 34.014C17.9044 33.3253 17.1003 32.5019 16.2664 34.7262L14.9298 38.6283C14.8309 38.9033 14.6839 39.3285 14.5458 39.5838C14.3589 39.9317 13.8888 40.2211 13.8888 39.6425V39.6421Z" fill="white"/>
<path fill-rule="evenodd" clip-rule="evenodd" d="M46.2646 57.513C46.2646 59.1207 46.8219 61.2946 47.7452 62.5037C48.3643 63.3145 48.9646 64.0533 49.8184 64.6432C52.0517 66.1868 55.3946 66.6385 57.8786 65.5238C60.6008 64.3023 62.5037 61.7457 62.5037 58.6427C62.1273 58.7432 60.9145 59.6701 58.7007 59.6701C56.3847 59.6701 54.9863 59.8156 52.9446 58.3359C52.5435 58.0449 52.4075 57.8751 51.9177 57.6159L51.5417 57.9593C51.3983 58.1763 51.4084 58.3179 51.4057 58.646C51.3964 59.7059 51.3149 59.2593 50.5814 59.2593C49.7685 59.2593 50.3475 61.827 53.459 61.827C55.725 61.827 56.8049 60.7541 57.1594 61.1078C57.4165 61.6436 56.9537 61.7997 56.9537 62.2374C56.9537 62.9497 57.8786 62.252 57.8786 63.059C57.8786 64.2575 52.1387 65.3985 49.5714 61.5011C48.511 59.8916 48.6809 57.3667 50.5842 56.3867C51.6075 55.8597 53.562 55.9121 53.562 54.7405C53.562 54.203 53.2455 53.9609 52.7398 53.9191C52.9296 53.6355 53.2226 53.3798 53.6242 53.2614C53.7301 53.2302 54.2261 53.1478 54.3157 53.142C54.9901 53.0965 56.9537 53.638 56.9537 52.3783C56.9537 51.6864 56.387 51.555 55.8779 51.3994C55.3852 51.2486 55.6727 51.5013 55.4119 51.1459C55.896 50.4862 57.365 50.8839 57.365 50.2217C57.365 49.7132 56.9732 49.5325 56.5777 49.3649C54.9811 48.6885 52.6351 49.36 51.2844 49.8971C50.6446 50.151 50.5255 50.3156 50.0065 50.6745C49.4267 51.0752 49.301 51.1437 48.8079 51.6332C47.3792 53.0526 46.2648 55.4063 46.2648 57.5132L46.2646 57.513Z" fill="white"/>
<path fill-rule="evenodd" clip-rule="evenodd" d="M74.0149 99.9285C74.0149 99.3355 74.1367 98.4712 74.3251 98.0818C75.2896 96.0895 78.0729 97.5276 76.5836 99.9281C76.3467 100.31 76.039 100.473 75.6278 100.719C74.1913 101.577 74.0149 101.487 74.0149 99.9285ZM85.9372 101.366C85.4381 101.233 85.2574 100.764 85.1555 100.196C84.8854 98.6899 84.8039 95.2047 83.8814 95.2047C82.634 95.2047 82.4257 97.5099 81.7982 98.977C79.0433 105.417 74.837 103.758 74.837 102.805C74.837 102.374 75.6811 102.294 76.3778 101.982C77.373 101.536 78.5379 101.013 79.1521 100.03C80.686 97.574 78.4536 94.8966 76.7895 94.8966C74.9282 94.8966 74.0368 95.4305 72.8834 96.9501C71.3945 98.9119 70.9245 102.953 72.6089 104.62L73.8061 105.478C74.4503 105.78 75.2858 105.783 76.0705 105.783C78.5365 105.783 80.3147 104.198 81.5782 102.454C81.836 102.098 82.5562 100.94 82.6484 100.545C82.933 100.753 82.8474 100.787 82.9396 101.178C83.1778 102.186 83.7511 105.783 84.8068 105.783C86.1941 105.783 86.2347 104.764 86.8962 103.455C87.1526 102.947 87.2709 102.532 87.5127 102.017L88.8457 99.2408C89.441 98.2346 90.5668 96.129 92.001 96.129C92.6312 96.129 92.6408 97.6691 94.2622 97.6691C96.5559 97.6691 97.0171 93.6641 92.9265 93.6641C90.7239 93.6641 89.3499 95.1188 88.4438 96.4768C87.8829 97.3178 87.6134 98.0021 87.1689 98.9004C86.9862 99.2699 86.77 99.7629 86.6177 100.198C86.4421 100.701 86.3146 101.114 85.9373 101.366H85.9372Z" fill="white"/>
<path fill-rule="evenodd" clip-rule="evenodd" d="M11.6281 89.965C11.6281 90.9642 11.8544 91.8727 12.215 92.7679C13.4414 95.8174 12.4988 101.596 10.3665 103.391C9.14055 104.422 6.86214 104.571 5.59169 103.494C3.10022 101.383 3.63989 95.444 4.05163 92.3564C4.23832 90.956 5.90598 86.0521 2.52043 87.9508C1.6753 88.4244 1.3231 89.2239 1.06187 90.1909C0.245172 93.2181 -0.501558 97.3704 0.435804 100.635C0.850232 102.078 1.14005 102.806 2.04566 103.854C2.14106 103.963 2.19476 104.018 2.29015 104.123L2.54254 104.384C2.85446 104.664 3.33017 104.958 3.69201 105.187C5.26997 106.187 8.29195 106.192 10.1011 105.591C10.6744 105.4 11.1904 105.025 11.6713 104.695C13.026 103.765 14.1867 101.758 14.7 100.224C14.9184 99.5715 15.0438 99.0067 15.1818 98.2406C15.632 95.752 15.7106 92.0476 15.2003 89.4763C15.0023 88.4795 14.7647 87.2949 13.6836 87.2949C12.4519 87.2949 11.6281 88.7086 11.6281 89.9649V89.965Z" fill="white"/>
<path fill-rule="evenodd" clip-rule="evenodd" d="M76.0704 10.4765C76.092 10.4628 76.1287 10.4222 76.14 10.4434L77.8173 9.86056C78.4876 9.56245 78.7458 9.31673 79.3032 8.88036C80.3649 8.04835 80.7982 6.84578 80.7982 5.44389C82.2758 5.78793 82.8701 8.41149 80.0468 9.82884C78.9963 10.3563 77.5992 10.4765 76.0702 10.4765H76.0704ZM80.6956 1.95219C80.6956 1.09887 82.0313 0.592275 82.0313 2.05477C82.0313 2.68272 81.1844 2.54826 80.7982 2.36298C80.7322 2.08744 80.6956 2.16934 80.6956 1.95203V1.95219ZM79.4621 4.10923C79.4621 4.58426 79.3373 5.39102 78.9965 5.69798C78.5372 6.11114 77.3039 6.2112 77.3039 4.72519C77.3039 3.30752 78.4225 2.16208 77.4353 1.10187C76.337 -0.078132 72.7224 0.258808 71.3853 0.55724C70.715 0.706693 70.109 0.772818 69.8007 1.23333C70.8515 1.93609 71.7803 1.46627 73.9272 3.06732C74.5199 3.50905 74.5297 3.49674 74.94 4.10923L72.76 4.49809C72.3642 4.59199 72.0968 4.65291 71.6903 4.76449C71.2389 4.88838 71.0426 4.92578 70.9314 5.34131C71.2866 5.57883 71.4305 5.56036 71.8959 5.7125C73.2202 6.14507 76.0467 6.87277 75.8309 8.48471C75.613 10.1105 73.8752 10.029 72.6607 9.05617C72.2195 8.7025 71.9397 8.17081 71.3427 8.01158C70.9088 8.65831 71.3427 8.51107 71.3427 10.1681C71.3427 10.9077 71.0135 11.3081 70.5531 11.6387C70.3069 11.8151 70.1313 11.9169 69.8576 12.0736C69.4888 12.284 69.3966 12.2236 69.2871 12.6331C69.9331 12.9426 73.0173 13.1463 74.1175 13.1463C77.5589 13.1463 81.8863 12.4571 83.3677 9.14123C85.0079 5.47072 82.1096 3.06038 83.4083 1.17099C83.6615 0.802488 83.8793 0.798385 84.0876 0.514472C83.7856 0.369911 81.6137 0.103516 81.1067 0.103516C80.2589 0.103516 79.6173 0.703694 79.4041 1.38089C79.1191 2.28739 79.4624 3.10709 79.4624 4.10907L79.4621 4.10923Z" fill="white"/>
<path fill-rule="evenodd" clip-rule="evenodd" d="M29.6145 30.1933L29.2384 29.542C28.7915 28.641 27.7864 27.2734 26.9014 26.7419C25.7736 26.0645 24.3387 25.924 23.8676 27.1212C23.5697 27.8786 23.6533 28.4674 23.6533 29.4746C24.1933 29.2792 23.7803 28.8582 24.9894 28.8582C26.3649 28.8582 28.0299 30.1842 28.5863 31.0148C28.1352 31.0051 27.5626 30.8591 27.0758 30.7785C25.567 30.5288 23.9351 30.3945 22.9312 31.7314C22.3893 32.4528 21.6205 33.8436 21.9766 35.0522C22.1121 35.5125 21.8654 35.1756 22.214 35.4311C22.289 35.11 22.3768 34.9816 22.5398 34.7296C23.6091 33.076 25.8998 32.1447 27.9699 32.1447C28.5386 32.1447 28.0572 32.5042 27.9156 32.6995C27.7898 32.8727 27.5793 33.3052 27.4951 33.5192C27.3247 33.9532 27.1597 35.1979 27.1478 35.7393C26.8752 35.8703 27.0381 35.8332 26.6339 35.8421C26.6339 37.1418 27.3535 37.4722 27.3535 39.2312C27.3535 39.5721 27.1478 39.4453 27.1478 39.6421C27.1478 41.1008 28.3813 41.4897 28.3813 42.7231C28.3813 43.1922 27.9723 43.2173 29.2631 44.2039C29.9599 44.7365 30.2298 45.5986 30.5397 45.5986C31.2294 45.5986 32.2704 44.7717 31.8013 44.1434C31.5158 43.7602 30.7112 42.9371 30.6425 42.1066C29.5649 42.0171 30.093 40.2052 29.6417 39.4094C29.21 38.6484 28.9613 39.6748 29.2127 36.8775C29.2413 36.5582 29.3566 36.3681 29.301 36.0591C29.2454 35.7501 29.2702 35.9184 29.1175 35.7243L29.0194 35.6151C28.8531 35.4029 28.8951 35.6588 28.8951 35.4313C28.8951 34.4443 29.9466 33.6052 30.0256 32.6586C31.0516 33.2008 32.081 34.575 32.081 36.1504C32.081 36.8221 31.8886 37.2092 31.8758 37.7935C33.0086 37.5298 34.8745 36.2732 35.0187 34.5759C35.1028 33.582 34.6128 32.9441 33.9777 32.5096C33.5524 32.2187 32.1376 31.7346 31.4646 31.7346L31.7339 31.5925C31.8332 31.5512 32.0194 31.4947 32.1213 31.4661C32.4462 31.3752 32.5461 31.3634 32.887 31.307C34.0815 31.1082 35.5302 30.9794 36.6009 31.5319C37.1039 31.7915 37.6145 32.2126 37.6313 32.9671C38.5691 32.7167 39.4242 28.7561 35.6787 28.7561C33.2799 28.7561 31.5023 30.4304 30.8478 30.6051C31.8106 28.787 31.7921 28.4483 33.3147 28.4483C33.2944 27.532 31.1392 24.6306 30.0368 26.3022C29.4976 27.1194 29.615 29.1124 29.615 30.1941L29.6145 30.1933Z" fill="white"/>
<path fill-rule="evenodd" clip-rule="evenodd" d="M20.6729 61.7233C20.6729 63.914 21.5617 65.4481 23.3437 66.3463C25.8255 67.5968 28.682 66.5721 28.1815 63.7742C27.8462 61.9007 25.6012 60.5288 24.6195 61.3534C23.6477 62.1704 24.9009 63.5719 26.634 63.5719C26.8812 63.5719 27.2509 63.3519 27.2509 63.6746C27.2509 64.8369 25.0655 65.2887 23.6261 64.0101C21.7373 62.3322 22.7822 59.1424 26.573 60.5519C28.794 61.3782 29.9584 65.706 28.0464 67.2428C26.6983 68.3267 24.5246 68.0272 23.0212 67.4901C22.2808 67.2256 21.6738 66.6797 21.1594 66.1668C20.2043 65.2149 19.4396 63.4066 19.4396 61.518C19.4396 60.7079 19.6302 60.2277 19.6452 59.5669C18.9118 59.7375 18.4926 60.1829 18.1008 60.6939C17.6652 61.2619 17.4477 61.6694 17.2571 62.5208C16.7376 64.841 17.732 66.1758 18.5452 67.5466C18.7737 67.9315 18.8549 67.9726 19.1567 68.2707C20.0897 69.193 20.9585 69.9829 22.3022 70.468C24.0099 71.0844 26.6237 71.2981 28.2769 70.3484C28.482 70.2306 28.9607 69.9229 29.1161 69.7491C29.2446 69.6058 29.2657 69.5321 29.4353 69.3491C30.8779 67.7895 30.8269 64.993 30.1974 63.0919C29.4004 60.6866 27.3567 58.5391 24.5784 58.5391C23.2925 58.5391 22.6508 58.6683 21.7771 59.4374C21.2355 59.914 20.6729 60.7408 20.6729 61.7232V61.7233Z" fill="white"/>
<path fill-rule="evenodd" clip-rule="evenodd" d="M73.0899 57.7171C73.0899 57.1483 72.9787 56.2796 73.9126 56.2796C75.6922 56.2796 77.8575 59.1551 74.9403 59.1551C74.1389 59.1551 73.0899 58.4898 73.0899 57.7171ZM64.4565 62.6469C65.3582 62.6469 66.5778 61.8082 67.2027 61.283L68.594 60.0025C69.0773 59.5143 71.1373 57.1015 71.1373 58.6413C71.1373 59.2749 70.8412 59.5792 70.4308 59.9898C69.6489 60.772 69.6457 60.6393 68.9085 61.2412C68.4076 61.6494 66.4094 62.9191 66.4094 63.6739C66.4094 64.4376 68.3737 65.9334 69.6983 65.9334C72.189 65.9334 74.1607 61.1062 74.8376 61.1062C75.8238 61.1062 74.8684 63.3869 73.8341 64.4168C72.9847 65.2627 74.0111 64.4804 72.4294 65.6837C71.2869 66.5536 70.5698 66.4656 70.2405 66.998C69.8351 67.6547 70.8637 68.9112 71.5486 68.9112C71.9496 68.9112 72.3975 68.5175 72.7012 68.3174C73.5506 67.7556 74.8229 66.4354 75.4989 65.5673C75.7919 65.191 76.0466 64.9174 76.2973 64.5159C76.5588 64.0967 76.7622 63.8078 77.0164 63.3867C78.0253 61.7151 78.1753 59.8151 77.5402 57.9947C77.1846 56.9754 76.2101 56.0274 75.2839 55.5246C74.134 54.901 71.8199 54.8482 70.6628 55.4973C69.4453 56.1801 68.6673 57.9639 67.3408 58.7505C66.4789 59.2617 66.1874 59.5363 65.0959 59.7937C64.1635 60.0137 63.3386 60.0156 63.5271 61.3062C63.595 61.771 63.9922 62.6467 64.4564 62.6467L64.4565 62.6469Z" fill="white"/>
<path fill-rule="evenodd" clip-rule="evenodd" d="M33.314 23.4155C32.9886 23.1774 32.9032 22.6332 32.9032 22.0804C32.9032 21.8784 33.2129 21.5257 33.3241 21.3716C33.5285 21.0882 33.5447 20.9616 34.0337 20.9507C34.092 21.6552 34.1511 21.5424 33.9922 22.3471C33.8897 22.8666 33.7777 23.2916 33.3138 23.4157L33.314 23.4155ZM34.8558 25.264C34.2836 24.072 35.0221 21.9163 35.5469 20.8197C35.8377 20.2121 35.9282 20.0217 36.2949 19.9237C36.609 21.2717 36.1444 24.5827 34.8558 25.264V25.264ZM30.0251 22.5939C29.8109 21.675 29.927 21.1808 30.2416 20.2428C30.4337 19.6713 30.5021 19.2542 31.1556 19.1021C31.8286 19.5523 31.6695 20.1669 31.6695 21.2586C31.6695 21.4695 30.7732 22.577 30.0249 22.5938L30.0251 22.5939ZM27.6611 23.621C27.2004 22.751 27.9648 20.8732 28.1483 19.9999C28.3018 19.2695 28.4722 18.9332 28.7175 18.3089C29.0944 17.3497 29.2513 17.0609 29.8195 17.0482C29.8195 18.6202 29.258 21.0069 28.6217 22.4241C28.3547 23.0186 28.3432 23.4621 27.6611 23.621V23.621ZM24.8863 18.7938C27.7233 16.8956 26.8058 20.6468 26.4295 21.4662C25.8862 22.6492 24.6383 22.8128 24.3276 21.406L23.9614 20.0264C22.8378 20.0515 22.9337 21.2667 22.9337 22.2859C22.9337 23.6426 24.3643 25.264 26.0169 25.264C28.8761 25.264 29.4227 24.7757 31.4333 23.0768C31.6719 22.8748 31.7231 22.7647 31.9778 22.5939C32.0096 24.0099 33.4222 27.2156 35.5752 27.2156C36.5765 27.2156 36.8742 27.1102 37.6086 26.3716C38.0253 25.9523 38.289 25.3826 38.3505 24.6479C36.8805 25.4248 37.0143 24.4491 37.0143 23.0044C37.0143 22.3506 37.2098 21.4224 37.9392 21.3615C38.4792 22.3813 37.9858 22.9233 38.4531 23.621C39.4897 23.5347 39.2717 20.9034 39.0749 20.1238C38.8725 19.3227 38.7273 19.2234 38.2229 18.7159C36.5836 17.0656 34.5925 18.3411 33.2893 19.7963C33.1486 19.9533 33.0581 20.0834 32.9315 20.2601C32.8348 20.396 32.8604 20.3651 32.7652 20.5049C32.6301 20.7023 32.744 20.574 32.5947 20.7456C32.6301 20.3237 32.6976 20.5158 32.6976 20.1291C32.6976 18.928 32.415 17.7197 31.8925 17.0306C31.7531 16.8472 31.6177 16.7215 31.4663 16.5323C30.3463 15.1319 27.6165 15.4136 26.2513 16.5631C25.6908 17.0354 24.9608 17.8965 24.8863 18.7938V18.7938Z" fill="white"/>
<path fill-rule="evenodd" clip-rule="evenodd" d="M53.3562 37.9991C53.3562 39.4286 54.0796 40.2207 55.276 40.8053C56.0181 41.1686 57.5702 42.044 57.5702 42.9288C57.5702 43.4831 57.5621 43.5797 56.8509 43.9559C56.5006 43.7702 56.603 43.8377 56.3095 43.5723C56.0872 43.3714 56.0117 43.3474 55.7984 43.1591C55.1166 42.5562 55.3951 42.4153 54.2811 42.4153C53.0884 42.4153 53.7724 45.336 53.5579 46.3142C53.3351 47.3296 52.9718 47.3081 52.5342 47.9612C54.4402 47.9612 55.7296 46.9709 56.7025 45.6564C57.104 45.114 57.2156 44.8804 58.0843 44.8804C58.3239 45.9083 57.2042 46.3126 57.3289 47.4057C57.5151 49.0362 60.6539 49.6673 60.6539 47.9612C60.6539 47.3624 58.5499 45.0857 59.8314 45.0857C60.4805 45.0857 61.3252 45.0212 61.8874 45.2907C61.8146 46.1621 59.9633 47.6468 63.78 46.6686C65.5653 46.2116 66.5407 46.0323 65.873 45.1081C65.4935 44.5831 65.0111 44.1933 64.5289 43.7804C64.3359 43.6157 61.9896 41.8218 61.9896 42.6208C61.9896 44.0489 62.5004 44.0587 60.8591 44.0587C59.9386 44.0587 58.2454 42.3045 61.6167 41.1181C62.377 40.8504 63.7561 40.4439 63.84 39.4371C63.2425 39.4239 62.5039 39.1752 62.0582 38.9583C61.089 38.4872 58.9409 37.4172 59.0009 39.7436C59.0265 40.7282 59.4948 41.6966 58.4957 41.6966C57.7433 41.6966 58.0592 40.1383 58.0874 39.5382C58.2481 36.1486 56.4888 37.255 54.9186 35.7196C54.6591 35.4657 54.5245 35.1605 54.4869 34.7129C53.9645 35.0951 53.3564 37.0027 53.3564 37.9993L53.3562 37.9991Z" fill="white"/>
<path fill-rule="evenodd" clip-rule="evenodd" d="M36.8087 45.2915C36.8087 46.2837 35.3803 45.6425 34.8965 45.3537C34.477 45.1028 34.367 44.8987 34.0339 44.6756C33.3397 45.3335 32.789 46.1412 32.5499 47.3009C31.7697 51.0763 35.6035 53.7133 38.4533 53.7133C39.1095 53.7133 39.3545 53.5523 39.8919 53.5078V53.3023C38.1215 53.3023 36.1485 51.1791 38.3077 47.9192C39.2551 46.4883 40.2595 44.9502 38.4989 43.6027C35.2042 41.0813 39.2755 40.6942 39.2755 37.6919C39.2755 36.0154 37.2876 34.3595 36.6031 34.3027C36.7997 35.1472 37.6342 36.2292 35.7971 37.7081C34.8769 38.4489 33.6428 39.1791 32.9782 39.9239C30.754 42.4156 36.8087 44.3413 36.8087 45.2915V45.2915Z" fill="white"/>
<path fill-rule="evenodd" clip-rule="evenodd" d="M43.4895 55.3551C43.4895 57.7249 40.5338 59.6774 40.3951 58.234C40.3917 58.193 40.509 56.8217 40.5302 56.7116C40.6895 55.8892 41.2398 56.2935 42.5033 55.2934C42.7658 55.0862 43.4895 54.654 43.4895 55.3551ZM38.9672 50.2204C38.9672 52.0874 41.6397 52.4723 41.6397 53.3015C41.6397 53.9594 41.7438 54.1482 40.6508 54.6754C39.6732 55.1476 38.6191 55.0476 37.5281 55.0476C36.2355 55.0476 34.4674 54.2754 33.7546 53.4778C33.3606 53.0368 33.4211 52.8537 32.6979 52.6854C32.4829 52.8719 32.3258 52.9407 32.1789 53.2964C31.7067 54.44 32.1934 55.9219 32.6285 56.8626C33.7084 59.1978 36.0203 60.6962 38.6589 60.6962C39.5949 60.6962 40.6711 60.5538 41.3304 60.2843C44.028 59.1822 45.6957 56.5361 45.0783 53.5628C44.4587 50.5802 41.203 51.3404 40.3283 49.066C40.1434 48.5859 40.2457 48.2198 39.8923 47.9609C39.8231 48.2212 38.9674 49.6343 38.9674 50.2204H38.9672Z" fill="white"/>
<path fill-rule="evenodd" clip-rule="evenodd" d="M63.8393 41.4919C63.8787 41.9623 64.1721 41.984 64.8464 42.4367C65.6637 42.9866 67.7448 43.9532 67.7448 45.497C67.7448 47.7604 64.2825 48.3932 62.6062 48.7835C62.6303 49.0766 62.4353 49.1538 63.453 49.3747C63.9949 49.4924 64.1413 49.4872 64.5589 49.7075C64.3135 50.1715 62.9685 52.1906 64.204 51.5278C64.3038 51.4745 64.5491 51.3083 64.656 51.2425C64.9711 51.0476 65.1684 50.8492 65.6896 50.8372C65.7651 51.1601 65.8316 51.2103 65.9368 51.6173C66.0393 52.0132 66.1326 52.1755 66.2038 52.4807C66.6238 52.4458 66.6186 52.3841 66.6988 52.0513C66.9 51.2183 66.7824 50.2812 66.9654 49.4416C67.0657 48.9814 67.7971 47.2431 68.6702 47.2431C69.5352 47.2431 69.6979 48.327 69.6979 49.2971C69.6979 51.0035 67.7308 53.786 69.0559 53.0949C69.3271 52.954 69.6431 52.576 70.212 52.2752C71.3439 53.0328 71.1331 53.7259 71.9589 53.9187C72.1726 53.0032 71.8566 52.5539 71.8566 51.5565C72.4351 51.4216 73.1275 51.3832 73.7065 51.2485C73.6057 50.8718 73.5383 50.9605 73.1752 50.7525C72.9216 50.6065 72.6929 50.4662 72.4661 50.3314C71.949 50.0227 71.6295 49.7577 71.2114 49.3251C70.6961 48.7916 69.3027 46.5242 70.8289 46.5242C72.9194 46.5242 73.5464 49.6788 74.4258 49.9133C74.7908 49.1539 74.3394 48.0648 74.9399 48.0648C75.4645 48.0648 76.303 48.1543 76.6868 48.0648C76.6445 47.5537 76.3785 47.619 75.9473 47.3662C75.51 47.11 75.3445 46.9129 75.0428 46.8323C75.0428 46.1494 75.3097 45.8776 75.6327 45.4689C75.7567 45.3119 75.9751 45.0759 75.9355 44.8832C75.7714 44.0833 75.0679 45.7025 71.6511 45.7025C70.2437 45.7025 70.3372 44.2206 72.3554 43.6335C73.1324 43.4073 74.225 43.4334 74.6316 42.827C73.6155 42.29 72.7431 42.6722 73.0212 41.849C73.2136 41.279 73.7348 40.5729 73.5034 40.3424C73.1689 40.0081 72.5212 41.1837 71.7538 41.1837C71.2525 41.1837 71.0609 40.2423 70.6275 40.0592C69.5389 39.6003 71.1455 43.182 69.9166 44.4833C69.315 45.1206 68.4649 44.6795 68.4649 43.5459C68.4649 41.5418 69.4357 39.5406 68.67 39.5406C68.185 39.5406 67.8876 40.5985 67.0257 40.6703C66.9815 40.5051 66.28 39.2813 65.6896 39.2324C65.6896 39.6888 65.8649 40.9305 65.5983 41.1947C65.4871 41.3049 64.2272 41.3061 63.8397 41.4919H63.8393Z" fill="white"/>
<path fill-rule="evenodd" clip-rule="evenodd" d="M18.8219 46.7284C18.0295 46.7284 18.2579 46.2707 17.5886 46.2152C16.4192 48.6504 21.4127 50.5779 21.3919 44.9826C21.3871 43.7461 21.2418 41.2337 21.6973 40.1529C21.7084 40.1264 21.8068 39.9284 21.8355 39.8804C21.9557 39.6839 21.8987 39.7685 22.0082 39.6424C22.0082 43.7992 23.76 45.4373 23.3541 47.6579C23.1561 48.7423 22.0404 48.8782 21.803 47.8582C20.8829 48.4737 21.5969 50.3232 22.9335 50.3232C23.5627 50.3232 24.0328 50.2359 24.493 49.7252C26.2126 47.8194 23.0359 42.7519 23.0359 40.3613C23.0359 39.5671 22.9894 39.2174 23.1823 38.4531C23.2767 38.0788 23.3503 37.8173 23.5498 37.5879C23.5498 40.9106 25.0382 43.0031 26.2572 45.2555L27.4224 47.1719C28.0055 48.221 28.3806 48.5622 28.3806 49.8091C28.3806 50.7999 26.5302 51.1916 26.5302 49.5014C25.0586 49.6236 25.2069 52.9929 27.9694 52.9929C29.4988 52.9929 30.4362 51.8575 30.4362 50.2203C30.4362 48.807 29.4305 47.4517 28.7095 46.3998L27.3106 44.4086C26.1769 42.7804 24.5778 40.1111 24.5778 38.1018C24.5778 35.2903 24.7812 36.1761 25.1947 34.4043C24.6108 34.5601 23.1137 36.0134 22.6486 36.482C22.1464 36.9887 21.0594 38.6897 20.8211 39.3803C19.4571 43.329 20.9566 46.7284 18.8221 46.7284H18.8219Z" fill="white"/>
<path fill-rule="evenodd" clip-rule="evenodd" d="M61.4755 74.0476L61.832 72.4509C62.0078 71.3732 61.4411 71.2589 62.4952 71.269C64.5252 71.2889 64.9083 70.4724 65.792 70.453C65.8128 71.3828 65.943 72.2278 64.5943 73.0558C63.59 73.6723 62.7485 74.0188 61.4754 74.0476H61.4755ZM62.1948 69.6314C59.1109 69.6314 59.2483 68.2481 57.8733 70.5508C57.2299 71.6281 56.3464 73.2927 56.9492 74.7702C57.3502 75.7526 58.2637 76.2041 59.5228 76.2041C62.1348 76.2041 64.0218 75.514 65.6862 74.5576C66.0578 74.3446 66.4774 74.0012 66.8221 73.7409C67.2753 73.3988 67.4077 73.177 67.7757 72.7427C68.4351 71.965 68.9782 71.3189 68.9782 69.9391C68.9782 68.4583 67.8932 67.5611 67.3006 67.7704C67.154 67.8225 66.7022 68.2184 66.4705 68.3578C65.3877 69.0089 63.8789 69.6312 62.195 69.6312L62.1948 69.6314Z" fill="white"/>
<path fill-rule="evenodd" clip-rule="evenodd" d="M18.6169 0.617474C18.7779 1.2186 19.304 0.89034 19.732 1.35701C20.495 2.18854 19.071 2.6702 18.755 2.8094C18.5176 2.91387 18.3229 2.99594 18.1032 3.08195C17.6169 3.27243 17.1146 3.37233 16.9727 3.90386C17.823 4.47263 18.6368 3.80112 19.9531 3.80112C20.9104 3.80112 20.7951 4.45464 20.3525 5.02168C19.8256 5.69714 19.1465 6.38727 19.1312 7.0875C19.5344 7.18141 19.4982 7.19372 19.8482 6.9895C20.5861 6.55913 22.026 4.74424 22.7039 6.18747C23.0596 6.945 22.6193 8.93586 23.3451 8.93586C24.3428 8.93586 23.9263 3.41336 26.4448 6.86593C26.8507 7.42287 26.9417 7.90879 27.8675 7.90879C28.2368 6.51763 26.7432 6.15465 27.1483 4.41692C28.4956 3.77098 29.2441 4.99359 30.3344 4.41692C30.0466 3.18342 27.7647 3.16638 27.7647 1.74681C27.7647 1.40861 28.1553 1.23485 28.3936 1.14222C28.7845 0.99008 28.9955 1.01123 29.101 0.617C28.7899 0.192472 26.9431 0.217091 26.6901 0.257177C25.3364 0.471177 25.4683 1.01375 24.9087 1.46006C24.3319 1.92041 23.41 1.88869 22.8745 1.39567C22.2682 0.837787 22.4681 -0.104066 19.5224 0.288267C19.0326 0.353446 18.8445 0.307205 18.6174 0.616685L18.6169 0.617474Z" fill="white"/>
<path fill-rule="evenodd" clip-rule="evenodd" d="M66.1011 17.4594C66.8442 17.4594 67.3848 17.7241 68.0317 17.8925C69.2756 18.2171 69.9663 18.2187 71.069 18.3506C71.5204 18.4047 71.9789 18.2805 71.7456 18.6628C71.2955 19.3995 68.1045 19.8316 66.5332 18.2602C66.0553 17.7826 66.3375 17.989 66.1011 17.4594V17.4594ZM63.1202 15.7138C62.7681 17.2244 63.9741 18.8687 64.944 19.8481C66.8446 21.7662 69.8895 22.0932 72.3409 21.1272C73.4722 20.6819 74.2202 20.3454 74.2202 19C74.2202 18.2924 73.805 17.1807 73.5216 16.7199C73.2152 16.2224 72.7604 15.0975 72.0618 15.0975C71.3571 15.0975 70.9621 15.7136 69.6978 15.7136C68.9037 15.7136 69.4217 14.584 67.9508 14.584C67.6596 14.584 67.1979 14.8445 66.8949 14.9662C64.838 15.7908 64.6169 15.3653 63.12 15.7136L63.1202 15.7138Z" fill="white"/>
<path fill-rule="evenodd" clip-rule="evenodd" d="M42.8729 63.2643C42.4638 63.1554 42.491 62.9327 41.9827 62.7156C39.3382 61.5873 38.682 64.9485 38.046 65.8359C36.6913 67.725 34.2986 66.286 33.8282 66.7562C33.4165 67.1676 34.4592 69.6321 37.8364 69.6321C40.4912 69.6321 43.7978 68.0364 43.7978 65.5239C43.7978 64.9132 43.6044 64.7508 43.5921 64.1888C44.7279 63.6445 44.6326 64.5998 45.3391 64.5998C46.1938 64.5998 46.5658 63.2015 45.6475 62.9562C46.5776 61.5686 45.5637 61.1077 45.1339 61.1077C44.7795 61.1077 44.7357 61.1836 44.4142 61.2105C44.3131 59.9956 42.364 60.0953 42.7836 61.5979C43.1211 62.8062 43.126 62.1765 42.8727 63.2645L42.8729 63.2643Z" fill="white"/>
<path fill-rule="evenodd" clip-rule="evenodd" d="M78.434 50.4261C75.3296 48.9379 73.7731 52.1353 75.3772 53.5829C76.7231 54.7978 79.4017 54.5301 79.6669 57.7177C80.5552 57.1234 81.6489 55.4442 82.0467 54.4473C82.5874 53.0954 83.0812 51.6402 82.6919 49.7661C81.8561 45.7443 77.9555 46.1407 78.1205 49.2982C78.1523 49.9053 78.3257 49.9632 78.4339 50.4261H78.434Z" fill="white"/>
<path fill-rule="evenodd" clip-rule="evenodd" d="M18.9248 54.3285C18.9248 52.9695 20.9802 52.9646 20.9802 54.2259C20.9802 56.0288 18.9248 55.4755 18.9248 54.3285V54.3285ZM17.3833 52.2745L17.4858 53.1986C15.7097 53.1986 14.6805 55.6334 16.5597 56.7947C17.4902 57.3696 18.1354 56.9291 18.7193 56.7932C18.816 57.9499 20.6773 58.7489 21.9234 57.6328C22.5443 57.0768 22.7216 56.1203 22.3167 55.3552C23.9131 55.32 24.9582 53.4565 23.7291 52.0953C22.9724 51.2575 22.0456 51.4093 21.186 51.8634C20.6913 49.7424 17.3833 50.1001 17.3833 52.2743V52.2745Z" fill="white"/>
<path fill-rule="evenodd" clip-rule="evenodd" d="M11.731 24.4434C11.731 23.816 11.7475 23.1933 12.4503 23.0053C12.6727 23.4684 12.7062 24.73 13.8668 25.4927C14.1524 25.6802 14.3762 25.8943 14.7115 25.984C13.8255 27.306 11.731 25.8842 11.731 24.4434V24.4434ZM14.6088 22.2868C14.6088 21.7352 14.9009 21.7736 15.3279 21.7736C16.0028 21.7736 15.9365 22.2754 16.1809 22.7697C16.4183 23.2495 16.7934 23.407 17.0755 23.8276C16.6063 25.8396 14.6087 23.8773 14.6087 22.2869L14.6088 22.2868ZM9.36719 26.8056C9.36719 27.7228 10.0771 27.4496 10.8971 27.5363C12.1831 27.6721 12.8582 28.4211 15.1547 27.4537C16.8064 26.7577 18.4118 24.7225 18.4118 22.9031C18.4118 22.56 17.8611 22.3886 17.6149 22.0554C17.3721 21.727 17.3487 21.204 17.1783 20.8486C14.1396 20.1414 10.8733 21.3345 9.9435 24.3004C9.73787 24.9571 9.72239 25.6669 9.57551 26.192C9.50665 26.4377 9.36719 26.6342 9.36719 26.8054V26.8056Z" fill="white"/>
<path fill-rule="evenodd" clip-rule="evenodd" d="M77.3037 21.5674C77.3037 23.0682 78.5751 24.5168 79.4867 25.5477L81.0334 27.0833C81.3856 27.3836 82.5073 28.1402 83.0588 28.1402C84.1408 28.1402 84.3722 19.96 83.8877 18.9931C83.7398 18.6976 83.6105 18.5785 83.2644 18.4863C82.6815 19.5874 82.0734 20.1448 80.9345 20.7794C80.1521 21.2155 78.3162 21.7816 77.3037 21.5674V21.5674Z" fill="white"/>
<path fill-rule="evenodd" clip-rule="evenodd" d="M33.1085 62.2366C33.1085 60.8464 35.781 62.0758 35.781 63.1608C35.781 64.224 33.1085 63.0546 33.1085 62.2366ZM24.9894 55.7666C24.9894 57.1093 27.1729 57.0422 28.2456 57.545C29.2834 58.0312 30.4038 58.8047 30.6859 60.0358C30.9868 61.3493 31.1487 62.9147 31.9333 63.7194C33.9761 65.8149 37.22 65.5075 37.22 64.0854C37.22 61.9874 35.1189 60.2893 33.5348 60.4031C32.7388 60.4604 32.1901 60.5958 31.8588 59.7884C31.2414 58.283 31.3309 56.4417 29.4692 55.09C27.7601 53.8492 24.9893 54.445 24.9893 55.7666H24.9894Z" fill="white"/>
<path fill-rule="evenodd" clip-rule="evenodd" d="M58.1873 21.7722L57.1621 21.6505C57.2973 21.1554 57.6732 21.2007 57.6732 20.437C57.6732 19.8056 56.5365 20.2999 55.5529 20.091C54.7419 19.9185 54.6349 19.3585 53.9736 19.2047C53.1735 20.715 53.038 22.0965 53.5981 23.7907C53.8023 24.4101 54.0596 25.0425 54.7957 25.0587C55.3336 22.7518 56.2713 25.3396 59.7191 24.1244C61.5787 23.4687 62.6563 21.3636 62.1727 19.1248C62.0964 18.773 61.9609 18.4934 61.8876 18.1777H61.682C61.6606 19.1297 61.3369 20.1089 60.734 20.7224C60.1316 21.3361 58.9022 21.87 58.1874 21.7723L58.1873 21.7722Z" fill="white"/>
<path fill-rule="evenodd" clip-rule="evenodd" d="M60.7566 54.3295C60.4641 54.3295 60.0369 54.124 60.0369 53.919C60.0369 53.5282 60.2364 52.2976 60.3453 52.07C61.6013 52.3628 61.6973 54.3295 60.7566 54.3295ZM59.0092 51.2486C59.0092 52.5629 57.8741 53.9515 58.0034 55.2251C58.307 58.2156 61.3378 58.119 62.427 57.0258C64.0125 55.4344 63.3522 51.9911 60.3122 50.3574C59.8113 50.0883 59.2175 49.8105 58.4954 49.8105C58.6943 50.1868 59.009 50.6998 59.009 51.2486H59.0092Z" fill="white"/>
<path fill-rule="evenodd" clip-rule="evenodd" d="M17.7949 28.6542C17.7949 30.3509 18.7707 31.7356 20.3644 31.7356C22.0735 31.7356 22.7527 29.7932 22.3233 28.238C22.0016 27.0746 20.2449 25.4707 19.2339 25.4707C18.6277 25.4707 17.7949 27.8268 17.7949 28.6543V28.6542Z" fill="white"/>
<path fill-rule="evenodd" clip-rule="evenodd" d="M54.3838 17.0489L54.434 17.7172C54.5449 18.2019 54.3929 17.9593 54.6922 18.1785C54.7491 17.495 55.7534 16.535 56.7478 16.535C57.5959 16.535 57.6409 16.5487 58.3924 16.946C58.0716 17.4243 57.3611 17.9615 58.1855 18.4866C58.9776 18.9911 59.057 18.9417 59.5229 19.8214C59.9099 19.7182 60.1359 19.492 60.3486 19.2089C61.6552 17.4728 61.6911 14.9947 61.1672 14.9947C60.7559 14.9947 60.6566 15.2064 60.2423 15.3025C59.4321 14.7605 58.5483 14.2754 57.4675 14.2754C56.7033 14.2754 55.7492 14.6281 55.3309 15.0162C54.7837 15.5233 54.3839 16.3461 54.3839 17.0486L54.3838 17.0489Z" fill="white"/>
<path fill-rule="evenodd" clip-rule="evenodd" d="M59.7285 66.2413V67.0629C59.7285 68.3535 61.9933 68.495 63.1248 68.409C64.3149 68.3191 66.2041 68.0413 66.2041 66.5492V66.0359C66.2041 63.9657 59.7285 64.1598 59.7285 66.2414V66.2413Z" fill="white"/>
<path fill-rule="evenodd" clip-rule="evenodd" d="M81.9293 14.6867C81.9293 16.1061 80.6178 17.1843 79.3928 17.6978C77.523 18.4815 75.5566 17.7273 75.5566 19.3083C75.5566 20.2106 76.7799 20.5818 77.6719 20.4984C78.8691 20.3869 79.4658 20.1986 80.354 19.788C83.4527 18.3577 84.619 14.539 81.7238 13.8652C81.7658 14.3696 81.9294 14.2413 81.9294 14.6867H81.9293Z" fill="white"/>
<path fill-rule="evenodd" clip-rule="evenodd" d="M11.8341 15.7132V16.2268C11.8341 18.2618 14.0429 19.205 16.1507 19.205C16.4924 17.7403 16.6506 17.1664 16.0359 15.5196C15.8153 14.9283 15.3775 14.4507 14.8211 14.1658C13.329 13.4034 11.834 14.4411 11.834 15.7132H11.8341Z" fill="white"/>
<path fill-rule="evenodd" clip-rule="evenodd" d="M63.9424 56.2798C63.9424 58.4422 67.8479 58.9978 67.8479 55.6633C67.8479 54.7616 67.2246 54.0632 66.6771 53.6496C66.0752 53.1949 65.2664 52.8906 64.2504 52.8906C65.0187 54.341 63.9425 54.8753 63.9425 56.2798H63.9424Z" fill="white"/>
<path fill-rule="evenodd" clip-rule="evenodd" d="M39.1726 14.995C39.1726 13.9425 38.918 13.9927 38.2229 13.3762C37.13 12.4074 31.7108 7.88515 34.6707 12.6126C35.2466 13.5328 36.9401 15.9845 37.6711 16.498C38.6369 17.1768 39.1726 15.9779 39.1726 14.995V14.995Z" fill="white"/>
<path fill-rule="evenodd" clip-rule="evenodd" d="M60.2422 35.3296C60.2422 36.7266 60.7334 37.6918 62.4006 37.6918C65.0381 37.6918 64.8897 33.584 62.2977 33.584C61.2086 33.584 60.2422 34.588 60.2422 35.3296V35.3296Z" fill="white"/>
<path fill-rule="evenodd" clip-rule="evenodd" d="M33.5195 88.3232C33.5195 89.5327 33.7411 90.3772 35.267 90.3772C37.2382 90.3772 37.8636 87.1113 36.2811 86.3852C34.6153 85.6206 33.5195 87.2961 33.5195 88.3232Z" fill="white"/>
<path fill-rule="evenodd" clip-rule="evenodd" d="M76.5837 14.7882C75.711 14.7882 75.669 14.8552 74.9395 14.6855C75.0295 15.0234 75.1107 14.9713 75.2277 15.3218C75.6985 16.7338 75.2683 17.1504 77.098 17.1504C77.7819 17.1504 78.904 16.706 79.3762 16.4489C81.2497 15.4287 81.0933 13.9668 79.8726 13.9668C78.6949 13.9668 77.9183 14.7884 76.5837 14.7884V14.7882Z" fill="white"/>
<path fill-rule="evenodd" clip-rule="evenodd" d="M60.4482 27.0106C60.4482 29.4972 64.2451 29.6241 64.3174 27.1018C64.3499 25.9774 63.4255 25.1621 62.1953 25.1621C61.3908 25.1621 60.4482 26.1674 60.4482 27.0106Z" fill="white"/>
<path fill-rule="evenodd" clip-rule="evenodd" d="M57.2617 29.7825C57.2617 30.487 57.26 30.8694 57.796 31.4052C58.7233 32.3315 60.8586 32.1407 60.8586 29.7825C60.8586 29.0164 59.9787 28.2422 59.0088 28.2422C58.1795 28.2422 57.2617 28.9959 57.2617 29.7825Z" fill="white"/>
<path fill-rule="evenodd" clip-rule="evenodd" d="M53.5615 31.9396C53.5615 34.1809 56.9532 34.1784 56.9532 31.9396C56.9532 29.611 53.5615 29.7005 53.5615 31.9396Z" fill="white"/>
<path fill-rule="evenodd" clip-rule="evenodd" d="M8.75048 17.972C8.75048 18.483 8.71021 18.8666 8.95738 19.3057L9.42914 19.8613C10.7155 21.0549 12.6966 20.3362 12.8619 19.7176C12.1626 19.6598 11.355 18.9507 10.9935 18.5032C10.4317 17.8074 10.3951 17.1455 10.3951 15.918C9.62767 15.9819 8.75048 17.1036 8.75048 17.972V17.972Z" fill="white"/>
<path fill-rule="evenodd" clip-rule="evenodd" d="M54.8985 55.4589C54.8985 56.097 54.6287 56.7751 54.7263 57.2659C55.0378 58.834 57.468 58.7171 57.468 56.897C57.468 56.2651 57.0753 55.645 56.5903 55.309C56.0276 54.9197 55.5019 54.7402 54.5898 54.7402C54.6653 54.8823 54.8983 55.2893 54.8983 55.4589H54.8985Z" fill="white"/>
<path fill-rule="evenodd" clip-rule="evenodd" d="M14.6084 30.2968C14.6084 31.9522 16.6197 32.4517 17.6917 31.7349C17.3748 31.2616 16.5611 30.5765 16.5611 29.1672C16.5611 28.6075 16.7262 28.3194 16.7668 27.832C15.7536 27.9161 14.6086 29.1823 14.6086 30.297L14.6084 30.2968Z" fill="white"/>
<path fill-rule="evenodd" clip-rule="evenodd" d="M14.0953 32.1445C12.7661 32.2551 10.8527 33.0428 9.59947 32.0153C9.17683 31.6688 8.98478 31.2066 8.54492 30.9121C8.54492 37.0585 13.703 32.73 14.0953 32.1445V32.1445Z" fill="white"/>
<path fill-rule="evenodd" clip-rule="evenodd" d="M8.85254 9.44954C8.85254 11.1617 10.5922 9.64886 11.1147 9.24501C11.5749 8.88913 12.33 8.26875 12.3472 7.49797C12.15 7.45205 11.7606 7.29297 11.628 7.29297C10.5309 7.29297 9.52741 7.53727 9.12577 8.49017C9.06528 8.63347 8.8527 9.33244 8.8527 9.44954H8.85254Z" fill="white"/>
<path fill-rule="evenodd" clip-rule="evenodd" d="M64.4561 33.1717C64.4561 35.0817 67.2313 35.1082 67.2313 33.0689C67.2313 31.4922 64.4561 31.201 64.4561 33.1717V33.1717Z" fill="white"/>
<path fill-rule="evenodd" clip-rule="evenodd" d="M38.659 5.34027C39.2836 5.34027 39.7682 2.97853 38.5561 2.97853C37.7927 2.97853 34.9746 2.96007 36.3156 4.18899C36.7271 4.56601 37.9321 5.34027 38.659 5.34027V5.34027Z" fill="white"/>
<path fill-rule="evenodd" clip-rule="evenodd" d="M13.5804 29.3718C12.8902 29.3873 12.1151 29.7093 10.8369 29.1351C9.83697 28.6853 10.0736 28.5779 9.57227 28.2422C9.57227 29.2701 9.5789 30.6715 11.0651 30.8605C12.0396 30.9847 13.3974 30.0566 13.5804 29.3718V29.3718Z" fill="white"/>
<path fill-rule="evenodd" clip-rule="evenodd" d="M64.3535 29.5774C64.3535 31.0547 66.8203 31.4278 66.8203 29.3719C66.8203 27.9715 64.3535 27.6968 64.3535 29.5774Z" fill="white"/>
<path fill-rule="evenodd" clip-rule="evenodd" d="M57.4678 33.8923C57.4678 35.5685 59.9341 35.4144 59.9341 33.8923C59.9341 32.3342 57.4678 32.2384 57.4678 33.8923Z" fill="white"/>
<path fill-rule="evenodd" clip-rule="evenodd" d="M61.2705 31.427C61.2705 33.8577 64.8454 32.5581 63.3945 30.7427C62.6403 29.7996 61.2705 30.5987 61.2705 31.427Z" fill="white"/>
<path fill-rule="evenodd" clip-rule="evenodd" d="M20.4669 23.7247C21.9673 23.7247 22.0797 21.2598 20.5695 21.2598C18.6827 21.2598 19.0582 23.7247 20.4669 23.7247Z" fill="white"/>
<path fill-rule="evenodd" clip-rule="evenodd" d="M19.0284 21.0529C20.0209 21.0529 20.5328 19.7242 19.8814 19.0707C19.4601 18.6479 19.2257 18.6907 18.8228 18.6907C17.5113 18.6907 17.2161 21.0527 19.0284 21.0527V21.0529Z" fill="white"/>
<path fill-rule="evenodd" clip-rule="evenodd" d="M54.5898 27.73C54.5898 29.5228 56.9539 29.3866 56.9539 27.73C56.9539 26.2787 54.5898 26.2245 54.5898 27.73Z" fill="white"/>
<path fill-rule="evenodd" clip-rule="evenodd" d="M64.7646 36.7669C64.7646 38.3697 67.1287 38.3741 67.1287 36.7669C67.1287 35.2831 64.7646 35.3624 64.7646 36.7669Z" fill="white"/>
<path fill-rule="evenodd" clip-rule="evenodd" d="M63.8401 24.6492C65.2517 24.6492 65.4499 22.2871 63.7374 22.2871C62.3318 22.2871 62.2833 24.6492 63.8401 24.6492Z" fill="white"/>
<path fill-rule="evenodd" clip-rule="evenodd" d="M57.3652 26.2913C57.3652 26.5642 57.5187 26.8726 57.653 27.0302C58.5899 28.1349 60.4393 26.7427 59.441 25.5518C58.7853 24.77 57.3652 25.1827 57.3652 26.2912V26.2913Z" fill="white"/>
</g>
<defs>
<clipPath id="clip0_53_499">
<rect width="96" height="106" fill="white"/>
</clipPath>
</defs>
</svg>
