<svg width="101" height="101" viewBox="0 0 101 101" fill="none" xmlns="http://www.w3.org/2000/svg">
<path fill-rule="evenodd" clip-rule="evenodd" d="M29.9134 38.8335L35.744 38.8792L35.7294 58.7696L35.1902 58.7798L30.3294 58.7806L29.9332 58.777L29.9109 58.2298L29.9103 39.5658L29.9134 38.8337V38.8335ZM83.9897 38.7872C84.0365 38.6974 84.0974 38.5626 84.1569 38.4692L84.3996 38.1808C84.6471 38.8773 85.3199 40.0356 85.6993 40.7704C86.15 41.6444 86.6138 42.4775 87.0218 43.3339C87.9343 45.2488 94.7965 58.1968 94.8922 58.7787L88.7361 58.7828L87.6828 56.4293L80.5503 56.4425L79.5559 58.7685C77.9144 58.7828 74.9685 58.8514 73.5377 58.7569L83.9899 38.7866L83.9897 38.7872ZM8.34287 38.1852C8.68783 38.27 19.3591 46.6834 20.1345 47.0821L20.1339 38.8365L25.794 38.8387L25.7802 59.4876C25.2071 59.2515 15.2045 51.0306 13.968 50.3192L13.9536 58.7803L8.33185 58.7393L8.34287 38.1849V38.1852ZM59.5785 38.8359L72.4686 38.8324L72.4502 43.9249L65.213 43.932L65.2639 46.3228L71.4412 46.3437L71.4098 51.1979L65.2182 51.2064L65.2223 53.6906L72.5595 53.7272L72.5518 58.7781L59.5785 58.772V38.8354V38.8359ZM47.6293 59.481L37.6176 38.8359L43.9381 38.8563L47.7872 47.7723L48.0057 47.5199C48.0189 47.499 48.031 47.4747 48.0423 47.4527L51.6913 38.8362L57.7016 38.8315C57.4947 39.5052 52.9747 48.6934 52.667 49.2681C51.9261 50.6557 47.9905 59.1407 47.6293 59.481V59.481ZM0.000551048 48.8C0.000551048 52.8047 0.0360936 53.7503 0.478034 57.7515C0.854125 61.1542 1.77465 64.3393 2.87923 67.5012C3.39198 68.9695 3.96149 70.4435 4.66573 71.8388L7.87007 77.6755C8.62087 78.9299 9.5133 80.1133 10.3873 81.2818L14.6546 86.152C16.6411 88.1385 18.9087 90.1961 21.2305 91.7272C25.9883 94.8665 27.8205 95.8579 33.1334 98.0025C35.2974 98.876 37.9474 99.5441 40.2521 100.021C44.8264 100.97 47.8224 101.001 52.4934 101.001C54.5202 101.001 56.2135 100.707 58.0265 100.507C62.2883 100.039 66.9488 98.4076 70.907 96.7649C71.3475 96.5814 71.5588 96.4508 71.976 96.2786C75.1511 94.9671 79.5388 92.0482 82.2084 89.8884L83.8505 88.5171C84.1836 88.2595 84.3443 88.0222 84.6457 87.7569L85.4709 87.0276C89.2475 83.2287 91.9526 79.8348 94.6772 75.1396C95.4302 73.841 96.1364 72.4499 96.7092 71.0475L98.0293 67.7988C99.7202 63.5075 101 57.0701 101 52.494C101 47.9134 101.014 47.5976 100.506 42.9746C100.416 42.159 100.202 41.1862 100.054 40.4139C99.5799 37.9405 98.8332 35.593 98.048 33.2819C97.5218 31.7332 96.8729 30.36 96.2397 28.9664C95.158 26.5875 93.8228 24.3723 92.392 22.218C92.2457 21.9981 92.2411 21.9595 92.0851 21.7471C90.7169 19.8835 89.3552 17.9388 87.7057 16.3085L86.1996 14.7036C83.6612 12.1647 80.8079 9.89214 77.7854 7.95328C74.583 5.89814 71.2087 4.26622 67.6434 2.93047C63.2069 1.26906 56.9803 0 52.2008 0C46.9873 0 44.5241 0.141619 39.5567 1.15996L37.1208 1.73745C36.6982 1.86254 36.3791 1.94933 35.9102 2.08158C34.3939 2.5103 32.8452 3.11507 31.3987 3.69423C26.8457 5.51682 21.6151 8.57596 18.0088 11.7875C16.6868 12.9642 15.2472 14.0997 14.0779 15.4395L13.7233 15.8627C13.5842 16.0223 13.4965 16.1058 13.3423 16.259C12.7926 16.8037 12.4261 17.2616 11.9263 17.8564L9.24907 21.3038C6.08164 25.5879 3.83144 30.5672 2.17361 35.614C1.48149 37.7209 0.719944 40.9635 0.485749 43.1606C0.288474 45.0074 0 46.7079 0 48.7992L0.000551048 48.8Z" fill="white"/>
<path fill-rule="evenodd" clip-rule="evenodd" d="M82.4316 52.002L85.8308 52.0014L84.1887 48.1074C83.8677 48.3827 82.46 51.859 82.4316 52.0022V52.002Z" fill="white"/>
</svg>
