<svg width="165" height="98" viewBox="0 0 165 98" fill="none" xmlns="http://www.w3.org/2000/svg">
<path fill-rule="evenodd" clip-rule="evenodd" d="M87.2134 34.4564C101.113 32.3807 93.025 49.2767 89.6112 53.3451C86.6851 56.8322 81.9505 56.5001 76.3624 56.1265C69.4738 55.6698 61.7927 54.6527 55.2699 52.7224C52.8924 52.0166 50.2914 51.643 53.0956 49.2975C55.8592 46.9935 59.5372 44.8348 63.1339 43.0082C69.4128 39.8117 80.1826 35.515 87.2134 34.4564V34.4564ZM101.519 54.0716C101.255 53.013 102.311 52.0997 102.799 51.5185C106.335 47.3049 110.724 40.0815 113.345 35.3074C115.113 32.0694 116.922 28.5615 118.527 25.1366C119.584 22.9156 122.388 16.1489 123.343 14.7997C124.928 14.5922 126.147 15.7753 127.183 16.5226C130.191 18.6398 133.198 21.5872 134.824 25.2612C139.985 36.885 127.57 45.8934 118.243 49.7541C115.845 50.7505 103.653 55.2754 101.499 54.0923L101.519 54.0716ZM81.4831 4.96104C85.4049 4.54591 92.6593 5.25164 96.6014 5.79131C101.295 6.41401 105.705 7.26504 110.114 8.55196C113.162 9.42375 114.707 9.90115 111.699 12.2052C110.216 13.3468 108.631 14.5092 106.904 15.5055C103.592 17.4359 100.036 19.3247 96.195 20.923C85.1611 25.5102 62.4023 34.9961 72.7454 12.475C74.4929 8.65575 76.5859 5.47996 81.4831 4.96104V4.96104ZM63.459 7.09899C63.7435 8.24061 62.7274 9.02937 61.9756 9.98418C54.5384 19.47 48.2391 31.509 43.4841 42.6346C41.8178 46.5576 41.8788 47.5332 38.9324 45.5405C36.9613 44.2121 35.3763 42.9459 33.9336 41.4099C30.6214 37.8813 27.9594 33.3563 29.2396 27.8558C31.2919 19.0134 41.3708 13.6166 48.9503 10.6069C51.2261 9.69358 61.1425 6.35174 63.4387 7.07823L63.459 7.09899ZM77.541 0.228498C64.2921 1.34936 53.8881 2.65704 41.8585 8.75953C33.771 12.8486 21.1521 21.9816 24.8504 35.2037C27.5733 44.9593 38.7495 51.8091 48.8893 55.566C71.2213 63.8272 101.783 63.08 123.18 52.4733C131.004 48.5918 143.927 39.189 140.128 26.0707C139.315 23.2893 137.831 20.6739 136.287 18.8681C130.861 12.475 124.339 8.78029 116.15 5.68753C105.847 1.80601 89.7535 -0.809341 77.541 0.228498V0.228498Z" fill="#0D48A1"/>
<path fill-rule="evenodd" clip-rule="evenodd" d="M137.833 85.0383C137.691 83.8344 137.772 82.0286 137.772 80.7624C137.772 78.9981 138.138 78.749 139.804 78.7698C142.506 78.7905 145.392 78.666 148.135 78.7905L148.095 85.0798L137.833 85.0383V85.0383ZM132.143 97.8452L137.772 97.8867V90.4143L148.095 90.352L148.135 97.866L153.805 97.8867V73.5183C150.167 73.3315 146.184 73.4768 142.527 73.4975C138.828 73.5183 134.907 72.771 132.997 75.3864C131.655 77.213 132.143 83.3778 132.143 86.1799C132.163 90.0614 132.123 93.9637 132.143 97.8452V97.8452Z" fill="#0D48A1"/>
<path fill-rule="evenodd" clip-rule="evenodd" d="M111.132 92.6312L111.091 78.8071C113.875 78.7241 116.72 78.8071 119.524 78.7864C122.105 78.7656 121.434 80.0733 121.434 85.6569C121.434 87.1099 121.414 88.5628 121.434 90.0158C121.454 91.6971 121.536 92.6519 119.707 92.6727C116.903 92.6934 113.956 92.7142 111.152 92.6519L111.132 92.6312ZM105.401 97.8411C106.824 98.0279 119.666 97.9241 122.064 97.9034C124.746 97.8619 126.453 96.6165 126.941 94.2917C127.307 92.5274 127.063 87.7326 127.063 85.6361C127.063 80.011 128.485 73.6595 122.247 73.4727L105.442 73.5142L105.401 97.8203V97.8411Z" fill="#0D48A1"/>
<path fill-rule="evenodd" clip-rule="evenodd" d="M0 97.8853H5.64905V88.1296L15.9921 88.1089V97.8853H21.6411V73.5168L16.053 73.4961L15.9921 82.7536L5.71001 82.8159L5.64905 73.5376L0.0406406 73.4961L0 97.8853Z" fill="#0D48A1"/>
<path fill-rule="evenodd" clip-rule="evenodd" d="M51.5312 97.8438C54.7215 98.1551 59.4155 97.9061 62.7684 97.8853C66.487 97.8645 70.5104 98.6118 72.3799 95.9757C73.7007 94.0868 73.1724 87.922 73.1927 85.1199C73.213 81.7988 73.4772 76.6304 73.1521 73.5168L67.5843 73.4961C67.3811 76.1114 67.7265 90.9941 67.4624 91.8451C67.1372 92.9244 65.7351 92.6546 64.4753 92.6546C62.9919 92.6546 58.3182 92.8414 57.2209 92.5508L57.1803 73.5168L51.5516 73.4961L51.5312 97.8438V97.8438Z" fill="#0D48A1"/>
<path fill-rule="evenodd" clip-rule="evenodd" d="M78.4766 97.836L84.1256 97.919V78.8228C86.2186 78.636 89.0838 78.7812 91.2174 78.7812C95.1392 78.7812 94.4483 78.8435 94.4687 82.8703C94.489 87.852 94.5296 92.8959 94.4687 97.8567L100.158 97.8982C100.118 94.0375 100.179 90.1975 100.158 86.3367C100.138 83.4308 100.687 77.5151 99.3455 75.4602C97.598 72.7825 93.7168 73.509 89.8763 73.4883C86.625 73.4675 81.5653 73.1977 78.5172 73.5298L78.4969 97.8152L78.4766 97.836Z" fill="#0D48A1"/>
<path fill-rule="evenodd" clip-rule="evenodd" d="M33.752 97.8826H39.401C39.3807 96.5127 39.2385 90.1819 39.4823 89.3723C39.7262 88.5628 48.6874 74.6765 49.1141 73.5142L42.51 73.4934L38.1005 80.6753C37.6738 81.4017 37.0642 82.6679 36.4952 83L30.6023 73.4727H24.0186C24.364 74.5935 33.2237 88.293 33.6097 89.2686C33.9349 90.0988 33.7317 96.4504 33.752 97.8826Z" fill="#0D48A1"/>
<path fill-rule="evenodd" clip-rule="evenodd" d="M159.331 97.8826H165V73.5142L159.392 73.4727L159.331 97.8826Z" fill="#0D48A1"/>
</svg>
