<svg width="211" height="148" fill="none" xmlns="http://www.w3.org/2000/svg"><path d="M120.862 71.843C158.55 67.506 182.38 86.73 182.38 86.73S148.236 45.046 183.592 3c0 0-6.534 18.496 19.165 61.403 6.537 10.918 9.808 22.726 11.238 33.717 2.723 20.935-4.93 40.381-19.883 52.181 1.244-2.862 2.203-5.979 2.626-9.455 2.55-20.738-14.011-32.871-26.662-33.786-12.646-.909-29.325 22.559.227 37.725 0 0-28.626 27.555-47.067-28.502 0 0-7.438 9.027-26.657 10.042-19.214 1.016-47.911-11.39-47.911-11.39s45.716-40.044 72.194-43.093z" stroke="#D1D1D1" stroke-miterlimit="10"/></svg>