<svg width="309" height="497" fill="none" xmlns="http://www.w3.org/2000/svg"><path opacity=".1" d="M270.595 260.582c-50.449-91.516-125.97-110.792-125.97-110.792S280.908 152.57 309 0c0 0-26.492 47.037-151.97 65.204-31.925 4.627-60.5 18.09-84.567 34.215C26.623 130.136 0 181.333 0 235.348c3.733-7.795 8.422-15.406 14.66-22.454 37.187-42.108 87.233-26.555 108.876 0 21.622 26.556 1.157 104.912-75.27 65.768 0 0-9.861 112.134 130.357 54.706 0 0-6.269 32.417 21.833 76.985C228.548 454.911 298.154 497 298.154 497s7.878-172.118-27.559-236.418z" fill="#8B8B8B"/></svg>