<svg width="59" height="58" fill="none" xmlns="http://www.w3.org/2000/svg"><g clip-path="url(#clip0_83_1057)"><path d="M.992 57.46H58.01" stroke="#D09A5D" stroke-miterlimit="10"/><path d="M3.082 23.62v-3.737L38.56 11l17.2 6.314v4.27l-17.483-6.732L3.082 23.62z" fill="#D09A5D"/><path d="M3.082 29.962v-3.738l35.478-7.076L55.9 23.85v4.268L38.278 23 3.082 29.962z" fill="#D09A5D"/><path d="M3.082 36.134v-3.746l35.478-5.66 17.34 3.88v4.268l-17.623-4.295-35.195 5.553z" fill="#D09A5D"/><path d="M3.224 42.236V38.49l35.336-3.888 17.35 3.047v3.764l-17.633-2.967-35.053 3.79zm0 6.12v-3.747l35.336-2.072 17.35 1.577v3.763l-17.633-1.496-35.053 1.975z" fill="#D09A5D"/><path d="M25.498 19.351v-5.003l13.063-3.34 12.992 4.757V20.9l-13.408-5.136-12.647 3.586z" fill="#AE8253"/><path d="M26.596 21.079l11.655-2.374 11.637 3.516v5.11L38.242 23.63l-11.646 2.719v-5.27z" fill="#AE8253"/><path d="M28.66 33.044v-4.73l9.9-1.576 9.043 2.019v5.137l-9.361-2.267-9.583 1.417zm2.151 7.27v-4.862l7.75-.85 7.722 1.355v5.092l-7.731-1.355-7.74.62zm7.749 2.223l5.784.532v5.145l-5.978-1.027-5.713.77v-5.075l5.907-.345z" fill="#AE8253"/></g><defs><clipPath id="clip0_83_1057"><path fill="#fff" transform="translate(.5)" d="M0 0h58v58H0z"/></clipPath></defs></svg>