<svg width="31" height="31" fill="none" xmlns="http://www.w3.org/2000/svg"><path d="M26.64 5.57h-5.085V3.633a.243.243 0 00-.242-.242h-1.696a.243.243 0 00-.242.242V5.57h-7.75V3.633a.243.243 0 00-.242-.242H9.688a.243.243 0 00-.243.242V5.57H4.36a.968.968 0 00-.968.97v20.1c0 .537.433.97.968.97h22.282a.968.968 0 00.968-.97V6.54a.968.968 0 00-.968-.97zm-1.21 19.86H5.57V13.926h19.86V25.43zM5.57 11.867V7.75h3.875v1.453c0 .133.11.242.242.242h1.696a.243.243 0 00.242-.242V7.75h7.75v1.453c0 .133.109.242.242.242h1.695a.243.243 0 00.243-.242V7.75h3.875v4.117H5.57z" fill="#CBA068"/></svg>