<svg width="94" height="93" fill="none" xmlns="http://www.w3.org/2000/svg"><path d="M69.285 32.524a6.334 6.334 0 01-4.441-1.843c-.976-.968-1.562-2.165-1.791-3.642H31.994c-.017.06-.026.119-.043.17-.093.399-.178.798-.322 1.18-1.002 2.768-3.651 4.364-6.69 4.075-2.616-.263-5.027-2.632-5.384-5.29-.238-1.833.297-3.667 1.495-5.026A6.34 6.34 0 0125.83 20h43.48c1.647 0 3.21.662 4.39 1.86 1.163 1.171 1.817 2.75 1.8 4.33-.034 2.708-1.3 4.661-3.77 5.799a5.724 5.724 0 01-2.445.535zm-37.996-6.385h32.57l.043.399c.152 1.452.67 2.598 1.579 3.498 1.562 1.545 3.973 2.012 5.867 1.138 2.156-.994 3.218-2.633 3.252-4.993.017-1.341-.552-2.683-1.537-3.685a5.23 5.23 0 00-3.753-1.587H25.83c-1.58 0-3.082.662-4.101 1.834a5.389 5.389 0 00-1.265 4.304c.288 2.233 2.386 4.296 4.568 4.509 3.2.314 5.094-1.681 5.74-3.473.135-.357.22-.713.305-1.078.034-.17.076-.348.119-.527l.093-.34z" fill="#CBA068" stroke="#CBA068" stroke-width=".5"/><path d="M51.006 73.465H44.02V29.866h6.987v43.6zm-6.079-.9h5.18v-41.79h-5.18v41.79zm-5.096.892H32.87V29.875h6.962v43.582zm-6.062-.909h5.154V30.775h-5.154v41.773zm28.402.909h-6.97V29.849h6.97v43.608zm-6.062-.909h5.154v-41.79h-5.154v41.79z" fill="#CBA068" stroke="#CBA068" stroke-width=".5"/></svg>