<svg width="59" height="58" fill="none" xmlns="http://www.w3.org/2000/svg"><g clip-path="url(#clip0_83_1096)"><path d="M-2.69 57.57h64.38" stroke="#D09A5D" stroke-width="2" stroke-miterlimit="10"/><path d="M43.307 33L42 53h8l-1.414-20h-5.279z" fill="#D09A5D"/><path d="M47 17h-2v17h2V17zm2.267-11h-6.7L41 9.714 42.568 17H49.2L51 9.714 49.267 6zM40 6h12l-6.004-5L40 6zm-2 37H5v3h33v-3zm0 4H5v1h33v-1zm-24 1h-2v3h2v-3zm2-10h-2v5h2v-5zm13 0h-1v5h1v-5zm3 10h-2v3h2v-3zm3-13H9v3h26v-3z" fill="#D09A5D"/></g><defs><clipPath id="clip0_83_1096"><path fill="#fff" transform="translate(.5)" d="M0 0h58v58H0z"/></clipPath></defs></svg>