<svg width="34" height="34" fill="none" xmlns="http://www.w3.org/2000/svg"><g clip-path="url(#clip0_83_1195)" fill="#CBA068"><path d="M26.625 3.164h-1.46a.498.498 0 100 .995h1.46a.498.498 0 100-.995zm0 2.287h-1.46a.498.498 0 100 .996h1.46a.498.498 0 100-.996zm0 2.288h-1.46a.498.498 0 100 .996h1.46a.498.498 0 100-.996zm0 2.288h-1.46a.498.498 0 100 .995h1.46a.498.498 0 100-.995zm0 2.287h-1.46a.498.498 0 100 .996h1.46a.498.498 0 100-.996zm-20.423 9.99h14.692a.498.498 0 100-.996H6.202a.498.498 0 000 .996zm14.692 1.493H16.9a.498.498 0 100 .996h3.994a.498.498 0 100-.996zm-14.692.996h8.374a.498.498 0 100-.996H6.202a.498.498 0 000 .996zM16.9 26.287h-6.705a.498.498 0 000 .995H16.9a.498.498 0 100-.995zM9.403 8.927v1.539H7.15a.974.974 0 00-.973.973v4.677c0 .274.223.497.498.497H20.42a.498.498 0 00.498-.497v-4.678a.974.974 0 00-.973-.973h-2.253V8.928c0-.333-.16-.648-.428-.844l-3.1-2.265a1.041 1.041 0 00-1.233 0l-3.1 2.265a1.048 1.048 0 00-.428.844zm0 6.69h-2.23v-4.156h2.23v4.157zm8.29-4.156h2.23v4.157h-2.23V11.46zm-3.346 4.157h-1.6v-3.873a.8.8 0 011.6 0v3.873zm-3.949-6.691a.05.05 0 01.02-.04l3.1-2.265a.049.049 0 01.058 0l3.1 2.265a.05.05 0 01.02.04v6.69h-1.353v-3.872a1.797 1.797 0 00-3.591 0v3.873h-1.354V8.927z"/><path d="M30.15 6.302a.498.498 0 00.497-.498v-4.68c0-.62-.503-1.124-1.123-1.124H10.743a.505.505 0 00-.49.498V2.41h-5.78c-.618 0-1.122.503-1.122 1.123v29.344c0 .62.504 1.123 1.123 1.123h18.148c.62 0 1.123-.504 1.123-1.123V31.59h5.779c.62 0 1.123-.503 1.123-1.123V8.127a.498.498 0 10-.995 0v22.34c0 .07-.058.128-.128.128h-5.779v-2.168h2.536a.843.843 0 00.842-.842V15.86a.843.843 0 00-.842-.842h-2.536V2.908a.505.505 0 00-.402-.489h-.001L15.962.996h13.562c.07 0 .128.057.128.127v4.681c0 .275.223.498.497.498zm-6.405 9.713h2.382V27.43h-2.382V16.015zM22.75 28.9H9.289a.498.498 0 000 .995h13.46v2.98a.127.127 0 01-.127.128H4.474a.128.128 0 01-.128-.127v-2.98h2.61a.498.498 0 000-.996h-2.61v-9.21H22.75v9.21zm0-10.207H4.346V3.533c0-.07.058-.128.128-.128H22.75v15.29zM18.036 2.41h-6.788V1.1l6.788 1.31z"/></g><defs><clipPath id="clip0_83_1195"><path fill="#fff" transform="matrix(-1 0 0 1 34 0)" d="M0 0h34v34H0z"/></clipPath></defs></svg>