<svg width="43" height="68" fill="none" xmlns="http://www.w3.org/2000/svg"><path d="M39.849 20.85c-4.077-7.3-10.182-8.84-10.182-8.84s11.017.223 13.286-11.95c0 0-2.143 3.753-12.283 5.204-2.581.368-4.89 1.442-6.838 2.727a12.994 12.994 0 00-5.854 10.846c.3-.622.681-1.23 1.182-1.792 3.009-3.358 7.053-2.12 8.802 0 1.75 2.12.093 8.368-6.083 5.247 0 0-.799 8.946 10.535 4.363 0 0-.505 2.587 1.765 6.141 2.27 3.557 7.898 6.915 7.898 6.915s.637-13.73-2.228-18.862z" fill="#CBA068"/><path d="M9.485 26.883V40.3c0 5.448 3.317 10.397 8.493 12.67V18.76c-4.691 0-8.493 3.64-8.493 8.123z" fill="#CBA068"/><path d="M18.004 53.742c0 7.713-6.53 13.967-14.592 13.967a14.95 14.95 0 01-2.805-.258c-.05-.422-.066-.843-.066-1.272 0-7.603 6.1-13.764 13.614-13.764 1.33 0 2.617.196 3.824.554.016.258.025.514.025.773z" fill="#CBA068"/></svg>