<svg width="94" height="93" fill="none" xmlns="http://www.w3.org/2000/svg"><path d="M50.06 42.51c3.146 3.285 6.233 6.423 9.21 9.65 1.514 1.642 2.882 3.416 4.265 5.168.812 1.026.812 1.936-.066 2.933-2.136 2.441-4.338 4.824-6.525 7.221-.263.286-.592.52-.922.748-1.046.711-1.777.682-2.735-.132-.351-.3-.68-.638-1.075-1.004-.93.674-1.83 1.378-2.773 2.009-1.806 1.231-2.18 1.239-3.701-.25A8884.056 8884.056 0 0122.097 45.54c-1.288-1.269-1.449-2.148-.446-3.637 1.997-2.998 4.513-5.535 7.417-7.64 1.47-1.062 2.414-.894 3.767.338 8.353 7.654 16.253 15.756 23.816 24.202.783.88.886 1.715.271 2.624-.921 1.364-1.916 2.677-2.955 4.12.176.155.439.382.76.66 2.246-1.884 4.324-3.856 5.984-6.253.512-.74.461-1.481-.117-2.185-3.789-4.692-7.673-9.29-12.223-13.27-1.375-1.203-1.426-2.104-.16-3.453.424-.44.862-.866 1.287-1.305.563-.587 1.287-1.064 1.002-2.097-.066-.235.175-.609.358-.858 4.345-6.188 9.034-12.068 14.666-17.149 1.302-1.18 2.663-1.972 4.477-1.495 2.838.748 4.023 4.164 1.953 6.342a176.998 176.998 0 01-10.321 9.985c-2.275 2.031-4.88 3.703-7.337 5.528-.263.19-.592.499-.834.447-1.785-.337-2.304 1.254-3.401 2.068z" stroke="#D09A5D" stroke-width="1.5" stroke-miterlimit="10"/></svg>