<svg width="59" height="58" fill="none" xmlns="http://www.w3.org/2000/svg"><g clip-path="url(#clip0_83_1087)"><path d="M-2.69 57.723h64.38" stroke="#D09A5D" stroke-width="1.5" stroke-miterlimit="10"/><path d="M25.27 49.163c-1.05-.62-2.08-1.28-3.15-1.87-.45-.24-.62-.55-.68-1.03-.28-2.3-.6-4.58-.91-6.87-.32-2.41-.65-4.83-.96-7.24-.32-2.36-.63-4.72-.94-7.07-.04-.32-.1-.64-.13-.96-.02-.16-.08-.24-.21-.32-2.42-1.46-4.84-2.93-7.25-4.4-.99-.6-1.64-1.47-1.92-2.59-.16-.66-.16-1.31.28-1.88.52-.68 1.27-.77 2.05-.7 1.45.14 2.77.69 4.01 1.43 1.85 1.12 3.69 2.25 5.52 3.38.15.1.27.11.44.03 5.35-2.31 10.7-4.62 16.04-6.93 1.61-.7 3.23-1.39 4.84-2.1.16-.06.28-.06.44.02 1.15.63 2.3 1.25 3.45 1.87.08.04.14.08.24.14-5.61 4.14-11.19 8.27-16.79 12.4 1.28.8 2.54 1.59 3.81 2.38 2.57 1.59 5.14 3.18 7.7 4.79.17.1.29.1.46.02 1.87-.9 3.75-1.79 5.63-2.69.19-.08.33-.08.51.02.74.4 1.48.79 2.23 1.18v.21c-.06.04-.13.08-.18.13l-4.94 5.06c-.08.08-.15.2-.18.32-.52 1.97-1.04 3.95-1.55 5.93-.1.37-.2.74-.31 1.13-.81-.48-1.59-.94-2.37-1.42-.08-.05-.14-.18-.15-.29-.08-.72-.15-1.45-.22-2.17-.13-1.36-.27-2.71-.39-4.06-.02-.23-.11-.34-.3-.43-3.91-2.01-7.83-4.01-11.74-6.02a6.91 6.91 0 01-.29-.14c-.05.66-.11 1.28-.17 1.9-.11 1.16-.23 2.33-.34 3.49-.09.98-.18 1.95-.28 2.92l-.33 3.53-.33 3.43c-.11 1.17-.22 2.35-.34 3.52-.06.65-.13 1.3-.2 1.95h-.1z" fill="#D09A5D"/></g><defs><clipPath id="clip0_83_1087"><path fill="#fff" transform="translate(.5)" d="M0 0h58v58H0z"/></clipPath></defs></svg>