<svg width="94" height="93" fill="none" xmlns="http://www.w3.org/2000/svg"><path d="M26.707 69.028V35.71l-1.873 1.075c-.94.545-1.865 1.114-2.837 1.612-.245.126-.774.142-.885 0-.316-.419.103-.632.427-.822 6.725-3.88 13.45-7.76 20.167-11.64 1.565-.91 3.137-1.802 4.694-2.727.419-.253.759-.292 1.201-.031 8.282 4.796 16.572 9.577 24.853 14.366.167.087.38.166.45.317.08.173.104.537.009.592-.174.103-.498.142-.672.055-.822-.434-1.612-.916-2.418-1.382-.79-.45-1.588-.901-2.473-1.407v33.309h4.915c.347.008.774-.04.774.466 0 .49-.41.49-.766.49H64.9c-14.209 0-28.417 0-42.626-.008-.237 0-.49.063-.688-.016-.22-.087-.387-.308-.569-.466.19-.15.372-.435.561-.443 1.162-.04 2.324-.023 3.478-.023h1.651zm39.615-.04c.008-.268.032-.45.032-.632 0-10.874-.008-21.747.008-32.621 0-.45-.142-.696-.538-.925-6.124-3.524-12.24-7.057-18.373-10.573-.221-.127-.632-.119-.853.008-6.133 3.508-12.25 7.049-18.374 10.573-.403.23-.529.482-.529.933.016 10.85.008 21.7.016 32.55 0 .213.024.434.04.687h38.571z" fill="#D09A5D"/><path d="M47.175 63.457H33.473c-.957 0-1.02-.063-1.02-1.035V38.785c0-1.05.04-1.082 1.099-1.082h27.042c1.185 0 1.193 0 1.193 1.193 0 7.84-.008 15.67-.008 23.502 0 1.027-.024 1.059-1.05 1.059H47.174zM33.41 38.698v.854c0 7.373.008 14.746-.008 22.11-.007.665.158.862.83.854 8.574-.023 17.156-.015 25.73-.015h.807V38.698h-27.36z" fill="#D09A5D"/><path d="M46.574 42.855c-.34.332-.57.616-.854.79-.166.103-.45.032-.671.04 0-.23-.095-.546.023-.672a18.56 18.56 0 011.715-1.723c.127-.11.53-.118.656-.008a19.68 19.68 0 011.723 1.723c.118.126.031.435.04.664-.246-.008-.57.063-.712-.063-.253-.214-.395-.562-.577-.846-.087.071-.182.15-.276.221v15.323c.34-.332.553-.616.83-.782.197-.11.481-.048.734-.071-.023.245.048.569-.087.719a14.937 14.937 0 01-1.62 1.62c-.15.134-.6.126-.758 0a14.251 14.251 0 01-1.62-1.62c-.135-.15-.056-.482-.071-.727.245.024.545-.032.727.095.252.174.41.482.608.742a3.15 3.15 0 01.19-.134V42.855z" fill="#D09A5D"/></svg>