<svg width="151" height="16" fill="none" xmlns="http://www.w3.org/2000/svg"><path fill-rule="evenodd" clip-rule="evenodd" d="M37.115 2.39l-5.496 11.045h.91l1.486-3.072h6.96l1.498 3.068h.963L37.941 2.386l-.826.004zm-2.717 7.229L37.52 3.28l3.1 6.338h-6.222zm25.224-4.044a2.732 2.732 0 00-.225-1.114 2.893 2.893 0 00-.666-.949c-.707-.655-1.865-1.069-3.313-1.069H50.48v10.938h.875V8.85h3.853l3.749 4.532h1.112l-3.887-4.674c1.984-.25 3.44-1.297 3.44-3.125v-.007zm-8.275 2.533V3.206h4.021c2.136 0 3.382.923 3.382 2.39 0 1.61-1.463 2.534-3.44 2.534l-3.963-.022zM76.64 2.44h-1.192l-7.502 7.179v-7.18h-.876v10.942h.876V10.6l2.927-2.762 4.843 5.533h1.146l-5.35-6.11 5.128-4.82zm22.64.766h4.106v10.19h.875V3.205h4.101V2.44h-9.081v.766zm16.118 10.19h.875V2.44h-.875v10.955zm16.861-1.426l-8.125-9.53h-.825v10.94h.841V3.658l8.293 9.723h.657V2.44h-.841v9.53zm13.43-4.275v.713h3.822v3.053a6.135 6.135 0 01-3.631 1.215c-3.057 0-4.884-2.049-4.884-4.8 0-2.597 1.938-4.78 4.705-4.78 1.353-.044 2.67.415 3.661 1.275l.554-.592c-1.144-.948-2.635-1.45-4.165-1.4-3.402 0-5.634 2.63-5.634 5.498 0 3.02 2.133 5.497 5.733 5.497 1.65-.012 3.241-.579 4.479-1.596v-4.09l-4.64.007zM83.867 3.224h8.408v-.788h-8.408v.788zm5.836 4.321h-5.836v.78h5.836v-.78zm-5.836 5.836h8.408v-.78h-8.408v.78zM19.491 0l-3.89 6.213L11.729 0H7.036v9.231a30.753 30.753 0 004.693 3.185V7.838l3.662 5.7h.42l3.68-5.7v7.425h4.67V0h-4.67zM4.693 7.036V0H0a24.326 24.326 0 004.693 7.036zM0 8.857v6.413h4.693v-3.395A36.152 36.152 0 010 8.857zm7.036 4.175v2.23h4.693v-.48a37.853 37.853 0 01-4.693-1.75z" fill="#CCC"/></svg>