<svg width="18" height="18" fill="none" xmlns="http://www.w3.org/2000/svg"><g clip-path="url(#clip0_109_217)"><path fill-rule="evenodd" clip-rule="evenodd" d="M5.599.8C6.479.758 6.759.75 9 .75c2.241 0 2.521.01 3.4.05.88.04 1.48.18 2.005.383a4.06 4.06 0 011.46.952c.42.412.745.91.952 1.46.203.525.343 1.126.384 2.003.04.881.049 1.162.049 3.402 0 2.241-.01 2.521-.05 3.401-.04.878-.18 1.478-.383 2.003a4.047 4.047 0 01-.951 1.462 4.04 4.04 0 01-1.461.95c-.525.204-1.125.344-2.003.385-.88.04-1.161.049-3.402.049s-2.521-.01-3.401-.05c-.878-.04-1.478-.18-2.003-.383a4.048 4.048 0 01-1.462-.951 4.044 4.044 0 01-.951-1.461C.979 13.88.84 13.28.799 12.402.76 11.521.75 11.24.75 9c0-2.241.01-2.521.05-3.4.04-.88.18-1.48.383-2.004.207-.55.532-1.05.952-1.462.412-.42.91-.744 1.46-.951C4.12.979 4.721.84 5.598.799zm6.735 1.484c-.87-.04-1.131-.047-3.334-.047-2.203 0-2.464.008-3.334.047-.804.037-1.241.171-1.532.285-.385.15-.66.328-.949.616-.273.267-.484.59-.616.949-.114.291-.248.728-.284 1.532-.04.87-.049 1.131-.049 3.334 0 2.203.009 2.464.048 3.334.037.805.171 1.241.285 1.532.132.358.343.683.616.949.266.274.591.484.949.616.291.114.728.248 1.532.285.87.04 1.13.048 3.334.048s2.464-.009 3.334-.048c.805-.037 1.241-.171 1.532-.285.385-.15.66-.327.949-.616.274-.266.484-.591.616-.949.114-.291.248-.727.285-1.532.04-.87.048-1.131.048-3.334 0-2.203-.009-2.464-.048-3.334-.037-.804-.171-1.241-.285-1.532a2.562 2.562 0 00-.616-.949 2.56 2.56 0 00-.949-.616c-.291-.114-.727-.248-1.532-.284zm-4.388 9.26A2.752 2.752 0 108.73 6.26a2.752 2.752 0 00-.784 5.282zM6.002 6a4.24 4.24 0 115.996 6A4.24 4.24 0 016 6zm8.179-.61a1.002 1.002 0 10-1.375-1.458 1.002 1.002 0 001.375 1.458z" fill="#fff"/></g><defs><clipPath id="clip0_109_217"><path fill="#fff" d="M0 0h18v18H0z"/></clipPath></defs></svg>