<svg width="94" height="93" fill="none" xmlns="http://www.w3.org/2000/svg"><path d="M61.184 77.01H32.833v-7.645H29.5v-46.72h3.814V17h1.46v5.62c.978 0 1.881.016 2.801-.026.093 0 .228-.329.236-.506.017-1.46.009-2.928.009-4.396v-.684h1.443v5.603h25.229v23.862h-1.384V24.13H30.994v43.7H63.04V51.864h1.46v17.508h-3.316v7.637zm-1.527-7.603H34.369v6.126h12.985v-5.147h12.303v-.979zm-10.834 6.135h10.825v-3.629H48.823v3.629z" fill="#D09A5D"/><path d="M37.33 45.131v-3.73c0-.775 0-.775-.785-.775h-.709V39.19h1.452v-7.459h-1.469v-1.485h1.494v-4.421h19.33c.01.177.026.363.026.548V43.25c0 .464-.025.928-.017 1.392.009.337-.076.48-.48.48-1.62-.024-3.25.01-4.87.01H37.33zm17.88-17.863H38.84v16.353h16.37V27.268zM37.22 51.696h-1.408V50.26h1.502v-4.463h19.339v19.255H37.347v-4.421H35.82v-1.477c.354 0 .734.034 1.097-.017.143-.017.396-.22.396-.346.017-2.303.009-4.615-.008-6.927 0-.026-.034-.068-.084-.17zm17.973-4.447H38.841v16.344h16.352V47.25zm-3.661 25.794h-1.527v1.376h1.527v-1.376z" fill="#D09A5D"/><path d="M53.547 32.787h-1.392v4.514h1.392v-4.514zm-.953 28.216c-.33-.312-.659-.624-.962-.92 1.3-2.143.658-4.142-.32-6.269-.591.878-1.09 1.654-1.57 2.38a2673.84 2673.84 0 00-2.574-4.801c-1.316 1.552-2.11 3.147-2.725 4.953-.566-.861-1.08-1.629-1.603-2.414-1.342 1.561-1.545 4.413-.481 6.05l-.988 1.038c-.902-.911-1.223-2.059-1.198-3.3.042-2.336.945-4.353 2.464-6.2.515.548.996 1.07 1.477 1.585.928-1.299 1.873-2.598 2.92-4.058a766.536 766.536 0 012.927 4.05c.456-.49.945-1.013 1.426-1.527 2.287 2.194 3.493 7.383 1.207 9.433z" fill="#D09A5D"/></svg>