<svg width="26" height="26" fill="none" xmlns="http://www.w3.org/2000/svg"><path d="M22.192 3.808A12.915 12.915 0 0013 0a12.915 12.915 0 00-9.192 3.808A12.915 12.915 0 000 13c0 3.472 1.352 6.737 3.808 9.192A12.915 12.915 0 0013 26c3.472 0 6.737-1.352 9.192-3.808A12.915 12.915 0 0026 13c0-3.472-1.352-6.737-3.808-9.192zM10.534 1.79c-.436.424-.907.93-1.378 1.518A15.806 15.806 0 007.13 6.573H3.496a11.507 11.507 0 017.038-4.782zM2.625 8.097h3.901a15.285 15.285 0 00-.77 4.141H1.55a11.391 11.391 0 011.076-4.141zM1.55 13.762h4.207c.068 1.428.326 2.815.77 4.141h-3.9a11.391 11.391 0 01-1.077-4.141zm1.947 5.665H7.13a15.808 15.808 0 002.026 3.264c.471.588.942 1.094 1.378 1.518a11.507 11.507 0 01-7.038-4.782zm8.742 4.278a14.98 14.98 0 01-3.415-4.278h3.415v4.278zm0-5.802H8.136a13.63 13.63 0 01-.854-4.141h4.956v4.141zm0-5.665H7.282c.074-1.447.36-2.83.855-4.141h4.101v4.141zm0-5.665H8.823a14.56 14.56 0 011.485-2.266 14.97 14.97 0 011.93-2.01v4.276zm12.213 5.665h-4.207a15.282 15.282 0 00-.77-4.141h3.9c.604 1.27.98 2.668 1.077 4.141zm-1.947-5.665H18.87a15.81 15.81 0 00-2.026-3.264 16.622 16.622 0 00-1.379-1.518c2.914.64 5.416 2.39 7.039 4.782zm-8.742-4.278a14.977 14.977 0 013.415 4.278h-3.415V2.295zm0 5.802h4.102c.495 1.311.78 2.694.854 4.141h-4.956V8.097zm0 5.665h4.956a13.632 13.632 0 01-.855 4.141h-4.101v-4.141zm0 9.94v-4.275h3.415a14.505 14.505 0 01-1.485 2.266 14.973 14.973 0 01-1.93 2.01zm1.704.507c.436-.424.907-.93 1.378-1.518a15.805 15.805 0 002.026-3.264h3.634a11.507 11.507 0 01-7.039 4.782zm7.909-6.306h-3.901c.444-1.326.702-2.713.77-4.141h4.207a11.392 11.392 0 01-1.076 4.141z" fill="#fff"/></svg>