<svg width="32" height="34" fill="none" xmlns="http://www.w3.org/2000/svg"><path d="M16 10.17c.737 0 1.334-.611 1.334-1.366 0-.754-.597-1.366-1.334-1.366-.736 0-1.333.612-1.333 1.366 0 .755.597 1.366 1.333 1.366zM8 23.829h16v2.732H8v-2.732zm5.333-7.062l3.723 3.817 5.243-5.375L24 16.999v-5.463h-5.333l1.746 1.742-3.358 3.44-3.722-3.816L8 18.365l1.885 1.932 3.448-3.53z" fill="#1B1D3B"/><path d="M25.334 4.707h-4.398a6.143 6.143 0 00-.426-.58l-.014-.017a5.859 5.859 0 00-3.853-2.073 3.355 3.355 0 00-1.285 0 5.859 5.859 0 00-3.854 2.073l-.013.016a6.146 6.146 0 00-.427.58v.001H6.667A3.956 3.956 0 003.84 5.908a4.153 4.153 0 00-1.173 2.897v19.122a4.153 4.153 0 001.173 2.896c.75.768 1.766 1.2 2.827 1.201h18.667a3.956 3.956 0 002.827-1.201 4.153 4.153 0 001.173-2.896V8.805a4.153 4.153 0 00-1.173-2.897 3.956 3.956 0 00-2.827-1.201zm1.333 23.22c0 .362-.14.71-.39.965-.25.256-.59.4-.943.4H6.667c-.354 0-.692-.144-.942-.4a1.384 1.384 0 01-.391-.965V8.805c0-.363.14-.71.39-.966s.59-.4.943-.4h6.067a3.43 3.43 0 011.157-1.965 3.285 3.285 0 012.11-.77c.768 0 1.514.272 2.109.77a3.43 3.43 0 011.157 1.965h6.067c.353 0 .692.144.942.4s.39.603.391.966v19.122z" fill="#1B1D3B"/></svg>