<svg width="31" height="31" fill="none" xmlns="http://www.w3.org/2000/svg"><path d="M16.945 1.14h0l-.004.003a.925.925 0 00-.441.794v5.36H9.339l-.195-.748a.942.942 0 00-.91-.706H2.906a1.907 1.907 0 000 3.813h5.328a.942.942 0 00.91-.706l.195-.748H16.5v5.36c0 .328.167.626.441.793.289.176.63.188.912.046l.003-.002 11.625-5.812h0l.003-.002A.93.93 0 0030 7.749a.93.93 0 00-.516-.835h0l-.003-.002-11.625-5.813h0l-.004-.001a.932.932 0 00-.907.043zM12.562 15.5a.935.935 0 00-.937-.938H1.937A.935.935 0 001 15.5v3.875c0 .52.418.937.938.937h9.687c.52 0 .938-.418.938-.937v-3.876zm16.5 8.75H23.25a.935.935 0 00-.938.937v3.875c0 .52.419.938.938.938h5.813a.935.935 0 00.937-.938v-3.875a.935.935 0 00-.938-.937zm-11.625 0h-15.5a.935.935 0 00-.937.937v3.875c0 .52.418.938.938.938h15.5a.935.935 0 00.937-.938v-3.875a.935.935 0 00-.938-.937z" stroke="#1B1D3B" stroke-width="2"/></svg>