<svg width="32" height="34" fill="none" xmlns="http://www.w3.org/2000/svg"><path d="M10.592 7.99c-.447 0-.876.16-1.193.446a1.453 1.453 0 00-.494 1.078c0 .404.178.791.494 1.077.317.286.746.446 1.193.446.448 0 .877-.16 1.193-.446.317-.286.495-.673.495-1.077 0-.404-.178-.792-.495-1.078a1.783 1.783 0 00-1.193-.446zM8.905 20.178c0-.404.178-.792.494-1.077a1.784 1.784 0 011.193-.447c.448 0 .877.161 1.193.447.317.285.495.673.495 1.077 0 .404-.178.791-.495 1.077a1.783 1.783 0 01-1.193.446c-.447 0-.876-.16-1.193-.446a1.452 1.452 0 01-.494-1.077zm1.687-6.856c-.447 0-.876.16-1.193.447a1.452 1.452 0 00-.494 1.077c0 .404.178.791.494 1.077.317.286.746.446 1.193.446.448 0 .877-.16 1.193-.446.317-.286.495-.673.495-1.077a1.45 1.45 0 00-.495-1.077 1.783 1.783 0 00-1.193-.447zm4.218-3.808c0-.404.178-.792.495-1.078a1.783 1.783 0 011.192-.446c.448 0 .877.16 1.194.446.316.286.494.674.494 1.078s-.178.791-.494 1.077a1.784 1.784 0 01-1.194.446 1.78 1.78 0 01-1.192-.446 1.452 1.452 0 01-.495-1.077zm1.687 9.14a1.78 1.78 0 00-1.192.447 1.452 1.452 0 00-.495 1.077c0 .404.178.791.495 1.077a1.78 1.78 0 001.192.446c.448 0 .877-.16 1.194-.446.316-.286.494-.673.494-1.077 0-.404-.178-.792-.494-1.077a1.784 1.784 0 00-1.194-.447zm4.218 1.524c0-.404.178-.792.495-1.077a1.783 1.783 0 011.193-.447c.447 0 .876.161 1.193.447.316.285.494.673.494 1.077 0 .404-.178.791-.494 1.077a1.783 1.783 0 01-1.193.446 1.78 1.78 0 01-1.193-.446 1.453 1.453 0 01-.495-1.077zm-4.218-6.856c-.447 0-.876.16-1.192.447a1.452 1.452 0 00-.495 1.077c0 .404.178.791.495 1.077a1.78 1.78 0 001.192.446c.448 0 .877-.16 1.194-.446.316-.286.494-.673.494-1.077 0-.404-.178-.792-.494-1.077a1.784 1.784 0 00-1.194-.447zm-9.7-10.664c-1.008 0-1.973.361-2.685 1.004S3 5.177 3 6.086v25.137c0 .63.567 1.142 1.265 1.142h24.47c.335 0 .657-.12.894-.334a1.09 1.09 0 00.371-.808V17.512c0-.45-.098-.896-.289-1.312a3.426 3.426 0 00-.823-1.112 3.848 3.848 0 00-1.231-.743 4.154 4.154 0 00-1.453-.26H24.09v-8c0-.91-.4-1.781-1.112-2.424-.712-.643-1.678-1.004-2.684-1.004H6.796zM5.53 6.086c0-.303.133-.594.37-.808.238-.214.56-.335.895-.335h13.498c.335 0 .657.12.894.335.238.214.371.505.371.808v9.14c0 .631.567 1.143 1.265 1.143h3.38c.335 0 .657.12.895.335.237.214.37.505.37.808V30.08h-3.38v-4.19a1.09 1.09 0 00-.37-.807 1.338 1.338 0 00-.895-.335H10.17c-.335 0-.657.12-.894.335a1.09 1.09 0 00-.37.808v4.19H5.53V6.085zm16.028 20.947v3.047h-3.796v-3.047h3.796zm-6.327 0v3.047h-3.796v-3.047h3.796z" fill="#1B1D3B"/></svg>