<svg width="32" height="32" fill="none" xmlns="http://www.w3.org/2000/svg"><path d="M16 0C9.48 0 4.179 5.303 4.179 11.82c0 2.147.962 4.455 1.002 4.552.311.738.925 1.884 1.367 2.555l8.105 12.281c.331.503.822.792 1.347.792.524 0 1.015-.289 1.347-.791l8.105-12.282a18.972 18.972 0 001.367-2.555c.04-.097 1.002-2.405 1.002-4.551C27.82 5.303 22.518 0 16 0zm9.536 15.832a17.461 17.461 0 01-1.245 2.33l-8.106 12.281c-.16.243-.21.243-.37 0L7.709 18.162a17.47 17.47 0 01-1.245-2.33c-.012-.029-.895-2.153-.895-4.011C5.57 6.07 10.25 1.39 16 1.39c5.752 0 10.43 4.679 10.43 10.43 0 1.86-.884 3.99-.893 4.011z" fill="#CBA068"/><path d="M16 5.563a6.265 6.265 0 00-6.259 6.259A6.265 6.265 0 0016 18.08a6.265 6.265 0 006.258-6.258A6.265 6.265 0 0016 5.563zm0 11.126a4.873 4.873 0 01-4.868-4.867 4.873 4.873 0 014.867-4.868 4.873 4.873 0 014.868 4.868 4.873 4.873 0 01-4.868 4.867z" fill="#CBA068"/></svg>