<svg width="243" height="130" fill="none" xmlns="http://www.w3.org/2000/svg"><g clip-path="url(#clip0_84_1806)" fill="#CBA068"><path d="M155.849 20.85c-4.077-7.3-10.182-8.84-10.182-8.84s11.016.223 13.286-11.95c0 0-2.143 3.753-12.283 5.204-2.581.368-4.89 1.442-6.838 2.727a12.993 12.993 0 00-5.853 10.846c.3-.622.68-1.23 1.181-1.792 3.009-3.358 7.053-2.12 8.802 0 1.749 2.12.094 8.368-6.083 5.247 0 0-.799 8.946 10.535 4.363 0 0-.505 2.587 1.765 6.141 2.27 3.557 7.898 6.915 7.898 6.915s.637-13.73-2.228-18.862zm-30.364 6.033V40.3c0 5.448 3.317 10.397 8.493 12.67V18.76c-4.691 0-8.493 3.64-8.493 8.123z"/><path d="M134.004 53.742c0 7.713-6.529 13.967-14.592 13.967-.962 0-1.893-.085-2.805-.258a10.96 10.96 0 01-.066-1.272c0-7.603 6.099-13.764 13.614-13.764 1.331 0 2.617.196 3.824.554.016.258.025.514.025.773zm-88.2 53.611h7.44v4.6H38.059l8.407-16.288h-6.994v-4.597h14.694l-8.36 16.285zm17.545-8.225h6.663v-8.06h4.617v20.885h-4.617v-8.616H63.35v8.616h-4.62V91.068h4.617v8.06zm28.236 9.197H84.99l-1.06 3.628h-4.92l6.757-20.885h5.041l6.758 20.885h-4.92l-1.06-3.628zm-1.225-4.129l-2.072-6.95-2.072 6.95h4.144zm10.787 7.757l3.014-20.885h4.568l3.556 11.135 3.534-11.135h4.568l3.014 20.885h-4.593l-1.531-12.02-4.19 12.02h-1.838l-3.98-12.02-1.532 12.02h-4.59zm38.407-3.628h-6.592l-1.061 3.628h-4.92l6.758-20.885h5.041l6.758 20.885h-4.923l-1.061-3.628zm-1.223-4.129l-2.071-6.95-2.075 6.95h4.146zm16.201-4.514l5.628-8.614h5.703l-7.044 9.888 7.699 10.997h-5.98l-6.006-9.059v9.059h-4.614V91.068h4.614v8.614zm27.274 8.643h-6.595l-1.06 3.628h-4.921l6.758-20.885h5.038l6.761 20.885h-4.923l-1.058-3.628zm-1.226-4.129l-2.071-6.95-2.075 6.95h4.146zm14.2-2.271l-6.476-10.856h5.512l3.295 5.706 3.275-5.707h5.51l-6.502 10.857v10.028h-4.614v-10.028zm25.199-6.26h-5.488v3.49h5.182v4.598h-5.182v3.6h5.488v4.6h-10.102V91.068h10.102v4.597zm8.831-4.596l4.287 12.711 4.308-12.712h5.017l-7.49 20.885h-3.673l-7.465-20.885h5.016zM0 105.772c0-1.236.187-2.274.556-3.113a5.606 5.606 0 011.13-1.663A4.73 4.73 0 013.25 99.9c.757-.319 1.628-.479 2.617-.479 1.788 0 3.217.556 4.292 1.663 1.071 1.112 1.608 2.654 1.608 4.63 0 1.96-.534 3.496-1.597 4.6-1.064 1.109-2.49 1.66-4.27 1.66-1.805 0-3.24-.548-4.303-1.652C.534 109.224 0 107.707 0 105.772zm2.523-.083c0 1.374.32 2.414.954 3.125.636.707 1.44 1.062 2.418 1.062.978 0 1.78-.352 2.41-1.054.626-.705.94-1.759.94-3.166 0-1.39-.306-2.428-.917-3.11-.61-.686-1.419-1.027-2.433-1.027-1.01 0-1.826.347-2.443 1.038-.617.693-.929 1.737-.929 3.132zm11.154 6.067V99.641h2.378l4.989 8.118v-8.118h2.267v12.115h-2.452l-4.912-7.963v7.963h-2.27zm158.72 14.041l2.386-.237c.143.796.433 1.379.871 1.757.438.374 1.027.561 1.768.561.785 0 1.378-.168 1.774-.501.4-.333.601-.721.601-1.167a1.11 1.11 0 00-.254-.732c-.165-.201-.46-.375-.876-.523-.286-.102-.934-.275-1.95-.529-1.306-.327-2.223-.729-2.752-1.205-.741-.667-1.11-1.481-1.11-2.445 0-.616.173-1.197.52-1.737.35-.537.852-.947 1.51-1.23.658-.281 1.449-.421 2.38-.421 1.515 0 2.659.335 3.422 1.01.768.672 1.168 1.569 1.209 2.695l-2.457.085c-.102-.628-.325-1.076-.667-1.349-.342-.272-.857-.413-1.54-.413-.705 0-1.256.149-1.656.441a.895.895 0 00-.385.757c0 .286.121.531.363.735.309.261 1.056.534 2.243.815 1.19.28 2.066.572 2.633.872.571.3 1.017.71 1.339 1.231.32.523.482 1.164.482 1.929a3.57 3.57 0 01-.578 1.952 3.484 3.484 0 01-1.637 1.352c-.707.294-1.586.44-2.639.44-1.531 0-2.71-.352-3.531-1.06-.821-.705-1.309-1.734-1.469-3.083zm14.661 3.925v-10.066h-3.589v-2.048h9.617v2.048h-3.57v10.066h-2.458zm7.617 0v-12.114h5.157c1.295 0 2.237.11 2.824.327.59.218 1.058.603 1.411 1.159.352.556.531 1.192.531 1.908 0 .911-.264 1.66-.799 2.254-.534.592-1.327.964-2.391 1.118.529.308.964.647 1.306 1.016.344.369.807 1.026 1.388 1.968l1.477 2.364h-2.926l-1.754-2.645c-.629-.939-1.061-1.533-1.295-1.778a1.896 1.896 0 00-.739-.501c-.261-.091-.672-.135-1.236-.135h-.499v5.059h-2.455zm2.455-6.989h1.813c1.173 0 1.906-.049 2.198-.148.292-.099.523-.273.686-.515.165-.242.248-.545.248-.908 0-.411-.11-.738-.328-.991-.218-.251-.523-.411-.92-.474-.198-.027-.796-.041-1.785-.041h-1.912v3.077zm9.774 6.989v-12.114h8.972v2.048h-6.518v2.689h6.061v2.045h-6.061v3.284h6.755v2.048h-9.209zm11.292 0v-12.114h8.975v2.048h-6.518v2.689h6.061v2.045h-6.061v3.284h6.755v2.048h-9.212zm14.022 0v-10.066h-3.59v-2.048h9.617v2.048h-3.573v10.066h-2.454zm-91.321-49.689l2.369.727c-.364 1.335-.97 2.323-1.816 2.973-.848.647-1.92.972-3.22.972-1.612 0-2.934-.55-3.972-1.652-1.036-1.098-1.557-2.601-1.557-4.512 0-2.014.524-3.584 1.565-4.698 1.041-1.118 2.41-1.677 4.11-1.677 1.485 0 2.689.44 3.614 1.319.554.517.967 1.26 1.243 2.235l-2.422.575c-.143-.627-.443-1.123-.898-1.486-.454-.364-1.008-.545-1.658-.545-.901 0-1.631.322-2.19.969-.562.641-.84 1.684-.84 3.13 0 1.527.275 2.617.826 3.267.554.65 1.27.974 2.154.974.65 0 1.212-.203 1.681-.619.468-.416.807-1.063 1.011-1.952zm4.54 4.468V72.488h2.454v9.965h6.08v2.048h-8.534zm10.275-12.115h2.454v6.566c0 1.043.031 1.717.091 2.023.105.498.35.897.739 1.197.394.3.925.449 1.603.449.686 0 1.207-.14 1.556-.424.35-.286.557-.633.628-1.046.072-.416.108-1.101.108-2.059v-6.706h2.454v6.37c0 1.456-.063 2.486-.195 3.086-.135.6-.378 1.106-.733 1.522-.353.413-.826.74-1.419.986-.595.247-1.369.371-2.325.371-1.154 0-2.03-.135-2.625-.402-.595-.267-1.066-.614-1.413-1.043-.347-.43-.573-.873-.683-1.346-.16-.694-.24-1.718-.24-3.075v-6.469zm12.228 0h4.846c.964 0 1.678.039 2.149.119.474.082.895.248 1.267.498.372.253.683.59.931 1.01.248.421.372.895.372 1.415 0 .564-.151 1.087-.457 1.558a2.824 2.824 0 01-1.24 1.063c.736.217 1.3.583 1.697 1.1.397.521.592 1.13.592 1.831 0 .554-.126 1.09-.383 1.61a3.236 3.236 0 01-1.052 1.253c-.443.311-.992.501-1.642.575-.407.042-1.391.072-2.953.083h-4.127V72.386zm2.455 2.013v2.794h1.603c.951 0 1.543-.017 1.774-.044.419-.047.747-.19.987-.433.242-.24.36-.55.36-.941 0-.374-.104-.677-.311-.911-.206-.234-.515-.375-.92-.421-.242-.03-.939-.044-2.088-.044h-1.405zm0 4.806v3.248h2.267c.882 0 1.444-.025 1.681-.074a1.52 1.52 0 00.889-.485c.229-.259.345-.6.345-1.032 0-.366-.088-.674-.267-.928a1.485 1.485 0 00-.764-.556c-.333-.115-1.06-.173-2.173-.173h-1.978zm14.476 5.296V72.386h2.455v4.77h4.774v-4.77h2.457v12.115H192.1v-5.296h-4.774V84.5h-2.455zm11.719-5.984c0-1.236.188-2.274.557-3.114a5.656 5.656 0 011.129-1.662 4.731 4.731 0 011.565-1.096c.757-.316 1.628-.479 2.617-.479 1.788 0 3.218.556 4.292 1.663 1.072 1.112 1.609 2.653 1.609 4.633 0 1.957-.535 3.493-1.598 4.597-1.063 1.109-2.49 1.662-4.27 1.662-1.804 0-3.24-.55-4.303-1.654-1.063-1.098-1.598-2.615-1.598-4.55zm2.524-.083c0 1.374.319 2.414.953 3.124.636.708 1.443 1.063 2.419 1.063.977 0 1.779-.352 2.41-1.054.625-.705.939-1.76.939-3.166 0-1.39-.305-2.428-.917-3.11-.609-.686-1.419-1.027-2.432-1.027-1.011 0-1.827.347-2.444 1.038-.617.693-.928 1.736-.928 3.132zm11.154-6.048h2.454v6.566c0 1.043.033 1.717.091 2.023.105.498.35.897.741 1.197.391.3.926.449 1.601.449.686 0 1.206-.14 1.556-.424.35-.286.559-.633.628-1.046.072-.416.108-1.101.108-2.059v-6.706h2.454v6.37c0 1.456-.063 2.486-.195 3.086-.133.6-.378 1.106-.733 1.522-.353.413-.827.74-1.419.986-.595.247-1.369.371-2.325.371-1.154 0-2.027-.135-2.625-.402-.595-.267-1.066-.614-1.413-1.043-.347-.43-.573-.873-.684-1.346-.159-.694-.239-1.718-.239-3.075v-6.469zm11.584 8.19l2.388-.237c.143.798.433 1.382.868 1.756.438.374 1.027.562 1.771.562.783 0 1.378-.168 1.774-.501.4-.33.598-.722.598-1.167a1.12 1.12 0 00-.251-.733c-.165-.2-.46-.374-.876-.523-.286-.099-.936-.275-1.95-.528-1.309-.328-2.226-.727-2.752-1.206-.744-.666-1.113-1.48-1.113-2.444 0-.617.176-1.198.523-1.737.35-.537.852-.947 1.51-1.228.656-.283 1.446-.424 2.377-.424 1.516 0 2.659.336 3.425 1.01.768.675 1.168 1.57 1.206 2.695l-2.454.086c-.105-.628-.328-1.074-.67-1.35-.341-.272-.854-.41-1.537-.41-.705 0-1.259.147-1.656.438a.898.898 0 00-.388.757c0 .287.124.534.366.735.306.265 1.056.534 2.243.815 1.187.28 2.066.573 2.633.873.571.3 1.014.71 1.336 1.233.323.52.483 1.164.483 1.927 0 .694-.191 1.346-.579 1.952-.386.605-.931 1.056-1.636 1.351-.706.295-1.584.443-2.637.443-1.534 0-2.71-.352-3.531-1.062-.821-.705-1.309-1.735-1.471-3.083zm11.939 3.925V72.386h8.972v2.048h-6.518v2.69h6.061v2.048h-6.061v3.281H243v2.048h-9.209z"/></g><defs><clipPath id="clip0_84_1806"><path fill="#fff" d="M0 0h243v130H0z"/></clipPath></defs></svg>