<svg width="172" height="92" fill="none" xmlns="http://www.w3.org/2000/svg"><g clip-path="url(#clip0_109_196)"><path d="M110.313 14.755c-2.886-5.167-7.207-6.255-7.207-6.255s7.798.157 9.405-8.457c0 0-1.517 2.655-8.695 3.682-1.827.26-3.461 1.02-4.84 1.93a9.195 9.195 0 00-4.143 7.676c.213-.44.482-.871.837-1.268 2.129-2.377 4.991-1.5 6.229 0 1.239 1.5.067 5.922-4.305 3.713 0 0-.565 6.33 7.456 3.087 0 0-.356 1.831 1.25 4.346 1.607 2.517 5.591 4.894 5.591 4.894s.45-9.717-1.578-13.348zm-21.492 4.27v9.495c0 3.855 2.348 7.358 6.012 8.967V13.276c-3.32 0-6.012 2.576-6.012 5.75z" fill="#CBA068"/><path d="M94.85 38.033c0 5.458-4.62 9.884-10.328 9.884-.68 0-1.34-.06-1.985-.183a7.664 7.664 0 01-.047-.9c0-5.38 4.317-9.74 9.637-9.74a9.52 9.52 0 012.706.391c.012.183.018.365.018.548z" fill="#CBA068"/><path d="M32.42 75.973h5.267v3.255h-10.75l5.952-11.526h-4.951v-3.254h10.4l-5.917 11.525zm12.42-5.821h4.716v-5.704h3.268v14.78h-3.268v-6.097H44.84v6.097h-3.268v-14.78h3.268v5.704zm19.986 6.508h-4.668l-.75 2.568h-3.483l4.783-14.78h3.568l4.783 14.78h-3.482l-.75-2.567zm-.868-2.921l-1.466-4.92-1.466 4.92h2.932zm7.636 5.489l2.133-14.78h3.233l2.517 7.88 2.502-7.88h3.233l2.133 14.78h-3.25l-1.085-8.507-2.965 8.507h-1.301l-2.818-8.507-1.084 8.507h-3.248zM98.78 76.66h-4.667l-.75 2.568H89.88l4.783-14.78h3.568l4.783 14.78H99.53l-.75-2.567zm-.867-2.921l-1.466-4.92-1.468 4.92h2.934zm11.468-3.195l3.984-6.096h4.036l-4.986 6.998 5.45 7.782h-4.233l-4.251-6.41v6.41h-3.266v-14.78h3.266v6.096zm19.304 6.116h-4.668l-.75 2.568h-3.483l4.783-14.78h3.567l4.785 14.78h-3.485l-.749-2.567zm-.867-2.921l-1.467-4.92-1.468 4.92h2.935zm10.051-1.608l-4.584-7.683h3.902l2.332 4.039 2.318-4.039h3.9l-4.602 7.683v7.097h-3.266v-7.097zm17.836-4.43h-3.884v2.47h3.668v3.254h-3.668v2.548h3.884v3.255h-7.15v-14.78h7.15v3.254zm6.251-3.253l3.034 8.996 3.05-8.996h3.55l-5.301 14.78h-2.6l-5.284-14.78h3.551zM0 74.854c0-.875.133-1.61.394-2.204.193-.436.46-.83.8-1.176a3.349 3.349 0 011.107-.776c.536-.226 1.152-.339 1.852-.339 1.266 0 2.278.394 3.038 1.177.759.787 1.139 1.878 1.139 3.277 0 1.387-.378 2.474-1.131 3.255-.753.785-1.763 1.175-3.022 1.175-1.278 0-2.293-.388-3.046-1.17C.378 77.297 0 76.224 0 74.854zm1.786-.059c0 .972.226 1.709.675 2.211.45.5 1.02.752 1.712.752s1.26-.25 1.706-.746c.443-.499.665-1.245.665-2.24 0-.984-.217-1.719-.65-2.202-.43-.485-1.004-.726-1.721-.726-.716 0-1.293.245-1.73.734-.437.491-.657 1.23-.657 2.217zm7.895 4.294v-8.574h1.683l3.531 5.745v-5.745H16.5v8.574h-1.735l-3.477-5.636v5.636H9.68zm112.345 9.937l1.689-.168c.101.563.306.976.616 1.243.31.265.727.397 1.252.397.556 0 .975-.119 1.256-.354.282-.236.425-.51.425-.826a.787.787 0 00-.18-.518c-.117-.143-.325-.265-.62-.37-.202-.073-.661-.195-1.38-.375-.924-.231-1.574-.516-1.948-.853-.525-.471-.786-1.048-.786-1.73 0-.436.123-.847.369-1.229.247-.38.602-.67 1.068-.87.466-.2 1.026-.299 1.685-.299 1.072 0 1.881.238 2.422.715.544.475.826 1.11.856 1.907l-1.74.06c-.072-.444-.23-.761-.472-.954-.241-.193-.606-.292-1.09-.292-.499 0-.889.105-1.171.312a.632.632 0 00-.273.535c0 .203.085.376.257.52.218.186.747.378 1.587.577.843.199 1.463.405 1.864.618.404.212.72.502.948.87.226.37.341.825.341 1.366 0 .491-.136.953-.409 1.381a2.463 2.463 0 01-1.159.957c-.501.208-1.123.311-1.868.311-1.084 0-1.918-.249-2.499-.75-.581-.498-.927-1.227-1.04-2.181zm10.378 2.778v-7.125h-2.541V83.23h6.807v1.45h-2.527v7.123h-1.739zm5.391 0V83.23h3.65c.917 0 1.584.078 1.999.232.417.154.749.426.998.82.25.394.377.844.377 1.35 0 .645-.188 1.175-.566 1.596-.378.418-.94.681-1.692.79.374.219.682.458.924.72.244.26.571.726.983 1.392l1.045 1.674h-2.071L142.2 89.93c-.445-.664-.751-1.085-.916-1.258a1.34 1.34 0 00-.523-.355c-.185-.064-.476-.095-.876-.095h-.352v3.58h-1.738zm1.738-4.947h1.283c.83 0 1.349-.035 1.556-.105a.93.93 0 00.485-.364c.117-.172.176-.386.176-.643 0-.29-.078-.522-.232-.701-.155-.178-.371-.29-.652-.335-.14-.02-.563-.03-1.263-.03h-1.353v2.178zm6.918 4.947V83.23h6.351v1.45h-4.614v1.903h4.29v1.447h-4.29v2.324h4.781v1.45h-6.518zm7.992 0V83.23h6.353v1.45h-4.613v1.903h4.289v1.447h-4.289v2.324h4.781v1.45h-6.521zm9.925 0v-7.125h-2.54V83.23h6.807v1.45h-2.529v7.123h-1.738zM99.73 56.639l1.677.514c-.258.945-.687 1.644-1.285 2.104-.601.458-1.36.688-2.28.688-1.14 0-2.076-.39-2.812-1.17-.733-.776-1.101-1.84-1.101-3.192 0-1.426.37-2.536 1.107-3.325.737-.791 1.706-1.187 2.91-1.187 1.05 0 1.903.312 2.558.933.392.367.684.893.879 1.582l-1.714.407c-.101-.444-.314-.794-.635-1.052-.322-.257-.714-.385-1.174-.385-.638 0-1.155.228-1.55.685-.398.454-.595 1.193-.595 2.215 0 1.082.195 1.853.585 2.313.392.46.899.69 1.525.69.46 0 .858-.145 1.189-.439.332-.294.571-.752.716-1.381zm3.213 3.162v-8.502h1.737v7.052h4.304v1.45h-6.041zm7.273-8.574h1.738v4.646c0 .739.021 1.216.064 1.432.074.353.247.635.522.848.279.212.656.317 1.135.317.486 0 .854-.1 1.102-.3.248-.203.394-.448.445-.74.05-.294.076-.78.076-1.457v-4.746h1.737v4.508c0 1.03-.045 1.76-.139 2.184a2.45 2.45 0 01-.518 1.077c-.25.292-.585.524-1.004.697-.422.176-.969.263-1.646.263-.817 0-1.437-.095-1.858-.284-.422-.189-.755-.434-1.001-.738a2.36 2.36 0 01-.483-.953c-.113-.49-.17-1.215-.17-2.176v-4.578zm8.656 0h3.43c.682 0 1.187.027 1.521.084.335.058.633.175.896.352.264.18.484.417.66.715.175.298.263.634.263 1.002 0 .4-.107.77-.324 1.102a1.999 1.999 0 01-.877.752c.52.154.92.413 1.201.78.281.368.419.798.419 1.295 0 .392-.09.771-.271 1.14-.181.37-.429.664-.745.886-.314.22-.702.355-1.162.407-.289.03-.985.05-2.09.059h-2.921v-8.574zm1.737 1.424v1.977h1.135c.673 0 1.092-.011 1.256-.03.296-.034.528-.135.698-.307.171-.169.255-.39.255-.666 0-.265-.074-.479-.22-.645-.146-.165-.365-.264-.651-.298-.172-.021-.665-.03-1.478-.03h-.995zm0 3.401v2.3h1.605c.624 0 1.022-.018 1.189-.053.258-.047.468-.162.63-.343.162-.183.244-.425.244-.73 0-.26-.063-.478-.189-.657a1.05 1.05 0 00-.54-.394c-.236-.082-.751-.122-1.539-.122h-1.4zm10.247 3.749v-8.574h1.737v3.376h3.379v-3.376h1.74v8.574h-1.74v-3.748h-3.379V59.8h-1.737zm8.295-4.236c0-.874.132-1.609.393-2.203.194-.436.463-.83.8-1.176a3.348 3.348 0 011.107-.776c.537-.224 1.153-.339 1.853-.339 1.265 0 2.277.394 3.038 1.177.758.787 1.139 1.878 1.139 3.279 0 1.385-.379 2.472-1.131 3.253-.753.785-1.763 1.176-3.023 1.176-1.277 0-2.293-.39-3.045-1.17-.753-.778-1.131-1.851-1.131-3.22zm1.786-.058c0 .972.226 1.709.674 2.211.451.5 1.022.752 1.712.752.693 0 1.26-.25 1.707-.746.442-.499.664-1.245.664-2.24 0-.984-.216-1.718-.649-2.202-.431-.485-1.004-.726-1.722-.726-.715 0-1.292.245-1.729.734-.437.491-.657 1.23-.657 2.217zm7.895-4.28h1.737v4.646c0 .739.024 1.216.065 1.432.074.353.247.635.524.848.277.212.655.317 1.133.317.485 0 .854-.1 1.102-.3a1.19 1.19 0 00.444-.74c.051-.294.076-.78.076-1.457v-4.746h1.738v4.508c0 1.03-.045 1.76-.139 2.184a2.42 2.42 0 01-.519 1.077c-.249.292-.584.524-1.004.697-.421.176-.969.263-1.645.263-.817 0-1.436-.095-1.859-.284-.421-.189-.754-.434-1-.738a2.35 2.35 0 01-.484-.953c-.113-.49-.169-1.215-.169-2.176v-4.578zm8.199 5.796l1.691-.168c.101.565.306.978.614 1.243.31.265.727.397 1.254.397.553 0 .975-.118 1.255-.354.283-.234.424-.51.424-.826a.795.795 0 00-.178-.518c-.117-.143-.326-.265-.62-.37-.203-.07-.663-.195-1.38-.374-.927-.232-1.576-.515-1.948-.854-.527-.471-.788-1.048-.788-1.73 0-.436.125-.847.37-1.229.248-.38.603-.67 1.069-.869.464-.2 1.024-.3 1.683-.3 1.072 0 1.881.238 2.423.715.544.477.827 1.11.854 1.907l-1.737.06c-.074-.443-.232-.759-.474-.954-.242-.193-.604-.29-1.088-.29-.499 0-.891.103-1.172.31a.657.657 0 00-.015 1.056c.216.187.746.377 1.587.576.84.199 1.462.405 1.864.618.404.212.718.502.946.872.228.369.341.825.341 1.364 0 .491-.135.953-.41 1.381a2.456 2.456 0 01-1.158.957c-.499.208-1.121.313-1.866.313-1.086 0-1.919-.249-2.5-.752-.581-.498-.926-1.227-1.041-2.181zm8.451 2.778v-8.574h6.351v1.45h-4.614v1.903h4.29v1.45h-4.29v2.321H172v1.45h-6.518z" fill="#F7F7F7"/></g><defs><clipPath id="clip0_109_196"><path fill="#fff" d="M0 0h172v92H0z"/></clipPath></defs></svg>