<svg width="133" height="163" fill="none" xmlns="http://www.w3.org/2000/svg"><path d="M74.45 27.652l.54.832s0 0 0 0h0v.001l-.002.002-.01.008-.041.035-.168.147c-.149.131-.369.33-.65.598a44.52 44.52 0 00-2.356 2.43c-1.963 2.172-4.606 5.455-7.315 9.888-5.416 8.863-11.098 22.325-12.126 40.7-.35 6.403 1.142 14.603 3.6 23.334 2.455 8.721 5.864 17.931 9.32 26.34 3.456 8.407 6.957 16.005 9.593 21.502a384.583 384.583 0 004.01 8.116l.199-.318c.426-.682 1.037-1.678 1.777-2.931a169.76 169.76 0 005.535-10.153c4.125-8.237 8.482-18.737 9.508-27.915v-.001c1.051-9.147-.122-16.081-1.55-20.716-.713-2.319-1.491-4.064-2.088-5.226-.298-.58-.55-1.015-.727-1.303a10.556 10.556 0 00-.256-.397l-.012-.017-.003-.004h0l-.54-.755.928-.035c13.116-.497 21.639-3.031 27.064-6.5 5.407-3.458 7.766-7.86 8.533-12.194.772-4.353-.06-8.667-1.1-11.913a33.338 33.338 0 00-1.904-4.69c-4.408 5.61-8.853 8.587-13.048 9.656-4.356 1.11-8.379.147-11.709-1.953-3.322-2.094-5.96-5.32-7.59-8.766-1.628-3.44-2.279-7.157-1.545-10.239 1.414-5.965 5.537-12.092 11.601-15.7 6.086-3.62 14.099-4.687 23.225-.557l.002.001c2.344 1.07 4.449 2.387 6.362 3.82-8.334-16.286-23.744-27.937-41.848-30.98l-.001-.001C79.746.1 68.805-.037 58.217 3.076c-21.103 6.27-35.564 6.579-44.772 5.302C8.84 7.74 5.552 6.706 3.406 5.824a25.062 25.062 0 01-1.167-.513C17.76 26.274 35.536 31.967 49.551 32.383c7.217.214 13.449-.972 17.877-2.211a53.127 53.127 0 005.179-1.73 34.843 34.843 0 001.729-.736l.054-.026.033-.016.021-.01.005-.002h.001z" stroke="#D1D1D1"/></svg>