<svg width="94" height="93" fill="none" xmlns="http://www.w3.org/2000/svg"><path d="M68.984 50.59c.154 1.035.26 2.08.478 3.088.39 1.867.884 3.698 1.273 5.556.495 2.376.284 4.706-.527 6.98-.43 1.193-.81 2.422-1.192 3.643-.073.24-.065.527-.065.786v5.5h-44.9c0-1.84 0-3.67-.008-5.5 0-.26.008-.546-.065-.786-.381-1.239-.746-2.487-1.184-3.698-.82-2.256-1.022-4.567-.527-6.925.39-1.858.876-3.689 1.273-5.547.21-1.017.316-2.062.478-3.088m1.087-3.569c-.292-.906-.722-1.257-1.29-1.081-.462.148-.786.6-.786 1.109.008.518.325.98.787 1.11.194.055.397.055.6.055h44.186c.17 0 .341.01.511-.028.511-.12.86-.61.852-1.156-.008-.554-.39-1.035-.884-1.127-.454-.084-.9.25-1.079.795a5.3 5.3 0 00-.105.332m-41.81 26.738h40.796M36.823 50.59c-.292 2.949-.625 5.843-.876 8.755a22.205 22.205 0 00-.024 3.365c.097 1.35.308 2.681.486 4.022.106.804.227 1.609.34 2.404m19.47 0c.041-.139.074-.25.09-.38.227-1.663.495-3.328.665-5.001.114-1.202.186-2.422.122-3.624-.122-2.034-.381-4.059-.576-6.084-.114-1.146-.22-2.302-.333-3.476m-24.781 0c-.016.065-.033.111-.04.167-.398 2.662-.812 5.325-1.168 7.997-.163 1.23-.414 2.515-.252 3.716.3 2.256.86 4.475 1.314 6.666m30.41.01c.315-1.332.632-2.635.932-3.939.405-1.71.697-3.43.397-5.214-.284-1.71-.584-3.412-.843-5.131-.22-1.406-.39-2.839-.584-4.263m-19.332 0c-.373 6.195-.763 12.352 0 18.537m5.311-18.546v18.555m19.365.019c.357-.98.648-1.932 1.038-2.82 1.046-2.468 1.24-4.992.551-7.636-.47-1.831-.876-3.69-1.257-5.557-.17-.823-.219-1.692-.316-2.56m-40.878.018c-.073.665-.09 1.303-.211 1.923a260.871 260.871 0 01-1.297 5.917c-.503 2.126-.738 4.243-.009 6.36.495 1.452 1.022 2.894 1.541 4.355m7.185-23.289V18H59.73v27.865" stroke="#D09A5D" stroke-width="1.5" stroke-miterlimit="10"/><path d="M45.452 20.33H35.308v10.4h10.144v-10.4zm12.236.018H47.544V30.75h10.145v-10.4zM45.452 33.126H35.308v10.4h10.144v-10.4zm12.236.009H47.544v10.4h10.145v-10.4z" stroke="#D09A5D" stroke-width="1.5" stroke-miterlimit="10"/></svg>