<svg width="299" height="334" fill="none" xmlns="http://www.w3.org/2000/svg"><path d="M76.527 166.548S13.13 167.926 0 94.59c0 0 12.332 22.632 70.725 31.336 14.87 2.249 28.216 8.705 39.387 16.466 21.326 14.726 33.731 39.244 33.731 65.212-1.814-3.699-3.99-7.399-6.891-10.808-17.264-20.166-40.621-12.694-50.632 0-10.082 12.767-.508 50.414 35.036 31.627 0 0 4.643 53.823-60.714 26.258 0 0 2.974 15.596-10.083 36.922-13.13 21.471-45.482 41.637-45.482 41.637s-3.7-82.621 12.767-113.522c23.575-43.958 58.683-53.17 58.683-53.17zm145.945 0S285.87 167.926 299 94.59c0 0-12.404 22.632-70.797 31.336-14.798 2.249-28.145 8.705-39.316 16.466-21.326 14.726-33.73 39.244-33.73 65.212 1.741-3.699 3.917-7.399 6.818-10.808 17.264-20.166 40.622-12.694 50.632 0 10.083 12.767.581 50.414-34.963 31.627 0 0-4.643 53.823 60.642 26.258 0 0-2.902 15.596 10.155 36.922 13.057 21.471 45.409 41.637 45.409 41.637s3.699-82.621-12.767-113.522c-23.502-43.958-58.611-53.17-58.611-53.17zm-72.899-28.363l1.016 1.016c38.445-38.446 38.445-100.756 0-139.201l-1.016 1.016c-37.864 37.864-37.864 99.304 0 137.169z" opacity=".1" fill="#8B8B8B"/></svg>