<svg width="94" height="93" fill="none" xmlns="http://www.w3.org/2000/svg"><path d="M29.945 35.317l-.128-.497m-.001 0l-.173-.759m0-.001l-.1-.27m-.001.007l-.12-.263m.003 0l-.21-.27m-.002-.008l-.557-.414m.001 0l-.959-.361m0 0l-.375-.112m0 .007l-.365-.09m.009 0l-.384-.068m-.001 0l-1.49-.15m.011 0L23.075 32m-.009 30l.84-.015m.009-.008l.685-.037m-.008 0l.658-.06m0 0l.758-.106m-.001 0l.749-.12m0 .007l.648-.142m.001 0l.475-.12m.009-.001l.054-.022m.001.007l.393-.143m0 0l.64-.413m-.001-.007l.301-.414m0 0l.658-1.414m-.008-.008l.045-.203m.009 0l.064-.481m.001 0l.055-.293m-.011-.008l.02-.324m.007 0l.028-.413m0 .008v-3.234m0 0v-.707m0-.008v-.564m0-.572l-.658.106m.065.24l.11.12m-.112-.119l-.054-.241m.477.466l.073.008m-.266-.068l.192.052m-.312-.097l.128.045m.092.038v-.008m.266.03h-.1m.099 0h.083m.009-.007l.22-.053m-.001 0l.091-.038m0 .001l.237-.129m.01.008l.137-.09m-.001 0l.147-.158m-.009-.001l.064-.263m.008 0l-.986.158m-.009 0V46.08m0-.001v-7.01m0-.007V37.55m.001 0l-.01-.616m0 .007l-.028-.443m-.008-.038l-.156-1.143m.156 2.166v-.03m-13.903-2.136l.128-.497m-.001 0l.183-.759m-.008-.001l.1-.27m-.009.007l.119-.263m.008 0l.21-.27m0-.008l.557-.414m.001 0l.95-.361m0 0l.374-.112m.001.007l.365-.09m0 0l.383-.068m-.008 0l1.489-.15m-.001 0L23.075 32m-.009 30l-.85-.015m.01-.008l-.685-.037m-.001 0l-.657-.06m-.001 0l-.758-.106m0 0l-.749-.12m.01.007l-.658-.142m.001 0l-.475-.12m-.001-.001l-.055-.022m0 .007l-.392-.143m-.002 0l-.639-.413m0-.007l-.302-.414m.001 0l-.648-1.414m-.009-.008l-.046-.203m0 0l-.055-.481m-.008 0l-.055-.293m-.002-.008l-.017-.324m-.009 0l-.028-.413m0 .008v-3.234m0 0v-.707m0-.008v-.564m0-.572l.658.106m-.064.24l-.11.12m.111-.119l.055-.241m-.467.466l-.073.008m.256-.068l-.192.052m.32-.097l-.128.045m-.101.038v-.008m-.265.03h.1m-.1 0h-.082m.001-.007l-.22-.053m-.009 0l-.091-.038m-.002.001l-.237-.129m.002.008l-.137-.09m-.001 0l-.146-.158m0-.001L15 52.028m0-.001l.987.158m-.001 0V46.08m0-.001v-7.01m0-.007V37.55m0 0l.01-.616m-.001.007l.028-.443m.008-.001v-.038m0 .001l.156-1.143m38.066 0l-.128-.497m.001 0l-.174-.759m-.001-.001l-.1-.27m0 .007l-.119-.263m.001 0l-.21-.27m0-.008l-.557-.414m-.001 0l-.96-.361m0 0l-.374-.112m-.001.007l-.365-.09m.009 0l-.383-.068m0 0l-1.489-.15m.008 0L47.384 32m-.001 30l.84-.015m0-.008l.685-.037m-.008 0l.657-.06m.001 0l.758-.106m0 0l.75-.12m-.001.007l.658-.142m-.001 0l.475-.12m.001-.001l.055-.022m-.001.007l.393-.143m0 0l.639-.413m.001-.007l.302-.414m-.001 0l.658-1.414m-.01-.008l.046-.203m.01 0l.063-.481m0 0l.055-.293m.002-.008l.018-.324m-.001 0l.036-.413m-.001.008v-3.234m-.009 0v-.707m0-.008v-.564m.01-.572l-.657.106m.054.24l.1.12m-.1-.119l-.063-.241m.483.466l.083.008m-.275-.068l.192.052m-.31-.097l.128.045m.1.038v-.008m.265.03h-.11m.109 0h.082m.001-.007l.22-.053m-.001 0l.091-.038m0 .001l.237-.129m.01.008l.138-.09m-.002 0l.147-.158m-.009-.001l.064-.263m.009 0l-.987.158m0 0V46.08m-.009-.001v-7.01m.009-.007V37.55m.001 0l-.019-.616m.001.007l-.027-.443m-.008-.038l-.156-1.143m.164 2.166v-.03m-13.913-2.136l.128-.497m0 0l.182-.759m-.008-.001l.1-.27m-.001.007l.119-.263m0 0l.201-.27m.01-.008l.558-.414m-.001 0l.95-.361m-.001 0l.375-.112m0 .007l.366-.09m-.001 0l.384-.068m-.009 0l1.49-.15m0 0L47.384 32m-.001 30l-.85-.015m.001-.008l-.685-.037m-.001 0l-.658-.06m.002 0l-.758-.106m0 0l-.75-.12m.009.007l-.658-.142m.001 0l-.476-.12m0-.001l-.055-.022m0 .007l-.393-.143m.001 0l-.64-.413m0-.007l-.301-.414m-.001 0l-.648-1.414m0-.008l-.055-.203m.001 0l-.055-.481m-.01 0l-.054-.293m0-.008l-.018-.324m-.002 0l-.027-.413m-.009.008v-3.234m0 0v-.707m0-.008v-.564m0-.572l.658.106m-.054.24l-.11.12m.11-.119l.054-.241m-.474.466l-.073.008m.255-.068l-.192.052m.32-.097l-.12.045m-.108.038v-.008m-.266.03h.1m-.1 0h-.082m0-.007l-.219-.053m-.009 0l-.091-.038m0 .001l-.238-.129m.001.008l-.137-.09m-.001 0l-.146-.158m-.001-.001l-.063-.263m0 0l.986.158m0 0V46.08m0-.001v-7.01m0-.007V37.55m0 0l.01-.616m.009.007l.027-.443m0-.001v-.038m0 .001l.165-1.143m37.298 0l-.128-.497m0 0l-.174-.759m.001-.001l-.1-.27m-.001.007l-.119-.263m-.001 0l-.2-.27m-.009-.008l-.557-.414m-.002 0l-.95-.361m.001 0l-.383-.112m.001.007l-.366-.09m.009 0l-.384-.068m-.001 0l-1.48-.15m.002 0L70.925 32m.009 30l.84-.015m0-.008l.686-.037m-.001 0l.649-.06m-.001 0l.759-.106m-.001 0l.75-.12m-.001.007l.658-.142m.001 0l.475-.12m0-.001l.046-.022m.009.007l.393-.143m-.001 0l.64-.413m-.001-.007l.301-.414m.001 0l.648-1.414m.01-.008l.046-.203m-.001 0l.055-.481m.009 0l.055-.293m0-.008l.018-.324m0 0l.036-.413m.002.008v-3.234m0 0v-.707m0-.008v-.564m-.001-.572l-.657.106m.063.24l.1.12m-.099-.119l-.064-.241m.474.466l.073.008m-.264-.068l.192.052m-.311-.097l.127.045m.101.038v-.008m.265.03h-.1m.101 0h.082m0-.007l.219-.053m0 0l.1-.038m-.009.001l.238-.129m.008.008l.147-.09m-.009 0l.137-.158m.009-.001l.063-.263m.001 0l-.986.158m0 0V46.08m0-.001v-7.01m0-.007V37.55m-.002 0l-.018-.616m0 .007l-.027-.443m0-.038l-.164-1.143m.164 2.166v-.03m-13.913-2.136l.128-.497m.001 0l.182-.759m-.009-.001l.1-.27m.001.007l.119-.263m-.001 0l.201-.27m.009-.008l.558-.414m-.001 0l.95-.361m.001 0l.384-.112m0 .007l.365-.09m-.01 0l.375-.068m-.001 0l1.49-.15m.001 0L70.934 32m-.001 30l-.85-.015m0-.008l-.686-.037m.001 0l-.648-.06m0 0l-.758-.106m-.01 0l-.749-.12m.011.007l-.658-.142m-.002 0l-.475-.12m.001-.001l-.054-.022m-.001.007l-.383-.143m-.01 0l-.64-.413m.001-.007l-.301-.414m0 0l-.649-1.414m0-.008l-.054-.203m-.001 0l-.055-.481m-.01 0l-.055-.293m.002-.008l-.02-.324m.002 0l-.027-.413m-.009.008v-3.234m0 0v-.707m0-.008v-.564m0-.572l.657.106m-.055.24l-.11.12m.108-.119l.055-.241m-.474.466l-.073.008m.266-.068l-.193.052m.31-.097l-.12.045m-.099.038v-.008m-.272.03h.1m-.102 0h-.082m.001-.007l-.22-.053m-.001 0l-.09-.038m-.009.001l-.238-.129m-.001.008l-.137-.09m0 0l-.146-.158m.001-.001l-.064-.263m0 0l.987.158m.001 0V46.08m0-.001v-7.01m0-.007V37.55m0 0l.018-.616m-.001.007l.028-.443m.007-.001v-.038m0 .001l.165-1.143" stroke="#D09A5D" stroke-width="1.5" stroke-miterlimit="10"/></svg>