<svg width="59" height="58" fill="none" xmlns="http://www.w3.org/2000/svg"><g clip-path="url(#clip0_83_1074)"><path d="M1 57.655h57" stroke="#D09A5D" stroke-miterlimit="10"/><path d="M57.814 31.997c-.16-.31-.416-.31-.69-.194-.231.097-.452.212-.71.212-.044-.026-.088-.053-.035-.115.08-.088.195-.177.116-.31-.116-.15-.24-.026-.363 0-.31.053-.62.124-.93.16-.283.035-.531.106-.7.327-.15.213-.336.257-.575.24-1.23-.09-2.453-.169-3.683-.249-.62.08-1.142-.062-1.603-.549-.248-.274-.434-.53-.549-.876-.124-.38-.345-.708-.575-1.036-.275-.372-.664-.602-.956-.938.469-.346.965-.443 1.523-.24.38.142.77.302 1.195.213.168-.018.177-.142.15-.257-.062-.319.036-.593.15-.876.063-.018.116-.045.178-.062.142-.115.07-.23.026-.346l-.186-.549c.027-.07.054-.132.08-.194v-.346c-.15-.876-.637-1.47-1.487-1.735-.965-.292-1.709-.08-2.258.62-.15.274-.195.575-.16.894 0 .044 0 .089-.008.133-.186 0-.372 0-.558.009-.168.009-.23-.071-.239-.24-.088-1.38-.814-2.381-1.93-3.125-.38-.248-.708-.549-.939-.947-.416-.69-.761-1.443-1.257-2.072-.912-1.168-2.036-2.16-3.187-3.099a2.856 2.856 0 01-.85-1.124c-.283-.62-.85-.939-1.399-1.257-.186-.106-.443-.071-.655-.018-.319.089-.354.248-.168.522.194.275.46.487.549.842-.337-.018-.567-.443-.93-.169-.062.177.097.186.186.248.203.16.434.284.549.532.292.389.664.637 1.177.61.204-.017.257.15.346.275 1.018 1.567 1.885 3.231 3.178 4.604.115.115.195.265.275.398.637 1.071 1.275 2.143 1.903 3.214-.088.053-.195.097-.221.221v.027c-.053 0-.115.009-.15.062-.16.009-.293.097-.443.16-.797.336-1.541.77-2.364 1.026-1.258.39-2.488.85-3.772 1.134-.106-.417-.372-.726-.638-1.036.62-.098 1.24-.124 1.86.026.141.036.283.062.425-.009.274-.088.265-.345.319-.557.159-.089.053-.222.07-.337l.071-.088c-.018-.071-.026-.142-.044-.213.044-.044.08-.08.124-.133.009 0 .017 0 .017-.009-.07-.407-.132-.805-.203-1.212a1.176 1.176 0 01-.062-.16c-.044-.106-.089-.221-.142-.336-.203-.62-.717-.877-1.301-1.01-1.169-.274-1.86.045-2.214 1.01-.062.08-.124.15-.256.115a.555.555 0 00-.478.124c-.142.106-.107.239-.054.372-.026.009-.062.017-.088.026-.036-.026-.08-.044-.115-.07.017-.08-.018-.16-.044-.24-.248-.575-.594-1.062-1.134-1.399-.735-.46-1.47-.912-2.107-1.505-.186-.16-.336-.38-.593-.451-.372-.222-.638-.558-.956-.841-.266-.23-.523-.443-.903-.54-1.417-.346-2.869-.399-4.33-.47-.92-.044-1.833-.097-2.62-.779-.567-.496-1.302-.805-1.957-1.195-.275-.044-.567-.035-.673.257-.115.265-.027.54.204.743.15.133.274.284.407.434.115.39.46.576.744.824.549.487 1.336.469 1.877.938 1.08.319 2.177.611 3.24.956 2.267.735 1.824.293 3.47 2.515l.054.106c-.018.089.017.142.07.186a.408.408 0 00-.203.142c-.797.239-1.603.46-2.39.708-1.568.487-3.17.885-4.631 1.682-.797.443-1.673.815-2.24 1.594-.186.398-.398.814-.38 1.248.026.894-.284 1.691-.585 2.497-.027.08-.053.16-.08.248-.239.496-.469 1-.708 1.496-.61 1.257-1.505 2.116-2.94 2.355a7.548 7.548 0 00-2.08.638c-1.178.575-2.09 1.478-3.09 2.284-.912.735-1.788 1.576-3.125 1.292-.32-.07-.408.186-.425.443-.062.886-.257 1.727-.682 2.515-.407.734-.487 1.531-.434 2.346.027.416.23.505.629.363.469-.168.681-.567.912-.956.788-1.32 1.708-2.524 3.036-3.347.726-.443 1.541-.69 2.338-1 1.753-.691 3.559-1.293 5.232-2.187.036-.018.08-.027.115-.045.665-.31 1.293-.7 1.86-1.186a.825.825 0 00.38-.195c.452-.327.841-.726 1.204-1.15.682-.815 1.249-1.718 1.833-2.604.15-.239.301-.283.55-.141.61.336 1.23.646 1.823.974.726.398 1.434.823 2.072 1.345.292.168.513.425.823.558-.221.062-.407.195-.62.274a7.258 7.258 0 00-2.974 2.063c-.346.399-.7.797-1.116 1.125-.894.7-1.797 1.363-3.02 1.284-.424-.08-.645.15-.77.504-.114.328-.15.664-.185 1-.115.54-.408.975-.806 1.346-.62.594-.832 1.337-.877 2.152-.017.363.08.443.443.363.354-.07.62-.292.886-.523.947-.85 1.965-1.61 2.974-2.39.142-.177.346-.283.54-.407 1.93-1.213 3.967-2.258 5.941-3.391.01-.009.044.009.089.017-.248.638-.213 1.302-.292 1.957-.107.806-.186 1.611-.284 2.417-.23.213-.274.54-.451.78-.036.088-.071.176-.107.256-.283.69 0 1.071.744 1.027.532-.035 1.063-.088 1.585.027.859.186 1.709.141 2.576.124.32-.01.381-.16.204-.434-.053-.08-.15-.142-.221-.221-.24-.248-.567-.337-.877-.443a4.84 4.84 0 01-1.496-.894c-.186-.178-.24-.372-.16-.611a21.265 21.265 0 011.48-3.382c.14-.32.3-.647.433-.974.274-.664.682-1.275.903-1.966l.053-.026c1.169-.691 2.364-1.355 3.55-2.055.46-.265.895-.336 1.39-.15 1.001.363 1.966.797 2.949 1.213.38.168.743.407 1.186.434.213.097.434.186.646.274-.061.346-.354.514-.54.77-.504.718-.973 1.426-1.186 2.311-.38 1.691-.531 3.48-1.709 4.896-.186.23-.274.558-.062.86.204.3.487.274.78.247l.239-.026c.451-.018.903-.107 1.345.008 1.098.178 2.187.222 3.294.169.16-.01.327.035.46-.089.15-.124.053-.257 0-.39-.106-.212-.3-.336-.496-.424-.416-.186-.84-.355-1.266-.532-.336-.097-.61-.292-.876-.522-.319-.275-.39-.602-.23-.992.141-.318.336-.602.522-.885.345-.558.752-1.08.992-1.7.15-.239.3-.47.451-.7.69-1.115 1.452-2.195 2.045-3.355h.01c.114-.274.026-.487-.151-.7-.69-.885-1.47-1.7-2.364-2.399a.245.245 0 00-.115-.186c-.7-.504-1.381-1.027-2.16-1.399.894-.07 1.797-.123 2.682-.274.142-.026.292-.026.398-.15.452-.071.912-.133 1.373-.204a.75.75 0 01.655.168c1.213.939 2.452 1.86 3.657 2.807.593.46 1.204.779 1.965.69 1.727-.203 3.453-.487 5.188-.62.753-.053 1.505-.177 2.17-.602.123-.035.194-.141.265-.238.221-.31.584-.567.443-1.027zm-10.81-7.587h.008c.027.044-.062.009-.009 0zm-13.122-.558c-.009-.009-.017 0-.035-.009.017 0 .026 0 .044.01h-.009zm-9.473 5.321c.31-.141.628-.283.965-.363.646-.203 1.319-.257 1.992-.319 1.363-.132 2.612.142 3.745.912.097.062.195.15.319.16-.319.434-.443.92-.416 1.452-.098 0-.16.088-.23.15-.673.638-1.382 1.23-2.046 1.877-.3.301-.372.301-.646.01a41.204 41.204 0 00-3.037-2.79c-.23-.177-.47-.345-.717-.513-.416-.293-.416-.346.07-.576zm2.647 5.498c-.009 0-.018.01-.027.018v-.044l.027.026zm9.03-5.144a.271.271 0 01-.061-.044h.07c-.008.018-.008.035-.008.044zM29.871 46.03h-6.94c-.063.018-.125.027-.178.063-.204.132-.363.345-.301.557.044.169.301.08.47.08 1.15.018 2.301.018 3.452.027 1.665 0 3.32 0 4.985-.01.549 0 .717-.132.859-.716H29.87z" fill="#D09A5D"/><path d="M17.494 38.841a6.432 6.432 0 00-.15-.372c-.107-.053-.142-.203-.275-.203-.017.018-.044.035-.053.062l-3.532 7.703a.627.627 0 00-.01.504c.063.15.178.31.328.328.142.017.16-.186.204-.301.744-1.62 1.496-3.232 2.222-4.852.425-.956.912-1.886 1.266-2.869zm19.629 7.278h-2.116c-.319 0-.531.212-.54.478-.009.328.31.097.47.16.044.026.105.008.159.008l8.685.01c.275-.134.47-.32.398-.665-2.355.009-4.7.009-7.056.009zM3.93 38.85c.098-.363.23-.717-.186-.983-.177-.115-.239-.097-.292.107-.088.398-.203.788-.31 1.186l-.08.16C2.533 41.204 2 43.09 1.47 44.967c-.106.39-.221.77-.3 1.151a.473.473 0 00.362.584c.24.062.186-.256.257-.407.044-.088.062-.204.088-.301.664-2.328 1.32-4.657 1.984-6.985.026-.054.053-.107.07-.16z" fill="#D09A5D"/></g><defs><clipPath id="clip0_83_1074"><path fill="#fff" transform="translate(.5)" d="M0 0h58v58H0z"/></clipPath></defs></svg>