<svg width="94" height="93" fill="none" xmlns="http://www.w3.org/2000/svg"><path d="M52.245 51.205c-1.889 0-3.742.009-5.594-.01-.173-.009-.39-.172-.527-.317-2.616-2.97-5.885-4.169-9.736-3.279-3.768.872-6.22 3.333-7.229 7.075-1.516 5.63 2.525 11.452 8.283 12.051 3.524.363 6.402-.844 8.71-3.505.108-.127.28-.282.426-.282 1.88-.027 3.769-.018 5.685-.018v11.67H25V20h27.245v31.205zM38.686 23.878h-8.482c-1.008 0-1.344.336-1.344 1.353v16.774c0 1.062.327 1.39 1.38 1.39 5.585.008 11.18 0 16.774 0 1.044 0 1.371-.328 1.371-1.381V25.24c0-1.026-.336-1.362-1.344-1.362h-8.355v0z" stroke="#D09A5D" stroke-width="1.5" stroke-miterlimit="10"/><path d="M71.787 51.35v11.416H38.729c-2.061 0-3.75-2.089-3.995-4.932-.255-3.033 1.053-5.712 3.115-6.384.236-.082.481-.1.726-.1h33.212zm7.793 0h-7.192v11.416h7.192V51.35z" stroke="#D09A5D" stroke-width="1.5" stroke-miterlimit="10"/></svg>