<svg width="26" height="26" fill="none" xmlns="http://www.w3.org/2000/svg"><g clip-path="url(#clip0_83_1166)" fill="#fff"><path d="M.38 8.938A.38.38 0 010 8.556V7.112c0-.21.17-.38.38-.38h.785l1.91-3.463c.237-.43.904-.062.667.368L2.038 6.725h17.31c.481 0 .48.768 0 .768H.762v.683h24.476v-.683H22.04c-.482 0-.48-.768 0-.768h1.92L20.713.762H5.328l-.577 1.047c-.238.43-.905.062-.667-.368L4.77.197A.38.38 0 015.103 0H20.94a.38.38 0 01.335.199L24.83 6.73h.79c.21 0 .38.17.38.381v1.445c0 .21-.17.38-.38.38h-.711v12.716A2.138 2.138 0 0126 23.515v2.104a.38.38 0 01-.38.381H.38a.38.38 0 01-.38-.38v-2.105c0-.799.44-1.496 1.091-1.862V8.938h-.71zm24.858 14.577c0-.758-.616-1.374-1.374-1.374h-2.177c-.758 0-1.375.616-1.375 1.374v1.723h4.926v-1.723zm-7.922 1.723v-3.86h-1.625v3.86h1.625zm-7.033 0v-3.86H8.658v3.86h1.625zm-9.521 0h4.925v-1.723c0-.758-.616-1.374-1.374-1.374H2.136c-.758 0-1.374.616-1.374 1.374v1.723zm1.091-3.84c.093-.012.187-.02.283-.02h2.177c1.178 0 2.136.959 2.136 2.137v1.723h1.447v-4.24c0-.21.17-.38.381-.38h2.387c.21 0 .38.17.38.38v4.24h1.575v-2.031c0-.491.762-.491.762 0v2.031h1.549v-4.24c0-.21.17-.38.38-.38h2.387c.21 0 .381.17.381.38v4.24h1.473v-1.723c0-1.178.958-2.136 2.136-2.136h2.177c.096 0 .19.007.283.02V8.936H13.38V20.82c0 .492-.762.492-.762 0V8.937H1.853v12.461z"/><path d="M9.378 1.537c.865 0 1.57.704 1.572 1.569l.028 1.958h.434c.491 0 .491.762 0 .762H7.378c-.491 0-.491-.762 0-.762h.428V3.11c0-.867.705-1.572 1.572-1.572zm.81 1.578v-.006a.81.81 0 00-1.62 0v1.955h1.648l-.028-1.95zm6.655-1.578c.865 0 1.57.704 1.571 1.569l.029 1.958h.434c.49 0 .49.762 0 .762h-4.034c-.492 0-.492-.762 0-.762h.428V3.11c0-.867.705-1.572 1.572-1.572zm.81 1.578v-.006a.81.81 0 00-1.62 0v1.955h1.648l-.028-1.95zm-2.317 7.143h2.387c.21 0 .38.17.38.38v3.098a.38.38 0 01-.38.381h-2.387a.38.38 0 01-.38-.38v-3.098c0-.21.17-.381.38-.381zm.38 3.098h1.626V11.02h-1.625v2.335zm4.038-3.098h2.387c.21 0 .38.17.38.38v3.098a.38.38 0 01-.38.381h-2.387a.38.38 0 01-.381-.38v-3.098c0-.21.17-.381.38-.381zm.38 3.098h1.626V11.02h-1.625v2.335zm-4.798 2.082h2.387c.21 0 .38.17.38.38v3.098c0 .21-.17.38-.38.38h-2.387a.38.38 0 01-.38-.38v-3.098c0-.21.17-.38.38-.38zm.38 3.097h1.626V16.2h-1.625v2.336zm4.038-3.097h2.387c.21 0 .38.17.38.38v3.098c0 .21-.17.38-.38.38h-2.387a.38.38 0 01-.381-.38v-3.098c0-.21.17-.38.38-.38zm.38 3.097h1.626V16.2h-1.625v2.336zM6.246 14.117H3.86a.38.38 0 01-.38-.38v-3.098c0-.21.17-.381.38-.381h2.387c.21 0 .38.17.38.38v3.098a.38.38 0 01-.38.381zm-.38-3.098H4.24v2.336h1.625V11.02zm4.798 3.098H8.277a.38.38 0 01-.38-.38v-3.098c0-.21.17-.381.38-.381h2.387c.21 0 .38.17.38.38v3.098a.38.38 0 01-.38.381zm-.38-3.098H8.657v2.336h1.625V11.02zm-4.038 8.278H3.86a.38.38 0 01-.38-.381v-3.098c0-.21.17-.38.38-.38h2.387c.21 0 .38.17.38.38v3.098c0 .21-.17.38-.38.38zm-.38-3.098H4.24v2.336h1.625V16.2zm4.798 3.098H8.277a.38.38 0 01-.38-.381v-3.098c0-.21.17-.38.38-.38h2.387c.21 0 .38.17.38.38v3.098c0 .21-.17.38-.38.38zm-.38-3.098H8.657v2.336h1.625V16.2z"/></g><defs><clipPath id="clip0_83_1166"><path fill="#fff" transform="matrix(-1 0 0 1 26 0)" d="M0 0h26v26H0z"/></clipPath></defs></svg>