<svg width="94" height="93" fill="none" xmlns="http://www.w3.org/2000/svg"><path d="M67.535 36.253c.723.147 1.612-.247 2.125.532.229.357.284.87.33 1.32.064.595-.165 1.136-.733 1.346-.477.174-1.017.165-1.585.239v29.956c.302 0 .595-.01.88 0 1.025.037 1.474.605 1.447 1.86-.01.944-.55 1.485-1.502 1.485h-24.33c-5.816 0-11.642-.01-17.459.009-.622 0-1.181-.11-1.474-.706-.312-.65-.321-1.347.027-1.997.284-.523.788-.66 1.356-.651h.778V39.653c-.705-.137-1.603.21-2.042-.587-.22-.394-.32-.925-.293-1.393.1-1.63 1.392-1.346 2.418-1.392.183-1.228.302-2.42.522-3.593 1.566-8.174 8.418-14.662 16.671-15.789.376-.055.495-.229.65-.522.33-.623.633-1.274 1.09-1.805.642-.761 1.585-.761 2.227-.01.458.532.769 1.183 1.08 1.815.156.293.275.467.65.522 8.556 1.2 15.454 7.963 16.81 16.486.146.944.238 1.897.357 2.868zm-8.3.01a23.58 23.58 0 00-.906-6.25c-.934-3.235-2.4-6.177-4.983-8.422-2.3-1.989-4.928-2.85-7.942-2.034-2.363.641-4.15 2.153-5.597 4.068-2.299 3.061-3.426 6.58-3.856 10.346-.083.752-.1 1.512-.156 2.282h6.513c0-.247-.01-.458 0-.678.064-3.345.311-6.68.962-9.97.366-1.842.833-3.657 1.676-5.343.174-.375.458-.605.861-.412.421.21.357.559.202.935-.275.65-.587 1.3-.788 1.97-1.328 4.325-1.667 8.77-1.731 13.26 0 .082.036.165.054.238h8.016c0-.238.009-.43 0-.632-.138-2.209-.211-4.435-.458-6.635-.33-2.831-.806-5.654-2.089-8.256-.174-.358-.165-.697.23-.88.375-.174.686 0 .833.366.32.78.678 1.54.934 2.328 1.063 3.446 1.456 7.001 1.64 10.584.045 1.036 0 2.062 0 3.134h6.586zm7.109 0c-.11-.917-.165-1.788-.312-2.64-1.483-8.449-7.932-14.57-16.451-15.642-.403-.046-.605-.23-.742-.596-.201-.54-.412-1.09-.705-1.586-.44-.77-.788-.76-1.228.019a8.04 8.04 0 00-.678 1.484c-.137.44-.366.633-.833.688-8.427 1.035-15.004 7.33-16.397 15.706-.137.834-.192 1.687-.284 2.557h5.845c.027-.064.055-.1.055-.128a2.72 2.72 0 00.027-.385c.092-2.465.504-4.875 1.319-7.212 1.1-3.18 2.73-6.03 5.414-8.165 2.198-1.75 4.68-2.602 7.52-2.172 2.638.404 4.736 1.796 6.458 3.757 2.849 3.217 4.24 7.075 4.827 11.263.138.999.192 2.016.293 3.051h5.872zM50.9 69.618v-6.782c0-4.307.01-8.614 0-12.92 0-1.494-.687-2.603-2.043-3.217-2.226-1.027-4.699.641-4.708 3.152-.018 6.46-.01 12.912 0 19.373 0 .119.018.238.037.394H50.9zm12.98 0c.009-.202.027-.358.027-.523V49.898a3.56 3.56 0 00-.073-.76c-.339-1.66-1.914-2.887-3.508-2.731-1.878.174-3.17 1.594-3.17 3.519-.009 6.377-.009 12.765-.009 19.143v.55h6.733zm-25.978 0V57.064c0-2.4.01-4.802-.01-7.203-.018-2.18-1.923-3.793-3.993-3.4-1.603.303-2.748 1.687-2.757 3.391v19.253c0 .156.018.321.037.514h6.723zm28.506-29.957H54.656V69.61h1.319V49.99c0-1.723.66-3.125 2.125-4.05 1.465-.935 3.041-1 4.57-.175 1.585.843 2.41 2.236 2.419 4.05.018 6.379 0 12.766 0 19.153v.641h1.319V39.662zM40.394 69.61V39.653H28.65V69.59h1.31v-.751c0-6.35-.009-12.692 0-19.043a4.568 4.568 0 015.716-4.435c2.034.522 3.398 2.355 3.398 4.591v19.656h1.32zm12.998.01V39.662H41.648V69.61h1.31V49.981c0-1.403.45-2.621 1.493-3.556 1.438-1.274 3.115-1.585 4.873-.816 1.805.78 2.748 2.245 2.758 4.216.018 6.369.009 12.737.009 19.106v.688h1.3zm-5.89 2.19H68.23c.577 0 .66-.12.586-.67-.064-.476-.43-.31-.678-.31-13.63-.01-27.27-.01-40.908-.01-.193 0-.422-.046-.587.018-.165.055-.357.211-.394.367-.128.458.083.614.578.614 6.888-.019 13.776-.01 20.674-.01z" fill="#D09A5D"/></svg>