<svg width="26" height="26" fill="none" xmlns="http://www.w3.org/2000/svg"><g clip-path="url(#clip0_83_1155)" fill="#fff"><path d="M19.768 17.2c-.85-.84-1.91-.84-2.754 0-.644.638-1.288 1.276-1.92 1.926-.174.178-.32.216-.531.097-.417-.227-.86-.411-1.26-.66-1.867-1.174-3.43-2.684-4.816-4.382-.687-.845-1.298-1.748-1.726-2.765-.086-.206-.07-.341.098-.509.643-.622 1.27-1.26 1.904-1.899.882-.887.882-1.926-.005-2.819-.504-.508-1.007-1.006-1.51-1.514-.52-.52-1.033-1.045-1.558-1.559-.85-.827-1.91-.827-2.754.006-.65.638-1.271 1.293-1.931 1.92-.612.58-.92 1.288-.985 2.116-.103 1.347.227 2.619.692 3.857.953 2.565 2.403 4.843 4.16 6.931 2.376 2.824 5.211 5.059 8.528 6.671 1.493.725 3.04 1.282 4.723 1.374 1.158.065 2.164-.227 2.97-1.13.552-.617 1.174-1.18 1.759-1.77.865-.876.87-1.937.01-2.802-1.028-1.034-2.061-2.062-3.094-3.09zm-1.034-4.312l1.996-.341a8.923 8.923 0 00-2.494-4.815 8.875 8.875 0 00-5.086-2.538l-.28 2.008a6.886 6.886 0 013.938 1.964 6.885 6.885 0 011.926 3.722zm3.122-8.678A14.721 14.721 0 0013.416 0l-.281 2.007c2.78.39 5.302 1.65 7.293 3.636a12.755 12.755 0 013.576 6.898l1.997-.34a14.83 14.83 0 00-4.145-7.992z"/></g><defs><clipPath id="clip0_83_1155"><path fill="#fff" d="M0 0h26v26H0z"/></clipPath></defs></svg>