<svg width="94" height="93" fill="none" xmlns="http://www.w3.org/2000/svg"><path d="M61.118 71.43H30.866V30.233c0-8.4 6.787-15.232 15.13-15.232 8.336 0 15.122 6.832 15.122 15.232v41.199zm-29.42-.828h28.597v-40.37c0-7.94-6.41-14.403-14.298-14.403s-14.298 6.463-14.298 14.403v40.37z" fill="#1B1D3B"/><path d="M61.118 71.43H30.866V30.233c0-8.4 6.787-15.232 15.13-15.232 8.336 0 15.122 6.832 15.122 15.232v41.199zm-29.42-.828h28.597v-40.37c0-7.94-6.41-14.403-14.298-14.403s-14.298 6.463-14.298 14.403v40.37z" fill="#1B1D3B" stroke="#D09A5D" stroke-width="1.5" stroke-miterlimit="10"/><path d="M60.707 35.982H31.278v.83h29.429v-.83z" fill="#1B1D3B"/><path d="M60.707 35.982H31.278v.83h29.429v-.83z" fill="#1B1D3B" stroke="#D09A5D" stroke-width="1.5" stroke-miterlimit="10"/><path d="M63.5 74.17h-36V75h36v-.83z" fill="#1B1D3B"/><path d="M63.5 74.17h-36V75h36v-.83z" fill="#1B1D3B" stroke="#D09A5D" stroke-width="1.5" stroke-miterlimit="10"/><path d="M46.408 36.398h-.824v34.628h.824V36.398z" fill="#1B1D3B"/><path d="M46.408 36.398h-.824v34.628h.824V36.398z" fill="#1B1D3B" stroke="#D09A5D" stroke-width="1.5" stroke-miterlimit="10"/><path d="M60.706 52.242H31.833v.829h28.873v-.83z" fill="#1B1D3B"/><path d="M60.706 52.242H31.833v.829h28.873v-.83z" fill="#1B1D3B" stroke="#D09A5D" stroke-width="1.5" stroke-miterlimit="10"/></svg>