<svg width="94" height="93" fill="none" xmlns="http://www.w3.org/2000/svg"><path d="M78.614 33.609c-.24-.07-.51-.04-.77-.04-7.52-.01-15.03-.01-22.54.01-.68 0-1.01-.2-1.28-.83-1.22-2.91-3.35-5-6.11-6.44-4.33-2.25-8.64-1.58-12.09 1.86-.89.89-1.76 1.82-2.54 2.81-3.83 4.83-7.64 9.67-11.41 14.53-1.65 2.14-3.44 4.22-4.71 6.58-4.71 8.67 1.44 16.06 7.71 17.62.38.1.77.18 1.16.27h34.37c.54-.91 1.1-1.79 1.6-2.72l16.61-31.12c.24-.43.47-.86.66-1.31.28-.66-.03-1.05-.66-1.22zm-2.37 3.36c-4.79 9.14-9.57 18.29-14.37 27.42-.53 1.02-1.16 1.99-1.71 2.99-.31.53-.71.73-1.34.73-2.39-.03-4.8-.03-7.2 0h-11.82v.04c-3.46.01-6.94.04-10.41.08-2.05.02-4.08.14-6.01-.77-3.33-1.56-6.9-5.87-6.18-11.09.61-4.41 4.26-8.47 8.69-9.31 3.44-.65 6.52.18 8.85 2.85 2.22 2.56 2.62 5.59 1.45 8.74-1.14 3.11-3.47 4.89-6.76 5.06-3.07.17-5.35-1.31-6.74-4.06-1.6-3.14.01-6.6 3.43-7.42 2.76-.66 4.98.58 5.54 3.1.41 1.89-.54 3.8-2.09 4.22-.88.23-2-.33-2.53-1.26-.48-.85.08-1.2.66-1.66.24-.18.34-.78.23-1.11-.18-.5-.71-.5-1.08-.21-.48.4-1 .83-1.25 1.36-.65 1.31-.16 3.15.95 4.09 1.11.93 2.85 1.05 4.12.28 2.07-1.25 3.24-4.43 2.47-6.75-.93-2.85-3.48-4.3-6.77-3.85-4.94.68-7.44 5.41-5.22 9.86 1.35 2.71 3.56 4.32 6.46 5.01 3.21.77 6.61-.26 8.8-3.48 5.34-7.84 10.62-15.73 15.92-23.61.22-.3.51-.6.58-.94.07-.31-.02-.79-.22-.95-.23-.17-.74-.16-1 0-.31.19-.53.59-.75.92-3.9 5.76-7.79 11.54-11.68 17.31-.21.32-.44.61-.82 1.13-.13-3.92-1.61-6.79-4.67-8.78-3.02-1.98-6.28-2.25-9.88-1.12.21-.33.27-.43.34-.52 4.28-5.31 8.51-10.65 12.85-15.92.66-.8 1.67-1.45 2.65-1.82 1.96-.76 4.06-.81 6.11-.29 3.49.89 5.53 3.34 6.79 6.56.57 1.47.54 1.48 2.15 1.48h21.16c.32 0 .65.03 1.13.05-.32.63-.58 1.14-.83 1.64z" fill="#D09A5D"/></svg>