<svg width="25" height="25" viewBox="0 0 25 25" fill="none" xmlns="http://www.w3.org/2000/svg">
<path d="M12.5006 0C5.59731 0 0.000976562 5.59675 0.000976562 12.4998C0.000976562 19.4028 5.59731 25 12.5006 25C19.4038 25 25.0008 19.4031 25.0008 12.4998C25.0008 5.59642 19.4038 0 12.5006 0ZM18.7811 10.2752L15.724 13.3323C15.3924 13.6639 14.9516 13.8465 14.4827 13.8465C14.014 13.8465 13.5731 13.6638 13.2415 13.3325L13.1217 13.2127L12.7962 13.5382L12.9157 13.6578C13.6002 14.3423 13.6002 15.456 12.9157 16.1405L9.85897 19.1977C9.52739 19.5292 9.08656 19.7118 8.61748 19.7118C8.14848 19.7118 7.70756 19.5292 7.37581 19.1974L6.22039 18.0417C5.53589 17.3576 5.53589 16.2439 6.22014 15.5592L9.27756 12.5022C9.60914 12.1706 10.05 11.988 10.5191 11.988C10.9881 11.988 11.4287 12.1707 11.7606 12.5022L11.8799 12.6215L12.2054 12.296L12.0861 12.1767C11.4016 11.4924 11.4016 10.3787 12.0856 9.69417L15.1431 6.637C15.4748 6.30525 15.9157 6.12258 16.3846 6.12258C16.8534 6.12258 17.2942 6.30525 17.6261 6.63675L18.7817 7.79283C19.4656 8.47692 19.4656 9.59083 18.7811 10.2752Z" fill="#000"/>
<path d="M11.8783 14.4548L11.2872 15.0459L10.3704 14.1293L10.9615 13.5383L10.8421 13.4189C10.7555 13.3325 10.6403 13.2847 10.518 13.2847C10.3954 13.2847 10.2802 13.3324 10.1936 13.4189L7.13638 16.4757C6.95763 16.6546 6.95763 16.9455 7.13638 17.1242L8.29222 18.2803C8.4658 18.4539 8.76788 18.4537 8.94105 18.2806L11.9978 15.2234C12.1768 15.0445 12.1768 14.7533 11.9978 14.5743L11.8783 14.4548Z" fill="#000"/>
<path d="M16.7078 7.55361C16.6211 7.46694 16.5057 7.41919 16.3831 7.41919C16.2605 7.41919 16.1451 7.46694 16.0584 7.55386L13.0013 10.6109C12.8228 10.7898 12.8228 11.0807 13.0015 11.2597L13.121 11.379L14.0277 10.4721L14.9445 11.3889L14.0379 12.2959L14.1574 12.4154C14.3309 12.5884 14.6326 12.5887 14.8062 12.4151L17.8632 9.35836C18.042 9.17944 18.042 8.88852 17.8632 8.70952L16.7078 7.55361Z" fill="#000"/>
</svg>
