<svg width="1238" height="937" viewBox="0 0 1238 937" fill="none" xmlns="http://www.w3.org/2000/svg">
<circle cx="3" cy="300" r="3" fill="#DCDCDC"/>
<circle cx="51" cy="300" r="3" fill="#DCDCDC"/>
<circle cx="99" cy="300" r="3" fill="#DCDCDC"/>
<circle cx="147" cy="300" r="3" fill="#DCDCDC"/>
<circle cx="195" cy="300" r="3" fill="#DCDCDC"/>
<circle cx="243" cy="300" r="3" fill="#DCDCDC"/>
<circle cx="291" cy="300" r="3" fill="#DCDCDC"/>
<circle cx="51" cy="300" r="3" fill="#DCDCDC"/>
<circle cx="99" cy="300" r="3" fill="#DCDCDC"/>
<circle cx="147" cy="300" r="3" fill="#DCDCDC"/>
<circle cx="195" cy="300" r="3" fill="#DCDCDC"/>
<circle cx="243" cy="300" r="3" fill="#DCDCDC"/>
<circle cx="291" cy="300" r="3" fill="#DCDCDC"/>
<circle cx="3" cy="349.2" r="3" fill="#DCDCDC"/>
<circle cx="51" cy="349.2" r="3" fill="#DCDCDC"/>
<circle cx="99" cy="349.2" r="3" fill="#DCDCDC"/>
<circle cx="147" cy="349.2" r="3" fill="#DCDCDC"/>
<circle cx="195" cy="349.2" r="3" fill="#DCDCDC"/>
<circle cx="243" cy="349.2" r="3" fill="#DCDCDC"/>
<circle cx="291" cy="349.2" r="3" fill="#DCDCDC"/>
<circle cx="51" cy="349.2" r="3" fill="#DCDCDC"/>
<circle cx="99" cy="349.2" r="3" fill="#DCDCDC"/>
<circle cx="147" cy="349.2" r="3" fill="#DCDCDC"/>
<circle cx="195" cy="349.2" r="3" fill="#DCDCDC"/>
<circle cx="243" cy="349.2" r="3" fill="#DCDCDC"/>
<circle cx="291" cy="349.2" r="3" fill="#DCDCDC"/>
<circle cx="3" cy="398.4" r="3" fill="#DCDCDC"/>
<circle cx="51" cy="398.4" r="3" fill="#DCDCDC"/>
<circle cx="99" cy="398.4" r="3" fill="#DCDCDC"/>
<circle cx="147" cy="398.4" r="3" fill="#DCDCDC"/>
<circle cx="195" cy="398.4" r="3" fill="#DCDCDC"/>
<circle cx="243" cy="398.4" r="3" fill="#DCDCDC"/>
<circle cx="291" cy="398.4" r="3" fill="#DCDCDC"/>
<circle cx="51" cy="398.4" r="3" fill="#DCDCDC"/>
<circle cx="99" cy="398.4" r="3" fill="#DCDCDC"/>
<circle cx="147" cy="398.4" r="3" fill="#DCDCDC"/>
<circle cx="195" cy="398.4" r="3" fill="#DCDCDC"/>
<circle cx="243" cy="398.4" r="3" fill="#DCDCDC"/>
<circle cx="291" cy="398.4" r="3" fill="#DCDCDC"/>
<circle cx="3" cy="447.6" r="3" fill="#DCDCDC"/>
<circle cx="51" cy="447.6" r="3" fill="#DCDCDC"/>
<circle cx="99" cy="447.6" r="3" fill="#DCDCDC"/>
<circle cx="147" cy="447.6" r="3" fill="#DCDCDC"/>
<circle cx="195" cy="447.6" r="3" fill="#DCDCDC"/>
<circle cx="243" cy="447.6" r="3" fill="#DCDCDC"/>
<circle cx="291" cy="447.6" r="3" fill="#DCDCDC"/>
<circle cx="51" cy="447.6" r="3" fill="#DCDCDC"/>
<circle cx="99" cy="447.6" r="3" fill="#DCDCDC"/>
<circle cx="147" cy="447.6" r="3" fill="#DCDCDC"/>
<circle cx="195" cy="447.6" r="3" fill="#DCDCDC"/>
<circle cx="243" cy="447.6" r="3" fill="#DCDCDC"/>
<circle cx="291" cy="447.6" r="3" fill="#DCDCDC"/>
<circle cx="3" cy="496.8" r="3" fill="#DCDCDC"/>
<circle cx="51" cy="496.8" r="3" fill="#DCDCDC"/>
<circle cx="99" cy="496.8" r="3" fill="#DCDCDC"/>
<circle cx="147" cy="496.8" r="3" fill="#DCDCDC"/>
<circle cx="195" cy="496.8" r="3" fill="#DCDCDC"/>
<circle cx="243" cy="496.8" r="3" fill="#DCDCDC"/>
<circle cx="291" cy="496.8" r="3" fill="#DCDCDC"/>
<circle cx="51" cy="496.8" r="3" fill="#DCDCDC"/>
<circle cx="99" cy="496.8" r="3" fill="#DCDCDC"/>
<circle cx="147" cy="496.8" r="3" fill="#DCDCDC"/>
<circle cx="195" cy="496.8" r="3" fill="#DCDCDC"/>
<circle cx="243" cy="496.8" r="3" fill="#DCDCDC"/>
<circle cx="291" cy="496.8" r="3" fill="#DCDCDC"/>
<circle cx="3" cy="546" r="3" fill="#DCDCDC"/>
<circle cx="51" cy="546" r="3" fill="#DCDCDC"/>
<circle cx="99" cy="546" r="3" fill="#DCDCDC"/>
<circle cx="147" cy="546" r="3" fill="#DCDCDC"/>
<circle cx="195" cy="546" r="3" fill="#DCDCDC"/>
<circle cx="243" cy="546" r="3" fill="#DCDCDC"/>
<circle cx="291" cy="546" r="3" fill="#DCDCDC"/>
<circle cx="51" cy="546" r="3" fill="#DCDCDC"/>
<circle cx="99" cy="546" r="3" fill="#DCDCDC"/>
<circle cx="147" cy="546" r="3" fill="#DCDCDC"/>
<circle cx="195" cy="546" r="3" fill="#DCDCDC"/>
<circle cx="243" cy="546" r="3" fill="#DCDCDC"/>
<circle cx="291" cy="546" r="3" fill="#DCDCDC"/>
<circle cx="3" cy="595.2" r="3" fill="#DCDCDC"/>
<circle cx="51" cy="595.2" r="3" fill="#DCDCDC"/>
<circle cx="99" cy="595.2" r="3" fill="#DCDCDC"/>
<circle cx="147" cy="595.2" r="3" fill="#DCDCDC"/>
<circle cx="195" cy="595.2" r="3" fill="#DCDCDC"/>
<circle cx="243" cy="595.2" r="3" fill="#DCDCDC"/>
<circle cx="291" cy="595.2" r="3" fill="#DCDCDC"/>
<circle cx="51" cy="595.2" r="3" fill="#DCDCDC"/>
<circle cx="99" cy="595.2" r="3" fill="#DCDCDC"/>
<circle cx="147" cy="595.2" r="3" fill="#DCDCDC"/>
<circle cx="195" cy="595.2" r="3" fill="#DCDCDC"/>
<circle cx="243" cy="595.2" r="3" fill="#DCDCDC"/>
<circle cx="291" cy="595.2" r="3" fill="#DCDCDC"/>
<circle cx="61.5" cy="262.5" r="8" stroke="url(#paint0_linear)" stroke-width="3"/>
<circle cx="1014.5" cy="494.5" r="8" stroke="url(#paint1_linear)" stroke-width="3"/>
<circle cx="424.5" cy="9.5" r="8" stroke="url(#paint2_linear)" stroke-width="3"/>
<circle cx="1223" cy="129" r="13" stroke="url(#paint3_linear)" stroke-width="4"/>
<circle cx="18" cy="776" r="13" stroke="url(#paint4_linear)" stroke-width="4"/>
<circle cx="1102" cy="63" r="8" fill="url(#paint5_linear)"/>
<circle cx="1161" cy="862" r="8" fill="url(#paint6_linear)"/>
<circle cx="52" cy="93" r="4" fill="url(#paint7_linear)"/>
<circle cx="1180" cy="519" r="4" fill="url(#paint8_linear)"/>
<circle cx="221" cy="925" r="12" fill="url(#paint9_linear)"/>
<defs>
<linearGradient id="paint0_linear" x1="58.7292" y1="272" x2="69.0208" y2="253.792" gradientUnits="userSpaceOnUse">
<stop stop-color="#766B6B"/>
<stop offset="1" stop-color="#919191"/>
</linearGradient>
<linearGradient id="paint1_linear" x1="1011.73" y1="504" x2="1022.02" y2="485.792" gradientUnits="userSpaceOnUse">
<stop stop-color="#766B6B"/>
<stop offset="1" stop-color="#919191"/>
</linearGradient>
<linearGradient id="paint2_linear" x1="421.729" y1="19" x2="432.021" y2="0.791667" gradientUnits="userSpaceOnUse">
<stop stop-color="#766B6B"/>
<stop offset="1" stop-color="#919191"/>
</linearGradient>
<linearGradient id="paint3_linear" x1="1218.63" y1="144" x2="1234.87" y2="115.25" gradientUnits="userSpaceOnUse">
<stop stop-color="#766B6B"/>
<stop offset="1" stop-color="#919191"/>
</linearGradient>
<linearGradient id="paint4_linear" x1="13.625" y1="791" x2="29.875" y2="762.25" gradientUnits="userSpaceOnUse">
<stop stop-color="#766B6B"/>
<stop offset="1" stop-color="#919191"/>
</linearGradient>
<linearGradient id="paint5_linear" x1="1098.92" y1="69.1538" x2="1110.62" y2="55.6154" gradientUnits="userSpaceOnUse">
<stop stop-color="#626262"/>
<stop offset="1" stop-color="#BABABA"/>
</linearGradient>
<linearGradient id="paint6_linear" x1="1157.92" y1="868.154" x2="1169.62" y2="854.615" gradientUnits="userSpaceOnUse">
<stop stop-color="#626262"/>
<stop offset="1" stop-color="#BABABA"/>
</linearGradient>
<linearGradient id="paint7_linear" x1="50.4615" y1="96.0769" x2="56.3077" y2="89.3077" gradientUnits="userSpaceOnUse">
<stop stop-color="#626262"/>
<stop offset="1" stop-color="#BABABA"/>
</linearGradient>
<linearGradient id="paint8_linear" x1="1178.46" y1="522.077" x2="1184.31" y2="515.308" gradientUnits="userSpaceOnUse">
<stop stop-color="#626262"/>
<stop offset="1" stop-color="#BABABA"/>
</linearGradient>
<linearGradient id="paint9_linear" x1="216.385" y1="934.231" x2="233.923" y2="913.923" gradientUnits="userSpaceOnUse">
<stop stop-color="#4F4F4F"/>
<stop offset="1" stop-color="#9A9A9A"/>
</linearGradient>
</defs>
</svg>
