<svg width="23" height="23" viewBox="0 0 23 23" fill="none" xmlns="http://www.w3.org/2000/svg">
<path d="M22.9415 6.76208C22.8877 5.54 22.69 4.69983 22.4068 3.97181C22.1147 3.19904 21.6653 2.50717 21.0766 1.93202C20.5013 1.34792 19.8047 0.894053 19.0408 0.606566C18.3084 0.323467 17.4725 0.125841 16.2501 0.0719594C15.0187 0.0135143 14.6278 0 11.5045 0C8.38119 0 7.99025 0.0135143 6.76337 0.0673962C5.54106 0.121278 4.70073 0.319079 3.97274 0.602002C3.19965 0.894053 2.50765 1.34336 1.93239 1.93202C1.34818 2.50717 0.894399 3.2036 0.606681 3.96742C0.323528 4.69983 0.125865 5.53544 0.0719732 6.75752C0.0135169 7.98873 0 8.37959 0 11.5023C0 14.625 0.0135169 15.0158 0.067409 16.2425C0.121301 17.4646 0.31914 18.3047 0.602293 19.0328C0.894399 19.8055 1.34818 20.4974 1.93239 21.0725C2.50765 21.6566 3.20421 22.1105 3.96818 22.398C4.70073 22.6811 5.53649 22.8787 6.75899 22.9326C7.98569 22.9867 8.3768 23 11.5001 23C14.6234 23 15.0143 22.9867 16.2412 22.9326C17.4635 22.8787 18.3038 22.6811 19.0318 22.398C20.5778 21.8004 21.8002 20.5783 22.3979 19.0328C22.6809 18.3003 22.8787 17.4646 22.9326 16.2425C22.9865 15.0158 23 14.625 23 11.5023C23 8.37959 22.9954 7.98873 22.9415 6.76208ZM20.8699 16.1526C20.8204 17.2759 20.6317 17.8825 20.4744 18.2868C20.0879 19.2888 19.2925 20.0841 18.2903 20.4705C17.8859 20.6278 17.2748 20.8165 16.1557 20.8658C14.9423 20.9198 14.5784 20.9332 11.509 20.9332C8.43965 20.9332 8.07118 20.9198 6.86221 20.8658C5.73872 20.8165 5.13204 20.6278 4.72759 20.4705C4.22886 20.2863 3.77491 19.9942 3.40644 19.6123C3.02445 19.2393 2.73235 18.79 2.54803 18.2914C2.39074 17.887 2.20203 17.2759 2.1527 16.1572C2.09863 14.9441 2.08529 14.58 2.08529 11.5112C2.08529 8.44242 2.09863 8.07403 2.1527 6.86546C2.20203 5.74219 2.39074 5.13562 2.54803 4.73125C2.73235 4.23245 3.02445 3.77875 3.411 3.41018C3.78386 3.02826 4.23325 2.73621 4.73215 2.5521C5.1366 2.39485 5.74785 2.20617 6.86677 2.15668C8.08013 2.1028 8.44421 2.08928 11.5134 2.08928C14.5874 2.08928 14.9513 2.1028 16.1603 2.15668C17.2837 2.20617 17.8904 2.39485 18.2949 2.5521C18.7936 2.73621 19.2476 3.02826 19.616 3.41018C19.998 3.78314 20.2901 4.23245 20.4744 4.73125C20.6317 5.13562 20.8204 5.74658 20.8699 6.86546C20.9238 8.07859 20.9374 8.44242 20.9374 11.5112C20.9374 14.58 20.9238 14.9395 20.8699 16.1526Z" fill="#C0C0C0"/>
<path d="M11.5045 5.59388C8.24198 5.59388 5.59495 8.24024 5.59495 11.5023C5.59495 14.7643 8.24198 17.4107 11.5045 17.4107C14.7671 17.4107 17.414 14.7643 17.414 11.5023C17.414 8.24024 14.7671 5.59388 11.5045 5.59388ZM11.5045 15.3349C9.38794 15.3349 7.67111 13.6186 7.67111 11.5023C7.67111 9.38597 9.38794 7.66965 11.5045 7.66965C13.6212 7.66965 15.3378 9.38597 15.3378 11.5023C15.3378 13.6186 13.6212 15.3349 11.5045 15.3349Z" fill="#C0C0C0"/>
<path d="M19.0274 5.36028C19.0274 6.12199 18.4097 6.73962 17.6477 6.73962C16.8858 6.73962 16.268 6.12199 16.268 5.36028C16.268 4.59838 16.8858 3.98094 17.6477 3.98094C18.4097 3.98094 19.0274 4.59838 19.0274 5.36028Z" fill="#C0C0C0"/>
</svg>
