<svg width="23" height="20" viewBox="0 0 23 20" fill="none" xmlns="http://www.w3.org/2000/svg">
<path d="M0.406248 9.58993L5.70592 11.5654L7.75721 18.154C7.88846 18.576 8.40512 18.732 8.74805 18.4519L11.7022 16.0467C12.0118 15.7948 12.4529 15.7822 12.7765 16.0168L18.1047 19.8803C18.4715 20.1466 18.9913 19.9458 19.0833 19.5031L22.9865 0.751873C23.0869 0.268259 22.6111 -0.135187 22.15 0.0429145L0.400038 8.42278C-0.136706 8.62951 -0.132029 9.38847 0.406248 9.58993ZM7.42662 10.5138L17.7841 4.14268C17.9703 4.02852 18.1618 4.2799 18.002 4.42798L9.454 12.3637C9.15354 12.643 8.95973 13.0168 8.90484 13.4225L8.61366 15.5777C8.57509 15.8654 8.17037 15.894 8.09087 15.6155L6.97099 11.6856C6.84273 11.2373 7.02964 10.7585 7.42662 10.5138Z" fill="black"/>
</svg>
