<svg width="54" height="54" viewBox="0 0 54 54" fill="none" xmlns="http://www.w3.org/2000/svg">
<g clip-path="url(#clip0)">
<path d="M40.6338 12.8587L18.4254 26.5369C17.1686 27.3128 16.5738 28.8451 16.9787 30.2624L19.3801 38.6999C19.5852 39.4193 20.2254 39.8975 20.962 39.8975C21.003 39.8975 21.0445 39.896 21.086 39.893C21.8734 39.8358 22.4965 39.2493 22.6013 38.4676L23.2257 33.8411C23.3098 33.2186 23.6098 32.6396 24.0695 32.2116L42.3963 15.1758C42.9501 14.6623 43.0233 13.8214 42.5669 13.2199C42.1098 12.6179 41.2793 12.4622 40.6338 12.8587ZM22.6041 30.6364C21.7806 31.4029 21.2441 32.4388 21.0935 33.5531L20.7907 35.7973L19.0476 29.6725C18.906 29.1764 19.1146 28.6399 19.5544 28.3684L35.8238 18.3481L22.6041 30.6364Z" fill="#0071E3"/>
<path d="M53.1215 3.94268C52.4276 3.35458 51.4701 3.19269 50.6221 3.52027L1.5905 22.4352C0.619447 22.8098 -0.00492773 23.7241 2.93009e-05 24.7645C0.0050918 25.8059 0.638643 26.7152 1.61539 27.0811L13.0682 31.3557L17.5358 45.7232C17.7811 46.513 18.4003 47.1267 19.192 47.3649C19.9832 47.6028 20.8377 47.4327 21.4764 46.9103L28.1357 41.4815C28.4555 41.2208 28.9122 41.2079 29.2461 41.4504L41.2572 50.1707C41.6893 50.4848 42.1992 50.6465 42.7151 50.6465C43.0173 50.6465 43.3214 50.591 43.6134 50.4781C44.4029 50.1728 44.9771 49.496 45.149 48.668L53.9481 6.34241C54.1329 5.4512 53.8162 4.53172 53.1215 3.94268ZM51.8417 5.90524L43.0427 48.2307C43.0108 48.3836 42.9007 48.4472 42.8378 48.4716C42.7746 48.496 42.6496 48.5232 42.5218 48.4301L30.5102 39.7094C29.9733 39.3196 29.342 39.1261 28.7118 39.1261C28.0243 39.1261 27.3378 39.3565 26.7768 39.8136L20.116 45.2437C19.9974 45.3407 19.8743 45.3234 19.8117 45.3046C19.7486 45.2856 19.6361 45.2318 19.5903 45.0846L14.966 30.2128C14.8672 29.8951 14.6268 29.6409 14.315 29.5244L2.36907 25.066C2.19019 24.999 2.15212 24.8594 2.15159 24.7541C2.15106 24.6497 2.18777 24.5108 2.36496 24.4424L51.3966 5.52755C51.3969 5.52745 51.3972 5.52734 51.3975 5.52724C51.5567 5.46575 51.6745 5.53641 51.7307 5.58387C51.787 5.63186 51.8766 5.73733 51.8417 5.90524Z" fill="#0071E3"/>
<path d="M45.0858 26.5931C44.5051 26.467 43.9324 26.8356 43.8064 27.4162L43.6429 28.1692C43.5168 28.7498 43.8853 29.3226 44.466 29.4487C44.5428 29.4653 44.6195 29.4733 44.6952 29.4733C45.1904 29.4733 45.636 29.1293 45.7455 28.6257L45.909 27.8726C46.0349 27.292 45.6663 26.7192 45.0858 26.5931Z" fill="#0071E3"/>
<path d="M44.0099 31.5481C43.4285 31.4221 42.8563 31.7906 42.7303 32.3712L40.2562 43.7672C40.1301 44.3478 40.4986 44.9206 41.0791 45.0466C41.1561 45.0633 41.2328 45.0713 41.3084 45.0713C41.8037 45.0713 42.2492 44.7272 42.3587 44.2236L44.8329 32.8275C44.9589 32.2469 44.5904 31.6741 44.0099 31.5481Z" fill="#0071E3"/>
</g>
<defs>
<clipPath id="clip0">
<rect width="54" height="54" fill="white"/>
</clipPath>
</defs>
</svg>
