<svg width="20" height="20" viewBox="0 0 20 20" fill="none" xmlns="http://www.w3.org/2000/svg">
<path d="M18.5284 3.33328C18.5284 4.8291 17.3159 6.04172 15.8201 6.04172C14.3243 6.04172 13.1118 4.8291 13.1118 3.33328C13.1118 1.83762 14.3243 0.625 15.8201 0.625C17.3159 0.625 18.5284 1.83762 18.5284 3.33328Z" fill="#0071E3"/>
<path d="M15.8201 6.66672C13.9817 6.66672 12.4868 5.17166 12.4868 3.33328C12.4868 1.49506 13.9817 0 15.8201 0C17.6585 0 19.1534 1.49506 19.1534 3.33328C19.1534 5.17166 17.6585 6.66672 15.8201 6.66672ZM15.8201 1.25C14.671 1.25 13.7368 2.18506 13.7368 3.33328C13.7368 4.48166 14.671 5.41672 15.8201 5.41672C16.9692 5.41672 17.9034 4.48166 17.9034 3.33328C17.9034 2.18506 16.9692 1.25 15.8201 1.25Z" fill="#0071E3"/>
<path d="M18.5284 16.6667C18.5284 18.1624 17.3159 19.375 15.8201 19.375C14.3243 19.375 13.1118 18.1624 13.1118 16.6667C13.1118 15.1709 14.3243 13.9583 15.8201 13.9583C17.3159 13.9583 18.5284 15.1709 18.5284 16.6667Z" fill="#0071E3"/>
<path d="M15.8201 20C13.9817 20 12.4868 18.5049 12.4868 16.6667C12.4868 14.8283 13.9817 13.3333 15.8201 13.3333C17.6585 13.3333 19.1534 14.8283 19.1534 16.6667C19.1534 18.5049 17.6585 20 15.8201 20ZM15.8201 14.5833C14.671 14.5833 13.7368 15.5183 13.7368 16.6667C13.7368 17.8149 14.671 18.75 15.8201 18.75C16.9692 18.75 17.9034 17.8149 17.9034 16.6667C17.9034 15.5183 16.9692 14.5833 15.8201 14.5833Z" fill="#0071E3"/>
<path d="M6.86203 10C6.86203 11.4958 5.64941 12.7083 4.15359 12.7083C2.65793 12.7083 1.44531 11.4958 1.44531 10C1.44531 8.50421 2.65793 7.29175 4.15359 7.29175C5.64941 7.29175 6.86203 8.50421 6.86203 10Z" fill="#0071E3"/>
<path d="M4.15359 13.3333C2.31537 13.3333 0.820312 11.8384 0.820312 10C0.820312 8.16165 2.31537 6.66675 4.15359 6.66675C5.99197 6.66675 7.48703 8.16165 7.48703 10C7.48703 11.8384 5.99197 13.3333 4.15359 13.3333ZM4.15359 7.91675C3.00446 7.91675 2.07031 8.85165 2.07031 10C2.07031 11.1484 3.00446 12.0833 4.15359 12.0833C5.30289 12.0833 6.23703 11.1484 6.23703 10C6.23703 8.85165 5.30289 7.91675 4.15359 7.91675Z" fill="#0071E3"/>
<path d="M6.12127 9.59998C5.8312 9.59998 5.54953 9.44907 5.39618 9.17915C5.16867 8.77998 5.30874 8.27079 5.70791 8.04237L13.4403 3.6341C13.8395 3.40492 14.3487 3.54499 14.5771 3.94569C14.8046 4.34486 14.6645 4.85404 14.2653 5.08247L6.5328 9.49073C6.4028 9.56489 6.2612 9.59998 6.12127 9.59998Z" fill="#0071E3"/>
<path d="M13.853 16.4751C13.7129 16.4751 13.5713 16.44 13.4413 16.3658L5.70877 11.9576C5.30961 11.73 5.16968 11.2209 5.39719 10.8208C5.62378 10.4208 6.13373 10.28 6.53382 10.5092L14.2663 14.9175C14.6655 15.145 14.8054 15.6542 14.5779 16.0542C14.4238 16.3242 14.1421 16.4751 13.853 16.4751Z" fill="#0071E3"/>
</svg>
