<svg width="200" height="74" viewBox="0 0 200 74" fill="none" xmlns="http://www.w3.org/2000/svg">
<g clip-path="url(#clip0)">
<path d="M93.2832 33.8956H90.4797C90.4268 33.8073 90.3465 33.6032 90.2387 33.2873C89.7509 31.4054 89.2944 30.1908 88.8654 29.6472C88.4364 29.1076 87.8232 28.8368 87.0278 28.8368C86.8005 28.8368 86.6203 28.8485 86.4831 28.8701C86.4831 30.593 86.5164 32.2688 86.5791 33.8956H84.0636C84.14 32.0942 84.1792 30.0652 84.1792 27.8085C84.1792 25.6382 84.14 23.7857 84.0636 22.2532H86.5791C86.5164 24.0212 86.4831 25.6264 86.4831 27.0746C86.726 27.0883 86.9063 27.0942 87.0278 27.0942C88.6577 27.0942 89.7274 25.6656 90.2387 22.8085C90.276 22.6025 90.3465 22.416 90.4562 22.2532H92.8659C92.7856 22.4396 92.668 22.7673 92.5054 23.2304C92.1116 24.6256 91.6924 25.6401 91.2438 26.2779C90.7932 26.9156 90.1898 27.3964 89.4277 27.7182V27.8163C90.2172 28.0734 90.8265 28.4973 91.2536 29.0958C91.6767 29.6904 92.2253 30.9639 92.8894 32.9125C92.9756 33.1637 93.1049 33.4894 93.2832 33.8956ZM101.933 33.8858L99.8266 33.9604C99.7287 33.7072 99.6836 33.4796 99.6836 33.2794H99.568C98.9117 33.8367 98.0282 34.1174 96.9174 34.1174C96.1709 34.1174 95.5558 33.9113 95.064 33.4992C94.5703 33.0832 94.3274 32.5338 94.3274 31.8469C94.3274 30.9423 94.7075 30.2006 95.4735 29.6236C96.2375 29.0428 97.5776 28.7386 99.4936 28.7014C99.5073 28.5954 99.5132 28.4914 99.5132 28.3972C99.5132 27.7536 99.3564 27.3277 99.0489 27.1236C98.7393 26.9156 98.1731 26.8156 97.3444 26.8156C96.4452 26.8156 95.5675 26.9353 94.7114 27.1727L94.9073 25.5283C95.7164 25.2477 96.8586 25.1064 98.3338 25.1064C99.4133 25.1064 100.244 25.3321 100.83 25.7873C101.417 26.2386 101.709 27.0334 101.709 28.1656C101.709 28.4149 101.698 28.8701 101.676 29.5314C101.658 30.1947 101.645 30.6362 101.645 30.856C101.645 32.0883 101.741 33.0989 101.933 33.8858ZM99.5484 32.0275C99.5132 31.2229 99.4936 30.5263 99.4936 29.9435C97.4659 29.9435 96.4511 30.4596 96.4511 31.4898C96.4511 32.1982 96.8978 32.5534 97.7911 32.5534C98.4925 32.5534 99.0763 32.3787 99.5484 32.0275ZM110.179 31.3387C110.179 32.2747 109.799 32.9733 109.036 33.4404C108.274 33.9054 107.248 34.137 105.957 34.137C104.897 34.137 103.97 34.0016 103.171 33.7347L103.377 32.1079C104.137 32.418 104.999 32.571 105.957 32.571C107.312 32.571 107.992 32.1864 107.992 31.4172C107.992 30.6539 107.236 30.2732 105.726 30.2732C105.089 30.2732 104.532 30.2948 104.064 30.3379L104.235 28.7897C104.691 28.8269 105.191 28.8446 105.733 28.8446C107.115 28.8446 107.802 28.4659 107.802 27.7104C107.802 27.0609 107.224 26.7331 106.062 26.7331C105.183 26.7331 104.327 26.8685 103.492 27.1354L103.698 25.5106C104.442 25.2418 105.398 25.1064 106.572 25.1064C108.811 25.1064 109.93 25.7638 109.93 27.0746C109.93 28.0459 109.438 28.7269 108.455 29.1134V29.2547C108.909 29.345 109.285 29.5353 109.587 29.8277C109.981 30.2084 110.179 30.7127 110.179 31.3387ZM118.987 33.8858L116.881 33.9604C116.783 33.7072 116.738 33.4796 116.738 33.2794H116.622C115.968 33.8367 115.084 34.1174 113.971 34.1174C113.225 34.1174 112.61 33.9113 112.12 33.4992C111.626 33.0832 111.381 32.5338 111.381 31.8469C111.381 30.9423 111.764 30.2006 112.528 29.6236C113.292 29.0428 114.634 28.7386 116.55 28.7014C116.561 28.5954 116.567 28.4914 116.567 28.3972C116.567 27.7536 116.412 27.3277 116.105 27.1236C115.793 26.9156 115.227 26.8156 114.399 26.8156C113.499 26.8156 112.622 26.9353 111.765 27.1727L111.961 25.5283C112.772 25.2477 113.915 25.1064 115.388 25.1064C116.467 25.1064 117.298 25.3321 117.884 25.7873C118.472 26.2386 118.763 27.0334 118.763 28.1656C118.763 28.4149 118.752 28.8701 118.73 29.5314C118.712 30.1947 118.701 30.6362 118.701 30.856C118.701 32.0883 118.795 33.0989 118.987 33.8858ZM116.604 32.0275C116.567 31.2229 116.55 30.5263 116.55 29.9435C114.52 29.9435 113.505 30.4596 113.505 31.4898C113.505 32.1982 113.954 32.5534 114.847 32.5534C115.547 32.5534 116.132 32.3787 116.604 32.0275ZM128.839 33.8956H126.045C126.045 33.7347 125.801 33.197 125.315 32.2865C124.85 31.4211 124.494 30.8167 124.251 30.4714H124.126C123.932 30.7402 123.608 31.3348 123.164 32.259C122.715 33.1853 122.494 33.7269 122.494 33.8956H120.013C120.013 33.7524 120.442 33.0557 121.302 31.8018C122.161 30.5518 122.762 29.7551 123.099 29.4058V29.2724C122.817 28.9643 122.298 28.2932 121.549 27.261C120.75 26.1601 120.35 25.5401 120.35 25.4027H123.126C123.126 25.5577 123.328 26.0189 123.724 26.7881C124.11 27.5338 124.41 28.0459 124.617 28.3265H124.725C124.909 28.095 125.183 27.5887 125.548 26.8097C125.918 26.0306 126.1 25.5616 126.1 25.4027H128.492C128.492 25.5165 128.093 26.1111 127.301 27.1904C126.506 28.2677 125.985 28.9251 125.734 29.1566V29.29C126.073 29.6668 126.666 30.4753 127.521 31.7135C128.4 32.9949 128.839 33.721 128.839 33.8956ZM136.873 32.0196L136.721 33.7249C136.178 34.0114 135.443 34.1546 134.519 34.1546C132.983 34.1546 131.799 33.7249 130.977 32.8674C130.152 32.0098 129.74 30.9776 129.74 29.7728C129.74 28.5208 130.173 27.4298 131.035 26.4977C131.897 25.5656 133.079 25.0985 134.579 25.0985C135.31 25.0985 135.962 25.1829 136.535 25.3477L136.229 27.1727C135.68 26.947 135.069 26.8313 134.393 26.8313C133.67 26.8313 133.104 27.0883 132.687 27.5966C132.27 28.1068 132.062 28.7347 132.062 29.4804C132.062 30.2889 132.309 30.9757 132.802 31.5369C133.296 32.0942 133.998 32.3748 134.901 32.3748C135.428 32.3748 136.086 32.2571 136.873 32.0196ZM145.262 25.4027L145.208 27.2159C144.346 27.1276 143.489 27.0844 142.639 27.0844C142.622 27.9243 142.612 28.7955 142.612 29.7021C142.612 31.2347 142.655 32.6319 142.737 33.8956H140.337C140.419 32.6966 140.461 31.2995 140.461 29.7021C140.461 28.8269 140.447 27.9537 140.416 27.0844C139.554 27.0844 138.654 27.1276 137.72 27.2159L137.783 25.4027H145.262ZM153.963 33.8858L151.859 33.9604C151.761 33.7072 151.716 33.4796 151.716 33.2794H151.6C150.944 33.8367 150.06 34.1174 148.949 34.1174C148.203 34.1174 147.588 33.9113 147.096 33.4992C146.602 33.0832 146.36 32.5338 146.36 31.8469C146.36 30.9423 146.74 30.2006 147.506 29.6236C148.27 29.0428 149.61 28.7386 151.526 28.7014C151.539 28.5954 151.545 28.4914 151.545 28.3972C151.545 27.7536 151.389 27.3277 151.081 27.1236C150.771 26.9156 150.203 26.8156 149.377 26.8156C148.477 26.8156 147.6 26.9353 146.743 27.1727L146.939 25.5283C147.749 25.2477 148.891 25.1064 150.366 25.1064C151.443 25.1064 152.276 25.3321 152.862 25.7873C153.45 26.2386 153.741 27.0334 153.741 28.1656C153.741 28.4149 153.73 28.8701 153.708 29.5314C153.689 30.1947 153.677 30.6362 153.677 30.856C153.677 32.0883 153.773 33.0989 153.963 33.8858ZM151.581 32.0275C151.545 31.2229 151.526 30.5263 151.526 29.9435C149.498 29.9435 148.483 30.4596 148.483 31.4898C148.483 32.1982 148.93 32.5534 149.823 32.5534C150.525 32.5534 151.108 32.3787 151.581 32.0275ZM163.566 33.8956H161.212C161.288 32.834 161.327 31.6017 161.327 30.1947H157.928C157.928 31.5173 157.967 32.7516 158.05 33.8956H155.695C155.777 32.6633 155.818 31.2465 155.818 29.6472C155.818 28.0636 155.716 26.6762 155.509 25.4832L158.044 25.2222C158.006 25.6107 157.967 26.7312 157.928 28.5856H161.31C161.29 27.3866 161.196 26.3525 161.023 25.4832L163.557 25.2222C163.488 26.3799 163.451 27.8536 163.451 29.6472C163.451 31.1798 163.49 32.5946 163.566 33.8956ZM172.226 32.0196L172.073 33.7249C171.53 34.0114 170.796 34.1546 169.871 34.1546C168.335 34.1546 167.152 33.7249 166.329 32.8674C165.504 32.0098 165.093 30.9776 165.093 29.7728C165.093 28.5208 165.526 27.4298 166.388 26.4977C167.25 25.5656 168.431 25.0985 169.932 25.0985C170.662 25.0985 171.315 25.1829 171.887 25.3477L171.581 27.1727C171.035 26.947 170.421 26.8313 169.745 26.8313C169.023 26.8313 168.456 27.0883 168.039 27.5966C167.622 28.1068 167.414 28.7347 167.414 29.4804C167.414 30.2889 167.661 30.9757 168.155 31.5369C168.648 32.0942 169.35 32.3748 170.253 32.3748C170.78 32.3748 171.438 32.2571 172.226 32.0196ZM181.526 33.8956H179.134C179.086 33.8132 179.016 33.6523 178.918 33.4129C178.573 32.2139 178.217 31.3995 177.852 30.9698C177.486 30.5361 177.026 30.3183 176.475 30.3183C176.332 30.3183 176.134 30.3242 175.883 30.3379C175.883 31.482 175.928 32.6692 176.019 33.8956H173.626C173.715 32.7025 173.76 31.3407 173.76 29.8101C173.76 28.0891 173.654 26.6409 173.44 25.4733L175.999 25.232C175.923 26.221 175.883 27.4317 175.883 28.8642C176.14 28.8721 176.338 28.878 176.475 28.878C177.525 28.878 178.297 27.8693 178.785 25.8481C178.82 25.699 178.889 25.5518 178.983 25.4027H181.222C181.163 25.5401 181.059 25.7932 180.91 26.1621C180.231 28.0263 179.469 29.1233 178.626 29.4431V29.5314C179.188 29.7002 179.661 30.0475 180.039 30.5793C180.417 31.1091 180.783 31.8882 181.134 32.9125C181.24 33.2265 181.371 33.5561 181.526 33.8956ZM190.208 33.8858L188.104 33.9604C188.006 33.7072 187.959 33.4796 187.959 33.2794H187.844C187.189 33.8367 186.306 34.1174 185.193 34.1174C184.447 34.1174 183.831 33.9113 183.342 33.4992C182.848 33.0832 182.605 32.5338 182.605 31.8469C182.605 30.9423 182.985 30.2006 183.749 29.6236C184.515 29.0428 185.855 28.7386 187.771 28.7014C187.783 28.5954 187.789 28.4914 187.789 28.3972C187.789 27.7536 187.634 27.3277 187.327 27.1236C187.015 26.9156 186.449 26.8156 185.62 26.8156C184.721 26.8156 183.845 26.9353 182.989 27.1727L183.183 25.5283C183.994 25.2477 185.136 25.1064 186.611 25.1064C187.689 25.1064 188.522 25.3321 189.105 25.7873C189.693 26.2386 189.987 27.0334 189.987 28.1656C189.987 28.4149 189.973 28.8701 189.952 29.5314C189.934 30.1947 189.922 30.6362 189.922 30.856C189.922 32.0883 190.016 33.0989 190.208 33.8858ZM187.826 32.0275C187.789 31.2229 187.771 30.5263 187.771 29.9435C185.742 29.9435 184.729 30.4596 184.729 31.4898C184.729 32.1982 185.175 32.5534 186.069 32.5534C186.768 32.5534 187.354 32.3787 187.826 32.0275ZM199.544 33.8956H197.179C197.238 32.8203 197.267 31.7135 197.267 30.5695C196.893 30.5322 196.53 30.5165 196.18 30.5165C195.543 30.5165 195.087 30.6853 194.808 31.0267C194.532 31.3662 194.144 32.3218 193.645 33.8956H191.394C191.878 32.4455 192.283 31.4623 192.612 30.9423C192.943 30.4203 193.337 30.1083 193.794 30.0083V29.8729C192.499 29.5687 191.85 28.8544 191.85 27.7261C191.85 26.898 192.14 26.2818 192.726 25.8815C193.308 25.4792 194.072 25.2771 195.02 25.2771C195.786 25.2771 196.771 25.3105 197.974 25.385L199.544 25.2143C199.467 26.5507 199.428 28.0244 199.428 29.6393C199.428 31.4329 199.467 32.8517 199.544 33.8956ZM197.267 29.086C197.267 28.2284 197.249 27.4749 197.216 26.8313C196.56 26.7802 195.921 26.7528 195.296 26.7528C194.45 26.7528 194.029 27.1178 194.029 27.8536C194.029 28.6994 194.656 29.1193 195.911 29.1193C196.244 29.1193 196.697 29.1115 197.267 29.086ZM200 45.4007C200 47.1334 199.471 48.5698 198.409 49.7119C197.351 50.85 196.043 51.4191 194.481 51.4191C192.992 51.4191 191.75 50.8952 190.747 49.8493C189.742 48.8033 189.244 47.4729 189.244 45.8599C189.244 44.1271 189.771 42.6907 190.829 41.5487C191.891 40.4105 193.202 39.8414 194.761 39.8414C196.246 39.8414 197.492 40.3615 198.497 41.4074C199.498 42.4513 200 43.7837 200 45.4007ZM197.669 45.646C197.669 44.4666 197.365 43.511 196.764 42.7771C196.16 42.0432 195.416 41.6762 194.534 41.6762C193.709 41.6762 193.01 42.0471 192.436 42.7849C191.862 43.5247 191.574 44.4588 191.574 45.5891C191.574 46.7606 191.878 47.7182 192.483 48.4541C193.088 49.188 193.829 49.5588 194.71 49.5588C195.531 49.5588 196.229 49.188 196.807 48.4462C197.381 47.7025 197.669 46.7704 197.669 45.646ZM95.497 44.5373C95.497 45.7833 95.0895 46.8293 94.2686 47.6691C93.4497 48.511 92.2018 49.0231 90.5228 49.2056C90.5424 49.9238 90.5639 50.5596 90.5894 51.115H88.2973C88.3345 50.2986 88.3521 49.6609 88.3521 49.2056C86.6359 49.0663 85.3782 48.611 84.5808 47.8438C83.7815 47.0765 83.3799 46.0953 83.3799 44.9023C83.3799 43.6503 83.7874 42.6122 84.6024 41.7861C85.4193 40.956 86.6673 40.4498 88.3521 40.2653L88.2973 38.7504H90.5894C90.5757 38.927 90.5542 39.4333 90.5228 40.2653C92.239 40.4066 93.4967 40.856 94.298 41.6114C95.0973 42.365 95.497 43.3422 95.497 44.5373ZM88.4187 44.9023C88.4187 44.0408 88.4089 42.989 88.3893 41.739C86.5145 41.9627 85.578 42.9733 85.578 44.7649C85.578 46.4643 86.5145 47.4533 88.3893 47.7339C88.4089 46.6487 88.4187 45.7068 88.4187 44.9023ZM93.2969 44.708C93.2969 43.0086 92.3605 42.0196 90.4895 41.739C90.4699 42.8183 90.4601 43.7602 90.4601 44.5608C90.4601 45.4223 90.4699 46.48 90.4895 47.7339C92.3605 47.5102 93.2969 46.4996 93.2969 44.708ZM105.038 45.8442C105.038 46.1523 105.02 46.5585 104.985 47.0569L99.1096 47.157C99.1938 47.8457 99.4897 48.4207 99.9932 48.8759C100.499 49.3332 101.161 49.5608 101.984 49.5608C102.897 49.5608 103.864 49.4254 104.893 49.1507L104.713 50.9226C103.87 51.2268 102.83 51.3799 101.592 51.3799C100.023 51.3799 98.8197 50.9383 97.9812 50.0553C97.1446 49.1723 96.7273 48.1087 96.7273 46.8665C96.7273 45.5694 97.125 44.4431 97.9165 43.4894C98.7099 42.5337 99.8129 42.0589 101.227 42.0589C102.517 42.0589 103.473 42.4101 104.098 43.1107C104.728 43.8092 105.038 44.7198 105.038 45.8442ZM102.906 45.7598C102.906 44.3587 102.307 43.6562 101.116 43.6562C99.9775 43.6562 99.3016 44.3842 99.09 45.8344L102.906 45.7598ZM115.852 49.4705C115.852 49.7139 115.77 50.5204 115.611 51.8822C115.456 53.248 115.376 54.2566 115.376 54.9081H113.752C113.752 54.135 113.74 52.8457 113.715 51.0443C112.931 51.007 111.914 50.9874 110.666 50.9874C109.701 50.9874 108.801 51.007 107.967 51.0443C107.657 52.8457 107.502 54.135 107.502 54.9081H105.876C105.876 54.341 105.871 53.4638 105.855 52.2786C105.839 51.0973 105.833 50.1573 105.833 49.4705H106.917C107.434 47.5102 108.394 45.1632 109.791 42.4337H112.647L114.306 42.2492C114.228 43.4325 114.189 44.9395 114.189 46.7723C114.189 47.6279 114.238 48.5267 114.336 49.4705H115.852ZM112.146 49.4705C112.093 48.5502 112.065 47.6534 112.065 46.7723C112.065 45.8245 112.04 44.9199 111.991 44.0585H110.941C109.848 46.3269 109.152 48.1303 108.86 49.4705H112.146ZM124.944 45.8442C124.944 46.1523 124.927 46.5585 124.892 47.0569L119.016 47.157C119.1 47.8457 119.396 48.4207 119.9 48.8759C120.405 49.3332 121.067 49.5608 121.89 49.5608C122.803 49.5608 123.771 49.4254 124.799 49.1507L124.617 50.9226C123.777 51.2268 122.737 51.3799 121.498 51.3799C119.927 51.3799 118.726 50.9383 117.888 50.0553C117.051 49.1723 116.634 48.1087 116.634 46.8665C116.634 45.5694 117.032 44.4431 117.823 43.4894C118.616 42.5337 119.719 42.0589 121.134 42.0589C122.423 42.0589 123.379 42.4101 124.004 43.1107C124.633 43.8092 124.944 44.7198 124.944 45.8442ZM122.813 45.7598C122.813 44.3587 122.213 43.6562 121.02 43.6562C119.884 43.6562 119.208 44.3842 118.997 45.8344L122.813 45.7598ZM135.39 46.3995C135.39 47.7221 135.014 48.8818 134.26 49.8807C133.506 50.8814 132.475 51.3799 131.169 51.3799C130.193 51.3799 129.527 51.1738 129.158 50.7598H129.051C129.051 52.2511 129.072 53.7641 129.115 55.2927H126.633C126.743 53.5423 126.798 51.527 126.798 49.2409C126.798 46.2935 126.639 44.0428 126.322 42.4965L128.657 42.2414L128.794 43.0263H128.941C129.591 42.4238 130.477 42.1216 131.598 42.1216C132.765 42.1216 133.688 42.5435 134.37 43.3893C135.051 44.2311 135.39 45.2358 135.39 46.3995ZM132.965 46.635C132.965 45.8677 132.775 45.2064 132.391 44.655C132.005 44.0997 131.478 43.823 130.802 43.823C129.962 43.823 129.349 44.0683 128.959 44.5608C129.051 46.2739 129.096 47.8438 129.096 49.2684C129.48 49.5686 129.975 49.7178 130.583 49.7178C131.392 49.7178 131.993 49.4176 132.381 48.8171C132.771 48.2166 132.965 47.4906 132.965 46.635ZM144.469 51.1051L142.316 51.1817C142.218 50.9226 142.171 50.6911 142.171 50.4851H142.051C141.381 51.0561 140.48 51.3426 139.342 51.3426C138.58 51.3426 137.951 51.1307 137.449 50.7107C136.944 50.2849 136.695 49.7237 136.695 49.0231C136.695 48.0949 137.085 47.3375 137.867 46.7488C138.648 46.1562 140.018 45.8442 141.977 45.8069C141.989 45.697 141.997 45.591 141.997 45.4949C141.997 44.8355 141.838 44.4019 141.522 44.1939C141.205 43.9819 140.625 43.8779 139.779 43.8779C138.86 43.8779 137.963 43.9996 137.087 44.2429L137.287 42.5612C138.116 42.2747 139.283 42.1315 140.79 42.1315C141.893 42.1315 142.743 42.363 143.341 42.8281C143.942 43.2892 144.242 44.0997 144.242 45.2574C144.242 45.5125 144.228 45.9776 144.206 46.6546C144.189 47.3316 144.175 47.7829 144.175 48.0086C144.175 49.2684 144.273 50.3006 144.469 51.1051ZM142.034 49.2056C141.997 48.3834 141.977 47.6711 141.977 47.0765C139.902 47.0765 138.866 47.6024 138.866 48.6581C138.866 49.3803 139.324 49.7433 140.235 49.7433C140.952 49.7433 141.55 49.5647 142.034 49.2056ZM155.244 49.4705C155.244 49.7217 155.166 50.5263 155.011 51.8881C154.854 53.248 154.778 54.2566 154.778 54.9081H153.126C153.126 54.135 153.116 52.8693 153.099 51.115H146.238C146.322 49.8551 146.365 48.407 146.365 46.7723C146.365 45.1534 146.26 43.7347 146.048 42.5161L148.673 42.2492C148.601 43.4325 148.564 44.9395 148.564 46.7723C148.564 47.571 148.552 48.4697 148.526 49.4705H151.485C151.461 48.4894 151.447 47.5906 151.447 46.7723C151.447 45.1534 151.345 43.7347 151.136 42.5161L153.755 42.2492C153.685 43.4325 153.645 44.9395 153.645 46.7723C153.645 47.7182 153.671 48.6169 153.718 49.4705H155.244ZM164.74 51.115H162.332C162.411 50.0357 162.45 48.8289 162.45 47.4866C162.45 46.945 162.485 46.272 162.55 45.4654H162.412C162.254 45.9246 161.531 46.9038 160.242 48.4109C159.051 49.7982 158.455 50.7009 158.455 51.115H156.565C156.645 49.7865 156.682 48.3383 156.682 46.7723C156.682 45.0141 156.58 43.5954 156.374 42.5161L158.964 42.2492C158.89 43.4187 158.857 44.5824 158.857 45.7402C158.857 46.3524 158.821 47.1354 158.753 48.0891H158.89C159.006 47.7064 159.697 46.7547 160.963 45.2378C162.154 43.8073 162.753 42.8987 162.753 42.5161L164.73 42.2492C164.658 43.4187 164.62 44.9297 164.62 46.7723C164.62 48.2362 164.662 49.6844 164.74 51.115ZM174.455 51.115H172.04C172.098 50.018 172.13 48.8858 172.13 47.7143C171.746 47.677 171.375 47.6613 171.017 47.6613C170.366 47.6613 169.9 47.834 169.616 48.1833C169.332 48.5286 168.938 49.5059 168.427 51.115H166.125C166.621 49.6334 167.034 48.6287 167.371 48.0949C167.71 47.5632 168.112 47.2433 168.58 47.1413V47.0039C167.255 46.6919 166.593 45.9619 166.593 44.8081C166.593 43.9623 166.889 43.3324 167.487 42.9242C168.08 42.5122 168.862 42.3061 169.832 42.3061C170.615 42.3061 171.622 42.3395 172.853 42.416L174.455 42.2414C174.379 43.6071 174.338 45.1142 174.338 46.7645C174.338 48.5973 174.379 50.0475 174.455 51.115ZM172.13 46.1993C172.13 45.3222 172.11 44.553 172.077 43.8936C171.407 43.8406 170.752 43.8132 170.114 43.8132C169.25 43.8132 168.819 44.188 168.819 44.9395C168.819 45.803 169.461 46.2327 170.745 46.2327C171.084 46.2327 171.548 46.2249 172.13 46.1993ZM188.388 39.2155L188.328 41.2994C186.369 41.2072 184.631 41.164 183.116 41.164C183.214 42.1256 183.263 43.5757 183.263 45.5125C183.263 48.0498 183.291 49.914 183.344 51.115H180.809C180.881 49.4588 180.918 47.4847 180.918 45.1946C180.918 42.5298 180.881 40.5381 180.809 39.2155H188.388Z" fill="#1F1F1F"/>
<path d="M36.9508 0.0334473C46.5799 0.0334473 55.917 3.36154 62.2312 9.73907C68.5435 16.1127 73.7939 25.0059 73.7939 34.7213C73.7939 39.5918 73.3512 45.2001 71.6232 50.0902C68.9099 57.7649 60.8736 66.6777 53.5974 70.3217C48.4528 72.8982 42.3364 73.9658 36.9508 73.9658C32.5644 73.9658 27.1259 73.2456 22.5533 71.2146C17.0874 68.7872 12.601 64.7389 9.16277 61.2676C2.85051 54.892 0 44.9627 0 35.2472C0 25.5318 5.18969 16.2775 11.502 9.90195C17.8162 3.52441 27.3198 0.0334473 36.9508 0.0334473V0.0334473ZM60.5386 11.6818C54.9022 5.98908 45.4142 1.35605 36.8078 1.35605C28.2034 1.35605 18.8565 6.30305 13.2201 11.9957C7.58177 17.6904 3.92019 26.5463 3.92019 35.2472C3.92019 43.9501 7.8247 52.6648 13.463 58.3594C16.4663 61.3932 20.3944 63.9619 24.7103 65.7005C28.4914 67.2232 32.5722 68.1082 36.5923 68.1082C45.1987 68.1082 55.3567 64.3739 60.9931 58.6813C66.6314 52.9866 70.3733 43.9501 70.3733 35.2472C70.3733 26.5463 66.1769 17.3764 60.5386 11.6818Z" fill="#1F1F1F"/>
<path d="M65.6557 57.8653C65.5832 57.7946 41.5527 33.0537 24.7964 2.99886L25.4213 2.61621C42.5636 32.2276 67.7989 55.9128 67.8714 55.9834L65.6557 57.8653Z" fill="#1F1F1F"/>
<path d="M8.13617 58.5032C8.21061 58.4306 32.2411 33.6917 48.9974 3.6368L48.3724 3.25415C31.2282 32.8655 5.99486 56.5487 5.92041 56.6194L8.13617 58.5032Z" fill="#1F1F1F"/>
<path d="M57.3646 63.3362C57.2922 63.2656 33.2617 38.5247 16.5054 8.46981L17.1303 8.08716C34.2726 37.6985 59.5079 61.3817 59.5804 61.4524L57.3646 63.3362Z" fill="#1F1F1F"/>
<path d="M16.4272 63.9742C16.5016 63.9016 40.5321 39.1626 57.2884 9.10775L56.6615 8.7251C39.5193 38.3365 14.2859 62.0197 14.2114 62.0903L16.4272 63.9742Z" fill="#1F1F1F"/>
<path d="M48.6898 70.3555C48.6154 70.2829 24.5849 45.544 7.83057 15.4891L8.45552 15.1045C25.5978 44.7178 50.8331 68.4011 50.9056 68.4717L48.6898 70.3555Z" fill="#1F1F1F"/>
<path d="M25.1039 70.9915C25.1764 70.9208 49.2069 46.1819 65.9632 16.1251L65.3382 15.7424C48.196 45.3558 22.9607 69.039 22.8882 69.1096L25.1039 70.9915Z" fill="#1F1F1F"/>
<path d="M45.081 41.4329C46.4053 41.4329 47.6905 41.892 48.5604 42.7692C49.4282 43.6464 50.1512 44.8708 50.1512 46.2072C50.1512 46.8763 50.0904 47.6495 49.8514 48.3226C49.4792 49.3783 48.3723 50.6047 47.3712 51.1051C46.6639 51.4603 45.8215 51.6075 45.081 51.6075C44.4776 51.6075 43.7292 51.5074 43.1003 51.2287C42.348 50.8952 41.7309 50.3379 41.2568 49.859C40.3889 48.9819 39.9971 47.6161 39.9971 46.2798C39.9971 44.9415 40.7102 43.6679 41.58 42.7908C42.4479 41.9136 43.7566 41.4329 45.081 41.4329Z" fill="white"/>
<path d="M45.0812 41.2034C45.7825 41.2034 46.4741 41.327 47.103 41.5684C47.7162 41.8038 48.2726 42.1512 48.7232 42.6064C49.2051 43.095 49.6459 43.6857 49.9496 44.345C50.218 44.922 50.3806 45.5519 50.3806 46.2073C50.3806 46.5487 50.3649 46.9196 50.3199 47.2905C50.2728 47.6672 50.1945 48.044 50.0691 48.3972C49.8732 48.9526 49.4911 49.5472 49.0288 50.0652C48.5606 50.5911 48.0042 51.0464 47.4752 51.3113C47.1187 51.4898 46.7347 51.6174 46.3468 51.7018C45.9197 51.796 45.4867 51.8391 45.0812 51.8391C44.7442 51.8391 44.3622 51.8077 43.9782 51.7351C43.6471 51.6704 43.3141 51.5762 43.0084 51.4388C42.6127 51.2642 42.2542 51.0307 41.9329 50.7795C41.6155 50.5303 41.3354 50.2654 41.0944 50.022C40.6536 49.5766 40.3284 49.0154 40.1129 48.3992C39.8778 47.732 39.7661 47.0001 39.7661 46.2799C39.7661 45.6186 39.9307 44.973 40.201 44.3804C40.5027 43.7151 40.9377 43.1147 41.4157 42.63C41.8682 42.1728 42.4325 41.8176 43.0535 41.5782C43.6883 41.3309 44.3837 41.2034 45.0812 41.2034ZM46.9404 41.9981C46.3624 41.7783 45.7277 41.6645 45.0812 41.6645C44.4366 41.6645 43.798 41.7823 43.2181 42.006C42.6558 42.2238 42.1484 42.5436 41.7429 42.9538C41.3001 43.4012 40.8985 43.9565 40.6203 44.5707C40.3754 45.1064 40.2265 45.6873 40.2265 46.2799C40.2265 46.953 40.3303 47.6319 40.5458 48.2442C40.7418 48.8015 41.0297 49.3038 41.4216 49.6982C41.6527 49.9318 41.9192 50.1849 42.215 50.4165C42.5089 50.646 42.8341 50.8599 43.1926 51.0189C43.4669 51.1386 43.7647 51.2249 44.0644 51.2818C44.4151 51.3486 44.7677 51.376 45.0812 51.376C45.4554 51.376 45.857 51.3368 46.2508 51.2524C46.6054 51.1739 46.9541 51.0581 47.2695 50.9011C47.7456 50.6617 48.251 50.2457 48.684 49.7591C49.1111 49.2822 49.4598 48.7406 49.6361 48.2442C49.7478 47.9263 49.8203 47.5809 49.8634 47.2355C49.9065 46.8862 49.9202 46.535 49.9202 46.2073C49.9202 45.6205 49.7733 45.0574 49.5323 44.5373C49.2521 43.931 48.8446 43.3835 48.398 42.9302C47.9944 42.524 47.4948 42.212 46.9404 41.9981Z" fill="#1F1F1F"/>
<path d="M47.9805 43.3441C47.2791 42.6377 46.1017 42.0608 45.032 42.0608C43.9623 42.0608 42.8006 42.677 42.1012 43.3834C41.3998 44.0918 40.9453 45.1907 40.9453 46.2719C40.9453 47.3532 41.4312 48.4364 42.1306 49.1448C42.5048 49.5215 42.9926 49.8394 43.5274 50.0553C43.9976 50.2456 44.505 50.3555 45.0046 50.3555C46.0743 50.3555 47.3359 49.8924 48.0373 49.184C48.7367 48.4776 49.203 47.3532 49.203 46.2719C49.203 45.1907 48.6799 44.0525 47.9805 43.3441Z" fill="#1F1F1F"/>
<path d="M29.0692 41.4329C30.3956 41.4329 31.6807 41.892 32.5486 42.7692C33.4165 43.6464 34.1394 44.8708 34.1394 46.2072C34.1394 46.8763 34.0787 47.6495 33.8416 48.3226C33.4675 49.3783 32.3625 50.6047 31.3614 51.1051C30.6522 51.4603 29.8118 51.6075 29.0692 51.6075C28.4658 51.6075 27.7175 51.5074 27.0886 51.2287C26.3363 50.8952 25.7192 50.3379 25.247 49.859C24.3772 48.9819 23.9854 47.6161 23.9854 46.2798C23.9854 44.9415 24.6985 43.6679 25.5683 42.7908C26.4362 41.9136 27.7449 41.4329 29.0692 41.4329Z" fill="white"/>
<path d="M29.0695 41.2034C29.7708 41.2034 30.4624 41.327 31.0913 41.5684C31.7045 41.8038 32.2609 42.1512 32.7115 42.6064C33.1954 43.0931 33.6342 43.6857 33.9398 44.345C34.2063 44.922 34.3708 45.5519 34.3708 46.2073C34.3708 46.5487 34.3552 46.9196 34.3081 47.2905C34.2611 47.6653 34.1828 48.044 34.0593 48.3972C33.8615 48.9526 33.4794 49.5471 33.0171 50.0672C32.5489 50.5911 31.9944 51.0464 31.4635 51.3113C31.1109 51.4898 30.7249 51.6174 30.337 51.7018C29.908 51.796 29.475 51.8391 29.0695 51.8391C28.7345 51.8391 28.3524 51.8077 27.9665 51.7351C27.6354 51.6704 27.3024 51.5762 26.9967 51.4388C26.6029 51.2642 26.2425 51.0307 25.9212 50.7795C25.6038 50.5303 25.3236 50.2654 25.0827 50.022C24.6419 49.5766 24.3186 49.0154 24.1012 48.3972C23.8661 47.732 23.7544 47.0001 23.7544 46.2799C23.7544 45.6186 23.9209 44.973 24.1893 44.3804C24.491 43.7151 24.9259 43.1147 25.4059 42.63C25.8565 42.1728 26.4207 41.8195 27.0418 41.5782C27.6765 41.3309 28.372 41.2034 29.0695 41.2034ZM30.9287 42.0001C30.3527 41.7783 29.716 41.6645 29.0695 41.6645C28.4269 41.6645 27.7882 41.7823 27.2083 42.006C26.646 42.2257 26.1367 42.5436 25.7311 42.9538C25.2884 43.4012 24.8868 43.9565 24.6086 44.5687C24.3656 45.1064 24.2148 45.6873 24.2148 46.2799C24.2148 46.953 24.3186 47.6319 24.5341 48.2442C24.73 48.8015 25.02 49.3038 25.4098 49.6982C25.641 49.9318 25.9075 50.1849 26.2033 50.4165C26.4972 50.646 26.8224 50.8599 27.1809 51.0189C27.4552 51.1386 27.7549 51.2249 28.0527 51.2818C28.4034 51.3486 28.756 51.376 29.0695 51.376C29.4437 51.376 29.8453 51.3387 30.2391 51.2524C30.5917 51.1739 30.9404 51.0581 31.2578 50.8992C31.7358 50.6617 32.2413 50.2457 32.6723 49.761C33.0994 49.2822 33.4501 48.7406 33.6244 48.2442C33.738 47.9263 33.8086 47.5809 33.8517 47.2355C33.8948 46.8862 33.9104 46.535 33.9104 46.2073C33.9104 45.6205 33.7615 45.0574 33.5225 44.5373C33.2404 43.931 32.8329 43.3835 32.3863 42.9302C31.9827 42.524 31.4831 42.212 30.9287 42.0001Z" fill="#1F1F1F"/>
<path d="M31.9688 43.3441C31.2694 42.6377 30.09 42.0608 29.0203 42.0608C27.9506 42.0608 26.7889 42.677 26.0895 43.3834C25.3881 44.0918 24.9336 45.1907 24.9336 46.2719C24.9336 47.3532 25.4195 48.4364 26.1189 49.1448C26.4931 49.5215 26.9809 49.8394 27.5177 50.0553C27.9879 50.2456 28.4933 50.3555 28.9929 50.3555C30.0626 50.3555 31.3242 49.8924 32.0256 49.184C32.725 48.4776 33.1913 47.3532 33.1913 46.2719C33.1913 45.1907 32.6701 44.0525 31.9688 43.3441Z" fill="#1F1F1F"/>
<path d="M37.1469 32.6887C38.3518 32.6887 39.5194 33.1067 40.3089 33.9034C41.0965 34.7001 41.7548 35.8127 41.7548 37.0274C41.7548 37.6357 41.698 38.3363 41.4825 38.9485C41.1435 39.9081 40.1385 41.0227 39.2295 41.4779C38.5849 41.7998 37.8209 41.9332 37.1469 41.9332C36.5984 41.9332 35.9186 41.8429 35.3465 41.5898C34.6647 41.2856 34.1025 40.7794 33.6734 40.3457C32.8839 39.549 32.5273 38.3068 32.5273 37.0922C32.5273 35.8775 33.1758 34.7197 33.9653 33.923C34.7549 33.1263 35.944 32.6887 37.1469 32.6887Z" fill="#1F1F1F"/>
<path d="M39.7818 34.4256C39.145 33.7839 38.0734 33.26 37.1017 33.26C36.13 33.26 35.076 33.8193 34.4392 34.4609C33.8025 35.1046 33.3892 36.1034 33.3892 37.0865C33.3892 38.0696 33.83 39.0528 34.4667 39.6964C34.8056 40.0378 35.2484 40.3283 35.7362 40.5245C36.1633 40.6972 36.6237 40.7953 37.0782 40.7953C38.0499 40.7953 39.196 40.3754 39.8327 39.7317C40.4694 39.0901 40.8906 38.0696 40.8906 37.0865C40.8906 36.1034 40.4185 35.0693 39.7818 34.4256Z" fill="white"/>
<path d="M36.8294 49.9102C38.4398 49.9102 40.0012 50.4655 41.0572 51.533C42.1132 52.5985 42.9909 54.086 42.9909 55.7108C42.9909 56.5251 42.9164 57.4631 42.6284 58.2814C42.1739 59.5647 40.8299 61.0541 39.6133 61.6644C38.7533 62.0942 37.7306 62.2727 36.8294 62.2727C36.0967 62.2727 35.1877 62.153 34.4217 61.8136C33.5087 61.4074 32.7584 60.7304 32.1824 60.1495C31.1284 59.084 30.6504 57.4239 30.6504 55.7991C30.6504 54.1743 31.5183 52.626 32.5742 51.5605C33.6302 50.493 35.219 49.9102 36.8294 49.9102Z" fill="#1F1F1F"/>
<path d="M40.3518 52.2317C39.5016 51.3722 38.0694 50.6736 36.7706 50.6736C35.4697 50.6736 34.0591 51.4193 33.2089 52.2788C32.3567 53.1402 31.8042 54.4766 31.8042 55.7913C31.8042 57.1041 32.3939 58.4208 33.2441 59.2803C33.6987 59.7375 34.2903 60.1261 34.9427 60.389C35.5148 60.6186 36.1299 60.752 36.7372 60.752C38.0361 60.752 39.5701 60.1889 40.4204 59.3294C41.2726 58.4679 41.8388 57.1041 41.8388 55.7913C41.8388 54.4766 41.204 53.0912 40.3518 52.2317Z" fill="white"/>
</g>
<defs>
<clipPath id="clip0">
<rect width="200" height="74" fill="white"/>
</clipPath>
</defs>
</svg>
