<svg width="31" height="31" viewBox="0 0 31 31" fill="none" xmlns="http://www.w3.org/2000/svg">
<path d="M23.9565 9.17025C23.9456 8.93114 23.7427 8.73578 23.5026 8.73578H20.0751V2.39633C20.0751 1.07494 19.0001 0 17.6787 0H5.06039C3.73901 0 2.66406 1.07494 2.66406 2.39633V6.82477C2.66406 7.07618 2.8677 7.27982 3.11911 7.27982C3.37029 7.27982 3.57416 7.07618 3.57416 6.82477V4.30734H19.165V8.73578H8.94296C8.69581 8.73578 8.48792 8.94367 8.48792 9.19083V24.7211C8.48792 25.117 8.98364 25.3237 9.26462 25.0428L13.4994 20.8083H19.165V26.2073H3.57416V8.96827C3.57416 8.71709 3.37029 8.51346 3.11911 8.51346C2.8677 8.51346 2.66406 8.71709 2.66406 8.96827V28.6037C2.66406 29.9251 3.73901 31 5.06039 31H17.6787C19.0001 31 20.0751 29.9251 20.0751 28.6037V20.8083H23.5026C23.754 20.8083 23.9576 20.6046 23.9576 20.3532V9.19083C23.9572 9.18397 23.9569 9.17711 23.9565 9.17025ZM3.57416 3.39725V2.39633C3.57416 1.57682 4.24065 0.910095 5.06039 0.910095H17.6787C18.4983 0.910095 19.165 1.57682 19.165 2.39633V3.39725H3.57416ZM17.6787 30.0899H5.06039C4.24065 30.0899 3.57416 29.4232 3.57416 28.6037V27.1174H19.165V28.6037C19.165 29.4232 18.4983 30.0899 17.6787 30.0899ZM22.2056 9.64587L16.2228 14.4322L10.24 9.64587H22.2056ZM23.0475 10.1376V17.9995L17.9202 14.2394L23.0475 10.1376ZM9.39801 10.1376L14.5253 14.2394L9.39801 17.9995V10.1376ZM13.3109 19.8982C13.1902 19.8982 13.0746 19.9462 12.989 20.0316L9.39801 23.6227V19.1278L15.2611 14.8281L15.9385 15.3699C16.1029 15.5014 16.3427 15.5014 16.5071 15.3699L17.1844 14.8281L23.0475 19.1278V19.8982H13.3109Z" fill="#C0C0C0"/>
<path d="M11.8549 1.94128H10.8842C10.6328 1.94128 10.4292 2.14492 10.4292 2.39633C10.4292 2.64751 10.6328 2.85138 10.8842 2.85138H11.8549C12.1063 2.85138 12.3099 2.64751 12.3099 2.39633C12.3099 2.14492 12.1063 1.94128 11.8549 1.94128Z" fill="#C0C0C0"/>
<path d="M14.2814 1.94128H13.7961C13.5447 1.94128 13.3411 2.14492 13.3411 2.39633C13.3411 2.64751 13.5447 2.85138 13.7961 2.85138H14.2814C14.5328 2.85138 14.7365 2.64751 14.7365 2.39633C14.7365 2.14492 14.5328 1.94128 14.2814 1.94128Z" fill="#C0C0C0"/>
<path d="M8.94305 1.94128H8.45773C8.20632 1.94128 8.00269 2.14492 8.00269 2.39633C8.00269 2.64751 8.20632 2.85138 8.45773 2.85138H8.94305C9.19447 2.85138 9.3981 2.64751 9.3981 2.39633C9.3981 2.14492 9.19447 1.94128 8.94305 1.94128Z" fill="#C0C0C0"/>
<path d="M12.3402 28.1486H10.3989C10.1475 28.1486 9.94385 28.3525 9.94385 28.6037C9.94385 28.8551 10.1475 29.0587 10.3989 29.0587H12.3402C12.5916 29.0587 12.7952 28.8551 12.7952 28.6037C12.7952 28.3525 12.5916 28.1486 12.3402 28.1486Z" fill="#C0C0C0"/>
<path d="M23.5027 5.82385C23.2512 5.82385 23.0476 6.02749 23.0476 6.2789C23.0476 6.53008 23.2512 6.73395 23.5027 6.73395C24.8574 6.73395 25.9595 7.83609 25.9595 9.19083C25.9595 9.442 26.1632 9.64587 26.4146 9.64587C26.666 9.64587 26.8696 9.442 26.8696 9.19083C26.8696 7.33421 25.3593 5.82385 23.5027 5.82385Z" fill="#C0C0C0"/>
<path d="M25.4438 4.36792C25.1924 4.36792 24.9888 4.57156 24.9888 4.82297C24.9888 5.07414 25.1924 5.27802 25.4438 5.27802C26.5311 5.27802 27.4154 6.16233 27.4154 7.24957C27.4154 7.50075 27.619 7.70462 27.8704 7.70462C28.1218 7.70462 28.3255 7.50075 28.3255 7.24957C28.3255 5.66069 27.0327 4.36792 25.4438 4.36792Z" fill="#C0C0C0"/>
</svg>
