<svg width="31" height="31" viewBox="0 0 31 31" fill="none" xmlns="http://www.w3.org/2000/svg">
<g clip-path="url(#clip0)">
<path d="M15.4998 5.64886C14.6509 5.64886 13.8338 5.90425 13.137 6.38742C12.931 6.53025 12.8789 6.81427 13.0206 7.02183C13.1624 7.22938 13.4444 7.28181 13.6503 7.13904C14.1955 6.76105 14.835 6.56125 15.4998 6.56125C17.3013 6.56125 18.7669 8.03786 18.7669 9.85288C18.7669 11.6679 17.3013 13.1446 15.4998 13.1446C13.6983 13.1446 12.2327 11.6679 12.2327 9.85288C12.2327 9.31746 12.3561 8.80705 12.5994 8.33587C12.7148 8.11233 12.6286 7.83691 12.4068 7.72066C12.1849 7.60447 11.9116 7.69123 11.7961 7.91477C11.4894 8.50886 11.3271 9.17905 11.3271 9.85288C11.3272 12.171 13.199 14.0569 15.4998 14.0569C17.8006 14.0569 19.6724 12.171 19.6724 9.85288C19.6724 7.53478 17.8006 5.64886 15.4998 5.64886Z" fill="#C0C0C0"/>
<path d="M30.9657 30.3686L26.4971 19.5509C26.4269 19.3809 26.262 19.2701 26.0792 19.2701H21.6261C22.4922 18.0895 23.2132 16.9136 23.7762 15.7591C24.774 13.713 25.2799 11.7259 25.2799 9.85291C25.2798 4.41998 20.8928 0 15.5005 0C10.1081 0 5.72111 4.41998 5.72111 9.85285C5.72111 11.7258 6.22698 13.713 7.22479 15.759C7.78776 16.9136 8.50869 18.0895 9.37487 19.27H4.92183C4.73898 19.27 4.57405 19.3809 4.50387 19.5509L1.45885 26.9222C1.36276 27.1549 1.47199 27.4219 1.70285 27.5186C1.75977 27.5425 1.81862 27.5538 1.87662 27.5538C2.05403 27.5538 2.22241 27.4481 2.29476 27.2728L2.72925 26.221H5.81145L4.21422 30.0876H1.13208L1.59508 28.9667C1.69117 28.7341 1.58194 28.4671 1.35108 28.3703C1.12009 28.2734 0.855137 28.3836 0.759109 28.6161L0.0352713 30.3686C-0.0229143 30.5093 -0.00741426 30.6701 0.0766248 30.7969C0.160543 30.9238 0.301859 31 0.453227 31H30.5477C30.699 31 30.8404 30.9238 30.9244 30.7969C31.0083 30.6701 31.0239 30.5093 30.9657 30.3686ZM6.62665 9.85285C6.62665 4.92301 10.6074 0.91232 15.5005 0.91232C20.3935 0.91232 24.3743 4.92307 24.3743 9.85285C24.3743 11.9201 23.6613 15.2235 20.3633 19.4332C20.36 19.4372 20.3571 19.4414 20.3539 19.4454C20.1855 19.6602 20.0105 19.8772 19.8283 20.0967C18.016 22.2802 16.182 23.8745 15.5004 24.441C14.8208 23.8765 12.9955 22.2901 11.1844 20.1108C10.9977 19.8861 10.8186 19.664 10.6462 19.4442C10.6435 19.4407 10.6408 19.4371 10.6379 19.4336C7.34007 15.2242 6.62665 11.9209 6.62665 9.85285ZM5.22378 20.1824H8.30604L7.1818 22.9039H4.0996L5.22378 20.1824ZM7.87137 30.0877L10.7014 23.2369L18.755 30.0877H7.87137ZM20.1586 30.0877L10.8131 22.1379C10.7028 22.044 10.5546 22.0088 10.4145 22.0431C10.2742 22.0773 10.1585 22.1769 10.1031 22.3111L6.89063 30.0876H5.19508L6.90831 25.94C6.9665 25.7993 6.951 25.6385 6.86696 25.5117C6.78304 25.3848 6.64166 25.3086 6.4903 25.3086H3.10627L3.72276 23.8161H7.48381C7.66666 23.8161 7.83159 23.7053 7.90177 23.5352L9.28684 20.1823H10.0726C10.209 20.3537 10.3477 20.5251 10.49 20.6964C12.8262 23.5076 15.1266 25.3125 15.2234 25.388C15.305 25.4516 15.4027 25.4833 15.5005 25.4833C15.5982 25.4833 15.696 25.4515 15.7775 25.388C15.8307 25.3465 16.5499 24.782 17.5741 23.8162H22.7013C22.9514 23.8162 23.1541 23.6119 23.1541 23.36C23.1541 23.1081 22.9514 22.9039 22.7013 22.9039H18.5073C19.135 22.2679 19.8212 21.5265 20.511 20.6965C20.6533 20.5251 20.792 20.3538 20.9284 20.1824H25.7771L26.9013 22.9039H24.5123C24.2623 22.9039 24.0596 23.1081 24.0596 23.36C24.0596 23.6119 24.2622 23.8162 24.5123 23.8162H27.2782L27.8947 25.3087H18.5662C18.3772 25.3087 18.2082 25.4268 18.142 25.6052C18.0759 25.7836 18.1267 25.9845 18.2694 26.1093L22.8185 30.0877H20.1586ZM24.1999 30.0877L19.7785 26.221H28.2716L29.8689 30.0877H24.1999Z" fill="#C0C0C0"/>
</g>
<defs>
<clipPath id="clip0">
<rect width="31" height="31" fill="white"/>
</clipPath>
</defs>
</svg>
