<svg width="294" height="302" viewBox="0 0 294 302" fill="none" xmlns="http://www.w3.org/2000/svg">
<circle cx="3" cy="3" r="3" fill="#DCDCDC"/>
<circle cx="51" cy="3" r="3" fill="#DCDCDC"/>
<circle cx="99" cy="3" r="3" fill="#DCDCDC"/>
<circle cx="147" cy="3" r="3" fill="#DCDCDC"/>
<circle cx="195" cy="3" r="3" fill="#DCDCDC"/>
<circle cx="243" cy="3" r="3" fill="#DCDCDC"/>
<circle cx="291" cy="3" r="3" fill="#DCDCDC"/>
<circle cx="51" cy="3" r="3" fill="#DCDCDC"/>
<circle cx="99" cy="3" r="3" fill="#DCDCDC"/>
<circle cx="147" cy="3" r="3" fill="#DCDCDC"/>
<circle cx="195" cy="3" r="3" fill="#DCDCDC"/>
<circle cx="243" cy="3" r="3" fill="#DCDCDC"/>
<circle cx="291" cy="3" r="3" fill="#DCDCDC"/>
<circle cx="3" cy="52.2" r="3" fill="#DCDCDC"/>
<circle cx="51" cy="52.2" r="3" fill="#DCDCDC"/>
<circle cx="99" cy="52.2" r="3" fill="#DCDCDC"/>
<circle cx="147" cy="52.2" r="3" fill="#DCDCDC"/>
<circle cx="195" cy="52.2" r="3" fill="#DCDCDC"/>
<circle cx="243" cy="52.2" r="3" fill="#DCDCDC"/>
<circle cx="291" cy="52.2" r="3" fill="#DCDCDC"/>
<circle cx="51" cy="52.2" r="3" fill="#DCDCDC"/>
<circle cx="99" cy="52.2" r="3" fill="#DCDCDC"/>
<circle cx="147" cy="52.2" r="3" fill="#DCDCDC"/>
<circle cx="195" cy="52.2" r="3" fill="#DCDCDC"/>
<circle cx="243" cy="52.2" r="3" fill="#DCDCDC"/>
<circle cx="291" cy="52.2" r="3" fill="#DCDCDC"/>
<circle cx="3" cy="101.4" r="3" fill="#DCDCDC"/>
<circle cx="51" cy="101.4" r="3" fill="#DCDCDC"/>
<circle cx="99" cy="101.4" r="3" fill="#DCDCDC"/>
<circle cx="147" cy="101.4" r="3" fill="#DCDCDC"/>
<circle cx="195" cy="101.4" r="3" fill="#DCDCDC"/>
<circle cx="243" cy="101.4" r="3" fill="#DCDCDC"/>
<circle cx="291" cy="101.4" r="3" fill="#DCDCDC"/>
<circle cx="51" cy="101.4" r="3" fill="#DCDCDC"/>
<circle cx="99" cy="101.4" r="3" fill="#DCDCDC"/>
<circle cx="147" cy="101.4" r="3" fill="#DCDCDC"/>
<circle cx="195" cy="101.4" r="3" fill="#DCDCDC"/>
<circle cx="243" cy="101.4" r="3" fill="#DCDCDC"/>
<circle cx="291" cy="101.4" r="3" fill="#DCDCDC"/>
<circle cx="3" cy="150.6" r="3" fill="#DCDCDC"/>
<circle cx="51" cy="150.6" r="3" fill="#DCDCDC"/>
<circle cx="99" cy="150.6" r="3" fill="#DCDCDC"/>
<circle cx="147" cy="150.6" r="3" fill="#DCDCDC"/>
<circle cx="195" cy="150.6" r="3" fill="#DCDCDC"/>
<circle cx="243" cy="150.6" r="3" fill="#DCDCDC"/>
<circle cx="291" cy="150.6" r="3" fill="#DCDCDC"/>
<circle cx="51" cy="150.6" r="3" fill="#DCDCDC"/>
<circle cx="99" cy="150.6" r="3" fill="#DCDCDC"/>
<circle cx="147" cy="150.6" r="3" fill="#DCDCDC"/>
<circle cx="195" cy="150.6" r="3" fill="#DCDCDC"/>
<circle cx="243" cy="150.6" r="3" fill="#DCDCDC"/>
<circle cx="291" cy="150.6" r="3" fill="#DCDCDC"/>
<circle cx="3" cy="199.8" r="3" fill="#DCDCDC"/>
<circle cx="51" cy="199.8" r="3" fill="#DCDCDC"/>
<circle cx="99" cy="199.8" r="3" fill="#DCDCDC"/>
<circle cx="147" cy="199.8" r="3" fill="#DCDCDC"/>
<circle cx="195" cy="199.8" r="3" fill="#DCDCDC"/>
<circle cx="243" cy="199.8" r="3" fill="#DCDCDC"/>
<circle cx="291" cy="199.8" r="3" fill="#DCDCDC"/>
<circle cx="51" cy="199.8" r="3" fill="#DCDCDC"/>
<circle cx="99" cy="199.8" r="3" fill="#DCDCDC"/>
<circle cx="147" cy="199.8" r="3" fill="#DCDCDC"/>
<circle cx="195" cy="199.8" r="3" fill="#DCDCDC"/>
<circle cx="243" cy="199.8" r="3" fill="#DCDCDC"/>
<circle cx="291" cy="199.8" r="3" fill="#DCDCDC"/>
<circle cx="3" cy="249" r="3" fill="#DCDCDC"/>
<circle cx="51" cy="249" r="3" fill="#DCDCDC"/>
<circle cx="99" cy="249" r="3" fill="#DCDCDC"/>
<circle cx="147" cy="249" r="3" fill="#DCDCDC"/>
<circle cx="195" cy="249" r="3" fill="#DCDCDC"/>
<circle cx="243" cy="249" r="3" fill="#DCDCDC"/>
<circle cx="291" cy="249" r="3" fill="#DCDCDC"/>
<circle cx="51" cy="249" r="3" fill="#DCDCDC"/>
<circle cx="99" cy="249" r="3" fill="#DCDCDC"/>
<circle cx="147" cy="249" r="3" fill="#DCDCDC"/>
<circle cx="195" cy="249" r="3" fill="#DCDCDC"/>
<circle cx="243" cy="249" r="3" fill="#DCDCDC"/>
<circle cx="291" cy="249" r="3" fill="#DCDCDC"/>
<circle cx="3" cy="298.2" r="3" fill="#DCDCDC"/>
<circle cx="51" cy="298.2" r="3" fill="#DCDCDC"/>
<circle cx="99" cy="298.2" r="3" fill="#DCDCDC"/>
<circle cx="147" cy="298.2" r="3" fill="#DCDCDC"/>
<circle cx="195" cy="298.2" r="3" fill="#DCDCDC"/>
<circle cx="243" cy="298.2" r="3" fill="#DCDCDC"/>
<circle cx="291" cy="298.2" r="3" fill="#DCDCDC"/>
<circle cx="51" cy="298.2" r="3" fill="#DCDCDC"/>
<circle cx="99" cy="298.2" r="3" fill="#DCDCDC"/>
<circle cx="147" cy="298.2" r="3" fill="#DCDCDC"/>
<circle cx="195" cy="298.2" r="3" fill="#DCDCDC"/>
<circle cx="243" cy="298.2" r="3" fill="#DCDCDC"/>
<circle cx="291" cy="298.2" r="3" fill="#DCDCDC"/>
</svg>
