<svg width="25" height="16" viewBox="0 0 25 16" fill="none" xmlns="http://www.w3.org/2000/svg">
<path d="M20.7455 9.17486C20.3413 8.61486 20.457 8.36572 20.7455 7.86514C20.7507 7.85943 24.0873 2.80114 24.4311 1.08571L24.4331 1.08457C24.604 0.459428 24.4331 0 23.6071 0H20.8736C20.1778 0 19.8569 0.394286 19.6851 0.835429C19.6851 0.835429 18.2933 4.49029 16.3245 6.85943C15.6891 7.544 15.3953 7.76343 15.0484 7.76343C14.8776 7.76343 14.612 7.544 14.612 6.91886V1.08457C14.612 0.334857 14.4172 0 13.8411 0H9.54304C9.10657 0 8.84718 0.349714 8.84718 0.675429C8.84718 1.38629 9.83159 1.54971 9.93368 3.54971V7.88914C9.93368 8.84 9.77638 9.01486 9.42741 9.01486C8.49821 9.01486 6.24292 5.34514 4.90642 1.14514C4.63662 0.330286 4.37307 0.00114277 3.672 0.00114277H0.937532C0.157297 0.00114277 0 0.395428 0 0.836571C0 1.616 0.929199 5.49143 4.32098 10.6114C6.58148 14.1063 9.76492 16 12.6609 16C14.4015 16 14.614 15.5794 14.614 14.856C14.614 11.5166 14.4568 11.2011 15.3287 11.2011C15.7328 11.2011 16.4287 11.4206 18.0537 13.1063C19.9111 15.1051 20.2163 16 21.2559 16H23.9894C24.7686 16 25.1634 15.5794 24.9363 14.7497C24.4165 13.0046 20.9039 9.41486 20.7455 9.17486Z" fill="#C0C0C0"/>
</svg>
