<svg width="43" height="43" viewBox="0 0 43 43" fill="none" xmlns="http://www.w3.org/2000/svg">
<path d="M23.5244 40.9844H2.01562V12.0938C2.01562 11.9156 1.94484 11.7447 1.81884 11.6187C1.69284 11.4927 1.52194 11.4219 1.34375 11.4219C1.16556 11.4219 0.994664 11.4927 0.868663 11.6187C0.742662 11.7447 0.671875 11.9156 0.671875 12.0938V41.6562C0.671875 41.8344 0.742662 42.0053 0.868663 42.1313C0.994664 42.2573 1.16556 42.3281 1.34375 42.3281H23.5244C23.7026 42.3281 23.8734 42.2573 23.9994 42.1313C24.1254 42.0053 24.1962 41.8344 24.1962 41.6562C24.1962 41.4781 24.1254 41.3072 23.9994 41.1812C23.8734 41.0552 23.7026 40.9844 23.5244 40.9844Z" fill="#315069"/>
<path d="M1.34391 10.0781H9.40641C9.5846 10.0781 9.7555 10.0073 9.8815 9.88134C10.0075 9.75534 10.0783 9.58444 10.0783 9.40625V2.01562H29.5627V18.7292C29.5627 18.9074 29.6334 19.0783 29.7594 19.2043C29.8855 19.3303 30.0563 19.4011 30.2345 19.4011C30.4127 19.4011 30.5836 19.3303 30.7096 19.2043C30.8356 19.0783 30.9064 18.9074 30.9064 18.7292V1.34375C30.9064 1.16556 30.8356 0.994664 30.7096 0.868663C30.5836 0.742662 30.4127 0.671875 30.2345 0.671875H9.40641C9.23144 0.677587 9.06443 0.746303 8.9361 0.865375C8.86891 0.932563 0.940787 8.86069 0.869568 8.93123C0.775674 9.02516 0.711721 9.1448 0.685787 9.27505C0.659853 9.4053 0.673101 9.54031 0.723859 9.66304C0.774616 9.78576 0.860606 9.89069 0.970966 9.96457C1.08133 10.0384 1.21111 10.078 1.34391 10.0781ZM8.73454 2.96566V8.73438H2.96582L8.73454 2.96566Z" fill="#315069"/>
<path d="M42.2888 32.6961L39.2506 24.1875H39.6409C39.8191 24.1875 39.99 24.1167 40.116 23.9907C40.242 23.8647 40.3128 23.6938 40.3128 23.5156C40.3128 23.3374 40.242 23.1665 40.116 23.0405C39.99 22.9145 39.8191 22.8437 39.6409 22.8437H32.9222C32.9222 20.1764 28.8909 20.1791 28.8909 22.8437H21.9303C21.7521 22.8437 21.5812 22.9145 21.4552 23.0405C21.3292 23.1665 21.2584 23.3374 21.2584 23.5156C21.2584 23.6938 21.3292 23.8647 21.4552 23.9907C21.5812 24.1167 21.7521 24.1875 21.9303 24.1875H22.3207L19.2831 32.6961C19.2578 32.7756 19.2446 32.8586 19.2441 32.942C19.2441 34.0112 19.6689 35.0365 20.4249 35.7925C21.1809 36.5485 22.2062 36.9733 23.2754 36.9733C24.3445 36.9733 25.3699 36.5485 26.1259 35.7925C26.8819 35.0365 27.3066 34.0112 27.3066 32.942C27.3063 32.8585 27.2929 32.7755 27.267 32.6961L24.2268 24.1875H28.8909V38.2969H28.2191C28.0409 38.2969 27.87 38.3677 27.744 38.4937L25.7284 40.5093C25.6024 40.6353 25.5316 40.8062 25.5316 40.9844V41.6562C25.5316 41.8344 25.6023 42.0053 25.7283 42.1313C25.8543 42.2573 26.0252 42.3281 26.2034 42.3281H35.6097C35.7879 42.3281 35.9588 42.2573 36.0848 42.1313C36.2108 42.0053 36.2816 41.8344 36.2816 41.6562V40.9844C36.2815 40.8062 36.2107 40.6353 36.0847 40.5093L34.0691 38.4937C33.9431 38.3677 33.7722 38.2969 33.5941 38.2969H32.9222V24.1875H37.3438L34.3056 32.6961C34.2777 32.775 34.2643 32.8583 34.2659 32.942C34.2659 34.0112 34.6907 35.0365 35.4467 35.7925C36.2027 36.5485 37.228 36.9733 38.2972 36.9733C39.3663 36.9733 40.3917 36.5485 41.1477 35.7925C41.9037 35.0365 42.3284 34.0112 42.3284 32.942C42.3288 32.8584 42.3154 32.7754 42.2888 32.6961ZM23.2747 25.5138L25.6794 32.25H20.8681L23.2747 25.5138ZM23.274 35.6094C22.682 35.6045 22.1082 35.4042 21.6417 35.0398C21.1752 34.6753 20.842 34.167 20.694 33.5937H25.8541C25.7061 34.167 25.3729 34.6753 24.9064 35.0398C24.4399 35.4042 23.8661 35.6045 23.274 35.6094ZM34.6596 40.9844H27.1535L28.4972 39.6406H33.3159L34.6596 40.9844ZM30.2347 38.2969V22.8437C30.2347 22.6655 30.3055 22.4947 30.4315 22.3687C30.5575 22.2426 30.7284 22.1719 30.9066 22.1719C31.0847 22.1719 31.2556 22.2426 31.3816 22.3687C31.5076 22.4947 31.5784 22.6655 31.5784 22.8437V38.2969H30.2347ZM40.7032 32.25H35.8912L38.2972 25.5138L40.7032 32.25ZM38.2972 35.6094C37.7052 35.6041 37.1315 35.4037 36.665 35.0393C36.1984 34.6749 35.865 34.1668 35.7165 33.5937H40.8779C40.7293 34.1668 40.396 34.6749 39.9294 35.0393C39.4629 35.4037 38.8892 35.6041 38.2972 35.6094Z" fill="#315069"/>
<path d="M22.8438 8.73438C23.0219 8.73438 23.1928 8.66359 23.3188 8.53759C23.4448 8.41159 23.5156 8.24069 23.5156 8.0625C23.5156 7.88431 23.4448 7.71341 23.3188 7.58741C23.1928 7.46141 23.0219 7.39062 22.8438 7.39062H14.7812C14.6031 7.39062 14.4322 7.46141 14.3062 7.58741C14.1802 7.71341 14.1094 7.88431 14.1094 8.0625C14.1094 8.24069 14.1802 8.41159 14.3062 8.53759C14.4322 8.66359 14.6031 8.73438 14.7812 8.73438H22.8438Z" fill="#315069"/>
<path d="M26.2031 12.7656H14.1094C13.9312 12.7656 13.7603 12.8364 13.6343 12.9624C13.5083 13.0884 13.4375 13.2593 13.4375 13.4375C13.4375 13.6157 13.5083 13.7866 13.6343 13.9126C13.7603 14.0386 13.9312 14.1094 14.1094 14.1094H26.2031C26.3813 14.1094 26.5522 14.0386 26.6782 13.9126C26.8042 13.7866 26.875 13.6157 26.875 13.4375C26.875 13.2593 26.8042 13.0884 26.6782 12.9624C26.5522 12.8364 26.3813 12.7656 26.2031 12.7656Z" fill="#315069"/>
<path d="M5.375 14.1094H10.0781C10.2563 14.1094 10.4272 14.0386 10.5532 13.9126C10.6792 13.7866 10.75 13.6157 10.75 13.4375C10.75 13.2593 10.6792 13.0884 10.5532 12.9624C10.4272 12.8364 10.2563 12.7656 10.0781 12.7656H5.375C5.19681 12.7656 5.02591 12.8364 4.89991 12.9624C4.77391 13.0884 4.70312 13.2593 4.70312 13.4375C4.70312 13.6157 4.77391 13.7866 4.89991 13.9126C5.02591 14.0386 5.19681 14.1094 5.375 14.1094Z" fill="#315069"/>
<path d="M26.2031 16.7969H18.1406C17.9624 16.7969 17.7915 16.8677 17.6655 16.9937C17.5395 17.1197 17.4688 17.2906 17.4688 17.4688C17.4688 17.6469 17.5395 17.8178 17.6655 17.9438C17.7915 18.0698 17.9624 18.1406 18.1406 18.1406H26.2031C26.3813 18.1406 26.5522 18.0698 26.6782 17.9438C26.8042 17.8178 26.875 17.6469 26.875 17.4688C26.875 17.2906 26.8042 17.1197 26.6782 16.9937C26.5522 16.8677 26.3813 16.7969 26.2031 16.7969Z" fill="#315069"/>
<path d="M5.375 18.1406H14.1094C14.2876 18.1406 14.4585 18.0698 14.5845 17.9438C14.7105 17.8178 14.7812 17.6469 14.7812 17.4688C14.7812 17.2906 14.7105 17.1197 14.5845 16.9937C14.4585 16.8677 14.2876 16.7969 14.1094 16.7969H5.375C5.19681 16.7969 5.02591 16.8677 4.89991 16.9937C4.77391 17.1197 4.70312 17.2906 4.70312 17.4688C4.70312 17.6469 4.77391 17.8178 4.89991 17.9438C5.02591 18.0698 5.19681 18.1406 5.375 18.1406Z" fill="#315069"/>
<path d="M16.7969 20.8281H5.375C5.19681 20.8281 5.02591 20.8989 4.89991 21.0249C4.77391 21.1509 4.70312 21.3218 4.70312 21.5C4.70312 21.6782 4.77391 21.8491 4.89991 21.9751C5.02591 22.1011 5.19681 22.1719 5.375 22.1719H16.7969C16.9751 22.1719 17.146 22.1011 17.272 21.9751C17.398 21.8491 17.4688 21.6782 17.4688 21.5C17.4688 21.3218 17.398 21.1509 17.272 21.0249C17.146 20.8989 16.9751 20.8281 16.7969 20.8281Z" fill="#315069"/>
<path d="M16.9132 26.9039C17.085 26.8591 17.2321 26.7481 17.3223 26.5952C17.4126 26.4423 17.4386 26.2599 17.3947 26.0878C17.3509 25.9158 17.2407 25.7681 17.0883 25.677C16.9358 25.5859 16.7536 25.5589 16.5813 25.6018C13.7225 26.3321 13.4282 26.1675 13.361 26.2011C13.1856 25.8847 13.4571 24.1855 12.0938 24.1855C11.0524 24.1855 10.4894 25.3331 9.86187 25.9384C9.91629 25.2175 10.0177 24.3696 9.5434 23.8556C9.44005 23.7453 9.31459 23.6579 9.17519 23.5993C9.0358 23.5408 8.88562 23.5122 8.73446 23.5157C7.36988 23.5157 5.97977 25.8672 5.3079 26.2065C5.13638 26.2237 4.97803 26.3062 4.86562 26.4369C4.75321 26.5676 4.69534 26.7365 4.70397 26.9087C4.7126 27.0808 4.78707 27.2431 4.91199 27.3619C5.0369 27.4807 5.2027 27.5469 5.37508 27.5469C6.45008 27.5469 7.60302 25.5031 8.56112 24.9266C8.60008 25.6388 8.10827 27.5469 9.40633 27.5469C10.656 27.5469 11.303 26.1958 11.9185 25.6428C12.161 28.0595 13.2535 27.8351 16.9132 26.9039Z" fill="#315069"/>
<path d="M7.60294 39.6057L9.40625 39.005L11.2096 39.6057C11.3105 39.6393 11.418 39.6485 11.5232 39.6324C11.6284 39.6164 11.7283 39.5756 11.8146 39.5134C11.9009 39.4512 11.9713 39.3694 12.0198 39.2747C12.0683 39.18 12.0937 39.0752 12.0938 38.9687V34.9167C12.5277 34.342 12.7634 33.642 12.7656 32.9219C12.7656 32.0309 12.4117 31.1764 11.7817 30.5464C11.1517 29.9164 10.2972 29.5625 9.40625 29.5625C8.51529 29.5625 7.66082 29.9164 7.03081 30.5464C6.40081 31.1764 6.04688 32.0309 6.04688 32.9219C6.04905 33.642 6.28482 34.342 6.71875 34.9167V38.9687C6.71883 39.0752 6.74418 39.18 6.79272 39.2747C6.84125 39.3694 6.91158 39.4512 6.99791 39.5134C7.08425 39.5756 7.18412 39.6164 7.28931 39.6324C7.39449 39.6485 7.50199 39.6393 7.60294 39.6057ZM9.61856 37.6572C9.48081 37.6109 9.33169 37.6109 9.19394 37.6572L8.0625 38.0362V35.9964C8.48557 36.1842 8.94334 36.2813 9.40625 36.2813C9.86916 36.2813 10.3269 36.1842 10.75 35.9964V38.0362L9.61856 37.6572ZM9.40625 30.9062C9.8049 30.9062 10.1946 31.0245 10.5261 31.2459C10.8575 31.4674 11.1159 31.7822 11.2684 32.1505C11.421 32.5188 11.4609 32.9241 11.3831 33.3151C11.3054 33.7061 11.1134 34.0652 10.8315 34.3471C10.5496 34.629 10.1905 34.821 9.79948 34.8988C9.40849 34.9765 9.00321 34.9366 8.6349 34.7841C8.2666 34.6315 7.9518 34.3732 7.73032 34.0417C7.50884 33.7102 7.39062 33.3205 7.39062 32.9219C7.39062 32.3873 7.60298 31.8746 7.98099 31.4966C8.35899 31.1186 8.87167 30.9062 9.40625 30.9062Z" fill="#315069"/>
</svg>
