<svg width="42" height="42" viewBox="0 0 42 42" fill="none" xmlns="http://www.w3.org/2000/svg">
<g clip-path="url(#clip0_186_320)">
<path d="M38.2587 7.25247C32.48 5.66911 26.6674 3.20366 21.4491 0.122739C21.1719 -0.040913 20.828 -0.040913 20.5509 0.122739C15.1821 3.29217 9.68358 5.62424 3.74083 7.25247C3.35693 7.35755 3.09082 7.70651 3.09082 8.10461V17.1318C3.09082 26.4278 7.37932 32.5811 10.977 36.1061C14.8502 39.9012 19.3619 42 21 42C22.6379 42 27.1496 39.9012 31.0228 36.1061C34.6205 32.5812 38.9087 26.4279 38.9087 17.1318V8.10453C38.9087 7.70651 38.6426 7.35755 38.2587 7.25247ZM37.1418 17.1317C37.1418 25.8141 33.1418 31.5559 29.7861 34.8439C25.9773 38.5759 21.9051 40.2329 21 40.2329C20.095 40.2329 16.0224 38.5759 12.2136 34.8439C8.85793 31.5558 4.85785 25.8141 4.85785 17.1317V8.77521C10.5408 7.16166 15.8333 4.90983 21.0002 1.90724C26.038 4.83017 31.5946 7.19398 37.1418 8.77489V17.1317Z" fill="#315069"/>
<path d="M13.1696 8.67639C12.9908 8.22235 12.4779 7.9993 12.0237 8.17821C10.4455 8.80009 8.82552 9.3725 7.20893 9.87962C6.84053 9.99529 6.58984 10.3365 6.58984 10.7226V14.1343C6.58984 14.6223 6.98548 15.0178 7.47332 15.0178C7.96116 15.0178 8.35679 14.6223 8.35679 14.1343V11.3682C9.80702 10.899 11.2557 10.38 12.6715 9.82212C13.1255 9.64337 13.3485 9.13043 13.1696 8.67639Z" fill="#315069"/>
<path d="M14.8474 8.84399C14.9659 8.84399 15.0863 8.82012 15.2017 8.76976L15.2179 8.7627C15.6649 8.56681 15.8662 8.04649 15.6703 7.59966C15.4743 7.15267 14.951 6.95047 14.5045 7.14619L14.4902 7.15235C14.043 7.34766 13.8411 7.86758 14.0364 8.31465C14.1813 8.64654 14.5066 8.84399 14.8474 8.84399Z" fill="#315069"/>
<path d="M31.5266 28.4879C31.1184 28.2211 30.5709 28.3359 30.3037 28.7443C29.5757 29.8586 28.7216 30.9257 27.7648 31.9156C26.9779 32.7295 26.1253 33.4881 25.2306 34.1702C24.8426 34.466 24.768 35.0204 25.0637 35.4085C25.2377 35.6364 25.5008 35.7563 25.7669 35.7563C25.9538 35.7563 26.142 35.6974 26.302 35.5753C27.2671 34.8394 28.1866 34.0213 29.035 33.1437C30.0695 32.0737 30.994 30.9187 31.783 29.7108C32.05 29.3023 31.9351 28.7548 31.5266 28.4879Z" fill="#315069"/>
<path d="M23.1783 35.5557L23.1276 35.5856C22.7054 35.8301 22.5611 36.3706 22.8055 36.7928C22.9693 37.0758 23.2659 37.2338 23.5709 37.2338C23.721 37.2338 23.8735 37.1955 24.0127 37.1147L24.0711 37.0803C24.4922 36.8337 24.6336 36.2925 24.387 35.8715C24.1403 35.4506 23.5991 35.3094 23.1783 35.5557Z" fill="#315069"/>
<path d="M14.978 19.1968C14.4355 18.6542 13.7141 18.3557 12.9468 18.3557C12.1794 18.3557 11.4579 18.6543 10.9152 19.1968C9.7952 20.317 9.7952 22.1398 10.9152 23.2599L16.132 28.4766C16.6746 29.019 17.396 29.3176 18.1634 29.3176C18.9308 29.3176 19.6523 29.019 20.1949 28.4764L31.0855 17.5858C32.2054 16.4653 32.2054 14.6428 31.0853 13.523C30.5428 12.9805 29.8213 12.6819 29.0538 12.6819C28.2864 12.6819 27.5649 12.9806 27.0223 13.523L18.1634 22.382L14.978 19.1968ZM28.2718 14.7725C28.4806 14.5638 28.7584 14.4488 29.0539 14.4488C29.3495 14.4488 29.6271 14.5638 29.8361 14.7725C30.2671 15.2036 30.2671 15.9053 29.8359 16.3365L18.9455 27.227C18.7368 27.4358 18.4589 27.5507 18.1634 27.5507C17.868 27.5507 17.5901 27.4358 17.3813 27.227L12.1646 22.0105C11.7334 21.5792 11.7334 20.8775 12.1644 20.4465C12.3733 20.2377 12.6511 20.1226 12.9467 20.1226C13.2422 20.1226 13.5199 20.2375 13.7287 20.4463L17.5386 24.2563C17.7044 24.4219 17.929 24.515 18.1634 24.515C18.3977 24.515 18.6223 24.422 18.7879 24.2563L28.2718 14.7725Z" fill="#315069"/>
</g>
<defs>
<clipPath id="clip0_186_320">
<rect width="42" height="42" fill="white"/>
</clipPath>
</defs>
</svg>
