<svg width="42" height="42" viewBox="0 0 42 42" fill="none" xmlns="http://www.w3.org/2000/svg">
<path d="M36.7499 9.84385C37.7894 9.84771 38.7997 9.50026 39.617 8.85788C40.4343 8.2155 41.0106 7.31585 41.2525 6.30484C41.4944 5.29384 41.3876 4.23077 40.9495 3.28806C40.5114 2.34535 39.7677 1.57828 38.839 1.11127C37.9103 0.644254 36.851 0.504682 35.833 0.715188C34.815 0.925694 33.898 1.47393 33.2306 2.27099C32.5633 3.06804 32.1848 4.06717 32.1565 5.10631C32.1283 6.14546 32.4519 7.16369 33.0749 7.99585L27.5926 13.4795C27.0705 12.3063 26.2453 11.2935 25.202 10.545C24.1586 9.79658 22.9347 9.33959 21.6561 9.22107V5.81317C22.2747 5.65344 22.8139 5.27358 23.1725 4.74479C23.531 4.21599 23.6845 3.57457 23.604 2.94076C23.5234 2.30694 23.2145 1.72425 22.7351 1.30189C22.2558 0.879536 21.6388 0.64652 20.9999 0.64652C20.361 0.64652 19.744 0.879536 19.2646 1.30189C18.7852 1.72425 18.4763 2.30694 18.3958 2.94076C18.3153 3.57457 18.4687 4.21599 18.8273 4.74479C19.1859 5.27358 19.725 5.65344 20.3436 5.81317V9.22107C19.065 9.33953 17.8411 9.79648 16.7977 10.5449C15.7543 11.2934 14.9292 12.3063 14.4072 13.4795L8.92487 7.99585C9.6236 7.06216 9.94268 5.89843 9.81789 4.73894C9.69309 3.57944 9.13369 2.51026 8.25228 1.74664C7.37087 0.983008 6.2329 0.581631 5.06745 0.6233C3.902 0.664969 2.7956 1.14659 1.97098 1.97122C1.14636 2.79584 0.664734 3.90224 0.623065 5.06769C0.581396 6.23313 0.982774 7.3711 1.7464 8.25251C2.51003 9.13392 3.5792 9.69333 4.7387 9.81812C5.8982 9.94292 7.06192 9.62383 7.99562 8.92511L13.9478 14.8773C13.8379 15.3796 13.7821 15.8922 13.7811 16.4064V20.185C13.7811 20.2382 13.7746 20.2907 13.7732 20.3439H8.43793C8.2782 19.7252 7.89834 19.1861 7.36955 18.8275C6.84076 18.4689 6.19934 18.3155 5.56552 18.396C4.93171 18.4765 4.34901 18.7854 3.92666 19.2648C3.5043 19.7442 3.27129 20.3612 3.27129 21.0001C3.27129 21.639 3.5043 22.256 3.92666 22.7354C4.34901 23.2148 4.93171 23.5237 5.56552 23.6042C6.19934 23.6847 6.84076 23.5313 7.36955 23.1727C7.89834 22.8141 8.2782 22.275 8.43793 21.6564H13.5947C13.3315 22.7229 12.7816 23.6971 12.0047 24.4736C11.8816 24.5967 11.8125 24.7636 11.8125 24.9376C11.8125 25.1116 11.8816 25.2785 12.0047 25.4016L13.4143 26.8112C13.104 27.3249 12.8661 27.879 12.7075 28.4577L12.6609 28.4111L7.99562 33.0751C7.06192 32.3764 5.8982 32.0573 4.7387 32.1821C3.5792 32.3069 2.51003 32.8663 1.7464 33.7477C0.982774 34.6291 0.581396 35.7671 0.623065 36.9325C0.664734 38.098 1.14636 39.2044 1.97098 40.029C2.7956 40.8536 3.902 41.3352 5.06745 41.3769C6.2329 41.4186 7.37087 41.0172 8.25228 40.2536C9.13369 39.49 9.69309 38.4208 9.81789 37.2613C9.94268 36.1018 9.6236 34.9381 8.92487 34.0044L12.4686 30.4606V32.1564C12.4686 32.3304 12.5378 32.4973 12.6608 32.6204C12.7839 32.7435 12.9508 32.8126 13.1249 32.8126H20.3436V36.187C19.725 36.3468 19.1859 36.7266 18.8273 37.2554C18.4687 37.7842 18.3153 38.4256 18.3958 39.0595C18.4763 39.6933 18.7852 40.276 19.2646 40.6983C19.744 41.1207 20.361 41.3537 20.9999 41.3537C21.6388 41.3537 22.2558 41.1207 22.7351 40.6983C23.2145 40.276 23.5234 39.6933 23.604 39.0595C23.6845 38.4256 23.531 37.7842 23.1725 37.2554C22.8139 36.7266 22.2747 36.3468 21.6561 36.187V32.8126H28.8749C29.0489 32.8126 29.2158 32.7435 29.3389 32.6204C29.462 32.4973 29.5311 32.3304 29.5311 32.1564V30.4593L33.0749 34.003C32.3754 34.9362 32.0553 36.0997 32.1792 37.2594C32.3031 38.419 32.8617 39.4886 33.7426 40.253C34.6235 41.0173 35.7612 41.4195 36.9267 41.3787C38.0922 41.3379 39.199 40.857 40.0242 40.033C40.8495 39.2089 41.3319 38.1028 41.3743 36.9373C41.4168 35.7719 41.0162 34.6336 40.2531 33.7517C39.49 32.8697 38.4212 32.3096 37.2617 32.1841C36.1022 32.0585 34.9383 32.3769 34.0041 33.0751L29.3388 28.4098L29.2922 28.4564C29.1336 27.8776 28.8958 27.3236 28.5855 26.8099L29.9951 25.4003C30.1181 25.2772 30.1872 25.1103 30.1872 24.9363C30.1872 24.7623 30.1181 24.5954 29.9951 24.4723C29.2183 23.6961 28.6685 22.7224 28.405 21.6564H33.5618C33.7215 22.275 34.1014 22.8141 34.6302 23.1727C35.159 23.5313 35.8004 23.6847 36.4342 23.6042C37.068 23.5237 37.6507 23.2148 38.0731 22.7354C38.4954 22.256 38.7285 21.639 38.7285 21.0001C38.7285 20.3612 38.4954 19.7442 38.0731 19.2648C37.6507 18.7854 37.068 18.4765 36.4342 18.396C35.8004 18.3155 35.159 18.4689 34.6302 18.8275C34.1014 19.1861 33.7215 19.7252 33.5618 20.3439H28.2265C28.2265 20.2907 28.2186 20.2382 28.2186 20.185V16.4064C28.2178 15.8917 28.1619 15.3787 28.0519 14.876L34.0041 8.92379C34.7952 9.52048 35.759 9.84343 36.7499 9.84385ZM1.96862 5.2501C1.96862 4.60113 2.16106 3.96674 2.52161 3.42714C2.88216 2.88754 3.39462 2.46697 3.99419 2.21862C4.59376 1.97027 5.25351 1.90529 5.89001 2.0319C6.52651 2.15851 7.11117 2.47102 7.57006 2.92991C8.02895 3.3888 8.34146 3.97346 8.46807 4.60996C8.59468 5.24646 8.5297 5.90621 8.28135 6.50578C8.033 7.10535 7.61243 7.61782 7.07283 7.97836C6.53323 8.33891 5.89884 8.53135 5.24987 8.53135C4.37995 8.53031 3.54595 8.18428 2.93082 7.56915C2.3157 6.95402 1.96966 6.12003 1.96862 5.2501ZM5.90612 22.3126C5.64653 22.3126 5.39277 22.2356 5.17693 22.0914C4.96109 21.9472 4.79287 21.7422 4.69353 21.5024C4.59419 21.2625 4.56819 20.9986 4.61884 20.7441C4.66948 20.4895 4.79448 20.2556 4.97804 20.072C5.1616 19.8885 5.39546 19.7635 5.65006 19.7128C5.90466 19.6622 6.16856 19.6882 6.40839 19.7875C6.64822 19.8869 6.8532 20.0551 6.99742 20.2709C7.14164 20.4868 7.21862 20.7405 7.21862 21.0001C7.21862 21.3482 7.08034 21.682 6.8342 21.9282C6.58805 22.1743 6.25422 22.3126 5.90612 22.3126ZM22.3124 38.7189C22.3124 38.9784 22.2354 39.2322 22.0912 39.448C21.947 39.6639 21.742 39.8321 21.5021 39.9315C21.2623 40.0308 20.9984 40.0568 20.7438 40.0061C20.4892 39.9555 20.2554 39.8305 20.0718 39.6469C19.8882 39.4634 19.7632 39.2295 19.7126 38.9749C19.6619 38.7203 19.6879 38.4564 19.7873 38.2166C19.8866 37.9768 20.0548 37.7718 20.2707 37.6276C20.4865 37.4833 20.7403 37.4064 20.9999 37.4064C21.348 37.4064 21.6818 37.5446 21.9279 37.7908C22.1741 38.0369 22.3124 38.3708 22.3124 38.7189ZM36.0936 19.6876C36.3532 19.6876 36.607 19.7646 36.8228 19.9088C37.0386 20.053 37.2069 20.258 37.3062 20.4978C37.4056 20.7377 37.4315 21.0016 37.3809 21.2562C37.3303 21.5108 37.2053 21.7446 37.0217 21.9282C36.8381 22.1117 36.6043 22.2367 36.3497 22.2874C36.0951 22.338 35.8312 22.312 35.5914 22.2127C35.3515 22.1134 35.1465 21.9451 35.0023 21.7293C34.8581 21.5135 34.7811 21.2597 34.7811 21.0001C34.7811 20.652 34.9194 20.3182 35.1655 20.072C35.4117 19.8259 35.7455 19.6876 36.0936 19.6876ZM19.6874 3.28135C19.6874 3.02177 19.7643 2.76801 19.9086 2.55217C20.0528 2.33633 20.2578 2.1681 20.4976 2.06876C20.7374 1.96942 21.0013 1.94343 21.2559 1.99407C21.5105 2.04472 21.7444 2.16972 21.9279 2.35328C22.1115 2.53683 22.2365 2.7707 22.2872 3.0253C22.3378 3.2799 22.3118 3.5438 22.2125 3.78363C22.1131 4.02345 21.9449 4.22844 21.7291 4.37266C21.5132 4.51688 21.2595 4.59385 20.9999 4.59385C20.6518 4.59385 20.3179 4.45557 20.0718 4.20943C19.8257 3.96329 19.6874 3.62945 19.6874 3.28135ZM5.24987 40.0314C4.6009 40.0314 3.9665 39.8389 3.4269 39.4784C2.8873 39.1178 2.46674 38.6054 2.21839 38.0058C1.97004 37.4062 1.90506 36.7465 2.03167 36.11C2.15827 35.4735 2.47078 34.8888 2.92967 34.4299C3.38857 33.971 3.97323 33.6585 4.60973 33.5319C5.24623 33.4053 5.90598 33.4703 6.50555 33.7186C7.10512 33.967 7.61758 34.3875 7.97813 34.9271C8.33868 35.4667 8.53112 36.1011 8.53112 36.7501C8.53008 37.62 8.18404 38.454 7.56891 39.0692C6.95378 39.6843 6.11979 40.0303 5.24987 40.0314ZM28.2186 31.5001H13.7811V30.1876C13.7828 28.8917 14.2631 27.6421 15.1299 26.6786C15.9966 25.7152 17.1887 25.106 18.4772 24.9678C18.6253 25.5238 18.9529 26.0152 19.4091 26.3658C19.8653 26.7164 20.4245 26.9065 20.9999 26.9065C21.5752 26.9065 22.1345 26.7164 22.5906 26.3658C23.0468 26.0152 23.3744 25.5238 23.5225 24.9678C24.811 25.106 26.0031 25.7152 26.8699 26.6786C27.7366 27.6421 28.2169 28.8917 28.2186 30.1876V31.5001ZM20.9999 22.3126C20.1299 22.3116 19.296 21.9655 18.6808 21.3504C18.0657 20.7353 17.7197 19.9013 17.7186 19.0314V16.4064H18.2154C19.9463 16.4113 21.623 15.8031 22.9483 14.6896L24.2811 16.0218V19.0314C24.2801 19.9013 23.934 20.7353 23.3189 21.3504C22.7038 21.9655 21.8698 22.3116 20.9999 22.3126ZM20.9999 23.6251C21.4446 23.6238 21.8868 23.5574 22.3124 23.4282V24.2814C22.3124 24.6295 22.1741 24.9633 21.9279 25.2094C21.6818 25.4556 21.348 25.5939 20.9999 25.5939C20.6518 25.5939 20.3179 25.4556 20.0718 25.2094C19.8257 24.9633 19.6874 24.6295 19.6874 24.2814V23.4282C20.1129 23.5574 20.5551 23.6238 20.9999 23.6251ZM40.0311 36.7501C40.0311 37.3991 39.8387 38.0335 39.4781 38.5731C39.1176 39.1127 38.6051 39.5332 38.0056 39.7816C37.406 40.0299 36.7462 40.0949 36.1097 39.9683C35.4732 39.8417 34.8886 39.5292 34.4297 39.0703C33.9708 38.6114 33.6583 38.0268 33.5317 37.3903C33.4051 36.7537 33.47 36.094 33.7184 35.4944C33.9667 34.8949 34.3873 34.3824 34.9269 34.0219C35.4665 33.6613 36.1009 33.4689 36.7499 33.4689C37.6198 33.4699 38.4538 33.8159 39.0689 34.4311C39.684 35.0462 40.0301 35.8802 40.0311 36.7501ZM27.7901 25.7507C26.7055 24.5658 25.223 23.8212 23.6249 23.6586V22.7956C24.2321 22.3733 24.7283 21.8105 25.0711 21.155C25.4139 20.4996 25.5932 19.771 25.5936 19.0314V15.7501C25.5936 15.5761 25.5244 15.4092 25.4013 15.2861L23.4326 13.3174C23.3095 13.1944 23.1426 13.1252 22.9686 13.1252C22.7946 13.1252 22.6277 13.1944 22.5047 13.3174C21.9427 13.8824 21.2742 14.3304 20.538 14.6353C19.8017 14.9402 19.0123 15.0961 18.2154 15.0939H17.0624C16.8883 15.0939 16.7214 15.163 16.5983 15.2861C16.4753 15.4091 16.4061 15.5761 16.4061 15.7501V19.0314C16.4066 19.771 16.5859 20.4996 16.9286 21.155C17.2714 21.8105 17.7676 22.3733 18.3749 22.7956V23.6586C16.7768 23.8212 15.2943 24.5658 14.2097 25.7507L13.3762 24.9173C14.4903 23.5926 15.0988 21.9159 15.0936 20.185V16.4064C15.0936 14.8399 15.7159 13.3376 16.8235 12.23C17.9312 11.1224 19.4334 10.5001 20.9999 10.5001C22.5663 10.5001 24.0686 11.1224 25.1762 12.23C26.2839 13.3376 26.9061 14.8399 26.9061 16.4064V20.185C26.9009 21.9159 27.5094 23.5926 28.6235 24.9173L27.7901 25.7507ZM36.7499 1.96885C37.3988 1.96885 38.0332 2.1613 38.5728 2.52184C39.1124 2.88239 39.533 3.39485 39.7813 3.99442C40.0297 4.59399 40.0947 5.25374 39.9681 5.89024C39.8415 6.52674 39.529 7.11141 39.0701 7.5703C38.6112 8.02919 38.0265 8.3417 37.39 8.46831C36.7535 8.59491 36.0938 8.52993 35.4942 8.28158C34.8946 8.03323 34.3822 7.61267 34.0216 7.07307C33.6611 6.53347 33.4686 5.89907 33.4686 5.2501C33.4697 4.38018 33.8157 3.54619 34.4308 2.93106C35.046 2.31593 35.88 1.9699 36.7499 1.96885Z" fill="#315069"/>
</svg>
