<svg width="47" height="47" viewBox="0 0 47 47" fill="none" xmlns="http://www.w3.org/2000/svg">
<path d="M43.3895 35.1479C44.4139 34.2134 45.2033 33.0502 45.6934 31.753C46.1835 30.4559 46.3605 29.0614 46.21 27.6829C46.0596 26.3044 45.5859 24.9809 44.8275 23.8201C44.0691 22.6592 43.0474 21.6937 41.8455 21.0022C40.6436 20.3106 39.2954 19.9125 37.9107 19.8402C36.5259 19.7679 35.1436 20.0235 33.8762 20.5861C32.6089 21.1488 31.4922 22.0026 30.617 23.0782C29.7419 24.1538 29.1329 25.4207 28.8397 26.776L22.0313 23.064V20.18C22.9347 19.5765 23.6754 18.7596 24.1878 17.8016C24.7001 16.8435 24.9684 15.7739 24.9688 14.6875V10.3193C25.5697 9.78021 26.0888 9.15633 26.5095 8.46734C27.1145 7.48818 27.5774 6.42805 27.8843 5.31871C27.9171 5.19153 27.9151 5.05786 27.8783 4.93174C27.8416 4.80563 27.7717 4.69173 27.6757 4.602C27.5798 4.51228 27.4615 4.45004 27.3332 4.42183C27.2049 4.39362 27.0714 4.40048 26.9467 4.44168C26.8727 4.46445 25.1148 4.98246 23.2849 3.15258C21.0009 0.868674 18.0632 1.35859 17.5281 1.47224C17.1691 1.49965 16.8152 1.57285 16.4748 1.69007C15.7772 1.92975 15.1314 2.29986 14.572 2.78071C13.6843 2.45805 12.261 2.46144 11.156 3.16727C9.86304 3.99344 8.6717 5.92117 10.2813 10.407V14.6875C10.2816 15.7739 10.5499 16.8435 11.0623 17.8016C11.5747 18.7596 12.3153 19.5765 13.2188 20.18V23.0594L2.75475 28.6453C2.14584 28.9494 1.63402 29.4176 1.27704 29.997C0.920049 30.5765 0.732101 31.2442 0.734396 31.9248V41.125C0.734396 41.3198 0.811767 41.5066 0.949489 41.6443C1.08721 41.782 1.274 41.8594 1.46877 41.8594H29.1198L28.6834 43.0812C28.6397 43.2036 28.6293 43.3353 28.6532 43.463C28.677 43.5907 28.7344 43.7098 28.8193 43.8082C28.9042 43.9065 29.0137 43.9805 29.1366 44.0227C29.2595 44.0649 29.3914 44.0737 29.5188 44.0483L32.8051 43.3909L34.7303 45.3162C34.8212 45.4071 34.9345 45.4726 35.0587 45.506C35.1829 45.5395 35.3137 45.5397 35.438 45.5067C35.5624 45.4736 35.6758 45.4086 35.7671 45.3179C35.8583 45.2272 35.9242 45.1142 35.958 44.9901L37.4531 39.5098L38.9478 44.9901C38.9816 45.1142 39.0475 45.2272 39.1387 45.3179C39.23 45.4086 39.3435 45.4736 39.4678 45.5067C39.5921 45.5397 39.7229 45.5395 39.8471 45.506C39.9713 45.4726 40.0846 45.4071 40.1756 45.3162L42.1007 43.3909L45.387 44.0483C45.5145 44.0737 45.6463 44.0649 45.7692 44.0227C45.8921 43.9805 46.0016 43.9065 46.0865 43.8082C46.1715 43.7098 46.2288 43.5907 46.2526 43.463C46.2765 43.3353 46.2661 43.2036 46.2224 43.0812L43.3895 35.1479ZM37.4531 21.2969C38.9056 21.2969 40.3254 21.7276 41.5331 22.5345C42.7408 23.3415 43.682 24.4884 44.2379 25.8303C44.7937 27.1722 44.9391 28.6488 44.6558 30.0733C44.3724 31.4979 43.673 32.8064 42.646 33.8334C41.6189 34.8605 40.3104 35.5599 38.8858 35.8433C37.4613 36.1266 35.9847 35.9812 34.6428 35.4254C33.3009 34.8695 32.154 33.9283 31.347 32.7206C30.5401 31.5129 30.1094 30.0931 30.1094 28.6406C30.1116 26.6936 30.886 24.827 32.2628 23.4503C33.6395 22.0735 35.5061 21.2991 37.4531 21.2969ZM19.8281 40.3906H15.4219V34.0036L16.5492 32.3125H18.7008L19.8281 34.0036V40.3906ZM13.8188 24.4042L16.5371 27.1225L13.4216 29.7187L11.1875 25.8088L13.8188 24.4042ZM18.6399 30.8438H16.6101L15.9501 29.5236L17.625 28.1279L19.2999 29.5236L18.6399 30.8438ZM18.7129 27.1225L21.4276 24.4078L24.047 25.8361L21.8284 29.7191L18.7129 27.1225ZM11.8081 4.50245C12.6992 3.81398 13.9562 4.06119 14.1848 4.20723C14.3239 4.33782 14.5083 4.40917 14.6991 4.40617C14.8898 4.40317 15.0719 4.32606 15.2068 4.19117C16.4193 2.97872 17.5842 2.9386 17.625 2.9375C17.6841 2.93822 17.743 2.93109 17.8003 2.91629C17.9044 2.89114 20.3768 2.32164 22.2463 4.19117C23.6712 5.61595 25.1154 5.96202 26.1123 5.99039C25.8768 6.59185 25.5867 7.17043 25.2454 7.71883C24.1733 9.419 22.8448 10.2813 21.2969 10.2813C17.3786 10.2813 15.3995 7.10113 15.3162 6.96426C15.2622 6.87469 15.1896 6.7977 15.1034 6.73844C15.0172 6.67918 14.9193 6.63903 14.8164 6.62066C14.7134 6.6023 14.6077 6.60615 14.5063 6.63195C14.4049 6.65776 14.3102 6.70493 14.2285 6.7703L11.3804 9.04897C10.7262 6.82299 10.8703 5.22655 11.8081 4.50245ZM11.75 14.6875V10.6342L14.5434 8.39942C15.4659 9.55018 17.6999 11.75 21.2969 11.75C22.0566 11.7526 22.808 11.5916 23.5 11.2781V14.6875C23.4985 16.0504 22.9564 17.357 21.9926 18.3208C21.0289 19.2845 19.7223 19.8266 18.3594 19.8281H16.8906C15.5277 19.8266 14.2211 19.2845 13.2574 18.3208C12.2937 17.357 11.7516 16.0504 11.75 14.6875ZM16.8906 21.2969H18.3594C19.11 21.2972 19.8551 21.169 20.5625 20.9179V23.1959L17.625 26.1334L14.6875 23.1959V20.9179C15.3949 21.169 16.14 21.2972 16.8906 21.2969ZM2.20315 31.9248C2.20175 31.5154 2.31511 31.1138 2.53037 30.7655C2.74563 30.4172 3.05417 30.1362 3.42101 29.9543C3.42689 29.9514 3.43267 29.9484 3.43836 29.9452L9.89168 26.5006L12.5813 31.2079C12.6346 31.3011 12.7076 31.3815 12.7952 31.4434C12.8829 31.5053 12.983 31.5473 13.0886 31.5663C13.1942 31.5854 13.3027 31.581 13.4065 31.5536C13.5102 31.5263 13.6067 31.4765 13.6891 31.4078L14.7907 30.4898L15.3086 31.5255L14.0762 33.374C13.9959 33.4946 13.9531 33.6363 13.9531 33.7813V40.3906H8.07814V36.7188C8.07814 36.524 8.00077 36.3372 7.86305 36.1995C7.72533 36.0617 7.53854 35.9844 7.34377 35.9844C7.149 35.9844 6.96221 36.0617 6.82449 36.1995C6.68677 36.3372 6.60939 36.524 6.60939 36.7188V40.3906H2.20315V31.9248ZM28.6406 40.3906V36.7188C28.6406 36.524 28.5633 36.3372 28.4255 36.1995C28.2878 36.0617 28.101 35.9844 27.9063 35.9844C27.7115 35.9844 27.5247 36.0617 27.387 36.1995C27.2493 36.3372 27.1719 36.524 27.1719 36.7188V40.3906H21.2969V33.7813C21.2969 33.6362 21.254 33.4945 21.1735 33.3739L19.9411 31.5253L20.4591 30.4896L21.5606 31.4076C21.6431 31.4763 21.7395 31.5261 21.8433 31.5535C21.9471 31.5809 22.0555 31.5852 22.1612 31.5661C22.2668 31.5471 22.3669 31.5051 22.4545 31.4432C22.5422 31.3813 22.6152 31.3009 22.6684 31.2077L25.3363 26.5389L28.6457 28.3435C28.6425 28.4421 28.6402 28.5409 28.6402 28.6403C28.6397 29.8655 28.8953 31.0772 29.3906 32.1978C29.8859 33.3185 30.6099 34.3232 31.5163 35.1476L29.6443 40.3906H28.6406ZM34.8745 43.3832L33.5662 42.0749C33.4807 41.9894 33.3754 41.9264 33.2597 41.8913C33.144 41.8563 33.0214 41.8504 32.9029 41.8741L30.5028 42.3541L32.7418 36.0852C33.8783 36.808 35.1662 37.2588 36.5054 37.4025L34.8745 43.3832ZM42.0034 41.8741C41.8849 41.8504 41.7623 41.8563 41.6466 41.8913C41.5309 41.9264 41.4256 41.9894 41.3401 42.0749L40.0318 43.3832L38.4007 37.4025C39.7399 37.2588 41.0278 36.808 42.1643 36.0852L44.4033 42.3541L42.0034 41.8741Z" fill="#315069"/>
<path d="M37.4531 34.5156C38.6151 34.5156 39.751 34.1711 40.7171 33.5255C41.6832 32.88 42.4363 31.9624 42.8809 30.8889C43.3256 29.8154 43.4419 28.6341 43.2152 27.4945C42.9886 26.3548 42.429 25.308 41.6074 24.4864C40.7857 23.6647 39.7389 23.1052 38.5993 22.8785C37.4596 22.6518 36.2784 22.7682 35.2049 23.2128C34.1313 23.6575 33.2138 24.4105 32.5682 25.3767C31.9227 26.3428 31.5781 27.4787 31.5781 28.6406C31.5799 30.1982 32.1994 31.6916 33.3008 32.793C34.4022 33.8943 35.8955 34.5139 37.4531 34.5156ZM37.4531 24.2344C38.3246 24.2344 39.1765 24.4928 39.9011 24.977C40.6257 25.4611 41.1905 26.1493 41.524 26.9544C41.8575 27.7596 41.9447 28.6455 41.7747 29.5002C41.6047 30.355 41.185 31.1401 40.5688 31.7563C39.9526 32.3725 39.1675 32.7922 38.3127 32.9622C37.458 33.1322 36.5721 33.045 35.7669 32.7115C34.9618 32.378 34.2736 31.8132 33.7895 31.0886C33.3053 30.364 33.0469 29.5121 33.0469 28.6406C33.0482 27.4724 33.5129 26.3525 34.3389 25.5264C35.165 24.7004 36.2849 24.2357 37.4531 24.2344Z" fill="#315069"/>
<path d="M36.5037 27.6912L36.7188 27.476V30.1094C36.524 30.1094 36.3372 30.1867 36.1995 30.3245C36.0618 30.4622 35.9844 30.649 35.9844 30.8438C35.9844 31.0385 36.0618 31.2253 36.1995 31.363C36.3372 31.5008 36.524 31.5781 36.7188 31.5781H38.1875C38.3823 31.5781 38.5691 31.5008 38.7068 31.363C38.8445 31.2253 38.9219 31.0385 38.9219 30.8438C38.9219 30.649 38.8445 30.4622 38.7068 30.3245C38.5691 30.1867 38.3823 30.1094 38.1875 30.1094V26.4375C38.1875 26.2427 38.1101 26.0559 37.9724 25.9182C37.8347 25.7805 37.6479 25.7031 37.4531 25.7031H36.7188C36.6223 25.7031 36.5268 25.7221 36.4377 25.759C36.3486 25.7959 36.2677 25.85 36.1995 25.9182L35.4651 26.6526C35.3969 26.7208 35.3428 26.8017 35.3059 26.8908C35.269 26.9799 35.25 27.0754 35.25 27.1719C35.25 27.2683 35.269 27.3638 35.3059 27.4529C35.3428 27.542 35.3969 27.623 35.4651 27.6912C35.5333 27.7594 35.6143 27.8135 35.7034 27.8504C35.7925 27.8873 35.888 27.9063 35.9844 27.9063C36.0808 27.9063 36.1763 27.8873 36.2654 27.8504C36.3545 27.8135 36.4355 27.7594 36.5037 27.6912Z" fill="#315069"/>
</svg>
