<svg width="15" height="14" viewBox="0 0 15 14" fill="none" xmlns="http://www.w3.org/2000/svg">
<path fill-rule="evenodd" clip-rule="evenodd" d="M3.81378 0.650427C3.53738 0.0320235 3.24626 0.0195981 2.98316 0.0088453C2.76802 -0.000473721 2.52178 4.13436e-06 2.27601 4.13436e-06C2.03001 4.13436e-06 1.63013 0.0931948 1.292 0.464763C0.953623 0.836331 0 1.73478 0 3.56204C0 5.38953 1.32263 7.15514 1.50713 7.40317C1.69164 7.65096 4.06026 11.5205 7.81135 13.0092C10.9289 14.2465 11.5632 14.0004 12.2399 13.9385C12.9166 13.8766 14.4233 13.04 14.7308 12.1729C15.0386 11.3057 15.0386 10.5626 14.9462 10.407C14.8538 10.2524 14.6078 10.1595 14.2388 9.9738C13.8698 9.78813 12.0554 8.88944 11.717 8.76566C11.3786 8.64165 11.1326 8.58 10.8866 8.95181C10.6404 9.32314 9.93373 10.1595 9.71836 10.407C9.50298 10.6553 9.28761 10.6863 8.9186 10.5004C8.5496 10.3143 7.36089 9.92242 5.95088 8.65718C4.85384 7.67294 4.11297 6.45716 3.8976 6.08536C3.68247 5.71403 3.89404 5.53051 4.05978 5.32764C4.35826 4.96229 4.85906 4.30541 4.98206 4.05786C5.10506 3.80983 5.04356 3.5931 4.95143 3.4072C4.85906 3.22153 4.14171 1.38496 3.81378 0.650427Z" fill="#315069"/>
</svg>
