<svg width="17" height="17" viewBox="0 0 17 17" fill="none" xmlns="http://www.w3.org/2000/svg">
<g clip-path="url(#clip0_186_209)">
<path d="M11.0156 9.20557L9.59186 10.6342C9.01449 11.2136 7.99861 11.226 7.40875 10.6342L5.98491 9.20557L0.871094 14.336C1.06145 14.424 1.27132 14.4765 1.49445 14.4765H15.5062C15.7293 14.4765 15.9391 14.4241 16.1294 14.336L11.0156 9.20557Z" fill="#315069"/>
<path d="M15.5061 2.52344H1.49438C1.27126 2.52344 1.06138 2.57596 0.871094 2.66399L6.33557 8.14659C6.33593 8.14695 6.33636 8.14702 6.33673 8.14738C6.33709 8.14775 6.33716 8.14825 6.33716 8.14825L8.11396 9.93092C8.30268 10.1196 8.69787 10.1196 8.88659 9.93092L10.663 8.14854C10.663 8.14854 10.6635 8.14775 10.6638 8.14738C10.6638 8.14738 10.6646 8.14695 10.665 8.14659L16.1293 2.66395C15.939 2.5759 15.7292 2.52344 15.5061 2.52344Z" fill="#315069"/>
<path d="M0.15891 3.3606C0.0604297 3.55975 0 3.78081 0 4.01762V12.9825C0 13.2193 0.0603633 13.4403 0.158877 13.6395L5.28155 8.50021L0.15891 3.3606Z" fill="#315069"/>
<path d="M16.8414 3.36047L11.7188 8.50015L16.8414 13.6395C16.9398 13.4403 17.0003 13.2193 17.0003 12.9824V4.01756C17.0003 3.78069 16.9398 3.55963 16.8414 3.36047Z" fill="#315069"/>
</g>
<defs>
<clipPath id="clip0_186_209">
<rect width="17" height="17" fill="white"/>
</clipPath>
</defs>
</svg>
