<svg width="482" height="238" viewBox="0 0 482 238" fill="none" xmlns="http://www.w3.org/2000/svg">
<path d="M157.348 188.19H131.128V222H94.7885V188.19H8.07849V163.12L83.9785 61H123.078L52.6985 157.83H95.9385V127.7H131.128V157.83H157.348V188.19ZM237.493 224.76C224.153 224.76 212.269 221.463 201.843 214.87C191.416 208.277 183.213 198.77 177.233 186.35C171.406 173.777 168.493 158.827 168.493 141.5C168.493 124.173 171.406 109.3 177.233 96.88C183.213 84.3067 191.416 74.7233 201.843 68.13C212.269 61.5367 224.153 58.24 237.493 58.24C250.833 58.24 262.716 61.5367 273.143 68.13C283.569 74.7233 291.696 84.3067 297.523 96.88C303.503 109.3 306.493 124.173 306.493 141.5C306.493 158.827 303.503 173.777 297.523 186.35C291.696 198.77 283.569 208.277 273.143 214.87C262.716 221.463 250.833 224.76 237.493 224.76ZM237.493 193.25C247.306 193.25 254.973 189.033 260.493 180.6C266.166 172.167 269.003 159.133 269.003 141.5C269.003 123.867 266.166 110.833 260.493 102.4C254.973 93.9667 247.306 89.75 237.493 89.75C227.833 89.75 220.166 93.9667 214.493 102.4C208.973 110.833 206.213 123.867 206.213 141.5C206.213 159.133 208.973 172.167 214.493 180.6C220.166 189.033 227.833 193.25 237.493 193.25ZM472.026 188.19H445.806V222H409.466V188.19H322.756V163.12L398.656 61H437.756L367.376 157.83H410.616V127.7H445.806V157.83H472.026V188.19Z" fill="#315069"/>
<path d="M74.7103 49.4752C73.0143 49.4752 71.4863 49.1072 70.1263 48.3712C68.7663 47.6192 67.6943 46.5872 66.9103 45.2752C66.1423 43.9632 65.7583 42.4992 65.7583 40.8832C65.7583 39.2672 66.1423 37.8032 66.9103 36.4912C67.6943 35.1792 68.7663 34.1552 70.1263 33.4192C71.4863 32.6672 73.0143 32.2912 74.7103 32.2912C76.3903 32.2912 77.9103 32.6672 79.2703 33.4192C80.6303 34.1552 81.6943 35.1792 82.4623 36.4912C83.2303 37.7872 83.6143 39.2512 83.6143 40.8832C83.6143 42.5152 83.2303 43.9872 82.4623 45.2992C81.6943 46.5952 80.6303 47.6192 79.2703 48.3712C77.9103 49.1072 76.3903 49.4752 74.7103 49.4752ZM74.7103 47.3392C75.9423 47.3392 77.0463 47.0592 78.0223 46.4992C79.0143 45.9392 79.7903 45.1712 80.3503 44.1952C80.9263 43.2032 81.2143 42.0992 81.2143 40.8832C81.2143 39.6672 80.9263 38.5712 80.3503 37.5952C79.7903 36.6032 79.0143 35.8272 78.0223 35.2672C77.0463 34.7072 75.9423 34.4272 74.7103 34.4272C73.4783 34.4272 72.3583 34.7072 71.3503 35.2672C70.3583 35.8272 69.5743 36.6032 68.9983 37.5952C68.4383 38.5712 68.1583 39.6672 68.1583 40.8832C68.1583 42.0992 68.4383 43.2032 68.9983 44.1952C69.5743 45.1712 70.3583 45.9392 71.3503 46.4992C72.3583 47.0592 73.4783 47.3392 74.7103 47.3392ZM92.3945 49.4272C91.1305 49.4272 89.9945 49.1472 88.9865 48.5872C87.9785 48.0272 87.1865 47.2592 86.6105 46.2832C86.0505 45.2912 85.7705 44.1712 85.7705 42.9232C85.7705 41.6752 86.0505 40.5632 86.6105 39.5872C87.1865 38.5952 87.9785 37.8272 88.9865 37.2832C89.9945 36.7232 91.1305 36.4432 92.3945 36.4432C93.6585 36.4432 94.7865 36.7232 95.7785 37.2832C96.7865 37.8272 97.5705 38.5952 98.1305 39.5872C98.7065 40.5632 98.9945 41.6752 98.9945 42.9232C98.9945 44.1712 98.7065 45.2912 98.1305 46.2832C97.5705 47.2592 96.7865 48.0272 95.7785 48.5872C94.7865 49.1472 93.6585 49.4272 92.3945 49.4272ZM92.3945 47.4112C93.2105 47.4112 93.9385 47.2272 94.5785 46.8592C95.2345 46.4752 95.7465 45.9472 96.1145 45.2752C96.4825 44.5872 96.6665 43.8032 96.6665 42.9232C96.6665 42.0432 96.4825 41.2672 96.1145 40.5952C95.7465 39.9072 95.2345 39.3792 94.5785 39.0112C93.9385 38.6432 93.2105 38.4592 92.3945 38.4592C91.5785 38.4592 90.8425 38.6432 90.1865 39.0112C89.5465 39.3792 89.0345 39.9072 88.6505 40.5952C88.2825 41.2672 88.0985 42.0432 88.0985 42.9232C88.0985 43.8032 88.2825 44.5872 88.6505 45.2752C89.0345 45.9472 89.5465 46.4752 90.1865 46.8592C90.8425 47.2272 91.5785 47.4112 92.3945 47.4112ZM108.925 36.4432C110.157 36.4432 111.261 36.7152 112.237 37.2592C113.213 37.8032 113.973 38.5632 114.517 39.5392C115.077 40.5152 115.357 41.6432 115.357 42.9232C115.357 44.2032 115.077 45.3392 114.517 46.3312C113.973 47.3072 113.213 48.0672 112.237 48.6112C111.261 49.1552 110.157 49.4272 108.925 49.4272C108.013 49.4272 107.173 49.2512 106.405 48.8992C105.653 48.5472 105.013 48.0352 104.485 47.3632V53.9392H102.181V36.5632H104.389V38.5792C104.901 37.8752 105.549 37.3472 106.333 36.9952C107.117 36.6272 107.981 36.4432 108.925 36.4432ZM108.733 47.4112C109.549 47.4112 110.277 47.2272 110.917 46.8592C111.573 46.4752 112.085 45.9472 112.453 45.2752C112.837 44.5872 113.029 43.8032 113.029 42.9232C113.029 42.0432 112.837 41.2672 112.453 40.5952C112.085 39.9072 111.573 39.3792 110.917 39.0112C110.277 38.6432 109.549 38.4592 108.733 38.4592C107.933 38.4592 107.205 38.6512 106.549 39.0352C105.909 39.4032 105.397 39.9232 105.013 40.5952C104.645 41.2672 104.461 42.0432 104.461 42.9232C104.461 43.8032 104.645 44.5872 105.013 45.2752C105.381 45.9472 105.893 46.4752 106.549 46.8592C107.205 47.2272 107.933 47.4112 108.733 47.4112ZM122.188 49.4272C121.148 49.4272 120.148 49.2912 119.188 49.0192C118.228 48.7312 117.476 48.3712 116.932 47.9392L117.892 46.1152C118.452 46.5152 119.132 46.8352 119.932 47.0752C120.732 47.3152 121.54 47.4352 122.356 47.4352C124.372 47.4352 125.38 46.8592 125.38 45.7072C125.38 45.3232 125.244 45.0192 124.972 44.7952C124.7 44.5712 124.356 44.4112 123.94 44.3152C123.54 44.2032 122.964 44.0832 122.212 43.9552C121.188 43.7952 120.348 43.6112 119.692 43.4032C119.052 43.1952 118.5 42.8432 118.036 42.3472C117.572 41.8512 117.34 41.1552 117.34 40.2592C117.34 39.1072 117.82 38.1872 118.78 37.4992C119.74 36.7952 121.028 36.4432 122.644 36.4432C123.492 36.4432 124.34 36.5472 125.188 36.7552C126.036 36.9632 126.732 37.2432 127.276 37.5952L126.292 39.4192C125.252 38.7472 124.028 38.4112 122.62 38.4112C121.644 38.4112 120.9 38.5712 120.388 38.8912C119.876 39.2112 119.62 39.6352 119.62 40.1632C119.62 40.5792 119.764 40.9072 120.052 41.1472C120.34 41.3872 120.692 41.5632 121.108 41.6752C121.54 41.7872 122.14 41.9152 122.908 42.0592C123.932 42.2352 124.756 42.4272 125.38 42.6352C126.02 42.8272 126.564 43.1632 127.012 43.6432C127.46 44.1232 127.684 44.7952 127.684 45.6592C127.684 46.8112 127.188 47.7312 126.196 48.4192C125.22 49.0912 123.884 49.4272 122.188 49.4272ZM130.252 32.4832H132.964L132.508 43.9792H130.684L130.252 32.4832ZM131.62 49.4272C131.172 49.4272 130.796 49.2832 130.492 48.9952C130.188 48.6912 130.036 48.3232 130.036 47.8912C130.036 47.4592 130.188 47.0992 130.492 46.8112C130.796 46.5072 131.172 46.3552 131.62 46.3552C132.068 46.3552 132.436 46.5072 132.724 46.8112C133.012 47.0992 133.156 47.4592 133.156 47.8912C133.156 48.3232 133.004 48.6912 132.7 48.9952C132.412 49.2832 132.052 49.4272 131.62 49.4272Z" fill="#315069"/>
</svg>
