<svg width="13" height="17" viewBox="0 0 13 17" fill="none" xmlns="http://www.w3.org/2000/svg">
<path d="M6.50066 0C3.37611 0 0.833984 2.54213 0.833984 5.66668C0.833984 6.60467 1.0685 7.53469 1.51432 8.35958L6.19078 16.8174C6.25303 16.9301 6.37167 17 6.50066 17C6.62965 17 6.74829 16.9301 6.81054 16.8174L11.4887 8.35679C11.9328 7.53469 12.1673 6.60463 12.1673 5.66664C12.1673 2.54213 9.62521 0 6.50066 0ZM6.50066 8.5C4.93839 8.5 3.66734 7.22895 3.66734 5.66668C3.66734 4.1044 4.93839 2.83336 6.50066 2.83336C8.06293 2.83336 9.33398 4.1044 9.33398 5.66668C9.33398 7.22895 8.06293 8.5 6.50066 8.5Z" fill="#315069"/>
</svg>
