<svg width="22" height="22" viewBox="0 0 22 22" fill="none" xmlns="http://www.w3.org/2000/svg">
<g clip-path="url(#clip0_192_475)">
<path d="M11.1657 22.0001C11.0959 22.0001 11.0261 22.0001 10.9558 21.9998C9.30315 22.0038 7.77618 21.9619 6.29118 21.8715C4.92972 21.7886 3.68697 21.3181 2.69708 20.511C1.74193 19.7321 1.08967 18.679 0.758478 17.3813C0.470229 16.2514 0.454948 15.1423 0.44031 14.0696C0.429694 13.2999 0.418756 12.3879 0.416504 11.4604C0.418756 10.5291 0.429694 9.61703 0.44031 8.84735C0.454948 7.77478 0.470229 6.6657 0.758478 5.53571C1.08967 4.23795 1.74193 3.18484 2.69708 2.40599C3.68697 1.59883 4.92972 1.12833 6.29134 1.04549C7.77634 0.955255 9.30364 0.913111 10.9598 0.917133C12.6129 0.913594 14.1394 0.955255 15.6244 1.04549C16.9858 1.12833 18.2286 1.59883 19.2185 2.40599C20.1738 3.18484 20.8259 4.23795 21.1571 5.53571C21.4453 6.66554 21.4606 7.77478 21.4752 8.84735C21.4858 9.61703 21.4969 10.5291 21.499 11.4565V11.4604C21.4969 12.3879 21.4858 13.2999 21.4752 14.0696C21.4606 15.1422 21.4455 16.2513 21.1571 17.3813C20.8259 18.679 20.1738 19.7321 19.2185 20.511C18.2286 21.3181 16.9858 21.7886 15.6244 21.8715C14.2023 21.958 12.7414 22.0001 11.1657 22.0001ZM10.9558 20.3527C12.5815 20.3566 14.0742 20.3155 15.5243 20.2274C16.5538 20.1648 17.4463 19.8307 18.1776 19.2344C18.8535 18.6832 19.319 17.9227 19.5611 16.974C19.8011 16.0335 19.8149 15.0236 19.8283 14.0471C19.8387 13.2826 19.8496 12.377 19.8519 11.4585C19.8496 10.5398 19.8387 9.63441 19.8283 8.86987C19.8149 7.89333 19.8011 6.8835 19.5611 5.94283C19.319 4.99412 18.8535 4.2336 18.1776 3.68236C17.4463 3.08624 16.5538 2.75214 15.5243 2.68957C14.0742 2.60126 12.5815 2.56057 10.9596 2.56411C9.3342 2.56025 7.84132 2.60126 6.39123 2.68957C5.36177 2.75214 4.4692 3.08624 3.73796 3.68236C3.06205 4.2336 2.59655 4.99412 2.35446 5.94283C2.11447 6.8835 2.10064 7.89317 2.08728 8.86987C2.07683 9.63505 2.06589 10.5411 2.06364 11.4604C2.06589 12.3757 2.07683 13.2819 2.08728 14.0471C2.10064 15.0236 2.11447 16.0335 2.35446 16.974C2.59655 17.9227 3.06205 18.6832 3.73796 19.2344C4.4692 19.8306 5.36177 20.1647 6.39123 20.2272C7.84132 20.3155 9.33452 20.3567 10.9558 20.3527ZM10.9165 16.6058C8.07842 16.6058 5.76921 14.2967 5.76921 11.4585C5.76921 8.62023 8.07842 6.31118 10.9165 6.31118C13.7548 6.31118 16.0638 8.62023 16.0638 11.4585C16.0638 14.2967 13.7548 16.6058 10.9165 16.6058ZM10.9165 7.95832C8.9866 7.95832 7.41635 9.52856 7.41635 11.4585C7.41635 13.3884 8.9866 14.9586 10.9165 14.9586C12.8466 14.9586 14.4167 13.3884 14.4167 11.4585C14.4167 9.52856 12.8466 7.95832 10.9165 7.95832ZM16.6403 4.66404C15.9581 4.66404 15.405 5.21706 15.405 5.8994C15.405 6.58174 15.9581 7.13475 16.6403 7.13475C17.3226 7.13475 17.8757 6.58174 17.8757 5.8994C17.8757 5.21706 17.3226 4.66404 16.6403 4.66404Z" fill="#7F7F7F"/>
</g>
<defs>
<clipPath id="clip0_192_475">
<rect width="21.0833" height="21.0833" fill="white" transform="translate(0.416504 0.916626)"/>
</clipPath>
</defs>
</svg>
