<svg width="150" height="146" viewBox="0 0 150 146" fill="none" xmlns="http://www.w3.org/2000/svg">
<path d="M149.744 77.3313L149.439 79.7931L139.881 78.6083L148.543 87.0245L148.255 89.3516L134.792 87.683L135.097 85.2212L144.636 86.4036L135.993 77.9898L136.282 75.6627L149.744 77.3313Z" fill="#315069"/>
<path d="M130.548 99.9384L136.953 102.397L132.811 97.0705L133.186 96.0935L139.825 94.9674L133.402 92.5022L134.193 90.4396L143.855 94.1478L142.945 96.518L135.583 97.6363L140.244 103.556L139.432 105.673L129.763 101.983L130.548 99.9384Z" fill="#315069"/>
<path d="M123.086 112.131L128.735 116.024L125.958 109.875L126.552 109.013L133.27 109.476L127.605 105.572L128.858 103.753L137.38 109.625L135.94 111.715L128.52 111.075L131.662 117.923L130.376 119.79L121.843 113.935L123.086 112.131Z" fill="#315069"/>
<path d="M127.487 123.003L125.713 124.652L121.067 119.656L121.526 128.545L119.908 130.05L112.861 122.471L114.635 120.821L119.28 125.817L118.807 116.941L120.44 115.424L127.487 123.003Z" fill="#315069"/>
<path d="M108.724 135.077L113.362 132.078L108.858 125.113L110.892 123.797L116.511 132.488L109.839 136.802L108.724 135.077Z" fill="#315069"/>
<path d="M102.285 140.393C101.355 140.782 100.442 140.926 99.5457 140.825C98.6372 140.73 97.8197 140.399 97.0933 139.835C96.3669 139.271 95.8017 138.506 95.3976 137.541C94.9936 136.575 94.843 135.63 94.9458 134.704C95.0536 133.791 95.3922 132.977 95.9615 132.262C96.5189 131.553 97.2624 131.004 98.192 130.615C99.4791 130.076 100.678 130.078 101.788 130.622L99.8497 125.992L102.084 125.057L107.532 138.071L105.404 138.961L104.881 137.71C104.701 138.318 104.39 138.847 103.948 139.298C103.495 139.754 102.941 140.119 102.285 140.393ZM99.2429 132.423C98.4206 132.767 97.862 133.323 97.567 134.09C97.2602 134.863 97.2938 135.696 97.668 136.59C98.0421 137.484 98.6121 138.093 99.3778 138.417C100.132 138.745 100.92 138.738 101.742 138.393C102.278 138.169 102.709 137.842 103.033 137.412C103.362 136.994 103.557 136.506 103.618 135.949C103.679 135.391 103.584 134.814 103.335 134.218C103.086 133.622 102.741 133.15 102.301 132.802C101.861 132.454 101.374 132.245 100.841 132.174C100.312 132.115 99.7792 132.198 99.2429 132.423Z" fill="#315069"/>
<path d="M90.1505 144.136C88.6575 144.444 87.4442 144.319 86.5108 143.76C85.5673 143.216 84.9465 142.223 84.6485 140.781L83.4211 134.84L85.6606 134.378L85.9155 135.611C86.115 135.108 86.4619 134.68 86.9563 134.328C87.4407 133.99 88.0624 133.743 88.8216 133.586C89.5807 133.429 90.2711 133.418 90.8928 133.554C91.517 133.702 92.0344 133.971 92.4448 134.361C92.8452 134.766 93.1055 135.26 93.2258 135.842C93.414 136.753 93.229 137.55 92.6708 138.233C92.1026 138.93 91.091 139.43 89.636 139.73L87.0169 140.272L87.0483 140.423C87.1947 141.132 87.5222 141.631 88.0308 141.922C88.5267 142.215 89.1923 142.276 90.0273 142.103C90.5967 141.986 91.1414 141.781 91.6615 141.489C92.169 141.199 92.5798 140.857 92.8941 140.462L94.1809 141.997C93.7331 142.512 93.1582 142.954 92.4562 143.323C91.7541 143.692 90.9855 143.963 90.1505 144.136ZM88.685 135.415C88.0903 135.538 87.5927 135.779 87.1921 136.139C86.7814 136.514 86.5335 136.974 86.4483 137.52L86.6914 138.696L89.1397 138.19C90.5062 137.908 91.0966 137.318 90.911 136.419C90.8221 135.989 90.5807 135.683 90.1868 135.5C89.7929 135.318 89.2923 135.289 88.685 135.415Z" fill="#315069"/>
<path d="M70.0407 137.363L69.9722 132.926L72.2393 132.891L72.2761 135.274L81.3641 135.134L81.5239 145.481L79.1017 145.519L78.9737 137.225L74.0324 137.301L74.1605 145.595L71.7383 145.632L71.6103 137.339L70.0407 137.363Z" fill="#315069"/>
<path d="M66.6148 145.24L64.2387 144.768L65.568 138.077L58.6313 143.654L56.4644 143.223L58.4809 133.073L60.857 133.545L59.5277 140.236L66.4454 134.655L68.6313 135.089L66.6148 145.24Z" fill="#315069"/>
<path d="M52.1801 130.503C53.1455 130.907 53.9282 131.48 54.5283 132.221C55.1283 132.963 55.4942 133.795 55.6259 134.719C55.7406 135.649 55.601 136.585 55.2069 137.527C54.8128 138.468 54.2466 139.219 53.5083 139.778C52.758 140.332 51.9083 140.656 50.959 140.749C50.0098 140.842 49.0525 140.686 48.0871 140.282C47.1098 139.873 46.3212 139.298 45.7211 138.556C45.121 137.815 44.7611 136.985 44.6414 136.066C44.5097 135.143 44.6409 134.21 45.035 133.269C45.4291 132.327 46.0037 131.574 46.759 131.007C47.4973 130.448 48.3411 130.122 49.2903 130.029C50.2396 129.936 51.2029 130.094 52.1801 130.503ZM51.3795 132.416C50.5571 132.072 49.7631 132.062 48.9973 132.385C48.2315 132.709 47.6616 133.318 47.2875 134.212C46.9133 135.106 46.8797 135.939 47.1865 136.712C47.4933 137.484 48.0579 138.043 48.8803 138.387C49.7026 138.731 50.4967 138.741 51.2624 138.418C52.0163 138.089 52.5803 137.478 52.9544 136.584C53.3286 135.69 53.3682 134.859 53.0732 134.091C52.7664 133.319 52.2018 132.76 51.3795 132.416Z" fill="#315069"/>
<path d="M40.0169 136.394L38.0071 135.042L40.3549 131.553L36.0298 128.642L33.682 132.131L31.6722 130.779L37.4498 122.193L39.4596 123.545L37.1767 126.938L41.5018 129.848L43.7847 126.456L45.7945 127.808L40.0169 136.394Z" fill="#315069"/>
<path d="M28.1043 127.85L26.4164 126.112L29.433 123.182L25.8007 119.443L22.7841 122.373L21.0963 120.635L28.5195 113.425L30.2074 115.162L27.2742 118.012L30.9065 121.751L33.8397 118.902L35.5275 120.64L28.1043 127.85Z" fill="#315069"/>
<path d="M18.3902 111.035C17.7074 109.908 17.4395 108.892 17.5864 107.988C17.7332 107.083 18.2708 106.35 19.199 105.787C20.1715 105.198 21.1238 105.075 22.0558 105.416C22.9812 105.747 23.8031 106.518 24.5217 107.729L26.9349 111.751L18.0834 117.112L16.8283 115.04L19.7291 113.283L18.3902 111.035ZM12.6715 108.178L11.4165 106.106L20.268 100.744L21.5231 102.816L12.6715 108.178ZM23.1071 108.835C22.75 108.221 22.3418 107.834 21.8825 107.674C21.4232 107.514 20.9393 107.588 20.431 107.896C19.9337 108.197 19.6628 108.573 19.6181 109.023C19.5735 109.473 19.7364 110.016 20.1069 110.653L21.1546 112.42L24.1549 110.602L23.1071 108.835Z" fill="#315069"/>
<path d="M9.5252 101.774L8.76873 99.4724L15.2492 97.3421L6.98344 94.0413L6.29353 91.9425L16.1248 88.7108L16.8812 91.0121L10.4007 93.1423L18.6605 96.4248L19.3564 98.542L9.5252 101.774ZM6.79792 97.3866C7.12472 98.3808 7.1478 99.2164 6.86715 99.8934C6.5702 100.562 5.98189 101.048 5.10222 101.351L4.59992 99.8227C5.03774 99.6652 5.34316 99.4152 5.51618 99.0727C5.68517 98.718 5.69099 98.3013 5.53364 97.8226C5.38033 97.3562 5.13042 97.0304 4.78391 96.8451C4.43337 96.6475 4.03516 96.6152 3.58927 96.7482L3.07486 95.1833C3.96261 94.9051 4.72642 94.9532 5.3663 95.3276C5.99392 95.7061 6.47112 96.3925 6.79792 97.3866Z" fill="#315069"/>
<path d="M13.1355 63.3735L18.242 63.6892L18.0985 66.0103L15.1197 65.8262L14.4095 77.3158L0.869598 76.4789L1.02263 74.003L12.4349 74.7084L12.8569 67.8804L1.44467 67.175L1.5989 64.6798L13.0111 65.3852L13.1355 63.3735Z" fill="#315069"/>
<path d="M13.5512 51.5208C13.7125 51.5678 13.9383 51.647 14.2288 51.7586L11.9568 59.5544C12.7284 59.6312 13.4144 59.4476 14.0148 59.0036C14.6065 58.5435 15.027 57.8855 15.2764 57.0297C15.5945 55.9381 15.4969 54.934 14.9835 54.0173L16.7795 53.1883C17.1827 53.7903 17.4213 54.4721 17.4954 55.2339C17.5695 55.9956 17.4818 56.8044 17.2323 57.6603C16.9142 58.7518 16.417 59.6498 15.7407 60.3543C15.0643 61.0589 14.2748 61.5285 13.372 61.7634C12.4604 61.9822 11.5147 61.9488 10.5348 61.6632C9.56729 61.3812 8.76229 60.9111 8.11978 60.2528C7.46848 59.5786 7.03964 58.7874 6.83325 57.8795C6.62686 56.9715 6.66645 56.0276 6.95203 55.0477C7.234 54.0802 7.7023 53.2814 8.35694 52.6513C9.0028 52.0052 9.7779 51.5851 10.6822 51.3911C11.5778 51.1811 12.5341 51.2243 13.5512 51.5208ZM8.8126 55.5899C8.5957 56.3342 8.6346 57.0318 8.92931 57.6829C9.21523 58.318 9.70783 58.798 10.4071 59.1229L12.0501 53.4854C11.3018 53.375 10.6302 53.509 10.0355 53.8874C9.44074 54.2658 9.03311 54.8333 8.8126 55.5899Z" fill="#315069"/>
<path d="M9.88762 46.533L11.0104 44.3864L14.7368 46.3355L17.153 41.7161L13.4266 39.767L14.5493 37.6204L23.7195 42.4169L22.5967 44.5635L18.9733 42.6682L16.5571 47.2876L20.1805 49.1828L19.0577 51.3294L9.88762 46.533Z" fill="#315069"/>
<path d="M23.698 28.737L21.4607 31.5879L27.9859 36.7086L26.4904 38.6143L19.9652 33.4936L17.7159 36.3598L16.0999 35.0916L22.082 27.4688L23.698 28.737Z" fill="#315069"/>
<path d="M28.4431 21.1507C29.1983 20.4835 30.0167 20.0535 30.8981 19.8609C31.7893 19.6598 32.6695 19.7096 33.5387 20.0106C34.4079 20.3115 35.189 20.854 35.8819 21.6383C36.5748 22.4226 37.0212 23.2694 37.2213 24.1788C37.4128 25.0785 37.3538 25.9581 37.0443 26.8177C36.7445 27.6687 36.217 28.4278 35.4618 29.095C34.4161 30.0189 33.2803 30.4017 32.0544 30.2435L35.3777 34.0051L33.5623 35.609L24.2211 25.0359L25.9494 23.509L26.8476 24.5256C26.8227 23.8925 26.9468 23.2915 27.22 22.7226C27.5029 22.1451 27.9106 21.6212 28.4431 21.1507ZM33.8855 27.7206C34.5536 27.1304 34.9039 26.4244 34.9364 25.6026C34.9787 24.7723 34.679 23.9941 34.0374 23.2679C33.3958 22.5417 32.6605 22.1484 31.8313 22.088C31.0118 22.019 30.268 22.2796 29.5999 22.8698C29.1642 23.2548 28.8619 23.7029 28.6929 24.2141C28.5155 24.7157 28.4876 25.2403 28.6093 25.7879C28.731 26.3354 29.0058 26.8513 29.4335 27.3354C29.8612 27.8195 30.3392 28.1557 30.8676 28.344C31.396 28.5323 31.9243 28.5741 32.4525 28.4695C32.9721 28.3552 33.4498 28.1056 33.8855 27.7206Z" fill="#315069"/>
<path d="M45.6669 15.6399L46.7707 11.1134L48.7939 10.2754L47.7438 14.7797L51.6638 17.2045L49.6406 18.0425L45.6669 15.6399ZM49.391 14.0974L50.4948 9.57088L52.5181 8.73289L51.468 13.2372L55.388 15.662L53.3648 16.5L49.391 14.0974Z" fill="#315069"/>
<path d="M66.1787 14.579L62.6736 11.2357C62.5622 11.2714 62.3925 11.3124 62.1646 11.3586L59.1636 11.9667L59.9488 15.8414L57.4796 16.3418L54.7854 3.04622L60.2555 1.93774C61.4078 1.70424 62.4466 1.69147 63.372 1.89942C64.31 2.10481 65.0788 2.51587 65.6783 3.13259C66.2779 3.74931 66.6764 4.54518 66.874 5.52018C67.0767 6.52052 67.0043 7.4316 66.6567 8.25343C66.3218 9.07269 65.7344 9.75197 64.8946 10.2913L68.8378 14.0401L66.1787 14.579ZM64.3858 6.02439C64.2139 5.17601 63.8032 4.58034 63.1537 4.2374C62.5042 3.89445 61.6412 3.83203 60.5649 4.05013L57.6779 4.63517L58.7517 9.93439L61.6388 9.34936C62.7151 9.13126 63.4856 8.73783 63.9504 8.16908C64.4126 7.58767 64.5578 6.87277 64.3858 6.02439Z" fill="#315069"/>
<path d="M81.103 11.9416L81.0704 14.0538L70.8973 13.8967L71.1067 0.33252L81.0086 0.485417L80.976 2.59755L73.5932 2.48355L73.5387 6.01024L80.0883 6.11137L80.0563 8.18475L73.5067 8.08362L73.449 11.8235L81.103 11.9416Z" fill="#315069"/>
<path d="M87.756 15.4435C86.7336 15.22 85.7746 14.8583 84.8788 14.3583C83.9956 13.8611 83.3287 13.312 82.8782 12.711L84.1481 10.985C84.5971 11.5327 85.1825 12.031 85.9043 12.4797C86.6416 12.9186 87.4078 13.2249 88.2029 13.3987C89.1874 13.6139 89.954 13.6162 90.5026 13.4055C91.0638 13.1975 91.401 12.8348 91.5141 12.3173C91.5969 11.9387 91.5256 11.5991 91.3004 11.2986C91.0905 10.9882 90.7925 10.7181 90.4063 10.4882C90.0201 10.2583 89.4866 9.97638 88.8058 9.64242C87.8485 9.18189 87.0805 8.76275 86.5018 8.38499C85.9358 8.00999 85.4807 7.5204 85.1367 6.9162C84.808 6.30215 84.7389 5.55967 84.9293 4.68877C85.0893 3.9567 85.4298 3.33682 85.9507 2.82912C86.487 2.31156 87.1914 1.96298 88.0638 1.78338C88.9489 1.60654 89.972 1.64502 91.1332 1.89884C91.941 2.07541 92.7141 2.35019 93.4525 2.72319C94.1909 3.09619 94.8027 3.53409 95.2879 4.0369L94.0937 5.77943C93.5876 5.31173 93.0383 4.92056 92.4459 4.60591C91.8534 4.29126 91.2605 4.0691 90.6673 3.93943C89.6954 3.727 88.9338 3.73245 88.3825 3.95578C87.8437 4.18186 87.515 4.56628 87.3964 5.10901C87.3136 5.48767 87.3786 5.82587 87.5912 6.12362C87.8165 6.42413 88.1222 6.68933 88.5084 6.91921C88.8945 7.14909 89.428 7.43101 90.1088 7.76498C91.0437 8.20736 91.7991 8.62375 92.375 9.01413C92.9536 9.39188 93.4087 9.88148 93.7401 10.4829C94.0841 11.0871 94.1623 11.8183 93.9747 12.6766C93.8147 13.4087 93.4679 14.0272 92.9344 14.5321C92.4134 15.0398 91.7104 15.3821 90.8254 15.5589C89.9403 15.7358 88.9172 15.6973 87.756 15.4435Z" fill="#315069"/>
<path d="M99.9495 4.57155L102.305 5.46546L97.4915 18.1486L95.1361 17.2547L99.9495 4.57155Z" fill="#315069"/>
<path d="M107.727 7.5058L112.81 10.5595C114.051 11.3046 115.006 12.2103 115.677 13.2764C116.355 14.3314 116.693 15.4616 116.692 16.667C116.698 17.8613 116.355 19.0343 115.664 20.1861C114.972 21.3379 114.094 22.1972 113.03 22.7639C111.973 23.3195 110.816 23.5515 109.56 23.46C108.31 23.3574 107.065 22.9336 105.825 22.1884L100.741 19.1347L107.727 7.5058ZM106.823 20.3011C107.676 20.8134 108.52 21.1019 109.355 21.1666C110.208 21.2269 110.986 21.0611 111.688 20.6693C112.409 20.2731 113.008 19.6762 113.487 18.8788C113.966 18.0814 114.208 17.2772 114.213 16.4663C114.236 15.6509 114.017 14.8864 113.556 14.1727C113.113 13.4545 112.466 12.8393 111.613 12.327L108.789 10.6305L103.999 18.6046L106.823 20.3011Z" fill="#315069"/>
<path d="M122.414 32.857L120.948 34.3776L113.624 27.3151L123.041 17.55L130.169 24.4241L128.703 25.9447L123.388 20.8193L120.94 23.3583L125.655 27.9051L124.215 29.3978L119.5 24.8509L116.904 27.5433L122.414 32.857Z" fill="#315069"/>
<path d="M140.421 38.5204L129.111 46.0113L127.966 44.2825L131.493 32.9734L123.835 38.0459L122.454 35.9616L133.764 28.4706L134.909 30.1995L131.382 41.5086L139.04 36.4361L140.421 38.5204Z" fill="#315069"/>
<path d="M141.788 46.6889L140.13 42.5097L142.112 41.7236L146.357 52.4237L144.375 53.2098L142.717 49.0307L132.089 53.2475L131.16 50.9057L141.788 46.6889Z" fill="#315069"/>
<path d="M135.03 56.9237L139.246 58.7888L142.369 55.3781L142.821 57.521L139.709 60.9886L135.482 59.0666L135.03 56.9237ZM135.861 60.8681L140.076 62.7333L143.2 59.3225L143.651 61.4654L140.54 64.9331L136.312 63.011L135.861 60.8681Z" fill="#315069"/>
</svg>
