<svg width="150" height="17" viewBox="0 0 150 17" fill="none" xmlns="http://www.w3.org/2000/svg">
<g clip-path="url(#clip0_56_3)">
<path fill-rule="evenodd" clip-rule="evenodd" d="M37.0371 2.58353L31.5527 14.5176H32.4604L33.944 11.1992H40.8891L42.3842 14.5138H43.3453L37.8609 2.57968L37.0371 2.58353ZM34.3254 10.3946L37.4414 3.54595L40.5344 10.3946H34.3254ZM59.497 6.02516C59.5013 5.61292 59.425 5.20387 59.2725 4.82141C59.12 4.43895 58.8944 4.09057 58.6084 3.79618C57.9028 3.08784 56.7472 2.64127 55.3018 2.64127H50.3742V14.4599H51.2476V9.56304H55.092L58.8334 14.4599H59.9433L56.0646 9.40905C58.044 9.13958 59.497 8.00776 59.497 6.03286V6.02516ZM51.24 8.7623V3.46511H55.2522C57.3842 3.46511 58.6275 4.46218 58.6275 6.04826C58.6275 7.78833 57.1668 8.7854 55.195 8.7854L51.24 8.7623ZM76.4803 2.63742H75.2903L67.8037 10.3946V2.63742H66.9303V14.4599H67.8037V11.4532L70.7251 8.46973L75.5573 14.4483H76.7015L71.362 7.84607L76.4803 2.63742ZM99.0737 3.46511H103.17V14.4753H104.043V3.46511H108.135V2.63742H99.0737V3.46511ZM115.157 14.4753H116.03V2.63742H115.157V14.4753ZM131.984 12.9354L123.875 2.63742H123.052V14.4599H123.891V3.95402L132.167 14.4599H132.823V2.63742H131.984V12.9354ZM145.386 8.31574V9.08568H149.2V12.3849C148.173 13.2222 146.896 13.6848 145.576 13.6976C142.525 13.6976 140.702 11.484 140.702 8.51207C140.702 5.70564 142.636 3.34577 145.397 3.34577C146.748 3.29868 148.062 3.79433 149.051 4.72396L149.604 4.08491C148.462 3.06024 146.974 2.51847 145.447 2.57198C142.052 2.57198 139.825 5.41306 139.825 8.51207C139.825 11.7766 141.953 14.4522 145.546 14.4522C147.193 14.4394 148.78 13.827 150.016 12.7275V8.30804L145.386 8.31574ZM83.6923 3.48436H92.0829V2.63357H83.6923V3.48436ZM89.5161 8.15405H83.6923V8.99714H89.5161V8.15405ZM83.6923 14.4599H92.0829V13.6168H83.6923V14.4599Z" fill="black"/>
<path fill-rule="evenodd" clip-rule="evenodd" d="M19.4509 0L15.5684 6.71389L11.7049 0H7.02148V9.97459C8.47158 11.2684 10.0397 12.4207 11.7049 13.4162V8.46936L15.3586 14.6289H15.7782L19.4509 8.46936V16.4921H24.1115V0H19.4509Z" fill="black"/>
<path fill-rule="evenodd" clip-rule="evenodd" d="M4.68345 7.60317V0H0C1.1226 2.78419 2.70635 5.35527 4.68345 7.60317V7.60317Z" fill="black"/>
<path fill-rule="evenodd" clip-rule="evenodd" d="M0 9.57031V16.4998H4.68345V12.831C3.03926 11.8709 1.47319 10.7806 0 9.57031H0Z" fill="black"/>
<path fill-rule="evenodd" clip-rule="evenodd" d="M7.02148 14.082V16.4919H11.7049V15.9722C10.1021 15.4528 8.5372 14.8212 7.02148 14.082V14.082Z" fill="black"/>
</g>
<defs>
<clipPath id="clip0_56_3">
<rect width="150" height="16.4921" fill="white"/>
</clipPath>
</defs>
</svg>
