<svg width="24" height="24" viewBox="0 0 24 24" fill="none" xmlns="http://www.w3.org/2000/svg">
<path d="M6.09994 17.2276C5.91721 17.4105 5.91721 17.7071 6.09994 17.8904C6.28323 18.0731 6.58005 18.0731 6.76334 17.8904C6.94607 17.7071 6.94607 17.4105 6.76334 17.2276C6.58005 17.0443 6.28323 17.0443 6.09994 17.2276Z" fill="#315069"/>
<path d="M15.4844 23.9976C15.7433 23.9976 15.9531 23.7877 15.9531 23.5288C15.9531 23.2699 15.7433 23.0601 15.4844 23.0601H13.6094C13.3506 23.0601 13.1406 23.2699 13.1406 23.5288C13.1406 23.7877 13.3506 23.9976 13.6094 23.9976H15.4844Z" fill="#315069"/>
<path d="M19.198 0.822144C19.013 1.00708 3.63732 16.3764 3.1173 16.8962V16.8964C3.11712 16.8966 3.11694 16.8968 3.11675 16.897C3.07848 16.9354 3.04516 16.9847 3.02502 17.0273L0.0453444 23.3276C-0.101323 23.6376 0.125728 23.9976 0.46905 23.9976H11.735C11.9939 23.9976 12.2037 23.7878 12.2037 23.5289C12.2037 23.27 11.9939 23.0601 11.735 23.0601H2.54894L6.96435 20.9656C7.00793 20.9451 7.05608 20.9123 7.09399 20.8744C7.09435 20.874 7.09472 20.8738 7.09508 20.8735L7.09527 20.8733C7.72533 20.2436 22.3661 5.60925 23.1758 4.79993C24.2746 3.70111 24.2748 1.92114 23.1758 0.821961C22.0791 -0.274109 20.2948 -0.273926 19.198 0.822144ZM19.529 7.11951C18.7045 6.29498 17.7068 5.29724 16.8771 4.46759L17.8717 3.47333L20.5238 6.12524L19.529 7.11951ZM4.16338 21.2567L2.73663 19.8296L3.58788 18.0298L5.96203 20.4036L4.16338 21.2567ZM6.76366 19.8794L4.11175 17.2278L16.2141 5.13043L17.2089 6.12524L7.42632 15.9016C7.2434 16.0845 7.24322 16.3813 7.42614 16.5645C7.60906 16.7476 7.90587 16.7477 8.08916 16.5646L17.8719 6.78827L18.866 7.78235L6.76366 19.8794ZM2.31091 20.7297L3.26415 21.6832L1.45379 22.5419L2.31091 20.7297ZM22.5129 4.1369L21.1869 5.4624L18.5348 2.81049L19.8608 1.48517C20.592 0.754211 21.7818 0.754211 22.5127 1.48499C23.2453 2.21741 23.2455 3.40448 22.5129 4.1369Z" fill="#315069"/>
</svg>
