<svg width="47" height="46" viewBox="0 0 47 46" fill="none" xmlns="http://www.w3.org/2000/svg">
<g clip-path="url(#clip0_186_370)">
<circle cx="23.5" cy="24.5" r="23.5" fill="#999999"/>
<path fill-rule="evenodd" clip-rule="evenodd" d="M13.2273 30.272C12.4046 29.6323 11.2278 29.5621 10.4866 30.2947C4.17686 36.5302 0.00390625 47.3447 0.00390625 59.6415C0.00390625 78.9566 10.2996 94.6145 22.9999 94.6145C35.7002 94.6145 45.9958 78.9566 45.9958 59.6415C45.9958 46.6989 41.3731 35.3984 34.5016 29.3505C33.7092 28.6531 32.5218 28.8119 31.7431 29.5245C29.1865 31.8643 25.7812 33.2919 22.0424 33.2919C18.7202 33.2919 15.6613 32.1648 13.2273 30.272Z" fill="white"/>
<ellipse cx="22" cy="17.5" rx="14" ry="14.5" fill="white"/>
</g>
<defs>
<clipPath id="clip0_186_370">
<rect width="47" height="46" fill="white"/>
</clipPath>
</defs>
</svg>
