<svg width="22" height="22" viewBox="0 0 22 22" fill="none" xmlns="http://www.w3.org/2000/svg">
<g clip-path="url(#clip0_192_477)">
<path d="M21.587 2.644C21.2478 2.33323 20.7657 2.22966 20.3288 2.37366L1.79077 8.48458C1.28555 8.65111 0.94295 9.10209 0.917955 9.63342C0.893 10.1648 1.19175 10.646 1.67905 10.8592L6.26365 12.8651C6.28601 12.9689 7.60211 19.073 7.64687 19.2805C7.70432 19.547 7.83959 19.7844 8.12615 19.8574C8.416 19.9312 8.62078 19.7728 8.83705 19.6109C8.95741 19.5208 12.2392 17.0634 12.2392 17.0634L16.2166 20.3181C16.4483 20.5078 16.7314 20.6067 17.0201 20.6067C17.1576 20.6066 17.2963 20.5842 17.4313 20.5384C17.8499 20.3965 18.1602 20.0548 18.2614 19.6246L21.9661 3.87375C22.0714 3.42594 21.9262 2.95477 21.587 2.644ZM9.13341 14.0145C9.13115 14.0199 9.12892 14.0259 9.12682 14.0332L8.35992 16.7126L7.50406 12.7432L13.3892 9.4734L9.27457 13.7756C9.20975 13.8434 9.16207 13.9254 9.13341 14.0145ZM9.37682 17.6598L9.72514 16.4428L10.0583 15.2787L11.2521 16.2556L9.37682 17.6598ZM20.7607 3.5902L17.0561 19.341C17.0542 19.3488 17.0518 19.3596 17.0336 19.3658C17.0157 19.3719 17.007 19.3649 17.0008 19.3598L12.6486 15.7984C12.6485 15.7983 12.6484 15.7982 12.6483 15.7981L10.6318 14.148L17.1101 7.37421C17.3217 7.15295 17.3398 6.81031 17.1527 6.56797C16.9656 6.3256 16.6295 6.25638 16.3619 6.40511L6.7694 11.7348L2.17542 9.72475C2.16142 9.71866 2.15372 9.71524 2.15483 9.69156C2.15594 9.66797 2.16393 9.66529 2.17842 9.66051L20.7164 3.54964C20.7254 3.54671 20.7355 3.54334 20.7504 3.55693C20.7654 3.5706 20.7629 3.58097 20.7607 3.5902Z" fill="#7F7F7F"/>
</g>
<defs>
<clipPath id="clip0_192_477">
<rect width="21.0833" height="21.0833" fill="white" transform="translate(0.916504 0.916626)"/>
</clipPath>
</defs>
</svg>
