<svg width="22" height="22" viewBox="0 0 22 22" fill="none" xmlns="http://www.w3.org/2000/svg">
<path d="M18.731 3.19479C16.6643 1.13582 13.915 0.00117493 10.9889 0C8.0694 0 5.3157 1.13364 3.23541 3.19211C1.15143 5.2541 0.00268555 7.99437 0 10.8981V10.9015V10.9035C0.000335693 12.661 0.462082 14.434 1.33858 16.0524L0.0300446 22L6.04617 20.6315C7.56989 21.3994 9.27 21.8043 10.9847 21.805H10.9891C13.9081 21.805 16.6618 20.6712 18.7424 18.6125C20.8283 16.5488 21.9775 13.8121 21.9789 10.9065C21.9797 8.02139 20.8264 5.28264 18.731 3.19479ZM10.9889 20.0879H10.9851C9.4454 20.0872 7.91985 19.7007 6.57355 18.9697L6.28905 18.8153L2.28859 19.7252L3.15753 15.7761L2.99002 15.4872C2.15717 14.0509 1.71707 12.4655 1.71707 10.9016C1.72026 5.83989 5.87917 1.71707 10.9886 1.71707C13.4569 1.71808 15.7762 2.67497 17.5192 4.41118C19.2884 6.17424 20.2625 8.48079 20.2616 10.906C20.2596 15.9689 16.0999 20.0879 10.9889 20.0879Z" fill="#7F7F7F"/>
<path d="M7.99907 6.09546H7.51735C7.34967 6.09546 7.07742 6.15823 6.84714 6.40883C6.61668 6.65959 5.96729 7.26569 5.96729 8.49835C5.96729 9.73102 6.86812 10.9221 6.99367 11.0894C7.11938 11.2566 8.73256 13.8669 11.2875 14.8712C13.411 15.7057 13.8432 15.5397 14.3039 15.4979C14.7648 15.4563 15.7912 14.892 16.0007 14.307C16.2101 13.7221 16.2101 13.2206 16.1474 13.1158C16.0844 13.0114 15.9167 12.9488 15.6655 12.8236C15.414 12.6982 14.182 12.0819 13.9516 11.9981C13.7211 11.9147 13.5536 11.8729 13.3859 12.1238C13.2183 12.3743 12.7246 12.9537 12.5779 13.1208C12.4314 13.2882 12.2847 13.3092 12.0333 13.1838C11.7818 13.0581 10.9805 12.7888 10.0203 11.9355C9.27286 11.2713 8.75421 10.4244 8.60751 10.1736C8.46098 9.92303 8.5919 9.78741 8.71796 9.66237C8.83092 9.55025 8.98349 9.39684 9.10921 9.25064C9.23476 9.10428 9.27051 8.99988 9.35443 8.8327C9.43819 8.66553 9.39623 8.51916 9.33345 8.39395C9.27051 8.26857 8.78812 7.02969 8.56454 6.53421H8.56471C8.37639 6.11694 8.17816 6.10284 7.99907 6.09546Z" fill="#7F7F7F"/>
</svg>
