<svg width="24" height="24" viewBox="0 0 24 24" fill="none" xmlns="http://www.w3.org/2000/svg">
<path d="M20.4338 3.48523C18.1793 1.23907 15.18 0.00128174 11.9879 0C8.80298 0 5.79895 1.23669 3.52954 3.4823C1.2561 5.73175 0.00292969 8.72113 0 11.8889V11.8925V11.8947C0.000366211 13.812 0.504089 15.7462 1.46027 17.5117L0.0327759 24L6.59583 22.5071C8.25806 23.3448 10.1127 23.7865 11.9833 23.7872H11.9881C15.1725 23.7872 18.1765 22.5504 20.4463 20.3046C22.7217 18.0533 23.9755 15.0677 23.9769 11.898C23.9778 8.75061 22.7197 5.76288 20.4338 3.48523ZM11.9879 21.9141H11.9837C10.3041 21.9133 8.63983 21.4916 7.17114 20.6942L6.86078 20.5258L2.49664 21.5184L3.44458 17.2103L3.26184 16.8951C2.35327 15.3283 1.87317 13.5987 1.87317 11.8927C1.87665 6.37079 6.41364 1.87317 11.9875 1.87317C14.6803 1.87427 17.2104 2.91815 19.1118 4.81219C21.0419 6.73553 22.1045 9.25177 22.1036 11.8975C22.1014 17.4207 17.5635 21.9141 11.9879 21.9141Z" fill="#315069"/>
<path d="M8.72626 6.64966H8.20074C8.01782 6.64966 7.72083 6.71814 7.4696 6.99152C7.2182 7.26508 6.50977 7.92627 6.50977 9.271C6.50977 10.6157 7.49249 11.915 7.62946 12.0976C7.7666 12.28 9.52643 15.1276 12.3137 16.2231C14.6301 17.1335 15.1016 16.9525 15.6042 16.9069C16.1071 16.8614 17.2267 16.2458 17.4553 15.6077C17.6838 14.9696 17.6838 14.4225 17.6153 14.3082C17.5466 14.1943 17.3637 14.126 17.0896 13.9894C16.8153 13.8527 15.4713 13.1803 15.2199 13.0889C14.9685 12.9979 14.7858 12.9523 14.6028 13.2261C14.4199 13.4993 13.8814 14.1313 13.7214 14.3137C13.5615 14.4963 13.4015 14.5192 13.1272 14.3824C12.8529 14.2452 11.9788 13.9515 10.9312 13.0206C10.1158 12.2961 9.55005 11.3721 9.39001 11.0986C9.23016 10.8252 9.37299 10.6772 9.5105 10.5408C9.63373 10.4185 9.80017 10.2512 9.93732 10.0917C10.0743 9.93201 10.1133 9.81811 10.2048 9.63574C10.2962 9.45337 10.2504 9.2937 10.1819 9.1571C10.1133 9.02032 9.58704 7.66882 9.34314 7.1283H9.34332C9.13788 6.6731 8.92163 6.65771 8.72626 6.64966Z" fill="#315069"/>
</svg>
