<svg width="474" height="248" viewBox="0 0 474 248" fill="none" xmlns="http://www.w3.org/2000/svg">
<path d="M156.4 188.19H130.18V222H93.84V188.19H7.13V163.12L83.03 61H122.13L51.75 157.83H94.99V127.7H130.18V157.83H156.4V188.19ZM236.544 224.76C223.204 224.76 211.321 221.463 200.894 214.87C190.468 208.277 182.264 198.77 176.284 186.35C170.458 173.777 167.544 158.827 167.544 141.5C167.544 124.173 170.458 109.3 176.284 96.88C182.264 84.3067 190.468 74.7233 200.894 68.13C211.321 61.5367 223.204 58.24 236.544 58.24C249.884 58.24 261.768 61.5367 272.194 68.13C282.621 74.7233 290.748 84.3067 296.574 96.88C302.554 109.3 305.544 124.173 305.544 141.5C305.544 158.827 302.554 173.777 296.574 186.35C290.748 198.77 282.621 208.277 272.194 214.87C261.768 221.463 249.884 224.76 236.544 224.76ZM236.544 193.25C246.358 193.25 254.024 189.033 259.544 180.6C265.218 172.167 268.054 159.133 268.054 141.5C268.054 123.867 265.218 110.833 259.544 102.4C254.024 93.9667 246.358 89.75 236.544 89.75C226.884 89.75 219.218 93.9667 213.544 102.4C208.024 110.833 205.264 123.867 205.264 141.5C205.264 159.133 208.024 172.167 213.544 180.6C219.218 189.033 226.884 193.25 236.544 193.25ZM471.078 188.19H444.858V222H408.518V188.19H321.808V163.12L397.708 61H436.808L366.428 157.83H409.668V127.7H444.858V157.83H471.078V188.19Z" fill="#3B4069"/>
<path d="M62.7393 46.2882C60.9953 46.2882 59.4193 45.9122 58.0113 45.1602C56.6193 44.4082 55.5233 43.3762 54.7233 42.0642C53.9393 40.7362 53.5473 39.2482 53.5473 37.6002C53.5473 35.9522 53.9393 34.4722 54.7233 33.1602C55.5233 31.8322 56.6193 30.7922 58.0113 30.0402C59.4193 29.2882 60.9953 28.9122 62.7393 28.9122C64.4833 28.9122 66.0513 29.2882 67.4433 30.0402C68.8353 30.7922 69.9313 31.8322 70.7313 33.1602C71.5313 34.4722 71.9313 35.9522 71.9313 37.6002C71.9313 39.2482 71.5313 40.7362 70.7313 42.0642C69.9313 43.3762 68.8353 44.4082 67.4433 45.1602C66.0513 45.9122 64.4833 46.2882 62.7393 46.2882ZM62.7393 42.9762C63.7313 42.9762 64.6273 42.7522 65.4273 42.3042C66.2273 41.8402 66.8513 41.2002 67.2993 40.3842C67.7633 39.5682 67.9953 38.6402 67.9953 37.6002C67.9953 36.5602 67.7633 35.6322 67.2993 34.8162C66.8513 34.0002 66.2273 33.3682 65.4273 32.9202C64.6273 32.4562 63.7313 32.2242 62.7393 32.2242C61.7473 32.2242 60.8513 32.4562 60.0513 32.9202C59.2513 33.3682 58.6193 34.0002 58.1553 34.8162C57.7073 35.6322 57.4833 36.5602 57.4833 37.6002C57.4833 38.6402 57.7073 39.5682 58.1553 40.3842C58.6193 41.2002 59.2513 41.8402 60.0513 42.3042C60.8513 42.7522 61.7473 42.9762 62.7393 42.9762ZM80.7333 46.1922C79.3733 46.1922 78.1493 45.9122 77.0613 45.3522C75.9893 44.7762 75.1493 43.9842 74.5413 42.9762C73.9333 41.9682 73.6293 40.8242 73.6293 39.5442C73.6293 38.2642 73.9333 37.1202 74.5413 36.1122C75.1493 35.1042 75.9893 34.3202 77.0613 33.7602C78.1493 33.1842 79.3733 32.8962 80.7333 32.8962C82.0933 32.8962 83.3093 33.1842 84.3813 33.7602C85.4533 34.3202 86.2933 35.1042 86.9013 36.1122C87.5093 37.1202 87.8133 38.2642 87.8133 39.5442C87.8133 40.8242 87.5093 41.9682 86.9013 42.9762C86.2933 43.9842 85.4533 44.7762 84.3813 45.3522C83.3093 45.9122 82.0933 46.1922 80.7333 46.1922ZM80.7333 43.1202C81.6933 43.1202 82.4773 42.8002 83.0853 42.1602C83.7093 41.5042 84.0213 40.6322 84.0213 39.5442C84.0213 38.4562 83.7093 37.5922 83.0853 36.9522C82.4773 36.2962 81.6933 35.9682 80.7333 35.9682C79.7733 35.9682 78.9813 36.2962 78.3573 36.9522C77.7333 37.5922 77.4213 38.4562 77.4213 39.5442C77.4213 40.6322 77.7333 41.5042 78.3573 42.1602C78.9813 42.8002 79.7733 43.1202 80.7333 43.1202ZM97.9479 32.8962C99.1479 32.8962 100.236 33.1762 101.212 33.7362C102.204 34.2802 102.98 35.0562 103.54 36.0642C104.1 37.0562 104.38 38.2162 104.38 39.5442C104.38 40.8722 104.1 42.0402 103.54 43.0482C102.98 44.0402 102.204 44.8162 101.212 45.3762C100.236 45.9202 99.1479 46.1922 97.9479 46.1922C96.2999 46.1922 95.0039 45.6722 94.0599 44.6322V50.6562H90.3159V33.0882H93.8919V34.5762C94.8199 33.4562 96.1719 32.8962 97.9479 32.8962ZM97.2999 43.1202C98.2599 43.1202 99.0439 42.8002 99.6519 42.1602C100.276 41.5042 100.588 40.6322 100.588 39.5442C100.588 38.4562 100.276 37.5922 99.6519 36.9522C99.0439 36.2962 98.2599 35.9682 97.2999 35.9682C96.3399 35.9682 95.5479 36.2962 94.9239 36.9522C94.3159 37.5922 94.0119 38.4562 94.0119 39.5442C94.0119 40.6322 94.3159 41.5042 94.9239 42.1602C95.5479 42.8002 96.3399 43.1202 97.2999 43.1202ZM111.23 46.1922C110.158 46.1922 109.11 46.0642 108.086 45.8082C107.062 45.5362 106.246 45.2002 105.638 44.8002L106.886 42.1122C107.462 42.4802 108.158 42.7842 108.974 43.0242C109.79 43.2482 110.59 43.3602 111.374 43.3602C112.958 43.3602 113.75 42.9682 113.75 42.1842C113.75 41.8162 113.534 41.5522 113.102 41.3922C112.67 41.2322 112.006 41.0962 111.11 40.9842C110.054 40.8242 109.182 40.6402 108.494 40.4322C107.806 40.2242 107.206 39.8562 106.694 39.3282C106.198 38.8002 105.95 38.0482 105.95 37.0722C105.95 36.2562 106.182 35.5362 106.646 34.9122C107.126 34.2722 107.814 33.7762 108.71 33.4242C109.622 33.0722 110.694 32.8962 111.926 32.8962C112.838 32.8962 113.742 33.0002 114.638 33.2082C115.55 33.4002 116.302 33.6722 116.894 34.0242L115.646 36.6882C114.51 36.0482 113.27 35.7282 111.926 35.7282C111.126 35.7282 110.526 35.8402 110.126 36.0642C109.726 36.2882 109.526 36.5762 109.526 36.9282C109.526 37.3282 109.742 37.6082 110.174 37.7682C110.606 37.9282 111.294 38.0802 112.238 38.2242C113.294 38.4002 114.158 38.5922 114.83 38.8002C115.502 38.9922 116.086 39.3522 116.582 39.8802C117.078 40.4082 117.326 41.1442 117.326 42.0882C117.326 42.8882 117.086 43.6002 116.606 44.2242C116.126 44.8482 115.422 45.3362 114.494 45.6882C113.582 46.0242 112.494 46.1922 111.23 46.1922ZM119.156 29.2002H123.62L122.876 40.1682H119.9L119.156 29.2002ZM121.388 46.1922C120.732 46.1922 120.18 45.9842 119.732 45.5682C119.3 45.1362 119.084 44.6162 119.084 44.0082C119.084 43.4002 119.3 42.8962 119.732 42.4962C120.164 42.0802 120.716 41.8722 121.388 41.8722C122.06 41.8722 122.612 42.0802 123.044 42.4962C123.476 42.8962 123.692 43.4002 123.692 44.0082C123.692 44.6162 123.468 45.1362 123.02 45.5682C122.588 45.9842 122.044 46.1922 121.388 46.1922Z" fill="#3B4069"/>
</svg>
