<svg width="374" height="312" viewBox="0 0 374 312" fill="none" xmlns="http://www.w3.org/2000/svg">
<path d="M86.3128 290.665C86.0842 289.693 85.1114 289.091 84.1401 289.32C61.8039 294.549 39.4494 280.712 34.1694 258.387L26.0631 223.94L48.4248 237.785C49.2821 238.295 50.3911 238.014 50.9015 237.157C51.3994 236.32 51.1451 235.24 50.3265 234.713L24.2548 218.574C23.407 218.048 22.2931 218.309 21.7668 219.157C21.766 219.158 21.7651 219.159 21.7644 219.16L5.6257 245.232C5.0859 246.071 5.3286 247.189 6.16774 247.729C7.00701 248.269 8.12485 248.026 8.66486 247.187C8.6762 247.17 8.68717 247.152 8.69789 247.134L22.5456 224.768L30.6518 259.215C36.3909 283.481 60.6893 298.522 84.968 292.837C85.9392 292.608 86.5414 291.636 86.3128 290.665Z" fill="#3096FF"/>
<path d="M5.40787 246.593C5.2972 246.126 5.37645 245.635 5.62846 245.227L21.7671 219.155C22.2923 218.307 23.4056 218.045 24.2541 218.57L50.3258 234.708C51.1649 235.248 51.4076 236.366 50.8678 237.205C50.3411 238.024 49.2606 238.278 48.4242 237.78L23.8904 222.594L8.70394 247.127C8.17986 247.977 7.06655 248.24 6.2174 247.716C5.80917 247.464 5.5178 247.06 5.40787 246.593Z" fill="#3096FF"/>
<path d="M30.6518 259.212L21.5465 220.519C21.3179 219.548 21.9201 218.575 22.8914 218.347C23.8628 218.118 24.8356 218.72 25.0642 219.692L34.1695 258.385C39.4496 280.709 61.804 294.547 84.1402 289.317C85.1116 289.088 86.0844 289.691 86.3129 290.662C86.5415 291.633 85.9393 292.606 84.968 292.835C60.6893 298.519 36.3907 283.478 30.6518 259.212Z" fill="#3096FF"/>
<path d="M108.067 79.3151C109.207 79.7797 110.508 79.2321 110.973 78.0921C121.684 51.895 151.58 39.3119 177.801 49.9641L218.232 66.4422L188.324 79.0271C187.197 79.5243 186.687 80.8404 187.185 81.9667C187.67 83.0653 188.938 83.5822 190.053 83.1356L224.92 68.4601C226.055 67.984 226.589 66.6776 226.113 65.5423C226.112 65.5407 226.112 65.5388 226.111 65.5371L211.436 30.6701C210.978 29.5273 209.68 28.9721 208.537 29.4297C207.394 29.8876 206.839 31.1851 207.297 32.328C207.307 32.352 207.316 32.3757 207.327 32.3994L219.915 62.3137L179.484 45.8357C150.982 34.2569 118.487 47.9342 106.844 76.4096C106.38 77.5495 106.927 78.8504 108.067 79.3151Z" fill="#3096FF"/>
<path d="M210.222 29.4779C210.771 29.7002 211.208 30.1312 211.438 30.6764L226.114 65.5434C226.591 66.6779 226.059 67.9845 224.924 68.4623L190.057 83.1378C188.914 83.5955 187.617 83.0402 187.159 81.8975C186.712 80.7826 187.229 79.5144 188.328 79.0294L221.138 65.2194L207.328 32.4095C206.849 31.2755 207.38 29.9678 208.514 29.4887C209.06 29.2585 209.674 29.2544 210.222 29.4779Z" fill="#3096FF"/>
<path d="M179.487 45.8367L224.901 64.3456C226.041 64.8103 226.589 66.1112 226.124 67.2513C225.659 68.3914 224.358 68.9389 223.218 68.4743L177.804 49.9653C151.583 39.313 121.687 51.8961 110.976 78.0933C110.511 79.2333 109.21 79.7809 108.07 79.3163C106.93 78.8516 106.383 77.5506 106.847 76.4106C118.49 47.9351 150.986 34.2577 179.487 45.8367Z" fill="#3096FF"/>
<path d="M357.216 210.383C356.003 210.594 355.191 211.749 355.403 212.962C360.234 240.849 341.58 267.384 313.704 272.278L270.693 279.779L289.357 253.236C290.047 252.216 289.781 250.83 288.762 250.14C287.767 249.466 286.418 249.702 285.711 250.672L263.955 281.62C263.245 282.626 263.486 284.017 264.492 284.726C264.494 284.727 264.495 284.728 264.497 284.729L295.444 306.485C296.439 307.21 297.834 306.992 298.559 305.997C299.284 305.003 299.066 303.608 298.071 302.883C298.051 302.868 298.03 302.853 298.008 302.838L271.459 284.171L314.47 276.67C344.77 271.35 365.046 242.508 359.795 212.195C359.583 210.983 358.429 210.171 357.216 210.383Z" fill="#3096FF"/>
<path d="M297.105 306.852C296.522 306.955 295.923 306.822 295.438 306.482L264.491 284.726C263.484 284.018 263.241 282.628 263.949 281.621L285.705 250.673C286.43 249.679 287.825 249.46 288.82 250.185C289.79 250.893 290.025 252.242 289.352 253.236L268.879 282.359L298.001 302.831C299.009 303.538 299.253 304.928 298.547 305.936C298.207 306.421 297.688 306.75 297.105 306.852Z" fill="#3096FF"/>
<path d="M314.467 276.671L266.155 285.096C264.942 285.308 263.787 284.496 263.576 283.283C263.364 282.07 264.176 280.916 265.389 280.704L313.701 272.278C341.577 267.384 360.231 240.849 355.4 212.962C355.188 211.749 356 210.595 357.213 210.383C358.426 210.172 359.58 210.983 359.792 212.196C365.043 242.508 344.767 271.351 314.467 276.671Z" fill="#3096FF"/>
</svg>
