<svg width="33" height="33" viewBox="0 0 33 33" fill="none" xmlns="http://www.w3.org/2000/svg">
<circle cx="16.5" cy="16.5" r="16.5" fill="#154C85"/>
<path d="M13.0227 17.5216H14.7766V24.7419C14.7766 24.8845 14.8921 25 15.0347 25H18.0084C18.1509 25 18.2665 24.8845 18.2665 24.7419V17.5556H20.2827C20.4138 17.5556 20.5241 17.4572 20.539 17.327L20.8452 14.6689C20.8537 14.5957 20.8305 14.5225 20.7816 14.4676C20.7326 14.4127 20.6625 14.3813 20.5889 14.3813H18.2666V12.715C18.2666 12.2127 18.537 11.958 19.0705 11.958C19.1465 11.958 20.5889 11.958 20.5889 11.958C20.7315 11.958 20.847 11.8424 20.847 11.6999V9.25997C20.847 9.11742 20.7315 9.00191 20.5889 9.00191H18.4963C18.4815 9.00119 18.4488 9 18.4004 9C18.0373 9 16.7753 9.07128 15.7783 9.98844C14.6737 11.0048 14.8272 12.2217 14.8639 12.4327V14.3812H13.0227C12.8802 14.3812 12.7647 14.4967 12.7647 14.6393V17.2635C12.7647 17.406 12.8802 17.5216 13.0227 17.5216Z" fill="#FAFAFA"/>
</svg>
