<svg width="33" height="33" viewBox="0 0 33 33" fill="none" xmlns="http://www.w3.org/2000/svg">
<circle cx="16.5" cy="16.5" r="16.5" fill="#154C85"/>
<path d="M20.6689 9H13.331C10.9429 9 9 10.9429 9 13.331V20.669C9 23.0571 10.9429 25 13.331 25H20.669C23.0571 25 25 23.0571 25 20.669V13.331C25 10.9429 23.0571 9 20.6689 9V9ZM17 21.3749C14.5876 21.3749 12.6251 19.4123 12.6251 17C12.6251 14.5876 14.5876 12.6251 17 12.6251C19.4123 12.6251 21.3749 14.5876 21.3749 17C21.3749 19.4123 19.4123 21.3749 17 21.3749V21.3749ZM21.4795 13.6569C20.7666 13.6569 20.1867 13.077 20.1867 12.3641C20.1867 11.6512 20.7666 11.0713 21.4795 11.0713C22.1924 11.0713 22.7723 11.6512 22.7723 12.3641C22.7723 13.077 22.1924 13.6569 21.4795 13.6569Z" fill="#FAFAFA"/>
<path d="M17 13.5631C15.105 13.5631 13.5631 15.1048 13.5631 16.9999C13.5631 18.8949 15.105 20.4368 17 20.4368C18.8952 20.4368 20.4369 18.8949 20.4369 16.9999C20.4369 15.1048 18.8952 13.5631 17 13.5631Z" fill="#FAFAFA"/>
<path d="M21.4795 12.0093C21.2839 12.0093 21.1248 12.1685 21.1248 12.3641C21.1248 12.5596 21.2839 12.7188 21.4795 12.7188C21.6752 12.7188 21.8344 12.5598 21.8344 12.3641C21.8344 12.1684 21.6752 12.0093 21.4795 12.0093Z" fill="#FAFAFA"/>
</svg>
