<svg width="96" height="80" viewBox="0 0 96 80" fill="none" xmlns="http://www.w3.org/2000/svg">
<path fill-rule="evenodd" clip-rule="evenodd" d="M45.3363 5.14378C45.3828 5.20291 45.4335 5.26205 45.4841 5.31696C45.5306 5.36765 45.5729 5.40989 45.6193 5.45213C46.8232 6.60528 48.724 6.63062 49.9616 5.48592C51.2372 4.29475 51.3133 2.29258 50.1221 1.01271C48.9352 -0.271385 46.9288 -0.343193 45.6489 0.847974C44.4281 1.98423 44.3057 3.86391 45.3363 5.14378ZM93.9629 27.5859C94.0094 27.5901 94.0516 27.5943 94.0981 27.5943C94.1361 27.5985 94.1699 27.5985 94.2079 27.5943C95.171 27.5732 95.9609 26.8044 95.9989 25.8287C96.0369 24.8191 95.2428 23.9659 94.2333 23.9279C93.6546 23.911 93.1266 24.1602 92.776 24.5657H79.5211L76.5601 20.2572C76.7797 19.8813 76.8895 19.4631 76.8853 19.0449C76.8811 18.4663 76.6657 17.8876 76.2391 17.444L76.1123 17.3131L76.011 17.2328C75.5336 16.8485 74.9423 16.6795 74.372 16.7217C73.8018 16.764 73.2442 17.0132 72.8261 17.4652C72.3868 17.9383 72.1798 18.5465 72.2009 19.1463C72.222 19.7461 72.4755 20.3375 72.9486 20.781C73.2316 21.0429 73.5653 21.2203 73.9159 21.3175C74.1228 21.3766 74.3425 21.4019 74.5579 21.4019L78.313 26.8678H92.7042C92.9999 27.2564 93.4476 27.5267 93.9629 27.5859ZM93.9629 33.0644C94.0094 33.0686 94.0516 33.0728 94.0981 33.0728C94.1361 33.0771 94.1699 33.0771 94.2079 33.0728C95.171 33.0517 95.9609 32.2829 95.9989 31.3072C96.0369 30.2977 95.2428 29.4444 94.2333 29.4106C93.6926 29.3895 93.1984 29.6049 92.8478 29.964L78.6636 29.9682H78.313L74.5579 35.4298C74.3425 35.4298 74.1228 35.4552 73.9159 35.5143C73.5653 35.6115 73.2316 35.7889 72.9486 36.0507V36.055C72.4755 36.4943 72.222 37.0856 72.2009 37.6854C72.1798 38.2852 72.3868 38.8935 72.8261 39.3666C73.2442 39.8185 73.8018 40.0678 74.372 40.11C74.9423 40.1522 75.5336 39.9833 76.011 39.5989L76.1123 39.5186L76.2391 39.3919C76.6657 38.9442 76.8811 38.3697 76.8853 37.7868C76.8895 37.3686 76.7797 36.9505 76.5601 36.5745L79.5211 32.266H92.6451C92.9407 32.7011 93.4138 33.0052 93.9629 33.0644ZM3.51031 27.5859C3.55255 27.5901 3.59902 27.5943 3.64126 27.5943C3.67927 27.5985 3.71729 27.5985 3.75531 27.5943C4.32977 27.5816 4.8451 27.3029 5.17457 26.8678H19.6755L23.4307 21.4019C23.6503 21.4019 23.8657 21.3766 24.0769 21.3175C24.4233 21.2203 24.757 21.0429 25.04 20.781H25.0442C25.5173 20.3375 25.7665 19.7461 25.7877 19.1463C25.8088 18.5465 25.606 17.9383 25.1625 17.4652C24.7443 17.0132 24.1868 16.764 23.6165 16.7217C23.0463 16.6795 22.4592 16.8485 21.9818 17.2328L21.8805 17.3131L21.7495 17.444C21.3229 17.8876 21.1075 18.4663 21.1033 19.0449C21.099 19.4631 21.2088 19.8813 21.4285 20.2572L18.4675 24.5657H5.09854C4.77751 24.194 4.30865 23.949 3.77642 23.9279C2.76689 23.8941 1.91787 24.684 1.87985 25.6935C1.84184 26.6608 2.56414 27.4803 3.51031 27.5859ZM3.51031 33.0644C3.55255 33.0686 3.59902 33.0728 3.64126 33.0728C3.67927 33.0771 3.71729 33.0771 3.75531 33.0728C4.36778 33.0602 4.90846 32.7476 5.22948 32.266H18.4675L21.4285 36.5745C21.2088 36.9505 21.099 37.3686 21.1033 37.7868C21.1075 38.3697 21.3229 38.9442 21.7495 39.3919L21.8805 39.5186L21.9818 39.5989C22.4592 39.9833 23.0463 40.1522 23.6165 40.11C24.1868 40.0678 24.7443 39.8185 25.1625 39.3666C25.606 38.8935 25.8088 38.2852 25.7877 37.6854C25.7665 37.0856 25.5173 36.4943 25.0442 36.055L25.04 36.0507C24.757 35.7889 24.4233 35.6115 24.0769 35.5143C23.8657 35.4552 23.6503 35.4298 23.4307 35.4298L19.6755 29.9682H19.3249L5.02673 29.964C4.70993 29.6387 4.27063 29.4275 3.77642 29.4106C2.76689 29.3726 1.91787 30.1625 1.87985 31.172C1.84184 32.1393 2.56414 32.9588 3.51031 33.0644ZM68.9442 27.6788C68.94 27.7295 68.9358 27.7802 68.9358 27.8266C68.9315 27.8689 68.9315 27.9111 68.9358 27.9491C68.9569 29.0262 69.8144 29.9091 70.9041 29.9513C72.0362 29.9935 72.9866 29.1107 73.0246 27.9787C73.0668 26.8509 72.184 25.9005 71.0562 25.8582C69.9749 25.8202 69.0625 26.6228 68.9442 27.6788ZM47.368 23.9321C47.4145 23.8941 47.4652 23.8561 47.5117 23.8096C47.5497 23.7716 47.5835 23.7378 47.6215 23.6998C48.5634 22.7156 48.5846 21.1569 47.6468 20.1474C46.6711 19.0956 45.0322 19.0365 43.9804 20.0122C42.9329 20.988 42.8737 22.6269 43.8452 23.6744C44.7787 24.6755 46.3163 24.7727 47.368 23.9321ZM53.2479 24.4221C53.3619 24.4221 53.4759 24.4094 53.59 24.3714C53.7463 24.3207 53.8941 24.2405 54.0251 24.118C54.4897 23.6913 54.515 22.969 54.0842 22.5086C53.6576 22.0482 52.9353 22.0229 52.4749 22.4495C52.0609 22.8339 51.9976 23.4463 52.2932 23.9025C52.327 23.9575 52.3693 24.0081 52.4157 24.0631C52.4495 24.0968 52.4833 24.1349 52.5213 24.1644C52.7325 24.3376 52.9902 24.4221 53.2479 24.4221ZM43.1145 30.2808C43.482 29.9344 43.6045 29.4317 43.4777 28.9798C43.4482 28.8657 43.4017 28.7601 43.3384 28.6588C43.2961 28.5869 43.2412 28.5151 43.1821 28.4476C42.6921 27.9238 41.8726 27.8942 41.3489 28.38C40.8251 28.8657 40.7955 29.6852 41.2813 30.209C41.7713 30.737 42.5865 30.7665 43.1145 30.2808ZM50.5572 27.5309C50.6205 27.4676 50.6797 27.4042 50.7304 27.3324C50.8022 27.2395 50.8571 27.1381 50.8993 27.0283C51.0556 26.6355 51.026 26.1835 50.8022 25.816C50.7515 25.7315 50.6966 25.6555 50.629 25.5837L50.5867 25.5414C50.1601 25.1233 49.5307 25.0346 49.0112 25.288C48.9098 25.3345 48.8169 25.4021 48.724 25.4823L48.6859 25.5161C48.3311 25.8414 48.1917 26.3102 48.2635 26.7537C48.2847 26.8678 48.3184 26.9776 48.3691 27.0832C48.4283 27.2184 48.5085 27.3451 48.6141 27.4591C48.7324 27.5859 48.8676 27.683 49.0112 27.7548C49.121 27.8055 49.2308 27.8435 49.3449 27.8689C49.7631 27.9534 50.2192 27.8435 50.5572 27.5309ZM62.3843 28.8531C62.9081 28.3673 62.9419 27.5478 62.4562 27.0241C61.9662 26.4961 61.1467 26.4665 60.6229 26.9565C60.3399 27.2184 60.2048 27.5732 60.209 27.9322C60.2132 28.0505 60.2301 28.1603 60.2639 28.2744C60.3188 28.4602 60.416 28.6376 60.5554 28.7855C61.0411 29.3092 61.8606 29.3388 62.3843 28.8531ZM46.7513 36.3971C47.3469 35.8395 47.3807 34.9103 46.8274 34.3147C46.7091 34.1795 46.5655 34.0824 46.4177 34.0063C46.3121 33.9514 46.2022 33.9092 46.0882 33.8838C45.6278 33.774 45.1167 33.8881 44.7449 34.2344C44.1451 34.792 44.1156 35.7255 44.6689 36.3211C45.2223 36.9167 46.1558 36.9505 46.7513 36.3971ZM47.3385 32.2576C47.896 32.4688 48.5508 32.3674 49.0196 31.9324C49.4378 31.5437 49.6025 30.9904 49.5096 30.4666C49.4927 30.3526 49.4589 30.2428 49.4167 30.1372C49.3449 29.9597 49.2393 29.7908 49.1041 29.6429C48.9689 29.4993 48.8127 29.3853 48.6437 29.3008C48.5423 29.2501 48.4283 29.2079 48.3185 29.1783C47.8031 29.0474 47.2329 29.1699 46.8147 29.5585C46.16 30.1667 46.1262 31.1932 46.7302 31.8479C46.8232 31.945 46.9245 32.0295 47.0301 32.0971C47.1273 32.1604 47.2329 32.2154 47.3385 32.2576ZM53.2394 37.2166C53.911 36.5956 53.949 35.5439 53.3239 34.8722C53.1211 34.6526 52.8677 34.5005 52.5974 34.4203C52.4875 34.3823 52.3735 34.3611 52.2594 34.3485C51.8075 34.3105 51.3386 34.4541 50.9796 34.7878C50.3122 35.4129 50.2699 36.4605 50.8951 37.1321C51.516 37.8037 52.5678 37.8417 53.2394 37.2166ZM52.3481 27.5943C52.3017 27.6408 52.2552 27.6872 52.2088 27.7421C52.1285 27.8266 52.0609 27.9196 51.9933 28.0167C51.6765 28.4982 51.5625 29.0769 51.6512 29.6303C51.6681 29.7443 51.6934 29.8584 51.7272 29.9682C51.8286 30.2808 51.9933 30.5722 52.2299 30.8257C52.4664 31.0791 52.7494 31.2692 53.0493 31.3917C53.1549 31.4339 53.2647 31.4719 53.3788 31.4973C54.0969 31.6662 54.8825 31.4846 55.4612 30.9439C56.0272 30.4159 56.268 29.6683 56.1709 28.9544C56.154 28.8404 56.1286 28.7263 56.0948 28.6165C55.9977 28.2913 55.8287 27.9829 55.5795 27.7168C55.1571 27.2606 54.5911 27.0198 54.0166 26.9903C53.9026 26.9818 53.7843 26.9861 53.6702 26.9987C53.1929 27.0494 52.7283 27.2437 52.3481 27.5943ZM61.4213 36.4943C60.2766 35.3496 58.418 35.3496 57.2733 36.5027C56.9396 36.8364 56.7073 37.2335 56.5679 37.6559C55.2289 40.5958 52.8804 40.8154 49.932 39.9537L49.9362 39.9622C49.6955 39.8988 49.4463 39.8608 49.1844 39.8608C47.5666 39.865 46.2529 41.1787 46.2529 42.7965C46.2571 44.4227 47.575 45.7321 49.1928 45.7279C50.5149 45.7279 51.6258 44.8493 51.9891 43.6497L51.9933 43.6539V43.6328C52.0609 43.4174 52.1032 43.1851 52.1158 42.9528C52.7156 40.8281 55.2585 39.7383 57.607 40.9252C58.7559 41.7785 60.3864 41.6856 61.4297 40.6422C62.5744 39.4933 62.5702 37.639 61.4213 36.4943ZM41.087 36.5196C40.7364 36.169 40.3182 35.924 39.8705 35.7889L39.8071 35.772C39.6128 35.7551 39.4269 35.7213 39.2453 35.6748C37.0784 35.1088 35.959 32.5322 37.1587 30.1583C37.5135 29.6725 37.7247 29.0769 37.7247 28.4307C37.7247 26.8086 36.4068 25.4992 34.789 25.4992C33.167 25.5034 31.8575 26.8171 31.8575 28.4391C31.8618 29.7781 32.7615 30.9059 33.9907 31.2523C36.7869 32.5786 37.0277 34.8554 36.2209 37.7066C36.2083 37.753 36.1956 37.7995 36.1829 37.8417C35.9252 38.8217 36.1787 39.9073 36.9432 40.6718C38.0922 41.8165 39.9507 41.8165 41.0954 40.6676C42.2401 39.5229 42.2359 37.6643 41.087 36.5196ZM61.3959 16.16C60.4667 15.2307 59.0727 15.0575 57.966 15.6362C57.776 15.7967 57.5774 15.9361 57.3747 16.0501C55.419 17.1357 52.8128 16.0544 52.0313 13.4819C51.9933 13.3594 51.9595 13.2327 51.93 13.1018L51.9257 13.0807C51.5287 11.9275 50.4347 11.0996 49.1506 11.1038C47.7989 11.1038 46.6626 12.0204 46.3247 13.2665C44.9773 16.0713 42.6583 16.274 39.7522 15.425L39.7606 15.4334C38.7764 15.1673 37.6824 15.4165 36.9137 16.1895C35.769 17.3385 35.7732 19.1928 36.9179 20.3375C38.0668 21.4822 39.9254 21.4822 41.0701 20.3333C41.4249 19.9784 41.6699 19.5518 41.8008 19.1041C41.8135 19.0618 41.8219 19.0238 41.8304 18.9858C41.8473 18.8295 41.8769 18.6775 41.9107 18.5296C42.4513 16.35 45.0068 15.2053 47.3723 16.3669C47.8707 16.7471 48.4832 16.971 49.159 16.971C49.649 16.971 50.1094 16.8485 50.5192 16.633C53.4168 15.5601 55.2036 16.9203 56.6482 19.4251C56.7918 19.7461 56.9903 20.0503 57.2522 20.3121C58.4011 21.4568 60.2597 21.4568 61.4044 20.3079C62.5491 19.159 62.5449 17.3047 61.3959 16.16ZM26.8056 45.9222C26.7972 45.9983 26.7887 46.0743 26.7845 46.1545C26.7845 46.2179 26.7845 46.2813 26.7845 46.3446C26.8225 48.0089 28.1489 49.3732 29.8342 49.4366C31.5788 49.4999 33.0487 48.1356 33.1121 46.3869C33.1797 44.6381 31.8111 43.1724 30.0666 43.1048C28.3981 43.0457 26.9831 44.2875 26.8056 45.9222ZM62.5153 10.2126C62.5068 10.2886 62.4984 10.3689 62.4942 10.4449C62.4942 10.5082 62.4942 10.5716 62.4942 10.635C62.5322 12.295 63.8585 13.6636 65.5439 13.7269C67.2926 13.7903 68.7584 12.4259 68.8259 10.6772C68.8893 8.92848 67.5249 7.46275 65.7762 7.39939C64.1077 7.33603 62.6969 8.57788 62.5153 10.2126ZM65.3116 49.4155C65.3876 49.4239 65.4636 49.4324 65.5439 49.4366C65.6073 49.4408 65.6706 49.4408 65.734 49.4366C67.3982 49.4028 68.7626 48.0722 68.8259 46.3869C68.8893 44.6381 67.5249 43.1724 65.7762 43.1048C64.0317 43.0457 62.5618 44.4058 62.4942 46.1588C62.435 47.8272 63.6769 49.2381 65.3116 49.4155ZM29.6019 13.71C29.678 13.7143 29.754 13.7227 29.8342 13.7269C29.8976 13.7269 29.961 13.7269 30.0243 13.7269C31.6886 13.6889 33.0529 12.3626 33.1163 10.6772C33.1797 8.92848 31.8111 7.46275 30.0666 7.39939C28.3178 7.33603 26.8521 8.69616 26.7845 10.4449C26.7254 12.1134 27.9672 13.5284 29.6019 13.71ZM45.3363 55.6459C45.3828 55.705 45.4335 55.7641 45.4841 55.8233C45.5306 55.8697 45.5729 55.9162 45.6193 55.9542C46.8232 57.1074 48.724 57.1327 49.9616 55.988C51.2372 54.7968 51.3133 52.7947 50.1221 51.5148C48.9352 50.2307 46.9288 50.1589 45.6489 51.3458C44.4281 52.4863 44.3057 54.3618 45.3363 55.6459Z" fill="url(#paint0_linear_77_52)"/>
<path fill-rule="evenodd" clip-rule="evenodd" d="M0 78.3964V66.2017C0 65.9483 0.0929277 65.7286 0.274559 65.547C0.460415 65.3653 0.675839 65.2766 0.929278 65.2766H2.74982C3.01593 65.2766 3.2398 65.3653 3.42144 65.547C3.59884 65.7286 3.68755 65.9483 3.68755 66.2017V78.3795C3.68755 78.6329 3.59884 78.8526 3.40876 79.03C3.22291 79.2074 3.00326 79.3003 2.74982 79.3003H0.929278C0.675839 79.3003 0.460415 79.2116 0.274559 79.0384C0.0929277 78.8695 0 78.654 0 78.3964ZM5.29267 67.1225V66.2017C5.29267 65.9356 5.38137 65.7159 5.55455 65.5385C5.73196 65.3611 5.95161 65.2766 6.22194 65.2766H18.632C18.8982 65.2766 19.1178 65.3611 19.2952 65.5385C19.4726 65.7159 19.5613 65.9356 19.5613 66.2017V67.1225C19.5613 67.3929 19.4726 67.6125 19.2952 67.7815C19.1178 67.9547 18.8982 68.0434 18.632 68.0434H14.2687V78.3964C14.2687 78.654 14.1799 78.8695 14.0025 79.0384C13.8209 79.2116 13.6055 79.3003 13.352 79.3003H11.5019C11.2485 79.3003 11.0289 79.2116 10.8514 79.0384C10.6698 78.8695 10.5853 78.654 10.5853 78.3964V68.0434H6.22194C5.95161 68.0434 5.73196 67.9547 5.55455 67.7815C5.38137 67.6125 5.29267 67.3929 5.29267 67.1225ZM28.1698 78.3795V66.2017C28.1698 65.9483 28.2543 65.7286 28.4317 65.547C28.6091 65.3653 28.8245 65.2766 29.078 65.2766H36.5418C40.4828 65.2766 42.4554 67.0887 42.4554 70.7256C42.4554 74.3625 40.4828 76.1788 36.5418 76.1788H31.8531V78.3795C31.8531 78.6329 31.7687 78.8526 31.587 79.03C31.4054 79.2074 31.19 79.3003 30.9365 79.3003H29.0949C28.8414 79.3003 28.626 79.2074 28.4444 79.03C28.2585 78.8526 28.1698 78.6329 28.1698 78.3795ZM31.8531 73.4078H35.4266C36.5207 73.4078 37.3528 73.2262 37.9188 72.8587C38.489 72.487 38.772 71.7816 38.772 70.7256C38.772 69.6738 38.489 68.9642 37.9188 68.5925C37.3528 68.225 36.5207 68.0434 35.4266 68.0434H31.8531V73.4078ZM58.8149 78.8779C58.8149 79.1567 58.6502 79.3003 58.3207 79.3003H55.9722C55.7272 79.3003 55.4526 79.2074 55.1527 79.03C54.857 78.8526 54.6289 78.6329 54.4726 78.3795L52.8126 75.7775C52.1283 74.7088 51.3004 74.1724 50.3289 74.1724H47.9423V78.3795C47.9423 78.6329 47.8536 78.8526 47.672 79.03C47.4946 79.2074 47.2749 79.3003 47.0215 79.3003H45.1841C44.9306 79.3003 44.711 79.2074 44.5294 79.03C44.3435 78.8526 44.2548 78.6329 44.2548 78.3795V66.2017C44.2548 65.9483 44.3435 65.7286 44.5209 65.547C44.6941 65.3653 44.9095 65.2766 45.163 65.2766H53.2308C54.7261 65.2766 55.9468 65.6737 56.9057 66.4763C57.8603 67.2788 58.3376 68.3644 58.3376 69.7245C58.3376 71.6211 57.1084 72.8122 54.65 73.2938C55.0429 73.4374 55.4061 73.6824 55.7356 74.0288C56.0693 74.3793 56.4495 74.8904 56.8803 75.5536L58.6586 78.3795C58.7642 78.5611 58.8149 78.7258 58.8149 78.8779ZM47.9423 71.4057H52.1114C52.783 71.4057 53.3702 71.2747 53.8813 71.0044C54.3966 70.7383 54.65 70.3116 54.65 69.7245C54.65 69.1374 54.3966 68.7107 53.8813 68.4404C53.3702 68.1743 52.783 68.0434 52.1114 68.0434H47.9423V71.4057ZM73.3835 77.8472C72.0529 79.0173 70.0972 79.6002 67.5206 79.6002C64.9397 79.6002 62.984 79.0173 61.645 77.8472C60.3102 76.673 59.6428 74.8229 59.6428 72.2842C59.6428 69.7499 60.3102 67.8997 61.645 66.7297C62.984 65.5639 64.9397 64.981 67.5206 64.981C70.0972 64.981 72.0529 65.5639 73.3835 66.7297C74.7182 67.8997 75.3856 69.7499 75.3856 72.2842C75.3856 74.8229 74.7182 76.673 73.3835 77.8472ZM70.7097 68.791C70.0507 68.0138 68.9863 67.621 67.5206 67.621C66.0464 67.621 64.9819 68.0138 64.323 68.791C63.6556 69.5767 63.3261 70.7425 63.3261 72.2927C63.3261 73.8387 63.6556 75.0003 64.323 75.7817C64.9819 76.5589 66.0464 76.9518 67.5206 76.9518C68.9863 76.9518 70.0507 76.5589 70.7097 75.7817C71.3686 75.0003 71.6981 73.8387 71.6981 72.2927C71.6981 70.7425 71.3686 69.5767 70.7097 68.791ZM77.3878 78.3583V66.2228C77.3878 65.9567 77.4765 65.7286 77.6539 65.547C77.8313 65.3653 78.0425 65.2766 78.296 65.2766H82.2792C82.5326 65.2766 82.7734 65.3653 83.0057 65.547C83.2296 65.7286 83.3859 65.9483 83.4619 66.2017L86.3511 74.5568L89.2319 66.2017C89.3121 65.9483 89.4642 65.7286 89.6923 65.547C89.9204 65.3653 90.1612 65.2766 90.4146 65.2766H94.3978C94.6513 65.2766 94.8667 65.3653 95.0399 65.547C95.2088 65.7286 95.2975 65.9567 95.2975 66.2228V78.3583C95.2975 78.6287 95.2046 78.8526 95.0272 79.03C94.8498 79.2074 94.6302 79.3003 94.3767 79.3003H92.6153C92.3619 79.3003 92.1422 79.2074 91.969 79.03C91.7874 78.8526 91.6987 78.6287 91.6987 78.3583V68.8037L88.2435 78.4175C88.1548 78.6625 87.9943 78.8695 87.7662 79.0384C87.5381 79.2116 87.2973 79.3003 87.0439 79.3003H85.6457C85.3881 79.3003 85.1515 79.2116 84.9234 79.0384C84.6995 78.8695 84.539 78.6625 84.4419 78.4175L80.9993 68.8037V78.3583C80.9993 78.6287 80.9064 78.8526 80.729 79.03C80.5516 79.2074 80.3319 79.3003 80.0785 79.3003H78.3171C78.0637 79.3003 77.8482 79.2074 77.6624 79.03C77.4807 78.8526 77.3878 78.6287 77.3878 78.3583Z" fill="#424770"/>
<path fill-rule="evenodd" clip-rule="evenodd" d="M0 71.6042V78.3964C0 78.6541 0.0929277 78.8695 0.274559 79.0384C0.460415 79.2116 0.675839 79.3003 0.929278 79.3003H2.74982C3.00326 79.3003 3.22291 79.2074 3.40876 79.03C3.59884 78.8526 3.68755 78.6329 3.68755 78.3795V70.3032C2.47526 70.6792 1.24608 71.1058 0 71.6042Z" fill="#0F468A"/>
<path fill-rule="evenodd" clip-rule="evenodd" d="M10.5854 68.7445V78.3963C10.5854 78.654 10.6699 78.8694 10.8516 79.0384C11.029 79.2116 11.2486 79.3003 11.5021 79.3003H13.3522C13.6056 79.3003 13.821 79.2116 14.0027 79.0384C14.1801 78.8694 14.2688 78.654 14.2688 78.3963V68.3728C13.0565 68.4446 11.8273 68.5671 10.5854 68.7445Z" fill="#0F468A"/>
<path fill-rule="evenodd" clip-rule="evenodd" d="M28.1699 69.4414V78.3794C28.1699 78.6328 28.2586 78.8525 28.4445 79.0299C28.6261 79.2073 28.8415 79.3002 29.095 79.3002H30.9366C31.1901 79.3002 31.4055 79.2073 31.5871 79.0299C31.7688 78.8525 31.8532 78.6328 31.8532 78.3794V76.1787H36.5419C39.5916 76.1787 41.4628 75.0889 42.1556 72.9093C40.9644 72.5925 39.7817 72.2673 38.5947 71.9462C38.4553 72.3517 38.2315 72.6559 37.9189 72.8586C37.3529 73.2261 36.5208 73.4077 35.4267 73.4077H31.8532V70.2271C30.6283 69.9441 29.4033 69.6779 28.1699 69.4414Z" fill="#0F468A"/>
<path fill-rule="evenodd" clip-rule="evenodd" d="M58.815 78.8779V78.8695C58.815 78.7216 58.7643 78.5569 58.6587 78.3795L57.2901 76.2041C55.6977 75.9929 54.1221 75.731 52.5677 75.4227C52.648 75.5325 52.7324 75.6508 52.8127 75.7775L54.4727 78.3795C54.629 78.6329 54.8571 78.8526 55.1528 79.03C55.4527 79.2074 55.7272 79.3003 55.9722 79.3003H58.3208C58.6503 79.3003 58.815 79.1567 58.815 78.8779ZM47.9424 74.4047C46.7048 74.109 45.4798 73.7964 44.2549 73.4712V78.3795C44.2549 78.6329 44.3436 78.8526 44.5294 79.03C44.7111 79.2074 44.9307 79.3003 45.1842 79.3003H47.0216C47.275 79.3003 47.4947 79.2074 47.6721 79.03C47.8537 78.8526 47.9424 78.6329 47.9424 78.3795V74.4047Z" fill="#0F468A"/>
<path fill-rule="evenodd" clip-rule="evenodd" d="M74.8406 75.6929C73.1552 76.0435 71.4994 76.2927 69.869 76.4574C69.2565 76.7869 68.4751 76.9516 67.5204 76.9516C66.8404 76.9516 66.2448 76.8671 65.7421 76.7024C63.9934 76.7362 62.2785 76.6813 60.5889 76.5503C60.8761 77.0488 61.2267 77.4796 61.6449 77.8471C62.9839 79.0172 64.9396 79.6001 67.5204 79.6001C70.0971 79.6001 72.0528 79.0172 73.3833 77.8471C74.0212 77.2853 74.5069 76.5672 74.8406 75.6929Z" fill="#0F468A"/>
<path fill-rule="evenodd" clip-rule="evenodd" d="M78.317 79.3003H80.0784C80.3318 79.3003 80.5515 79.2073 80.7289 79.0299C80.9063 78.8525 80.9992 78.6287 80.9992 78.3583V74.0245C79.7785 74.4385 78.5746 74.7975 77.3877 75.1058V78.3583C77.3877 78.6287 77.4806 78.8525 77.6623 79.0299C77.8481 79.2073 78.0635 79.3003 78.317 79.3003ZM85.6456 79.3003H87.0437C87.2972 79.3003 87.538 79.2116 87.766 79.0384C87.9941 78.8694 88.1547 78.6624 88.2434 78.4175L91.5212 69.2978C90.1357 70.0708 88.7756 70.772 87.4366 71.4056L86.351 74.5567L85.5569 72.2631C84.5812 72.6855 83.6139 73.0825 82.6592 73.4374L84.4418 78.4175C84.5389 78.6624 84.6994 78.8694 84.9233 79.0384C85.1514 79.2116 85.3879 79.3003 85.6456 79.3003ZM92.6152 79.3003H94.3766C94.63 79.3003 94.8497 79.2073 95.0271 79.0299C95.2045 78.8525 95.2974 78.6287 95.2974 78.3583V67.0422C94.0809 67.811 92.8771 68.5333 91.6986 69.2007V78.3583C91.6986 78.6287 91.7873 78.8525 91.9689 79.0299C92.1421 79.2073 92.3617 79.3003 92.6152 79.3003Z" fill="#0F468A"/>
<defs>
<linearGradient id="paint0_linear_77_52" x1="46.2952" y1="2.95575" x2="46.2952" y2="59.3419" gradientUnits="userSpaceOnUse">
<stop stop-color="#1B5C9F"/>
<stop offset="1" stop-color="#0F62AC"/>
</linearGradient>
</defs>
</svg>
