<svg width="188" height="39" viewBox="0 0 188 39" fill="none" xmlns="http://www.w3.org/2000/svg">
<path d="M52.1707 20.3621L62.3825 20.3607V21.9248H52.7526L50.7396 24.8522C50.8906 25.1057 50.964 25.3911 50.9626 25.6751C50.9598 26.0699 50.8116 26.462 50.5234 26.764L50.4348 26.8513L50.3655 26.9081C50.0413 27.1672 49.6423 27.2822 49.253 27.2544C48.8665 27.2254 48.4883 27.0563 48.2029 26.7488C47.9036 26.4274 47.7637 26.0145 47.779 25.6072C47.7942 25.1985 47.9646 24.7967 48.286 24.4975L48.2874 24.4947C48.48 24.3174 48.7058 24.1969 48.9427 24.1304C49.0854 24.0916 49.2322 24.0722 49.3791 24.0736L51.931 20.3621H52.1707ZM61.9281 18.2562L51.931 18.2549L49.3791 14.5434C49.2322 14.5447 49.0854 14.5253 48.9427 14.4852C48.7058 14.4201 48.48 14.2981 48.2874 14.1208L48.286 14.1194C47.9646 13.8202 47.7942 13.4184 47.779 13.0097C47.7637 12.6024 47.9036 12.1896 48.2029 11.8681C48.4883 11.5606 48.8665 11.3916 49.253 11.3625C49.6423 11.3348 50.0413 11.4484 50.3655 11.7088L50.4348 11.7656L50.5234 11.8529C50.8116 12.1549 50.9598 12.547 50.9626 12.9418C50.964 13.2258 50.8906 13.5112 50.7396 13.7634L52.7526 16.6921H62.3825V18.2562H61.9281Z" fill="white"/>
<path d="M29.5261 3.49598C29.5579 3.53754 29.5912 3.57771 29.6272 3.61512C29.6577 3.64837 29.6882 3.67746 29.7187 3.70656C30.5347 4.48793 31.8286 4.50732 32.6682 3.72734C33.5368 2.91826 33.5881 1.56057 32.779 0.68776C31.9699 -0.183659 30.6095 -0.233534 29.738 0.575542C28.9082 1.3486 28.8265 2.62456 29.5261 3.49598Z" fill="white"/>
<path d="M29.5261 37.8084C29.5579 37.8486 29.5912 37.8887 29.6272 37.9289C29.6577 37.9594 29.6882 37.9913 29.7187 38.019C30.5347 38.8017 31.8286 38.8197 32.6682 38.0398C33.5368 37.2321 33.5881 35.8716 32.779 35.0016C31.9699 34.1301 30.6095 34.0803 29.738 34.888C28.9082 35.6624 28.8265 36.937 29.5261 37.8084Z" fill="white"/>
<path d="M18.8362 9.31469C18.8888 9.32023 18.9415 9.32577 18.9941 9.32716C19.0371 9.32854 19.0814 9.32854 19.1243 9.32716C20.2534 9.30222 21.1817 8.40032 21.2232 7.25598C21.2662 6.06868 20.3393 5.06981 19.1521 5.02686C17.9661 4.9853 16.9687 5.91075 16.9243 7.09665C16.8828 8.23269 17.7265 9.19277 18.8362 9.31469Z" fill="white"/>
<path d="M43.1001 33.5773C43.1513 33.5828 43.204 33.587 43.2566 33.5898C43.301 33.5912 43.3425 33.5912 43.3855 33.5898C44.516 33.5648 45.4442 32.6629 45.4858 31.5186C45.5301 30.3313 44.6019 29.3352 43.416 29.2881C42.2287 29.2465 41.2298 30.172 41.1855 31.362C41.1453 32.4953 41.989 33.4554 43.1001 33.5773Z" fill="white"/>
<path d="M41.199 6.93875C41.192 6.99139 41.1879 7.04542 41.1851 7.09668C41.1837 7.13963 41.1837 7.18397 41.1851 7.22553C41.2114 8.35463 42.112 9.28424 43.2563 9.32719C44.4436 9.37013 45.4411 8.4433 45.4854 7.25601C45.5298 6.06871 44.6015 5.06984 43.4156 5.02689C42.2796 4.98671 41.3209 5.83042 41.199 6.93875Z" fill="white"/>
<path d="M16.935 31.2028C16.9308 31.254 16.9253 31.3067 16.9239 31.3593C16.9225 31.4023 16.9225 31.4466 16.9239 31.4896C16.9488 32.62 17.8493 33.5455 18.9937 33.5898C20.181 33.6328 21.1785 32.7059 21.2214 31.5187C21.2657 30.3314 20.3389 29.3339 19.1516 29.2882C18.0184 29.2494 17.0583 30.0931 16.935 31.2028Z" fill="white"/>
<path d="M40.4395 10.98C39.8077 10.3496 38.8601 10.2319 38.1078 10.6239C37.979 10.7348 37.8446 10.8276 37.7061 10.9066C36.3775 11.6436 34.6055 10.9107 34.0763 9.16096C34.0514 9.07784 34.0278 8.99333 34.007 8.90327L34.0029 8.88942C33.7327 8.10667 32.9915 7.54281 32.1173 7.54419C31.1988 7.54696 30.4285 8.16901 30.1985 9.01411C29.2828 10.9204 27.7062 11.0576 25.7334 10.4799L25.7375 10.4868C25.0698 10.3053 24.3272 10.4771 23.8035 11.0008C23.0263 11.7808 23.0291 13.0415 23.8077 13.8201C24.5877 14.5987 25.8498 14.5959 26.627 13.8173C26.868 13.5749 27.0357 13.2853 27.1257 12.9805C27.1326 12.9528 27.1382 12.9265 27.1451 12.9002C27.1562 12.7949 27.1756 12.691 27.2005 12.5912C27.5663 11.1102 29.3022 10.333 30.9106 11.1213C31.2473 11.379 31.6657 11.5328 32.1229 11.5328C32.4568 11.5314 32.7712 11.4483 33.0483 11.3014C35.017 10.5727 36.2306 11.4968 37.2115 13.1994C37.3084 13.4169 37.4442 13.6233 37.6229 13.8035C38.4043 14.5793 39.6664 14.5793 40.4436 13.7993C41.2208 13.0193 41.2194 11.7572 40.4395 10.98Z" fill="white"/>
<path d="M26.6409 24.8146C26.4012 24.5749 26.1158 24.4101 25.8138 24.3186L25.7694 24.3062C25.6378 24.2923 25.5104 24.2701 25.3898 24.2397C23.9158 23.8545 23.1552 22.1034 23.9712 20.4921C24.2123 20.1624 24.3563 19.7579 24.355 19.3187C24.355 18.2159 23.46 17.3265 22.36 17.3279C21.2586 17.3293 20.3678 18.2215 20.3691 19.3243C20.3705 20.2331 20.9829 21.0006 21.8169 21.2361C23.7191 22.1352 23.8825 23.6827 23.3339 25.6209C23.3256 25.6514 23.3173 25.6819 23.309 25.7137V25.7124C23.1316 26.3773 23.3034 27.1158 23.8257 27.6353C24.6043 28.4139 25.8664 28.4125 26.6436 27.6325C27.4222 26.8539 27.4209 25.5904 26.6409 24.8146Z" fill="white"/>
<path d="M40.4564 24.7953C39.6778 24.0181 38.4157 24.0194 37.6385 24.8022C37.4099 25.0294 37.252 25.2996 37.1578 25.5863C36.2503 27.5841 34.653 27.7323 32.6497 27.1463L32.6524 27.1518C32.489 27.1103 32.3185 27.0853 32.1426 27.0853C31.0412 27.0867 30.1504 27.9803 30.1504 29.0789C30.1532 30.1831 31.0467 31.0725 32.1468 31.0712C33.0459 31.0712 33.7995 30.474 34.0475 29.658L34.0489 29.6622L34.0517 29.647C34.096 29.5001 34.1251 29.3436 34.1334 29.1856C34.5407 27.7393 36.2697 27.0008 37.8643 27.8071C38.6443 28.389 39.7526 28.3253 40.4606 27.616C41.2378 26.836 41.2364 25.5739 40.4564 24.7953Z" fill="white"/>
<path d="M34.2919 18.7506C34.26 18.7811 34.2267 18.813 34.1977 18.849C34.1436 18.9072 34.0951 18.9695 34.0508 19.036C33.8361 19.3644 33.7557 19.7578 33.8167 20.1333C33.8291 20.2109 33.8458 20.2871 33.8707 20.3605C33.9372 20.5752 34.0508 20.7733 34.2129 20.9451C34.3708 21.1183 34.5634 21.2471 34.7671 21.3289C34.8405 21.3594 34.9153 21.3829 34.9915 21.4009C35.4792 21.5159 36.0125 21.3926 36.4074 21.0269C36.7925 20.668 36.9546 20.1596 36.8881 19.6733C36.8784 19.5957 36.8604 19.5195 36.8382 19.4433C36.7717 19.2217 36.6554 19.0125 36.4877 18.831C36.2009 18.5221 35.8172 18.3586 35.4251 18.3392C35.3462 18.3336 35.2686 18.335 35.1896 18.3447C34.8654 18.378 34.5495 18.5124 34.2919 18.7506Z" fill="white"/>
<path d="M34.8949 25.2883C35.3507 24.8644 35.377 24.1509 34.953 23.6937C34.8145 23.5455 34.6441 23.4416 34.4598 23.3862C34.3864 23.3626 34.3088 23.346 34.2299 23.3391C33.9223 23.3128 33.605 23.4084 33.3612 23.6383C32.9068 24.0609 32.8791 24.773 33.303 25.2302C33.7256 25.686 34.4404 25.7123 34.8949 25.2883Z" fill="white"/>
<path d="M30.8858 21.9176C31.2654 22.0617 31.7115 21.9924 32.0288 21.696C32.3128 21.4327 32.425 21.0559 32.3627 20.7012C32.3502 20.6237 32.328 20.5475 32.2976 20.4754C32.2491 20.3563 32.1784 20.2427 32.0856 20.1415C31.9942 20.0446 31.8889 19.9656 31.7753 19.9088C31.7032 19.8741 31.6284 19.8464 31.5536 19.8257C31.2045 19.737 30.8166 19.8201 30.5326 20.0847C30.0865 20.4976 30.0629 21.1944 30.4744 21.6392C30.5367 21.7057 30.6046 21.7625 30.678 21.8096C30.7445 21.8525 30.8152 21.8899 30.8858 21.9176Z" fill="white"/>
<path d="M30.4885 24.7301C30.893 24.3533 30.9166 23.7201 30.5411 23.3142C30.458 23.2242 30.3638 23.1563 30.2599 23.105C30.1892 23.0676 30.1158 23.0385 30.0382 23.0219C29.7237 22.9485 29.3788 23.0261 29.1252 23.263C28.7193 23.6398 28.6958 24.2743 29.0726 24.6788C29.4494 25.082 30.0826 25.1069 30.4885 24.7301Z" fill="white"/>
<path d="M41.1107 19.6043C41.4667 19.2745 41.4889 18.7176 41.1578 18.3615C40.8267 18.0055 40.2684 17.9847 39.9123 18.3144C39.7211 18.4932 39.6283 18.7356 39.6325 18.9808C39.6352 19.0584 39.6463 19.136 39.6685 19.2122C39.7059 19.3383 39.771 19.4574 39.8666 19.5599C40.1977 19.9146 40.756 19.9368 41.1107 19.6043Z" fill="white"/>
<path d="M33.0743 18.7064C33.1173 18.6635 33.1575 18.6206 33.1921 18.5721C33.2406 18.5083 33.2766 18.4391 33.3057 18.367C33.411 18.0983 33.3916 17.7921 33.2406 17.5399C33.206 17.4845 33.1672 17.4333 33.1228 17.3848L33.0924 17.3557C32.8042 17.0703 32.3747 17.0093 32.0242 17.1825C31.9549 17.2144 31.8898 17.2601 31.8289 17.3141L31.8012 17.3363C31.5615 17.5593 31.4659 17.8766 31.5158 18.1786C31.5296 18.2562 31.5532 18.3296 31.585 18.403C31.6252 18.4945 31.6806 18.5818 31.7527 18.658C31.833 18.7425 31.9258 18.8117 32.0242 18.8602C32.0976 18.8935 32.1711 18.9198 32.2486 18.935C32.534 18.9946 32.8444 18.9198 33.0743 18.7064Z" fill="white"/>
<path d="M28.0173 20.5753C28.2666 20.3412 28.3512 19.9976 28.2639 19.6901C28.2431 19.6125 28.2126 19.5404 28.1697 19.4739C28.1406 19.4227 28.1045 19.3742 28.063 19.3299C27.7319 18.9738 27.1749 18.953 26.8175 19.2841C26.4628 19.6139 26.4421 20.1708 26.7732 20.5268C27.1043 20.8829 27.6598 20.9064 28.0173 20.5753Z" fill="white"/>
<path d="M34.9001 16.595C34.9791 16.595 35.0581 16.5839 35.1329 16.5604C35.2409 16.5271 35.3421 16.4703 35.4293 16.3886C35.7438 16.0963 35.7618 15.6072 35.4709 15.2941C35.1786 14.9796 34.6895 14.963 34.3751 15.254C34.0952 15.5144 34.0509 15.9328 34.2531 16.2417C34.2767 16.2778 34.3044 16.3138 34.3349 16.3498C34.3598 16.3734 34.3834 16.3983 34.4083 16.4191C34.551 16.5355 34.7256 16.595 34.9001 16.595Z" fill="white"/>
<path d="M30.9061 16.2625C30.9393 16.2348 30.9712 16.2084 31.0044 16.178C31.0294 16.153 31.0543 16.1295 31.0779 16.1032C31.7179 15.434 31.7332 14.3769 31.0959 13.6884C30.4336 12.9763 29.3184 12.9347 28.6063 13.597C27.8942 14.2606 27.8512 15.3744 28.5149 16.0865C29.148 16.7681 30.1926 16.8333 30.9061 16.2625Z" fill="white"/>
<path d="M45.5689 18.8062C45.5648 18.8408 45.562 18.8754 45.5606 18.9087C45.5592 18.9364 45.5592 18.9641 45.5606 18.9918C45.5772 19.7219 46.1591 20.3232 46.9003 20.3509C47.6678 20.3786 48.312 19.7787 48.3411 19.0112C48.3688 18.2437 47.7703 17.5981 47.0028 17.5704C46.2686 17.544 45.6479 18.0899 45.5689 18.8062Z" fill="white"/>
<path d="M11.8534 20.3621L1.6416 20.3607V21.9248H11.2716L13.2845 24.8522C13.1349 25.1057 13.0601 25.3911 13.0629 25.6751C13.0656 26.0699 13.2125 26.462 13.5021 26.764L13.5893 26.8513L13.6586 26.9081C13.9828 27.1672 14.3818 27.2822 14.7711 27.2544C15.159 27.2254 15.5358 27.0563 15.8212 26.7488C16.1205 26.4274 16.2604 26.0145 16.2465 25.6072C16.2313 25.1985 16.0609 24.7967 15.7395 24.4975L15.7367 24.4947C15.5455 24.3174 15.3197 24.1969 15.0814 24.1304C14.9387 24.0916 14.7919 24.0722 14.645 24.0736L12.0931 20.3621H11.8534ZM2.09601 18.2562L12.0931 18.2549L14.645 14.5434C14.7919 14.5447 14.9387 14.5253 15.0814 14.4852C15.3197 14.4201 15.5455 14.2981 15.7367 14.1208L15.7395 14.1194C16.0609 13.8202 16.2313 13.4184 16.2465 13.0097C16.2604 12.6024 16.1205 12.1896 15.8212 11.8681C15.5358 11.5606 15.159 11.3916 14.7711 11.3625C14.3818 11.3348 13.9828 11.4484 13.6586 11.7088L13.5893 11.7656L13.5021 11.8529C13.2125 12.1549 13.0656 12.547 13.0629 12.9418C13.0601 13.2258 13.1349 13.5112 13.2845 13.7634L11.2716 16.6921H1.6416V18.2562H2.09601Z" fill="white"/>
<path d="M1.10785 22.4663C1.13833 22.4691 1.16881 22.4719 1.19929 22.4732C1.22423 22.4746 1.24916 22.4746 1.2741 22.4732C1.9294 22.4594 2.46555 21.9357 2.49048 21.2735C2.51542 20.5849 1.97789 20.0072 1.29072 19.9823C0.603564 19.9573 0.0258499 20.4935 0.00091263 21.1807C-0.0240247 21.8387 0.465023 22.3943 1.10785 22.4663Z" fill="white"/>
<path d="M1.10785 18.7438C1.13833 18.7465 1.16881 18.7493 1.19929 18.7507C1.22423 18.7507 1.24916 18.7507 1.2741 18.7507C1.9294 18.7368 2.46555 18.2132 2.49048 17.5509C2.51542 16.8624 1.97789 16.2847 1.29072 16.2597C0.603564 16.2348 0.0258499 16.7723 0.00091263 17.4581C-0.0240247 18.1162 0.465023 18.6717 1.10785 18.7438Z" fill="white"/>
<path d="M62.5652 22.4663C62.5943 22.4691 62.6248 22.4719 62.6553 22.4732C62.6816 22.4746 62.7065 22.4746 62.7314 22.4732C63.3854 22.4594 63.9229 21.9357 63.9478 21.2735C63.9714 20.5849 63.4352 20.0072 62.7481 19.9823C62.0595 19.9573 61.4832 20.4935 61.4569 21.1807C61.4333 21.8387 61.921 22.3943 62.5652 22.4663Z" fill="white"/>
<path d="M62.5652 18.7438C62.5943 18.7465 62.6248 18.7493 62.6553 18.7507C62.6816 18.7507 62.7065 18.7507 62.7314 18.7507C63.3854 18.7368 63.9229 18.2132 63.9478 17.5509C63.9714 16.8624 63.4352 16.2847 62.7481 16.2597C62.0595 16.2348 61.4832 16.7723 61.4569 17.4581C61.4333 18.1162 61.921 18.6717 62.5652 18.7438Z" fill="white"/>
<path d="M71.7153 27.8017V12.9404C71.7153 12.6315 71.8248 12.3627 72.0492 12.1438C72.2723 11.9194 72.5369 11.8099 72.8458 11.8099H75.0639C75.388 11.8099 75.661 11.9194 75.8812 12.1438C76.1001 12.3627 76.2068 12.6315 76.2068 12.9404V27.7809C76.2068 28.0898 76.096 28.3544 75.8688 28.5706C75.6416 28.7895 75.3728 28.9003 75.0639 28.9003H72.8458C72.5369 28.9003 72.2723 28.7936 72.0492 28.583C71.8248 28.3752 71.7153 28.1148 71.7153 27.8017Z" fill="white"/>
<path d="M78.1636 14.064V12.9404C78.1636 12.6149 78.2689 12.3475 78.485 12.1314C78.697 11.9152 78.9685 11.8099 79.2941 11.8099H94.4199C94.7455 11.8099 95.0129 11.9152 95.229 12.1314C95.4451 12.3475 95.5504 12.6149 95.5504 12.9404V14.064C95.5504 14.3896 95.4451 14.6569 95.229 14.8648C95.0129 15.0767 94.7455 15.182 94.4199 15.182H89.1027V27.8017C89.1027 28.1148 88.9933 28.3752 88.7772 28.583C88.5569 28.7936 88.2937 28.9003 87.9833 28.9003H85.7307C85.4217 28.9003 85.1571 28.7936 84.9368 28.583C84.7165 28.3752 84.6112 28.1148 84.6112 27.8017V15.182H79.2941C78.9685 15.182 78.697 15.0767 78.485 14.8648C78.2689 14.6569 78.1636 14.3896 78.1636 14.064Z" fill="white"/>
<path d="M106.041 27.7809V12.9404C106.041 12.6315 106.146 12.3627 106.362 12.1438C106.577 11.9194 106.838 11.8099 107.147 11.8099H116.243C121.048 11.8099 123.451 14.0224 123.451 18.453C123.451 22.8835 121.048 25.096 116.243 25.096H110.531V27.7809C110.531 28.0898 110.426 28.3544 110.207 28.5706C109.987 28.7895 109.722 28.9003 109.413 28.9003H107.172C106.863 28.9003 106.598 28.7895 106.374 28.5706C106.15 28.3544 106.041 28.0898 106.041 27.7809ZM110.531 21.7239H114.884C116.218 21.7239 117.232 21.4995 117.924 21.052C118.615 20.6003 118.961 19.7386 118.961 18.453C118.961 17.1715 118.615 16.3056 117.924 15.8539C117.232 15.4064 116.218 15.182 114.884 15.182H110.531V21.7239Z" fill="white"/>
<path d="M143.388 28.3877C143.388 28.7285 143.185 28.9003 142.783 28.9003H139.922C139.621 28.9003 139.288 28.7895 138.926 28.5706C138.564 28.3544 138.287 28.0898 138.096 27.7809L136.071 24.6083C135.237 23.306 134.228 22.6549 133.043 22.6549H130.136V27.7809C130.136 28.0898 130.029 28.3544 129.81 28.5706C129.59 28.7895 129.325 28.9003 129.016 28.9003H126.775C126.466 28.9003 126.201 28.7895 125.978 28.5706C125.753 28.3544 125.644 28.0898 125.644 27.7809V12.9404C125.644 12.6315 125.749 12.3627 125.965 12.1438C126.182 11.9194 126.442 11.8099 126.751 11.8099H136.583C138.405 11.8099 139.894 12.299 141.062 13.2743C142.226 14.251 142.806 15.5727 142.806 17.2324C142.806 19.5433 141.31 20.9952 138.312 21.5812C138.787 21.7558 139.231 22.0578 139.634 22.4803C140.041 22.907 140.505 23.5263 141.029 24.3354L143.197 27.7809C143.327 28.0012 143.388 28.2034 143.388 28.3877ZM130.136 19.2828H135.216C136.033 19.2828 136.754 19.1207 137.376 18.7951C138.003 18.4696 138.312 17.9487 138.312 17.2324C138.312 16.5162 138.003 15.9952 137.376 15.6711C136.754 15.3455 136.033 15.182 135.216 15.182H130.136V19.2828Z" fill="white"/>
<path d="M161.142 27.1296C159.52 28.558 157.136 29.2701 153.995 29.2701C150.85 29.2701 148.467 28.558 146.835 27.1296C145.209 25.7027 144.394 23.4445 144.394 20.3522C144.394 17.2656 145.209 15.0073 146.835 13.5831C148.467 12.1631 150.85 11.4524 153.995 11.4524C157.136 11.4524 159.52 12.1631 161.142 13.5831C162.77 15.0073 163.583 17.2656 163.583 20.3522C163.583 23.4445 162.77 25.7027 161.142 27.1296ZM157.884 16.0977C157.083 15.1459 155.785 14.6693 153.995 14.6693C152.201 14.6693 150.904 15.1459 150.098 16.0977C149.289 17.0536 148.886 18.4736 148.886 20.3605C148.886 22.2489 149.289 23.6647 150.098 24.6165C150.904 25.5641 152.201 26.0393 153.995 26.0393C155.785 26.0393 157.083 25.5641 157.884 24.6165C158.686 23.6647 159.089 22.2489 159.089 20.3605C159.089 18.4736 158.686 17.0536 157.884 16.0977Z" fill="white"/>
<path d="M166.023 27.7559V12.9654C166.023 12.6398 166.128 12.3627 166.344 12.1438C166.56 11.9194 166.821 11.8099 167.13 11.8099H171.983C172.292 11.8099 172.584 11.9194 172.865 12.1438C173.143 12.3627 173.33 12.6315 173.422 12.9404L176.941 23.119L180.456 12.9404C180.55 12.6315 180.737 12.3627 181.017 12.1438C181.294 11.9194 181.587 11.8099 181.897 11.8099H186.749C187.059 11.8099 187.319 11.9194 187.53 12.1438C187.738 12.3627 187.844 12.6398 187.844 12.9654V27.7559C187.844 28.0815 187.734 28.3544 187.519 28.5706C187.299 28.7895 187.034 28.9003 186.725 28.9003H184.578C184.267 28.9003 184.003 28.7895 183.788 28.5706C183.568 28.3544 183.458 28.0815 183.458 27.7559V16.1102L179.252 27.8252C179.143 28.1231 178.947 28.3752 178.666 28.583C178.389 28.7936 178.097 28.9003 177.788 28.9003H176.082C175.769 28.9003 175.481 28.7936 175.204 28.583C174.931 28.3752 174.737 28.1231 174.615 27.8252L170.42 16.1102V27.7559C170.42 28.0815 170.311 28.3544 170.09 28.5706C169.876 28.7895 169.611 28.9003 169.302 28.9003H167.153C166.844 28.9003 166.58 28.7895 166.357 28.5706C166.132 28.3544 166.023 28.0815 166.023 27.7559Z" fill="white"/>
</svg>
