<svg width="23" height="23" viewBox="0 0 23 23" fill="none" xmlns="http://www.w3.org/2000/svg">
<path d="M14.9027 12.4546L12.9764 14.3874C12.1953 15.1713 10.8208 15.1882 10.0228 14.3874L8.09642 12.4546L1.17773 19.3957C1.43527 19.5148 1.71922 19.5859 2.0211 19.5859H20.9781C21.28 19.5859 21.5639 19.5149 21.8213 19.3958L14.9027 12.4546Z" fill="#154C85"/>
<path d="M20.978 3.41406H2.02101C1.71913 3.41406 1.43518 3.48513 1.17773 3.60422L8.57084 11.0219C8.57134 11.0223 8.57192 11.0224 8.57241 11.0229C8.57291 11.0234 8.573 11.0241 8.573 11.0241L10.9769 13.436C11.2322 13.6913 11.7669 13.6913 12.0222 13.436L14.4256 11.0245C14.4256 11.0245 14.4262 11.0234 14.4267 11.0229C14.4267 11.0229 14.4278 11.0223 14.4283 11.0219L21.8212 3.60417C21.5638 3.48504 21.2799 3.41406 20.978 3.41406Z" fill="#154C85"/>
<path d="M0.214996 4.54663C0.0817578 4.81607 0 5.11516 0 5.43554V17.5644C0 17.8848 0.081668 18.1839 0.214951 18.4534L7.14563 11.5002L0.214996 4.54663Z" fill="#154C85"/>
<path d="M22.7841 4.54663L15.8535 11.5003L22.7841 18.4536C22.9173 18.1841 22.9991 17.885 22.9991 17.5645V5.43564C22.9991 5.11516 22.9173 4.81607 22.7841 4.54663Z" fill="#154C85"/>
</svg>
