<svg width="82" height="74" viewBox="0 0 82 74" fill="none" xmlns="http://www.w3.org/2000/svg">
<rect width="82" height="74" fill="#FAFAFA"/>
<path d="M27.3424 15.438C26.1602 15.438 25.1889 16.4093 25.1889 17.5914V45.6199H56.8111V22.6227H51.7827C50.6005 22.6227 49.6236 21.6513 49.6236 20.4692V15.438H27.3424ZM51.0611 15.8535V20.4692C51.0611 20.8798 51.372 21.1852 51.7827 21.1852H56.3886L51.0611 15.8535ZM29.4986 21.1852H33.0966C33.4935 21.1866 33.8139 21.5098 33.8125 21.9067V25.4991C33.8139 25.896 33.4935 26.2191 33.0966 26.2207H29.4986C29.1017 26.2192 28.7812 25.896 28.7827 25.4991V21.9067C28.7812 21.5098 29.1017 21.1866 29.4986 21.1852ZM36.6889 21.1852H46.7472C47.727 21.1635 47.727 22.6444 46.7472 22.6227H36.6889C35.7091 22.6444 35.7091 21.1635 36.6889 21.1852ZM21.5909 22.6241C20.4088 22.6241 19.4375 23.5954 19.4375 24.7775V50.6539C19.4375 51.836 20.4088 52.8088 21.5909 52.8088H60.4035C61.5856 52.8088 62.5625 51.836 62.5625 50.6539V24.7775C62.5625 23.5954 61.5856 22.6241 60.4035 22.6241H58.2486V25.4949H58.9646C59.0594 25.4945 59.1534 25.513 59.2411 25.5491C59.3288 25.5852 59.4085 25.6384 59.4756 25.7054C59.5427 25.7725 59.5958 25.8522 59.6319 25.9399C59.6681 26.0276 59.6865 26.1216 59.6861 26.2165V46.34C59.6859 46.4345 59.6671 46.528 59.6307 46.6153C59.5943 46.7025 59.5411 46.7817 59.4741 46.8483C59.4071 46.9149 59.3276 46.9677 59.2401 47.0036C59.1527 47.0394 59.0591 47.0577 58.9646 47.0574H23.0299C22.8397 47.057 22.6575 46.9813 22.523 46.8468C22.3886 46.7124 22.3129 46.5302 22.3125 46.34V26.2165C22.3121 26.122 22.3304 26.0283 22.3663 25.9409C22.4022 25.8535 22.4549 25.774 22.5215 25.7069C22.5882 25.6399 22.6674 25.5866 22.7546 25.5503C22.8418 25.5139 22.9353 25.4951 23.0299 25.4949H23.7514V22.6241H21.5909ZM36.6889 24.7775H46.7486C47.7088 24.7783 47.7088 26.2172 46.7486 26.2165H36.6889C35.7287 26.2157 35.7287 24.7768 36.6889 24.7775ZM49.6264 24.7775H52.4986C53.4588 24.7783 53.4588 26.2172 52.4986 26.2165H49.6264C48.6662 26.2157 48.6662 24.7768 49.6264 24.7775ZM36.6889 29.09H52.4986C53.4579 29.09 53.4579 30.5289 52.4986 30.5289H36.6889C35.7296 30.5289 35.7296 29.09 36.6889 29.09ZM33.8518 29.7948C34.3997 29.8192 34.8483 30.5126 34.3221 31.0385L31.4457 33.9135C31.1648 34.195 30.7088 34.195 30.4279 33.9135L28.989 32.476C28.3096 31.7965 29.3287 30.7774 30.0082 31.4569L30.9361 32.3862L33.3029 30.025C33.4751 29.8533 33.6692 29.7867 33.8518 29.7948V29.7948ZM36.6889 32.6866H46.7486C47.7088 32.6873 47.7088 34.1262 46.7486 34.1255H36.6889C35.7287 34.1247 35.7287 32.6858 36.6889 32.6866V32.6866ZM49.6264 32.6866H52.4986C53.4588 32.6873 53.4588 34.1262 52.4986 34.1255H49.6264C48.6662 34.1247 48.6662 32.6858 49.6264 32.6866ZM36.6889 36.9977H52.4986C53.4588 36.9984 53.4588 38.4373 52.4986 38.4366H36.6889C35.7287 38.4359 35.7287 36.997 36.6889 36.9977ZM29.4635 37.0031H33.0966C33.4913 37.0045 33.8111 37.3243 33.8125 37.719V41.3114C33.8139 41.7083 33.4935 42.0315 33.0966 42.0329H29.4986C29.1017 42.0315 28.7812 41.7083 28.7827 41.3114V37.719C28.7823 37.3495 29.0614 37.0399 29.4635 37.003V37.0031ZM36.6889 40.5939H46.7486C47.7088 40.5947 47.7088 42.0336 46.7486 42.0328H36.6889C35.7287 42.0321 35.7287 40.5932 36.6889 40.5939ZM49.6264 40.5939H52.4986C53.4588 40.5947 53.4588 42.0336 52.4986 42.0328H49.6264C48.6662 42.0321 48.6662 40.5932 49.6264 40.5939ZM39.5625 48.496H42.4375C42.6253 48.5003 42.8039 48.5779 42.9352 48.7122C43.0665 48.8465 43.14 49.0269 43.14 49.2147C43.14 49.4026 43.0665 49.583 42.9352 49.7173C42.8039 49.8516 42.6253 49.9292 42.4375 49.9335H39.5625C39.4667 49.9357 39.3715 49.9187 39.2824 49.8836C39.1933 49.8485 39.1121 49.7959 39.0436 49.7289C38.9751 49.6619 38.9206 49.5819 38.8835 49.4936C38.8463 49.4053 38.8272 49.3105 38.8272 49.2147C38.8272 49.1189 38.8463 49.0241 38.8835 48.9359C38.9206 48.8476 38.9751 48.7675 39.0436 48.7006C39.1121 48.6336 39.1933 48.581 39.2824 48.5459C39.3715 48.5107 39.4667 48.4938 39.5625 48.496V48.496ZM36.1372 54.2474C35.9129 54.7454 35.651 55.2266 35.3707 55.647C34.8483 56.4306 34.4253 56.8985 34.2154 57.1224H32.3385C31.3454 57.1683 31.4136 58.6073 32.3722 58.5613H49.6222C50.5808 58.5613 50.5808 57.1224 49.6222 57.1224H47.7846C47.5747 56.8985 47.1517 56.4306 46.6293 55.647C46.349 55.2265 46.0871 54.7455 45.8628 54.2474H36.1372Z" fill="#1B5C9F"/>
</svg>
