<svg width="82" height="74" viewBox="0 0 82 74" fill="none" xmlns="http://www.w3.org/2000/svg">
<rect width="82" height="74" fill="#FAFAFA"/>
<path d="M49.1562 29.8278V39.0312H52.2188V26.7812C52.2188 25.9355 51.5332 25.25 50.6875 25.25H29.25C28.4043 25.25 27.7188 25.9355 27.7188 26.7812V28.3125H47.6409C48.4778 28.3125 49.1562 28.991 49.1562 29.8278Z" fill="#1B5C9F"/>
<path d="M53.75 40.5625H21.5938C20.7474 40.5625 20.0625 41.2482 20.0625 42.0938V57.4062C20.0625 58.2518 20.7474 58.9375 21.5938 58.9375H53.75V40.5625ZM41.5 51.2812C40.6537 51.2812 39.9688 50.5956 39.9688 49.75H36.9062C36.9062 50.5956 36.2213 51.2812 35.375 51.2812C34.5287 51.2812 33.8438 50.5956 33.8438 49.75V48.2188C33.8438 47.3732 34.5287 46.6875 35.375 46.6875H41.5C42.3463 46.6875 43.0312 47.3732 43.0312 48.2188V49.75C43.0312 50.5956 42.3463 51.2812 41.5 51.2812Z" fill="#1B5C9F"/>
<path d="M58.3438 20.6403V35.3348L61.4062 32.2723V17.5938C61.4062 16.748 60.7207 16.0625 59.875 16.0625H38.4375C37.5918 16.0625 36.9062 16.748 36.9062 17.5938V19.125H56.8284C57.6653 19.125 58.3438 19.8035 58.3438 20.6403V20.6403Z" fill="#1B5C9F"/>
<path d="M55.2812 40.5625V58.9375C55.4826 58.9375 55.6817 58.8963 55.8679 58.8191C56.0553 58.7413 56.2242 58.6291 56.3652 58.4876L62.4888 52.364C62.776 52.0767 62.9375 51.6872 62.9375 51.2812V32.9062L55.2812 40.5625Z" fill="#1B5C9F"/>
<path d="M55.2812 20.6562H33.8438C32.998 20.6562 32.3125 21.3418 32.3125 22.1875V23.7188H52.2347C53.0715 23.7188 53.75 24.3972 53.75 25.2341V39.0312H54.6472L56.8125 36.8659V22.1875C56.8125 21.3418 56.127 20.6562 55.2812 20.6562Z" fill="#1B5C9F"/>
<path d="M46.0938 29.8438H24.6562C23.8107 29.8438 23.125 30.5294 23.125 31.375V39.0312H47.625V31.375C47.625 30.5294 46.9401 29.8438 46.0938 29.8438ZM41.5 37.5H29.25C28.4037 37.5 27.7188 36.8143 27.7188 35.9688C27.7188 35.1232 28.4037 34.4375 29.25 34.4375H41.5C42.3463 34.4375 43.0312 35.1232 43.0312 35.9688C43.0312 36.8143 42.3463 37.5 41.5 37.5Z" fill="#1B5C9F"/>
</svg>
