<svg width="82" height="74" viewBox="0 0 82 74" fill="none" xmlns="http://www.w3.org/2000/svg">
<rect width="82" height="74" fill="#FAFAFA"/>
<path d="M27.9757 24.6533H28.6768C29.7422 24.6533 30.6057 23.7894 30.6057 22.7243V17.4011V15.41C30.6057 14.345 29.7422 13.4812 28.6768 13.4812H27.9757C26.9105 13.4812 26.0469 14.345 26.0469 15.41V17.4012V22.7243C26.0469 23.7894 26.9105 24.6533 27.9757 24.6533Z" fill="#1B5C9F"/>
<path d="M52.7142 24.6055H53.4153C54.4805 24.6055 55.3441 23.7417 55.3441 22.6765V16.8959V15.3621C55.3441 14.2972 54.4805 13.4334 53.4153 13.4334H52.7142C51.6488 13.4334 50.7852 14.2972 50.7852 15.3621V16.8959V22.6764C50.7854 23.7417 51.649 24.6055 52.7142 24.6055Z" fill="#1B5C9F"/>
<path d="M61.8642 17.4012H56.9136V23.1816C56.9136 25.1099 55.3449 26.1734 53.4168 26.1734H52.7158C50.7876 26.1734 49.2189 24.6047 49.2189 22.6764V17.4012H32.1719V22.7242C32.1719 24.6525 30.6033 26.2212 28.675 26.2212H27.974C26.0458 26.2212 24.4771 24.6525 24.4771 22.7242V17.4012H19.1359C17.4068 17.4012 16 18.8079 16 20.5372V58.4306C16 60.1599 17.4068 61.5666 19.1359 61.5666H61.8642C63.5933 61.5666 65 60.1599 65 58.4306V20.5372C65.0002 18.8081 63.5933 17.4012 61.8642 17.4012ZM61.8642 58.4306H19.136L19.1359 29.8145H61.8648L61.8664 58.4305C61.8662 58.4305 61.8656 58.4306 61.8642 58.4306Z" fill="#1B5C9F"/>
<path d="M42.1189 39.4132H47.7497C47.9729 39.4132 48.1538 39.2322 48.1538 39.009V34.1333C48.1538 33.9101 47.9729 33.7291 47.7497 33.7291H42.1189C41.8957 33.7291 41.7148 33.9101 41.7148 34.1333V39.009C41.7148 39.2322 41.8957 39.4132 42.1189 39.4132Z" fill="#1B5C9F"/>
<path d="M51.3104 39.4131H56.9411C57.1643 39.4131 57.3453 39.2322 57.3453 39.009V34.1332C57.3453 33.91 57.1643 33.7291 56.9411 33.7291H51.3104C51.0872 33.7291 50.9062 33.91 50.9062 34.1332V39.009C50.9062 39.2322 51.0872 39.4131 51.3104 39.4131Z" fill="#1B5C9F"/>
<path d="M23.7401 47.3954H29.3707C29.5939 47.3954 29.7749 47.2144 29.7749 46.9912V42.1154C29.7749 41.8922 29.5939 41.7113 29.3707 41.7113H23.7401C23.5169 41.7113 23.3359 41.8922 23.3359 42.1154V46.9912C23.3359 47.2144 23.5169 47.3954 23.7401 47.3954Z" fill="#1B5C9F"/>
<path d="M32.9276 47.3954H38.5582C38.7814 47.3954 38.9624 47.2144 38.9624 46.9912V42.1154C38.9624 41.8922 38.7814 41.7113 38.5582 41.7113H32.9276C32.7044 41.7113 32.5234 41.8922 32.5234 42.1154V46.9912C32.5234 47.2144 32.7044 47.3954 32.9276 47.3954Z" fill="#1B5C9F"/>
<path d="M42.119 47.3954H47.7497C47.9729 47.3954 48.1538 47.2145 48.1538 46.9913V42.1154C48.1538 41.8922 47.9729 41.7113 47.7497 41.7113H42.119C41.8958 41.7113 41.7149 41.8922 41.7149 42.1154V46.9913C41.7149 47.2145 41.8958 47.3954 42.119 47.3954Z" fill="#1B5C9F"/>
<path d="M51.3104 47.3954H56.9411C57.1643 47.3954 57.3453 47.2144 57.3453 46.9912V42.1154C57.3453 41.8922 57.1643 41.7113 56.9411 41.7113H51.3104C51.0872 41.7113 50.9062 41.8922 50.9062 42.1154V46.9912C50.9062 47.2144 51.0872 47.3954 51.3104 47.3954Z" fill="#1B5C9F"/>
<path d="M29.3706 49.6935H23.7401C23.5169 49.6935 23.3359 49.8745 23.3359 50.0977V54.9735C23.3359 55.1967 23.5169 55.3777 23.7401 55.3777H29.3707C29.5939 55.3777 29.7749 55.1967 29.7749 54.9735V50.0977C29.7748 49.8745 29.5938 49.6935 29.3706 49.6935Z" fill="#1B5C9F"/>
<path d="M38.5621 49.6935H32.9315C32.7083 49.6935 32.5273 49.8745 32.5273 50.0977V54.9735C32.5273 55.1967 32.7083 55.3777 32.9315 55.3777H38.5621C38.7853 55.3777 38.9663 55.1967 38.9663 54.9735V50.0977C38.9663 49.8745 38.7853 49.6935 38.5621 49.6935Z" fill="#1B5C9F"/>
<path d="M47.7497 49.6935H42.119C41.8958 49.6935 41.7148 49.8745 41.7148 50.0977V54.9735C41.7148 55.1967 41.8958 55.3777 42.119 55.3777H47.7497C47.9729 55.3777 48.1539 55.1967 48.1539 54.9735V50.0977C48.1539 49.8745 47.9729 49.6935 47.7497 49.6935Z" fill="#1B5C9F"/>
<path d="M56.9411 49.6935H51.3104C51.0872 49.6935 50.9062 49.8745 50.9062 50.0977V54.9735C50.9062 55.1967 51.0872 55.3777 51.3104 55.3777H56.9411C57.1643 55.3777 57.3453 55.1967 57.3453 54.9735V50.0977C57.3453 49.8745 57.1643 49.6935 56.9411 49.6935Z" fill="#1B5C9F"/>
</svg>
