<svg width="82" height="74" viewBox="0 0 82 74" fill="none" xmlns="http://www.w3.org/2000/svg">
<rect width="82" height="74" fill="#FAFAFA"/>
<path fill-rule="evenodd" clip-rule="evenodd" d="M17.7656 49.7109H31.1641C31.2649 49.7109 31.3648 49.691 31.4579 49.6523C31.551 49.6136 31.6356 49.5568 31.7067 49.4853C31.8503 49.3398 31.9305 49.1433 31.9298 48.9389L31.9085 44.8393C31.9082 44.7418 31.8894 44.6453 31.853 44.5548C31.3841 43.3989 30.3937 42.5862 28.9105 42.1347C28.9024 42.1347 28.8952 42.1302 28.8871 42.1302C27.998 41.8909 27.3424 41.6923 26.8698 41.5522C26.7046 41.502 26.5273 41.5089 26.3666 41.572C26.2058 41.6351 26.0711 41.7507 25.9843 41.8999L24.465 44.5318L22.9453 41.8999C22.8585 41.7506 22.7238 41.635 22.5631 41.5719C22.4024 41.5088 22.225 41.5019 22.0598 41.5522C21.5862 41.6968 20.9297 41.8908 20.0425 42.1302C20.0348 42.1302 20.0272 42.1347 20.0194 42.1347C18.536 42.5862 17.5466 43.3989 17.0774 44.5548C17.0406 44.6452 17.0215 44.7417 17.0211 44.8393L17.0003 48.9389C16.9994 49.04 17.0186 49.1402 17.0567 49.2339C17.0948 49.3275 17.1511 49.4127 17.2223 49.4844C17.2934 49.5562 17.3781 49.6132 17.4714 49.652C17.5647 49.6909 17.6648 49.7109 17.7659 49.7109H17.7656ZM35.4651 28.7336H39.2245L40.8368 31.5281C40.9047 31.6436 41.0017 31.7393 41.118 31.8058C41.2344 31.8724 41.366 31.9073 41.5 31.9073C41.634 31.9073 41.7657 31.8724 41.8821 31.8058C41.9984 31.7393 42.0953 31.6436 42.1633 31.5281L43.7761 28.7336H47.5353C47.9134 28.7328 48.2757 28.5822 48.543 28.3148C48.8103 28.0473 48.9607 27.6849 48.9613 27.3068V17.9294C48.9614 17.742 48.9246 17.5565 48.853 17.3834C48.7814 17.2103 48.6763 17.053 48.5439 16.9206C48.4115 16.7881 48.2542 16.683 48.0812 16.6112C47.9081 16.5395 47.7226 16.5026 47.5353 16.5026H35.4651C35.2778 16.5026 35.0923 16.5395 34.9193 16.6112C34.7462 16.683 34.589 16.7881 34.4566 16.9206C34.3241 17.053 34.2191 17.2103 34.1475 17.3834C34.0759 17.5565 34.0391 17.742 34.0392 17.9294V27.3076C34.0398 27.6857 34.1902 28.0481 34.4575 28.3155C34.7247 28.5829 35.0871 28.7335 35.4651 28.7343V28.7336ZM18.4262 28.7336H22.5327L27.8546 31.8083C27.971 31.8756 28.1031 31.9109 28.2375 31.9109C28.372 31.9109 28.504 31.8754 28.6205 31.8082C28.7369 31.7409 28.8335 31.6441 28.9007 31.5277C28.9678 31.4112 29.0031 31.2791 29.003 31.1446V28.7336H30.496C30.874 28.7328 31.2364 28.5822 31.5036 28.3148C31.7709 28.0473 31.9213 27.6849 31.9219 27.3068V17.9294C31.922 17.742 31.8852 17.5565 31.8136 17.3834C31.742 17.2103 31.637 17.053 31.5045 16.9206C31.3721 16.7881 31.2149 16.683 31.0418 16.6112C30.8688 16.5395 30.6833 16.5026 30.496 16.5026H18.4262C18.2388 16.5026 18.0534 16.5396 17.8803 16.6113C17.7073 16.683 17.5501 16.7881 17.4176 16.9206C17.2852 17.0531 17.1802 17.2104 17.1086 17.3835C17.037 17.5565 17.0002 17.742 17.0003 17.9294V27.3076C17.0007 27.6857 17.1511 28.0482 17.4184 28.3157C17.6857 28.5831 18.0481 28.7337 18.4263 28.7343L18.4262 28.7336ZM52.5041 28.7336H53.9971V31.1453C53.9984 31.2792 54.0345 31.4105 54.102 31.5262C54.1695 31.6418 54.2659 31.7379 54.3819 31.8049C54.4978 31.8719 54.6293 31.9076 54.7632 31.9083C54.8971 31.909 55.0289 31.8748 55.1455 31.809L60.4678 28.7336H64.5765C64.954 28.7325 65.3156 28.5818 65.5822 28.3145C65.8487 28.0472 65.9984 27.6851 65.9984 27.3076V17.9294C65.9988 17.7423 65.9624 17.5569 65.8912 17.3839C65.8199 17.2108 65.7152 17.0536 65.5831 16.9211C65.451 16.7886 65.2941 16.6834 65.1213 16.6116C64.9485 16.5398 64.7632 16.5028 64.5761 16.5027H52.5041C52.3168 16.5027 52.1313 16.5396 51.9583 16.6113C51.7852 16.683 51.628 16.7882 51.4955 16.9206C51.3631 17.0531 51.2581 17.2104 51.1865 17.3835C51.1149 17.5566 51.0781 17.7421 51.0782 17.9295V27.3076C51.0788 27.6857 51.2292 28.0481 51.4965 28.3155C51.7637 28.5829 52.1261 28.7335 52.5041 28.7343V28.7336ZM54.8155 36.8743C54.8151 37.6266 55.0379 38.3622 55.4556 38.988C55.8734 39.6137 56.4673 40.1015 57.1623 40.3896C57.8573 40.6778 58.6222 40.7533 59.3601 40.6067C60.0981 40.4601 60.776 40.098 61.308 39.566C61.8401 39.0341 62.2025 38.3563 62.3494 37.6184C62.4962 36.8805 62.4209 36.1157 62.133 35.4206C61.8451 34.7255 61.3575 34.1314 60.7319 33.7134C60.1063 33.2955 59.3708 33.0725 58.6184 33.0726C57.6105 33.0742 56.6443 33.4752 55.9315 34.1877C55.2187 34.9003 54.8174 35.8664 54.8155 36.8743V36.8743ZM51.8359 49.7109H65.2353C65.336 49.7108 65.4357 49.6908 65.5287 49.6521C65.6217 49.6134 65.7061 49.5567 65.7771 49.4853C65.8488 49.4138 65.9054 49.3285 65.9434 49.2346C65.9814 49.1407 66.0001 49.0402 65.9984 48.9389L65.9803 44.8393C65.9786 44.7416 65.9588 44.6452 65.9216 44.5548C65.4565 43.3989 64.4632 42.5862 62.9823 42.1347C62.9747 42.1336 62.9671 42.1321 62.9597 42.1302C62.0702 41.8909 61.411 41.6923 60.9415 41.5522C60.7764 41.5018 60.5991 41.5087 60.4384 41.5719C60.2778 41.635 60.1432 41.7506 60.0565 41.8999L58.5349 44.5318L57.0152 41.8999C56.9284 41.7506 56.7938 41.635 56.633 41.5719C56.4723 41.5088 56.2949 41.5019 56.1297 41.5522C55.657 41.6923 54.9996 41.8908 54.1124 42.1302C54.1048 42.1302 54.097 42.1347 54.0894 42.1347C52.606 42.5862 51.6165 43.3989 51.1473 44.5548C51.1104 44.6451 51.0913 44.7417 51.0909 44.8393L51.0701 48.9389C51.0692 49.1433 51.1493 49.3397 51.2927 49.4853C51.3639 49.5568 51.4484 49.6135 51.5416 49.6523C51.6347 49.691 51.7346 49.7109 51.8355 49.7109H51.8359ZM37.7801 36.8747C37.7798 37.6269 38.0026 38.3624 38.4203 38.9881C38.8381 39.6137 39.432 40.1014 40.1269 40.3895C40.8219 40.6776 41.5866 40.7531 42.3245 40.6065C43.0624 40.4599 43.7402 40.0978 44.2722 39.5659C44.8042 39.0341 45.1666 38.3564 45.3134 37.6186C45.4603 36.8807 45.385 36.1159 45.0972 35.4209C44.8093 34.7259 44.3218 34.1318 43.6963 33.7139C43.0708 33.2959 42.3354 33.0729 41.5831 33.0729C40.5752 33.0745 39.609 33.4756 38.8962 34.1881C38.1834 34.9007 37.782 35.8668 37.7801 36.8747V36.8747ZM34.801 49.7109H48.1994C48.3003 49.7109 48.4001 49.691 48.4933 49.6523C48.5864 49.6135 48.671 49.5568 48.7421 49.4853C48.8856 49.3397 48.9656 49.1433 48.9647 48.9389L48.9439 44.8393C48.9433 44.7418 48.9245 44.6453 48.8884 44.5548C48.4194 43.3989 47.4287 42.5862 45.9455 42.1347C45.9377 42.1347 45.9301 42.1302 45.9224 42.1302C45.0334 41.8909 44.3778 41.6923 43.9051 41.5522C43.7399 41.5019 43.5626 41.5088 43.4018 41.5719C43.2411 41.635 43.1064 41.7506 43.0197 41.8999L41.4999 44.5318L39.9801 41.8999C39.8935 41.7506 39.7589 41.635 39.5982 41.5719C39.4376 41.5087 39.2603 41.5018 39.0952 41.5522C38.622 41.6923 37.9646 41.8908 37.0775 42.1302C37.0697 42.1302 37.0621 42.1347 37.0544 42.1347C35.571 42.5862 34.5814 43.3989 34.1129 44.5548C34.0757 44.6451 34.0566 44.7417 34.0564 44.8393L34.0352 48.9389C34.0344 49.1433 34.1146 49.3398 34.2582 49.4853C34.3293 49.5568 34.4139 49.6136 34.507 49.6523C34.6001 49.6911 34.7 49.711 34.8009 49.7109H34.801ZM17.7656 58.4972H65.2353C65.3356 58.4974 65.4348 58.4777 65.5275 58.4394C65.6201 58.4011 65.7043 58.3449 65.7752 58.274C65.846 58.2032 65.9022 58.119 65.9405 58.0264C65.9788 57.9337 65.9985 57.8344 65.9984 57.7342V51.797C65.9985 51.6967 65.9788 51.5975 65.9405 51.5048C65.9022 51.4122 65.846 51.328 65.7752 51.2571C65.7043 51.1863 65.6201 51.1301 65.5275 51.0918C65.4348 51.0535 65.3356 51.0338 65.2353 51.0339H17.7656C17.563 51.0338 17.3685 51.114 17.225 51.2571C17.0814 51.4001 17.0005 51.5943 17 51.797V57.7343C17.0005 57.937 17.0814 58.1311 17.225 58.2742C17.3685 58.4173 17.563 58.4975 17.7656 58.4973V58.4972ZM24.5482 33.0729C23.7957 33.0729 23.0601 33.2959 22.4344 33.714C21.8088 34.132 21.3211 34.7262 21.0332 35.4214C20.7453 36.1166 20.67 36.8816 20.8169 37.6196C20.9638 38.3576 21.3263 39.0355 21.8585 39.5674C22.3907 40.0994 23.0688 40.4616 23.8068 40.6081C24.5449 40.7547 25.3099 40.679 26.0049 40.3908C26.7 40.1025 27.294 39.6146 27.7117 38.9887C28.1295 38.3628 28.3522 37.6271 28.3517 36.8747C28.3502 35.8665 27.9489 34.9002 27.2359 34.1875C26.5229 33.4748 25.5563 33.074 24.5482 33.0729V33.0729Z" fill="#1B5C9F"/>
</svg>
