<svg width="322" height="404" viewBox="0 0 322 404" fill="none" xmlns="http://www.w3.org/2000/svg">
<path d="M49.4585 255.57C45.5553 268.513 24.5975 293.671 11.6575 289.772C-1.3018 285.874 -1.35946 254.398 2.5437 241.474C6.44686 228.53 20.1175 221.194 33.0575 225.093C46.0168 228.991 53.3617 242.626 49.4585 255.57Z" fill="url(#paint0_radial_58_608)"/>
<path d="M49.4585 255.57C45.5553 268.513 24.5975 293.671 11.6575 289.772C-1.3018 285.874 -1.35946 254.398 2.5437 241.474C6.44686 228.53 20.1175 221.194 33.0575 225.093C46.0168 228.991 53.3617 242.626 49.4585 255.57Z" fill="url(#paint1_linear_58_608)"/>
<path d="M24.5201 225.246C31.3266 224.632 40.0366 228.664 43.959 234.253C47.8814 239.841 45.5549 244.854 38.7484 245.468C31.9419 246.083 23.2319 242.05 19.3095 236.461C15.3871 230.873 17.7136 225.841 24.5201 225.246Z" fill="#6454ED"/>
<path opacity="0.5" d="M24.5201 225.246C31.3266 224.632 40.0366 228.664 43.959 234.253C47.8814 239.841 45.5549 244.854 38.7484 245.468C31.9419 246.083 23.2319 242.05 19.3095 236.461C15.3871 230.873 17.7136 225.841 24.5201 225.246Z" fill="url(#paint2_radial_58_608)"/>
<path d="M17.4258 231.584C18.6371 230.566 20.3676 229.894 22.6172 229.682C29.4237 229.068 38.1337 233.101 42.0561 238.689C43.2675 240.398 43.8828 242.069 43.9597 243.567C46.4208 241.493 46.6323 237.998 43.9789 234.253C40.0565 228.665 31.3465 224.632 24.54 225.246C19.81 225.669 17.2528 228.204 17.4258 231.584Z" fill="#CDFFFD"/>
<path opacity="0.6" d="M47.363 218.621C46.3055 218.602 45.421 219.447 45.3826 220.503C45.3633 221.559 46.2094 222.442 47.2668 222.481C48.3243 222.5 49.2088 221.655 49.2472 220.599C49.2665 219.523 48.4204 218.659 47.363 218.621Z" fill="#CDFFFD"/>
<path d="M29.1543 205.178C26.4624 205.12 24.232 207.252 24.1744 209.94C24.1167 212.629 26.2509 214.857 28.9428 214.914C31.6346 214.972 33.865 212.84 33.9227 210.152C33.9804 207.482 31.8461 205.255 29.1543 205.178Z" fill="#CDFFFD"/>
<path opacity="0.6" d="M57.0533 194.231C55.5535 194.193 54.3037 195.384 54.2653 196.901C54.2268 198.399 55.4189 199.647 56.9379 199.685C58.4376 199.724 59.6874 198.533 59.7258 197.016C59.7451 195.518 58.553 194.27 57.0533 194.231Z" fill="#CDFFFD"/>
<path d="M46.1326 196.382C45.0943 196.363 44.2483 197.17 44.229 198.207C44.2098 199.244 45.0174 200.089 46.0557 200.108C47.0939 200.127 47.9399 199.321 47.9591 198.284C47.9784 197.266 47.1709 196.421 46.1326 196.382Z" fill="#CDFFFD"/>
<path d="M48.2087 192.196C47.4973 192.177 46.9205 192.734 46.9013 193.444C46.882 194.155 47.4396 194.731 48.151 194.75C48.8625 194.769 49.4393 194.212 49.4585 193.502C49.4585 192.81 48.9009 192.215 48.2087 192.196Z" fill="#CDFFFD"/>
<path opacity="0.6" d="M32.4797 228.108C30.98 228.069 29.7494 229.26 29.7109 230.739C29.6725 232.237 30.8646 233.466 32.3451 233.504C33.8448 233.543 35.0754 232.352 35.1138 230.873C35.1523 229.375 33.9602 228.127 32.4797 228.108Z" fill="#CDFFFD"/>
<path d="M40.6718 227.205C38.4414 227.147 36.5763 228.914 36.5378 231.142C36.4802 233.37 38.2491 235.232 40.4795 235.271C42.7099 235.328 44.5749 233.562 44.6134 231.334C44.6711 229.106 42.9022 227.263 40.6718 227.205Z" fill="#CDFFFD"/>
<path d="M84.1632 210.996C63.7853 210.996 47.2659 194.497 47.2659 174.144C47.2659 153.79 63.7853 137.291 84.1632 137.291C104.541 137.291 121.061 153.79 121.061 174.144C121.061 194.497 104.541 210.996 84.1632 210.996Z" fill="url(#paint3_radial_58_608)"/>
<path d="M84.1632 210.996C63.7853 210.996 47.2659 194.497 47.2659 174.144C47.2659 153.79 63.7853 137.291 84.1632 137.291C104.541 137.291 121.061 153.79 121.061 174.144C121.061 194.497 104.541 210.996 84.1632 210.996Z" fill="url(#paint4_linear_58_608)"/>
<path d="M268.189 241.07C268.189 312.606 225.543 370.603 172.917 370.603C120.292 370.603 77.6454 312.606 77.6454 241.07C77.6454 169.535 120.292 148.084 172.917 148.084C225.543 148.084 268.189 169.516 268.189 241.07Z" fill="url(#paint5_radial_58_608)"/>
<path d="M268.189 241.07C268.189 312.606 225.543 370.603 172.917 370.603C120.292 370.603 77.6454 312.606 77.6454 241.07C77.6454 169.535 120.292 148.084 172.917 148.084C225.543 148.084 268.189 169.516 268.189 241.07Z" fill="url(#paint6_linear_58_608)"/>
<path d="M172.919 224.036C137.005 224.036 107.892 207.253 107.892 186.55C107.892 165.846 137.005 149.063 172.919 149.063C208.832 149.063 237.946 165.846 237.946 186.55C237.946 207.253 208.832 224.036 172.919 224.036Z" fill="#5476ED"/>
<path opacity="0.5" d="M172.919 224.036C137.005 224.036 107.892 207.253 107.892 186.55C107.892 165.846 137.005 149.063 172.919 149.063C208.832 149.063 237.946 165.846 237.946 186.55C237.946 207.253 208.832 224.036 172.919 224.036Z" fill="url(#paint7_radial_58_608)"/>
<path d="M126.926 170.015C152.325 155.381 193.491 155.381 218.871 170.015C229.35 176.064 235.503 183.669 237.33 191.543C239.925 180.366 233.773 168.632 218.871 160.029C193.472 145.395 152.306 145.395 126.926 160.029C112.025 168.613 105.872 180.347 108.468 191.543C110.294 183.669 116.447 176.064 126.926 170.015Z" fill="#CDFFFD"/>
<path d="M97.7379 97.3855C87.0245 91.2074 87.0212 71.1807 97.7305 52.6547C108.44 34.1286 125.806 24.1186 136.52 30.2967C147.233 36.4748 147.236 56.5015 136.527 75.0276C125.818 93.5536 108.451 103.564 97.7379 97.3855Z" fill="#BCBEFF"/>
<path d="M176.687 194.116C123.018 194.116 79.5113 150.662 79.5113 97.058C79.5113 43.4543 123.018 0 176.687 0C230.355 0 273.862 43.4543 273.862 97.058C273.862 150.662 230.355 194.116 176.687 194.116Z" fill="url(#paint8_radial_58_608)"/>
<path d="M176.687 194.116C123.018 194.116 79.5113 150.662 79.5113 97.058C79.5113 43.4543 123.018 0 176.687 0C230.355 0 273.862 43.4543 273.862 97.058C273.862 150.662 230.355 194.116 176.687 194.116Z" fill="url(#paint9_linear_58_608)"/>
<path d="M95.89 131.33C86.8222 109.573 89.6678 87.6959 102.246 82.4664C114.823 77.237 132.371 90.6352 141.438 112.392C150.506 134.149 147.661 156.026 135.083 161.256C122.505 166.485 104.958 153.087 95.89 131.33Z" fill="#5476ED"/>
<path opacity="0.5" d="M146.364 143.033C143.884 162.122 129.463 168.114 114.158 156.418C98.8532 144.723 88.4511 119.777 90.9315 100.688C93.4118 81.5987 107.832 75.607 123.137 87.3023C138.462 98.9977 148.864 123.944 146.364 143.033Z" fill="url(#paint10_radial_58_608)"/>
<path d="M133.733 126.498C132.829 133.431 127.58 135.62 122.023 131.357C116.467 127.113 112.679 118.048 113.583 111.097C114.486 104.164 119.735 101.975 125.292 106.238C130.849 110.501 134.637 119.566 133.733 126.498Z" fill="#CDFFFD"/>
<path d="M121.505 153.634C106.2 141.938 95.798 116.992 98.2783 97.903C99.2974 90.1253 102.297 84.5177 106.527 81.4066C98.5283 82.1556 92.4717 88.9346 90.9335 100.688C88.4531 119.777 98.8552 144.723 114.16 156.418C123.235 163.351 131.984 164.061 138.137 159.529C133.138 159.99 127.389 158.127 121.505 153.634Z" fill="#CDFFFD"/>
<path d="M115.485 155.785C100.18 144.089 89.7779 119.143 92.2583 100.054C93.4119 91.22 97.1228 85.1898 102.295 82.4244C96.4498 84.825 92.2006 91.1047 90.9508 100.668C88.4705 119.757 98.8725 144.704 114.177 156.399C122.388 162.679 130.348 163.831 136.347 160.624C130.521 163.044 123.118 161.623 115.485 155.785Z" fill="#CDFFFD"/>
<path d="M277.631 302.543C257.253 302.543 240.734 286.043 240.734 265.69C240.734 245.337 257.253 228.837 277.631 228.837C298.009 228.837 314.528 245.337 314.528 265.69C314.528 286.043 298.009 302.543 277.631 302.543Z" fill="url(#paint11_radial_58_608)"/>
<path d="M277.631 302.543C257.253 302.543 240.734 286.043 240.734 265.69C240.734 245.337 257.253 228.837 277.631 228.837C298.009 228.837 314.528 245.337 314.528 265.69C314.528 286.043 298.009 302.543 277.631 302.543Z" fill="url(#paint12_linear_58_608)"/>
<path d="M285.256 295.771C278.883 292.096 278.882 280.182 285.254 269.16C291.625 258.138 301.956 252.182 308.329 255.857C314.702 259.532 314.703 271.447 308.332 282.469C301.96 293.491 291.629 299.446 285.256 295.771Z" fill="#5476ED"/>
<path opacity="0.5" d="M313.087 266.401C313.087 276.79 305.78 289.427 296.782 294.612C287.764 299.816 280.477 295.591 280.477 285.202C280.477 274.812 287.784 262.176 296.782 256.991C305.78 251.806 313.087 256.011 313.087 266.401Z" fill="url(#paint13_radial_58_608)"/>
<path d="M304.435 254.782C305.819 256.741 306.607 259.468 306.607 262.887C306.607 273.276 299.301 285.912 290.302 291.097C287.534 292.691 284.938 293.402 282.65 293.306C285.457 297.32 290.745 298.107 296.782 294.612C305.8 289.407 313.087 276.79 313.087 266.401C313.087 259.199 309.588 254.974 304.435 254.782Z" fill="#CDFFFD"/>
<path d="M258.692 132.567L223.506 152.846V112.268L258.692 91.9689V132.567Z" fill="#2E68FF"/>
<path opacity="0.8" d="M253.462 94.9839V129.724L223.506 147.008V152.846L258.692 132.567V91.9689L253.462 94.9839Z" fill="url(#paint14_radial_58_608)"/>
<path d="M230.216 123.349L227.063 125.173V121.543L230.216 119.719V123.349Z" fill="#CDFFFD"/>
<path d="M236.907 114.841L233.754 116.646V113.017L236.907 111.192V114.841Z" fill="#CDFFFD"/>
<path d="M243.599 115.628L240.446 117.453V113.823L243.599 111.999V115.628Z" fill="#CDFFFD"/>
<path d="M243.599 125.173L240.446 126.997V123.348L243.599 121.543V125.173Z" fill="#CDFFFD"/>
<path d="M239.579 132.509L236.426 134.314V130.684L239.579 128.86V132.509Z" fill="#CDFFFD"/>
<path d="M250.501 121.198L247.348 123.003V119.373L250.501 117.549V121.198Z" fill="#CDFFFD"/>
<path d="M287.072 121.851L290.917 115.187L287.072 112.978L251.866 133.277V173.856L255.731 176.083L259.576 169.42L287.072 153.557V121.851Z" fill="url(#paint15_linear_58_608)"/>
<path d="M290.918 155.784L255.732 176.083V135.486L290.918 115.187V155.784Z" fill="url(#paint16_linear_58_608)"/>
<path d="M290.918 155.784L255.732 176.083V135.486L290.918 115.187V155.784Z" fill="url(#paint17_linear_58_608)"/>
<path d="M302.953 369.162C299.049 382.106 278.092 407.264 265.152 403.365C252.192 399.467 252.135 367.991 256.038 355.067C259.941 342.123 273.612 334.787 286.552 338.685C299.511 342.565 306.856 356.219 302.953 369.162Z" fill="url(#paint18_radial_58_608)"/>
<path d="M302.953 369.162C299.049 382.106 278.092 407.264 265.152 403.365C252.192 399.467 252.135 367.991 256.038 355.067C259.941 342.123 273.612 334.787 286.552 338.685C299.511 342.565 306.856 356.219 302.953 369.162Z" fill="url(#paint19_linear_58_608)"/>
<path d="M278.014 338.82C284.821 338.206 293.531 342.239 297.453 347.827C301.376 353.415 299.049 358.428 292.243 359.042C285.436 359.657 276.726 355.624 272.804 350.035C268.881 344.447 271.208 339.435 278.014 338.82Z" fill="#1535A5"/>
<path opacity="0.5" d="M278.014 338.82C284.821 338.206 293.531 342.239 297.453 347.827C301.376 353.415 299.049 358.428 292.243 359.042C285.436 359.657 276.726 355.624 272.804 350.035C268.881 344.447 271.208 339.435 278.014 338.82Z" fill="url(#paint20_radial_58_608)"/>
<path d="M270.92 345.157C272.132 344.139 273.862 343.467 276.112 343.256C282.918 342.641 291.628 346.674 295.551 352.263C296.762 353.972 297.377 355.643 297.454 357.141C299.915 355.067 300.127 351.571 297.474 347.827C293.551 342.238 284.841 338.205 278.035 338.82C273.305 339.242 270.747 341.796 270.92 345.157Z" fill="#CDFFFD"/>
<path opacity="0.6" d="M297.262 323.284C298.031 322.554 298.069 321.344 297.339 320.557C296.608 319.788 295.397 319.75 294.608 320.48C293.839 321.209 293.801 322.419 294.531 323.207C295.262 323.975 296.473 324.013 297.262 323.284Z" fill="#CDFFFD"/>
<path d="M319.68 320.115C321.641 318.271 321.737 315.199 319.892 313.24C318.046 311.281 314.969 311.185 313.008 313.029C311.047 314.872 310.951 317.945 312.797 319.904C314.623 321.863 317.7 321.959 319.68 320.115Z" fill="#CDFFFD"/>
<path opacity="0.6" d="M307.47 347.481C308.566 346.444 308.623 344.735 307.585 343.621C306.547 342.526 304.836 342.468 303.72 343.506C302.624 344.543 302.567 346.252 303.605 347.366C304.643 348.46 306.374 348.499 307.47 347.481Z" fill="#CDFFFD"/>
<path d="M313.738 338.301C314.488 337.591 314.526 336.419 313.815 335.67C313.103 334.921 311.931 334.883 311.181 335.594C310.431 336.304 310.392 337.476 311.104 338.225C311.796 338.954 312.988 338.993 313.738 338.301Z" fill="#CDFFFD"/>
<path d="M315.2 342.718C315.719 342.238 315.739 341.431 315.258 340.913C314.777 340.394 313.97 340.375 313.45 340.855C312.931 341.335 312.912 342.142 313.393 342.661C313.873 343.179 314.681 343.217 315.2 342.718Z" fill="#CDFFFD"/>
<path opacity="0.6" d="M301.222 306.115C302.318 305.097 302.357 303.388 301.338 302.293C300.319 301.199 298.607 301.16 297.511 302.178C296.416 303.196 296.377 304.905 297.396 306C298.415 307.075 300.126 307.133 301.222 306.115Z" fill="#CDFFFD"/>
<path d="M295.992 312.491C297.627 310.955 297.704 308.4 296.166 306.787C294.627 305.155 292.07 305.078 290.455 306.614C288.821 308.151 288.744 310.705 290.282 312.318C291.801 313.931 294.377 314.027 295.992 312.491Z" fill="#CDFFFD"/>
<defs>
<radialGradient id="paint0_radial_58_608" cx="0" cy="0" r="1" gradientUnits="userSpaceOnUse" gradientTransform="translate(41.3251 236.275) rotate(16.7378) scale(69.5893 69.5193)">
<stop stop-color="#C0BFF6"/>
<stop offset="1" stop-color="#393091"/>
</radialGradient>
<linearGradient id="paint1_linear_58_608" x1="-3.12082" y1="270.098" x2="49.0543" y2="239.398" gradientUnits="userSpaceOnUse">
<stop stop-color="#FDFDFD"/>
<stop offset="1" stop-color="#A0B5FF"/>
</linearGradient>
<radialGradient id="paint2_radial_58_608" cx="0" cy="0" r="1" gradientUnits="userSpaceOnUse" gradientTransform="translate(28.2362 240.2) rotate(-95.1124) scale(45.1118 45.1654)">
<stop stop-color="#42E8E0"/>
<stop offset="0.1055" stop-color="#37B6BF"/>
<stop offset="0.2197" stop-color="#2C87A1"/>
<stop offset="0.338" stop-color="#235F87"/>
<stop offset="0.4587" stop-color="#1C3F72"/>
<stop offset="0.5824" stop-color="#162561"/>
<stop offset="0.7105" stop-color="#121355"/>
<stop offset="0.8458" stop-color="#10084E"/>
<stop offset="1" stop-color="#0F054C"/>
</radialGradient>
<radialGradient id="paint3_radial_58_608" cx="0" cy="0" r="1" gradientUnits="userSpaceOnUse" gradientTransform="translate(260.654 56.3947) rotate(11.1844) scale(212.991 212.753)">
<stop stop-color="#C0BFF6"/>
<stop offset="1" stop-color="#393091"/>
</radialGradient>
<linearGradient id="paint4_linear_58_608" x1="64.3423" y1="205.226" x2="103.921" y2="143.013" gradientUnits="userSpaceOnUse">
<stop offset="0.0222" stop-color="#DDF5F4"/>
<stop offset="1" stop-color="#9AB0FF"/>
</linearGradient>
<radialGradient id="paint5_radial_58_608" cx="0" cy="0" r="1" gradientUnits="userSpaceOnUse" gradientTransform="translate(229.121 221.654) scale(163.728 222.608)">
<stop stop-color="#C0BFF6"/>
<stop offset="1" stop-color="#393091"/>
</radialGradient>
<linearGradient id="paint6_linear_58_608" x1="172.909" y1="370.602" x2="172.909" y2="148.086" gradientUnits="userSpaceOnUse">
<stop stop-color="#E4FDFB"/>
<stop offset="1" stop-color="#B2B9FF"/>
</linearGradient>
<radialGradient id="paint7_radial_58_608" cx="0" cy="0" r="1" gradientUnits="userSpaceOnUse" gradientTransform="translate(170.386 222.576) scale(126.729 126.576)">
<stop stop-color="#42E8E0"/>
<stop offset="0.1055" stop-color="#37B6BF"/>
<stop offset="0.2197" stop-color="#2C87A1"/>
<stop offset="0.338" stop-color="#235F87"/>
<stop offset="0.4587" stop-color="#1C3F72"/>
<stop offset="0.5824" stop-color="#162561"/>
<stop offset="0.7105" stop-color="#121355"/>
<stop offset="0.8458" stop-color="#10084E"/>
<stop offset="1" stop-color="#0F054C"/>
</radialGradient>
<radialGradient id="paint8_radial_58_608" cx="0" cy="0" r="1" gradientUnits="userSpaceOnUse" gradientTransform="translate(237.328 82.6785) scale(164.23 164.032)">
<stop stop-color="#C0BFF6"/>
<stop offset="1" stop-color="#393091"/>
</radialGradient>
<linearGradient id="paint9_linear_58_608" x1="163.164" y1="193.173" x2="190.149" y2="0.930288" gradientUnits="userSpaceOnUse">
<stop stop-color="#E8FAF8"/>
<stop offset="1" stop-color="#9EB2F8"/>
</linearGradient>
<radialGradient id="paint10_radial_58_608" cx="0" cy="0" r="1" gradientUnits="userSpaceOnUse" gradientTransform="translate(146.431 106.005) scale(80.6659 80.5686)">
<stop stop-color="#BEFFFC"/>
<stop offset="1" stop-color="#0031DF"/>
</radialGradient>
<radialGradient id="paint11_radial_58_608" cx="0" cy="0" r="1" gradientUnits="userSpaceOnUse" gradientTransform="translate(299.49 241.631) rotate(11.1844) scale(76.9797 76.8938)">
<stop stop-color="#C0BFF6"/>
<stop offset="1" stop-color="#393091"/>
</radialGradient>
<linearGradient id="paint12_linear_58_608" x1="247.775" y1="287.347" x2="307.429" y2="243.952" gradientUnits="userSpaceOnUse">
<stop stop-color="#E5F4F3"/>
<stop offset="1" stop-color="#B8CFFD"/>
</linearGradient>
<radialGradient id="paint13_radial_58_608" cx="0" cy="0" r="1" gradientUnits="userSpaceOnUse" gradientTransform="translate(289.879 269.995) scale(68.7516 68.6686)">
<stop stop-color="#42E8E0"/>
<stop offset="0.1055" stop-color="#37B6BF"/>
<stop offset="0.2197" stop-color="#2C87A1"/>
<stop offset="0.338" stop-color="#235F87"/>
<stop offset="0.4587" stop-color="#1C3F72"/>
<stop offset="0.5824" stop-color="#162561"/>
<stop offset="0.7105" stop-color="#121355"/>
<stop offset="0.8458" stop-color="#10084E"/>
<stop offset="1" stop-color="#0F054C"/>
</radialGradient>
<radialGradient id="paint14_radial_58_608" cx="0" cy="0" r="1" gradientUnits="userSpaceOnUse" gradientTransform="translate(234.531 53.0727) scale(64.8039 83.153)">
<stop stop-color="#7772AA"/>
<stop offset="0.31" stop-color="#251C72"/>
<stop offset="1" stop-color="#0F054C"/>
</radialGradient>
<linearGradient id="paint15_linear_58_608" x1="285.494" y1="140.242" x2="193.371" y2="168.289" gradientUnits="userSpaceOnUse">
<stop stop-color="#BCBEFF"/>
<stop offset="0.151" stop-color="#A3A7F5"/>
<stop offset="0.3866" stop-color="#8289E8"/>
<stop offset="0.6124" stop-color="#6A73DF"/>
<stop offset="0.8221" stop-color="#5C66D9"/>
<stop offset="1" stop-color="#5761D7"/>
</linearGradient>
<linearGradient id="paint16_linear_58_608" x1="269.546" y1="146.081" x2="143.289" y2="161.141" gradientUnits="userSpaceOnUse">
<stop stop-color="#BCBEFF"/>
<stop offset="0.151" stop-color="#A3A7F5"/>
<stop offset="0.3866" stop-color="#8289E8"/>
<stop offset="0.6124" stop-color="#6A73DF"/>
<stop offset="0.8221" stop-color="#5C66D9"/>
<stop offset="1" stop-color="#5761D7"/>
</linearGradient>
<linearGradient id="paint17_linear_58_608" x1="250.608" y1="183.155" x2="316.279" y2="74.4033" gradientUnits="userSpaceOnUse">
<stop stop-color="#EBFDFC"/>
<stop offset="1" stop-color="#9E97E4"/>
</linearGradient>
<radialGradient id="paint18_radial_58_608" cx="0" cy="0" r="1" gradientUnits="userSpaceOnUse" gradientTransform="translate(294.821 349.862) rotate(16.7378) scale(69.5895 69.5195)">
<stop stop-color="#C0BFF6"/>
<stop offset="1" stop-color="#393091"/>
</radialGradient>
<linearGradient id="paint19_linear_58_608" x1="250.375" y1="383.685" x2="302.55" y2="352.985" gradientUnits="userSpaceOnUse">
<stop stop-color="#F0FFFE"/>
<stop offset="1" stop-color="#ADB2E0"/>
</linearGradient>
<radialGradient id="paint20_radial_58_608" cx="0" cy="0" r="1" gradientUnits="userSpaceOnUse" gradientTransform="translate(281.732 353.788) rotate(-95.1124) scale(45.1116 45.1652)">
<stop stop-color="#E9FFFE"/>
<stop offset="1" stop-color="#0035F2"/>
</radialGradient>
</defs>
</svg>
