<svg width="64" height="64" viewBox="0 0 64 64" fill="none" xmlns="http://www.w3.org/2000/svg">
<path d="M14.7505 5.58679C29.4594 -3.9769 49.1483 0.190391 58.7235 14.9008C68.2988 29.592 64.1264 49.2571 49.3983 58.8208C34.6893 68.3845 15.0004 64.2173 5.42518 49.5068C-4.13083 34.8156 0.0415077 15.1505 14.7505 5.58679Z" fill="url(#paint0_radial_58_1279)"/>
<path d="M25.6533 63.295C8.46404 59.7614 -2.61095 42.9577 0.946121 25.7892C4.48396 8.62062 21.3079 -2.44099 38.4972 1.11179C55.6865 4.64537 66.7615 21.449 63.2044 38.6176C59.6666 55.7862 42.8618 66.8286 25.6533 63.295Z" fill="url(#paint1_linear_58_1279)"/>
<defs>
<radialGradient id="paint0_radial_58_1279" cx="0" cy="0" r="1" gradientUnits="userSpaceOnUse" gradientTransform="translate(17.3166 18.1555) rotate(-123.07) scale(53.6811 53.7074)">
<stop stop-color="#C0BFF6"/>
<stop offset="1" stop-color="#393091"/>
</radialGradient>
<linearGradient id="paint1_linear_58_1279" x1="2.14175" y1="21.5214" x2="62.0035" y2="42.9266" gradientUnits="userSpaceOnUse">
<stop stop-color="#EBFAF9"/>
<stop offset="1" stop-color="#A9B7FF"/>
</linearGradient>
</defs>
</svg>
