<svg width="33" height="33" viewBox="0 0 33 33" fill="none" xmlns="http://www.w3.org/2000/svg">
<g clip-path="url(#clip0_1_3)">
<path d="M21.0592 11.9408L21.0266 11.9082C19.9475 10.8348 18.5214 10.1807 17.0038 10.063C15.4862 9.9453 13.9763 10.3718 12.7446 11.266C11.5128 12.1602 10.6397 13.4638 10.2816 14.9432C9.92344 16.4226 10.1037 17.9812 10.7901 19.3397L11.0724 19.8955L10.5448 22.453V22.4856L13.0784 21.8842L13.6559 22.1708C14.8579 22.7674 16.2167 22.9718 17.541 22.7552C18.8653 22.5387 20.0882 21.9121 21.0375 20.9637C22.2294 19.7661 22.9003 18.1463 22.9043 16.4567C22.9084 14.7671 22.2453 13.1441 21.0592 11.9408V11.9408ZM20.803 19.1053C20.4926 19.5937 19.9997 20.1908 19.3853 20.3406C18.2998 20.6033 16.6476 20.3406 14.5786 18.4279L14.5526 18.404C12.7528 16.7236 12.2751 15.3233 12.3815 14.2139C12.4445 13.5843 12.9699 13.0155 13.4128 12.642C13.483 12.5822 13.5663 12.5397 13.656 12.5181C13.7457 12.4964 13.8392 12.4961 13.929 12.5172C14.0188 12.5384 14.1024 12.5803 14.173 12.6397C14.2436 12.6991 14.2993 12.7743 14.3355 12.8591L15.002 14.3789C15.0455 14.4759 15.0618 14.5829 15.0492 14.6884C15.0366 14.794 14.9955 14.8941 14.9303 14.9781L14.5916 15.4123C14.5212 15.5024 14.4793 15.6115 14.4712 15.7256C14.4631 15.8397 14.4891 15.9536 14.5461 16.0528C14.8679 16.5262 15.2528 16.9535 15.6902 17.3228C16.1598 17.7772 16.6938 18.1598 17.2751 18.4583C17.3809 18.5013 17.4972 18.5116 17.609 18.488C17.7208 18.4644 17.823 18.408 17.9025 18.3259L18.2911 17.9329C18.3637 17.8498 18.458 17.7886 18.5636 17.7564C18.6691 17.7241 18.7815 17.7221 18.8882 17.7505L20.473 18.2064C20.5611 18.2322 20.642 18.2781 20.7094 18.3405C20.7767 18.4029 20.8286 18.4801 20.861 18.566C20.8935 18.6519 20.9055 18.7441 20.8962 18.8354C20.8869 18.9268 20.8565 19.0147 20.8074 19.0922L20.803 19.1053Z" fill="#154C85"/>
<path d="M16.5 0C13.2366 0 10.0465 0.967708 7.33307 2.78075C4.61965 4.59379 2.50481 7.17074 1.25596 10.1857C0.00711482 13.2007 -0.31964 16.5183 0.317016 19.719C0.953672 22.9197 2.52515 25.8597 4.83271 28.1673C7.14028 30.4748 10.0803 32.0463 13.281 32.683C16.4817 33.3196 19.7993 32.9929 22.8143 31.744C25.8292 30.4952 28.4062 28.3803 30.2192 25.6669C32.0323 22.9535 33 19.7634 33 16.5C33 12.1239 31.2616 7.92709 28.1672 4.83274C25.0729 1.73839 20.8761 0 16.5 0V0ZM24.6783 16.6932C24.6338 18.0636 24.2458 19.4007 23.5499 20.5821C22.8541 21.7635 21.8727 22.7512 20.6959 23.4546C19.519 24.158 18.1843 24.5545 16.8143 24.6079C15.4443 24.6613 14.0828 24.3697 12.8548 23.76L8.72978 24.7413C8.66741 24.7556 8.60219 24.7508 8.54257 24.7276C8.48295 24.7044 8.43169 24.6638 8.39544 24.6111C8.37066 24.5758 8.35343 24.5358 8.34484 24.4936C8.33625 24.4514 8.33647 24.4079 8.3455 24.3657L9.21392 20.1495C8.64627 19.0373 8.34064 17.8098 8.32045 16.5613C8.30025 15.3127 8.56602 14.076 9.09741 12.946C9.62879 11.8159 10.4117 10.8224 11.3862 10.0416C12.3607 9.26072 13.501 8.7132 14.7197 8.44093C15.9384 8.16866 17.2032 8.17886 18.4174 8.47075C19.6316 8.76264 20.7628 9.32848 21.7246 10.1249C22.6864 10.9214 23.4532 11.9274 23.9663 13.0659C24.4794 14.2043 24.7252 15.4451 24.6848 16.6932H24.6783Z" fill="#154C85"/>
</g>
<defs>
<clipPath id="clip0_1_3">
<rect width="33" height="33" fill="white"/>
</clipPath>
</defs>
</svg>
