<svg width="33" height="33" viewBox="0 0 33 33" fill="none" xmlns="http://www.w3.org/2000/svg">
<circle cx="16.5" cy="16.5" r="16.5" fill="#154C85"/>
<path d="M24.32 21.44C23.886 22.212 23.415 22.354 22.456 22.408C21.498 22.473 19.089 22.5 17.002 22.5C14.911 22.5 12.501 22.473 11.544 22.409C10.587 22.354 10.115 22.213 9.677 21.44C9.23 20.669 9 19.341 9 17.003C9 17.001 9 17 9 17C9 16.998 9 16.997 9 16.997V16.995C9 14.667 9.23 13.329 9.677 12.566C10.115 11.794 10.586 11.654 11.543 11.589C12.501 11.533 14.911 11.5 17.002 11.5C19.089 11.5 21.498 11.533 22.457 11.588C23.416 11.653 23.887 11.793 24.321 12.565C24.772 13.328 25 14.666 25 16.994C25 16.994 25 16.997 25 16.999C25 16.999 25 17.001 25 17.002C25 19.341 24.772 20.669 24.32 21.44ZM15 14V20L20 17L15 14Z" fill="#FAFAFA"/>
</svg>
