<svg width="14" height="14" fill="none" xmlns="http://www.w3.org/2000/svg"><path d="M2.784.5h-.66c-.23 0-.603.086-.918.431C.89 1.277 0 2.111 0 3.808c0 1.696 1.234 3.336 1.406 3.566.173.23 2.383 3.824 5.884 5.206 2.91 1.149 3.502.92 4.134.863.631-.057 2.038-.834 2.325-1.64.287-.805.287-1.495.2-1.64-.085-.143-.315-.23-.66-.401-.344-.173-2.032-1.021-2.348-1.137-.316-.115-.545-.172-.775.173-.23.345-.906 1.143-1.107 1.373-.201.23-.402.259-.747.086-.344-.173-1.442-.543-2.758-1.718-1.024-.914-1.735-2.08-1.936-2.425-.2-.345-.021-.532.151-.704.155-.154.364-.366.536-.567.172-.201.221-.345.336-.575.115-.23.058-.432-.028-.604-.087-.173-.748-1.878-1.054-2.56C3.301.53 3.03.51 2.784.5z" fill="#0CBAD0"/></svg>