<svg width="540" height="297" fill="none" xmlns="http://www.w3.org/2000/svg"><path d="M189.4 188.19h-26.22V222h-36.34v-33.81H40.13v-25.07L116.03 61h39.1l-70.38 96.83h43.24V127.7h35.19v30.13h26.22v30.36zm80.144 36.57c-13.34 0-25.223-3.297-35.65-9.89-10.426-6.593-18.63-16.1-24.61-28.52-5.826-12.573-8.74-27.523-8.74-44.85s2.914-32.2 8.74-44.62c5.98-12.573 14.184-22.157 24.61-28.75 10.427-6.593 22.31-9.89 35.65-9.89s25.224 3.297 35.65 9.89c10.427 6.593 18.554 16.177 24.38 28.75 5.98 12.42 8.97 27.293 8.97 44.62 0 17.327-2.99 32.277-8.97 44.85-5.826 12.42-13.953 21.927-24.38 28.52-10.426 6.593-22.31 9.89-35.65 9.89zm0-31.51c9.814 0 17.48-4.217 23-12.65 5.674-8.433 8.51-21.467 8.51-39.1 0-17.633-2.836-30.667-8.51-39.1-5.52-8.433-13.186-12.65-23-12.65-9.66 0-17.326 4.217-23 12.65-5.52 8.433-8.28 21.467-8.28 39.1 0 17.633 2.76 30.667 8.28 39.1 5.674 8.433 13.34 12.65 23 12.65zm234.534-5.06h-26.22V222h-36.34v-33.81h-86.71v-25.07L430.708 61h39.1l-70.38 96.83h43.24V127.7h35.19v30.13h26.22v30.36zM10.195 274.74h-3.64V283H2.97v-19.6h3.584v8.204h3.752l5.628-8.204h3.864l-6.692 9.492L20.05 283h-4.116l-5.74-8.26zm27.133 8.456c-1.55 0-2.94-.326-4.172-.98-1.232-.653-2.194-1.558-2.884-2.716-.69-1.176-1.036-2.501-1.036-3.976 0-1.474.345-2.79 1.036-3.948a7.28 7.28 0 012.856-2.716c1.232-.653 2.632-.98 4.2-.98 1.474 0 2.762.299 3.864.896a5.8 5.8 0 012.52 2.576l-2.688 1.568c-.43-.69-.97-1.204-1.624-1.54a4.239 4.239 0 00-2.1-.532c-1.307 0-2.39.43-3.248 1.288-.859.84-1.288 1.97-1.288 3.388 0 1.419.42 2.558 1.26 3.416.858.84 1.95 1.26 3.276 1.26a4.42 4.42 0 002.1-.504c.653-.354 1.194-.877 1.624-1.568l2.688 1.568a6.122 6.122 0 01-2.548 2.604c-1.102.598-2.38.896-3.836.896zm15.91 0c-1.511 0-2.874-.326-4.087-.98a7.266 7.266 0 01-2.856-2.716c-.672-1.176-1.008-2.501-1.008-3.976 0-1.474.336-2.79 1.008-3.948a7.28 7.28 0 012.856-2.716c1.213-.653 2.576-.98 4.088-.98 1.53 0 2.902.327 4.116.98 1.213.654 2.156 1.559 2.828 2.716.69 1.158 1.036 2.474 1.036 3.948 0 1.475-.346 2.8-1.036 3.976-.672 1.158-1.615 2.063-2.828 2.716-1.214.654-2.586.98-4.116.98zm0-2.996c1.289 0 2.353-.429 3.193-1.288.84-.858 1.26-1.988 1.26-3.388s-.42-2.529-1.26-3.388c-.84-.858-1.904-1.288-3.192-1.288-1.288 0-2.352.43-3.192 1.288-.822.859-1.232 1.988-1.232 3.388s.41 2.53 1.232 3.388c.84.859 1.904 1.288 3.192 1.288zm25.142-3.192h-2.52V283h-3.472v-5.992h-2.52L66.228 283h-4.144l4.9-7.728-4.536-7.224h3.724l3.64 6.048h2.576v-6.048h3.472v6.048h2.548l3.668-6.048H85.8l-4.536 7.224L86.192 283H82.02l-3.64-5.992zm15.712-9.128c2.203 0 3.883.532 5.04 1.596 1.176 1.046 1.764 2.632 1.764 4.76V283h-3.304v-1.82c-.43.654-1.045 1.158-1.848 1.512-.784.336-1.736.504-2.856.504-1.12 0-2.1-.186-2.94-.56-.84-.392-1.493-.924-1.96-1.596a4.176 4.176 0 01-.672-2.324c0-1.344.495-2.417 1.484-3.22 1.008-.821 2.585-1.232 4.732-1.232h3.864v-.224c0-1.045-.317-1.848-.952-2.408-.616-.56-1.54-.84-2.772-.84-.84 0-1.67.131-2.492.392-.803.262-1.484.626-2.044 1.092l-1.372-2.548c.784-.597 1.727-1.054 2.828-1.372a12.595 12.595 0 013.5-.476zm-.476 12.768c.877 0 1.652-.196 2.324-.588a3.321 3.321 0 001.456-1.736v-1.736h-3.612c-2.016 0-3.024.663-3.024 1.988 0 .635.252 1.139.756 1.512.504.374 1.204.56 2.1.56zm25.163-12.6V283h-3.5v-11.984h-5.6l-.14 2.968c-.093 1.979-.28 3.64-.56 4.984-.261 1.326-.719 2.38-1.372 3.164-.635.766-1.512 1.148-2.632 1.148-.523 0-1.167-.102-1.932-.308l.168-2.94c.261.056.485.084.672.084.709 0 1.241-.28 1.596-.84.355-.578.579-1.26.672-2.044.112-.802.205-1.941.28-3.416l.252-5.768h12.096zm18.714 7.56c0 .243-.019.588-.056 1.036h-11.732c.205 1.102.737 1.979 1.596 2.632.877.635 1.96.952 3.248.952 1.642 0 2.996-.541 4.06-1.624l1.876 2.156c-.672.803-1.522 1.41-2.548 1.82-1.027.411-2.184.616-3.472.616-1.643 0-3.09-.326-4.34-.98-1.251-.653-2.222-1.558-2.912-2.716-.672-1.176-1.008-2.501-1.008-3.976 0-1.456.326-2.762.98-3.92a7.125 7.125 0 012.772-2.744c1.176-.653 2.501-.98 3.976-.98 1.456 0 2.753.327 3.892.98a6.617 6.617 0 012.688 2.716c.653 1.158.98 2.502.98 4.032zm-7.56-4.928c-1.12 0-2.072.336-2.856 1.008-.766.654-1.232 1.531-1.4 2.632h8.484c-.15-1.082-.607-1.96-1.372-2.632-.766-.672-1.718-1.008-2.856-1.008zm11.388-2.632h3.5v6.076h7.532v-6.076h3.5V283h-3.5v-5.908h-7.532V283h-3.5v-14.952zm19.222 0h3.5v9.856l8.26-9.856h3.192V283h-3.5v-9.856L163.763 283h-3.22v-14.952zm33.325-.168c1.493 0 2.828.327 4.004.98a6.93 6.93 0 012.772 2.716c.672 1.158 1.008 2.474 1.008 3.948 0 1.475-.336 2.8-1.008 3.976a7.17 7.17 0 01-2.772 2.716c-1.176.654-2.511.98-4.004.98-1.307 0-2.502-.252-3.584-.756a7.3 7.3 0 01-2.688-2.184 7.412 7.412 0 01-1.372-3.248h-2.52V283h-3.5v-14.952h3.5v5.796h2.576c.224-1.176.69-2.212 1.4-3.108a6.991 6.991 0 012.66-2.1c1.064-.504 2.24-.756 3.528-.756zm0 12.348c.821 0 1.558-.186 2.212-.56a4.118 4.118 0 001.54-1.652c.373-.728.56-1.558.56-2.492 0-1.418-.411-2.548-1.232-3.388-.803-.858-1.83-1.288-3.08-1.288-1.251 0-2.278.43-3.08 1.288-.803.84-1.204 1.97-1.204 3.388 0 1.419.401 2.558 1.204 3.416.821.859 1.848 1.288 3.08 1.288zm25.761 2.968c-1.55 0-2.94-.326-4.172-.98-1.232-.653-2.194-1.558-2.884-2.716-.691-1.176-1.036-2.501-1.036-3.976 0-1.474.345-2.79 1.036-3.948a7.272 7.272 0 012.856-2.716c1.232-.653 2.632-.98 4.2-.98 1.474 0 2.762.299 3.864.896a5.8 5.8 0 012.52 2.576l-2.688 1.568c-.43-.69-.971-1.204-1.624-1.54a4.24 4.24 0 00-2.1-.532c-1.307 0-2.39.43-3.248 1.288-.859.84-1.288 1.97-1.288 3.388 0 1.419.42 2.558 1.26 3.416.858.84 1.95 1.26 3.276 1.26a4.42 4.42 0 002.1-.504c.653-.354 1.194-.877 1.624-1.568l2.688 1.568a6.124 6.124 0 01-2.548 2.604c-1.102.598-2.38.896-3.836.896zm21.172-12.18h-5.236V283h-3.5v-11.984h-5.264v-2.968h14v2.968zm10.827-3.136c1.456 0 2.754.318 3.892.952a6.838 6.838 0 012.716 2.688c.654 1.158.98 2.492.98 4.004 0 1.512-.326 2.856-.98 4.032a6.825 6.825 0 01-2.716 2.688c-1.138.635-2.436.952-3.892.952-2.016 0-3.612-.672-4.788-2.016v7.252h-3.5v-20.384h3.332v1.96a5.445 5.445 0 012.128-1.596c.859-.354 1.802-.532 2.828-.532zm-.392 12.32c1.288 0 2.343-.429 3.164-1.288.84-.858 1.26-1.988 1.26-3.388s-.42-2.529-1.26-3.388c-.821-.858-1.876-1.288-3.164-1.288-.84 0-1.596.196-2.268.588a4.058 4.058 0 00-1.596 1.624c-.392.71-.588 1.531-.588 2.464 0 .934.196 1.755.588 2.464.392.71.924 1.26 1.596 1.652.672.374 1.428.56 2.268.56zm16.844-12.32c2.203 0 3.883.532 5.04 1.596 1.176 1.046 1.764 2.632 1.764 4.76V283h-3.304v-1.82c-.429.654-1.045 1.158-1.848 1.512-.784.336-1.736.504-2.856.504-1.12 0-2.1-.186-2.94-.56-.84-.392-1.493-.924-1.96-1.596a4.176 4.176 0 01-.672-2.324c0-1.344.495-2.417 1.484-3.22 1.008-.821 2.586-1.232 4.732-1.232h3.864v-.224c0-1.045-.317-1.848-.952-2.408-.616-.56-1.54-.84-2.772-.84-.84 0-1.67.131-2.492.392-.802.262-1.484.626-2.044 1.092l-1.372-2.548c.784-.597 1.727-1.054 2.828-1.372a12.599 12.599 0 013.5-.476zm-.476 12.768c.878 0 1.652-.196 2.324-.588a3.32 3.32 0 001.456-1.736v-1.736h-3.612c-2.016 0-3.024.663-3.024 1.988 0 .635.252 1.139.756 1.512.504.374 1.204.56 2.1.56zm11.611-12.6h3.5v6.076h7.532v-6.076h3.5V283h-3.5v-5.908h-7.532V283h-3.5v-14.952zm19.223 0h3.5v9.856l8.26-9.856h3.192V283h-3.5v-9.856L301.658 283h-3.22v-14.952zm36.068 11.984v6.412h-3.276V283h-13.132v-14.952h3.5v11.984h7.14v-11.984h3.5v11.984h2.268zm8.688-12.152c2.202 0 3.882.532 5.04 1.596 1.176 1.046 1.764 2.632 1.764 4.76V283h-3.304v-1.82c-.43.654-1.046 1.158-1.848 1.512-.784.336-1.736.504-2.856.504-1.12 0-2.1-.186-2.94-.56-.84-.392-1.494-.924-1.96-1.596a4.176 4.176 0 01-.672-2.324c0-1.344.494-2.417 1.484-3.22 1.008-.821 2.585-1.232 4.732-1.232h3.864v-.224c0-1.045-.318-1.848-.952-2.408-.616-.56-1.54-.84-2.772-.84-.84 0-1.671.131-2.492.392-.803.262-1.484.626-2.044 1.092l-1.372-2.548c.784-.597 1.726-1.054 2.828-1.372a12.594 12.594 0 013.5-.476zm-.476 12.768c.877 0 1.652-.196 2.324-.588a3.324 3.324 0 001.456-1.736v-1.736h-3.612c-2.016 0-3.024.663-3.024 1.988 0 .635.252 1.139.756 1.512.504.374 1.204.56 2.1.56zm19.349-12.6h3.5v6.076h7.532v-6.076h3.5V283h-3.5v-5.908h-7.532V283h-3.5v-14.952zm33.223 7.56c0 .243-.019.588-.056 1.036h-11.732c.205 1.102.737 1.979 1.596 2.632.877.635 1.96.952 3.248.952 1.642 0 2.996-.541 4.06-1.624l1.876 2.156c-.672.803-1.522 1.41-2.548 1.82-1.027.411-2.184.616-3.472.616-1.643 0-3.09-.326-4.34-.98-1.251-.653-2.222-1.558-2.912-2.716-.672-1.176-1.008-2.501-1.008-3.976 0-1.456.326-2.762.98-3.92a7.125 7.125 0 012.772-2.744c1.176-.653 2.501-.98 3.976-.98 1.456 0 2.753.327 3.892.98a6.617 6.617 0 012.688 2.716c.653 1.158.98 2.502.98 4.032zm-7.56-4.928c-1.12 0-2.072.336-2.856 1.008-.766.654-1.232 1.531-1.4 2.632h8.484c-.15-1.082-.607-1.96-1.372-2.632-.766-.672-1.718-1.008-2.856-1.008zm19.126-2.632h3.5v6.076h7.532v-6.076h3.5V283h-3.5v-5.908h-7.532V283h-3.5v-14.952zm24.795-.168c2.202 0 3.882.532 5.04 1.596 1.176 1.046 1.764 2.632 1.764 4.76V283h-3.304v-1.82c-.43.654-1.046 1.158-1.848 1.512-.784.336-1.736.504-2.856.504-1.12 0-2.1-.186-2.94-.56-.84-.392-1.494-.924-1.96-1.596a4.176 4.176 0 01-.672-2.324c0-1.344.494-2.417 1.484-3.22 1.008-.821 2.585-1.232 4.732-1.232h3.864v-.224c0-1.045-.318-1.848-.952-2.408-.616-.56-1.54-.84-2.772-.84-.84 0-1.671.131-2.492.392-.803.262-1.484.626-2.044 1.092l-1.372-2.548c.784-.597 1.726-1.054 2.828-1.372a12.594 12.594 0 013.5-.476zm-.476 12.768c.877 0 1.652-.196 2.324-.588a3.324 3.324 0 001.456-1.736v-1.736h-3.612c-2.016 0-3.024.663-3.024 1.988 0 .635.252 1.139.756 1.512.504.374 1.204.56 2.1.56zm11.611-12.6h3.5v9.856l8.26-9.856h3.192V283h-3.5v-9.856L446.006 283h-3.22v-14.952zm7.252-1.764c-1.512 0-2.67-.345-3.472-1.036-.784-.709-1.186-1.736-1.204-3.08h2.324c.018.672.224 1.204.616 1.596.41.392.98.588 1.708.588.709 0 1.269-.196 1.68-.588.429-.392.653-.924.672-1.596h2.38c-.019 1.344-.43 2.371-1.232 3.08-.803.691-1.96 1.036-3.472 1.036zm28.368 13.748v6.3h-3.276V283h-11.536v3.332h-3.248v-6.3h.7c.952-.037 1.596-.644 1.932-1.82.354-1.194.588-2.874.7-5.04l.196-5.124h12.32v11.984h2.212zm-11.536-6.608c-.075 1.718-.215 3.118-.42 4.2-.206 1.083-.579 1.886-1.12 2.408h7.364v-9.016h-5.74l-.084 2.408zm28.662 2.184c0 .243-.019.588-.056 1.036h-11.732c.205 1.102.737 1.979 1.596 2.632.877.635 1.96.952 3.248.952 1.642 0 2.996-.541 4.06-1.624l1.876 2.156c-.672.803-1.522 1.41-2.548 1.82-1.027.411-2.184.616-3.472.616-1.643 0-3.09-.326-4.34-.98-1.251-.653-2.222-1.558-2.912-2.716-.672-1.176-1.008-2.501-1.008-3.976 0-1.456.326-2.762.98-3.92a7.125 7.125 0 012.772-2.744c1.176-.653 2.501-.98 3.976-.98 1.456 0 2.753.327 3.892.98a6.617 6.617 0 012.688 2.716c.653 1.158.98 2.502.98 4.032zm-7.56-4.928c-1.12 0-2.072.336-2.856 1.008-.766.654-1.232 1.531-1.4 2.632h8.484c-.15-1.082-.607-1.96-1.372-2.632-.766-.672-1.718-1.008-2.856-1.008zm11.388-2.632h3.5v6.076h7.532v-6.076h3.5V283h-3.5v-5.908h-7.532V283h-3.5v-14.952zm24.794-.168c2.203 0 3.883.532 5.04 1.596 1.176 1.046 1.764 2.632 1.764 4.76V283h-3.304v-1.82c-.429.654-1.045 1.158-1.848 1.512-.784.336-1.736.504-2.856.504-1.12 0-2.1-.186-2.94-.56-.84-.392-1.493-.924-1.96-1.596a4.176 4.176 0 01-.672-2.324c0-1.344.495-2.417 1.484-3.22 1.008-.821 2.586-1.232 4.732-1.232h3.864v-.224c0-1.045-.317-1.848-.952-2.408-.616-.56-1.54-.84-2.772-.84-.84 0-1.67.131-2.492.392-.802.262-1.484.626-2.044 1.092l-1.372-2.548c.784-.597 1.727-1.054 2.828-1.372a12.599 12.599 0 013.5-.476zm-.476 12.768c.878 0 1.652-.196 2.324-.588a3.32 3.32 0 001.456-1.736v-1.736h-3.612c-2.016 0-3.024.663-3.024 1.988 0 .635.252 1.139.756 1.512.504.374 1.204.56 2.1.56zm12.676 2.548a2.259 2.259 0 01-1.624-.644c-.448-.448-.672-1.008-.672-1.68 0-.69.214-1.25.644-1.68.448-.429.998-.644 1.652-.644.653 0 1.194.215 1.624.644.448.43.672.99.672 1.68 0 .672-.224 1.232-.672 1.68a2.26 2.26 0 01-1.624.644zM105.506 47.192c-1.696 0-3.224-.368-4.584-1.104a8.425 8.425 0 01-3.216-3.096c-.768-1.312-1.152-2.776-1.152-4.392 0-1.616.384-3.08 1.152-4.392a8.25 8.25 0 013.216-3.072c1.36-.752 2.888-1.128 4.584-1.128 1.68 0 3.2.376 4.56 1.128a8.08 8.08 0 013.192 3.072c.768 1.296 1.152 2.76 1.152 4.392 0 1.632-.384 3.104-1.152 4.416-.768 1.296-1.832 2.32-3.192 3.072-1.36.736-2.88 1.104-4.56 1.104zm0-2.136c1.232 0 2.336-.28 3.312-.84a6.077 6.077 0 002.328-2.304c.576-.992.864-2.096.864-3.312 0-1.216-.288-2.312-.864-3.288a6.028 6.028 0 00-2.328-2.328c-.976-.56-2.08-.84-3.312-.84-1.232 0-2.352.28-3.36.84a6.197 6.197 0 00-2.352 2.328c-.56.976-.84 2.072-.84 3.288 0 1.216.28 2.32.84 3.312a6.25 6.25 0 002.352 2.304c1.008.56 2.128.84 3.36.84zm17.685 2.088c-1.264 0-2.4-.28-3.408-.84A6.204 6.204 0 01117.407 44c-.56-.992-.84-2.112-.84-3.36 0-1.248.28-2.36.84-3.336A5.984 5.984 0 01119.783 35c1.008-.56 2.144-.84 3.408-.84 1.264 0 2.392.28 3.384.84a5.822 5.822 0 012.352 2.304c.576.976.864 2.088.864 3.336 0 1.248-.288 2.368-.864 3.36a6.031 6.031 0 01-2.352 2.304c-.992.56-2.12.84-3.384.84zm0-2.016c.816 0 1.544-.184 2.184-.552a4.061 4.061 0 001.536-1.584c.368-.688.552-1.472.552-2.352 0-.88-.184-1.656-.552-2.328a3.858 3.858 0 00-1.536-1.584c-.64-.368-1.368-.552-2.184-.552-.816 0-1.552.184-2.208.552-.64.368-1.152.896-1.536 1.584-.368.672-.552 1.448-.552 2.328 0 .88.184 1.664.552 2.352.384.672.896 1.2 1.536 1.584.656.368 1.392.552 2.208.552zm16.53-10.968c1.232 0 2.336.272 3.312.816a5.787 5.787 0 012.28 2.28c.56.976.84 2.104.84 3.384 0 1.28-.28 2.416-.84 3.408a5.787 5.787 0 01-2.28 2.28c-.976.544-2.08.816-3.312.816a5.975 5.975 0 01-2.52-.528 5.243 5.243 0 01-1.92-1.536v6.576h-2.304V34.28h2.208v2.016a4.797 4.797 0 011.944-1.584c.784-.368 1.648-.552 2.592-.552zm-.192 10.968c.816 0 1.544-.184 2.184-.552a4.061 4.061 0 001.536-1.584c.384-.688.576-1.472.576-2.352 0-.88-.192-1.656-.576-2.328a3.858 3.858 0 00-1.536-1.584c-.64-.368-1.368-.552-2.184-.552-.8 0-1.528.192-2.184.576a4.111 4.111 0 00-1.536 1.56c-.368.672-.552 1.448-.552 2.328 0 .88.184 1.664.552 2.352.368.672.88 1.2 1.536 1.584a4.387 4.387 0 002.184.552zm13.455 2.016c-1.04 0-2.04-.136-3-.408-.96-.288-1.712-.648-2.256-1.08l.96-1.824c.56.4 1.24.72 2.04.96s1.608.36 2.424.36c2.016 0 3.024-.576 3.024-1.728 0-.384-.136-.688-.408-.912-.272-.224-.616-.384-1.032-.48a18.11 18.11 0 00-1.728-.36c-1.024-.16-1.864-.344-2.52-.552a3.874 3.874 0 01-1.656-1.056c-.464-.496-.696-1.192-.696-2.088 0-1.152.48-2.072 1.44-2.76.96-.704 2.248-1.056 3.864-1.056.848 0 1.696.104 2.544.312.848.208 1.544.488 2.088.84l-.984 1.824c-1.04-.672-2.264-1.008-3.672-1.008-.976 0-1.72.16-2.232.48-.512.32-.768.744-.768 1.272 0 .416.144.744.432.984.288.24.64.416 1.056.528.432.112 1.032.24 1.8.384 1.024.176 1.848.368 2.472.576a3.61 3.61 0 011.632 1.008c.448.48.672 1.152.672 2.016 0 1.152-.496 2.072-1.488 2.76-.976.672-2.312 1.008-4.008 1.008zm8.064-16.944h2.712l-.456 11.496h-1.824l-.432-11.496zm1.368 16.944c-.448 0-.824-.144-1.128-.432a1.504 1.504 0 01-.456-1.104c0-.432.152-.792.456-1.08.304-.304.68-.456 1.128-.456.448 0 .816.152 1.104.456.288.288.432.648.432 1.08 0 .432-.152.8-.456 1.104a1.465 1.465 0 01-1.08.432z" fill="#33586F"/></svg>