<svg width="151" height="18" fill="none" xmlns="http://www.w3.org/2000/svg"><path fill-rule="evenodd" clip-rule="evenodd" d="M37.037 3.529l-5.484 11.934h.907l1.484-3.318h6.945l1.495 3.314h.961L37.861 3.525l-.824.004zm-2.712 7.81l3.116-6.848 3.093 6.849h-6.209zM59.497 6.97a3.162 3.162 0 00-.889-2.228c-.705-.709-1.86-1.155-3.306-1.155h-4.928v11.818h.874v-4.897h3.844l3.741 4.897h1.11l-3.878-5.05c1.979-.27 3.432-1.402 3.432-3.377V6.97zM51.24 9.708V4.41h4.012c2.132 0 3.375.997 3.375 2.584 0 1.74-1.46 2.737-3.432 2.737l-3.955-.023zm25.24-6.125h-1.19l-7.486 7.757V3.583h-.874v11.822h.874V12.4l2.921-2.984 4.832 5.979h1.144L71.362 8.79l5.118-5.208zm22.594.827h4.096v11.01h.873V4.41h4.092v-.827h-9.061v.827zm16.083 11.01h.873V3.584h-.873V15.42zm16.827-1.54l-8.109-10.297h-.823v11.822h.839V4.9l8.276 10.506h.656V3.583h-.839V13.88zm13.402-4.619v.77h3.814v3.3a5.824 5.824 0 01-3.624 1.312c-3.051 0-4.874-2.214-4.874-5.186 0-2.806 1.934-5.166 4.695-5.166a5.076 5.076 0 013.654 1.378l.553-.639a5.913 5.913 0 00-4.157-1.513c-3.395 0-5.622 2.841-5.622 5.94 0 3.265 2.128 5.94 5.721 5.94a6.804 6.804 0 004.47-1.724v-4.42l-4.63.008zM83.692 4.43h8.39v-.851h-8.39v.85zm5.824 4.67h-5.824v.842h5.824V9.1zm-5.824 6.305h8.39v-.843h-8.39v.843zM19.45.946L15.569 7.66 11.705.946H7.02v9.974a30.687 30.687 0 004.684 3.442V9.415l3.654 6.16h.42l3.672-6.16v8.023h4.66V.946h-4.66zM4.683 8.549V.946H0a26.538 26.538 0 004.683 7.603zM0 10.516v6.93h4.683v-3.67A35.879 35.879 0 010 10.517zm7.021 4.512v2.41h4.684v-.52a36.008 36.008 0 01-4.684-1.89z" fill="#CFCFCF"/></svg>