<svg width="40" height="39" fill="none" xmlns="http://www.w3.org/2000/svg"><g clip-path="url(#clip0_112_1071)" fill="#fff"><path d="M7.844 25.344v1.187h7.28a11.18 11.18 0 01-.125-1.187H7.844zm15.437-11.466V5.156h-5.937v12.695a11.296 11.296 0 015.937-3.973zM12 8.719h-1.188V7.53h-1.78v4.75h1.632l-.444-1.78h2.375l-.446 1.781h1.633v-4.75H12V8.72zm3.378 19H6.656v1.187h1.782a.594.594 0 01.593.594v3.563a.594.594 0 01-.594.593h-1.78v3.563h17.812v-1.343a11.296 11.296 0 01-9.09-8.157z"/><path d="M16.156 19.742V4.562a.594.594 0 01.594-.593h7.125a.594.594 0 01.594.594v9.06c.393-.062.79-.104 1.187-.124V2.781h-19v21.375H15a11.18 11.18 0 011.157-4.414zm-1.187-6.867a.593.593 0 01-.594.594H8.437a.594.594 0 01-.593-.594V4.562a.594.594 0 01.593-.593h5.938a.594.594 0 01.594.594v8.312z"/><path d="M13.781 5.156h-4.75v1.188h4.75V5.156zM7.844 30.094H6.656v2.375h1.188v-2.375zm20.186-5.098l-1.535 1.536L31 31.035l1.535-1.536-4.504-4.504z"/><path d="M26.25 14.656A10.094 10.094 0 1036.344 24.75 10.105 10.105 0 0026.25 14.656zm7.545 15.264l-2.375 2.375a.594.594 0 01-.84 0l-4.627-4.627-.404.405a3.538 3.538 0 01-4.658 4.176.595.595 0 01-.22-.98l1.423-1.421v-.942h-.942l-1.421 1.425a.594.594 0 01-.98-.219 3.537 3.537 0 013.343-4.768c.28.001.56.037.831.107l.704-.701-.594-.594h-.941a.594.594 0 01-.42-.174l-2.969-2.968a.594.594 0 010-.84l2.969-2.969a.594.594 0 01.84 0l2.968 2.969a.594.594 0 01.174.42v.941l.594.594.701-.704a3.394 3.394 0 01-.107-.831 3.543 3.543 0 014.765-3.343.594.594 0 01.222.98l-1.425 1.421v.942h.942l1.421-1.422a.594.594 0 01.98.219 3.537 3.537 0 01-3.343 4.765 3.394 3.394 0 01-.831-.107l-.405.404 4.627 4.627a.594.594 0 01-.002.84z"/><path d="M28.303 23.639l.681-.682a.599.599 0 01.621-.139c.256.097.527.148.801.15a2.38 2.38 0 002.362-2.114l-.755.753a.594.594 0 01-.42.174h-1.78a.594.594 0 01-.594-.593v-1.782c0-.157.062-.308.174-.42l.753-.754a2.38 2.38 0 00-2.115 2.362c.003.273.054.545.151.8a.594.594 0 01-.139.625l-.953.95.67.67a.58.58 0 01.543 0zm-3.834 1.951l-.95.953a.6.6 0 01-.621.14 2.335 2.335 0 00-.804-.152 2.379 2.379 0 00-2.362 2.115l.755-.753a.593.593 0 01.42-.174h1.78a.593.593 0 01.594.593v1.782a.594.594 0 01-.174.42l-.753.754a2.379 2.379 0 002.115-2.362 2.336 2.336 0 00-.151-.8.594.594 0 01.139-.622l.681-.68a.58.58 0 010-.545l-.67-.67zm.174-3.389a.594.594 0 01-.174-.42v-.941l-2.375-2.375-2.13 2.129 2.376 2.375h.941a.59.59 0 01.42.174l2.252 2.252.942-.942-2.252-2.252z"/></g><defs><clipPath id="clip0_112_1071"><path fill="#fff" transform="translate(.5)" d="M0 0h39v39H0z"/></clipPath></defs></svg>