<svg width="25" height="25" fill="none" xmlns="http://www.w3.org/2000/svg"><path d="M12 9.484a2.815 2.815 0 00-2.813 2.813A2.815 2.815 0 0012 15.109a2.815 2.815 0 002.813-2.812A2.815 2.815 0 0012 9.484z" fill="#fff"/><path d="M23.412 10.9l-1.868-.303a9.749 9.749 0 00-1.097-2.645l1.074-1.504a.703.703 0 00-.075-.906l-1.988-1.988a.7.7 0 00-.906-.075l-1.505 1.074a9.747 9.747 0 00-2.644-1.097L14.1 1.588A.703.703 0 0013.406 1h-2.812a.703.703 0 00-.694.588l-.303 1.868a9.748 9.748 0 00-2.645 1.097L5.448 3.479a.7.7 0 00-.906.075L2.554 5.542a.703.703 0 00-.075.906l1.074 1.504a9.748 9.748 0 00-1.097 2.645L.588 10.9a.703.703 0 00-.588.694v2.812c0 .344.249.637.588.694l1.868.303a9.747 9.747 0 001.097 2.644l-1.074 1.505c-.2.28-.168.663.075.906l1.988 1.988a.705.705 0 00.906.075l1.504-1.074a9.749 9.749 0 002.645 1.097l.303 1.868c.057.34.35.588.694.588h2.812a.703.703 0 00.694-.588l.303-1.868a9.748 9.748 0 002.644-1.097l1.505 1.074a.706.706 0 00.906-.075l1.988-1.988a.703.703 0 00.075-.906l-1.074-1.505a9.748 9.748 0 001.097-2.644l1.868-.303a.703.703 0 00.588-.694v-2.812a.703.703 0 00-.588-.694zM12 20.734c-4.265 0-7.734-3.47-7.734-7.734 0-4.265 3.47-7.734 7.734-7.734 4.265 0 7.734 3.47 7.734 7.734 0 4.265-3.47 7.734-7.734 7.734z" fill="#fff"/><path d="M15.248 14.956c-.774.944-1.935 1.56-3.248 1.56-1.313 0-2.474-.616-3.248-1.56a4.96 4.96 0 00-1.437 2.26c1.16 1.287 2.82 2.112 4.685 2.112 1.864 0 3.526-.825 4.685-2.113a4.96 4.96 0 00-1.437-2.259z" fill="#fff"/></svg>