<svg width="39" height="38" fill="none" xmlns="http://www.w3.org/2000/svg"><g clip-path="url(#clip0_285_402)" fill="#fff"><path d="M9.293 15.734h-8.15c-.631 0-1.143.499-1.143 1.114v14.101c0 .615.512 1.113 1.143 1.113h8.15c.841 0 1.523-.664 1.523-1.484v-13.36c0-.82-.682-1.484-1.523-1.484zm17.52-3.433v1.207h5.332V12.3c2.73-1.051 4.57-3.635 4.57-6.557 0-2.218-1.056-4.2-2.704-5.493-.75-.589-1.867-.077-1.867.862V4.25L29.48 5.733l-2.666-1.484V1.113c0-.94-1.116-1.45-1.867-.862-1.648 1.294-2.704 3.275-2.704 5.493 0 2.922 1.84 5.506 4.57 6.557z"/><path d="M36.715 20.187H35.19c1.262 0 2.286-.996 2.286-2.226s-1.023-2.227-2.286-2.227H24.527v-2.061a9.388 9.388 0 01-2.592-2.265c-2.59.47-4.787 2.225-5.736 4.69l-.431 1.12h-2.666v13.36h2.666c.447 1.745 2.056 2.969 3.902 2.969h13.998c1.262 0 2.285-.997 2.285-2.227s-1.023-2.226-2.285-2.226h1.523c1.262 0 2.286-.997 2.286-2.227s-1.023-2.226-2.286-2.226h1.524c1.262 0 2.285-.997 2.285-2.227s-1.023-2.227-2.285-2.227zM29.479 38c1.343 0 2.453-.968 2.638-2.227H26.84c.185 1.26 1.296 2.227 2.64 2.227z"/></g><defs><clipPath id="clip0_285_402"><path fill="#fff" d="M0 0h39v38H0z"/></clipPath></defs></svg>