<svg width="39" height="39" fill="none" xmlns="http://www.w3.org/2000/svg"><path d="M32.866 24.164a3.159 3.159 0 002.97 2.11A3.168 3.168 0 0039 23.108a3.168 3.168 0 00-3.164-3.164 3.159 3.159 0 00-2.97 2.11h-6.593v-2.11h1.374l4.123-2.748a3.132 3.132 0 001.886.639 3.168 3.168 0 003.164-3.164 3.168 3.168 0 00-3.164-3.164 3.168 3.168 0 00-3.164 3.164c0 .267.044.523.106.77l-3.589 2.394H3v12.656h23.273v-2.11h2.728l1.808 1.81a3.126 3.126 0 00-.317 1.355 3.168 3.168 0 003.164 3.164 3.168 3.168 0 003.164-3.164 3.168 3.168 0 00-3.164-3.164c-.487 0-.943.12-1.355.317l-2.427-2.427h-3.6v-2.109h6.592zm-23.468 2.11H7.29v-6.329H9.4v6.328z" fill="#fff"/><path d="M3 36.82h2.18V39h2.11v-2.18h14.765V39h2.11v-2.18h2.108v-4.218H3v4.218zM26.273 3H3v12.727h23.273V3zM9.398 13.617H7.29V7.29H9.4v6.328z" fill="#fff"/></svg>