<svg width="25" height="25" fill="none" xmlns="http://www.w3.org/2000/svg"><g clip-path="url(#clip0_124_1103)" fill="#fff"><path d="M24.794 18.54l-2.576-2.577a2.1 2.1 0 01-1.42 1.142l-.35.083-.084.352c-.142.6-.812 1.73-2.222 1.614l-.36-.029-.188.308a2.124 2.124 0 01-1.437.979l3.383 3.382a.703.703 0 001.164-.275l.954-2.861 2.861-.954a.703.703 0 00.275-1.164zm-16.388.893l-.188-.308-.36.03c-1.41.114-2.08-1.015-2.222-1.616l-.084-.35-.35-.084a2.1 2.1 0 01-1.42-1.142L1.206 18.54a.703.703 0 00.275 1.164l2.861.954.954 2.861a.703.703 0 001.164.275l3.383-3.382a2.124 2.124 0 01-1.437-.979zm7.987-.731l.639-1.048 1.223.099c.346.028.661-.2.741-.538l.284-1.195 1.194-.283a.703.703 0 00.538-.741l-.1-1.223 1.049-.64a.703.703 0 00.283-.87l-.472-1.133.799-.931a.703.703 0 000-.916l-.8-.932.473-1.133a.703.703 0 00-.283-.87l-1.048-.64.1-1.223a.703.703 0 00-.54-.74L19.28 3.46l-.284-1.194a.704.704 0 00-.74-.539l-1.224.1-.639-1.049a.703.703 0 00-.871-.283L14.389.97l-.931-.8a.703.703 0 00-.916 0l-.931.8-1.133-.473a.703.703 0 00-.871.283l-.639 1.048-1.223-.099a.703.703 0 00-.741.538L6.72 3.461l-1.194.283a.703.703 0 00-.538.741l.1 1.224-1.049.638a.703.703 0 00-.283.871l.472 1.133-.799.932a.703.703 0 000 .916l.8.931-.473 1.133a.703.703 0 00.283.87l1.048.64-.099 1.223c-.028.346.2.66.538.74l1.194.284.284 1.195c.08.337.395.566.74.538l1.224-.1.64 1.049c.18.296.55.416.87.283l1.133-.473.931.8a.703.703 0 00.916 0l.931-.8 1.133.473c.32.133.69.013.871-.283zm-3.649-3.945a.703.703 0 01-.994 0l-4.143-4.143a.703.703 0 010-.994l2.13-2.13a.703.703 0 01.995 0l1.515 1.515 3.398-3.398a.703.703 0 01.994 0l2.13 2.13a.703.703 0 010 .995l-6.025 6.025z"/><path d="M12.744 10.496a.703.703 0 01-.994 0l-1.515-1.515-1.136 1.136 3.148 3.148 5.03-5.03-1.135-1.136-3.398 3.397z"/></g><defs><clipPath id="clip0_124_1103"><path fill="#fff" transform="translate(1)" d="M0 0h24v24H0z"/></clipPath></defs></svg>