<svg width="25" height="25" fill="none" xmlns="http://www.w3.org/2000/svg"><g clip-path="url(#clip0_124_1117)" fill="#fff"><path d="M18 1H6c-1.103 0-2 .897-2 2v4.5a.5.5 0 00.5.5h15a.5.5 0 00.5-.5V3c0-1.103-.897-2-2-2zM9.5 6h-3a.5.5 0 01-.353-.853l.5-.5A.5.5 0 017.5 5h2a.5.5 0 110 1zm10 3h-15a.5.5 0 00-.5.5V22c0 1.103.897 2 2 2v.5a.5.5 0 00.5.5h1a.5.5 0 00.5-.5V24h8v.5a.5.5 0 00.5.5h1a.5.5 0 00.5-.5V24c1.103 0 2-.897 2-2V9.5a.5.5 0 00-.5-.5zm-10 3h-3a.5.5 0 01-.353-.854l.5-.5A.5.5 0 017.5 11h2a.5.5 0 110 1z"/></g><defs><clipPath id="clip0_124_1117"><path fill="#fff" transform="translate(0 1)" d="M0 0h24v24H0z"/></clipPath></defs></svg>