<svg width="38" height="38" fill="none" xmlns="http://www.w3.org/2000/svg"><path d="M9.888 21.537h.598v.597h-.598v-.597z" fill="#fff"/><path d="M9.087 27.371l-.15.144h8.124V16.157a.598.598 0 00-.598-.598H8.095a.598.598 0 00-.597.598v7.747a1.186 1.186 0 011.566.072.598.598 0 01.227-.048h1.793a.597.597 0 01.598.598v1.793a.597.597 0 01-.598.598h-1.65a2.539 2.539 0 01-.346.454zm3.79-10.019a.598.598 0 01.598-.598h1.793a.598.598 0 01.598.598v1.793a.598.598 0 01-.598.598h-1.793a.598.598 0 01-.598-.598v-1.793zm0 3.587a.598.598 0 01.598-.598h1.793a.598.598 0 01.598.598v1.793a.598.598 0 01-.598.598h-1.793a.598.598 0 01-.598-.598V20.94zm0 3.587a.598.598 0 01.598-.598h1.793a.597.597 0 01.598.598v1.793a.598.598 0 01-.598.598h-1.793a.598.598 0 01-.598-.598v-1.793zm-4.185-7.174a.598.598 0 01.598-.598h1.793a.598.598 0 01.598.598v1.793a.598.598 0 01-.598.598H9.29a.598.598 0 01-.598-.598v-1.793zm2.391 5.978H9.29a.598.598 0 01-.598-.598V20.94a.598.598 0 01.598-.598h1.793a.598.598 0 01.598.598v1.793a.597.597 0 01-.598.598z" fill="#fff"/><path d="M18.257 16.157v14.346a1.799 1.799 0 01-1.794 1.794h-4.782a.598.598 0 00.598.598h11.358V1.81H12.279a.598.598 0 00-.598.597v6.615a5.372 5.372 0 014.402 1.537.597.597 0 11-.845.845 4.178 4.178 0 00-3.557-1.176v1.21a2.99 2.99 0 012.712.811.597.597 0 11-.846.846 1.794 1.794 0 00-1.866-.419v1.687h4.783a1.8 1.8 0 011.793 1.794zm4.782.597v1.794a.598.598 0 11-1.195 0v-1.794a.597.597 0 111.195 0zM14.67 7.787a.598.598 0 01-.598-.597V3.603a.598.598 0 01.598-.598h7.174a.598.598 0 01.597.598V7.19a.598.598 0 01-.597.597H14.67z" fill="#fff"/><path d="M10.165 13.095a.598.598 0 00.845 0c.19-.188.419-.331.671-.419v-1.238a2.973 2.973 0 00-1.516.811.598.598 0 000 .846zm-1.69-2.536a.598.598 0 00.845.845 4.16 4.16 0 012.361-1.176V9.022a5.353 5.353 0 00-3.206 1.537zm6.793-3.967h5.978V4.201h-5.978v2.391zm4.184-1.793h.598a.598.598 0 010 1.195h-.598a.598.598 0 110-1.195zm-2.989 0h.598a.598.598 0 110 1.195h-.598a.598.598 0 010-1.195zM9.888 25.123h.598v.598h-.598v-.598zm0-7.173h.598v.598h-.598v-.598zm4.184 0h.598v.598h-.598v-.598zm2.391 13.151a.598.598 0 00.598-.598V28.71H7.94c0 .018-.012.036-.012.048a.562.562 0 00.173.394l.072.066a1.787 1.787 0 01.586 1.285 1.986 1.986 0 01-.096.598h7.801zm-4.782-1.793h1.196a.598.598 0 010 1.195H11.68a.598.598 0 010-1.195zm2.391-4.185h.598v.598h-.598v-.598zm0-3.586h.598v.597h-.598v-.597zm22.118 10.76V2.407a.598.598 0 00-.597-.597h-10.76v31.085h10.76a.598.598 0 00.597-.598zm-9.564-13.75a.598.598 0 01-1.196 0v-1.793a.598.598 0 011.196 0v1.794zm8.369-4.782a.598.598 0 01-.598.598h-7.173a.598.598 0 01-.598-.598V8.983a.598.598 0 01.598-.598h7.173a.598.598 0 01.598.598v4.782zm-.598-5.978h-7.173a.598.598 0 010-1.195h7.173a.598.598 0 110 1.195z" fill="#fff"/><path d="M9.087 33.39l.753-.944c.036-.047.06-.101.09-.15H8.094a1.834 1.834 0 01-.316-.035l-1.053 1.058a.606.606 0 01-.848 0 .603.603 0 010-.849l1.506-1.506a.591.591 0 00.125-.67.581.581 0 00-.143-.191l-.078-.072a1.727 1.727 0 01-.19-2.331c.005-.006.005-.012.011-.012a.932.932 0 01.138-.168l.992-.998a1.191 1.191 0 000-1.686l-2.505 2.505a.601.601 0 01-.849-.849l1.417-1.41v-2.703l-3.06 3.067a1.793 1.793 0 00-.527 1.267v9.17h5.978V34.51c0-.407.139-.802.395-1.118zm23.517-22.016a.598.598 0 01-.598.598h-2.391a.598.598 0 01-.598-.598V9.581h-1.196v3.587H33.8V9.58h-1.195v1.793zm-.598 22.716h1.793v1.196h-1.793V34.09zm-17.336 0h1.793v1.196H14.67V34.09z" fill="#fff"/><path d="M30.213 9.58h1.195v1.196h-1.195V9.581z" fill="#fff"/></svg>