<svg width="23" height="23" fill="none" xmlns="http://www.w3.org/2000/svg"><path d="M11.544 11.333a3.4 3.4 0 01-2.412-.997 3.415 3.415 0 010-4.825 3.391 3.391 0 012.412-.999 3.39 3.39 0 012.412 1 3.415 3.415 0 010 4.824 3.4 3.4 0 01-2.412.997zm0-5.47c-.528 0-1.056.2-1.458.602a2.064 2.064 0 001.458 3.52c.551 0 1.07-.214 1.458-.603a2.064 2.064 0 000-2.917 2.056 2.056 0 00-1.458-.603z" fill="#fff"/><path d="M11.551 23l-.521-.613c-.306-.359-7.481-8.852-7.481-14.392C3.549 3.586 7.135 0 11.544 0c4.408 0 7.994 3.586 7.994 7.995 0 5.268-7.169 14.015-7.474 14.384L11.55 23zm-.008-21.65a6.653 6.653 0 00-6.645 6.645c0 2.06 1.228 5.04 3.551 8.618a54.582 54.582 0 003.087 4.263 59.69 59.69 0 003.107-4.372c2.32-3.619 3.546-6.561 3.546-8.51a6.653 6.653 0 00-6.646-6.645z" fill="#fff"/></svg>