<svg width="26" height="26" fill="none" xmlns="http://www.w3.org/2000/svg"><path d="M18.448 0H7.553C3.388 0 0 3.388 0 7.553v10.894C0 22.612 3.388 26 7.553 26h10.894a7.472 7.472 0 003.416-.815 7.619 7.619 0 002.605-2.177 1.016 1.016 0 00-1.619-1.227 5.484 5.484 0 01-4.401 2.188H7.553a5.528 5.528 0 01-5.522-5.521V7.553A5.528 5.528 0 017.553 2.03h10.894a5.528 5.528 0 015.522 5.522v9.865a1.016 1.016 0 102.031 0V7.553C26 3.388 22.612 0 18.448 0z" fill="#fff"/><path d="M13 5.992A7.016 7.016 0 005.992 13 7.016 7.016 0 0013 20.008 7.016 7.016 0 0020.008 13 7.016 7.016 0 0013 5.992zm0 11.985A4.982 4.982 0 018.023 13 4.982 4.982 0 0113 8.023 4.982 4.982 0 0117.977 13 4.982 4.982 0 0113 17.977zm7.11-11.071a1.016 1.016 0 100-2.031 1.016 1.016 0 000 2.031z" fill="#fff"/></svg>