<svg width="28" height="28" fill="none" xmlns="http://www.w3.org/2000/svg"><g clip-path="url(#clip0_124_1263)" fill="#fff"><path d="M18.31 12.742l-6.186-3.385a1.126 1.126 0 00-1.125.02 1.126 1.126 0 00-.557.977v6.711c0 .403.207.768.553.975a1.134 1.134 0 001.122.026l6.186-3.327a1.136 1.136 0 00.007-1.997zm-6.227 3.479v-5.016l4.623 2.53-4.623 2.486z"/><path d="M27.794 8.396l-.001-.013c-.024-.225-.26-2.23-1.235-3.25-1.126-1.199-2.403-1.344-3.017-1.414a7.436 7.436 0 01-.14-.017l-.048-.005c-3.702-.27-9.292-.306-9.348-.306h-.01c-.056 0-5.646.037-9.381.306l-.05.005-.13.016c-.608.07-1.871.216-3 1.459C.504 6.185.236 8.147.208 8.367l-.003.029A58.153 58.153 0 000 12.964v2.095c0 2.241.198 4.474.206 4.568l.001.014c.024.222.26 2.19 1.23 3.21 1.06 1.159 2.398 1.312 3.119 1.395.114.013.212.024.278.036l.065.008c2.138.204 8.839.304 9.123.308h.017c.056 0 5.646-.037 9.348-.306l.048-.005.157-.018c.604-.064 1.86-.197 2.975-1.423.928-1.009 1.196-2.97 1.224-3.19l.003-.03c.008-.093.206-2.326.206-4.567v-2.095c0-2.242-.198-4.474-.206-4.568zm-1.435 6.663c0 2.074-.181 4.21-.198 4.407-.07.54-.353 1.781-.805 2.273-.697.767-1.414.843-1.937.898a8.91 8.91 0 00-.174.02c-3.58.259-8.96.299-9.208.3-.278-.004-6.88-.105-8.953-.297a7.245 7.245 0 00-.342-.045c-.613-.07-1.452-.166-2.098-.876l-.015-.016c-.445-.463-.72-1.624-.79-2.25a57.342 57.342 0 01-.198-4.414v-2.095c0-2.072.18-4.207.198-4.407.083-.636.372-1.802.805-2.273.719-.79 1.476-.878 1.978-.936.047-.006.092-.01.133-.016 3.633-.26 9.05-.299 9.245-.3.194 0 5.61.04 9.21.3l.145.017c.515.059 1.294.148 2.01.91l.006.007c.444.463.72 1.644.79 2.283.012.14.198 2.307.198 4.415v2.095z"/></g><defs><clipPath id="clip0_124_1263"><path fill="#fff" d="M0 0h28v28H0z"/></clipPath></defs></svg>