<svg width="18" height="18" fill="none" xmlns="http://www.w3.org/2000/svg"><path d="M.067 9.213C.208 9.419 3.615 14.25 9 14.25c4.62 0 8.738-4.803 8.912-5.008a.377.377 0 000-.484C17.738 8.553 13.62 3.75 9 3.75 4.38 3.75.262 8.553.088 8.758a.375.375 0 00-.021.455zM9 4.5c3.704 0 7.226 3.533 8.121 4.5-.893.968-4.411 4.5-8.121 4.5-4.334 0-7.394-3.527-8.14-4.48C1.721 8.084 5.263 4.5 9 4.5z" fill="silver"/><path d="M9 12c1.655 0 3-1.345 3-3 0-1.654-1.345-3-3-3S6 7.346 6 9c0 1.655 1.345 3 3 3zm0-5.25c1.24 0 2.25 1.01 2.25 2.25S10.24 11.25 9 11.25 6.75 10.24 6.75 9 7.76 6.75 9 6.75z" fill="silver"/></svg>