<svg width="23" height="23" fill="none" xmlns="http://www.w3.org/2000/svg"><path d="M18.897 4.05A10.423 10.423 0 0011.5 1a10.48 10.48 0 00-7.41 3.047A10.297 10.297 0 001 11.403v.005c0 1.678.442 3.37 1.279 4.915L1.029 22l5.748-1.306a10.52 10.52 0 004.718 1.12h.005c2.789 0 5.42-1.082 7.408-3.047 1.993-1.97 3.09-4.583 3.092-7.356 0-2.754-1.101-5.368-3.103-7.361zM11.5 20.175h-.004a8.873 8.873 0 01-4.215-1.068l-.272-.147-3.822.869.83-3.77-.16-.276C3.06 14.413 2.64 12.9 2.64 11.406c.003-4.832 3.976-8.767 8.858-8.767a8.793 8.793 0 016.24 2.572c1.69 1.683 2.621 3.884 2.62 6.2-.002 4.832-3.976 8.764-8.86 8.764z" fill="#fff"/><path d="M8.363 6.373h-.504a.967.967 0 00-.7.327c-.242.262-.92.896-.92 2.185 0 1.288.941 2.534 1.073 2.709.131.174 1.817 2.903 4.489 3.953 2.22.873 2.671.7 3.153.655.482-.043 1.555-.633 1.774-1.245.219-.611.219-1.136.153-1.245-.066-.11-.24-.175-.503-.306-.263-.13-1.551-.775-1.792-.863-.241-.087-.416-.13-.592.132-.175.262-.691.867-.844 1.042-.154.175-.307.197-.57.066-.263-.131-1.1-.413-2.104-1.305-.782-.694-1.324-1.58-1.477-1.842-.153-.262-.017-.404.115-.534.118-.118.278-.278.41-.43.13-.154.168-.263.256-.438.087-.175.043-.328-.022-.458-.066-.132-.57-1.427-.804-1.945-.197-.436-.404-.45-.591-.458z" fill="#fff"/></svg>