<svg width="27" height="27" fill="none" xmlns="http://www.w3.org/2000/svg"><path d="M21.028 5.904A9.912 9.912 0 0013.99 3a9.963 9.963 0 00-7.049 2.902 9.811 9.811 0 00-2.94 7.005v.005c0 1.598.42 3.21 1.216 4.681L4.027 23l5.47-1.244a10.012 10.012 0 004.49 1.067h.003a9.963 9.963 0 007.049-2.902c1.896-1.877 2.94-4.364 2.942-7.006 0-2.623-1.048-5.113-2.953-7.01zM13.99 21.262h-.004c-1.4 0-2.786-.352-4.01-1.017l-.259-.14-3.636.827.79-3.59-.153-.263c-.757-1.305-1.157-2.747-1.157-4.168.003-4.602 3.784-8.35 8.429-8.35 2.244 0 4.352.87 5.937 2.45 1.608 1.602 2.494 3.699 2.493 5.904-.002 4.602-3.784 8.347-8.43 8.347z" fill="#0CBAD0"/><path d="M11.272 8.541h-.438a.84.84 0 00-.61.285c-.209.228-.8.78-.8 1.9 0 1.12.82 2.203.934 2.355.114.152 1.58 2.526 3.903 3.438 1.93.76 2.324.608 2.743.57.419-.038 1.352-.55 1.542-1.082.19-.532.19-.988.134-1.083-.058-.095-.21-.152-.439-.266-.228-.114-1.348-.674-1.558-.75-.21-.076-.361-.114-.514.114-.152.227-.601.754-.734.906-.134.152-.267.171-.496.057-.228-.114-.957-.359-1.83-1.134-.679-.604-1.15-1.374-1.284-1.602-.133-.228-.014-.351.1-.465a6.85 6.85 0 00.356-.374c.114-.133.147-.228.223-.38.076-.152.038-.285-.019-.399-.057-.114-.496-1.24-.699-1.69-.171-.38-.351-.393-.514-.4z" fill="#0CBAD0"/></svg>