<svg width="55" height="55" viewBox="0 0 55 55" fill="none" xmlns="http://www.w3.org/2000/svg">
<path d="M32.0834 25.2082H29.7917V22.9166C29.7917 22.3088 29.5503 21.7259 29.1205 21.2961C28.6907 20.8663 28.1078 20.6249 27.5001 20.6249C26.8923 20.6249 26.3094 20.8663 25.8796 21.2961C25.4498 21.7259 25.2084 22.3088 25.2084 22.9166V25.2082H22.9167C22.3089 25.2082 21.726 25.4497 21.2963 25.8794C20.8665 26.3092 20.6251 26.8921 20.6251 27.4999C20.6251 28.1077 20.8665 28.6906 21.2963 29.1203C21.726 29.5501 22.3089 29.7916 22.9167 29.7916H25.2084V32.0832C25.2084 32.691 25.4498 33.2739 25.8796 33.7037C26.3094 34.1334 26.8923 34.3749 27.5001 34.3749C28.1078 34.3749 28.6907 34.1334 29.1205 33.7037C29.5503 33.2739 29.7917 32.691 29.7917 32.0832V29.7916H32.0834C32.6912 29.7916 33.2741 29.5501 33.7038 29.1203C34.1336 28.6906 34.3751 28.1077 34.3751 27.4999C34.3751 26.8921 34.1336 26.3092 33.7038 25.8794C33.2741 25.4497 32.6912 25.2082 32.0834 25.2082ZM46.2001 11.4582C43.7565 9.03984 40.529 7.57447 37.0999 7.32654C33.6709 7.0786 30.2661 8.06443 27.5001 10.1061C24.5843 7.93739 20.955 6.95398 17.3432 7.35393C13.7314 7.75389 10.4052 9.50751 8.03458 12.2616C5.66393 15.0158 4.42486 18.5659 4.5669 22.197C4.70893 25.8281 6.22152 29.2706 8.80006 31.8311L22.5501 45.6957C23.8391 46.9832 25.5865 47.7063 27.4084 47.7063C29.2303 47.7063 30.9777 46.9832 32.2667 45.6957L46.0167 31.8311C47.3709 30.508 48.4503 28.9304 49.1929 27.1888C49.9354 25.4472 50.3264 23.576 50.3434 21.6828C50.3605 19.7896 50.0032 17.9117 49.2921 16.157C48.5811 14.4023 47.5302 12.8055 46.2001 11.4582V11.4582ZM42.9688 28.5541L29.2188 42.3041C29.0058 42.5188 28.7523 42.6893 28.473 42.8057C28.1938 42.922 27.8943 42.9819 27.5917 42.9819C27.2892 42.9819 26.9897 42.922 26.7104 42.8057C26.4311 42.6893 26.1777 42.5188 25.9646 42.3041L12.2146 28.5541C10.4174 26.7169 9.41104 24.2491 9.41104 21.6791C9.41104 19.109 10.4174 16.6412 12.2146 14.8041C14.046 12.9959 16.516 11.982 19.0896 11.982C21.6632 11.982 24.1332 12.9959 25.9646 14.8041C26.1777 15.0189 26.4311 15.1893 26.7104 15.3057C26.9897 15.422 27.2892 15.4819 27.5917 15.4819C27.8943 15.4819 28.1938 15.422 28.473 15.3057C28.7523 15.1893 29.0058 15.0189 29.2188 14.8041C31.0502 12.9959 33.5202 11.982 36.0938 11.982C38.6674 11.982 41.1374 12.9959 42.9688 14.8041C44.7798 16.6432 45.7949 19.1208 45.7949 21.702C45.7949 24.2831 44.7798 26.7607 42.9688 28.5999V28.5541Z" fill="white"/>
</svg>
