<svg width="29" height="29" viewBox="0 0 29 29" fill="none" xmlns="http://www.w3.org/2000/svg">
<path fill-rule="evenodd" clip-rule="evenodd" d="M5.12225 12.5562C5.13966 7.43214 9.30763 3.29239 14.4317 3.30975C19.5557 3.32721 23.6955 7.49518 23.6781 12.6192V12.7243C23.615 16.0551 21.7552 19.1337 19.4752 21.5399C18.1712 22.894 16.715 24.0927 15.1357 25.1123C14.7134 25.4776 14.087 25.4776 13.6646 25.1123C11.3102 23.5799 9.2438 21.645 7.55993 19.3964C6.05913 17.4355 5.20704 15.0555 5.12225 12.5877V12.5562Z" stroke="#123F92" stroke-width="1.5" stroke-linecap="round" stroke-linejoin="round"/>
<path d="M14.3997 15.7084C16.042 15.7084 17.3734 14.377 17.3734 12.7347C17.3734 11.0924 16.042 9.76099 14.3997 9.76099C12.7573 9.76099 11.426 11.0924 11.426 12.7347C11.426 14.377 12.7573 15.7084 14.3997 15.7084Z" stroke="#123F92" stroke-width="1.5" stroke-linecap="round" stroke-linejoin="round"/>
</svg>
