<svg width="151" height="18" viewBox="0 0 151 18" fill="none" xmlns="http://www.w3.org/2000/svg">
<path fill-rule="evenodd" clip-rule="evenodd" d="M37.0371 3.52884L31.5527 15.4629H32.4604L33.944 12.1445H40.8891L42.3842 15.4591H43.3453L37.8609 3.52499L37.0371 3.52884ZM34.3254 11.3399L37.4414 4.49126L40.5344 11.3399H34.3254ZM59.497 6.97048C59.5013 6.55823 59.425 6.14918 59.2725 5.76672C59.12 5.38426 58.8944 5.03588 58.6084 4.7415C57.9028 4.03315 56.7472 3.58658 55.3018 3.58658H50.3742V15.4052H51.2476V10.5084H55.092L58.8334 15.4052H59.9433L56.0646 10.3544C58.044 10.0849 59.497 8.95307 59.497 6.97817V6.97048ZM51.24 9.70762V4.41042H55.2522C57.3842 4.41042 58.6275 5.40749 58.6275 6.99357C58.6275 8.73364 57.1668 9.73071 55.195 9.73071L51.24 9.70762ZM76.4803 3.58273H75.2903L67.8037 11.3399V3.58273H66.9303V15.4052H67.8037V12.3986L70.7251 9.41504L75.5573 15.3936H76.7015L71.362 8.79139L76.4803 3.58273ZM99.0737 4.41042H103.17V15.4206H104.043V4.41042H108.135V3.58273H99.0737V4.41042ZM115.157 15.4206H116.03V3.58273H115.157V15.4206ZM131.984 13.8807L123.875 3.58273H123.052V15.4052H123.891V4.89933L132.167 15.4052H132.823V3.58273H131.984V13.8807ZM145.386 9.26105V10.031H149.2V13.3302C148.173 14.1675 146.896 14.6301 145.576 14.6429C142.525 14.6429 140.702 12.4294 140.702 9.45739C140.702 6.65095 142.636 4.29108 145.397 4.29108C146.748 4.24399 148.062 4.73964 149.051 5.66927L149.604 5.03022C148.462 4.00555 146.974 3.46379 145.447 3.51729C142.052 3.51729 139.825 6.35837 139.825 9.45739C139.825 12.7219 141.953 15.3975 145.546 15.3975C147.193 15.3847 148.78 14.7723 150.016 13.6728V9.25335L145.386 9.26105ZM83.6923 4.42967H92.0829V3.57888H83.6923V4.42967ZM89.5161 9.09936H83.6923V9.94245H89.5161V9.09936ZM83.6923 15.4052H92.0829V14.5621H83.6923V15.4052Z" fill="white"/>
<path fill-rule="evenodd" clip-rule="evenodd" d="M19.4509 0.945801L15.5684 7.65969L11.7049 0.945801H7.02148V10.9204C8.47158 12.2142 10.0397 13.3665 11.7049 14.362V9.41516L15.3586 15.5747H15.7782L19.4509 9.41516V17.4379H24.1115V0.945801H19.4509Z" fill="white"/>
<path fill-rule="evenodd" clip-rule="evenodd" d="M4.68345 8.54897V0.945801H0C1.1226 3.72999 2.70635 6.30108 4.68345 8.54897Z" fill="white"/>
<path fill-rule="evenodd" clip-rule="evenodd" d="M0 10.5161V17.4455H4.68345V13.7768C3.03926 12.8167 1.47319 11.7264 0 10.5161H0Z" fill="white"/>
<path fill-rule="evenodd" clip-rule="evenodd" d="M7.02148 15.0278V17.4377H11.7049V16.918C10.1021 16.3986 8.5372 15.767 7.02148 15.0278Z" fill="white"/>
</svg>
