<svg width="25" height="25" viewBox="0 0 25 25" fill="none" xmlns="http://www.w3.org/2000/svg">
<path d="M21.0938 20.3125H3.90625C3.28465 20.3125 2.68851 20.0656 2.24897 19.626C1.80943 19.1865 1.5625 18.5904 1.5625 17.9688V7.03125C1.5625 6.40965 1.80943 5.81351 2.24897 5.37397C2.68851 4.93443 3.28465 4.6875 3.90625 4.6875H21.0938C21.7154 4.6875 22.3115 4.93443 22.751 5.37397C23.1906 5.81351 23.4375 6.40965 23.4375 7.03125V17.9688C23.4375 18.5904 23.1906 19.1865 22.751 19.626C22.3115 20.0656 21.7154 20.3125 21.0938 20.3125ZM3.90625 6.25C3.69905 6.25 3.50034 6.33231 3.35382 6.47882C3.20731 6.62534 3.125 6.82405 3.125 7.03125V17.9688C3.125 18.176 3.20731 18.3747 3.35382 18.5212C3.50034 18.6677 3.69905 18.75 3.90625 18.75H21.0938C21.301 18.75 21.4997 18.6677 21.6462 18.5212C21.7927 18.3747 21.875 18.176 21.875 17.9688V7.03125C21.875 6.82405 21.7927 6.62534 21.6462 6.47882C21.4997 6.33231 21.301 6.25 21.0938 6.25H3.90625Z" fill="#123F92"/>
<path d="M12.5 13.2813C12.3468 13.2801 12.1974 13.2339 12.0703 13.1485L2.69528 6.89846C2.54369 6.77635 2.44314 6.60204 2.41333 6.40968C2.38352 6.21732 2.4266 6.02076 2.53412 5.85849C2.64165 5.69623 2.80588 5.57995 2.99464 5.53243C3.18341 5.48491 3.38312 5.50957 3.55466 5.60158L12.9297 11.8516C13.0682 11.9447 13.1733 12.0797 13.2295 12.2369C13.2858 12.394 13.2902 12.5651 13.2421 12.7249C13.1941 12.8848 13.0961 13.025 12.9626 13.1251C12.829 13.2253 12.6669 13.28 12.5 13.2813Z" fill="#123F92"/>
<path d="M12.5 13.2812C12.3324 13.2816 12.1691 13.2281 12.0343 13.1286C11.8995 13.0291 11.8002 12.8888 11.7512 12.7286C11.7021 12.5683 11.7059 12.3966 11.762 12.2386C11.818 12.0807 11.9234 11.945 12.0625 11.8515L21.4375 5.60153C21.6094 5.4999 21.8137 5.46796 22.0084 5.51227C22.2031 5.55658 22.3735 5.67378 22.4845 5.83979C22.5955 6.0058 22.6387 6.20801 22.6053 6.40489C22.5718 6.60177 22.4643 6.77837 22.3047 6.89841L12.9297 13.1484C12.8026 13.2338 12.6531 13.28 12.5 13.2812Z" fill="#123F92"/>
</svg>
