<svg width="28" height="28" viewBox="0 0 28 28" fill="none" xmlns="http://www.w3.org/2000/svg">
<path d="M21.2835 23.334C21.1417 23.3342 21.0037 23.2884 20.8901 23.2036C20.7765 23.1187 20.6934 22.9994 20.6533 22.8634C20.6132 22.7273 20.6182 22.582 20.6676 22.4491C20.717 22.3162 20.8082 22.2029 20.9274 22.1261C21.5457 21.7187 22.0716 21.186 22.4709 20.5625C22.8484 19.9889 22.9779 19.5247 22.8567 19.1817C22.6104 18.4843 21.2844 17.9808 20.1569 17.6198C19.6591 17.4587 19.1264 17.4384 18.6178 17.5615C18.1093 17.6845 17.6447 17.9459 17.2756 18.3168L16.8486 18.7442C16.7721 18.8208 16.6778 18.8773 16.5742 18.9087C16.2811 18.9962 14.6724 19.2867 11.6939 16.3078C11.6329 16.2468 11.5844 16.1745 11.5514 16.0948C11.5183 16.0152 11.5012 15.9298 11.5011 15.8435C11.501 15.7573 11.518 15.6719 11.5509 15.5922C11.5838 15.5125 11.6321 15.44 11.6931 15.379C11.754 15.3179 11.8263 15.2695 11.906 15.2364C11.9856 15.2033 12.071 15.1862 12.1573 15.1862C12.2435 15.1861 12.3289 15.203 12.4087 15.2359C12.4884 15.2688 12.5608 15.3172 12.6219 15.3781C14.5757 17.3324 15.7194 17.6071 16.0956 17.6391L16.3476 17.3871C16.8871 16.8458 17.5658 16.4641 18.3086 16.2842C19.0513 16.1043 19.8294 16.1332 20.5568 16.3677C22.029 16.8393 23.6372 17.4501 24.094 18.7425C24.3596 19.4928 24.1815 20.3472 23.569 21.28C23.0694 22.0583 22.4119 22.723 21.6392 23.2312C21.5329 23.2989 21.4095 23.3346 21.2835 23.334ZM18.1304 24.2143C15.1266 24.2143 11.6777 22.4774 8.60037 19.3996C8.53769 19.339 8.4877 19.2666 8.4533 19.1866C8.41891 19.1065 8.40081 19.0204 8.40005 18.9333C8.39929 18.8461 8.4159 18.7597 8.44889 18.6791C8.48189 18.5984 8.53062 18.5251 8.59224 18.4635C8.65385 18.4019 8.72712 18.3532 8.80777 18.3202C8.88843 18.2872 8.97484 18.2706 9.06198 18.2713C9.14911 18.2721 9.23523 18.2902 9.31529 18.3246C9.39536 18.359 9.46777 18.409 9.52831 18.4716C12.4324 21.3762 15.7714 23.0269 18.4489 22.8939C18.5353 22.8883 18.6218 22.9001 18.7035 22.9286C18.7852 22.9571 18.8604 23.0016 18.9246 23.0596C18.9888 23.1176 19.0407 23.1879 19.0773 23.2663C19.1138 23.3446 19.1343 23.4296 19.1376 23.516C19.1464 23.6898 19.0858 23.86 18.9691 23.9892C18.8524 24.1183 18.6892 24.1958 18.5154 24.2046C18.3881 24.2108 18.2595 24.2143 18.1304 24.2143Z" fill="#123F92"/>
<path d="M9.06412 19.5921C8.97795 19.5921 8.89261 19.5752 8.81302 19.5421C8.73344 19.5091 8.66117 19.4606 8.60037 19.3996C5.28937 16.089 3.5035 12.2451 3.82331 9.11745C3.91417 8.16672 4.22253 7.24964 4.72451 6.43714C5.2265 5.62464 5.90867 4.93851 6.71825 4.43183C7.65318 3.81933 8.50762 3.64127 9.25575 3.90683C10.5481 4.36358 11.1593 5.97183 11.6305 7.44402C11.8653 8.17138 11.8944 8.94953 11.7145 9.69239C11.5346 10.4353 11.1527 11.1139 10.6111 11.6532L10.3526 11.9122C10.3841 12.2504 10.6391 13.3997 12.6201 15.379C12.7397 15.5027 12.8058 15.6685 12.8043 15.8406C12.8028 16.0126 12.7338 16.1772 12.6121 16.2989C12.4905 16.4206 12.3259 16.4896 12.1538 16.4911C11.9817 16.4926 11.816 16.4264 11.6922 16.3069C8.71368 13.3288 9.00331 11.7193 9.09125 11.427C9.12235 11.3233 9.17889 11.229 9.25575 11.1527L9.68318 10.7253C10.0538 10.3561 10.315 9.89154 10.438 9.3831C10.561 8.87465 10.541 8.3421 10.3801 7.84433C10.0192 6.71645 9.51562 5.39039 8.81868 5.14408C8.47525 5.02289 8.01062 5.15239 7.4375 5.52952C6.78955 5.92772 6.24338 6.47154 5.84239 7.11776C5.44139 7.76399 5.19661 8.49482 5.1275 9.2522C4.84706 11.991 6.49162 15.438 9.52656 18.4725C9.6184 18.5643 9.68095 18.6813 9.70629 18.8086C9.73164 18.9359 9.71864 19.0679 9.66895 19.1879C9.61925 19.3078 9.53509 19.4103 9.42712 19.4824C9.31915 19.5546 9.19221 19.593 9.06237 19.593L9.06412 19.5921Z" fill="#123F92"/>
</svg>
