<svg width="51" height="51" viewBox="0 0 51 51" fill="none" xmlns="http://www.w3.org/2000/svg">
<path d="M31.3863 12.4737C31.8742 12.7508 32.4519 12.8236 32.9934 12.6763C33.5348 12.529 33.996 12.1736 34.2763 11.6875C34.5083 11.2781 34.8696 10.9573 35.3035 10.7754C35.7374 10.5935 36.2194 10.5607 36.674 10.6823C37.1286 10.8038 37.5299 11.0728 37.8151 11.447C38.1004 11.8212 38.2533 12.2795 38.2501 12.75C38.2501 13.3136 38.0262 13.8541 37.6277 14.2526C37.2291 14.6511 36.6886 14.875 36.1251 14.875C35.5615 14.875 35.021 15.0989 34.6224 15.4974C34.2239 15.8959 34.0001 16.4364 34.0001 17C34.0001 17.5636 34.2239 18.1041 34.6224 18.5026C35.021 18.9011 35.5615 19.125 36.1251 19.125C37.2439 19.1243 38.3429 18.8291 39.3116 18.2691C40.2802 17.7091 41.0844 16.9041 41.6434 15.9348C42.2024 14.9656 42.4964 13.8663 42.496 12.7474C42.4955 11.6286 42.2006 10.5295 41.6409 9.56073C41.0811 8.59194 40.2762 7.78753 39.3071 7.22832C38.338 6.66912 37.2388 6.37482 36.1199 6.375C35.0011 6.37518 33.9019 6.66983 32.933 7.22934C31.9641 7.78886 31.1595 8.59353 30.6001 9.5625C30.4595 9.80503 30.3684 10.073 30.3319 10.3509C30.2954 10.6288 30.3142 10.9112 30.3873 11.1818C30.4604 11.4524 30.5863 11.7058 30.7577 11.9276C30.9292 12.1493 31.1428 12.3349 31.3863 12.4737ZM40.5238 27.625C39.966 27.5526 39.4022 27.7043 38.9561 28.0469C38.51 28.3894 38.2179 28.8949 38.1438 29.4525C37.6979 33.0547 35.9502 36.3696 33.23 38.7727C30.5098 41.1759 27.0048 42.5016 23.3751 42.5H11.4963L12.8776 41.1188C13.2733 40.7206 13.4955 40.182 13.4955 39.6206C13.4955 39.0592 13.2733 38.5206 12.8776 38.1225C10.8056 36.0424 9.3955 33.3956 8.82495 30.5156C8.2544 27.6356 8.5489 24.6511 9.67135 21.9381C10.7938 19.2252 12.694 16.9051 15.1326 15.27C17.5712 13.635 20.4391 12.7582 23.3751 12.75C23.9386 12.75 24.4791 12.5261 24.8777 12.1276C25.2762 11.7291 25.5001 11.1886 25.5001 10.625C25.5001 10.0614 25.2762 9.52091 24.8777 9.1224C24.4791 8.72388 23.9386 8.5 23.3751 8.5C19.7822 8.51499 16.2662 9.54175 13.2299 11.4627C10.1936 13.3836 7.75977 16.1209 6.20731 19.3611C4.65486 22.6013 4.04653 26.2133 4.45202 29.7833C4.85752 33.3532 6.26044 36.7368 8.50005 39.5462L4.8663 43.1163C4.57144 43.4151 4.3717 43.7945 4.29228 44.2068C4.21286 44.619 4.25732 45.0455 4.42005 45.4325C4.57947 45.8206 4.85019 46.1528 5.1981 46.3872C5.546 46.6217 5.95552 46.7479 6.37505 46.75H23.3751C28.0319 46.7506 32.529 45.0521 36.0227 41.9731C39.5164 38.8942 41.7666 34.6462 42.3513 30.0262C42.3902 29.7484 42.3736 29.4656 42.3027 29.1942C42.2317 28.9228 42.1077 28.6682 41.9378 28.4449C41.7679 28.2217 41.5555 28.0343 41.3128 27.8936C41.0701 27.7528 40.8019 27.6616 40.5238 27.625V27.625ZM36.9325 21.3987C36.5457 21.2276 36.1165 21.1758 35.7001 21.25L35.3176 21.3775L34.9351 21.5687L34.6163 21.845C34.4252 22.0408 34.2736 22.2717 34.1701 22.525C34.0444 22.7901 33.986 23.082 34.0001 23.375C33.9939 23.6584 34.0444 23.9402 34.1488 24.2037C34.2587 24.4588 34.4175 24.6898 34.6163 24.8837C34.8149 25.0807 35.0503 25.2365 35.3092 25.3423C35.5682 25.448 35.8454 25.5016 36.1251 25.5C36.6886 25.5 37.2291 25.2761 37.6277 24.8776C38.0262 24.4791 38.2501 23.9386 38.2501 23.375C38.2572 23.0962 38.199 22.8197 38.0801 22.5675C37.8517 22.0569 37.4432 21.6483 36.9325 21.42V21.3987Z" fill="white"/>
</svg>
