<svg width="28" height="28" viewBox="0 0 28 28" fill="none" xmlns="http://www.w3.org/2000/svg">
<g opacity="0.5">
<path d="M18.7997 10.8395C19.4437 10.1955 20.083 8.69282 17.3997 10.5175C13.587 13.1483 9.82917 15.6182 9.82917 15.6182C9.44235 15.7931 9.02417 15.888 8.59974 15.8972C8.17531 15.9064 7.75339 15.8298 7.35934 15.6718C5.74934 15.1888 3.86984 14.5448 3.86984 14.5448C3.86984 14.5448 2.58651 13.7387 4.78334 12.88C4.78334 12.88 14.0712 9.06849 17.2923 7.72565C18.5267 7.18899 22.7138 5.47165 22.7138 5.47165C22.7138 5.47165 24.647 4.71915 24.486 6.54499C24.4323 7.29632 24.003 9.92832 23.5737 12.7727C22.9285 16.7988 22.2308 21.2018 22.2308 21.2018C22.2308 21.2018 22.1235 22.4362 21.2112 22.6508C20.2345 22.6343 19.2909 22.2946 18.5278 21.6848C18.3132 21.5238 14.5017 19.1077 13.1052 17.927C12.9631 17.8308 12.8477 17.7002 12.7697 17.5473C12.6917 17.3945 12.6535 17.2245 12.6589 17.053C12.6643 16.8815 12.7129 16.7141 12.8003 16.5665C12.8877 16.4188 13.0111 16.2957 13.1588 16.2085C15.0955 14.4375 17.4043 12.236 18.7997 10.8395Z" fill="#A8A8A8"/>
</g>
</svg>
