<svg width="28" height="28" viewBox="0 0 28 28" fill="none" xmlns="http://www.w3.org/2000/svg">
<path d="M24.5273 9.08906C24.7322 8.88364 24.8472 8.60536 24.8472 8.31523C24.8472 8.02511 24.7322 7.74683 24.5273 7.54141L23.6961 6.71016C23.4907 6.50528 23.2124 6.39023 22.9222 6.39023C22.6321 6.39023 22.3538 6.50528 22.1484 6.71016L21.1312 7.73281C19.5652 6.41638 17.6644 5.56064 15.6406 5.26094V4.04688H16.2203C16.5149 4.04286 16.7964 3.92403 17.0047 3.71567C17.2131 3.50732 17.3319 3.22588 17.3359 2.93125V1.75547C17.3359 1.15391 16.8219 0.65625 16.2203 0.65625H11.7797C11.1781 0.65625 10.664 1.15391 10.664 1.75547V2.93125C10.669 3.22559 10.7881 3.50649 10.9963 3.71465C11.2044 3.92281 11.4853 4.04194 11.7797 4.04688H12.3594V5.26094C6.99998 6.04844 2.89294 10.675 2.89294 16.2422C2.89294 22.3617 7.87498 27.3383 13.9945 27.3383C20.114 27.3383 25.0961 22.3617 25.0961 16.2422C25.1005 14.1245 24.4928 12.0507 23.3461 10.2703L24.5273 9.08906ZM22.9195 7.48672L23.7508 8.31797L22.7062 9.3625C22.4601 9.05625 22.2031 8.76094 21.9242 8.47656L22.9195 7.48672ZM11.7578 2.95312V1.75H16.2422V2.95312H11.7578ZM13.4531 4.04688H14.5469V5.15703C14.3281 5.14609 14.175 5.14609 14 5.14609C13.825 5.14609 13.6719 5.15156 13.4531 5.15703V4.04688ZM14 26.2445C8.48201 26.2445 3.99763 21.7547 3.99763 16.2422C3.99763 10.7297 8.48201 6.23438 14 6.23438C19.5179 6.23438 24.0023 10.7242 24.0023 16.2422C24.0023 21.7602 19.5179 26.2445 14 26.2445Z" fill="#123F92"/>
<path d="M14 7.32812H13.8961C9.0945 7.38281 5.19528 11.2547 5.09138 16.0453C5.05228 16.1215 5.03167 16.2058 5.03122 16.2914C5.03021 16.3814 5.05284 16.47 5.09685 16.5484C5.26091 21.2734 9.12184 25.0797 13.8687 25.1453C13.894 25.1499 13.9196 25.1517 13.9453 25.1508C13.9673 25.1517 13.9893 25.1498 14.0109 25.1453C18.9218 25.1453 22.914 21.1531 22.914 16.2422C22.914 11.3258 18.9164 7.32812 14 7.32812ZM14.4922 24.0406V23.0234C14.4922 22.8784 14.4345 22.7393 14.332 22.6367C14.2294 22.5342 14.0903 22.4766 13.9453 22.4766C13.8002 22.4766 13.6611 22.5342 13.5586 22.6367C13.456 22.7393 13.3984 22.8784 13.3984 23.0234V24.0352C9.56481 23.7398 6.49685 20.6773 6.207 16.8438H7.16403C7.30907 16.8438 7.44817 16.7861 7.55073 16.6836C7.65329 16.581 7.71091 16.4419 7.71091 16.2969C7.71091 16.1518 7.65329 16.0127 7.55073 15.9102C7.44817 15.8076 7.30907 15.75 7.16403 15.75H6.19606C6.31645 13.8693 7.11105 12.0951 8.43404 10.7531C9.75702 9.41099 11.5196 8.59106 13.3984 8.44375V9.46094C13.3984 9.60598 13.456 9.74508 13.5586 9.84764C13.6611 9.9502 13.8002 10.0078 13.9453 10.0078C14.0903 10.0078 14.2294 9.9502 14.332 9.84764C14.4345 9.74508 14.4922 9.60598 14.4922 9.46094V8.43828C16.3911 8.56078 18.1806 9.37044 19.5261 10.716C20.8717 12.0616 21.6814 13.851 21.8039 15.75H20.7265C20.5815 15.75 20.4424 15.8076 20.3398 15.9102C20.2373 16.0127 20.1796 16.1518 20.1796 16.2969C20.1796 16.4419 20.2373 16.581 20.3398 16.6836C20.4424 16.7861 20.5815 16.8438 20.7265 16.8438H21.7929C21.4976 20.7102 18.375 23.8 14.4922 24.0406Z" fill="#123F92"/>
<path d="M17.1117 15.8047H14.5469V12.1898C14.5469 12.0448 14.4893 11.9057 14.3867 11.8031C14.2841 11.7006 14.145 11.6429 14 11.6429C13.855 11.6429 13.7159 11.7006 13.6133 11.8031C13.5107 11.9057 13.4531 12.0448 13.4531 12.1898V16.357C13.4516 16.4276 13.4642 16.4978 13.4902 16.5634C13.5162 16.6291 13.555 16.6889 13.6044 16.7393C13.6538 16.7898 13.7128 16.8298 13.778 16.8571C13.8431 16.8845 13.913 16.8985 13.9836 16.8984H17.1063C17.2513 16.8991 17.3907 16.8422 17.4938 16.7402C17.5968 16.6381 17.6551 16.4993 17.6559 16.3543C17.6566 16.2092 17.5997 16.0698 17.4976 15.9668C17.3956 15.8637 17.2568 15.8054 17.1117 15.8047Z" fill="#123F92"/>
</svg>
