<svg width="27" height="27" viewBox="0 0 27 27" fill="none" xmlns="http://www.w3.org/2000/svg">
<g opacity="0.5">
<path d="M24.75 6.52499C23.9044 6.89185 23.0101 7.13436 22.095 7.24499C23.0604 6.66823 23.7839 5.76087 24.1313 4.69124C23.224 5.23131 22.2309 5.61183 21.195 5.81624C20.5026 5.06539 19.5806 4.56558 18.5735 4.3952C17.5665 4.22482 16.5314 4.39352 15.6305 4.87483C14.7297 5.35614 14.014 6.12284 13.5959 7.05468C13.1777 7.98653 13.0807 9.03081 13.32 10.0237C11.4856 9.93096 9.69125 9.45331 8.05349 8.62184C6.41573 7.79036 4.9712 6.62365 3.81375 5.19749C3.40778 5.90643 3.19446 6.70929 3.195 7.52624C3.19356 8.28492 3.37974 9.03219 3.73697 9.7015C4.0942 10.3708 4.6114 10.9414 5.2425 11.3625C4.50897 11.3425 3.79112 11.1457 3.15 10.7887V10.845C3.1555 11.908 3.52799 12.9365 4.20448 13.7565C4.88096 14.5764 5.81991 15.1376 6.8625 15.345C6.46116 15.4671 6.04448 15.5315 5.625 15.5362C5.33463 15.5329 5.04498 15.5065 4.75875 15.4575C5.05565 16.3719 5.6302 17.171 6.40246 17.7437C7.17472 18.3163 8.10627 18.634 9.0675 18.6525C7.44435 19.9297 5.44037 20.6267 3.375 20.6325C2.99895 20.6337 2.6232 20.6112 2.25 20.565C4.35873 21.9265 6.81616 22.6493 9.32625 22.6462C11.0584 22.6642 12.7768 22.3369 14.381 21.6833C15.9852 21.0298 17.4432 20.0631 18.6696 18.8398C19.8961 17.6165 20.8665 16.1611 21.5241 14.5585C22.1818 12.956 22.5135 11.2384 22.5 9.50624C22.5 9.31499 22.5 9.11249 22.5 8.90999C23.3828 8.25165 24.1442 7.4446 24.75 6.52499V6.52499Z" fill="#A8A8A8"/>
</g>
</svg>
