<svg width="28" height="28" viewBox="0 0 28 28" fill="none" xmlns="http://www.w3.org/2000/svg">
<g opacity="0.5">
<path d="M27.3653 6.74799C27.0503 7.73849 26.6256 8.60066 26.0936 9.38349L26.1158 9.34849C25.5931 10.2196 24.969 11.226 24.2433 12.3678C23.6211 13.2693 23.2917 13.7359 23.2551 13.7678C23.0941 13.9697 22.9821 14.217 22.9436 14.4888L22.9425 14.497C22.974 14.7443 23.0883 14.9602 23.2551 15.1212L23.7218 15.6415C26.2185 18.2074 27.6228 19.976 27.9346 20.9475C27.9755 21.0548 27.9988 21.1785 27.9988 21.308C27.9988 21.5343 27.9265 21.7432 27.804 21.9147L27.8063 21.9112C27.601 22.1223 27.314 22.253 26.9966 22.253C26.9616 22.253 26.9255 22.2518 26.8916 22.2483H26.8963H23.8268C23.8256 22.2483 23.8233 22.2483 23.821 22.2483C23.4278 22.2483 23.0661 22.1107 22.7826 21.882L22.7861 21.8843C22.3731 21.5448 22.0056 21.1773 21.6766 20.7783L21.6661 20.7643C21.1287 20.1569 20.6519 19.6455 20.2358 19.2302C18.8498 17.9126 17.827 17.2538 17.1675 17.2538C17.143 17.2515 17.115 17.2503 17.0858 17.2503C16.8933 17.2503 16.7136 17.3098 16.5655 17.4113L16.569 17.409C16.4476 17.5607 16.3741 17.7567 16.3741 17.9678C16.3741 18.0098 16.3765 18.0495 16.3823 18.0903V18.0857C16.3508 18.452 16.3321 18.8778 16.3321 19.3083C16.3321 19.4472 16.3345 19.5848 16.338 19.7225V19.7027V21.0548C16.3496 21.1097 16.3566 21.1727 16.3566 21.2368C16.3566 21.5192 16.2283 21.7712 16.0276 21.938L16.0265 21.9392C15.575 22.1457 15.0476 22.267 14.4911 22.267C14.3721 22.267 14.2555 22.2612 14.14 22.2507L14.1551 22.2518C12.3188 22.2168 10.6155 21.679 9.16765 20.7725L9.20848 20.7958C7.44565 19.7248 5.98498 18.3307 4.87198 16.6833L4.84048 16.6343C3.78348 15.232 2.79765 13.6477 1.95765 11.977L1.87598 11.7973C1.38481 10.8617 0.876146 9.71133 0.437479 8.52833L0.367479 8.31249C0.188979 7.78049 0.059479 7.16216 0.00581234 6.52166L0.003479 6.49249C0.003479 5.90294 0.350368 5.60816 1.04415 5.60816H4.11248C4.14048 5.60583 4.17315 5.60466 4.20698 5.60466C4.49631 5.60466 4.76348 5.70383 4.97465 5.87066L4.97231 5.86833C5.20565 6.12383 5.37831 6.43766 5.46348 6.78766L5.46698 6.80166C6.03165 8.39649 6.63015 9.73583 7.31848 11.0192L7.24031 10.8593C7.80265 11.991 8.42448 12.9652 9.13381 13.8647L9.10698 13.8285C9.7292 14.5923 10.2145 14.9742 10.563 14.9742C10.5735 14.9753 10.5863 14.9753 10.6003 14.9753C10.773 14.9753 10.9235 14.882 11.0051 14.742L11.0063 14.7397C11.0926 14.518 11.1428 14.2602 11.1428 13.9918C11.1428 13.9347 11.1405 13.8775 11.1358 13.8215V13.8285V9.30299C11.1113 8.76983 10.9806 8.27166 10.7625 7.82483L10.7718 7.84699C10.6271 7.53899 10.4533 7.27299 10.2468 7.03616L10.2503 7.04083C10.059 6.84949 9.92831 6.59866 9.88748 6.31866L9.88631 6.31166C9.88631 6.11333 9.97731 5.93483 10.1196 5.81816L10.1208 5.81699C10.262 5.68749 10.451 5.60933 10.6575 5.60933H10.6668H15.5038C15.5295 5.60583 15.5586 5.60466 15.589 5.60466C15.8165 5.60466 16.0206 5.70733 16.156 5.86833L16.1571 5.86949C16.2773 6.08883 16.3485 6.35133 16.3485 6.62899C16.3485 6.67333 16.3461 6.71649 16.3426 6.75966V6.75383V12.789C16.3403 12.817 16.3391 12.8497 16.3391 12.8823C16.3391 13.097 16.3986 13.2988 16.5013 13.4703L16.499 13.4657C16.5841 13.5917 16.7265 13.6733 16.8875 13.6733H16.8886C17.094 13.6593 17.2806 13.5917 17.4381 13.4843L17.4346 13.4867C17.752 13.2685 18.025 13.02 18.2618 12.7388L18.2665 12.733C18.9746 11.9327 19.628 11.0483 20.1973 10.108L20.2428 10.0263C20.6441 9.36133 21.0781 8.54233 21.4713 7.70116L21.5436 7.52966L22.064 6.48899C22.2448 5.96866 22.7301 5.60233 23.3006 5.60233C23.3228 5.60233 23.345 5.60233 23.3671 5.60349H23.3636H26.4331C27.2623 5.60349 27.5734 5.98499 27.3665 6.74799H27.3653Z" fill="#A8A8A8"/>
</g>
</svg>
