<svg width="500" height="226" viewBox="0 0 500 226" fill="none" xmlns="http://www.w3.org/2000/svg">
<g clip-path="url(#clip0_46_60)">
<g filter="url(#filter0_d_46_60)">
<path d="M151.239 136.72C151.959 136.72 152.319 138.64 152.319 142.48C152.319 145.12 152.079 147.64 151.599 150.04C151.359 152.44 150.999 153.64 150.519 153.64L126.759 152.56V202.6C126.759 205 125.799 206.68 123.879 207.64L95.4391 221.68C93.9991 222.16 93.2791 222.4 93.2791 222.4C92.5591 222.4 92.1991 221.44 92.1991 219.52V151.48C77.7991 151.24 51.1591 151.12 12.2791 151.12C11.0791 151.12 10.1191 150.64 9.39906 149.68C8.67906 148.72 8.79906 147.76 9.75906 146.8L121.359 11.44C121.839 10.96 122.559 10.72 123.519 10.72C124.239 10.72 124.959 10.96 125.679 11.44C126.399 11.68 126.759 12.16 126.759 12.88V137.44C131.559 137.44 139.719 137.2 151.239 136.72ZM33.8791 138.88C61.7191 138.88 81.1591 138.76 92.1991 138.52V65.8L32.0791 136.36C30.6391 138.04 31.2391 138.88 33.8791 138.88ZM250.619 158.68C235.739 158.68 222.419 155.44 210.659 148.96C199.139 142.48 190.019 133.6 183.299 122.32C176.819 110.8 173.579 97.96 173.579 83.8C173.579 69.64 176.819 57.04 183.299 46C190.019 34.72 199.139 25.96 210.659 19.72C222.419 13.48 235.739 10.36 250.619 10.36C265.499 10.36 278.699 13.6 290.219 20.08C301.739 26.32 310.619 35.08 316.859 46.36C323.339 57.64 326.579 70.36 326.579 84.52C326.579 98.68 323.339 111.4 316.859 122.68C310.379 133.96 301.379 142.84 289.859 149.32C278.339 155.56 265.259 158.68 250.619 158.68ZM254.219 151.12C265.259 151.12 273.539 145.72 279.059 134.92C284.819 124.12 287.699 109 287.699 89.56C287.699 65.32 283.859 47.32 276.179 35.56C268.739 23.8 259.259 17.92 247.739 17.92C236.459 17.92 227.699 23.56 221.459 34.84C215.219 45.88 212.099 60.88 212.099 79.84C212.099 101.2 215.939 118.48 223.619 131.68C231.299 144.64 241.499 151.12 254.219 151.12ZM486.981 136.72C487.701 136.72 488.061 138.64 488.061 142.48C488.061 145.12 487.821 147.64 487.341 150.04C487.101 152.44 486.741 153.64 486.261 153.64L462.501 152.56V202.6C462.501 205 461.541 206.68 459.621 207.64L431.181 221.68C429.741 222.16 429.021 222.4 429.021 222.4C428.301 222.4 427.941 221.44 427.941 219.52V151.48C413.541 151.24 386.901 151.12 348.021 151.12C346.821 151.12 345.861 150.64 345.141 149.68C344.421 148.72 344.541 147.76 345.501 146.8L457.101 11.44C457.581 10.96 458.301 10.72 459.261 10.72C459.981 10.72 460.701 10.96 461.421 11.44C462.141 11.68 462.501 12.16 462.501 12.88V137.44C467.301 137.44 475.461 137.2 486.981 136.72ZM369.621 138.88C397.461 138.88 416.901 138.76 427.941 138.52V65.8L367.821 136.36C366.381 138.04 366.981 138.88 369.621 138.88Z" fill="white"/>
</g>
</g>
<defs>
<filter id="filter0_d_46_60" x="4.31885" y="8.35938" width="487.742" height="220.041" filterUnits="userSpaceOnUse" color-interpolation-filters="sRGB">
<feFlood flood-opacity="0" result="BackgroundImageFix"/>
<feColorMatrix in="SourceAlpha" type="matrix" values="0 0 0 0 0 0 0 0 0 0 0 0 0 0 0 0 0 0 127 0" result="hardAlpha"/>
<feOffset dy="2"/>
<feGaussianBlur stdDeviation="2"/>
<feComposite in2="hardAlpha" operator="out"/>
<feColorMatrix type="matrix" values="0 0 0 0 0 0 0 0 0 0 0 0 0 0 0 0 0 0 0.25 0"/>
<feBlend mode="normal" in2="BackgroundImageFix" result="effect1_dropShadow_46_60"/>
<feBlend mode="normal" in="SourceGraphic" in2="effect1_dropShadow_46_60" result="shape"/>
</filter>
<clipPath id="clip0_46_60">
<rect width="500" height="226" fill="white"/>
</clipPath>
</defs>
</svg>
