<svg width="23" height="23" viewBox="0 0 23 23" fill="none" xmlns="http://www.w3.org/2000/svg">
<g clip-path="url(#clip0_387_1007)">
<path d="M17.6815 11.5017C17.5634 11.5017 17.4476 11.4535 17.364 11.3698C17.2803 11.2861 17.2324 11.1701 17.2324 11.0516C17.2324 10.9333 17.2803 10.8172 17.364 10.7335C17.4476 10.6499 17.5634 10.6017 17.6815 10.6017C17.7997 10.6017 17.9156 10.6499 17.9991 10.7335C18.0826 10.8172 18.1307 10.9333 18.1307 11.0516C18.1307 11.1701 18.0826 11.2861 17.9991 11.3698C17.9156 11.4535 17.7997 11.5017 17.6815 11.5017Z" fill="#506369"/>
<path d="M21.018 21.7542H1.89216C1.19289 21.7542 0.566789 21.392 0.21724 20.7854C-0.132309 20.1787 -0.132309 19.4543 0.21724 18.8477L9.78035 2.2516C10.1299 1.64502 10.756 1.28284 11.4551 1.28284C12.1542 1.28284 12.7803 1.64502 13.1298 2.2516L17.0953 9.13318C17.2193 9.34838 17.1456 9.62371 16.9308 9.74802C16.7159 9.87215 16.4413 9.79848 16.3172 9.58327L12.352 2.7017C12.1647 2.37696 11.8294 2.18286 11.4551 2.18286C11.0808 2.18286 10.7455 2.37696 10.5582 2.7017L0.995302 19.2977C0.808069 19.6226 0.808069 20.0104 0.995302 20.3353C1.18236 20.6603 1.5177 20.8542 1.89216 20.8542H21.018C21.3925 20.8542 21.7277 20.6603 21.9149 20.3353C22.1021 20.0104 22.1021 19.6226 21.9149 19.2977L18.0816 12.6452C17.9576 12.43 18.0313 12.1548 18.246 12.0305C18.4608 11.9062 18.7356 11.9799 18.8597 12.1952L22.693 18.8477C23.0425 19.4543 23.0425 20.1787 22.693 20.7854C22.3432 21.392 21.7173 21.7542 21.018 21.7542Z" fill="#506369"/>
<path d="M11.4549 14.8995C10.6623 14.8995 10.0176 14.2533 10.0176 13.4593V9.39753C10.0176 8.60336 10.6623 7.9574 11.4549 7.9574C12.2475 7.9574 12.8922 8.60336 12.8922 9.39753V13.4593C12.8922 14.2533 12.2475 14.8995 11.4549 14.8995ZM11.4549 8.85759C11.1576 8.85759 10.9158 9.09987 10.9158 9.39753V13.4593C10.9158 13.7572 11.1576 13.9994 11.4549 13.9994C11.7522 13.9994 11.994 13.7572 11.994 13.4593V9.39753C11.994 9.09987 11.7522 8.85759 11.4549 8.85759Z" fill="#506369"/>
<path d="M11.4549 18.86C10.6623 18.86 10.0176 18.2141 10.0176 17.4199C10.0176 16.6257 10.6623 15.9797 11.4549 15.9797C12.2475 15.9797 12.8922 16.6257 12.8922 17.4199C12.8922 17.8046 12.7427 18.1662 12.4713 18.4382C12.1998 18.7102 11.8388 18.86 11.4549 18.86ZM11.4549 16.8798C11.1576 16.8798 10.9158 17.122 10.9158 17.4199C10.9158 17.7177 11.1576 17.96 11.4549 17.96C11.5988 17.96 11.7343 17.9037 11.836 17.8018C11.9378 17.6998 11.994 17.564 11.994 17.4199C11.994 17.122 11.7522 16.8798 11.4549 16.8798Z" fill="#506369"/>
</g>
<defs>
<clipPath id="clip0_387_1007">
<rect width="23" height="23" fill="white"/>
</clipPath>
</defs>
</svg>
