<svg width="23" height="23" viewBox="0 0 23 23" fill="none" xmlns="http://www.w3.org/2000/svg">
<path d="M21.5877 16.2394C21.5496 16.2078 17.245 13.1272 16.077 13.3292C15.5157 13.4284 15.1944 13.8108 14.5511 14.5777C14.4476 14.7013 14.1982 14.9967 14.0056 15.2073C13.599 15.0749 13.2024 14.9134 12.8189 14.7243C10.8391 13.7605 9.23952 12.1609 8.27569 10.1811C8.08656 9.79758 7.92515 9.40102 7.79269 8.99444C8.004 8.80109 8.30013 8.55169 8.42662 8.44531C9.18922 7.80562 9.57159 7.48434 9.67078 6.92228C9.87419 5.75862 6.79219 1.45044 6.76056 1.41162C6.62021 1.21257 6.43741 1.04716 6.22536 0.927343C6.01331 0.807522 5.7773 0.736277 5.53437 0.71875C4.28519 0.71875 0.71875 5.34462 0.71875 6.12447C0.71875 6.16975 0.784156 10.7726 6.46012 16.5463C12.2274 22.2158 16.8302 22.2812 16.8755 22.2812C17.6554 22.2812 22.2812 18.7148 22.2812 17.4656C22.2637 17.2226 22.1924 16.9865 22.0725 16.7745C21.9525 16.5624 21.7869 16.3796 21.5877 16.2394ZM16.7965 20.8394C16.1683 20.7877 12.3057 20.2781 7.47644 15.5336C2.70753 10.6785 2.21088 6.80513 2.16128 6.20497C3.1034 4.72624 4.24119 3.38173 5.54372 2.208C5.57247 2.23675 5.61056 2.27988 5.65944 2.33594C6.65837 3.69957 7.5189 5.15938 8.22825 6.69372C7.99757 6.92578 7.75376 7.1444 7.498 7.3485C7.10139 7.6507 6.73719 7.99322 6.41125 8.37056L6.23659 8.61494L6.28834 8.91034C6.44045 9.56924 6.67342 10.2068 6.98194 10.8086C8.08729 13.0784 9.92146 14.9123 12.1914 16.0173C12.7931 16.3263 13.4307 16.5595 14.0897 16.7117L14.3851 16.7634L14.6294 16.5887C15.0082 16.2614 15.3522 15.8957 15.6558 15.4977C15.8808 15.2289 16.1819 14.8702 16.2955 14.7689C17.8342 15.4775 19.2977 16.3391 20.6641 17.3406C20.7237 17.3909 20.7654 17.4297 20.7934 17.4548C19.6199 18.7578 18.2754 19.8958 16.7965 20.838V20.8394Z" fill="#506369"/>
</svg>
