<svg width="18" height="17" viewBox="0 0 18 17" fill="none" xmlns="http://www.w3.org/2000/svg">
<path d="M3.57967 0H2.73096C2.43553 0 1.95588 0.113 1.55015 0.564094C1.14413 1.01549 0 2.10651 0 4.32542C0 6.54433 1.58712 8.68831 1.80832 8.98954C2.02981 9.29047 4.87195 13.9893 9.37337 15.797C13.1145 17.2993 13.876 17.0005 14.6877 16.9252C15.4998 16.8503 17.3081 15.8345 17.6771 14.7815C18.0462 13.7286 18.0462 12.8258 17.9356 12.6373C17.8247 12.4493 17.5293 12.3366 17.0866 12.1112C16.6436 11.8855 14.473 10.7761 14.067 10.6253C13.661 10.4752 13.3659 10.3999 13.0704 10.8516C12.775 11.3024 11.9053 12.3454 11.6469 12.6463C11.3887 12.9476 11.1302 12.9853 10.6872 12.7596C10.2443 12.5333 8.8325 12.0487 7.1407 10.5126C5.82387 9.31706 4.9101 7.79247 4.65164 7.34107C4.39348 6.88998 4.62414 6.64585 4.84623 6.42076C5.04524 6.21893 5.31405 5.94277 5.53554 5.67961C5.75674 5.41614 5.81973 5.22821 5.96759 4.92728C6.11515 4.62635 6.04122 4.36289 5.93062 4.13749C5.81973 3.91179 4.96984 1.68171 4.57594 0.789791H4.57624C4.24444 0.0386737 3.8952 0.0132941 3.57967 0V0Z" fill="white"/>
</svg>
