<svg width="23" height="23" viewBox="0 0 23 23" fill="none" xmlns="http://www.w3.org/2000/svg">
<path d="M2.02148 2.74023H20.9785C22.0918 2.74023 23 3.64748 23 4.76172V18.2383C23 19.3487 22.0958 20.2598 20.9785 20.2598H2.02148C0.911016 20.2598 0 19.3556 0 18.2383V4.76172C0 3.65125 0.904188 2.74023 2.02148 2.74023ZM2.30063 4.08789L11.4571 13.2445L20.6929 4.08789H2.30063ZM21.6523 17.9592V5.03435L15.1621 11.469L21.6523 17.9592ZM20.6994 18.9121L14.2051 12.4178L11.9295 14.6738C11.666 14.935 11.2409 14.9341 10.9786 14.6718L8.75977 12.4529L2.30058 18.9121H20.6994ZM1.34766 17.9592L7.80684 11.5L1.34766 5.04077V17.9592Z" fill="#506369"/>
</svg>
