<svg width="23" height="23" viewBox="0 0 23 23" fill="none" xmlns="http://www.w3.org/2000/svg">
<path d="M11.5444 11.3331C10.6709 11.3331 9.79723 11.0006 9.13235 10.3356C7.80224 9.00562 7.80224 6.84148 9.13235 5.51137C9.77652 4.86702 10.6332 4.51221 11.5444 4.51221C12.4557 4.51221 13.3122 4.8672 13.9565 5.51137C15.2866 6.84148 15.2866 9.00562 13.9565 10.3356C13.2915 11.0006 12.418 11.3331 11.5444 11.3331ZM11.5444 5.8625C11.0164 5.8625 10.4884 6.06342 10.0864 6.46543C9.28238 7.26946 9.28238 8.57764 10.0864 9.38167C10.4758 9.77105 10.9936 9.98548 11.5444 9.98548C12.0953 9.98548 12.6131 9.77105 13.0025 9.38167C13.8065 8.57764 13.8065 7.26946 13.0025 6.46543C12.6005 6.06342 12.0724 5.8625 11.5444 5.8625Z" fill="#506369"/>
<path d="M11.5514 23L11.0297 22.3872C10.7244 22.0284 3.54883 13.5353 3.54883 7.99469C3.54883 3.58638 7.13521 0 11.5435 0C15.9518 0 19.5382 3.58638 19.5382 7.99469C19.5382 13.2628 12.369 22.0096 12.0638 22.3793L11.5514 23ZM11.5435 1.34924C7.87923 1.34924 4.89806 4.3304 4.89806 7.99469C4.89806 10.0541 6.12605 13.0344 8.44935 16.6135C9.65504 18.471 10.8692 20.0439 11.5361 20.8764C12.2042 20.0211 13.4299 18.3964 14.6431 16.5037C16.9629 12.8852 18.189 9.94265 18.189 7.99469C18.189 4.3304 15.2078 1.34924 11.5435 1.34924Z" fill="#506369"/>
</svg>
