<svg width="28" height="28" viewBox="0 0 28 28" fill="none" xmlns="http://www.w3.org/2000/svg">
<rect x="0.5" y="0.5" width="27" height="27" stroke="white"/>
<path d="M17.3523 6H10.6477C8.08497 6 6 8.08497 6 10.6477V17.3523C6 19.915 8.08497 22 10.6477 22H17.3523C18.0917 22 18.7988 21.8313 19.4541 21.4985C20.0785 21.1814 20.6328 20.7182 21.057 20.159C21.2656 19.884 21.2118 19.4919 20.9368 19.2833C20.6619 19.0747 20.2698 19.1284 20.0612 19.4035C19.412 20.2592 18.4246 20.75 17.3523 20.75H10.6477C8.77422 20.75 7.25 19.2258 7.25 17.3523V10.6477C7.25 8.77422 8.77422 7.25 10.6477 7.25H17.3523C19.2258 7.25 20.75 8.77422 20.75 10.6477V16.7188C20.75 17.0639 21.0298 17.3438 21.375 17.3438C21.7202 17.3438 22 17.0639 22 16.7188V10.6477C22 8.08497 19.915 6 17.3523 6Z" fill="white"/>
<path d="M14 9.6875C11.6221 9.6875 9.6875 11.6221 9.6875 14C9.6875 16.3779 11.6221 18.3125 14 18.3125C16.3779 18.3125 18.3125 16.3779 18.3125 14C18.3125 11.6221 16.3779 9.6875 14 9.6875ZM14 17.0625C12.3113 17.0625 10.9375 15.6887 10.9375 14C10.9375 12.3113 12.3113 10.9375 14 10.9375C15.6887 10.9375 17.0625 12.3113 17.0625 14C17.0625 15.6887 15.6887 17.0625 14 17.0625Z" fill="white"/>
<path d="M18.375 10.25C18.7202 10.25 19 9.97018 19 9.625C19 9.27982 18.7202 9 18.375 9C18.0298 9 17.75 9.27982 17.75 9.625C17.75 9.97018 18.0298 10.25 18.375 10.25Z" fill="white"/>
</svg>
