<svg width="396" height="76" viewBox="0 0 396 76" fill="none" xmlns="http://www.w3.org/2000/svg">
<g clip-path="url(#clip0_382_613)">
<path d="M5.66025 41.5372H31.6581C44.4475 41.5372 50.1078 34.2165 50.2121 23.8188C50.3181 15.1206 44.4475 6.10216 32.2874 6.10216H5.66025H0V0.797729H32.2874C48.2216 0.797729 56.293 12.3619 56.3973 23.9261C56.5016 36.0199 48.6406 46.6287 32.6003 46.6287L58.4939 75.0615H51.05L25.6832 46.9472H5.66025V75.0615H0V41.5372H5.66025Z" fill="#506369"/>
<path d="M85.5352 0.797974H91.0928V75.0618H85.5352V0.797974Z" fill="#506369"/>
<path d="M216.124 37.8762C216.23 54.6393 226.713 70.9766 247.574 70.9766C268.539 70.9766 279.126 54.6393 279.126 37.8762C279.126 20.6891 268.643 4.88141 247.574 4.88141C226.503 4.88141 216.02 20.3725 216.124 37.8762ZM284.577 37.9835C284.473 57.5035 272.209 76.2828 247.574 76.2828C222.939 76.2828 210.568 57.3979 210.568 37.7707C210.568 17.8249 222.833 -0.421265 247.574 -0.421265C272.313 -0.421265 284.682 17.9323 284.577 37.9835Z" fill="#506369"/>
<path d="M390.443 0.797607H395.999V75.0614H390.443V0.797607Z" fill="#506369"/>
<path d="M140.504 41.4295L124.214 0.690063H118.133L134.648 41.4295H140.504Z" fill="#506369"/>
<path d="M178.514 0.691895L151.363 68.5886L147.977 60.1174H142.223L148.324 75.1668H154.404L184.594 0.691895H178.514Z" fill="#506369"/>
<path d="M320.854 0.797974H315.193V41.5374H320.854V0.797974Z" fill="#506369"/>
<path d="M320.854 69.6516V60.2233H315.193V75.0615H362.156V69.6516H320.854Z" fill="#506369"/>
</g>
<defs>
<clipPath id="clip0_382_613">
<rect width="396" height="76" fill="white"/>
</clipPath>
</defs>
</svg>
