<svg width="80" height="101" viewBox="0 0 80 101" fill="none" xmlns="http://www.w3.org/2000/svg">
<path d="M3.6301 50.4893V49.8834C3.6301 49.4163 3.50212 49.0503 3.24615 48.7827C2.9927 48.5151 2.64389 48.3813 2.19972 48.3813C1.68528 48.3813 1.26369 48.563 0.932448 48.9266C0.598692 49.2926 0.433069 49.7546 0.433069 50.3176C0.433069 50.5272 0.468201 50.6711 0.538465 50.7519C0.60622 50.8326 0.731692 50.873 0.912372 50.873L1.08803 50.868H3.24615C3.41429 50.868 3.51968 50.8453 3.56485 50.7998C3.60751 50.7569 3.6301 50.6509 3.6301 50.4893ZM3.74553 48.9215L5.90365 47.4497L6.1546 47.278C6.8196 46.8236 7.16339 46.4045 7.18598 46.0208L7.19852 45.8491C7.20103 45.786 7.22613 45.7557 7.27381 45.7582C7.32651 45.7633 7.37669 45.8415 7.41935 45.9955C7.46202 46.152 7.4846 46.3262 7.4846 46.5206C7.4846 46.8413 7.39677 47.1291 7.22111 47.384C7.04545 47.6365 6.76188 47.8965 6.36539 48.1591L4.35031 49.487L4.23487 49.5602C4.08933 49.6461 4.01655 49.7849 4.01655 49.9768V50.6862L4.03914 50.8023C4.06423 50.8453 4.11944 50.868 4.20727 50.868H5.86852L6.07931 50.8629C6.38546 50.8629 6.59375 50.8478 6.70667 50.8175C6.81709 50.7872 6.91747 50.714 7.0053 50.6004C7.12575 50.4489 7.20354 50.2116 7.23366 49.891C7.24871 49.7647 7.28886 49.6966 7.35411 49.694C7.42186 49.6865 7.457 49.7471 7.457 49.8708C7.457 49.9213 7.44947 50.0248 7.43441 50.1838C7.41684 50.3302 7.40932 50.5575 7.40932 50.8629L7.4043 51.3729L7.40932 51.6506C7.40932 51.7718 7.41685 51.9182 7.43692 52.0899C7.44947 52.2287 7.457 52.3247 7.457 52.3777C7.457 52.4661 7.42186 52.509 7.34909 52.509C7.29639 52.509 7.26126 52.4661 7.2462 52.3777C7.191 52.0924 7.06301 51.9056 6.85975 51.8172C6.65648 51.7289 6.25748 51.6834 5.65773 51.6834H1.84588L1.29381 51.6935C0.74173 51.6935 0.433069 51.8879 0.370333 52.2767L0.332691 52.5266C0.312616 52.6402 0.269955 52.6958 0.209729 52.6958C0.136955 52.6958 0.0993132 52.6352 0.0993132 52.514C0.0993132 52.4862 0.106841 52.3625 0.121898 52.1429C0.131936 52.0141 0.136955 51.8551 0.136955 51.6683C0.136955 51.5042 0.124408 51.224 0.0993132 50.8301C0.0817471 50.5448 0.0742188 50.2949 0.0742188 50.0778C0.0742188 49.2598 0.227295 48.6438 0.530937 48.2273C0.837089 47.8107 1.29381 47.6037 1.89858 47.6037C2.69408 47.6037 3.30889 48.043 3.74553 48.9215Z" fill="#506369"/>
<path d="M1.68779 41.9535H5.66275C6.15711 41.9535 6.48584 41.9232 6.64394 41.8626C6.82462 41.7919 6.9526 41.7036 7.02788 41.5976C7.10066 41.494 7.15586 41.3299 7.18598 41.1053C7.21107 40.926 7.25373 40.8376 7.31647 40.8376C7.39928 40.8376 7.44194 40.8932 7.44194 41.0043C7.44194 41.0573 7.43441 41.1255 7.42437 41.2062C7.40681 41.3173 7.39928 41.5041 7.39928 41.7718L7.38924 42.5443L7.42437 43.1729C7.43692 43.2764 7.44194 43.3622 7.44194 43.4304C7.44194 43.5263 7.4043 43.5743 7.33152 43.5743C7.2713 43.5743 7.23115 43.5188 7.21358 43.4077C7.16841 43.1376 7.07556 42.9634 6.93503 42.8851C6.7945 42.8068 6.5009 42.769 6.05171 42.769H1.50711C1.06796 42.769 0.771844 42.8195 0.618768 42.9204C0.468201 43.0214 0.365314 43.2385 0.312616 43.5693C0.290031 43.6803 0.24988 43.7359 0.187144 43.7384C0.11186 43.7435 0.0742188 43.6904 0.0742188 43.5844C0.0742188 43.5566 0.0742187 43.5238 0.0792376 43.4885C0.109351 43.2284 0.126917 42.8851 0.126917 42.4534C0.126917 42.1908 0.119389 41.9661 0.109351 41.7768L0.0792376 41.4208C0.0742187 41.3527 0.0742188 41.3072 0.0742188 41.287C0.0742188 41.1911 0.106841 41.1431 0.172087 41.1431C0.234823 41.1431 0.279993 41.1886 0.312616 41.282L0.418012 41.5572C0.51839 41.8222 0.939976 41.9535 1.68779 41.9535Z" fill="#506369"/>
<path d="M1.39196 36.9094L6.07207 34.8594C6.1875 34.8114 6.24522 34.7635 6.2402 34.7206C6.2402 34.6877 6.13982 34.6221 5.93907 34.5312L5.74082 34.4454L2.98044 33.2765C1.79598 32.7741 1.0306 32.5217 0.691826 32.5217C0.573882 32.5217 0.49358 32.5469 0.4459 32.6024C0.398221 32.6555 0.35807 32.764 0.325447 32.9256C0.287805 33.125 0.240126 33.2235 0.179899 33.221C0.114654 33.2159 0.0820312 33.1578 0.0820312 33.0442C0.0820312 33.019 0.0820313 32.966 0.0870501 32.8877C0.0995973 32.6252 0.107126 32.4661 0.107126 32.4131V32.1935L0.102107 31.9536V31.8198L0.0970879 31.3654C0.0970879 31.2922 0.127201 31.2568 0.189937 31.2568C0.240126 31.2568 0.277768 31.2947 0.302862 31.3704C0.40073 31.6254 0.603995 31.8198 0.917675 31.9511L1.26398 32.095L7.4347 34.7458C7.60785 34.819 7.69317 34.8897 7.69317 34.9604C7.69317 35.0361 7.60534 35.1093 7.42717 35.1876L1.20124 37.8914C0.915166 38.0202 0.714411 38.1338 0.601486 38.2373C0.488561 38.3408 0.415787 38.4822 0.383164 38.6589C0.348032 38.8432 0.322938 38.9543 0.307881 38.9871C0.292824 39.0199 0.26522 39.0376 0.22256 39.0376C0.152296 39.0376 0.119673 38.9871 0.119673 38.8886C0.119673 38.8609 0.122182 38.8079 0.129711 38.7346C0.13473 38.6741 0.139748 38.4923 0.139748 38.1944L0.144767 37.6895L0.139748 37.331C0.139748 37.2578 0.13222 37.1416 0.119673 36.9902C0.112145 36.9195 0.107126 36.869 0.107126 36.8412C0.107126 36.7453 0.139748 36.6973 0.204994 36.6973C0.255183 36.6973 0.292824 36.7327 0.320428 36.8033C0.373126 36.9498 0.418296 37.0407 0.455938 37.0785C0.49358 37.1164 0.556316 37.1341 0.649165 37.1341C0.802241 37.1341 1.05068 37.0583 1.39196 36.9094Z" fill="#506369"/>
<path d="M0.343794 26.2076C0.343794 27.0332 0.619832 27.687 1.17442 28.1743C1.72399 28.659 2.46929 28.9014 3.4028 28.9014C4.47183 28.9014 5.37522 28.5908 6.10798 27.9698C6.84325 27.3487 7.20963 26.5863 7.20963 25.6825C7.20963 24.857 6.911 24.1779 6.31125 23.6401C5.714 23.1024 4.95615 22.8348 4.0402 22.8348C2.98373 22.8348 2.10542 23.1554 1.40027 23.7992C0.697625 24.4429 0.343794 25.2458 0.343794 26.2076ZM0 25.8618C0 24.7484 0.341284 23.837 1.02385 23.1251C1.70893 22.4107 2.58222 22.0547 3.64873 22.0547C4.78049 22.0547 5.70647 22.4132 6.4317 23.1327C7.15442 23.8497 7.51578 24.7686 7.51578 25.8895C7.51578 27.0382 7.16947 27.9673 6.47938 28.6742C5.78677 29.3836 4.87835 29.7395 3.75663 29.7395C3.26729 29.7395 2.78548 29.6461 2.30618 29.4593C1.82938 29.2725 1.42787 29.02 1.10666 28.7044C0.767889 28.3712 0.499379 27.9471 0.298624 27.4346C0.100378 26.9246 0 26.3995 0 25.8618H0Z" fill="#506369"/>
<path d="M5.95358 17.6746L6.13677 17.667C6.56337 17.667 6.81432 17.6266 6.89211 17.5459C6.9699 17.4625 7.00754 17.1975 7.00754 16.7456C7.00754 16.0791 6.92975 15.5009 6.77166 15.0112C6.61607 14.5214 6.40779 14.2084 6.14932 14.0746C6.05396 14.0241 6.00628 13.9736 6.00628 13.9256C6.00628 13.8675 6.04141 13.8398 6.11167 13.8448C6.34505 13.86 6.60102 13.9736 6.87705 14.1907C7.26351 14.4987 7.45423 14.9935 7.45423 15.6802C7.45423 15.7938 7.44921 15.9276 7.43917 16.0766L7.39651 16.6522C7.37141 16.9905 7.35887 17.3489 7.35887 17.7251C7.35887 18.1619 7.37894 18.5304 7.4216 18.8258C7.43917 18.9495 7.45172 19.048 7.45423 19.1237C7.45673 19.2121 7.42662 19.2575 7.36138 19.2575C7.30617 19.2575 7.26351 19.2096 7.2359 19.1136C7.16313 18.8662 7.05271 18.6996 6.90968 18.6163C6.76664 18.5304 6.52573 18.4901 6.18696 18.4901L5.94103 18.485H1.19568C0.723904 18.485 0.450375 18.6769 0.372582 19.0606L0.324903 19.3004C0.307337 19.3863 0.272204 19.4267 0.222016 19.4267C0.141714 19.4267 0.101562 19.3686 0.101562 19.2474C0.101562 19.1666 0.109091 19.053 0.124147 18.9117C0.144223 18.6693 0.154261 18.3992 0.154261 18.0962C0.154261 17.7705 0.146732 17.4752 0.129166 17.2101C0.121638 17.0738 0.119129 16.998 0.119129 16.9804C0.119129 16.8945 0.144223 16.8516 0.194412 16.8516C0.272204 16.8516 0.322393 16.9046 0.347488 17.0056L0.387639 17.1924C0.465431 17.513 0.78413 17.6746 1.33872 17.6746H5.95358Z" fill="#506369"/>
<path d="M1.68779 9.97467H5.66275C6.15711 9.97467 6.48584 9.94437 6.64394 9.88378C6.82462 9.8131 6.9526 9.72474 7.02788 9.62123C7.10066 9.5152 7.15586 9.3511 7.18598 9.12641C7.21107 8.94969 7.25373 8.86133 7.31647 8.86133C7.39928 8.86133 7.44194 8.91434 7.44194 9.02543C7.44194 9.07844 7.43441 9.14661 7.42437 9.22739C7.40681 9.33847 7.39928 9.52782 7.39928 9.7929L7.38924 10.5654L7.42437 11.1966C7.43692 11.3001 7.44194 11.3834 7.44194 11.4516C7.44194 11.5475 7.4043 11.5955 7.33152 11.5955C7.2713 11.5955 7.23115 11.5424 7.21358 11.4314C7.16841 11.1612 7.07556 10.987 6.93503 10.9088C6.7945 10.8305 6.5009 10.7901 6.05171 10.7901H1.50711C1.06796 10.7901 0.771844 10.8406 0.618768 10.9441C0.468201 11.0451 0.365314 11.2597 0.312616 11.5904C0.290031 11.7015 0.24988 11.757 0.187144 11.7621C0.11186 11.7646 0.0742188 11.7141 0.0742188 11.6055C0.0742188 11.5778 0.0742187 11.545 0.0792376 11.5096C0.109351 11.2496 0.126917 10.9062 0.126917 10.4771C0.126917 10.212 0.119389 9.98729 0.109351 9.79795L0.0792376 9.44198C0.0742187 9.37382 0.0742188 9.3309 0.0742188 9.30818C0.0742188 9.21225 0.106841 9.16428 0.172087 9.16428C0.234823 9.16428 0.279993 9.20972 0.312616 9.30313L0.418012 9.58083C0.51839 9.84339 0.939976 9.97467 1.68779 9.97467Z" fill="#506369"/>
<path d="M7.61616 7.03349H0.022585V6.89211L0 0H43.7597C65.3559 0 76.2946 15.5792 76.4376 31.1584C76.5781 47.4546 65.923 61.7488 44.1863 61.7488L79.2783 100.054H69.1903L34.8085 62.1754H7.67136V100.054H0L0.022585 54.9854V54.8441H7.61616H7.47563L42.909 54.887C60.2417 54.887 67.913 45.0234 68.0561 31.017C68.1966 19.2954 60.2417 7.1471 43.7597 7.1471L7.75669 7.03349H7.61616Z" fill="#506369"/>
</svg>
