<svg width="161" height="33" viewBox="0 0 161 33" fill="none" xmlns="http://www.w3.org/2000/svg">
    <path d="M20.1645 10.7155L20.1645 10.716C20.1437 12.793 19.5702 14.5298 18.3969 15.7465C17.2256 16.961 15.4229 17.6922 12.8711 17.6922H2.30126H0H-0.25V17.9422V31.6098V31.8598H0H2.30126H2.55126V31.6098V20.3978H10.3305L20.5693 31.777L20.6438 31.8598H20.7552H23.7816H24.3463L23.9667 31.4417L13.8094 20.2575C16.8528 20.1412 19.1657 19.0664 20.7346 17.411C22.395 15.659 23.2009 13.2791 23.1792 10.7601L23.1792 10.76C23.1575 8.34735 22.3072 5.92827 20.6251 4.10989C18.9393 2.28757 16.4313 1.08301 13.1269 1.08301H0H-0.25V1.33301V3.49558V3.74558H0H2.30126H13.1269C15.5317 3.74558 17.2948 4.63729 18.4539 5.94318C19.6172 7.25379 20.1854 8.99709 20.1645 10.7155Z" fill="#506369" stroke="#506369" stroke-width="0.5"/>
    <path d="M34.7754 1.08301H34.5254V1.33301V31.6098V31.8598H34.7754H37.0349H37.2849V31.6098V1.33301V1.08301H37.0349H34.7754Z" fill="#506369" stroke="#506369" stroke-width="0.5"/>
    <path d="M115.949 16.4946V16.4946C115.97 12.3578 114.709 8.38135 112.153 5.43526C109.593 2.48428 105.751 0.585938 100.654 0.585938C95.5581 0.585938 91.7261 2.47305 89.1713 5.40767C86.6208 8.33734 85.3594 12.2918 85.3594 16.4065C85.3594 20.4573 86.6321 24.4432 89.1863 27.4205C91.7449 30.403 95.5765 32.3576 100.654 32.3576C105.732 32.3576 109.553 30.4141 112.106 27.4478C114.655 24.4868 115.927 20.5229 115.949 16.4946ZM88.1182 16.4479C88.0973 12.9279 89.1382 9.62734 91.2222 7.21088C93.302 4.79942 96.4378 3.2478 100.654 3.2478C104.869 3.2478 108.005 4.83045 110.091 7.25892C112.181 9.69261 113.232 12.9943 113.232 16.4495C113.232 19.8168 112.172 23.1303 110.074 25.5978C107.982 28.06 104.845 29.6943 100.654 29.6943C96.4859 29.6943 93.3705 28.0604 91.2879 25.5983C89.2007 23.1306 88.1395 19.8164 88.1182 16.448L88.1182 16.4479Z" fill="#506369" stroke="#506369" stroke-width="0.5"/>
    <path d="M158.74 1.08301H158.49V1.33301V31.6098V31.8598H158.74H160.999H161.249V31.6098V1.33301V1.08301H160.999H158.74Z" fill="#506369" stroke="#506369" stroke-width="0.5"/>
    <path d="M57.1228 18.1482H57.4916L57.355 17.8056L50.7319 1.19646L50.6691 1.03906H50.4996H48.0273H47.6566L47.7956 1.38276L54.5099 17.9919L54.5731 18.1482H54.7417H57.1228Z" fill="#506369" stroke="#506369" stroke-width="0.5"/>
    <path d="M72.5788 1.04004H72.4094L72.3466 1.19744L61.5405 28.296L60.3959 25.4248L60.3331 25.2673H60.1636H57.8242H57.4535L57.5924 25.6111L60.0732 31.7466L60.1364 31.9029H60.305H62.7766H62.9452L63.0084 31.7466L75.2829 1.38374L75.4219 1.04004H75.0511H72.5788Z" fill="#506369" stroke="#506369" stroke-width="0.5"/>
    <path d="M130.698 1.33301V1.08301H130.448H128.146H127.896V1.33301V17.9422V18.1922H128.146H130.448H130.698V17.9422V1.33301Z" fill="#506369" stroke="#506369" stroke-width="0.5"/>
    <path d="M147.24 29.1544H130.698V25.5605V25.3105H130.448H128.146H127.896V25.5605V31.61V31.86H128.146H147.24H147.49V31.61V29.4044V29.1544H147.24Z" fill="#506369" stroke="#506369" stroke-width="0.5"/>
</svg>
