<svg width="192" height="63" viewBox="0 0 192 63" fill="none" xmlns="http://www.w3.org/2000/svg">
<g clip-path="url(#clip0_195_186)">
<path d="M148.384 57.8332C148.784 57.8332 149.251 57.95 149.787 58.1853C149.923 58.2433 150.009 58.2723 150.048 58.2723C150.082 58.2723 150.111 58.2603 150.138 58.2356L150.177 58.1998C150.201 58.1751 150.229 58.1623 150.263 58.1597C150.335 58.1572 150.371 58.2015 150.371 58.2902L150.367 58.5443L150.353 59.0422L150.363 59.3039C150.369 59.3687 150.375 59.4395 150.385 59.5145C150.387 59.5435 150.389 59.5648 150.389 59.5793C150.389 59.6569 150.352 59.6936 150.278 59.6885C150.227 59.6859 150.194 59.6356 150.177 59.5358C150.129 59.2468 149.977 58.9629 149.722 58.6849C149.362 58.2936 148.926 58.0983 148.415 58.0983C147.928 58.0983 147.538 58.2919 147.246 58.6798C146.953 59.0678 146.807 59.5844 146.807 60.2298C146.807 60.9205 146.958 61.5028 147.259 61.9751C147.561 62.4475 147.932 62.6845 148.373 62.6845C148.505 62.6845 148.671 62.6546 148.874 62.5958C149.076 62.5361 149.23 62.4713 149.335 62.4014C149.43 62.3392 149.496 62.248 149.533 62.1269C149.57 62.0067 149.589 61.8191 149.589 61.5659C149.589 61.2768 149.537 61.0756 149.435 60.9639C149.332 60.8522 149.14 60.7892 148.857 60.7738C148.784 60.7695 148.747 60.7337 148.747 60.6672C148.747 60.5999 148.79 60.5675 148.876 60.5675C148.902 60.5675 148.944 60.57 149.001 60.5743C149.236 60.5965 149.502 60.6076 149.799 60.6076C150.106 60.6076 150.331 60.5982 150.474 60.5811C150.582 60.5675 150.672 60.5598 150.744 60.5598C150.829 60.5598 150.873 60.5922 150.873 60.6561C150.873 60.715 150.83 60.7533 150.744 60.7704C150.605 60.7994 150.509 60.8744 150.457 60.9946C150.404 61.1157 150.378 61.3195 150.378 61.6076C150.378 61.6963 150.381 61.7765 150.389 61.8464C150.398 61.9666 150.403 62.0519 150.403 62.0996C150.403 62.1746 150.388 62.23 150.358 62.265C150.328 62.3 150.268 62.3341 150.177 62.3682C150.122 62.3878 149.932 62.4688 149.607 62.6112C149.036 62.8601 148.538 62.9855 148.112 62.9855C147.467 62.9855 146.939 62.7638 146.529 62.3213C146.119 61.8779 145.914 61.3058 145.914 60.6041C145.914 59.8189 146.151 59.1615 146.625 58.6304C147.097 58.0983 147.684 57.8332 148.384 57.8332Z" fill="#373435"/>
<path d="M156.052 60.5999L155.583 59.4924C155.471 59.2272 155.392 59.0933 155.344 59.0933C155.315 59.0933 155.263 59.1795 155.186 59.3508L155.118 59.5026L154.7 60.4695L154.661 60.5598C154.644 60.5965 154.636 60.628 154.636 60.6545C154.636 60.7372 154.721 60.7772 154.893 60.7772H155.952C156.042 60.7772 156.087 60.7525 156.087 60.7022C156.087 60.6894 156.082 60.669 156.07 60.64L156.052 60.5999ZM155.917 58.3303L157.548 62.1218C157.63 62.3128 157.725 62.456 157.835 62.5498C157.945 62.6445 158.088 62.7067 158.262 62.7391C158.305 62.7459 158.326 62.78 158.326 62.8423C158.326 62.9088 158.299 62.9403 158.243 62.9378C158.213 62.9361 158.168 62.9284 158.108 62.9164C157.923 62.8755 157.626 62.8542 157.217 62.8542C156.805 62.8542 156.525 62.8738 156.377 62.9122C156.34 62.9224 156.31 62.9275 156.283 62.9275C156.216 62.9275 156.183 62.8926 156.183 62.8235C156.183 62.7886 156.209 62.763 156.261 62.7459C156.377 62.7118 156.471 62.6513 156.547 62.5643C156.622 62.4774 156.66 62.3853 156.66 62.2881C156.66 62.1525 156.555 61.8549 156.348 61.3954C156.284 61.2547 156.213 61.1737 156.135 61.1533C156.058 61.1328 155.783 61.1226 155.312 61.1226H154.826L154.504 61.1805C154.415 61.2215 154.315 61.3809 154.203 61.6588L154.092 61.9377C154.06 62.0178 154.042 62.0988 154.042 62.1806C154.042 62.485 154.253 62.6615 154.673 62.7093C154.764 62.7221 154.809 62.7579 154.806 62.8167C154.801 62.8806 154.758 62.913 154.676 62.913C154.633 62.913 154.573 62.9054 154.494 62.8909C154.335 62.8593 154.194 62.844 154.07 62.844C153.957 62.844 153.775 62.8559 153.523 62.8806C153.336 62.8994 153.22 62.9088 153.175 62.9088C153.108 62.9088 153.074 62.8798 153.074 62.8201C153.074 62.7715 153.108 62.734 153.175 62.7093C153.303 62.6683 153.407 62.5925 153.485 62.4825C153.562 62.3733 153.678 62.1414 153.83 61.7884L154.81 59.5052C154.888 59.3236 154.944 59.1991 154.974 59.1309L155.308 58.4385L155.48 58.0984V58.1094C155.556 57.9253 155.608 57.8332 155.634 57.8332C155.672 57.8332 155.738 57.9347 155.831 58.1376L155.917 58.3303Z" fill="#373435"/>
<path d="M162.278 61.7527C162.278 62.2037 162.331 62.4578 162.439 62.5132C162.499 62.5448 162.615 62.561 162.789 62.561C163.599 62.561 164.173 62.3197 164.511 61.8371C164.615 61.6904 164.681 61.6163 164.708 61.6163C164.752 61.6163 164.774 61.6666 164.774 61.7655C164.774 62.0724 164.674 62.3478 164.475 62.5899C164.301 62.8022 164.064 62.9088 163.762 62.9088C163.7 62.9088 163.587 62.9029 163.422 62.8909C163.379 62.8884 163.235 62.8798 162.991 62.8662L162.601 62.8474C162.469 62.8398 162.32 62.8363 162.152 62.8363C161.876 62.8363 161.577 62.8551 161.256 62.8918C161.159 62.9028 161.093 62.9088 161.059 62.9088C160.99 62.9088 160.955 62.8773 160.955 62.8133C160.955 62.769 160.986 62.7374 161.048 62.7204C161.202 62.6769 161.307 62.5934 161.366 62.4689C161.424 62.3444 161.454 62.1406 161.454 61.8584V58.8299C161.454 58.4437 161.294 58.2254 160.976 58.1743L160.762 58.1385C160.671 58.1231 160.625 58.0864 160.625 58.0276C160.625 57.9534 160.661 57.9168 160.733 57.9168C160.756 57.9168 160.792 57.9202 160.837 57.927C160.87 57.9296 160.917 57.9347 160.977 57.9415L161.132 57.9534C161.277 57.9679 161.387 57.9748 161.459 57.9748C161.573 57.9748 161.756 57.9603 162.008 57.9313C162.194 57.9117 162.385 57.9023 162.579 57.9023C162.722 57.9023 162.795 57.9364 162.795 58.0054C162.795 58.0651 162.743 58.0967 162.639 58.1018C162.398 58.1188 162.278 58.2868 162.278 58.6057V61.7527Z" fill="#373435"/>
<path d="M168.776 61.7527C168.776 62.2037 168.829 62.4578 168.937 62.5132C168.996 62.5448 169.113 62.561 169.287 62.561C170.097 62.561 170.671 62.3197 171.009 61.8371C171.113 61.6904 171.179 61.6163 171.206 61.6163C171.25 61.6163 171.272 61.6666 171.272 61.7655C171.272 62.0724 171.172 62.3478 170.973 62.5899C170.799 62.8022 170.561 62.9088 170.26 62.9088C170.198 62.9088 170.085 62.9029 169.92 62.8909C169.877 62.8884 169.733 62.8798 169.489 62.8662L169.098 62.8474C168.966 62.8398 168.818 62.8363 168.65 62.8363C168.373 62.8363 168.075 62.8551 167.754 62.8918C167.656 62.9028 167.591 62.9088 167.557 62.9088C167.487 62.9088 167.453 62.8773 167.453 62.8133C167.453 62.769 167.484 62.7374 167.546 62.7204C167.699 62.6769 167.805 62.5934 167.863 62.4689C167.922 62.3444 167.952 62.1406 167.952 61.8584V58.8299C167.952 58.4437 167.792 58.2254 167.475 58.1743L167.259 58.1385C167.169 58.1231 167.123 58.0864 167.123 58.0276C167.123 57.9534 167.159 57.9168 167.231 57.9168C167.255 57.9168 167.289 57.9202 167.335 57.927C167.368 57.9296 167.415 57.9347 167.475 57.9415L167.63 57.9534C167.775 57.9679 167.884 57.9748 167.956 57.9748C168.071 57.9748 168.254 57.9603 168.505 57.9313C168.692 57.9117 168.883 57.9023 169.077 57.9023C169.22 57.9023 169.293 57.9364 169.293 58.0054C169.293 58.0651 169.24 58.0967 169.137 58.1018C168.896 58.1188 168.776 58.2868 168.776 58.6057V61.7527Z" fill="#373435"/>
<path d="M175.269 58.7591V59.547C175.269 59.772 175.285 59.9153 175.317 59.9758C175.349 60.0355 175.428 60.0662 175.553 60.0662L175.66 60.0628L175.817 60.0594H176.122C176.359 60.0594 176.542 59.9272 176.671 59.6629L176.753 59.4847C176.775 59.4412 176.811 59.4191 176.861 59.4165C176.913 59.414 176.94 59.4463 176.94 59.5146C176.94 59.5333 176.937 59.587 176.929 59.6748C176.924 59.7379 176.921 59.7908 176.921 59.8343C176.921 59.9127 176.932 60.0943 176.954 60.3808C176.969 60.5675 176.975 60.7295 176.975 60.8685L176.98 61.0535C176.98 61.0876 176.975 61.1106 176.969 61.1226C176.958 61.1371 176.94 61.1456 176.91 61.1482C176.851 61.1524 176.814 61.1072 176.8 61.01C176.769 60.8046 176.697 60.6485 176.585 60.5419C176.523 60.484 176.447 60.4465 176.357 60.4294C176.267 60.4124 176.1 60.4038 175.853 60.4038H175.609C175.495 60.4038 175.417 60.4209 175.375 60.4567C175.333 60.4916 175.305 60.5624 175.29 60.6681C175.276 60.7892 175.269 60.9802 175.269 61.2411V61.5676C175.269 61.9087 175.295 62.1534 175.348 62.3034C175.388 62.4117 175.436 62.4859 175.492 62.5243C175.547 62.5635 175.631 62.5822 175.746 62.5822C176.717 62.5822 177.35 62.2838 177.65 61.6853C177.666 61.6563 177.681 61.641 177.693 61.6384C177.716 61.6333 177.738 61.641 177.759 61.6623C177.779 61.6827 177.79 61.7083 177.79 61.7407C177.79 61.9777 177.726 62.2088 177.599 62.4322C177.494 62.6215 177.362 62.757 177.205 62.838C177.047 62.919 176.838 62.9599 176.577 62.9599C176.425 62.9599 176.255 62.9506 176.068 62.931L175.653 62.8909C175.499 62.8764 175.293 62.8696 175.033 62.8696C174.858 62.8696 174.593 62.8798 174.237 62.902C174.139 62.9088 174.068 62.9122 174.025 62.9122C173.968 62.9122 173.936 62.8858 173.932 62.8312C173.929 62.7869 173.956 62.7536 174.011 62.7314C174.147 62.6777 174.239 62.6223 174.288 62.5626C174.338 62.5038 174.376 62.3981 174.405 62.2455C174.431 62.1176 174.445 61.9428 174.445 61.7237V58.8487C174.445 58.5775 174.4 58.3942 174.314 58.297C174.226 58.2007 174.046 58.1333 173.77 58.0941C173.706 58.0847 173.674 58.0489 173.674 57.9875C173.674 57.9304 173.713 57.9014 173.792 57.9014C173.809 57.9014 173.845 57.904 173.899 57.9091C173.943 57.9117 174.002 57.9125 174.075 57.9125L174.437 57.9279L175.796 57.9424C176.577 57.9424 177.059 57.9313 177.241 57.9091C177.259 57.9065 177.277 57.9057 177.291 57.9057C177.36 57.9057 177.395 57.9458 177.395 58.0259C177.395 58.0813 177.402 58.1802 177.416 58.3226C177.435 58.5341 177.445 58.685 177.445 58.7771C177.445 58.9612 177.398 59.0559 177.306 59.0601C177.259 59.0627 177.237 59.009 177.237 58.8998C177.237 58.6594 177.151 58.4846 176.977 58.3763C176.804 58.268 176.524 58.2143 176.137 58.2143H175.699L175.456 58.2433C175.333 58.2817 175.273 58.4045 175.273 58.6099L175.269 58.7591Z" fill="#373435"/>
<path d="M181.942 58.6388V59.8947C181.942 60.0508 181.961 60.1488 182.001 60.1898C182.041 60.2307 182.135 60.2511 182.283 60.2511C182.709 60.2511 182.974 60.2435 183.076 60.2273C183.177 60.2119 183.272 60.1633 183.361 60.0806C183.536 59.9212 183.623 59.7003 183.623 59.4198C183.623 59.0541 183.505 58.7522 183.269 58.5135C183.033 58.2756 182.733 58.1563 182.369 58.1563C182.206 58.1563 182.094 58.1904 182.033 58.2594C181.972 58.3285 181.942 58.4547 181.942 58.6388ZM181.942 61.4738C181.942 61.9325 181.984 62.2437 182.068 62.4074C182.151 62.5702 182.315 62.6632 182.562 62.6879C182.662 62.6973 182.712 62.7374 182.712 62.8056C182.712 62.8746 182.672 62.9087 182.591 62.9087C182.564 62.9087 182.515 62.9053 182.443 62.8977C182.238 62.8815 182.04 62.8729 181.848 62.8729C181.688 62.8729 181.547 62.878 181.422 62.8866L181.121 62.9139L180.881 62.9352C180.813 62.942 180.767 62.9454 180.741 62.9454C180.655 62.9454 180.612 62.9121 180.612 62.8456C180.612 62.7911 180.635 62.757 180.684 62.7425C180.846 62.6913 180.958 62.6231 181.021 62.5378C181.082 62.4517 181.114 62.3204 181.114 62.1448V61.8003L181.118 61.6588V59.0362C181.118 58.7471 181.081 58.5519 181.01 58.453C180.893 58.291 180.701 58.1938 180.436 58.1597C180.338 58.1452 180.289 58.1034 180.289 58.0343C180.289 57.9653 180.323 57.9312 180.389 57.9312C180.415 57.9312 180.458 57.9346 180.518 57.9423C180.702 57.961 180.904 57.9712 181.124 57.9712C181.365 57.9712 181.658 57.9576 182.003 57.9312C182.406 57.8996 182.685 57.8843 182.838 57.8843C183.292 57.8843 183.668 58.0088 183.967 58.2594C184.267 58.511 184.415 58.8264 184.415 59.2067C184.415 59.4463 184.349 59.6645 184.216 59.8606C184.084 60.0567 183.902 60.2059 183.67 60.3083C183.622 60.327 183.599 60.3509 183.602 60.3799C183.604 60.4046 183.616 60.4336 183.638 60.4669C183.659 60.501 183.692 60.5581 183.735 60.6382L184.053 61.2112L184.423 61.8745C184.549 62.0996 184.662 62.2556 184.761 62.3435C184.861 62.4304 184.977 62.4739 185.111 62.4739C185.166 62.4739 185.217 62.4688 185.265 62.4594C185.294 62.4517 185.32 62.4483 185.344 62.4483C185.387 62.4483 185.409 62.4765 185.409 62.531C185.409 62.6018 185.311 62.6811 185.115 62.7715C184.919 62.8601 184.746 62.9053 184.594 62.9053C184.349 62.9053 184.122 62.7834 183.915 62.5387C183.708 62.294 183.438 61.8319 183.107 61.1515C182.978 60.8829 182.872 60.7133 182.788 60.6416C182.704 60.57 182.568 60.5342 182.379 60.5342H182.157L181.996 60.5632C181.96 60.5828 181.942 60.6408 181.942 60.738V61.4738Z" fill="#373435"/>
<path d="M190.072 60.9426V62.0135L190.09 62.259C190.13 62.5327 190.37 62.6819 190.807 62.7058C190.884 62.7101 190.922 62.745 190.922 62.809C190.922 62.8806 190.868 62.9164 190.761 62.9164C190.703 62.9164 190.641 62.913 190.574 62.9053L190.066 62.8593C189.973 62.849 189.834 62.8439 189.647 62.8439C189.201 62.8439 188.904 62.8567 188.755 62.884C188.658 62.9002 188.586 62.9087 188.541 62.9087C188.487 62.9087 188.459 62.8678 188.459 62.7876C188.459 62.7425 188.493 62.7152 188.559 62.7058C188.826 62.6623 189.008 62.5753 189.102 62.4449C189.196 62.3144 189.244 62.0868 189.244 61.7628V61.0713C189.244 60.9085 189.191 60.7405 189.086 60.5666C188.962 60.3586 188.824 60.1104 188.674 59.8197L188.129 58.7829C187.911 58.3677 187.656 58.1452 187.366 58.1162C187.277 58.1085 187.232 58.0744 187.232 58.0122C187.232 57.9363 187.266 57.8979 187.333 57.8979C187.393 57.8979 187.485 57.9056 187.612 57.9201C187.87 57.9491 188.103 57.9636 188.313 57.9636C188.507 57.9636 188.703 57.9525 188.904 57.9312C189.051 57.9167 189.151 57.909 189.201 57.909C189.301 57.909 189.351 57.9406 189.351 58.0019C189.351 58.0531 189.31 58.0881 189.23 58.1051C189.045 58.1418 188.954 58.2228 188.954 58.3481C188.954 58.4496 189.04 58.6721 189.215 59.0148L189.495 59.5656C189.61 59.7882 189.68 59.9288 189.707 59.9868C189.788 60.1556 189.867 60.24 189.943 60.24C190.02 60.24 190.119 60.1173 190.243 59.8709C190.273 59.8078 190.354 59.6603 190.482 59.4284C190.744 58.95 190.875 58.6499 190.875 58.5297C190.875 58.4274 190.816 58.3328 190.699 58.2432C190.582 58.1537 190.448 58.1017 190.298 58.0872C190.221 58.077 190.182 58.0471 190.182 57.9985C190.182 57.9218 190.214 57.8843 190.276 57.8843C190.343 57.8843 190.404 57.8877 190.46 57.8945L190.697 57.9269C190.79 57.9397 190.91 57.9457 191.056 57.9457C191.135 57.9457 191.223 57.9414 191.318 57.9346L191.62 57.9167C191.696 57.9116 191.791 57.909 191.904 57.909C191.968 57.909 192 57.938 192 57.9943C192 58.0463 191.957 58.0821 191.872 58.1017C191.693 58.1452 191.547 58.2262 191.436 58.3447C191.325 58.4632 191.185 58.6883 191.014 59.0191C190.711 59.6117 190.433 60.1104 190.179 60.5137C190.129 60.5896 190.099 60.6493 190.088 60.6953C190.077 60.7414 190.072 60.8241 190.072 60.9426Z" fill="#373435"/>
<path d="M2.74436 33.2142H15.3494C21.5503 33.2142 24.2947 29.6665 24.3453 24.6276C24.3967 20.4123 21.5503 16.0419 15.6545 16.0419H2.74436H0V13.4713H15.6545C23.3802 13.4713 27.2936 19.0754 27.3442 24.6796C27.3947 30.5404 23.5833 35.6817 15.8062 35.6817L28.3607 49.4606H24.7515L12.4525 35.836H2.74436V49.4606H0V33.2142H2.74436Z" fill="#373435"/>
<path d="M41.4707 13.4713H44.1653V49.4607H41.4707V13.4713Z" fill="#373435"/>
<path d="M104.788 31.44C104.839 39.5637 109.921 47.481 120.036 47.481C130.201 47.481 135.334 39.5637 135.334 31.44C135.334 23.1109 130.251 15.4503 120.036 15.4503C109.819 15.4503 104.737 22.9575 104.788 31.44ZM137.977 31.4921C137.926 40.9517 131.98 50.0525 120.036 50.0525C108.092 50.0525 102.094 40.9006 102.094 31.3889C102.094 21.7229 108.04 12.8805 120.036 12.8805C132.031 12.8805 138.027 21.7749 137.977 31.4921Z" fill="#373435"/>
<path d="M189.307 13.4713H192V49.4606H189.307V13.4713Z" fill="#373435"/>
<path d="M68.1222 33.162L60.2237 13.4191H57.2754L65.2826 33.162H68.1222Z" fill="#373435"/>
<path d="M86.5526 13.42L73.3888 46.3238L71.7469 42.2185H68.957L71.9155 49.5117H74.863L89.5009 13.42H86.5526Z" fill="#373435"/>
<path d="M155.565 13.4713H152.82V33.2143H155.565V13.4713Z" fill="#373435"/>
<path d="M155.565 46.8389V42.2698H152.82V49.4607H175.59V46.8389H155.565Z" fill="#373435"/>
<path d="M1.59554 0.940427V1.72824C1.59554 1.95332 1.61155 2.09656 1.64358 2.15625C1.67561 2.21763 1.754 2.24747 1.87874 2.24747L1.98579 2.24406L2.1434 2.24065H2.44852C2.68536 2.24065 2.86826 2.1085 2.99722 1.84419L3.07982 1.66685C3.10089 1.62337 3.13714 1.59949 3.18687 1.59779C3.23912 1.59523 3.2661 1.62848 3.2661 1.69584C3.2661 1.71545 3.26272 1.76916 3.25514 1.85527C3.25008 1.91922 3.2484 1.97208 3.2484 2.01642C3.2484 2.094 3.25935 2.27561 3.28042 2.56123C3.29475 2.74881 3.30234 2.9108 3.30234 3.04978L3.30571 3.23479C3.30571 3.2689 3.30234 3.29192 3.29475 3.30385C3.28464 3.31835 3.2661 3.32687 3.23744 3.32943C3.17759 3.33455 3.14051 3.28851 3.12618 3.19131C3.09499 2.98583 3.02335 2.8298 2.91125 2.72323C2.84888 2.66525 2.77302 2.62774 2.68368 2.61068C2.59349 2.59363 2.42576 2.58511 2.17964 2.58511H1.93606C1.82143 2.58511 1.74304 2.60216 1.70174 2.63797C1.6596 2.67293 1.63094 2.74369 1.61661 2.85027C1.60228 2.97048 1.59554 3.16147 1.59554 3.42237V3.74892C1.59554 4.08911 1.62167 4.33466 1.67393 4.48472C1.71438 4.59385 1.76243 4.66717 1.81806 4.70554C1.87284 4.74476 1.95713 4.76352 2.07176 4.76352C3.04274 4.76352 3.67657 4.46511 3.97579 3.86658C3.99264 3.83759 4.00697 3.82224 4.01877 3.81968C4.04322 3.81457 4.06513 3.82309 4.08536 3.84355C4.10559 3.86402 4.1157 3.89045 4.1157 3.92199C4.1157 4.15987 4.05249 4.39008 3.92606 4.61346C3.8207 4.80274 3.68921 4.9383 3.5316 5.0193C3.37314 5.1003 3.16411 5.14122 2.90366 5.14122C2.75111 5.14122 2.58085 5.13184 2.39457 5.11223L1.97904 5.07216C1.82564 5.05767 1.61914 5.05085 1.3587 5.05085C1.18422 5.05085 0.918721 5.06193 0.563033 5.08325C0.465261 5.09007 0.39446 5.09433 0.351474 5.09433C0.294159 5.09433 0.262973 5.06705 0.257916 5.01248C0.255388 4.96814 0.282359 4.93489 0.337145 4.91272C0.472846 4.85901 0.565561 4.80359 0.61529 4.74391C0.664176 4.68508 0.702105 4.57935 0.731605 4.42674C0.757734 4.29885 0.77122 4.12492 0.77122 3.90494V1.02995C0.77122 0.759675 0.726548 0.575511 0.639733 0.478314C0.552918 0.38197 0.371703 0.314614 0.0960864 0.276246C0.0320288 0.266015 0 0.230206 0 0.168818C0 0.111693 0.0396146 0.0835571 0.118001 0.0835571C0.134858 0.0835571 0.170258 0.0861149 0.225887 0.090378C0.268873 0.0929358 0.327874 0.094641 0.401203 0.094641L0.763634 0.109135L2.12233 0.122777C2.90366 0.122777 3.38578 0.112546 3.567 0.090378C3.58554 0.0886728 3.60324 0.0869676 3.61757 0.0869676C3.68668 0.0869676 3.72124 0.12704 3.72124 0.206333C3.72124 0.262605 3.72883 0.361507 3.74316 0.504745C3.7617 0.715339 3.77097 0.86625 3.77097 0.958332C3.77097 1.1425 3.72461 1.23628 3.63106 1.2414C3.58554 1.24396 3.56363 1.19024 3.56363 1.08111C3.56363 0.840672 3.47681 0.665888 3.30318 0.558459C3.13039 0.450178 2.84972 0.395611 2.46285 0.395611H2.0254L1.78181 0.4246C1.6596 0.46382 1.59891 0.585743 1.59891 0.792074L1.59554 0.940427Z" fill="#373435"/>
<path d="M8.20075 0.0145264C8.42495 0.0145264 8.64494 0.0580093 8.85987 0.144975L9.10009 0.247288C9.20797 0.290771 9.28467 0.312086 9.33019 0.312086C9.36306 0.312086 9.39762 0.30356 9.43386 0.287361L9.5704 0.217447C9.58895 0.208068 9.60833 0.202953 9.62772 0.202953C9.67745 0.202953 9.70273 0.243025 9.70273 0.32317L9.69599 0.61732C9.69599 0.66336 9.69852 0.706843 9.70273 0.747768L9.74993 1.10331L9.78533 1.43412C9.79039 1.46311 9.79292 1.48783 9.79292 1.50659C9.79292 1.61061 9.76258 1.66262 9.70273 1.66262C9.65975 1.66262 9.62856 1.61658 9.61002 1.52535C9.54006 1.18686 9.36559 0.895269 9.08576 0.648866C8.80509 0.402463 8.5084 0.279687 8.19485 0.279687C7.97992 0.279687 7.79196 0.353011 7.63098 0.49966C7.47083 0.647161 7.39076 0.821093 7.39076 1.0206C7.39076 1.20647 7.46156 1.36676 7.60232 1.50233C7.69335 1.58929 7.97739 1.73082 8.45361 1.92607C9.02002 2.16139 9.39593 2.39159 9.58052 2.61668C9.79798 2.88781 9.90755 3.21521 9.90755 3.59803C9.90755 4.01922 9.75668 4.38584 9.45578 4.6979C9.15403 5.0108 8.80171 5.16683 8.39798 5.16683C8.23278 5.16683 7.97149 5.10971 7.61243 4.99631C7.44555 4.94004 7.32249 4.90423 7.2441 4.88718C7.13369 4.86586 7.06963 4.84455 7.05193 4.82323C7.03423 4.80362 7.01906 4.74053 7.00642 4.63736C6.99546 4.52311 6.95922 4.35856 6.89937 4.14285C6.80919 3.81374 6.76367 3.60315 6.76367 3.51107C6.76367 3.39511 6.79992 3.33714 6.87409 3.33714C6.9078 3.33714 6.9314 3.36527 6.94573 3.4241C7.06289 3.83932 7.26686 4.18804 7.55596 4.47025C7.84591 4.75332 8.14681 4.894 8.45783 4.894C8.69973 4.894 8.9155 4.80106 9.10514 4.61434C9.29563 4.42677 9.39172 4.21276 9.39172 3.97148C9.39172 3.78049 9.34115 3.62361 9.24253 3.50084C9.14307 3.37806 8.97113 3.26211 8.7267 3.15297L8.18137 2.90657C7.66638 2.67381 7.31743 2.45384 7.13285 2.2475C6.9491 2.03947 6.85639 1.76408 6.85639 1.42048C6.85639 1.0206 6.9845 0.686381 7.24158 0.417809C7.49865 0.149238 7.81809 0.0145264 8.20075 0.0145264V0.0145264Z" fill="#373435"/>
<path d="M15.3865 0.980532V3.71484C15.3865 4.12324 15.4455 4.41313 15.5626 4.5845C15.6798 4.75503 15.8863 4.84967 16.183 4.86928C16.269 4.87695 16.3119 4.91958 16.3119 4.99887C16.3119 5.05514 16.2749 5.08328 16.2007 5.08328C16.1838 5.08328 16.1543 5.08157 16.1113 5.07987L15.8425 5.06879L15.3941 5.0398C15.3587 5.03724 15.3106 5.03639 15.2508 5.03639C15.1117 5.03639 14.9878 5.0398 14.8782 5.04662L14.0859 5.09351C14.0017 5.10374 13.9443 5.10886 13.914 5.10886C13.839 5.10886 13.8036 5.07646 13.8061 5.01251C13.8086 4.9588 13.8204 4.92384 13.8415 4.90764C13.8634 4.89144 13.9098 4.88121 13.9814 4.87695C14.1685 4.86416 14.3118 4.79595 14.4138 4.67147C14.515 4.54614 14.5664 4.37647 14.5664 4.16076L14.5622 3.99024V0.765675C14.5622 0.574691 14.4602 0.479199 14.2579 0.479199C13.78 0.479199 13.453 0.514156 13.2785 0.584922C13.1521 0.638637 13.0678 0.698319 13.0265 0.765675C12.9843 0.832179 12.927 0.997584 12.8562 1.26275L12.8276 1.36421C12.8006 1.46396 12.7601 1.51426 12.7053 1.51426C12.6261 1.51426 12.5899 1.47675 12.5941 1.40172C12.5966 1.33351 12.6084 1.23887 12.6303 1.11865L12.6657 0.802337L12.7087 0.479199L12.734 0.257521C12.7433 0.162882 12.7938 0.115988 12.884 0.115988C12.9085 0.115988 12.9489 0.118546 13.0062 0.122809C13.0998 0.130483 13.2321 0.133893 13.4041 0.133893L14.1357 0.141566L15.0072 0.15265C15.5685 0.15265 16.1636 0.136451 16.7924 0.105757C16.9163 0.100641 16.9964 0.0980835 17.0326 0.0980835C17.1641 0.0980835 17.2332 0.153503 17.2408 0.265195L17.2585 0.526945C17.261 0.56787 17.2728 0.66592 17.2939 0.820242C17.3107 0.948986 17.3192 1.0513 17.3192 1.12889C17.3192 1.20903 17.2871 1.2491 17.2222 1.2491C17.1675 1.2491 17.1295 1.20306 17.1076 1.11013C17.0579 0.884188 16.9618 0.72134 16.8194 0.621584C16.6769 0.521829 16.4704 0.472378 16.2007 0.472378C15.8374 0.472378 15.6107 0.500514 15.5213 0.557639C15.432 0.613911 15.3865 0.755444 15.3865 0.980532Z" fill="#373435"/>
<path d="M27.1522 3.80187C27.2069 3.80187 27.2373 3.82233 27.2415 3.86326L27.2348 3.89992L27.1808 4.05936C27.1471 4.15826 27.1058 4.26143 27.0552 4.368L26.8732 4.75679C26.8007 4.90685 26.7383 4.99808 26.6844 5.03133C26.6304 5.06373 26.5166 5.07993 26.3422 5.07993C26.2368 5.07993 26.1104 5.07566 25.962 5.06884L25.6569 5.05094C25.5423 5.04582 25.3813 5.04327 25.1731 5.04327C24.7837 5.04327 24.5401 5.05179 24.4415 5.06884C24.3749 5.08078 24.326 5.08675 24.2949 5.08675C24.2207 5.08675 24.1836 5.05435 24.1836 4.9887C24.1836 4.94266 24.2544 4.83949 24.396 4.68006C24.616 4.42598 24.8688 4.09005 25.1537 3.67313C25.4386 3.2562 25.6493 2.91516 25.7859 2.64829C25.9679 2.2902 26.059 1.96621 26.059 1.67803C26.059 1.42907 25.9898 1.23041 25.8508 1.08205C25.7117 0.934554 25.5263 0.860377 25.2936 0.860377C24.9632 0.860377 24.6666 1.01129 24.4027 1.31396C24.3791 1.34381 24.3572 1.3583 24.3378 1.3583C24.321 1.3583 24.3033 1.34722 24.2822 1.32761C24.262 1.30629 24.2519 1.28668 24.2519 1.26707C24.2519 1.23552 24.289 1.16817 24.3631 1.06586C24.4373 0.96269 24.5148 0.872313 24.5966 0.795579C24.9135 0.478409 25.281 0.319824 25.6965 0.319824C26.0261 0.319824 26.2933 0.411906 26.4964 0.597774C26.6995 0.78279 26.8007 1.02664 26.8007 1.33016C26.8007 1.87754 26.3321 2.69348 25.3948 3.7797L25.2228 3.97921C25.1234 4.09261 25.0728 4.17446 25.0728 4.22306C25.0728 4.30747 25.1731 4.3501 25.3737 4.3501L25.9603 4.34242L26.3042 4.33901C26.456 4.33134 26.606 4.28274 26.7518 4.19322C26.8968 4.10284 27.0055 3.99115 27.0771 3.85644C27.0982 3.81978 27.1235 3.80187 27.1522 3.80187Z" fill="#373435"/>
<path d="M31.4645 0.686445C31.2159 0.686445 31.0186 0.810926 30.8745 1.06074C30.7295 1.31055 30.657 1.64733 30.657 2.07108C30.657 2.80262 30.7877 3.42246 31.0481 3.92976C31.3086 4.43706 31.6272 4.69114 32.0022 4.69114C32.2484 4.69114 32.4439 4.56581 32.5897 4.31514C32.7355 4.06447 32.8089 3.72684 32.8089 3.3031C32.8089 2.91772 32.7524 2.52552 32.6386 2.12565C32.5248 1.72577 32.3782 1.40093 32.1995 1.15197C31.9719 0.84162 31.7275 0.686445 31.4645 0.686445ZM31.816 0.319824C32.2551 0.319824 32.6251 0.523597 32.9252 0.931143C33.2252 1.34039 33.3753 1.84429 33.3753 2.44537C33.3753 2.82052 33.3121 3.20164 33.1848 3.58787C33.0584 3.9741 32.8923 4.29553 32.6867 4.55302C32.3571 4.96227 31.9795 5.16689 31.5538 5.16689C31.1046 5.16689 30.7363 4.95715 30.448 4.53852C30.1598 4.11904 30.0156 3.5836 30.0156 2.93221C30.0156 2.22455 30.1943 1.61238 30.55 1.0957C30.9065 0.578164 31.328 0.319824 31.816 0.319824Z" fill="#373435"/>
<path d="M37.4871 0.686445C37.2385 0.686445 37.0412 0.810926 36.8971 1.06074C36.753 1.31055 36.6796 1.64733 36.6796 2.07108C36.6796 2.80262 36.8103 3.42246 37.0707 3.92976C37.3312 4.43706 37.6489 4.69114 38.0248 4.69114C38.271 4.69114 38.4665 4.56581 38.6123 4.31514C38.7581 4.06447 38.8315 3.72684 38.8315 3.3031C38.8315 2.91772 38.775 2.52552 38.6612 2.12565C38.5474 1.72577 38.4016 1.40093 38.2221 1.15197C37.9945 0.84162 37.7501 0.686445 37.4871 0.686445ZM37.8386 0.319824C38.2777 0.319824 38.6477 0.523597 38.9478 0.931143C39.2478 1.34039 39.3979 1.84429 39.3979 2.44537C39.3979 2.82052 39.3346 3.20164 39.2074 3.58787C39.0809 3.9741 38.9149 4.29553 38.7092 4.55302C38.3797 4.96227 38.0021 5.16689 37.5764 5.16689C37.1272 5.16689 36.7589 4.95715 36.4706 4.53852C36.1823 4.11904 36.0391 3.5836 36.0391 2.93221C36.0391 2.22455 36.2169 1.61238 36.5726 1.0957C36.9291 0.578164 37.3506 0.319824 37.8386 0.319824Z" fill="#373435"/>
<path d="M43.9505 3.00288V2.37366L43.9437 1.9627L43.9505 1.59182L43.9471 1.49718C43.9471 1.45625 43.9362 1.43494 43.9151 1.43494C43.8932 1.43494 43.8578 1.46989 43.808 1.53725L43.6858 1.70095L43.2998 2.20996C43.1447 2.41117 42.9652 2.67207 42.7595 2.99095C42.7267 3.04466 42.6997 3.08473 42.6778 3.11202C42.6516 3.14783 42.6382 3.17852 42.6382 3.20239C42.6407 3.24076 42.6887 3.26037 42.7814 3.26037L42.8961 3.26463H43.8257C43.9109 3.26463 43.9539 3.2058 43.9539 3.089L43.9505 3.00288ZM44.6821 4.11724V5.26485C44.677 5.34755 44.6197 5.38848 44.5093 5.38848L44.2607 5.42855C44.189 5.44049 44.1275 5.45328 44.0769 5.46777C44.0381 5.48056 44.007 5.48738 43.9834 5.48994C43.926 5.49505 43.8965 5.46521 43.8965 5.40297C43.8965 5.3791 43.9016 5.34329 43.9109 5.2981C43.9378 5.18812 43.9505 5.06278 43.9505 4.9204V4.11724L43.9539 4.01578L43.9109 3.92114C43.8847 3.89983 43.8139 3.88874 43.7002 3.88874H42.2833C42.1763 3.88874 42.1063 3.87936 42.0743 3.86146C42.0414 3.84355 42.0254 3.80263 42.0254 3.73953C42.0254 3.62187 42.3103 3.15976 42.8801 2.35575C43.3057 1.75637 43.6892 1.24566 44.0306 0.823617C44.3719 0.402429 44.5725 0.192688 44.6324 0.192688C44.6703 0.192688 44.6888 0.223382 44.6888 0.286475L44.6855 0.595971L44.6821 0.919962V3.07876L44.6998 3.17681C44.7166 3.21603 44.7773 3.23479 44.8827 3.23479C45.0673 3.23479 45.1861 3.1555 45.2417 2.99521C45.2552 2.95173 45.278 2.93041 45.3092 2.93041C45.3715 2.93041 45.4027 2.95769 45.4027 3.01311C45.4027 3.03699 45.4002 3.06171 45.3951 3.08558C45.3859 3.13163 45.3749 3.23394 45.3631 3.39338C45.3488 3.60994 45.3176 3.74806 45.2696 3.80774C45.2224 3.86657 45.1204 3.89556 44.9653 3.89556H44.8473C44.7731 3.89556 44.7268 3.90835 44.7091 3.93222C44.6914 3.95695 44.6821 4.01834 44.6821 4.11724Z" fill="#373435"/>
</g>
<defs>
<clipPath id="clip0_195_186">
<rect width="192" height="63" fill="white"/>
</clipPath>
</defs>
</svg>
