<svg width="381" height="481" viewBox="0 0 381 481" fill="none" xmlns="http://www.w3.org/2000/svg">
<path d="M17.4504 242.644V239.732C17.4504 237.487 16.8353 235.728 15.6052 234.442C14.3871 233.156 12.7108 232.513 10.5762 232.513C8.10386 232.513 6.07778 233.386 4.48585 235.134C2.88187 236.893 2.08591 239.113 2.08591 241.819C2.08591 242.826 2.25475 243.517 2.59243 243.906C2.91805 244.294 3.52105 244.488 4.38937 244.488L5.23357 244.464H15.6052C16.4132 244.464 16.9197 244.355 17.1368 244.136C17.3418 243.93 17.4504 243.42 17.4504 242.644V242.644ZM18.0051 235.109L28.3767 228.036L29.5827 227.211C32.7787 225.027 34.4309 223.013 34.5394 221.169L34.5997 220.344C34.6118 220.04 34.7324 219.895 34.9615 219.907C35.2148 219.931 35.456 220.307 35.661 221.047C35.866 221.8 35.9746 222.637 35.9746 223.571C35.9746 225.112 35.5525 226.495 34.7083 227.72C33.8641 228.934 32.5013 230.183 30.5958 231.445L20.9116 237.827L20.3568 238.179C19.6574 238.591 19.3076 239.259 19.3076 240.181V243.59L19.4162 244.148C19.5368 244.355 19.8021 244.464 20.2242 244.464H28.2079L29.2209 244.439C30.6923 244.439 31.6932 244.367 32.2359 244.221C32.7666 244.075 33.249 243.724 33.6711 243.178C34.25 242.45 34.6238 241.309 34.7686 239.768C34.8409 239.162 35.0339 238.834 35.3474 238.822C35.6731 238.786 35.8419 239.077 35.8419 239.671C35.8419 239.914 35.8057 240.411 35.7334 241.176C35.6489 241.879 35.6128 242.971 35.6128 244.439L35.5886 246.89L35.6128 248.225C35.6128 248.807 35.6489 249.511 35.7454 250.336C35.8057 251.003 35.8419 251.464 35.8419 251.719C35.8419 252.144 35.6731 252.35 35.3233 252.35C35.0701 252.35 34.9012 252.144 34.8289 251.719C34.5635 250.348 33.9485 249.45 32.9716 249.026C31.9947 248.601 30.0772 248.383 27.1949 248.383H8.8757L6.2225 248.431C3.56929 248.431 2.08591 249.365 1.78441 251.234L1.60351 252.435C1.50703 252.981 1.30201 253.248 1.01257 253.248C0.662828 253.248 0.481928 252.957 0.481928 252.374C0.481928 252.241 0.518108 251.646 0.590468 250.591C0.638708 249.972 0.662829 249.208 0.662829 248.31C0.662829 247.521 0.602528 246.174 0.481928 244.282C0.397508 242.911 0.361328 241.71 0.361328 240.666C0.361328 236.735 1.09699 233.775 2.55625 231.773C4.02757 229.771 6.2225 228.776 9.12896 228.776C12.952 228.776 15.9067 230.887 18.0051 235.109V235.109Z" fill="#98ABA7"/>
<path d="M8.11592 201.622H27.219C29.5948 201.622 31.1747 201.477 31.9344 201.186C32.8028 200.846 33.4178 200.421 33.7796 199.912C34.1294 199.414 34.3947 198.626 34.5394 197.546C34.66 196.684 34.865 196.26 35.1665 196.26C35.5645 196.26 35.7695 196.527 35.7695 197.061C35.7695 197.315 35.7334 197.643 35.6851 198.031C35.6007 198.565 35.5645 199.463 35.5645 200.749L35.5163 204.462L35.6851 207.483C35.7454 207.98 35.7695 208.393 35.7695 208.72C35.7695 209.181 35.5886 209.412 35.2389 209.412C34.9494 209.412 34.7565 209.145 34.6721 208.611C34.455 207.313 34.0088 206.476 33.3334 206.1C32.658 205.723 31.247 205.541 29.0883 205.541H7.2476C5.13709 205.541 3.71401 205.784 2.97835 206.269C2.25475 206.755 1.76029 207.798 1.50703 209.388C1.39849 209.921 1.20553 210.188 0.904029 210.2C0.542228 210.225 0.361328 209.97 0.361328 209.46C0.361328 209.327 0.361328 209.169 0.385448 208.999C0.530168 207.75 0.614588 206.1 0.614588 204.025C0.614588 202.763 0.578408 201.683 0.530168 200.773L0.385448 199.062C0.361328 198.735 0.361328 198.516 0.361328 198.419C0.361328 197.958 0.518108 197.728 0.831669 197.728C1.13317 197.728 1.35025 197.946 1.50703 198.395L2.01355 199.718C2.49595 200.992 4.52203 201.622 8.11592 201.622V201.622Z" fill="#98ABA7"/>
<path d="M6.68205 177.381L29.174 167.529C29.7287 167.299 30.0061 167.068 29.982 166.862C29.982 166.704 29.4996 166.389 28.5348 165.952L27.5821 165.54L14.316 159.922C8.62371 157.508 4.9454 156.294 3.3173 156.294C2.75048 156.294 2.36456 156.416 2.13542 156.683C1.90628 156.937 1.71332 157.459 1.55654 158.236C1.37564 159.194 1.1465 159.667 0.857059 159.655C0.543499 159.631 0.386719 159.352 0.386719 158.806C0.386719 158.684 0.386719 158.43 0.410839 158.054C0.471139 156.792 0.507319 156.027 0.507319 155.773V154.717L0.483199 153.564V152.921L0.459079 150.738C0.459079 150.386 0.603799 150.216 0.905299 150.216C1.1465 150.216 1.3274 150.398 1.448 150.762C1.91834 151.987 2.8952 152.921 4.4027 153.552L6.06699 154.244L35.7226 166.983C36.5547 167.335 36.9647 167.675 36.9647 168.015C36.9647 168.379 36.5426 168.73 35.6864 169.107L5.76549 182.101C4.39064 182.72 3.42584 183.266 2.88314 183.763C2.34044 184.26 1.9907 184.94 1.83392 185.789C1.66508 186.675 1.54448 187.209 1.47212 187.366C1.39976 187.524 1.2671 187.609 1.06208 187.609C0.724399 187.609 0.567619 187.366 0.567619 186.893C0.567619 186.76 0.579679 186.505 0.615859 186.153C0.639979 185.862 0.664099 184.988 0.664099 183.557L0.688219 181.13L0.664099 179.407C0.664099 179.055 0.627919 178.497 0.567619 177.769C0.531439 177.43 0.507319 177.187 0.507319 177.054C0.507319 176.592 0.664099 176.362 0.97766 176.362C1.21886 176.362 1.39976 176.532 1.53242 176.872C1.78568 177.575 2.00276 178.012 2.18366 178.194C2.36456 178.376 2.66606 178.461 3.11228 178.461C3.84794 178.461 5.04188 178.097 6.68205 177.381V177.381Z" fill="#98ABA7"/>
<path d="M1.65222 125.95C1.65222 129.918 2.97882 133.06 5.64409 135.402C8.28523 137.731 11.8671 138.896 16.3534 138.896C21.4909 138.896 25.8326 137.403 29.3541 134.419C32.8877 131.434 34.6484 127.77 34.6484 123.427C34.6484 119.459 33.2133 116.195 30.3309 113.611C27.4607 111.027 23.8185 109.741 19.4166 109.741C14.3394 109.741 10.1184 111.282 6.72949 114.375C3.35268 117.469 1.65222 121.328 1.65222 125.95V125.95ZM0 124.288C0 118.937 1.64016 114.557 4.92049 111.136C8.21287 107.702 12.4098 105.992 17.5353 105.992C22.9743 105.992 27.4245 107.715 30.9098 111.172C34.3831 114.618 36.1197 119.034 36.1197 124.421C36.1197 129.942 34.4555 134.407 31.139 137.804C27.8104 141.213 23.4447 142.924 18.0538 142.924C15.7021 142.924 13.3866 142.475 11.0832 141.577C8.79175 140.679 6.86215 139.466 5.31847 137.949C3.69036 136.348 2.39994 134.31 1.43514 131.847C0.482401 129.396 0 126.872 0 124.288H0Z" fill="#98ABA7"/>
<path d="M28.6044 84.9414L29.4848 84.905C31.535 84.905 32.741 84.7109 33.1149 84.3227C33.4887 83.9223 33.6696 82.6483 33.6696 80.4766C33.6696 77.2735 33.2958 74.4951 32.536 72.1414C31.7883 69.7876 30.7873 68.2831 29.5451 67.6401C29.0868 67.3974 28.8577 67.1548 28.8577 66.9243C28.8577 66.6452 29.0265 66.5117 29.3642 66.536C30.4858 66.6088 31.7159 67.1548 33.0425 68.1982C34.8997 69.6784 35.8163 72.0564 35.8163 75.3565C35.8163 75.9025 35.7922 76.5456 35.7439 77.2614L35.5389 80.0277C35.4183 81.6535 35.358 83.3763 35.358 85.1841C35.358 87.2831 35.4545 89.0544 35.6595 90.474C35.7439 91.0685 35.8042 91.5417 35.8163 91.9056C35.8284 92.3303 35.6836 92.5487 35.3701 92.5487C35.1048 92.5487 34.8997 92.3182 34.7671 91.8571C34.4173 90.6681 33.8867 89.8673 33.1993 89.467C32.5119 89.0544 31.3541 88.8603 29.726 88.8603L28.5441 88.8361H5.73863C3.47135 88.8361 2.15681 89.7581 1.78295 91.6023L1.55381 92.7549C1.46939 93.1675 1.30055 93.3616 1.05935 93.3616C0.673429 93.3616 0.480469 93.0825 0.480469 92.5002C0.480469 92.1119 0.516649 91.5659 0.589009 90.8865C0.685489 89.7218 0.733729 88.4235 0.733729 86.9676C0.733729 85.4025 0.697549 83.9829 0.613129 82.709C0.576949 82.0538 0.564889 81.6899 0.564889 81.6049C0.564889 81.1924 0.685489 80.9861 0.926689 80.9861C1.30055 80.9861 1.54175 81.2409 1.66235 81.7262L1.85531 82.6241C2.22917 84.1649 3.76079 84.9414 6.42605 84.9414H28.6044V84.9414Z" fill="#98ABA7"/>
<path d="M8.11592 47.9367H27.219C29.5948 47.9367 31.1747 47.7911 31.9344 47.5C32.8028 47.1602 33.4178 46.7356 33.7796 46.2382C34.1294 45.7286 34.3947 44.9399 34.5394 43.8601C34.66 43.0108 34.865 42.5862 35.1665 42.5862C35.5645 42.5862 35.7695 42.841 35.7695 43.3748C35.7695 43.6296 35.7334 43.9572 35.6851 44.3454C35.6007 44.8793 35.5645 45.7892 35.5645 47.0632L35.5163 50.7758L35.6851 53.809C35.7454 54.3064 35.7695 54.7068 35.7695 55.0344C35.7695 55.4955 35.5886 55.726 35.2389 55.726C34.9494 55.726 34.7565 55.4712 34.6721 54.9373C34.455 53.6391 34.0088 52.802 33.3334 52.4259C32.658 52.0497 31.247 51.8556 29.0883 51.8556H7.2476C5.13709 51.8556 3.71401 52.0983 2.97835 52.5957C2.25475 53.081 1.76029 54.1123 1.50703 55.7017C1.39849 56.2356 1.20553 56.5025 0.904029 56.5267C0.542228 56.5389 0.361328 56.2962 0.361328 55.7745C0.361328 55.6411 0.361328 55.4833 0.385448 55.3135C0.530168 54.0638 0.614588 52.4137 0.614588 50.3512C0.614588 49.0772 0.578408 47.9974 0.530168 47.0874L0.385448 45.3767C0.361328 45.0491 0.361328 44.8429 0.361328 44.7337C0.361328 44.2726 0.518108 44.0421 0.831669 44.0421C1.13317 44.0421 1.35025 44.2605 1.50703 44.7094L2.01355 46.044C2.49595 47.3058 4.52203 47.9367 8.11592 47.9367V47.9367Z" fill="#98ABA7"/>
<path d="M36.6021 33.8019H0.10854V33.1225L0 0H210.303C314.091 0 366.661 74.8714 367.348 149.743C368.023 228.06 316.817 296.756 212.353 296.756L381 480.847H332.519L167.284 298.806H36.8675V480.847H0L0.10854 264.252V263.573H36.6021H35.9268L206.214 263.779C289.513 263.779 326.38 216.376 327.068 149.063C327.743 92.7309 289.513 34.3479 210.303 34.3479L37.2775 33.8019H36.6021V33.8019Z" fill="#98ABA7"/>
</svg>
