<svg width="253" height="319" viewBox="0 0 253 319" fill="none" xmlns="http://www.w3.org/2000/svg">
<g opacity="0.07">
<path d="M11.5773 160.973V159.041C11.5773 157.552 11.1693 156.385 10.3532 155.532C9.54513 154.679 8.43303 154.252 7.01689 154.252C5.37673 154.252 4.0326 154.832 2.9765 155.991C1.9124 157.158 1.38435 158.631 1.38435 160.426C1.38435 161.094 1.49636 161.553 1.72038 161.81C1.9364 162.068 2.33644 162.197 2.91249 162.197L3.47255 162.18H10.3532C10.8893 162.18 11.2253 162.108 11.3693 161.963C11.5053 161.826 11.5773 161.488 11.5773 160.973ZM11.9454 155.975L18.826 151.282L19.6261 150.735C21.7463 149.286 22.8424 147.95 22.9144 146.726L22.9544 146.179C22.9624 145.978 23.0424 145.881 23.1945 145.889C23.3625 145.905 23.5225 146.155 23.6585 146.646C23.7945 147.145 23.8665 147.7 23.8665 148.32C23.8665 149.342 23.5865 150.26 23.0264 151.073C22.4664 151.878 21.5623 152.707 20.2982 153.544L13.8736 157.778L13.5055 158.011C13.0415 158.285 12.8095 158.727 12.8095 159.339V161.601L12.8815 161.971C12.9615 162.108 13.1375 162.18 13.4175 162.18H18.714L19.3861 162.164C20.3622 162.164 21.0262 162.116 21.3863 162.02C21.7383 161.923 22.0583 161.689 22.3384 161.327C22.7224 160.844 22.9704 160.088 23.0664 159.065C23.1144 158.663 23.2425 158.446 23.4505 158.438C23.6665 158.414 23.7785 158.607 23.7785 159.001C23.7785 159.162 23.7545 159.492 23.7065 159.999C23.6505 160.466 23.6265 161.19 23.6265 162.164L23.6105 163.79L23.6265 164.676C23.6265 165.062 23.6505 165.529 23.7145 166.076C23.7545 166.519 23.7785 166.825 23.7785 166.994C23.7785 167.276 23.6665 167.412 23.4345 167.412C23.2665 167.412 23.1545 167.276 23.1064 166.994C22.9304 166.084 22.5224 165.489 21.8743 165.207C21.2263 164.925 19.9541 164.78 18.042 164.78H5.88878L4.12861 164.813C2.36844 164.813 1.38435 165.432 1.18433 166.672L1.06431 167.469C1.00031 167.831 0.864295 168.008 0.672276 168.008C0.440254 168.008 0.320242 167.815 0.320242 167.428C0.320242 167.34 0.344244 166.946 0.392249 166.245C0.424252 165.835 0.440254 165.328 0.440254 164.732C0.440254 164.209 0.40025 163.315 0.320242 162.06C0.264237 161.15 0.240234 160.353 0.240234 159.661C0.240234 157.053 0.728281 155.089 1.69638 153.761C2.67247 152.433 4.12861 151.773 6.0568 151.773C8.59304 151.773 10.5532 153.174 11.9454 155.975Z" fill="#98ABA7"/>
<path d="M5.38473 133.759H18.058C19.6341 133.759 20.6822 133.662 21.1863 133.469C21.7623 133.244 22.1704 132.962 22.4104 132.624C22.6424 132.294 22.8184 131.771 22.9144 131.055C22.9944 130.483 23.1304 130.201 23.3305 130.201C23.5945 130.201 23.7305 130.378 23.7305 130.733C23.7305 130.902 23.7065 131.119 23.6745 131.376C23.6185 131.731 23.5945 132.326 23.5945 133.179L23.5625 135.642L23.6745 137.647C23.7145 137.977 23.7305 138.25 23.7305 138.468C23.7305 138.774 23.6105 138.927 23.3785 138.927C23.1865 138.927 23.0584 138.749 23.0024 138.395C22.8584 137.534 22.5624 136.979 22.1143 136.729C21.6663 136.48 20.7302 136.359 19.2981 136.359H4.80868C3.40854 136.359 2.46445 136.52 1.9764 136.842C1.49636 137.164 1.16832 137.856 1.00031 138.91C0.928301 139.265 0.800289 139.442 0.600269 139.45C0.360246 139.466 0.240234 139.297 0.240234 138.959C0.240234 138.87 0.240234 138.766 0.256236 138.653C0.352245 137.824 0.408251 136.729 0.408251 135.353C0.408251 134.516 0.384248 133.799 0.352245 133.196L0.256236 132.061C0.240234 131.843 0.240234 131.698 0.240234 131.634C0.240234 131.328 0.344244 131.175 0.552265 131.175C0.752284 131.175 0.896298 131.32 1.00031 131.618L1.33634 132.495C1.65637 133.34 3.0005 133.759 5.38473 133.759Z" fill="#98ABA7"/>
<path d="M4.43226 117.677L19.3537 111.141C19.7217 110.988 19.9058 110.835 19.8898 110.698C19.8898 110.594 19.5697 110.385 18.9297 110.095L18.2976 109.821L9.49675 106.094C5.72039 104.493 3.28015 103.688 2.20005 103.688C1.82401 103.688 1.56799 103.768 1.41597 103.945C1.26396 104.114 1.13594 104.46 1.03193 104.976C0.911923 105.611 0.759908 105.925 0.56789 105.917C0.359869 105.901 0.255859 105.716 0.255859 105.354C0.255859 105.273 0.255859 105.104 0.271861 104.855C0.311865 104.018 0.335867 103.511 0.335867 103.342V102.641L0.319866 101.877V101.45L0.303864 100.001C0.303864 99.7678 0.399873 99.6552 0.599893 99.6552C0.759908 99.6552 0.87992 99.7759 0.959928 100.017C1.27196 100.83 1.92002 101.45 2.92012 101.869L4.02422 102.327L23.6981 110.779C24.2502 111.012 24.5222 111.238 24.5222 111.463C24.5222 111.705 24.2422 111.938 23.6741 112.188L3.8242 120.808C2.91212 121.219 2.27205 121.581 1.91202 121.911C1.55199 122.241 1.31996 122.692 1.21595 123.255C1.10394 123.843 1.02393 124.197 0.975929 124.301C0.927924 124.406 0.839916 124.462 0.703903 124.462C0.479881 124.462 0.375871 124.301 0.375871 123.987C0.375871 123.899 0.383872 123.73 0.407874 123.496C0.423876 123.303 0.439877 122.724 0.439877 121.774L0.455879 120.164L0.439877 119.021C0.439877 118.788 0.415875 118.417 0.375871 117.935C0.351869 117.709 0.335867 117.548 0.335867 117.46C0.335867 117.154 0.439877 117.001 0.647897 117.001C0.807913 117.001 0.927924 117.114 1.01593 117.339C1.18395 117.806 1.32796 118.096 1.44797 118.216C1.56799 118.337 1.76801 118.393 2.06403 118.393C2.55208 118.393 3.34416 118.152 4.43226 117.677Z" fill="#98ABA7"/>
<path d="M1.09611 83.557C1.09611 86.189 1.97619 88.2737 3.74436 89.8272C5.49653 91.3726 7.87276 92.1453 10.849 92.1453C14.2574 92.1453 17.1377 91.1553 19.4739 89.1752C21.8181 87.1952 22.9862 84.7643 22.9862 81.8828C22.9862 79.2507 22.0341 77.0855 20.1219 75.3711C18.2178 73.6566 15.8015 72.8034 12.8812 72.8034C9.51292 72.8034 6.71265 73.8257 4.46443 75.8782C2.22422 77.9307 1.09611 80.4903 1.09611 83.557ZM0 82.4543C0 78.9046 1.08811 75.9989 3.26432 73.7291C5.44853 71.4512 8.2328 70.3163 11.6331 70.3163C15.2415 70.3163 18.1938 71.4592 20.506 73.7532C22.8102 76.0392 23.9623 78.969 23.9623 82.5428C23.9623 86.2051 22.8582 89.1672 20.658 91.4209C18.4498 93.6827 15.5535 94.8176 11.9772 94.8176C10.417 94.8176 8.88086 94.5198 7.35271 93.9242C5.83256 93.3285 4.55244 92.5236 3.52834 91.5175C2.44824 90.455 1.59215 89.1028 0.952092 87.4688C0.320031 85.8429 0 84.1687 0 82.4543H0Z" fill="#98ABA7"/>
<path d="M18.9762 56.3513L19.5602 56.3272C20.9203 56.3272 21.7204 56.1984 21.9684 55.9408C22.2165 55.6752 22.3365 54.83 22.3365 53.3893C22.3365 51.2643 22.0885 49.4211 21.5844 47.8596C21.0884 46.298 20.4243 45.3 19.6002 44.8734C19.2962 44.7124 19.1442 44.5514 19.1442 44.3985C19.1442 44.2133 19.2562 44.1248 19.4802 44.1409C20.2243 44.1892 21.0404 44.5514 21.9204 45.2436C23.1526 46.2256 23.7606 47.8032 23.7606 49.9926C23.7606 50.3548 23.7446 50.7814 23.7126 51.2563L23.5766 53.0914C23.4966 54.17 23.4566 55.313 23.4566 56.5123C23.4566 57.9048 23.5206 59.0799 23.6566 60.0217C23.7126 60.4161 23.7526 60.73 23.7606 60.9715C23.7686 61.2532 23.6726 61.3981 23.4646 61.3981C23.2886 61.3981 23.1526 61.2451 23.0646 60.9393C22.8325 60.1505 22.4805 59.6192 22.0245 59.3536C21.5684 59.0799 20.8003 58.9511 19.7202 58.9511L18.9362 58.935H3.8067C2.30255 58.935 1.43047 59.5468 1.18244 60.7702L1.03043 61.5349C0.974423 61.8086 0.862412 61.9373 0.702396 61.9373C0.446372 61.9373 0.318359 61.7522 0.318359 61.3659C0.318359 61.1083 0.342362 60.7461 0.390366 60.2953C0.454372 59.5226 0.486376 58.6614 0.486376 57.6955C0.486376 56.6572 0.462373 55.7154 0.406368 54.8703C0.382366 54.4356 0.374365 54.1942 0.374365 54.1378C0.374365 53.8641 0.454372 53.7273 0.614388 53.7273C0.862412 53.7273 1.02243 53.8963 1.10243 54.2183L1.23045 54.8139C1.47847 55.8362 2.49457 56.3513 4.26274 56.3513H18.9762Z" fill="#98ABA7"/>
<path d="M5.38473 31.8018H18.058C19.6341 31.8018 20.6822 31.7052 21.1863 31.5121C21.7623 31.2867 22.1704 31.005 22.4104 30.675C22.6424 30.3369 22.8184 29.8137 22.9144 29.0973C22.9944 28.5339 23.1304 28.2522 23.3305 28.2522C23.5945 28.2522 23.7305 28.4212 23.7305 28.7754C23.7305 28.9444 23.7065 29.1617 23.6745 29.4193C23.6185 29.7735 23.5945 30.3771 23.5945 31.2223L23.5625 33.6853L23.6745 35.6976C23.7145 36.0276 23.7305 36.2932 23.7305 36.5105C23.7305 36.8164 23.6105 36.9693 23.3785 36.9693C23.1865 36.9693 23.0584 36.8003 23.0024 36.4461C22.8584 35.5849 22.5624 35.0295 22.1143 34.78C21.6663 34.5305 20.7302 34.4017 19.2981 34.4017H4.80868C3.40854 34.4017 2.46445 34.5626 1.9764 34.8927C1.49636 35.2146 1.16832 35.8988 1.00031 36.9532C0.928301 37.3074 0.800289 37.4845 0.600269 37.5006C0.360246 37.5086 0.240234 37.3476 0.240234 37.0015C0.240234 36.913 0.240234 36.8083 0.256236 36.6956C0.352245 35.8666 0.408251 34.7719 0.408251 33.4036C0.408251 32.5584 0.384248 31.8421 0.352245 31.2384L0.256236 30.1035C0.240234 29.8862 0.240234 29.7493 0.240234 29.6769C0.240234 29.371 0.344244 29.2181 0.552265 29.2181C0.752284 29.2181 0.896298 29.363 1.00031 29.6608L1.33634 30.5462C1.65637 31.3833 3.0005 31.8018 5.38473 31.8018Z" fill="#98ABA7"/>
<path d="M24.2824 22.4247H0.072007V21.9739L0 0H139.518C208.372 0 243.248 49.6707 243.704 99.3414C244.152 151.298 210.18 196.872 140.878 196.872L252.76 319H220.597L110.979 198.232H24.4584V319H0L0.072007 175.308V174.858H24.2824H23.8343L136.805 174.994C192.067 174.994 216.525 143.547 216.981 98.8906C217.429 61.5189 192.067 22.7869 139.518 22.7869L24.7304 22.4247H24.2824Z" fill="#98ABA7"/>
</g>
</svg>
