<svg width="161" height="53" viewBox="0 0 161 53" fill="none" xmlns="http://www.w3.org/2000/svg">
<g clip-path="url(#clip0_44_50)">
<path d="M20.1645 20.7155L20.1645 20.716C20.1437 22.793 19.5702 24.5298 18.3969 25.7465C17.2256 26.961 15.4229 27.6922 12.8711 27.6922H2.30126H0H-0.25V27.9422V41.6098V41.8598H0H2.30126H2.55126V41.6098V30.3978H10.3305L20.5693 41.777L20.6438 41.8598H20.7552H23.7816H24.3463L23.9667 41.4417L13.8094 30.2575C16.8528 30.1412 19.1657 29.0664 20.7346 27.411C22.395 25.659 23.2009 23.2791 23.1792 20.7601L23.1792 20.76C23.1575 18.3474 22.3072 15.9283 20.6251 14.1099C18.9393 12.2876 16.4313 11.083 13.1269 11.083H0H-0.25V11.333V13.4956V13.7456H0H2.30126H13.1269C15.5317 13.7456 17.2948 14.6373 18.4539 15.9432C19.6172 17.2538 20.1854 18.9971 20.1645 20.7155Z" fill="white" stroke="white" stroke-width="0.5"/>
<path d="M34.7754 11.083H34.5254V11.333V41.6098V41.8598H34.7754H37.0349H37.2849V41.6098V11.333V11.083H37.0349H34.7754Z" fill="white" stroke="white" stroke-width="0.5"/>
<path d="M115.949 26.4946V26.4946C115.97 22.3578 114.709 18.3813 112.153 15.4353C109.593 12.4843 105.751 10.5859 100.654 10.5859C95.5581 10.5859 91.7261 12.4731 89.1713 15.4077C86.6208 18.3373 85.3594 22.2918 85.3594 26.4065C85.3594 30.4573 86.6321 34.4432 89.1863 37.4205C91.7449 40.403 95.5765 42.3576 100.654 42.3576C105.732 42.3576 109.553 40.4141 112.106 37.4478C114.655 34.4868 115.927 30.5229 115.949 26.4946ZM88.1182 26.4479C88.0973 22.9279 89.1382 19.6273 91.2222 17.2109C93.302 14.7994 96.4378 13.2478 100.654 13.2478C104.869 13.2478 108.005 14.8304 110.091 17.2589C112.181 19.6926 113.232 22.9943 113.232 26.4495C113.232 29.8168 112.172 33.1303 110.074 35.5978C107.982 38.06 104.845 39.6943 100.654 39.6943C96.4859 39.6943 93.3705 38.0604 91.2879 35.5983C89.2007 33.1306 88.1395 29.8164 88.1182 26.448L88.1182 26.4479Z" fill="white" stroke="white" stroke-width="0.5"/>
<path d="M158.74 11.083H158.49V11.333V41.6098V41.8598H158.74H160.999H161.249V41.6098V11.333V11.083H160.999H158.74Z" fill="white" stroke="white" stroke-width="0.5"/>
<path d="M57.1228 28.1482H57.4916L57.355 27.8056L50.7319 11.1965L50.6691 11.0391H50.4996H48.0273H47.6566L47.7956 11.3828L54.5099 27.9919L54.5731 28.1482H54.7417H57.1228Z" fill="white" stroke="white" stroke-width="0.5"/>
<path d="M72.5788 11.04H72.4094L72.3466 11.1974L61.5405 38.296L60.3959 35.4248L60.3331 35.2673H60.1636H57.8242H57.4535L57.5924 35.6111L60.0732 41.7466L60.1364 41.9029H60.305H62.7766H62.9452L63.0084 41.7466L75.2829 11.3837L75.4219 11.04H75.0511H72.5788Z" fill="white" stroke="white" stroke-width="0.5"/>
<path d="M130.698 11.333V11.083H130.448H128.146H127.896V11.333V27.9422V28.1922H128.146H130.448H130.698V27.9422V11.333Z" fill="white" stroke="white" stroke-width="0.5"/>
<path d="M147.24 39.1544H130.698V35.5605V35.3105H130.448H128.146H127.896V35.5605V41.61V41.86H128.146H147.24H147.49V41.61V39.4044V39.1544H147.24Z" fill="white" stroke="white" stroke-width="0.5"/>
</g>
<defs>
<clipPath id="clip0_44_50">
<rect width="161" height="53" fill="white"/>
</clipPath>
</defs>
</svg>
