<svg width="563" height="657" viewBox="0 0 563 657" fill="none" xmlns="http://www.w3.org/2000/svg">
<g clip-path="url(#clip0_36_102)">
<rect width="563" height="657" fill="white"/>
<path d="M146.5 3.5L-1.5 656.5L2 658L151.5 3.5" stroke="#EAE5E1" stroke-width="5"/>
<path d="M106.031 201.057C104.682 200.764 103.35 201.62 103.057 202.969C102.764 204.318 103.62 205.65 104.969 205.943L106.031 201.057ZM104.969 205.943L330.469 254.943L331.531 250.057L106.031 201.057L104.969 205.943Z" fill="#EAE5E1"/>
<path d="M99.5 235C103.1 237 248.333 269.833 320.5 286" stroke="#EAE5E1" stroke-width="5" stroke-linecap="round"/>
<path d="M199 259.5L184.5 321.5L239.5 333.5L254.5 271.5" stroke="#EAE5E1" stroke-width="4" stroke-linecap="round"/>
<path d="M360.5 258L413.5 270.5L406 304.5L352.5 292.5" stroke="#EAE5E1" stroke-width="5" stroke-linecap="round"/>
<path d="M255 652.5L300.5 449.5C307.167 424.167 323.1 366.4 333.5 338C343.9 309.6 348.167 299.167 349 297.5C353.333 291.333 361.6 272.8 360 248C358.4 223.2 368.667 153.333 374 121.5L401.5 3.5" stroke="#EAE5E1" stroke-width="5" stroke-linecap="round"/>
<path d="M292.5 483.5C301.333 445.167 319 360.6 319 329C319 297.4 324.333 270.167 327 260.5C340.833 227.333 370.2 150.5 377 108.5" stroke="#EAE5E1" stroke-width="5" stroke-linecap="round"/>
<path d="M360 254.5C358 238.5 349 221.5 332 248" stroke="#EAE5E1" stroke-width="5" stroke-linecap="round"/>
<path d="M322.279 287C321.669 303.113 327.807 321.343 348.862 297.935" stroke="#EAE5E1" stroke-width="5" stroke-linecap="round"/>
<path d="M2 471L43.5 474L290.5 530.5L444 568.5L533 589.5L562 597.5" stroke="#EAE5E1" stroke-width="5" stroke-linecap="round"/>
<path d="M271 652L295.5 543" stroke="#EAE5E1" stroke-width="4" stroke-linecap="round"/>
<path d="M274.5 565C277.333 576.333 282.8 600.3 282 605.5" stroke="#EAE5E1" stroke-width="4" stroke-linecap="round"/>
<path d="M337.5 542L305 541C299.667 540.333 288 541.3 284 550.5L274.5 563.5" stroke="#EAE5E1" stroke-width="4" stroke-linecap="round"/>
<path d="M247 520.5C258.5 524 280.6 535.7 277 554.5" stroke="#EAE5E1" stroke-width="4" stroke-linecap="round"/>
<path d="M266 524.5C269.833 525.667 279.2 524.5 286 510.5" stroke="#EAE5E1" stroke-width="4" stroke-linecap="round"/>
<path d="M289.5 501C289.167 511 293.5 532.2 313.5 537" stroke="#EAE5E1" stroke-width="4" stroke-linecap="round"/>
<path d="M290.5 510.5C296.667 502.667 309.3 485 310.5 477L351 294.5" stroke="#EAE5E1" stroke-width="4" stroke-linecap="round"/>
<path d="M298.5 527.5L312 470.5" stroke="#EAE5E1" stroke-width="4" stroke-linecap="round"/>
<path d="M390.5 655L405 585C406.833 578.167 411.4 563.1 415 557.5L451 420.5" stroke="#EAE5E1" stroke-width="4" stroke-linecap="round"/>
<path d="M560.5 521.5L453.5 423C450.5 420.5 445.4 412.7 449 401.5L471.5 306.5L483.5 267L540 117.5L560 64.5L568.5 50H563L367.5 2.5" stroke="#EAE5E1" stroke-width="4" stroke-linecap="round"/>
<path d="M459.5 360.5C460.7 362.1 527.667 418.167 561 446" stroke="#EAE5E1" stroke-width="4" stroke-linecap="round"/>
<path d="M515 408L560.5 338" stroke="#EAE5E1" stroke-width="4" stroke-linecap="round"/>
<path d="M532 383L520 366C519 364.5 517.2 359.8 518 353C518.8 346.2 511 342.833 507 342" stroke="#EAE5E1" stroke-width="4" stroke-linecap="round"/>
<path opacity="0.3" d="M30.5001 463L5.5001 456.5L-24.5 624.5L-16.5 142C-24.8333 89.1667 -41.8999 -17.4999 -43.4999 -21.4999C-45.0999 -25.4999 75.8334 -10.8333 136.5 -2.99995L30.5001 463Z" fill="#98ABA7"/>
<path d="M286 294.929C286.707 292.102 288.12 286.36 288.12 286L292.236 286.899L291.862 288.248L302.089 290.753C304.384 300.055 310.986 306.705 314 308.868L313.314 311.566H312.69L311.318 318.375L312.69 319.146L311.942 323L303.212 321.201V320.045L294.918 318.054L295.791 314.264L286 311.887L289.056 295.635L286 294.929Z" fill="#506369"/>
<path d="M311.543 290.333C310.67 290.333 309.796 290.001 309.131 289.336C307.801 288.006 307.801 285.841 309.131 284.511C309.776 283.867 310.632 283.512 311.543 283.512C312.455 283.512 313.311 283.867 313.956 284.511C315.286 285.841 315.286 288.006 313.956 289.336C313.291 290.001 312.417 290.333 311.543 290.333ZM311.543 284.862C311.015 284.862 310.487 285.063 310.085 285.465C309.281 286.269 309.281 287.578 310.085 288.382C310.475 288.771 310.993 288.985 311.543 288.985C312.094 288.985 312.612 288.771 313.001 288.382C313.806 287.578 313.806 286.269 313.001 285.465C312.599 285.063 312.071 284.862 311.543 284.862Z" fill="#506369"/>
<path d="M311.551 302L311.03 301.387C310.724 301.028 303.549 292.535 303.549 286.995C303.549 282.586 307.135 279 311.544 279C315.952 279 319.538 282.586 319.538 286.995C319.538 292.263 312.369 301.01 312.064 301.379L311.551 302ZM311.544 280.349C307.879 280.349 304.898 283.33 304.898 286.995C304.898 289.054 306.126 292.034 308.449 295.614C309.655 297.471 310.869 299.044 311.536 299.876C312.204 299.021 313.43 297.396 314.643 295.504C316.963 291.885 318.189 288.943 318.189 286.995C318.189 283.33 315.208 280.349 311.544 280.349V280.349Z" fill="#506369"/>
<g clip-path="url(#clip1_36_102)">
<path d="M268.439 255.701L274.196 257.028C277.029 257.681 278.662 256.323 279.224 253.99C279.698 252.04 278.865 249.712 276.172 249.091L270.275 247.733L269.021 247.444L269.296 246.251L276.447 247.899C279.976 248.712 281.164 251.724 280.588 254.33C279.984 257.055 277.694 259.039 274.141 258.221L278.403 265.936L276.754 265.556L272.593 257.94L268.158 256.918L266.702 263.24L265.448 262.951L267.185 255.412L268.439 255.701V255.701Z" fill="#506369"/>
<path d="M288.239 250.616L289.47 250.899L285.622 267.6L284.391 267.316L288.239 250.616Z" fill="#506369"/>
<path d="M315.24 265.617C314.395 269.392 315.87 273.601 320.49 274.666C325.133 275.735 328.324 272.602 329.193 268.832C330.083 264.967 328.581 260.877 323.914 259.802C319.248 258.727 316.123 261.676 315.24 265.617V265.617ZM330.394 269.134C329.36 273.519 325.671 277.116 320.215 275.859C314.759 274.602 312.998 269.724 314.015 265.31C315.048 260.825 318.71 257.347 324.189 258.61C329.668 259.872 331.456 264.631 330.394 269.134Z" fill="#506369"/>
<path d="M355.768 266.174L356.998 266.458L353.151 283.158L351.92 282.875L355.768 266.174Z" fill="#506369"/>
<path d="M298.308 262.558L296.811 252.565L295.464 252.255L297.011 262.259L298.308 262.558Z" fill="#506369"/>
<path d="M308.837 255.336L299.306 269.219L298.995 267.142L297.721 266.848L298.292 270.544L299.639 270.854L310.184 255.647L308.837 255.336Z" fill="#506369"/>
<path d="M340.355 262.623L339.102 262.335L336.991 271.496L338.245 271.785L340.355 262.623Z" fill="#506369"/>
<path d="M336.788 278.107L337.276 275.987L336.023 275.698L335.254 279.035L345.655 281.431L345.935 280.215L336.788 278.107Z" fill="#506369"/>
</g>
<path d="M331 316.5L315 316.5M315 316.5L319.397 321M315 316.5L319.397 312" stroke="black"/>
<path d="M281.718 445.097L287.146 446.474L287.002 447.04L282.07 445.789L281.198 449.224L286.13 450.475L285.986 451.042L280.558 449.664L281.718 445.097ZM284.001 441.63C284.098 441.248 284.273 440.924 284.528 440.658C284.777 440.391 285.082 440.21 285.442 440.114C285.802 440.018 286.183 440.022 286.587 440.124C286.995 440.228 287.334 440.407 287.605 440.663C287.876 440.919 288.06 441.224 288.157 441.579C288.25 441.927 288.247 442.295 288.149 442.683C288.065 443.014 287.922 443.297 287.719 443.531C287.513 443.76 287.256 443.926 286.949 444.029L289.221 444.606L289.081 445.156L283.498 443.739L283.632 443.212L284.438 443.417C284.212 443.183 284.06 442.914 283.983 442.608C283.908 442.297 283.914 441.971 284.001 441.63ZM287.651 442.598C287.723 442.314 287.724 442.039 287.654 441.773C287.578 441.507 287.435 441.278 287.225 441.087C287.016 440.891 286.757 440.753 286.447 440.675C286.137 440.596 285.846 440.594 285.574 440.668C285.298 440.735 285.063 440.868 284.87 441.067C284.676 441.265 284.544 441.507 284.471 441.791C284.398 442.081 284.399 442.359 284.474 442.625C284.551 442.887 284.694 443.116 284.903 443.312C285.108 443.501 285.365 443.636 285.675 443.714C285.986 443.793 286.278 443.799 286.554 443.731C286.831 443.658 287.066 443.525 287.258 443.332C287.446 443.132 287.577 442.887 287.651 442.598ZM289.392 437.786C289.292 438.179 289.114 438.511 288.859 438.781C288.598 439.051 288.287 439.236 287.925 439.337C287.564 439.438 287.184 439.438 286.786 439.337C286.388 439.236 286.055 439.055 285.785 438.794C285.516 438.533 285.333 438.222 285.237 437.862C285.142 437.502 285.144 437.126 285.243 436.733C285.343 436.34 285.521 436.008 285.777 435.738C286.032 435.467 286.34 435.284 286.7 435.188C287.062 435.087 287.441 435.087 287.839 435.188C288.237 435.289 288.571 435.47 288.84 435.731C289.111 435.987 289.297 436.296 289.398 436.657C289.494 437.017 289.492 437.393 289.392 437.786ZM288.903 437.662C288.977 437.373 288.978 437.098 288.906 436.837C288.831 436.571 288.688 436.342 288.478 436.151C288.268 435.96 288.008 435.825 287.698 435.747C287.387 435.668 287.094 435.662 286.819 435.73C286.543 435.797 286.311 435.931 286.123 436.131C285.93 436.324 285.798 436.566 285.724 436.855C285.651 437.145 285.652 437.423 285.727 437.689C285.799 437.95 285.939 438.178 286.148 438.374C286.358 438.565 286.618 438.7 286.928 438.778C287.238 438.857 287.531 438.863 287.807 438.795C288.084 438.722 288.319 438.589 288.511 438.396C288.699 438.196 288.83 437.952 288.903 437.662ZM290.649 432.833C290.547 433.236 290.367 433.576 290.11 433.852C289.854 434.123 289.545 434.308 289.184 434.409C288.818 434.509 288.436 434.508 288.038 434.407C287.639 434.306 287.306 434.125 287.036 433.864C286.767 433.603 286.584 433.293 286.489 432.933C286.394 432.568 286.398 432.183 286.5 431.78C286.59 431.429 286.739 431.134 286.948 430.895C287.153 430.65 287.408 430.481 287.712 430.388L287.887 430.869C287.651 430.953 287.458 431.085 287.308 431.267C287.152 431.448 287.043 431.659 286.981 431.902C286.906 432.197 286.906 432.48 286.98 432.752C287.05 433.018 287.19 433.248 287.399 433.444C287.609 433.635 287.869 433.77 288.179 433.849C288.495 433.929 288.79 433.935 289.066 433.867C289.338 433.793 289.57 433.657 289.764 433.459C289.953 433.254 290.086 433.004 290.16 432.709C290.222 432.466 290.23 432.229 290.184 431.997C290.139 431.765 290.032 431.557 289.864 431.371L290.248 431.031C290.471 431.258 290.617 431.529 290.685 431.844C290.749 432.157 290.737 432.487 290.649 432.833ZM288.136 425.465L292.215 426.5L292.075 427.05L288.485 426.139L287.836 428.698L291.426 429.609L291.286 430.16L287.207 429.125L288.136 425.465ZM291.649 420.894L290.783 424.306C291.215 424.382 291.6 424.307 291.938 424.079C292.271 423.85 292.495 423.51 292.609 423.061C292.674 422.807 292.689 422.564 292.655 422.329C292.615 422.094 292.527 421.876 292.391 421.676L292.826 421.457C292.998 421.693 293.105 421.962 293.15 422.265C293.195 422.563 293.176 422.874 293.094 423.2C292.988 423.619 292.805 423.969 292.547 424.25C292.285 424.524 291.973 424.712 291.611 424.813C291.25 424.914 290.871 424.914 290.473 424.813C290.074 424.712 289.739 424.536 289.467 424.285C289.197 424.03 289.011 423.729 288.912 423.385C288.813 423.035 288.812 422.672 288.908 422.295C289.004 421.917 289.178 421.601 289.429 421.346C289.681 421.09 289.987 420.918 290.345 420.827C290.699 420.735 291.077 420.74 291.48 420.843L291.649 420.894ZM289.381 422.415C289.281 422.807 289.324 423.17 289.509 423.504C289.69 423.83 289.978 424.063 290.372 424.201L291.106 421.309C290.694 421.243 290.329 421.313 290.013 421.518C289.693 421.718 289.482 422.017 289.381 422.415ZM292.39 418.2L292.154 419.131L293.969 419.591L293.829 420.142L289.75 419.106L289.89 418.556L291.681 419.01L291.919 418.072L290.492 416.183L290.644 415.586L292.214 417.693L294.752 416.505L294.586 417.156L292.39 418.2ZM292.089 411.939L291.698 413.482L295.288 414.393L295.148 414.944L291.558 414.033L291.166 415.576L290.678 415.452L291.601 411.815L292.089 411.939ZM292.433 402.878L297.861 404.256L297.721 404.806L293.379 403.704L296.49 406.764L296.421 407.035L292.251 408.246L296.57 409.342L296.43 409.893L291.002 408.515L291.122 408.042L295.745 406.707L292.313 403.351L292.433 402.878ZM294.538 400.112C294.673 399.579 294.911 399.205 295.252 398.989C295.588 398.772 296.017 398.729 296.539 398.862L299.067 399.503L298.933 400.031L298.297 399.869C298.478 400.047 298.596 400.273 298.654 400.546C298.712 400.814 298.7 401.113 298.616 401.444C298.5 401.899 298.3 402.233 298.014 402.447C297.729 402.661 297.408 402.722 297.051 402.632C296.705 402.544 296.457 402.349 296.308 402.047C296.161 401.74 296.156 401.312 296.295 400.764L296.624 399.469L296.376 399.406C296.024 399.317 295.733 399.348 295.503 399.498C295.267 399.648 295.101 399.911 295.005 400.288C294.939 400.547 294.92 400.806 294.948 401.066C294.97 401.325 295.035 401.559 295.141 401.767L294.667 401.911C294.544 401.66 294.473 401.377 294.453 401.064C294.428 400.75 294.457 400.432 294.538 400.112ZM298.203 401.248C298.282 400.938 298.279 400.654 298.196 400.397C298.108 400.138 297.943 399.92 297.702 399.743L297.035 399.574L296.71 400.853C296.533 401.551 296.688 401.962 297.174 402.085C297.411 402.145 297.623 402.103 297.808 401.957C297.989 401.81 298.12 401.574 298.203 401.248ZM295.36 397.003L295.5 396.452L297.307 396.911L297.958 394.344L296.151 393.885L296.291 393.335L300.37 394.37L300.23 394.921L298.431 394.464L297.78 397.031L299.579 397.487L299.439 398.038L295.36 397.003ZM297.909 389.009L297.316 391.343L300.907 392.255L300.767 392.805L296.688 391.77L297.42 388.885L297.909 389.009ZM297.622 388.09L297.762 387.539L301.003 388.362L298.453 384.818L298.577 384.329L302.655 385.364L302.516 385.915L299.274 385.092L301.827 388.629L301.701 389.125L297.622 388.09ZM299.823 379.417L303.902 380.452L303.762 381.003L300.172 380.091L299.676 382.046L300.67 382.356C301.508 382.612 302.134 382.876 302.55 383.146C302.965 383.417 303.123 383.751 303.021 384.149C302.994 384.258 302.94 384.384 302.859 384.529L302.396 384.37C302.44 384.282 302.467 384.22 302.476 384.184C302.53 383.972 302.472 383.787 302.304 383.629C302.135 383.47 301.91 383.336 301.63 383.226C301.349 383.117 300.975 382.989 300.506 382.842L299.066 382.402L299.823 379.417ZM300.221 377.852L300.36 377.301L303.602 378.124L301.051 374.58L301.175 374.091L305.254 375.126L305.114 375.677L301.873 374.854L304.425 378.391L304.299 378.887L300.221 377.852ZM304.216 371.607L303.979 372.537L305.794 372.998L305.654 373.549L301.575 372.513L301.715 371.963L303.506 372.417L303.745 371.479L302.317 369.59L302.469 368.993L304.039 371.1L306.577 369.912L306.412 370.563L304.216 371.607ZM307.824 362.917L308.32 363.043L307.346 366.882L301.918 365.504L302.863 361.782L303.359 361.908L302.56 365.056L304.491 365.546L305.203 362.739L305.692 362.863L304.979 365.67L306.996 366.182L307.824 362.917ZM305.378 357.533L309.456 358.568L309.317 359.118L305.726 358.207L305.23 360.161L306.225 360.471C307.062 360.728 307.688 360.991 308.104 361.262C308.52 361.532 308.677 361.867 308.576 362.265C308.548 362.373 308.494 362.5 308.413 362.645L307.95 362.486C307.994 362.398 308.021 362.336 308.03 362.3C308.084 362.088 308.027 361.903 307.858 361.744C307.689 361.586 307.464 361.452 307.184 361.342C306.904 361.232 306.529 361.104 306.06 360.958L304.62 360.518L305.378 357.533Z" fill="black"/>
<path d="M453.065 327.211C453.194 326.704 453.424 326.262 453.757 325.884C454.089 325.506 454.497 325.241 454.982 325.089C455.462 324.93 455.979 324.921 456.532 325.061C457.075 325.199 457.526 325.449 457.886 325.809C458.24 326.169 458.479 326.595 458.601 327.089C458.725 327.577 458.722 328.077 458.592 328.588C458.462 329.1 458.229 329.539 457.894 329.905C457.554 330.27 457.143 330.524 456.662 330.665C456.18 330.807 455.673 330.811 455.14 330.676C455.047 330.652 454.956 330.621 454.867 330.581L456.134 325.588C455.726 325.528 455.344 325.569 454.989 325.71C454.636 325.846 454.337 326.059 454.093 326.349C453.843 326.638 453.67 326.973 453.573 327.356C453.494 327.666 453.474 327.986 453.511 328.314C453.544 328.642 453.639 328.969 453.799 329.295L453.322 329.612C453.13 329.222 453.014 328.821 452.975 328.409C452.937 327.998 452.967 327.598 453.065 327.211ZM458.088 328.461C458.188 328.068 458.191 327.684 458.1 327.308C458.004 326.926 457.824 326.594 457.56 326.313C457.292 326.025 456.96 325.816 456.563 325.688L455.435 330.131C455.849 330.214 456.242 330.196 456.613 330.075C456.98 329.954 457.292 329.753 457.551 329.471C457.809 329.19 457.988 328.853 458.088 328.461ZM456.312 320.271L460.39 321.306L460.251 321.857L456.661 320.946L456.165 322.9L457.159 323.21C457.996 323.466 458.623 323.73 459.038 324.001C459.454 324.271 459.611 324.605 459.51 325.003C459.482 325.112 459.428 325.239 459.348 325.383L458.884 325.224C458.929 325.137 458.955 325.075 458.965 325.038C459.018 324.826 458.961 324.641 458.792 324.483C458.623 324.324 458.398 324.19 458.118 324.081C457.838 323.971 457.463 323.843 456.994 323.696L455.554 323.257L456.312 320.271ZM456.709 318.706L456.849 318.156L460.09 318.978L457.54 315.434L457.664 314.945L461.742 315.981L461.602 316.531L458.361 315.709L460.914 319.245L460.788 319.741L456.709 318.706ZM462.79 311.852L460.756 312.714L462.131 314.449L461.973 315.07L460.289 312.925L457.914 313.957L458.072 313.337L459.98 312.517L458.694 310.886L458.847 310.281L460.443 312.321L462.95 311.224L462.79 311.852ZM459.406 307.95C459.541 307.418 459.779 307.044 460.12 306.828C460.456 306.61 460.885 306.568 461.407 306.7L463.935 307.342L463.801 307.869L463.165 307.708C463.345 307.886 463.464 308.111 463.522 308.384C463.58 308.652 463.567 308.952 463.483 309.282C463.368 309.737 463.168 310.072 462.882 310.285C462.597 310.499 462.276 310.561 461.919 310.47C461.573 310.382 461.325 310.187 461.176 309.885C461.029 309.578 461.024 309.151 461.163 308.603L461.492 307.308L461.244 307.245C460.892 307.156 460.601 307.186 460.37 307.337C460.134 307.486 459.969 307.749 459.873 308.127C459.807 308.385 459.788 308.644 459.816 308.905C459.838 309.163 459.903 309.397 460.009 309.606L459.535 309.75C459.412 309.498 459.34 309.216 459.321 308.903C459.296 308.588 459.324 308.271 459.406 307.95ZM463.071 309.087C463.15 308.777 463.147 308.493 463.064 308.235C462.976 307.976 462.811 307.758 462.57 307.581L461.903 307.412L461.578 308.692C461.401 309.39 461.556 309.8 462.041 309.923C462.279 309.984 462.491 309.941 462.676 309.796C462.857 309.649 462.988 309.413 463.071 309.087ZM460.228 304.841L460.368 304.291L462.174 304.749L462.826 302.182L461.019 301.724L461.159 301.173L465.238 302.209L465.098 302.759L463.299 302.303L462.647 304.869L464.446 305.326L464.307 305.876L460.228 304.841ZM460.755 297.105L461.763 293.135L462.251 293.259L461.387 296.663L463.163 297.113L463.614 295.338C463.777 294.697 464.032 294.244 464.379 293.98C464.728 293.711 465.153 293.64 465.655 293.768C466.177 293.9 466.532 294.183 466.719 294.615C466.908 295.043 466.917 295.593 466.746 296.265L466.183 298.482L460.755 297.105ZM466.287 296.156C466.414 295.655 466.414 295.253 466.287 294.952C466.161 294.644 465.91 294.443 465.532 294.347C465.16 294.253 464.852 294.309 464.606 294.517C464.357 294.718 464.168 295.074 464.038 295.586L463.621 297.23L465.869 297.8L466.287 296.156ZM463.907 290.216C464.009 289.813 464.189 289.473 464.446 289.197C464.703 288.921 465.012 288.733 465.374 288.632C465.736 288.526 466.116 288.524 466.514 288.625C466.913 288.726 467.246 288.909 467.514 289.175C467.783 289.436 467.968 289.75 468.067 290.116C468.162 290.481 468.158 290.866 468.055 291.269C467.953 291.672 467.773 292.014 467.514 292.295C467.252 292.57 466.94 292.758 466.579 292.858C466.218 292.959 465.838 292.959 465.44 292.858C465.042 292.757 464.708 292.576 464.439 292.315C464.169 292.054 463.987 291.741 463.893 291.376C463.8 291.006 463.805 290.619 463.907 290.216ZM464.349 290.328C464.24 290.757 464.28 291.153 464.469 291.514C464.654 291.869 464.956 292.122 465.374 292.272L466.177 289.108C465.736 289.046 465.35 289.127 465.018 289.351C464.681 289.573 464.458 289.899 464.349 290.328ZM467.606 291.155C467.714 290.726 467.674 290.333 467.484 289.977C467.295 289.615 466.991 289.359 466.573 289.209L465.77 292.372C466.209 292.44 466.597 292.362 466.935 292.14C467.273 291.912 467.497 291.584 467.606 291.155ZM467.413 286.026L467.177 286.956L468.992 287.417L468.852 287.967L464.773 286.932L464.913 286.382L466.704 286.836L466.942 285.898L465.515 284.009L465.667 283.412L467.237 285.519L469.775 284.331L469.61 284.982L467.413 286.026ZM468.995 279.565L468.13 282.976C468.561 283.053 468.946 282.977 469.285 282.75C469.618 282.521 469.842 282.181 469.956 281.731C470.02 281.478 470.035 281.234 470.001 281C469.962 280.765 469.874 280.547 469.738 280.347L470.173 280.128C470.344 280.364 470.452 280.633 470.496 280.936C470.542 281.234 470.523 281.545 470.441 281.871C470.334 282.29 470.152 282.64 469.893 282.921C469.631 283.195 469.319 283.383 468.958 283.484C468.597 283.585 468.217 283.585 467.819 283.484C467.421 283.383 467.086 283.207 466.814 282.956C466.543 282.7 466.358 282.4 466.259 282.056C466.16 281.706 466.159 281.343 466.255 280.965C466.35 280.588 466.524 280.272 466.776 280.016C467.028 279.761 467.333 279.588 467.692 279.498C468.045 279.406 468.424 279.411 468.827 279.514L468.995 279.565ZM466.728 281.085C466.628 281.478 466.671 281.841 466.856 282.174C467.037 282.501 467.325 282.734 467.719 282.872L468.453 279.98C468.04 279.914 467.676 279.983 467.36 280.189C467.039 280.389 466.829 280.687 466.728 281.085ZM467.097 277.777L467.237 277.227L470.478 278.049L467.927 274.505L468.051 274.016L472.13 275.052L471.99 275.602L468.749 274.78L471.301 278.316L471.175 278.812L467.097 277.777ZM466.978 275.774C466.889 276.126 466.73 276.383 466.502 276.545C466.273 276.707 465.998 276.75 465.677 276.674L465.777 276.279C465.98 276.325 466.161 276.293 466.321 276.185C466.475 276.076 466.58 275.91 466.637 275.688C466.693 275.466 466.68 275.27 466.596 275.1C466.509 274.924 466.365 274.807 466.165 274.751L466.265 274.355C466.584 274.442 466.805 274.614 466.927 274.87C467.05 275.121 467.067 275.423 466.978 275.774ZM473.178 270.923L471.143 271.785L472.519 273.52L472.361 274.141L470.677 271.997L468.302 273.028L468.46 272.408L470.368 271.588L469.081 269.957L469.235 269.353L470.83 271.392L473.337 270.295L473.178 270.923ZM469.794 267.022C469.929 266.489 470.167 266.115 470.508 265.899C470.844 265.681 471.273 265.639 471.795 265.771L474.322 266.413L474.189 266.94L473.553 266.779C473.733 266.957 473.852 267.182 473.909 267.455C473.968 267.723 473.955 268.023 473.871 268.354C473.756 268.808 473.555 269.143 473.27 269.356C472.985 269.57 472.664 269.632 472.307 269.541C471.961 269.453 471.713 269.258 471.564 268.957C471.416 268.649 471.412 268.222 471.551 267.674L471.88 266.379L471.632 266.316C471.28 266.227 470.989 266.257 470.758 266.408C470.522 266.557 470.356 266.82 470.261 267.198C470.195 267.456 470.176 267.716 470.203 267.976C470.226 268.234 470.29 268.468 470.397 268.677L469.923 268.821C469.8 268.569 469.728 268.287 469.709 267.974C469.684 267.659 469.712 267.342 469.794 267.022ZM473.459 268.158C473.537 267.848 473.535 267.564 473.452 267.306C473.364 267.047 473.199 266.829 472.958 266.653L472.291 266.483L471.966 267.763C471.789 268.461 471.943 268.871 472.429 268.995C472.667 269.055 472.879 269.012 473.064 268.867C473.244 268.72 473.376 268.484 473.459 268.158ZM470.616 263.912L470.756 263.362L472.562 263.82L473.214 261.254L471.407 260.795L471.547 260.244L475.625 261.28L475.486 261.83L473.687 261.374L473.035 263.94L474.834 264.397L474.694 264.947L470.616 263.912Z" fill="black"/>
<path d="M512.974 413.267L508.001 415.254C507.646 415.395 507.322 415.451 507.028 415.421C506.741 415.39 506.487 415.282 506.266 415.097C506.102 414.96 505.959 414.775 505.835 414.54L506.272 414.279C506.371 414.459 506.482 414.601 506.605 414.703C506.888 414.939 507.247 414.979 507.684 414.822L507.981 414.716L509.001 409.95L509.486 410.355L508.554 414.517L512.519 412.888L512.974 413.267ZM517.016 418.456L514.318 421.686L509.86 417.963L512.558 414.733L512.994 415.098L510.614 417.947L512.199 419.27L514.578 416.421L515.014 416.785L512.635 419.634L514.2 420.941L516.58 418.092L517.016 418.456ZM517.936 422.268L517.199 421.653L515.999 423.09L515.563 422.726L518.26 419.496L518.696 419.86L517.512 421.278L518.255 421.899L520.575 421.429L521.048 421.824L518.47 422.328L518.443 425.13L517.927 424.7L517.936 422.268ZM520.324 426.753C520.013 426.494 519.791 426.19 519.657 425.842C519.527 425.49 519.495 425.13 519.56 424.76C519.625 424.391 519.79 424.049 520.053 423.733C520.316 423.418 520.623 423.196 520.975 423.066C521.327 422.935 521.686 422.905 522.052 422.974C522.418 423.044 522.756 423.208 523.068 423.468C523.379 423.728 523.601 424.032 523.734 424.379C523.868 424.727 523.9 425.084 523.831 425.45C523.765 425.819 523.601 426.162 523.338 426.477C523.075 426.792 522.767 427.015 522.415 427.145C522.068 427.278 521.709 427.312 521.34 427.247C520.974 427.178 520.635 427.013 520.324 426.753ZM520.647 426.366C520.876 426.558 521.124 426.678 521.389 426.726C521.663 426.773 521.931 426.743 522.194 426.636C522.457 426.529 522.691 426.353 522.896 426.108C523.101 425.862 523.233 425.6 523.291 425.322C523.349 425.044 523.329 424.777 523.23 424.521C523.139 424.264 522.979 424.04 522.75 423.849C522.52 423.657 522.269 423.538 521.996 423.491C521.73 423.443 521.464 423.47 521.197 423.574C520.934 423.681 520.7 423.857 520.495 424.103C520.29 424.348 520.158 424.61 520.1 424.888C520.045 425.169 520.064 425.438 520.155 425.695C520.254 425.951 520.418 426.175 520.647 426.366ZM525.618 425.64L526.054 426.004L524.86 427.435L526.892 429.132L528.087 427.701L528.523 428.065L525.826 431.295L525.39 430.931L526.579 429.507L524.547 427.809L523.357 429.234L522.921 428.87L525.618 425.64ZM530.165 431.375C530.567 431.718 530.801 432.066 530.867 432.42C530.933 432.774 530.827 433.116 530.55 433.448C530.263 433.792 529.928 433.96 529.545 433.953C529.162 433.946 528.759 433.762 528.337 433.403L527.065 432.33L529.762 429.1L530.198 429.464L529.254 430.594L530.165 431.375ZM532.906 431.725L533.342 432.09L530.645 435.319L530.209 434.955L532.906 431.725ZM528.589 433.051C528.885 433.304 529.159 433.433 529.413 433.437C529.675 433.44 529.907 433.32 530.108 433.079C530.307 432.841 530.378 432.602 530.322 432.361C530.266 432.12 530.089 431.871 529.789 431.614L528.983 430.919L527.783 432.356L528.589 433.051ZM536.268 434.491C536.571 434.744 536.787 435.043 536.916 435.387C537.049 435.727 537.081 436.08 537.012 436.446C536.942 436.812 536.774 437.155 536.508 437.474C536.238 437.798 535.929 438.026 535.581 438.16C535.233 438.293 534.879 438.327 534.517 438.261C534.162 438.194 533.832 438.033 533.525 437.776C533.263 437.558 533.07 437.306 532.946 437.022C532.829 436.737 532.791 436.434 532.83 436.112L531.327 437.911L530.891 437.547L534.583 433.126L535.001 433.475L534.468 434.113C534.776 434.01 535.085 433.99 535.394 434.053C535.706 434.119 535.998 434.266 536.268 434.491ZM533.817 437.364C534.042 437.552 534.29 437.672 534.559 437.723C534.832 437.771 535.1 437.741 535.363 437.634C535.63 437.53 535.867 437.356 536.072 437.11C536.277 436.864 536.405 436.603 536.456 436.326C536.514 436.048 536.495 435.779 536.4 435.519C536.305 435.258 536.144 435.034 535.919 434.846C535.69 434.655 535.439 434.535 535.166 434.488C534.897 434.444 534.629 434.474 534.362 434.577C534.102 434.68 533.87 434.854 533.665 435.1C533.459 435.346 533.328 435.607 533.269 435.885C533.215 436.167 533.234 436.436 533.325 436.692C533.424 436.949 533.588 437.172 533.817 437.364Z" fill="black"/>
<path d="M93.9561 310.929L93.472 312.836L98.4036 314.088L98.2599 314.654L93.3283 313.402L92.8442 315.31L92.3479 315.184L93.4598 310.803L93.9561 310.929ZM95.8436 307.069L99.8933 310.267C100.234 310.53 100.457 310.79 100.562 311.048C100.667 311.305 100.681 311.587 100.603 311.892C100.554 312.088 100.476 312.264 100.371 312.419C100.265 312.574 100.135 312.697 99.9793 312.79L99.6333 312.43C99.8926 312.275 100.059 312.054 100.132 311.764C100.18 311.578 100.168 311.407 100.097 311.252C100.028 311.091 99.8838 310.922 99.6645 310.746L99.3143 310.467L94.7809 311.256L94.9266 310.682L98.7823 310.027L95.7059 307.611L95.8436 307.069ZM96.5637 304.102C96.6607 303.719 96.8365 303.395 97.091 303.13C97.3403 302.863 97.645 302.681 98.0049 302.586C98.3648 302.49 98.7464 302.493 99.1496 302.596C99.558 302.699 99.8976 302.879 100.168 303.135C100.439 303.391 100.623 303.696 100.72 304.051C100.813 304.399 100.811 304.767 100.712 305.155C100.628 305.485 100.485 305.768 100.282 306.003C100.076 306.231 99.819 306.397 99.5121 306.501L101.784 307.077L101.644 307.628L96.0613 306.211L96.1952 305.684L97.0016 305.888C96.7748 305.655 96.6231 305.385 96.5466 305.08C96.4714 304.769 96.4771 304.443 96.5637 304.102ZM100.214 305.069C100.286 304.785 100.287 304.51 100.217 304.245C100.141 303.978 99.9986 303.749 99.7884 303.558C99.5796 303.362 99.3201 303.225 99.0099 303.146C98.6997 303.067 98.4087 303.065 98.1368 303.139C97.861 303.207 97.6264 303.34 97.433 303.538C97.2395 303.737 97.1067 303.978 97.0346 304.263C96.9611 304.552 96.962 304.83 97.0374 305.097C97.1141 305.358 97.2569 305.587 97.4657 305.783C97.6707 305.973 97.9283 306.107 98.2384 306.186C98.5486 306.264 98.8416 306.27 99.1173 306.202C99.3944 306.13 99.629 305.997 99.8212 305.803C100.009 305.604 100.14 305.359 100.214 305.069ZM100.051 299.989L99.8144 300.919L101.629 301.38L101.489 301.93L97.4105 300.895L97.5502 300.345L99.3414 300.799L99.5796 299.861L98.1524 297.972L98.304 297.375L99.8739 299.482L102.412 298.294L102.247 298.945L100.051 299.989ZM98.554 296.39L98.6938 295.839L101.935 296.662L99.3845 293.117L99.5085 292.629L103.587 293.664L103.447 294.214L100.206 293.392L102.759 296.928L102.633 297.425L98.554 296.39ZM104.459 290.39C104.357 290.793 104.177 291.133 103.92 291.409C103.664 291.679 103.356 291.865 102.995 291.966C102.628 292.066 102.246 292.065 101.848 291.964C101.45 291.863 101.116 291.682 100.847 291.421C100.577 291.16 100.395 290.85 100.299 290.49C100.205 290.125 100.209 289.74 100.311 289.337C100.4 288.986 100.549 288.691 100.758 288.452C100.964 288.207 101.218 288.038 101.523 287.945L101.698 288.426C101.462 288.51 101.269 288.642 101.118 288.824C100.962 289.004 100.853 289.216 100.792 289.459C100.717 289.754 100.717 290.037 100.791 290.309C100.861 290.574 101 290.805 101.209 291.001C101.419 291.192 101.679 291.327 101.99 291.406C102.305 291.486 102.601 291.492 102.876 291.424C103.148 291.35 103.381 291.214 103.574 291.016C103.764 290.811 103.896 290.561 103.971 290.266C104.033 290.023 104.04 289.786 103.995 289.554C103.949 289.322 103.842 289.114 103.675 288.928L104.058 288.588C104.281 288.815 104.427 289.086 104.496 289.401C104.559 289.714 104.547 290.044 104.459 290.39ZM102.215 284.012L101.824 285.555L105.414 286.467L105.274 287.017L101.684 286.106L101.292 287.649L100.804 287.525L101.727 283.888L102.215 284.012ZM102.254 281.681C102.389 281.149 102.627 280.774 102.968 280.558C103.304 280.341 103.733 280.298 104.255 280.431L106.783 281.072L106.649 281.6L106.013 281.438C106.194 281.616 106.313 281.842 106.37 282.115C106.428 282.383 106.416 282.682 106.332 283.013C106.216 283.468 106.016 283.802 105.73 284.016C105.445 284.23 105.124 284.291 104.767 284.201C104.421 284.113 104.173 283.918 104.024 283.616C103.877 283.309 103.872 282.881 104.012 282.333L104.34 281.038L104.092 280.975C103.741 280.886 103.449 280.917 103.219 281.067C102.983 281.217 102.817 281.48 102.721 281.857C102.655 282.116 102.636 282.375 102.664 282.635C102.686 282.894 102.751 283.128 102.857 283.336L102.383 283.48C102.26 283.229 102.189 282.946 102.169 282.633C102.144 282.319 102.173 282.002 102.254 281.681ZM105.919 282.818C105.998 282.507 105.996 282.223 105.912 281.966C105.824 281.707 105.659 281.489 105.418 281.312L104.751 281.143L104.426 282.422C104.249 283.12 104.404 283.531 104.89 283.654C105.127 283.714 105.339 283.672 105.525 283.526C105.705 283.379 105.836 283.143 105.919 282.818ZM103.076 278.572L103.216 278.021L105.023 278.48L105.674 275.913L103.867 275.454L104.007 274.904L108.086 275.939L107.946 276.49L106.147 276.033L105.496 278.6L107.295 279.056L107.155 279.607L103.076 278.572Z" fill="black"/>
<path d="M163.197 234.355L160.157 233.654L159.166 234.961L158.566 234.822L162.318 229.941L162.887 230.072L164.124 236.104L163.516 235.964L163.197 234.355ZM163.095 233.839L162.461 230.606L160.475 233.235L163.095 233.839ZM169.35 232.99L168.404 237.091L167.851 236.963L168.683 233.354L166.719 232.901L166.43 233.902C166.192 234.745 165.943 235.377 165.681 235.798C165.42 236.219 165.089 236.384 164.689 236.292C164.58 236.266 164.452 236.215 164.306 236.138L164.454 235.671C164.543 235.713 164.606 235.739 164.642 235.747C164.855 235.796 165.039 235.735 165.194 235.562C165.348 235.39 165.477 235.163 165.581 234.88C165.684 234.597 165.804 234.22 165.94 233.748L166.348 232.298L169.35 232.99ZM174.275 234.126L173.33 238.226L172.776 238.099L173.609 234.489L171.644 234.037L171.356 235.037C171.118 235.88 170.868 236.512 170.607 236.934C170.345 237.355 170.015 237.52 169.614 237.427C169.505 237.402 169.378 237.351 169.231 237.273L169.38 236.807C169.469 236.849 169.531 236.874 169.568 236.883C169.781 236.932 169.964 236.87 170.119 236.698C170.274 236.526 170.403 236.298 170.506 236.016C170.61 235.733 170.73 235.356 170.866 234.883L171.274 233.434L174.275 234.126ZM178.922 237.537L175.492 236.746C175.425 237.18 175.509 237.563 175.744 237.896C175.981 238.225 176.325 238.441 176.777 238.545C177.032 238.604 177.276 238.613 177.509 238.574C177.744 238.53 177.96 238.437 178.156 238.296L178.385 238.727C178.153 238.903 177.886 239.017 177.584 239.068C177.288 239.12 176.976 239.108 176.648 239.033C176.227 238.935 175.873 238.761 175.587 238.509C175.307 238.252 175.112 237.945 175.003 237.586C174.894 237.227 174.886 236.847 174.978 236.447C175.071 236.047 175.239 235.708 175.484 235.431C175.733 235.155 176.029 234.963 176.372 234.856C176.719 234.75 177.082 234.74 177.462 234.828C177.841 234.915 178.161 235.082 178.422 235.328C178.682 235.574 178.862 235.876 178.96 236.232C179.06 236.584 179.063 236.962 178.97 237.367L178.922 237.537ZM177.352 235.303C176.957 235.212 176.595 235.263 176.266 235.455C175.944 235.644 175.717 235.936 175.588 236.333L178.495 237.004C178.552 236.59 178.475 236.227 178.262 235.915C178.055 235.6 177.752 235.396 177.352 235.303ZM183.703 236.3L182.757 240.4L182.251 240.283L182.563 238.927L181.277 238.63L181.121 238.594L179.857 239.731L179.257 239.593L180.609 238.394C180.312 238.233 180.103 238.026 179.981 237.773C179.858 237.52 179.835 237.23 179.91 236.903C180.016 236.446 180.252 236.133 180.619 235.966C180.986 235.799 181.439 235.778 181.98 235.902L183.703 236.3ZM180.468 237.048C180.328 237.656 180.645 238.049 181.419 238.228L182.659 238.514L183.083 236.674L181.882 236.397C181.082 236.213 180.61 236.429 180.468 237.048ZM187.614 236.61C187.697 236.657 187.753 236.722 187.783 236.805C187.819 236.885 187.826 236.974 187.803 237.072C187.774 237.197 187.712 237.29 187.616 237.35C187.52 237.41 187.415 237.426 187.301 237.4C187.176 237.371 187.084 237.309 187.024 237.213C186.97 237.113 186.957 237.003 186.985 236.884C186.999 236.821 187.018 236.763 187.042 236.708C187.072 236.649 187.121 236.568 187.188 236.463L187.764 235.463L188.138 235.549L187.614 236.61ZM188.939 236.916C189.022 236.962 189.078 237.027 189.108 237.111C189.144 237.19 189.151 237.279 189.128 237.378C189.1 237.503 189.037 237.595 188.941 237.655C188.845 237.715 188.74 237.732 188.626 237.706C188.501 237.677 188.409 237.614 188.349 237.519C188.295 237.419 188.282 237.309 188.31 237.189C188.324 237.127 188.343 237.068 188.367 237.014C188.397 236.955 188.446 236.873 188.514 236.768L189.089 235.768L189.463 235.854L188.939 236.916ZM195.053 237.488L191.516 241.508C191.264 241.795 190.999 241.991 190.723 242.097C190.453 242.199 190.178 242.218 189.898 242.153C189.69 242.105 189.478 242.004 189.261 241.85L189.533 241.42C189.703 241.536 189.866 241.612 190.022 241.648C190.381 241.731 190.719 241.603 191.038 241.266L191.255 241.037L190.01 236.325L190.625 236.467L191.676 240.601L194.476 237.355L195.053 237.488ZM198.697 239.757L197.752 243.857L197.198 243.729L198.03 240.12L196.066 239.667L195.778 240.668C195.54 241.511 195.29 242.143 195.029 242.564C194.767 242.986 194.436 243.15 194.036 243.058C193.927 243.033 193.799 242.981 193.653 242.904L193.802 242.437C193.89 242.48 193.953 242.505 193.989 242.513C194.202 242.562 194.386 242.501 194.541 242.329C194.696 242.156 194.825 241.929 194.928 241.646C195.032 241.363 195.152 240.986 195.288 240.514L195.696 239.065L198.697 239.757ZM201.659 241.966C202.172 242.09 202.538 242.295 202.757 242.581C202.976 242.867 203.037 243.22 202.94 243.641C202.839 244.077 202.616 244.379 202.271 244.546C201.926 244.713 201.484 244.731 200.945 244.601L199.325 244.22L200.27 240.119L200.824 240.247L200.493 241.681L201.659 241.966ZM204.262 241.04L204.815 241.167L203.87 245.268L203.316 245.14L204.262 241.04ZM201.011 244.173C201.389 244.266 201.692 244.256 201.92 244.145C202.155 244.029 202.308 243.818 202.378 243.512C202.448 243.21 202.403 242.964 202.244 242.775C202.086 242.585 201.815 242.443 201.431 242.349L200.398 242.094L199.977 243.919L201.011 244.173ZM209.162 242.687L207.611 242.329L206.779 245.938L206.225 245.811L207.057 242.201L205.506 241.844L205.619 241.353L209.275 242.195L209.162 242.687ZM211.494 242.674C212.029 242.797 212.409 243.027 212.632 243.363C212.857 243.694 212.909 244.122 212.788 244.647L212.202 247.189L211.672 247.066L211.819 246.427C211.645 246.611 211.422 246.735 211.151 246.798C210.884 246.863 210.584 246.857 210.252 246.78C209.794 246.675 209.456 246.482 209.236 246.201C209.016 245.92 208.947 245.601 209.03 245.242C209.11 244.894 209.3 244.642 209.598 244.487C209.902 244.332 210.329 244.318 210.88 244.445L212.182 244.746L212.24 244.496C212.321 244.143 212.284 243.852 212.129 243.625C211.974 243.392 211.707 243.232 211.328 243.145C211.068 243.085 210.808 243.072 210.549 243.105C210.291 243.133 210.059 243.202 209.852 243.314L209.698 242.843C209.947 242.714 210.227 242.637 210.54 242.61C210.854 242.578 211.172 242.6 211.494 242.674ZM210.438 246.363C210.75 246.435 211.034 246.427 211.29 246.338C211.547 246.244 211.761 246.074 211.932 245.829L212.087 245.159L210.801 244.862C210.099 244.7 209.692 244.864 209.579 245.352C209.524 245.591 209.571 245.802 209.721 245.984C209.872 246.161 210.111 246.288 210.438 246.363ZM218.105 244.231L214.996 248.35C214.741 248.696 214.486 248.925 214.231 249.036C213.975 249.146 213.694 249.166 213.388 249.096C213.19 249.05 213.013 248.976 212.856 248.875C212.699 248.773 212.572 248.645 212.476 248.491L212.829 248.138C212.989 248.393 213.214 248.555 213.505 248.622C213.692 248.665 213.863 248.65 214.017 248.576C214.176 248.503 214.341 248.355 214.513 248.132L214.784 247.776L213.896 243.261L214.472 243.394L215.213 247.234L217.559 244.105L218.105 244.231ZM219.548 242.75C219.668 242.777 219.757 242.841 219.816 242.943C219.876 243.038 219.892 243.146 219.865 243.266C219.85 243.328 219.824 243.393 219.787 243.461C219.756 243.525 219.714 243.6 219.661 243.687L219.078 244.685L218.703 244.599L219.235 243.539C219.153 243.493 219.093 243.43 219.057 243.35C219.022 243.266 219.016 243.174 219.038 243.075C219.067 242.951 219.129 242.858 219.225 242.798C219.321 242.738 219.429 242.722 219.548 242.75ZM220.874 243.055C220.993 243.083 221.082 243.147 221.141 243.248C221.201 243.344 221.217 243.452 221.19 243.571C221.175 243.634 221.149 243.699 221.112 243.767C221.081 243.831 221.039 243.906 220.986 243.992L220.403 244.991L220.029 244.905L220.56 243.845C220.478 243.799 220.419 243.736 220.382 243.656C220.347 243.571 220.341 243.48 220.364 243.381C220.392 243.256 220.455 243.164 220.551 243.104C220.646 243.044 220.754 243.028 220.874 243.055Z" fill="black"/>
<path d="M154.627 481.551L158.618 482.471L158.505 482.962L155.083 482.173L154.671 483.958L156.456 484.37C157.101 484.518 157.559 484.764 157.83 485.105C158.107 485.448 158.187 485.872 158.071 486.376C157.95 486.901 157.675 487.262 157.247 487.458C156.823 487.656 156.274 487.677 155.598 487.522L153.369 487.008L154.627 481.551ZM155.696 487.06C156.201 487.176 156.602 487.167 156.901 487.034C157.205 486.901 157.401 486.646 157.489 486.266C157.575 485.892 157.512 485.585 157.299 485.344C157.093 485.099 156.732 484.918 156.218 484.799L154.565 484.418L154.044 486.679L155.696 487.06ZM160.449 488.665L160.105 490.153L159.552 490.026L159.895 488.537L159.022 483.993L159.607 484.127L160.329 487.972L162.686 484.837L163.231 484.963L160.449 488.665ZM158.623 487.965L161.843 488.707L161.749 489.112L158.53 488.37L158.623 487.965ZM165.05 487.78L164.114 487.564L163.694 489.388L163.14 489.26L164.086 485.16L164.639 485.288L164.224 487.088L165.167 487.306L167.025 485.838L167.625 485.976L165.553 487.592L166.796 490.103L166.142 489.952L165.05 487.78ZM167.28 489.714L166.962 491.094L166.455 490.977L166.664 490.073L166.142 489.952L166.251 489.477L167.28 489.714ZM169.957 486.481C170.493 486.604 170.872 486.834 171.096 487.17C171.32 487.501 171.372 487.929 171.251 488.454L170.665 490.995L170.135 490.873L170.283 490.234C170.109 490.418 169.886 490.542 169.614 490.605C169.347 490.67 169.048 490.664 168.715 490.587C168.258 490.481 167.919 490.288 167.699 490.008C167.479 489.727 167.411 489.408 167.493 489.049C167.574 488.701 167.763 488.449 168.062 488.293C168.366 488.139 168.793 488.125 169.344 488.252L170.646 488.553L170.703 488.303C170.785 487.95 170.748 487.659 170.592 487.432C170.438 487.199 170.171 487.039 169.791 486.952C169.532 486.892 169.272 486.878 169.012 486.912C168.754 486.94 168.522 487.009 168.316 487.12L168.162 486.65C168.41 486.521 168.691 486.443 169.003 486.417C169.317 486.385 169.635 486.407 169.957 486.481ZM168.902 490.17C169.213 490.242 169.497 490.234 169.753 490.145C170.01 490.051 170.224 489.881 170.396 489.636L170.55 488.966L169.264 488.669C168.563 488.507 168.155 488.671 168.043 489.159C167.988 489.398 168.035 489.609 168.184 489.791C168.335 489.968 168.574 490.095 168.902 490.17ZM175.204 487.691C175.588 487.779 175.916 487.948 176.187 488.196C176.46 488.44 176.648 488.74 176.751 489.098C176.855 489.456 176.86 489.837 176.766 490.243C176.672 490.653 176.5 490.997 176.25 491.273C176 491.549 175.699 491.74 175.346 491.845C175 491.946 174.632 491.951 174.242 491.861C173.91 491.784 173.624 491.647 173.385 491.45C173.152 491.249 172.981 490.996 172.87 490.691L172.344 492.975L171.79 492.847L173.084 487.235L173.614 487.357L173.427 488.168C173.656 487.936 173.922 487.778 174.226 487.695C174.535 487.613 174.861 487.611 175.204 487.691ZM174.317 491.361C174.602 491.427 174.877 491.422 175.141 491.346C175.406 491.265 175.632 491.117 175.818 490.903C176.009 490.69 176.141 490.427 176.213 490.115C176.285 489.803 176.281 489.512 176.201 489.242C176.127 488.968 175.989 488.736 175.786 488.547C175.584 488.358 175.339 488.231 175.053 488.165C174.762 488.098 174.484 488.105 174.219 488.186C173.96 488.268 173.734 488.416 173.542 488.629C173.357 488.838 173.229 489.099 173.157 489.411C173.085 489.723 173.086 490.016 173.16 490.29C173.238 490.565 173.377 490.797 173.574 490.985C173.778 491.168 174.026 491.294 174.317 491.361ZM183.537 492.042L182.649 491.837L182.228 493.661L181.675 493.534L182.095 491.71L181.207 491.505L179.531 493.039L178.868 492.887L180.829 491.114L179.931 488.813L180.531 488.952L181.316 491.029L182.205 491.234L182.62 489.433L183.174 489.561L182.758 491.362L183.647 491.566L185.271 490.044L185.871 490.183L184.054 491.866L185.042 494.31L184.38 494.157L183.537 492.042ZM188.297 492.269C188.811 492.393 189.177 492.598 189.395 492.884C189.614 493.169 189.675 493.523 189.578 493.944C189.477 494.38 189.255 494.682 188.91 494.849C188.565 495.015 188.122 495.034 187.583 494.904L185.964 494.522L186.909 490.422L187.462 490.55L187.132 491.984L188.297 492.269ZM190.9 491.342L191.454 491.47L190.508 495.57L189.955 495.443L190.9 491.342ZM187.649 494.476C188.027 494.569 188.33 494.559 188.559 494.448C188.793 494.332 188.946 494.121 189.017 493.814C189.086 493.513 189.042 493.267 188.883 493.077C188.724 492.888 188.453 492.746 188.07 492.652L187.036 492.397L186.616 494.221L187.649 494.476ZM195.149 492.289C195.534 492.378 195.862 492.546 196.133 492.795C196.405 493.038 196.593 493.339 196.697 493.697C196.8 494.054 196.805 494.436 196.712 494.841C196.617 495.252 196.445 495.595 196.195 495.872C195.945 496.148 195.644 496.338 195.292 496.443C194.946 496.544 194.578 496.55 194.188 496.46C193.855 496.383 193.569 496.246 193.33 496.049C193.098 495.847 192.926 495.594 192.816 495.289L192.289 497.574L191.736 497.446L193.03 491.833L193.56 491.955L193.373 492.766C193.601 492.534 193.868 492.377 194.171 492.293C194.48 492.211 194.806 492.21 195.149 492.289ZM194.262 495.96C194.548 496.025 194.823 496.02 195.087 495.944C195.352 495.863 195.577 495.715 195.763 495.501C195.955 495.288 196.087 495.026 196.158 494.714C196.23 494.402 196.226 494.111 196.146 493.841C196.073 493.566 195.934 493.335 195.732 493.146C195.529 492.957 195.285 492.829 194.999 492.763C194.708 492.696 194.43 492.703 194.165 492.785C193.905 492.867 193.679 493.015 193.488 493.228C193.303 493.437 193.174 493.697 193.103 494.009C193.031 494.321 193.032 494.614 193.105 494.888C193.184 495.164 193.322 495.395 193.52 495.583C193.724 495.767 193.971 495.892 194.262 495.96ZM199.769 493.354C200.304 493.478 200.684 493.707 200.907 494.044C201.132 494.374 201.184 494.802 201.063 495.327L200.477 497.869L199.947 497.746L200.094 497.107C199.92 497.291 199.698 497.415 199.426 497.478C199.159 497.543 198.86 497.537 198.527 497.46C198.07 497.355 197.731 497.162 197.511 496.881C197.291 496.6 197.222 496.281 197.305 495.922C197.385 495.574 197.575 495.322 197.873 495.167C198.177 495.012 198.605 494.999 199.155 495.126L200.457 495.426L200.515 495.176C200.596 494.823 200.559 494.532 200.404 494.305C200.249 494.072 199.982 493.912 199.603 493.825C199.343 493.765 199.084 493.752 198.824 493.785C198.566 493.813 198.334 493.883 198.127 493.994L197.973 493.523C198.222 493.394 198.502 493.317 198.815 493.29C199.129 493.259 199.447 493.28 199.769 493.354ZM198.713 497.043C199.025 497.115 199.309 497.107 199.565 497.018C199.822 496.924 200.036 496.754 200.207 496.509L200.362 495.839L199.076 495.542C198.374 495.381 197.967 495.544 197.854 496.033C197.799 496.272 197.847 496.482 197.996 496.664C198.147 496.842 198.386 496.968 198.713 497.043ZM206.38 494.911L203.272 499.03C203.017 499.376 202.761 499.605 202.506 499.716C202.251 499.826 201.97 499.846 201.663 499.776C201.465 499.73 201.288 499.657 201.131 499.555C200.974 499.453 200.847 499.325 200.751 499.172L201.104 498.818C201.264 499.074 201.489 499.235 201.78 499.302C201.967 499.345 202.138 499.33 202.292 499.256C202.451 499.183 202.616 499.035 202.788 498.812L203.059 498.456L202.171 493.941L202.748 494.074L203.488 497.914L205.835 494.785L206.38 494.911Z" fill="black"/>
<path d="M45.1882 193.08L46.3359 188.09L46.9498 188.231L45.9658 192.509L48.1975 193.023L48.7108 190.791C48.8961 189.985 49.2023 189.413 49.6293 189.073C50.0577 188.727 50.5871 188.627 51.2173 188.771C51.8735 188.922 52.3247 189.266 52.5709 189.801C52.8187 190.33 52.8454 191.017 52.6511 191.862L52.01 194.649L45.1882 193.08ZM52.0739 191.739C52.2189 191.109 52.2078 190.607 52.0406 190.233C51.8749 189.853 51.5549 189.608 51.0807 189.499C50.6129 189.392 50.2287 189.471 49.9281 189.737C49.6224 189.995 49.3956 190.446 49.2477 191.089L48.7725 193.155L51.5987 193.805L52.0739 191.739ZM54.1357 185.63C54.0222 186.124 53.8093 186.544 53.4973 186.889C53.1787 187.233 52.7951 187.473 52.3465 187.609C51.8979 187.746 51.4235 187.756 50.9232 187.641C50.4229 187.526 50.0008 187.309 49.6568 186.991C49.3127 186.672 49.0759 186.289 48.9461 185.842C48.8164 185.395 48.8083 184.925 48.9219 184.431C49.0355 183.937 49.2483 183.517 49.5603 183.172C49.8724 182.826 50.252 182.589 50.6991 182.459C51.1477 182.323 51.6222 182.312 52.1224 182.427C52.6227 182.542 53.0449 182.759 53.3889 183.078C53.7344 183.39 53.9752 183.77 54.1115 184.219C54.2412 184.666 54.2493 185.136 54.1357 185.63ZM53.5218 185.489C53.6055 185.125 53.599 184.782 53.5023 184.458C53.4006 184.127 53.2158 183.845 52.9478 183.612C52.6798 183.38 52.3509 183.219 51.961 183.129C51.5712 183.039 51.205 183.041 50.8622 183.133C50.5195 183.225 50.2333 183.399 50.0036 183.654C49.769 183.901 49.6098 184.206 49.5261 184.57C49.4424 184.934 49.4514 185.281 49.5531 185.612C49.6498 185.936 49.8313 186.217 50.0979 186.456C50.3659 186.689 50.6948 186.85 51.0846 186.939C51.4744 187.029 51.8407 187.028 52.1834 186.936C52.5276 186.837 52.8171 186.664 53.0517 186.417C53.2814 186.162 53.4381 185.853 53.5218 185.489ZM51.2991 177.085L50.853 179.024L55.3652 180.062L55.206 180.754L50.6939 179.716L50.2478 181.655L49.6338 181.514L50.6851 176.943L51.2991 177.085ZM51.282 174.17C51.4359 173.501 51.7229 173.027 52.1429 172.747C52.5565 172.466 53.0913 172.401 53.7475 172.552L56.9246 173.282L56.7721 173.945L55.973 173.761C56.2035 173.978 56.3584 174.257 56.4376 174.597C56.5183 174.93 56.5108 175.304 56.4151 175.72C56.2836 176.292 56.0426 176.715 55.692 176.99C55.3414 177.266 54.942 177.352 54.4937 177.248C54.0584 177.148 53.7434 176.912 53.5488 176.539C53.3556 176.159 53.3382 175.625 53.4966 174.936L53.871 173.309L53.5591 173.237C53.1173 173.135 52.7543 173.182 52.4702 173.376C52.1795 173.569 51.9796 173.903 51.8705 174.377C51.7958 174.702 51.7793 175.027 51.821 175.351C51.8562 175.674 51.9434 175.964 52.0825 176.222L51.4942 176.415C51.3331 176.104 51.2359 175.753 51.2026 175.363C51.1629 174.97 51.1893 174.573 51.282 174.17ZM55.894 175.487C55.9837 175.098 55.973 174.743 55.8618 174.423C55.7441 174.102 55.5321 173.834 55.2256 173.62L54.3875 173.427L54.0176 175.035C53.8159 175.912 54.0204 176.421 54.6311 176.562C54.93 176.63 55.1933 176.571 55.421 176.384C55.6422 176.196 55.7999 175.897 55.894 175.487ZM52.2221 170.261L52.3812 169.569L54.652 170.092L55.3939 166.866L53.1232 166.344L53.2824 165.652L58.4085 166.831L58.2494 167.523L55.9884 167.003L55.2464 170.228L57.5074 170.748L57.3482 171.44L52.2221 170.261ZM53.7347 163.685L53.8939 162.993L57.9675 163.93L54.6807 159.572L54.8219 158.958L59.948 160.137L59.7889 160.829L55.7153 159.892L59.0043 164.24L58.8609 164.864L53.7347 163.685ZM56.1679 153.106L61.2941 154.286L61.1349 154.977L59.0006 154.487C59.1245 155.138 59.1207 155.749 58.9892 156.321C58.8473 156.938 58.597 157.387 58.2384 157.667C57.8733 157.945 57.4082 158.019 56.8429 157.889L55.157 157.502L55.3161 156.81L56.9631 157.189C57.3464 157.277 57.6672 157.221 57.9254 157.02C58.1771 156.818 58.353 156.499 58.4531 156.064C58.5637 155.583 58.5611 155.015 58.4452 154.359L56.0088 153.798L56.1679 153.106ZM60.4285 147.297L59.4422 151.585C59.9839 151.669 60.4631 151.564 60.8796 151.27C61.2896 150.974 61.5596 150.543 61.6897 149.978C61.7629 149.66 61.7749 149.355 61.7257 149.063C61.67 148.77 61.5542 148.5 61.3781 148.255L61.9161 147.968C62.1366 148.258 62.2788 148.592 62.3425 148.969C62.4077 149.34 62.3933 149.73 62.2991 150.139C62.1781 150.665 61.96 151.108 61.645 151.466C61.325 151.817 60.9406 152.06 60.492 152.196C60.0434 152.332 59.5689 152.343 59.0687 152.228C58.5684 152.113 58.1447 151.903 57.7977 151.597C57.4522 151.285 57.2124 150.915 57.0781 150.488C56.9454 150.053 56.9336 149.599 57.0427 149.125C57.1518 148.651 57.3601 148.25 57.6677 147.924C57.9753 147.598 58.3519 147.374 58.7975 147.251C59.2366 147.126 59.7096 147.122 60.2164 147.238L60.4285 147.297ZM57.6372 149.262C57.5236 149.755 57.5871 150.208 57.8278 150.619C58.0634 151.022 58.4294 151.305 58.9257 151.467L59.7618 147.831C59.2446 147.76 58.7912 147.858 58.4016 148.124C58.0071 148.382 57.7522 148.761 57.6372 149.262ZM63.6736 144.163C63.557 144.67 63.342 145.1 63.0284 145.452C62.7164 145.797 62.336 146.038 61.8874 146.174C61.4323 146.309 60.9546 146.319 60.4543 146.204C59.9541 146.089 59.5319 145.872 59.1879 145.553C58.8439 145.235 58.607 144.852 58.4773 144.405C58.349 143.951 58.3432 143.471 58.4597 142.964C58.5614 142.522 58.7395 142.149 58.9941 141.845C59.2437 141.533 59.5574 141.315 59.935 141.19L60.1671 141.787C59.8748 141.898 59.6371 142.069 59.4539 142.3C59.2642 142.53 59.1342 142.798 59.064 143.103C58.9788 143.473 58.9863 143.827 59.0865 144.165C59.1816 144.495 59.3625 144.779 59.629 145.018C59.897 145.251 60.2259 145.412 60.6157 145.502C61.012 145.593 61.3816 145.593 61.7243 145.5C62.062 145.4 62.3489 145.223 62.5851 144.97C62.8163 144.708 62.9745 144.392 63.0596 144.022C63.1299 143.717 63.1332 143.42 63.0695 143.132C63.0058 142.843 62.8667 142.586 62.6522 142.358L63.1218 141.923C63.4069 142.2 63.5967 142.535 63.6914 142.926C63.7797 143.316 63.7737 143.728 63.6736 144.163ZM62.5425 138.419L62.2735 139.588L64.554 140.113L64.3948 140.805L59.2687 139.626L59.4278 138.934L61.679 139.452L61.9503 138.272L60.1137 135.952L60.2863 135.201L62.3074 137.79L65.4461 136.234L65.2578 137.053L62.5425 138.419ZM60.5711 133.963L60.7303 133.271L64.8039 134.208L61.5171 129.85L61.6583 129.236L66.7845 130.416L66.6253 131.107L62.5517 130.17L65.8408 134.518L65.6973 135.142L60.5711 133.963ZM62.1144 127.253L62.2736 126.562L66.3472 127.499L63.0604 123.141L63.2016 122.527L68.3277 123.706L68.1686 124.398L64.095 123.461L67.384 127.809L67.2406 128.433L62.1144 127.253ZM61.9095 124.754C61.8079 125.196 61.6167 125.521 61.3361 125.73C61.0554 125.939 60.7129 126.001 60.3086 125.915L60.4229 125.418C60.6778 125.469 60.9034 125.425 61.0996 125.286C61.2894 125.145 61.4164 124.935 61.4807 124.655C61.545 124.376 61.5226 124.131 61.4135 123.922C61.2994 123.704 61.1164 123.562 60.8645 123.498L60.9788 123.001C61.3801 123.1 61.6606 123.308 61.8203 123.625C61.9814 123.936 62.0111 124.312 61.9095 124.754ZM69.9124 117.04C69.7958 117.546 69.5808 117.976 69.2672 118.328C68.9552 118.673 68.5748 118.914 68.1262 119.05C67.6711 119.185 67.1934 119.195 66.6931 119.08C66.1929 118.965 65.7707 118.748 65.4267 118.429C65.0827 118.111 64.8458 117.728 64.7161 117.281C64.5878 116.827 64.582 116.347 64.6985 115.84C64.8002 115.399 64.9783 115.026 65.2329 114.722C65.4825 114.41 65.7962 114.191 66.1738 114.066L66.4059 114.663C66.1136 114.774 65.8759 114.945 65.6927 115.176C65.503 115.406 65.373 115.674 65.3028 115.979C65.2176 116.35 65.2251 116.704 65.3253 117.041C65.4204 117.371 65.6013 117.656 65.8678 117.895C66.1358 118.127 66.4647 118.289 66.8545 118.378C67.2508 118.469 67.6204 118.469 67.9631 118.377C68.3008 118.276 68.5877 118.1 68.8239 117.846C69.0551 117.585 69.2133 117.269 69.2984 116.898C69.3687 116.593 69.372 116.296 69.3083 116.008C69.2446 115.72 69.1055 115.462 68.891 115.235L69.3606 114.799C69.6457 115.077 69.8355 115.411 69.9303 115.802C70.0185 116.192 70.0125 116.604 69.9124 117.04ZM65.8742 110.729C66.0281 110.06 66.3151 109.585 66.7351 109.306C67.1487 109.025 67.6836 108.96 68.3398 109.111L71.5168 109.841L71.3644 110.504L70.5652 110.32C70.7957 110.537 70.9506 110.816 71.0298 111.156C71.1105 111.489 71.103 111.863 71.0074 112.279C70.8759 112.851 70.6348 113.274 70.2842 113.549C69.9336 113.824 69.5342 113.91 69.0859 113.807C68.6506 113.707 68.3356 113.471 68.141 113.097C67.9478 112.718 67.9305 112.184 68.0889 111.495L68.4632 109.867L68.1514 109.796C67.7096 109.694 67.3466 109.741 67.0624 109.935C66.7717 110.128 66.5718 110.462 66.4627 110.936C66.388 111.261 66.3715 111.586 66.4132 111.91C66.4484 112.233 66.5356 112.523 66.6747 112.781L66.0864 112.974C65.9253 112.663 65.8281 112.312 65.7949 111.922C65.7551 111.529 65.7816 111.132 65.8742 110.729ZM70.4863 112.046C70.5759 111.657 70.5652 111.302 70.454 110.982C70.3364 110.661 70.1243 110.393 69.8178 110.179L68.9797 109.986L68.6099 111.594C68.4081 112.471 68.6126 112.98 69.2233 113.121C69.5222 113.189 69.7855 113.13 70.0132 112.943C70.2344 112.755 70.3921 112.456 70.4863 112.046ZM72.4862 102.861L74.3281 103.285L74.1779 103.937L72.9402 103.653L71.8844 108.243L73.1221 108.528L72.9719 109.181L71.13 108.757L71.1973 108.465C71.257 108.116 71.0574 107.824 70.5985 107.588C70.1396 107.352 69.4769 107.111 68.6102 106.864L66.9107 106.401L67.7805 102.62L72.3024 103.66L72.4862 102.861ZM68.7949 106.239C69.5151 106.439 70.1019 106.639 70.5553 106.839C71.0021 107.038 71.2864 107.274 71.408 107.548L72.1432 104.352L68.2353 103.453L67.6681 105.919L68.7949 106.239Z" fill="black"/>
</g>
<rect x="2.5" y="2.5" width="558" height="652" stroke="#506369" stroke-width="5"/>
<defs>
<clipPath id="clip0_36_102">
<rect width="563" height="657" fill="white"/>
</clipPath>
<clipPath id="clip1_36_102">
<rect width="90" height="30" fill="white" transform="translate(270.736 240) rotate(12.9747)"/>
</clipPath>
</defs>
</svg>
