<svg width="563" height="657" viewBox="0 0 563 657" fill="none" xmlns="http://www.w3.org/2000/svg">
<g clip-path="url(#clip0_35_11)">
<rect width="563" height="657" fill="white"/>
<path d="M-0.5 413L562 363" stroke="#EAE5E1" stroke-width="8"/>
<path d="M499.685 -52.0001L542.859 511.053" stroke="#EAE5E1" stroke-width="8" stroke-linecap="round"/>
<path d="M84.9992 114L134.061 665.053" stroke="#EAE5E1" stroke-width="8" stroke-linecap="round"/>
<path d="M284.768 -15.0001L342.274 658.112" stroke="#EAE5E1" stroke-width="8" stroke-linecap="round"/>
<path d="M75.816 -72.0001L89.8104 112.176" stroke="#EAE5E1" stroke-width="8" stroke-linecap="round"/>
<path d="M58.816 -68.0001L72.8104 116.176" stroke="#EAE5E1" stroke-width="8" stroke-linecap="round"/>
<path d="M-1 122L563 72" stroke="#EAE5E1" stroke-width="10"/>
<rect x="215" y="339.72" width="62" height="25" transform="rotate(-3.43961 215 339.72)" fill="#506369"/>
<path d="M469.5 367.5L462.347 311.5M462.347 311.5L452 230.5C450.667 225.5 447.6 215.1 446 213.5C444 211.5 436 206 432.5 206C429 206 402.5 205.5 397.5 209.5C392.5 213.5 384 220.5 383.5 225.5C383 230.5 376 271.5 376.5 276.5C377 281.5 377 300.5 380 304.5C382.546 307.894 380 311.5 398 311.5C412.4 311.5 446.898 311.5 462.347 311.5Z" stroke="#EAE5E1" stroke-width="8"/>
<path d="M347.792 399.268L345.571 405.324C345.392 405.831 345.17 406.197 344.905 406.422C344.639 406.647 344.311 406.773 343.918 406.8C343.665 406.818 343.427 406.794 343.202 406.729C342.977 406.665 342.779 406.558 342.608 406.409L342.901 405.858C343.186 406.106 343.514 406.217 343.886 406.191C344.126 406.175 344.324 406.094 344.481 405.95C344.645 405.805 344.789 405.568 344.914 405.239L345.108 404.714L342.404 399.637L343.143 399.587L345.424 403.911L347.093 399.315L347.792 399.268ZM352.951 398.914L353.311 404.161L352.603 404.21L352.286 399.591L349.772 399.763L349.791 401.065C349.813 402.159 349.744 403.006 349.585 403.605C349.425 404.204 349.089 404.521 348.577 404.556C348.438 404.566 348.266 404.551 348.063 404.511L348.071 403.899C348.193 403.918 348.277 403.925 348.323 403.922C348.596 403.903 348.793 403.763 348.916 403.501C349.038 403.238 349.11 402.919 349.131 402.544C349.152 402.168 349.158 401.673 349.149 401.059L349.11 399.177L352.951 398.914ZM354.965 398.775L355.673 398.727L355.959 402.897L359.175 398.486L359.804 398.443L360.164 403.691L359.455 403.74L359.169 399.569L355.963 403.979L355.325 404.023L354.965 398.775ZM367.618 402.558L367.751 404.494L367.083 404.539L366.992 403.222L362.194 403.552L361.834 398.304L362.542 398.255L362.859 402.885L366.062 402.665L365.744 398.036L366.453 397.987L366.77 402.616L367.618 402.558ZM370.456 397.672C371.141 397.625 371.679 397.762 372.068 398.083C372.457 398.397 372.675 398.89 372.721 399.562L372.944 402.814L372.266 402.861L372.21 402.043C372.069 402.326 371.847 402.555 371.545 402.73C371.25 402.904 370.889 403.005 370.464 403.034C369.878 403.075 369.403 402.967 369.038 402.711C368.673 402.456 368.475 402.098 368.443 401.639C368.413 401.194 368.548 400.824 368.848 400.529C369.155 400.234 369.662 400.062 370.367 400.014L372.033 399.9L372.011 399.58C371.98 399.128 371.83 398.794 371.561 398.579C371.292 398.357 370.915 398.262 370.429 398.296C370.096 398.318 369.781 398.397 369.483 398.531C369.184 398.658 368.932 398.826 368.726 399.034L368.37 398.527C368.621 398.283 368.928 398.088 369.292 397.943C369.656 397.791 370.044 397.701 370.456 397.672ZM370.535 402.468C370.934 402.441 371.27 402.328 371.544 402.128C371.817 401.922 372.012 401.642 372.128 401.286L372.069 400.428L370.423 400.541C369.525 400.603 369.097 400.946 369.14 401.572C369.161 401.878 369.294 402.112 369.539 402.276C369.784 402.433 370.116 402.497 370.535 402.468ZM383.067 398.902L381.621 399.001L381.841 402.204L381.122 402.253L380.903 399.05L379.446 399.15L377.531 402.499L376.673 402.558L378.82 398.792L376.373 395.562L377.171 395.508L379.392 398.503L380.858 398.402L380.643 395.269L381.361 395.22L381.576 398.353L383.023 398.253L384.823 394.983L385.621 394.928L383.639 398.462L386.28 401.899L385.422 401.958L383.067 398.902ZM388.812 396.413C389.497 396.366 390.034 396.503 390.424 396.823C390.813 397.138 391.03 397.631 391.076 398.302L391.3 401.555L390.621 401.601L390.565 400.783C390.424 401.067 390.203 401.296 389.9 401.47C389.605 401.644 389.244 401.746 388.819 401.775C388.234 401.815 387.758 401.707 387.393 401.452C387.028 401.196 386.83 400.839 386.799 400.38C386.768 399.934 386.903 399.564 387.204 399.27C387.511 398.975 388.017 398.803 388.722 398.755L390.388 398.64L390.366 398.321C390.335 397.869 390.185 397.535 389.916 397.319C389.647 397.097 389.27 397.003 388.784 397.036C388.452 397.059 388.136 397.137 387.838 397.272C387.54 397.399 387.287 397.567 387.081 397.775L386.725 397.268C386.976 397.023 387.283 396.828 387.647 396.683C388.011 396.531 388.399 396.441 388.812 396.413ZM388.89 401.209C389.289 401.181 389.626 401.068 389.899 400.869C390.173 400.663 390.367 400.382 390.483 400.027L390.424 399.169L388.778 399.282C387.88 399.344 387.453 399.687 387.496 400.312C387.517 400.618 387.65 400.853 387.895 401.016C388.139 401.173 388.471 401.237 388.89 401.209ZM398.691 395.775L399.051 401.023L398.403 401.067L398.118 396.917L396.234 400.575L395.915 400.596L393.548 397.221L393.834 401.381L393.185 401.425L392.825 396.178L393.543 396.128L396.028 399.757L398.033 395.82L398.691 395.775ZM403.26 395.592C403.745 395.559 404.185 395.639 404.579 395.832C404.98 396.019 405.3 396.301 405.54 396.678C405.779 397.05 405.916 397.485 405.95 397.983C405.985 398.495 405.903 398.959 405.704 399.373C405.512 399.781 405.224 400.108 404.84 400.355C404.456 400.602 404.004 400.743 403.485 400.779C402.614 400.838 401.918 400.579 401.397 400C400.876 399.421 400.579 398.592 400.505 397.515C400.428 396.391 400.582 395.515 400.966 394.887C401.358 394.259 402.001 393.807 402.898 393.532L405.216 392.832L405.38 393.472L403.2 394.133C402.46 394.35 401.928 394.684 401.605 395.134C401.281 395.577 401.131 396.212 401.154 397.039C401.339 396.619 401.613 396.283 401.977 396.031C402.34 395.772 402.768 395.626 403.26 395.592ZM403.465 400.189C403.831 400.164 404.151 400.058 404.426 399.872C404.706 399.679 404.916 399.424 405.055 399.107C405.2 398.79 405.259 398.438 405.233 398.053C405.206 397.667 405.103 397.333 404.924 397.051C404.744 396.77 404.502 396.559 404.199 396.42C403.901 396.273 403.566 396.212 403.194 396.238C402.821 396.263 402.495 396.369 402.213 396.556C401.938 396.735 401.728 396.977 401.582 397.281C401.442 397.584 401.385 397.929 401.412 398.315C401.438 398.701 401.542 399.041 401.723 399.336C401.91 399.63 402.156 399.854 402.46 400.007C402.764 400.153 403.099 400.214 403.465 400.189ZM409.615 396.89C410.274 396.851 410.787 396.963 411.152 397.225C411.517 397.488 411.719 397.888 411.756 398.427C411.794 398.986 411.637 399.427 411.285 399.752C410.933 400.077 410.411 400.26 409.719 400.301L407.643 400.433L407.283 395.186L407.992 395.137L408.118 396.973L409.615 396.89ZM412.391 394.835L413.1 394.786L413.46 400.034L412.751 400.083L412.391 394.835ZM409.642 399.765C410.128 399.738 410.487 399.617 410.72 399.4C410.958 399.177 411.064 398.869 411.037 398.476C411.011 398.091 410.868 397.813 410.609 397.644C410.351 397.474 409.975 397.403 409.482 397.43L408.154 397.501L408.314 399.836L409.642 399.765ZM419.406 394.354L419.766 399.601L419.058 399.65L418.741 395.031L416.227 395.203L416.246 396.505C416.268 397.599 416.199 398.446 416.04 399.045C415.88 399.644 415.544 399.961 415.032 399.996C414.893 400.006 414.721 399.991 414.518 399.951L414.526 399.339C414.648 399.358 414.732 399.365 414.778 399.362C415.051 399.344 415.249 399.203 415.371 398.941C415.493 398.678 415.565 398.359 415.586 397.984C415.607 397.608 415.613 397.113 415.604 396.499L415.565 394.617L419.406 394.354ZM423.223 394.052C423.908 394.005 424.445 394.142 424.835 394.462C425.224 394.776 425.442 395.269 425.488 395.941L425.711 399.193L425.032 399.24L424.976 398.422C424.835 398.706 424.614 398.935 424.312 399.109C424.016 399.283 423.656 399.385 423.23 399.414C422.645 399.454 422.17 399.346 421.805 399.091C421.44 398.835 421.241 398.478 421.21 398.019C421.179 397.573 421.314 397.203 421.615 396.909C421.922 396.613 422.428 396.442 423.133 396.393L424.799 396.279L424.777 395.96C424.746 395.508 424.596 395.174 424.328 394.958C424.058 394.736 423.681 394.642 423.196 394.675C422.863 394.698 422.548 394.776 422.249 394.91C421.951 395.038 421.698 395.205 421.492 395.413L421.137 394.907C421.387 394.662 421.695 394.467 422.059 394.322C422.423 394.17 422.811 394.08 423.223 394.052ZM423.301 398.848C423.701 398.82 424.037 398.707 424.311 398.508C424.584 398.302 424.778 398.021 424.894 397.666L424.835 396.808L423.189 396.921C422.291 396.982 421.864 397.326 421.907 397.951C421.928 398.257 422.061 398.492 422.306 398.655C422.551 398.812 422.882 398.876 423.301 398.848Z" fill="black"/>
<path d="M315.792 112.253L313.571 118.309C313.392 118.816 313.17 119.182 312.905 119.407C312.639 119.633 312.311 119.759 311.918 119.786C311.665 119.803 311.427 119.779 311.202 119.715C310.977 119.65 310.779 119.543 310.608 119.394L310.901 118.843C311.186 119.091 311.514 119.202 311.886 119.176C312.126 119.16 312.324 119.08 312.481 118.935C312.645 118.79 312.789 118.553 312.914 118.224L313.108 117.699L310.404 112.623L311.143 112.572L313.424 116.896L315.093 112.301L315.792 112.253ZM320.951 111.899L321.311 117.147L320.603 117.195L320.286 112.576L317.772 112.749L317.791 114.05C317.813 115.145 317.744 115.991 317.585 116.59C317.425 117.189 317.089 117.506 316.577 117.542C316.438 117.551 316.266 117.536 316.063 117.497L316.071 116.885C316.193 116.903 316.277 116.911 316.323 116.907C316.596 116.889 316.793 116.748 316.916 116.486C317.038 116.224 317.11 115.905 317.131 115.529C317.152 115.153 317.158 114.658 317.149 114.044L317.11 112.162L320.951 111.899ZM323.378 117.055C323.232 117.065 323.102 117.02 322.988 116.921C322.881 116.822 322.822 116.695 322.812 116.542C322.801 116.389 322.843 116.26 322.936 116.153C323.035 116.039 323.157 115.977 323.304 115.967C323.45 115.957 323.58 116.002 323.694 116.101C323.807 116.193 323.869 116.316 323.879 116.469C323.89 116.622 323.846 116.755 323.746 116.869C323.647 116.983 323.525 117.045 323.378 117.055ZM330.315 113.311L328.718 113.421L328.938 116.623L328.22 116.673L327.741 109.689L328.459 109.64L328.674 112.772L330.27 112.663L332.42 109.368L333.218 109.313L330.857 112.883L333.847 116.286L332.999 116.345L330.315 113.311ZM336.342 110.803C337.027 110.756 337.565 110.893 337.954 111.213C338.343 111.527 338.561 112.02 338.607 112.692L338.83 115.944L338.152 115.991L338.096 115.173C337.955 115.457 337.733 115.686 337.431 115.86C337.136 116.034 336.775 116.136 336.349 116.165C335.764 116.205 335.289 116.097 334.924 115.842C334.559 115.586 334.361 115.229 334.329 114.77C334.299 114.324 334.434 113.954 334.734 113.66C335.041 113.364 335.547 113.193 336.252 113.144L337.918 113.03L337.897 112.711C337.866 112.259 337.716 111.925 337.447 111.709C337.178 111.487 336.8 111.393 336.315 111.426C335.982 111.449 335.667 111.527 335.369 111.661C335.07 111.789 334.818 111.956 334.611 112.164L334.256 111.658C334.506 111.413 334.814 111.218 335.178 111.073C335.542 110.921 335.93 110.831 336.342 110.803ZM336.421 115.599C336.82 115.571 337.156 115.458 337.43 115.259C337.703 115.053 337.898 114.772 338.014 114.417L337.955 113.559L336.309 113.672C335.411 113.733 334.983 114.077 335.026 114.702C335.047 115.008 335.18 115.243 335.425 115.406C335.67 115.563 336.002 115.627 336.421 115.599ZM342.909 110.523C343.394 110.489 343.834 110.569 344.228 110.763C344.628 110.949 344.949 111.231 345.188 111.609C345.428 111.98 345.564 112.415 345.599 112.914C345.634 113.426 345.552 113.89 345.353 114.304C345.161 114.712 344.872 115.039 344.488 115.286C344.104 115.532 343.653 115.674 343.134 115.709C342.263 115.769 341.567 115.509 341.046 114.93C340.525 114.351 340.228 113.523 340.154 112.446C340.077 111.322 340.23 110.446 340.615 109.818C341.006 109.19 341.65 108.738 342.547 108.463L344.864 107.762L345.028 108.403L342.849 109.063C342.108 109.281 341.577 109.615 341.253 110.065C340.93 110.508 340.779 111.143 340.803 111.97C340.988 111.55 341.262 111.214 341.626 110.961C341.989 110.703 342.416 110.556 342.909 110.523ZM343.114 115.119C343.48 115.094 343.8 114.989 344.074 114.803C344.355 114.61 344.565 114.355 344.703 114.038C344.849 113.721 344.908 113.369 344.882 112.983C344.855 112.598 344.752 112.264 344.572 111.982C344.393 111.7 344.151 111.49 343.847 111.35C343.55 111.204 343.215 111.143 342.843 111.169C342.47 111.194 342.143 111.3 341.862 111.486C341.587 111.666 341.376 111.907 341.23 112.211C341.091 112.515 341.034 112.86 341.061 113.245C341.087 113.631 341.191 113.972 341.371 114.267C341.559 114.561 341.804 114.785 342.109 114.938C342.413 115.084 342.748 115.144 343.114 115.119ZM348.706 109.954C349.391 109.907 349.928 110.044 350.318 110.365C350.707 110.679 350.924 111.172 350.97 111.844L351.194 115.096L350.515 115.143L350.459 114.325C350.318 114.608 350.097 114.837 349.795 115.012C349.499 115.186 349.139 115.287 348.713 115.317C348.128 115.357 347.652 115.249 347.287 114.993C346.922 114.738 346.724 114.38 346.693 113.922C346.662 113.476 346.797 113.106 347.098 112.811C347.405 112.516 347.911 112.344 348.616 112.296L350.282 112.182L350.26 111.862C350.229 111.41 350.079 111.076 349.81 110.861C349.541 110.639 349.164 110.544 348.678 110.578C348.346 110.601 348.03 110.679 347.732 110.813C347.434 110.94 347.181 111.108 346.975 111.316L346.619 110.809C346.87 110.565 347.177 110.37 347.542 110.225C347.905 110.073 348.293 109.983 348.706 109.954ZM348.784 114.75C349.183 114.723 349.52 114.61 349.793 114.41C350.067 114.205 350.261 113.924 350.377 113.568L350.318 112.71L348.672 112.823C347.774 112.885 347.347 113.228 347.39 113.854C347.411 114.16 347.544 114.394 347.789 114.558C348.033 114.715 348.365 114.779 348.784 114.75ZM352.719 109.719L353.428 109.671L353.587 111.995L356.889 111.768L356.73 109.444L357.438 109.395L357.798 114.643L357.09 114.692L356.931 112.377L353.629 112.604L353.788 114.918L353.079 114.967L352.719 109.719ZM362.004 109.212C362.49 109.179 362.93 109.259 363.324 109.453C363.724 109.639 364.044 109.921 364.284 110.299C364.523 110.67 364.66 111.105 364.694 111.604C364.729 112.116 364.648 112.579 364.449 112.994C364.256 113.401 363.968 113.728 363.584 113.975C363.2 114.222 362.749 114.363 362.23 114.399C361.359 114.459 360.663 114.199 360.142 113.62C359.621 113.041 359.323 112.213 359.249 111.135C359.172 110.011 359.326 109.135 359.711 108.508C360.102 107.879 360.746 107.428 361.642 107.152L363.96 106.452L364.124 107.092L361.944 107.753C361.204 107.971 360.672 108.305 360.349 108.755C360.025 109.198 359.875 109.833 359.898 110.66C360.083 110.24 360.358 109.903 360.721 109.651C361.084 109.392 361.512 109.246 362.004 109.212ZM362.209 113.809C362.575 113.784 362.895 113.678 363.17 113.493C363.451 113.3 363.661 113.045 363.799 112.728C363.944 112.41 364.004 112.059 363.977 111.673C363.951 111.287 363.848 110.954 363.668 110.672C363.488 110.39 363.247 110.18 362.943 110.04C362.646 109.893 362.311 109.833 361.938 109.858C361.566 109.884 361.239 109.99 360.958 110.176C360.683 110.355 360.472 110.597 360.326 110.901C360.186 111.205 360.13 111.549 360.156 111.935C360.183 112.321 360.286 112.661 360.467 112.956C360.654 113.251 360.9 113.475 361.205 113.627C361.509 113.774 361.844 113.834 362.209 113.809ZM367.802 108.644C368.487 108.597 369.024 108.734 369.413 109.055C369.802 109.369 370.02 109.862 370.066 110.534L370.289 113.786L369.611 113.832L369.555 113.014C369.414 113.298 369.192 113.527 368.89 113.701C368.595 113.875 368.234 113.977 367.809 114.006C367.223 114.046 366.748 113.939 366.383 113.683C366.018 113.427 365.82 113.07 365.788 112.611C365.758 112.166 365.893 111.796 366.193 111.501C366.5 111.206 367.007 111.034 367.712 110.986L369.378 110.871L369.356 110.552C369.325 110.1 369.175 109.766 368.906 109.551C368.637 109.329 368.26 109.234 367.774 109.267C367.442 109.29 367.126 109.369 366.828 109.503C366.529 109.63 366.277 109.798 366.071 110.006L365.715 109.499C365.966 109.255 366.273 109.06 366.637 108.914C367.001 108.763 367.389 108.672 367.802 108.644ZM367.88 113.44C368.279 113.413 368.615 113.299 368.889 113.1C369.162 112.894 369.357 112.614 369.473 112.258L369.414 111.4L367.768 111.513C366.87 111.575 366.442 111.918 366.485 112.543C366.506 112.849 366.639 113.084 366.884 113.248C367.129 113.405 367.461 113.469 367.88 113.44ZM371.815 108.409L372.523 108.36L372.809 112.53L376.025 108.12L376.654 108.077L377.014 113.325L376.305 113.373L376.019 109.203L372.813 113.613L372.175 113.657L371.815 108.409ZM374.147 107.487C373.695 107.518 373.328 107.43 373.047 107.222C372.765 107.014 372.607 106.704 372.572 106.292L373.081 106.257C373.105 106.516 373.213 106.719 373.403 106.867C373.593 107.007 373.831 107.068 374.117 107.048C374.403 107.028 374.631 106.936 374.8 106.771C374.975 106.598 375.057 106.382 375.046 106.122L375.555 106.087C375.576 106.5 375.459 106.829 375.201 107.074C374.951 107.318 374.6 107.456 374.147 107.487ZM383.847 107.714C384.333 107.68 384.773 107.76 385.167 107.954C385.567 108.14 385.887 108.422 386.127 108.8C386.367 109.171 386.503 109.606 386.537 110.105C386.573 110.617 386.491 111.081 386.292 111.495C386.1 111.903 385.811 112.23 385.427 112.477C385.043 112.723 384.592 112.865 384.073 112.9C383.202 112.96 382.506 112.7 381.985 112.121C381.464 111.542 381.167 110.714 381.093 109.637C381.016 108.513 381.169 107.637 381.554 107.009C381.945 106.381 382.589 105.929 383.486 105.653L385.803 104.953L385.967 105.593L383.787 106.254C383.047 106.472 382.516 106.806 382.192 107.256C381.869 107.699 381.718 108.334 381.742 109.161C381.927 108.741 382.201 108.405 382.565 108.152C382.928 107.894 383.355 107.747 383.847 107.714ZM384.053 112.31C384.418 112.285 384.739 112.18 385.013 111.994C385.294 111.801 385.504 111.546 385.642 111.229C385.788 110.912 385.847 110.56 385.821 110.174C385.794 109.789 385.691 109.455 385.511 109.173C385.332 108.891 385.09 108.681 384.786 108.541C384.489 108.395 384.154 108.334 383.782 108.36C383.409 108.385 383.082 108.491 382.801 108.677C382.526 108.857 382.315 109.098 382.169 109.402C382.03 109.706 381.973 110.051 382 110.436C382.026 110.822 382.13 111.163 382.31 111.458C382.497 111.752 382.743 111.976 383.048 112.129C383.352 112.275 383.687 112.335 384.053 112.31ZM389.645 107.145C390.33 107.098 390.867 107.235 391.257 107.556C391.646 107.87 391.863 108.363 391.909 109.035L392.132 112.287L391.454 112.334L391.398 111.516C391.257 111.799 391.036 112.028 390.733 112.203C390.438 112.377 390.077 112.478 389.652 112.507C389.066 112.548 388.591 112.44 388.226 112.184C387.861 111.929 387.663 111.571 387.632 111.112C387.601 110.667 387.736 110.297 388.036 110.002C388.344 109.707 388.85 109.535 389.555 109.487L391.221 109.373L391.199 109.053C391.168 108.601 391.018 108.267 390.749 108.052C390.48 107.83 390.103 107.735 389.617 107.769C389.285 107.792 388.969 107.87 388.671 108.004C388.373 108.131 388.12 108.299 387.914 108.507L387.558 108C387.809 107.756 388.116 107.561 388.48 107.416C388.844 107.264 389.232 107.174 389.645 107.145ZM389.723 111.941C390.122 111.914 390.459 111.801 390.732 111.601C391.005 111.396 391.2 111.115 391.316 110.759L391.257 109.901L389.611 110.014C388.713 110.076 388.286 110.419 388.329 111.045C388.35 111.351 388.483 111.585 388.728 111.749C388.972 111.906 389.304 111.97 389.723 111.941ZM397.393 107.285L395.407 107.422L395.724 112.041L395.016 112.089L394.699 107.47L392.714 107.606L392.67 106.978L397.349 106.657L397.393 107.285ZM400.706 108.291C401.365 108.252 401.877 108.364 402.242 108.626C402.608 108.889 402.809 109.289 402.846 109.828C402.884 110.387 402.727 110.828 402.376 111.153C402.024 111.478 401.502 111.661 400.809 111.702L398.734 111.834L398.374 106.587L399.082 106.538L399.208 108.374L400.706 108.291ZM403.482 106.236L404.19 106.187L404.55 111.435L403.842 111.484L403.482 106.236ZM400.733 111.166C401.219 111.139 401.578 111.018 401.81 110.801C402.049 110.578 402.155 110.27 402.128 109.877C402.101 109.492 401.958 109.214 401.7 109.045C401.441 108.875 401.065 108.804 400.572 108.831L399.244 108.902L399.404 111.237L400.733 111.166ZM408.908 105.824C409.4 105.79 409.853 105.872 410.268 106.071C410.682 106.263 411.016 106.554 411.27 106.945C411.524 107.335 411.669 107.789 411.704 108.308C411.74 108.833 411.659 109.307 411.461 109.728C411.263 110.149 410.972 110.487 410.588 110.74C410.211 110.987 409.773 111.127 409.274 111.161C408.848 111.19 408.456 111.13 408.099 110.981C407.747 110.825 407.45 110.585 407.207 110.26L407.408 113.184L406.7 113.232L406.207 106.049L406.885 106.003L406.956 107.04C407.145 106.68 407.406 106.394 407.74 106.184C408.079 105.974 408.469 105.854 408.908 105.824ZM409.181 110.536C409.547 110.511 409.873 110.405 410.161 110.218C410.449 110.025 410.665 109.766 410.81 109.442C410.961 109.117 411.023 108.756 410.996 108.357C410.969 107.958 410.858 107.611 410.664 107.317C410.476 107.016 410.227 106.789 409.916 106.637C409.604 106.484 409.266 106.421 408.9 106.446C408.528 106.471 408.198 106.581 407.91 106.774C407.63 106.967 407.413 107.226 407.262 107.55C407.117 107.868 407.058 108.226 407.085 108.625C407.112 109.024 407.22 109.374 407.408 109.675C407.602 109.976 407.852 110.203 408.156 110.356C408.467 110.501 408.808 110.562 409.181 110.536ZM414.82 105.418C415.505 105.371 416.042 105.508 416.432 105.829C416.821 106.143 417.038 106.636 417.085 107.307L417.308 110.56L416.629 110.606L416.573 109.788C416.432 110.072 416.211 110.301 415.909 110.475C415.613 110.649 415.253 110.751 414.827 110.78C414.242 110.82 413.766 110.713 413.401 110.457C413.036 110.201 412.838 109.844 412.807 109.385C412.776 108.939 412.911 108.569 413.212 108.275C413.519 107.98 414.025 107.808 414.73 107.76L416.396 107.645L416.374 107.326C416.343 106.874 416.193 106.54 415.925 106.324C415.655 106.102 415.278 106.008 414.792 106.041C414.46 106.064 414.145 106.143 413.846 106.277C413.548 106.404 413.295 106.572 413.089 106.78L412.733 106.273C412.984 106.028 413.291 105.834 413.656 105.688C414.019 105.536 414.407 105.446 414.82 105.418ZM414.898 110.214C415.297 110.186 415.634 110.073 415.907 109.874C416.181 109.668 416.375 109.387 416.491 109.032L416.432 108.174L414.786 108.287C413.888 108.349 413.461 108.692 413.504 109.317C413.525 109.623 413.658 109.858 413.903 110.022C414.147 110.179 414.479 110.243 414.898 110.214Z" fill="black"/>
<path d="M308.889 447.081L301.555 444.604C300.942 444.404 300.496 444.149 300.218 443.838C299.939 443.527 299.778 443.136 299.733 442.666C299.705 442.364 299.726 442.076 299.797 441.805C299.867 441.533 299.989 441.292 300.162 441.083L300.833 441.418C300.544 441.766 300.421 442.164 300.463 442.61C300.49 442.896 300.593 443.132 300.771 443.316C300.95 443.508 301.239 443.673 301.637 443.812L302.273 444.03L308.28 440.63L308.363 441.514L303.246 444.384L308.81 446.245L308.889 447.081ZM309.472 453.26L303.188 453.853L303.108 453.005L308.639 452.483L308.355 449.472L306.794 449.535C305.482 449.595 304.464 449.538 303.741 449.366C303.017 449.193 302.627 448.8 302.569 448.186C302.553 448.019 302.566 447.813 302.607 447.568L303.341 447.559C303.323 447.705 303.316 447.807 303.322 447.862C303.352 448.189 303.527 448.421 303.845 448.56C304.164 448.699 304.549 448.775 305 448.789C305.451 448.802 306.045 448.794 306.782 448.765L309.038 448.661L309.472 453.26ZM309.7 455.671L309.78 456.52L304.786 456.991L310.176 460.713L310.247 461.466L303.963 462.059L303.883 461.211L308.876 460.739L303.488 457.029L303.416 456.265L309.7 455.671ZM305.551 470.967L303.233 471.186L303.158 470.385L304.735 470.236L304.192 464.49L310.476 463.897L310.556 464.745L305.013 465.268L305.375 469.103L310.918 468.58L310.998 469.428L305.455 469.951L305.551 470.967ZM311.499 474.221C311.576 475.042 311.429 475.69 311.056 476.168C310.691 476.644 310.106 476.92 309.302 476.996L305.407 477.364L305.331 476.551L306.31 476.459C305.966 476.299 305.684 476.04 305.466 475.683C305.248 475.334 305.115 474.904 305.067 474.395C305.001 473.694 305.115 473.12 305.411 472.675C305.706 472.229 306.129 471.98 306.678 471.928C307.212 471.878 307.66 472.028 308.023 472.38C308.386 472.739 308.607 473.341 308.687 474.185L308.876 476.181L309.258 476.144C309.799 476.093 310.195 475.903 310.446 475.574C310.704 475.245 310.805 474.789 310.75 474.208C310.713 473.809 310.609 473.433 310.439 473.08C310.277 472.726 310.068 472.428 309.812 472.187L310.409 471.745C310.71 472.038 310.953 472.401 311.139 472.833C311.332 473.265 311.452 473.728 311.499 474.221ZM305.748 474.463C305.793 474.941 305.94 475.341 306.187 475.663C306.442 475.984 306.785 476.209 307.215 476.337L308.242 476.24L308.056 474.269C307.955 473.194 307.53 472.692 306.781 472.762C306.415 472.797 306.137 472.964 305.948 473.263C305.768 473.561 305.701 473.961 305.748 474.463ZM310.031 485.361L309.851 483.45L306.016 483.812L305.935 482.952L314.298 482.162L314.379 483.022L310.628 483.376L310.808 485.288L314.827 487.765L314.917 488.721L310.562 485.998L306.571 489.69L306.475 488.674L310.031 485.361ZM313.467 495.581L306.134 493.103C305.52 492.904 305.074 492.648 304.796 492.337C304.517 492.026 304.356 491.636 304.312 491.166C304.283 490.863 304.304 490.576 304.375 490.304C304.446 490.032 304.568 489.791 304.741 489.582L305.411 489.917C305.123 490.265 304.999 490.663 305.042 491.109C305.069 491.395 305.171 491.631 305.349 491.815C305.528 492.007 305.817 492.173 306.216 492.312L306.851 492.529L312.858 489.129L312.942 490.013L307.825 492.883L313.388 494.744L313.467 495.581ZM313.592 496.902L313.672 497.75L310.888 498.013L311.262 501.968L314.045 501.705L314.125 502.553L307.841 503.146L307.761 502.298L310.533 502.036L310.16 498.082L307.388 498.344L307.308 497.495L313.592 496.902ZM314.605 507.122C314.682 507.942 314.535 508.591 314.162 509.068C313.797 509.545 313.212 509.821 312.408 509.897L308.513 510.264L308.436 509.452L309.416 509.359C309.072 509.199 308.79 508.94 308.571 508.583C308.354 508.234 308.221 507.805 308.173 507.295C308.106 506.594 308.221 506.021 308.517 505.575C308.812 505.13 309.234 504.881 309.784 504.829C310.318 504.778 310.766 504.929 311.128 505.28C311.492 505.64 311.713 506.242 311.793 507.086L311.981 509.081L312.364 509.045C312.905 508.994 313.301 508.804 313.551 508.475C313.809 508.145 313.911 507.69 313.856 507.108C313.819 506.71 313.715 506.334 313.545 505.98C313.383 505.626 313.174 505.328 312.918 505.087L313.515 504.645C313.816 504.938 314.059 505.301 314.245 505.734C314.438 506.165 314.558 506.628 314.605 507.122ZM308.854 507.363C308.899 507.841 309.045 508.241 309.293 508.564C309.548 508.885 309.891 509.11 310.321 509.238L311.348 509.141L311.162 507.17C311.061 506.094 310.635 505.592 309.887 505.663C309.52 505.697 309.243 505.864 309.054 506.163C308.873 506.462 308.807 506.862 308.854 507.363ZM312.124 517.746L311.628 512.49C310.98 512.599 310.474 512.9 310.11 513.392C309.755 513.884 309.61 514.476 309.675 515.169C309.712 515.559 309.814 515.911 309.98 516.225C310.154 516.538 310.388 516.801 310.681 517.015L310.177 517.544C309.816 517.297 309.528 516.971 309.313 516.565C309.099 516.168 308.968 515.718 308.92 515.216C308.859 514.571 308.941 513.985 309.164 513.457C309.396 512.937 309.742 512.515 310.202 512.19C310.661 511.866 311.198 511.674 311.811 511.616C312.424 511.559 312.986 511.638 313.497 511.855C314.008 512.08 314.421 512.411 314.735 512.847C315.051 513.291 315.236 513.804 315.291 514.386C315.345 514.967 315.259 515.502 315.032 515.989C314.805 516.477 314.461 516.875 314 517.183C313.547 517.491 313.01 517.675 312.388 517.733L312.124 517.746ZM314.562 514.455C314.505 513.849 314.261 513.358 313.832 512.981C313.411 512.61 312.888 512.427 312.261 512.43L312.682 516.886C313.298 516.772 313.778 516.489 314.121 516.039C314.473 515.596 314.62 515.068 314.562 514.455ZM313.051 523.603C312.932 524.474 312.459 524.949 311.63 525.027C311.081 525.079 310.64 524.915 310.307 524.537C309.973 524.159 309.769 523.567 309.693 522.763L309.424 519.908L315.708 519.314L315.969 522.086C316.037 522.803 315.951 523.377 315.71 523.81C315.47 524.242 315.091 524.483 314.573 524.532C314.23 524.564 313.927 524.497 313.662 524.329C313.406 524.168 313.202 523.926 313.051 523.603ZM312.99 520.403L313.168 522.29C313.214 522.776 313.34 523.138 313.548 523.375C313.756 523.621 314.035 523.727 314.385 523.694C314.736 523.661 314.986 523.505 315.137 523.225C315.288 522.954 315.34 522.575 315.295 522.089L315.116 520.202L312.99 520.403ZM310.359 522.664C310.41 523.205 310.536 523.603 310.737 523.858C310.937 524.112 311.225 524.221 311.599 524.186C311.974 524.151 312.237 524.001 312.389 523.738C312.548 523.474 312.603 523.075 312.553 522.541L312.357 520.462L310.17 520.669L310.359 522.664ZM316.646 528.741C316.723 529.561 316.575 530.21 316.203 530.687C315.838 531.163 315.253 531.439 314.449 531.515L310.554 531.883L310.477 531.071L311.457 530.978C311.112 530.818 310.831 530.559 310.612 530.202C310.395 529.853 310.262 529.424 310.213 528.914C310.147 528.213 310.262 527.64 310.557 527.194C310.853 526.748 311.275 526.499 311.825 526.448C312.358 526.397 312.807 526.548 313.169 526.899C313.533 527.259 313.754 527.861 313.834 528.705L314.022 530.7L314.404 530.664C314.946 530.613 315.342 530.423 315.592 530.094C315.85 529.764 315.952 529.308 315.897 528.727C315.859 528.329 315.756 527.953 315.586 527.599C315.424 527.245 315.215 526.947 314.959 526.706L315.556 526.264C315.857 526.557 316.1 526.92 316.286 527.352C316.479 527.784 316.599 528.247 316.646 528.741ZM310.895 528.982C310.94 529.46 311.086 529.86 311.334 530.182C311.589 530.504 311.932 530.728 312.362 530.857L313.389 530.76L313.203 528.788C313.101 527.713 312.676 527.211 311.928 527.282C311.561 527.316 311.284 527.483 311.095 527.782C310.914 528.08 310.848 528.48 310.895 528.982Z" fill="black"/>
<path d="M532.743 195.901L526.632 193.836C526.121 193.67 525.749 193.458 525.517 193.198C525.285 192.939 525.151 192.614 525.114 192.222C525.09 191.97 525.107 191.73 525.166 191.504C525.225 191.277 525.327 191.077 525.471 190.903L526.03 191.181C525.79 191.472 525.687 191.803 525.722 192.175C525.745 192.414 525.83 192.61 525.978 192.763C526.127 192.923 526.368 193.061 526.7 193.177L527.23 193.358L532.236 190.525L532.305 191.262L528.041 193.653L532.677 195.204L532.743 195.901ZM533.229 201.05L527.993 201.544L527.926 200.838L532.535 200.402L532.299 197.894L530.998 197.946C529.904 197.996 529.056 197.949 528.453 197.805C527.85 197.661 527.525 197.333 527.476 196.822C527.463 196.683 527.474 196.511 527.508 196.307L528.12 196.299C528.105 196.421 528.1 196.505 528.104 196.552C528.13 196.824 528.275 197.018 528.54 197.133C528.806 197.249 529.127 197.313 529.503 197.324C529.879 197.335 530.374 197.329 530.987 197.304L532.867 197.217L533.229 201.05ZM533.419 203.06L533.486 203.766L529.324 204.159L533.816 207.261L533.875 207.888L528.638 208.382L528.571 207.676L532.733 207.283L528.242 204.191L528.182 203.554L533.419 203.06ZM529.962 215.806L528.03 215.988L527.967 215.321L529.281 215.197L528.829 210.408L534.066 209.914L534.133 210.621L529.513 211.057L529.815 214.253L534.434 213.816L534.501 214.523L529.882 214.959L529.962 215.806ZM534.918 218.518C534.983 219.201 534.86 219.742 534.549 220.14C534.245 220.537 533.758 220.767 533.088 220.83L529.842 221.136L529.778 220.459L530.595 220.382C530.307 220.249 530.073 220.033 529.891 219.736C529.709 219.445 529.598 219.087 529.558 218.662C529.503 218.078 529.599 217.6 529.845 217.229C530.091 216.857 530.443 216.65 530.901 216.607C531.346 216.565 531.719 216.69 532.021 216.983C532.324 217.283 532.509 217.784 532.575 218.488L532.732 220.15L533.051 220.12C533.502 220.078 533.832 219.919 534.041 219.645C534.256 219.37 534.34 218.991 534.295 218.506C534.263 218.174 534.177 217.861 534.035 217.567C533.9 217.271 533.726 217.023 533.513 216.822L534.01 216.454C534.261 216.698 534.464 217 534.618 217.361C534.78 217.721 534.88 218.106 534.918 218.518ZM530.126 218.719C530.164 219.117 530.286 219.451 530.492 219.719C530.705 219.987 530.99 220.174 531.348 220.281L532.205 220.2L532.049 218.558C531.965 217.662 531.611 217.243 530.987 217.302C530.681 217.331 530.45 217.47 530.293 217.719C530.142 217.968 530.087 218.301 530.126 218.719ZM534.266 229.585C534.212 230.079 534.051 230.466 533.783 230.746C533.521 231.025 533.158 231.187 532.693 231.23C532.089 231.287 531.604 231.116 531.238 230.715C530.873 230.321 530.651 229.709 530.573 228.879L530.282 225.793L537.251 225.135L537.524 228.032C537.594 228.776 537.497 229.371 537.231 229.818C536.965 230.265 536.543 230.515 535.966 230.57C535.574 230.607 535.233 230.539 534.942 230.365C534.658 230.191 534.432 229.931 534.266 229.585ZM534.163 226.16L534.364 228.29C534.415 228.828 534.564 229.229 534.81 229.494C535.056 229.765 535.388 229.881 535.807 229.842C536.225 229.802 536.53 229.626 536.721 229.313C536.913 229.007 536.984 228.585 536.933 228.048L536.732 225.917L534.163 226.16ZM531.16 228.824C531.274 230.025 531.779 230.584 532.675 230.499C533.551 230.416 533.932 229.774 533.819 228.573L533.596 226.213L530.938 226.464L531.16 228.824ZM536.416 234.385C536.481 235.068 536.358 235.609 536.047 236.007C535.743 236.404 535.256 236.634 534.585 236.697L531.34 237.003L531.276 236.326L532.092 236.249C531.805 236.116 531.571 235.9 531.388 235.603C531.207 235.312 531.096 234.954 531.056 234.529C531.001 233.945 531.097 233.467 531.343 233.096C531.589 232.724 531.941 232.517 532.399 232.474C532.844 232.432 533.217 232.557 533.519 232.85C533.822 233.15 534.007 233.651 534.073 234.355L534.23 236.017L534.549 235.987C535 235.945 535.33 235.786 535.538 235.512C535.753 235.237 535.838 234.858 535.792 234.373C535.761 234.041 535.675 233.728 535.533 233.434C535.398 233.138 535.224 232.89 535.011 232.689L535.508 232.321C535.759 232.565 535.962 232.867 536.116 233.228C536.277 233.588 536.377 233.973 536.416 234.385ZM531.624 234.586C531.662 234.984 531.783 235.318 531.99 235.586C532.202 235.854 532.488 236.041 532.846 236.148L533.702 236.067L533.547 234.425C533.463 233.529 533.109 233.11 532.485 233.169C532.179 233.198 531.948 233.337 531.791 233.586C531.64 233.834 531.585 234.168 531.624 234.586ZM537.158 242.672L531.922 243.166L531.855 242.459L536.464 242.024L536.228 239.515L534.927 239.568C533.833 239.617 532.985 239.57 532.382 239.426C531.779 239.282 531.454 238.955 531.406 238.444C531.392 238.304 531.403 238.133 531.437 237.928L532.049 237.921C532.034 238.043 532.029 238.127 532.033 238.174C532.059 238.446 532.204 238.639 532.47 238.755C532.735 238.871 533.056 238.934 533.432 238.945C533.808 238.957 534.303 238.95 534.916 238.926L536.797 238.839L537.158 242.672ZM537.348 244.681L537.415 245.388L533.253 245.781L537.745 248.882L537.804 249.51L532.567 250.004L532.5 249.297L536.662 248.904L532.172 245.813L532.111 245.176L537.348 244.681ZM533.068 255.305L535.101 253.436L532.753 251.97L532.678 251.174L535.561 252.991L537.924 250.779L537.999 251.575L536.097 253.342L538.296 254.721L538.369 255.498L535.634 253.767L533.144 256.112L533.068 255.305ZM538.691 258.477C538.755 259.16 538.632 259.701 538.321 260.099C538.017 260.496 537.53 260.726 536.86 260.789L533.614 261.096L533.55 260.419L534.367 260.341C534.08 260.208 533.845 259.992 533.663 259.695C533.481 259.404 533.371 259.046 533.33 258.621C533.275 258.037 533.371 257.559 533.617 257.188C533.863 256.817 534.215 256.609 534.673 256.566C535.118 256.524 535.491 256.649 535.794 256.942C536.096 257.242 536.281 257.743 536.347 258.447L536.504 260.11L536.823 260.079C537.274 260.037 537.604 259.878 537.813 259.604C538.028 259.33 538.112 258.95 538.067 258.465C538.035 258.134 537.949 257.82 537.807 257.526C537.672 257.23 537.498 256.982 537.285 256.781L537.783 256.413C538.033 256.657 538.236 256.96 538.391 257.32C538.552 257.68 538.652 258.065 538.691 258.477ZM533.898 258.678C533.936 259.076 534.058 259.41 534.264 259.678C534.477 259.946 534.762 260.133 535.12 260.24L535.977 260.159L535.822 258.517C535.737 257.621 535.383 257.202 534.759 257.261C534.454 257.29 534.222 257.429 534.065 257.678C533.914 257.927 533.859 258.26 533.898 258.678ZM539.029 262.483L539.095 263.19L536.776 263.409L537.087 266.704L539.406 266.485L539.473 267.192L534.236 267.686L534.17 266.979L536.479 266.761L536.168 263.466L533.859 263.684L533.792 262.977L539.029 262.483ZM534.58 271.86C534.533 271.356 534.603 270.891 534.79 270.465C534.984 270.038 535.273 269.689 535.655 269.419C536.038 269.148 536.485 268.989 536.996 268.94C537.508 268.892 537.976 268.965 538.403 269.159C538.83 269.353 539.175 269.642 539.439 270.026C539.703 270.409 539.859 270.853 539.907 271.358C539.954 271.862 539.884 272.327 539.697 272.754C539.509 273.18 539.224 273.525 538.84 273.789C538.457 274.059 538.01 274.219 537.499 274.267C536.988 274.315 536.519 274.242 536.092 274.048C535.666 273.861 535.318 273.575 535.047 273.192C534.784 272.809 534.628 272.365 534.58 271.86ZM535.207 271.801C535.243 272.173 535.357 272.497 535.55 272.773C535.751 273.056 536.015 273.265 536.343 273.402C536.67 273.538 537.033 273.588 537.432 273.55C537.83 273.512 538.177 273.396 538.473 273.201C538.77 273.005 538.987 272.75 539.124 272.436C539.269 272.128 539.324 271.788 539.289 271.416C539.254 271.044 539.136 270.717 538.936 270.435C538.742 270.158 538.481 269.949 538.153 269.806C537.825 269.669 537.462 269.62 537.064 269.657C536.666 269.695 536.319 269.811 536.022 270.007C535.727 270.209 535.506 270.464 535.361 270.772C535.224 271.087 535.172 271.43 535.207 271.801ZM538.046 279.104C537.947 279.83 537.553 280.226 536.863 280.291C536.405 280.334 536.037 280.198 535.759 279.883C535.482 279.567 535.311 279.074 535.248 278.404L535.024 276.025L540.26 275.53L540.478 277.84C540.535 278.437 540.463 278.916 540.262 279.277C540.062 279.637 539.746 279.838 539.315 279.878C539.029 279.905 538.776 279.849 538.555 279.709C538.342 279.575 538.172 279.374 538.046 279.104ZM537.995 276.437L538.144 278.01C538.182 278.415 538.288 278.716 538.46 278.914C538.634 279.119 538.866 279.208 539.158 279.18C539.45 279.152 539.659 279.022 539.784 278.789C539.91 278.563 539.954 278.248 539.916 277.843L539.768 276.27L537.995 276.437ZM535.803 278.322C535.845 278.773 535.95 279.105 536.118 279.316C536.285 279.528 536.525 279.62 536.837 279.59C537.149 279.561 537.368 279.436 537.494 279.217C537.628 278.996 537.673 278.664 537.631 278.219L537.468 276.487L535.646 276.659L535.803 278.322ZM541.042 283.386C541.106 284.069 540.983 284.61 540.673 285.007C540.369 285.404 539.882 285.635 539.211 285.698L535.966 286.004L535.902 285.327L536.718 285.25C536.431 285.117 536.196 284.901 536.014 284.604C535.833 284.313 535.722 283.955 535.682 283.53C535.627 282.946 535.722 282.468 535.968 282.097C536.215 281.725 536.567 281.518 537.025 281.475C537.469 281.433 537.843 281.558 538.145 281.851C538.448 282.151 538.632 282.652 538.699 283.356L538.856 285.018L539.174 284.988C539.626 284.946 539.956 284.787 540.164 284.513C540.379 284.238 540.464 283.859 540.418 283.374C540.387 283.042 540.3 282.729 540.159 282.434C540.024 282.139 539.85 281.891 539.636 281.69L540.134 281.322C540.385 281.566 540.587 281.868 540.742 282.229C540.903 282.588 541.003 282.974 541.042 283.386ZM536.25 283.587C536.287 283.985 536.409 284.318 536.615 284.587C536.828 284.855 537.114 285.042 537.472 285.149L538.328 285.068L538.173 283.425C538.088 282.529 537.734 282.111 537.11 282.17C536.805 282.199 536.574 282.338 536.416 282.587C536.266 282.835 536.21 283.169 536.25 283.587Z" fill="black"/>
<path d="M86.7296 281.901L80.6185 279.836C80.1073 279.67 79.7357 279.458 79.5036 279.198C79.2715 278.939 79.137 278.614 79.1 278.222C79.0762 277.97 79.0938 277.73 79.1528 277.504C79.2118 277.277 79.3134 277.077 79.4576 276.903L80.0163 277.181C79.7759 277.472 79.6732 277.803 79.7083 278.175C79.7308 278.414 79.8163 278.61 79.9647 278.763C80.1138 278.923 80.3545 279.061 80.6868 279.177L81.2162 279.358L86.2221 276.525L86.2916 277.262L82.0275 279.653L86.6638 281.204L86.7296 281.901ZM87.2157 287.05L81.9789 287.544L81.9122 286.838L86.5217 286.402L86.2849 283.894L84.9841 283.946C83.8905 283.996 83.0424 283.949 82.4395 283.805C81.8366 283.661 81.5111 283.333 81.4628 282.822C81.4497 282.683 81.4602 282.511 81.4945 282.307L82.1065 282.299C82.0913 282.421 82.0858 282.505 82.0902 282.552C82.1159 282.824 82.2614 283.018 82.5268 283.133C82.7922 283.249 83.1129 283.313 83.489 283.324C83.865 283.335 84.3599 283.329 84.9737 283.304L86.8538 283.217L87.2157 287.05ZM87.4053 289.06L87.4721 289.766L83.3106 290.159L87.8019 293.261L87.8612 293.888L82.6244 294.382L82.5577 293.676L86.7192 293.283L82.2288 290.191L82.1686 289.554L87.4053 289.06ZM83.9479 301.806L82.0165 301.988L81.9536 301.321L83.2677 301.197L82.8157 296.408L88.0524 295.914L88.1191 296.621L83.4996 297.057L83.8013 300.253L88.4208 299.816L88.4875 300.523L83.8681 300.959L83.9479 301.806ZM88.9048 304.518C88.9693 305.201 88.8462 305.742 88.5356 306.14C88.2315 306.537 87.7443 306.767 87.074 306.83L83.8284 307.136L83.7645 306.459L84.5809 306.382C84.2937 306.249 84.0591 306.033 83.877 305.736C83.6955 305.445 83.5847 305.087 83.5446 304.662C83.4895 304.078 83.585 303.6 83.8312 303.229C84.0774 302.857 84.4294 302.65 84.8874 302.607C85.3321 302.565 85.7055 302.69 86.0077 302.983C86.3106 303.283 86.4952 303.784 86.5616 304.488L86.7185 306.15L87.0371 306.12C87.4884 306.078 87.8184 305.919 88.0269 305.645C88.242 305.37 88.3267 304.991 88.2809 304.506C88.2496 304.174 88.1631 303.861 88.0215 303.567C87.8865 303.271 87.7124 303.023 87.4992 302.822L87.9968 302.454C88.2475 302.698 88.4502 303 88.6047 303.361C88.7659 303.721 88.8659 304.106 88.9048 304.518ZM84.1125 304.719C84.1501 305.117 84.2719 305.451 84.4781 305.719C84.6909 305.987 84.9764 306.174 85.3347 306.281L86.1909 306.2L86.0358 304.558C85.9512 303.662 85.597 303.243 84.9731 303.302C84.6678 303.331 84.4365 303.47 84.2792 303.719C84.1286 303.968 84.073 304.301 84.1125 304.719ZM91.0303 315.755L90.7991 313.306L84.4672 313.904L84.3986 313.177L90.7305 312.579L90.4993 310.13L91.1364 310.07L91.6674 315.695L91.0303 315.755ZM90.4292 321.092L84.3181 319.027C83.8069 318.861 83.4353 318.649 83.2032 318.389C82.9712 318.13 82.8366 317.805 82.7997 317.413C82.7759 317.161 82.7934 316.921 82.8524 316.695C82.9114 316.468 83.013 316.268 83.1572 316.094L83.7159 316.372C83.4755 316.663 83.3728 316.994 83.4079 317.366C83.4305 317.605 83.5159 317.801 83.6644 317.954C83.8134 318.114 84.0541 318.252 84.3865 318.368L84.9158 318.549L89.9217 315.716L89.9913 316.453L85.7271 318.844L90.3634 320.395L90.4292 321.092ZM90.9153 326.241L85.6786 326.735L85.6118 326.029L90.2213 325.593L89.9845 323.085L88.6837 323.137C87.5902 323.187 86.742 323.14 86.1391 322.996C85.5363 322.852 85.2107 322.524 85.1625 322.013C85.1493 321.874 85.1599 321.702 85.1942 321.498L85.8062 321.49C85.7909 321.612 85.7855 321.696 85.7898 321.743C85.8155 322.015 85.9611 322.209 86.2264 322.324C86.4918 322.44 86.8125 322.504 87.1886 322.515C87.5646 322.526 88.0596 322.52 88.6733 322.495L90.5534 322.408L90.9153 326.241ZM88.6999 333.098L88.2864 328.718C87.7459 328.809 87.3243 329.059 87.0215 329.47C86.7253 329.879 86.6045 330.373 86.659 330.95C86.6897 331.276 86.7743 331.569 86.9129 331.83C87.058 332.091 87.2528 332.311 87.4973 332.488L87.0769 332.93C86.7762 332.724 86.5363 332.452 86.357 332.114C86.1784 331.783 86.0694 331.408 86.0299 330.99C85.9792 330.452 86.0469 329.964 86.2331 329.524C86.4265 329.091 86.7147 328.739 87.0977 328.468C87.4806 328.198 87.9276 328.038 88.4387 327.99C88.9497 327.942 89.418 328.008 89.8436 328.189C90.2698 328.376 90.6138 328.652 90.8758 329.015C91.1385 329.386 91.2927 329.813 91.3384 330.298C91.3841 330.782 91.3123 331.228 91.123 331.634C90.9337 332.04 90.6469 332.372 90.2627 332.629C89.8852 332.886 89.4376 333.038 88.9199 333.087L88.6999 333.098ZM90.7311 330.355C90.6835 329.851 90.4808 329.441 90.123 329.127C89.7724 328.818 89.3361 328.665 88.814 328.668L89.1646 332.381C89.6779 332.286 90.0776 332.051 90.3636 331.675C90.6568 331.306 90.7793 330.866 90.7311 330.355ZM91.7962 336.956C91.8419 337.44 91.7731 337.882 91.5898 338.281C91.4137 338.686 91.14 339.013 90.7684 339.263C90.4035 339.511 89.9722 339.659 89.4744 339.706C88.9633 339.754 88.498 339.684 88.0785 339.496C87.6662 339.314 87.3318 339.035 87.0751 338.657C86.8185 338.279 86.6658 337.832 86.6169 337.314C86.5348 336.445 86.7766 335.742 87.3421 335.207C87.9076 334.671 88.7279 334.353 89.8031 334.251C90.9248 334.145 91.8044 334.276 92.4418 334.645C93.0799 335.02 93.5481 335.652 93.8463 336.541L94.6057 338.84L93.9698 339.021L93.2535 336.858C93.0167 336.124 92.6694 335.601 92.2114 335.289C91.76 334.977 91.1213 334.843 90.2952 334.888C90.7201 335.062 91.0632 335.327 91.3246 335.684C91.5926 336.041 91.7498 336.465 91.7962 336.956ZM87.2062 337.279C87.2406 337.644 87.3543 337.961 87.5472 338.231C87.7473 338.506 88.0076 338.71 88.3279 338.84C88.6489 338.977 89.0018 339.028 89.3868 338.991C89.7717 338.955 90.1027 338.843 90.3797 338.656C90.6567 338.47 90.8611 338.223 90.9928 337.916C91.1318 337.614 91.1837 337.278 91.1487 336.906C91.1136 336.535 90.9993 336.211 90.8058 335.934C90.6195 335.664 90.3726 335.46 90.0649 335.321C89.7578 335.19 89.4118 335.142 89.0268 335.178C88.6419 335.215 88.3043 335.327 88.014 335.515C87.7244 335.71 87.507 335.961 87.362 336.269C87.2237 336.577 87.1717 336.914 87.2062 337.279ZM92.5126 342.737C92.5772 343.42 92.4541 343.961 92.1434 344.358C91.8394 344.755 91.3522 344.986 90.6818 345.049L87.4363 345.355L87.3724 344.678L88.1887 344.601C87.9016 344.468 87.6669 344.252 87.4848 343.954C87.3034 343.664 87.1926 343.306 87.1525 342.881C87.0973 342.297 87.1929 341.819 87.439 341.448C87.6852 341.076 88.0373 340.869 88.4952 340.826C88.9399 340.784 89.3134 340.909 89.6156 341.202C89.9184 341.502 90.103 342.003 90.1694 342.707L90.3264 344.369L90.645 344.339C91.0963 344.297 91.4262 344.138 91.6347 343.864C91.8498 343.589 91.9345 343.21 91.8888 342.725C91.8575 342.393 91.771 342.08 91.6293 341.785C91.4943 341.49 91.3202 341.242 91.1071 341.041L91.6046 340.673C91.8554 340.917 92.058 341.219 92.2126 341.58C92.3738 341.939 92.4738 342.325 92.5126 342.737ZM87.7203 342.938C87.7579 343.336 87.8798 343.669 88.0859 343.938C88.2987 344.206 88.5842 344.393 88.9425 344.5L89.7987 344.419L89.6437 342.776C89.5591 341.88 89.2048 341.462 88.5809 341.521C88.2756 341.549 88.0443 341.688 87.8871 341.938C87.7364 342.186 87.6809 342.52 87.7203 342.938ZM90.4455 351.59L90.032 347.21C89.4915 347.301 89.0699 347.551 88.7671 347.962C88.471 348.371 88.3502 348.865 88.4047 349.442C88.4354 349.768 88.52 350.061 88.6585 350.322C88.8037 350.583 88.9985 350.803 89.2429 350.98L88.8226 351.422C88.5219 351.216 88.2819 350.944 88.1027 350.606C87.9241 350.275 87.815 349.9 87.7756 349.482C87.7248 348.944 87.7925 348.456 87.9787 348.016C88.1722 347.583 88.4604 347.231 88.8433 346.96C89.2263 346.69 89.6733 346.53 90.1843 346.482C90.6954 346.434 91.1637 346.5 91.5892 346.681C92.0154 346.868 92.3595 347.144 92.6215 347.507C92.8841 347.878 93.0383 348.305 93.084 348.79C93.1298 349.274 93.058 349.72 92.8687 350.126C92.6793 350.532 92.3926 350.864 92.0084 351.121C91.6308 351.378 91.1832 351.53 90.6655 351.579L90.4455 351.59ZM92.4767 348.847C92.4291 348.343 92.2264 347.933 91.8686 347.619C91.5181 347.31 91.0818 347.157 90.5597 347.16L90.9102 350.873C91.4235 350.778 91.8232 350.543 92.1092 350.167C92.4025 349.798 92.525 349.358 92.4767 348.847ZM91.2177 356.471C91.1188 357.197 90.7242 357.592 90.0339 357.657C89.576 357.7 89.2082 357.564 88.9307 357.249C88.6532 356.934 88.4828 356.441 88.4195 355.771L88.1949 353.391L93.4316 352.897L93.6496 355.207C93.706 355.804 93.634 356.283 93.4337 356.643C93.2333 357.004 92.9174 357.204 92.486 357.245C92.2006 357.272 91.9475 357.215 91.7268 357.076C91.5132 356.942 91.3435 356.74 91.2177 356.471ZM91.1668 353.804L91.3153 355.377C91.3535 355.782 91.459 356.083 91.6317 356.281C91.805 356.486 92.0377 356.574 92.3297 356.547C92.6217 356.519 92.8304 356.389 92.9558 356.156C93.0817 355.93 93.1256 355.614 93.0874 355.209L92.9389 353.636L91.1668 353.804ZM88.9742 355.688C89.0168 356.139 89.1217 356.471 89.2891 356.683C89.4564 356.895 89.696 356.986 90.008 356.957C90.3199 356.927 90.5392 356.803 90.6658 356.583C90.799 356.363 90.8446 356.031 90.8027 355.586L90.6391 353.854L88.8172 354.026L88.9742 355.688ZM94.2133 360.752C94.2778 361.436 94.1548 361.976 93.8441 362.374C93.54 362.771 93.0529 363.001 92.3825 363.064L89.1369 363.371L89.073 362.694L89.8894 362.617C89.6022 362.483 89.3676 362.268 89.1855 361.97C89.004 361.679 88.8932 361.321 88.8531 360.897C88.798 360.312 88.8935 359.835 89.1397 359.463C89.3859 359.092 89.738 358.884 90.1959 358.841C90.6406 358.799 91.0141 358.925 91.3163 359.218C91.6191 359.517 91.8037 360.019 91.8701 360.722L92.0271 362.385L92.3456 362.355C92.797 362.312 93.1269 362.154 93.3354 361.88C93.5505 361.605 93.6352 361.225 93.5895 360.741C93.5581 360.409 93.4716 360.096 93.33 359.801C93.195 359.506 93.0209 359.258 92.8077 359.057L93.3053 358.688C93.556 358.933 93.7587 359.235 93.9132 359.595C94.0744 359.955 94.1744 360.341 94.2133 360.752ZM89.421 360.953C89.4586 361.352 89.5805 361.685 89.7866 361.953C89.9994 362.221 90.2849 362.409 90.6432 362.515L91.4994 362.435L91.3443 360.792C91.2597 359.896 90.9055 359.477 90.2816 359.536C89.9763 359.565 89.745 359.704 89.5877 359.953C89.4371 360.202 89.3815 360.535 89.421 360.953Z" fill="black"/>
<path d="M243.544 321.333C242.671 321.333 241.797 321.001 241.132 320.336C239.802 319.006 239.802 316.841 241.132 315.511C241.777 314.867 242.633 314.512 243.544 314.512C244.456 314.512 245.312 314.867 245.957 315.511C247.287 316.841 247.287 319.006 245.957 320.336C245.291 321.001 244.418 321.333 243.544 321.333ZM243.544 315.862C243.016 315.862 242.488 316.063 242.086 316.465C241.282 317.269 241.282 318.578 242.086 319.382C242.476 319.771 242.994 319.985 243.544 319.985C244.095 319.985 244.613 319.771 245.002 319.382C245.807 318.578 245.807 317.269 245.002 316.465C244.6 316.063 244.072 315.862 243.544 315.862Z" fill="#506369"/>
<path d="M243.551 333L243.03 332.387C242.724 332.028 235.549 323.535 235.549 317.995C235.549 313.586 239.135 310 243.544 310C247.952 310 251.538 313.586 251.538 317.995C251.538 323.263 244.369 332.01 244.064 332.379L243.551 333ZM243.544 311.349C239.879 311.349 236.898 314.33 236.898 317.995C236.898 320.054 238.126 323.034 240.449 326.614C241.655 328.471 242.869 330.044 243.536 330.876C244.204 330.021 245.43 328.396 246.643 326.504C248.963 322.885 250.189 319.943 250.189 317.995C250.189 314.33 247.208 311.349 243.544 311.349V311.349Z" fill="#506369"/>
<g clip-path="url(#clip1_35_11)">
<path d="M200.249 292.203L206.146 291.842C209.047 291.664 210.228 289.9 210.106 287.503C210.007 285.498 208.548 283.502 205.79 283.671L199.749 284.04L198.465 284.119L198.391 282.897L205.715 282.449C209.33 282.228 211.324 284.78 211.51 287.442C211.704 290.226 210.07 292.779 206.432 293.002L212.706 299.191L211.017 299.295L204.867 293.171L200.325 293.449L200.721 299.925L199.437 300.003L198.965 292.281L200.249 292.203V292.203Z" fill="#506369"/>
<path d="M217.795 281.71L219.056 281.633L220.102 298.739L218.841 298.816L217.795 281.71Z" fill="#506369"/>
<path d="M247.941 288.439C248.201 292.299 250.809 295.917 255.541 295.627C260.297 295.336 262.468 291.426 262.232 287.565C261.99 283.606 259.39 280.11 254.61 280.403C249.83 280.695 247.67 284.409 247.941 288.439V288.439ZM263.471 287.514C263.722 292.012 261.204 296.508 255.616 296.849C250.027 297.191 246.955 293.013 246.679 288.492C246.398 283.898 248.923 279.525 254.535 279.181C260.147 278.838 263.212 282.894 263.471 287.514Z" fill="#506369"/>
<path d="M286.963 277.48L288.223 277.403L289.269 294.509L288.009 294.586L286.963 277.48Z" fill="#506369"/>
<path d="M230.836 290.307L226.567 281.149L225.188 281.233L229.508 290.388L230.836 290.307Z" fill="#506369"/>
<path d="M238.885 280.396L233.682 296.412L232.795 294.508L231.49 294.588L233.086 297.969L234.465 297.885L240.264 280.312L238.885 280.396Z" fill="#506369"/>
<path d="M271.177 278.446L269.893 278.524L270.467 287.908L271.751 287.83L271.177 278.446Z" fill="#506369"/>
<path d="M272.145 294.305L272.013 292.134L270.729 292.212L270.938 295.63L281.591 294.978L281.515 293.732L272.145 294.305Z" fill="#506369"/>
</g>
</g>
<rect x="2.5" y="2.5" width="558" height="652" stroke="#506369" stroke-width="5"/>
<defs>
<clipPath id="clip0_35_11">
<rect width="563" height="657" fill="white"/>
</clipPath>
<clipPath id="clip1_35_11">
<rect width="90" height="30" fill="white" transform="translate(198 276.494) rotate(-3.5)"/>
</clipPath>
</defs>
</svg>
