<svg width="563" height="657" viewBox="0 0 563 657" fill="none" xmlns="http://www.w3.org/2000/svg">
<g clip-path="url(#clip0_36_55)">
<rect width="563" height="657" fill="white"/>
<path d="M3 176C5 176.8 47.8333 197.667 69 208L198 289L366 379L445.5 345.5H474.5L558 370.5" stroke="#EAE5E1" stroke-width="5" stroke-linecap="round"/>
<path d="M366 378.5L390.5 450.5" stroke="#EAE5E1" stroke-width="5"/>
<path d="M560.5 474.5C558.1 473.7 478.5 448.5 439 436L392 449.5L356 484.5L316 584L292 654" stroke="#EAE5E1" stroke-width="5" stroke-linecap="round"/>
<path d="M342.5 525L400 552L459.5 494" stroke="#EAE5E1" stroke-width="5" stroke-linecap="round"/>
<path d="M356.5 484C358.9 484.8 383.167 497 395 503L423 528.5" stroke="#EAE5E1" stroke-width="5" stroke-linecap="round"/>
<path d="M356 484L197.5 413L4.5 550.5" stroke="#EAE5E1" stroke-width="5" stroke-linecap="round"/>
<path d="M48.5 197L71.5 120L86 18.5L81.25 11M76.5 3.5L81.25 11M81.25 11L107.5 1" stroke="#EAE5E1" stroke-width="5" stroke-linecap="round"/>
<path d="M215 5L319 140L394 322.5L459 492L538 512.5L562 432.5" stroke="#EAE5E1" stroke-width="5" stroke-linecap="round"/>
<path opacity="0.3" d="M414 253L377 270.5H376L384.5 290.5H386.5L392 294V301.5L389 303L396.5 319.5L405.5 311L414.5 321L401 325V332L411 355.5L432 347.5V343.5H415L420.5 337.5L431 334L435.5 333C441.9 327.4 453.833 331.333 459 334L468.5 324.5H480.5L488.5 297.5C492.333 284.333 501.1 255.1 505.5 243.5C509.9 231.9 505 227.667 502 227L451 212L435.5 258L414 253Z" fill="#98ABA7"/>
<path d="M488.8 336.868L485.78 340.225C485.531 340.508 485.292 340.688 485.061 340.765C484.83 340.842 484.583 340.839 484.321 340.754C484.153 340.699 484.004 340.622 483.874 340.521C483.745 340.421 483.644 340.3 483.572 340.159L483.906 339.877C484.026 340.112 484.211 340.27 484.459 340.35C484.619 340.402 484.769 340.401 484.909 340.348C485.053 340.296 485.208 340.18 485.375 339.998L485.638 339.708L485.203 335.705L485.696 335.865L486.052 339.268L488.333 336.717L488.8 336.868ZM492.244 337.981L491.112 341.485L490.639 341.332L491.636 338.248L489.957 337.706L489.631 338.556C489.36 339.273 489.095 339.805 488.835 340.153C488.576 340.501 488.275 340.619 487.933 340.509C487.84 340.479 487.732 340.424 487.611 340.346L487.775 339.95C487.849 339.994 487.902 340.021 487.933 340.031C488.115 340.09 488.28 340.05 488.428 339.911C488.576 339.773 488.705 339.584 488.817 339.345C488.928 339.107 489.061 338.787 489.215 338.385L489.68 337.153L492.244 337.981ZM493.589 338.416L494.062 338.569L493.162 341.353L496.4 339.324L496.819 339.46L495.687 342.964L495.214 342.811L496.114 340.027L492.883 342.057L492.456 341.919L493.589 338.416ZM500.826 344.168L500.408 345.461L499.962 345.316L500.246 344.437L497.042 343.402L498.174 339.898L498.647 340.051L497.648 343.141L499.787 343.833L500.785 340.742L501.258 340.895L500.259 343.985L500.826 344.168ZM503.942 341.733C504.399 341.881 504.713 342.109 504.882 342.419C505.053 342.725 505.066 343.102 504.921 343.55L504.22 345.721L503.767 345.575L503.943 345.029C503.778 345.177 503.574 345.268 503.333 345.302C503.095 345.338 502.835 345.311 502.55 345.219C502.16 345.092 501.879 344.899 501.708 344.638C501.538 344.376 501.502 344.093 501.601 343.786C501.697 343.489 501.881 343.283 502.153 343.17C502.43 343.059 502.803 343.079 503.274 343.231L504.386 343.59L504.455 343.377C504.553 343.075 504.542 342.819 504.424 342.609C504.307 342.395 504.086 342.235 503.762 342.131C503.54 342.059 503.314 342.028 503.086 342.037C502.859 342.042 502.651 342.085 502.463 342.167L502.364 341.745C502.59 341.651 502.841 341.605 503.115 341.605C503.391 341.601 503.667 341.644 503.942 341.733ZM502.744 344.869C503.011 344.956 503.259 344.969 503.488 344.911C503.719 344.849 503.919 344.717 504.087 344.516L504.272 343.943L503.173 343.588C502.574 343.394 502.206 343.506 502.071 343.924C502.005 344.128 502.031 344.315 502.147 344.485C502.266 344.651 502.464 344.779 502.744 344.869ZM511.816 345.815L510.85 345.503L510.159 347.641L509.68 347.486L510.371 345.348L509.398 345.034L507.282 346.711L506.709 346.526L509.085 344.638L508.336 341.902L508.869 342.075L509.531 344.599L510.511 344.915L511.187 342.824L511.666 342.979L510.99 345.07L511.956 345.382L513.977 343.726L514.51 343.898L512.302 345.678L513.123 348.599L512.55 348.414L511.816 345.815ZM517.335 348.188L514.404 347.24C514.313 347.613 514.358 347.954 514.538 348.262C514.719 348.566 515.003 348.78 515.389 348.905C515.607 348.975 515.819 349.002 516.025 348.985C516.233 348.964 516.428 348.9 516.61 348.792L516.778 349.184C516.562 349.321 516.321 349.4 516.054 349.421C515.791 349.444 515.52 349.411 515.24 349.32C514.881 349.204 514.585 349.025 514.354 348.784C514.129 348.539 513.983 348.257 513.915 347.936C513.847 347.614 513.868 347.283 513.979 346.941C514.089 346.599 514.262 346.316 514.496 346.093C514.734 345.871 515.007 345.726 515.313 345.658C515.624 345.592 515.941 345.611 516.266 345.716C516.59 345.821 516.856 345.99 517.065 346.224C517.274 346.459 517.408 346.735 517.467 347.053C517.527 347.367 517.501 347.697 517.389 348.043L517.335 348.188ZM516.134 346.122C515.797 346.013 515.477 346.03 515.176 346.173C514.881 346.313 514.662 346.551 514.519 346.887L517.003 347.69C517.084 347.334 517.043 347.012 516.881 346.724C516.725 346.433 516.476 346.233 516.134 346.122ZM521.795 347.532L520.662 351.036L520.19 350.883L521.186 347.799L519.508 347.257L519.181 348.108C518.91 348.824 518.645 349.357 518.386 349.704C518.126 350.052 517.825 350.171 517.484 350.06C517.39 350.03 517.283 349.976 517.161 349.897L517.326 349.501C517.4 349.545 517.452 349.572 517.484 349.582C517.666 349.641 517.831 349.601 517.978 349.462C518.126 349.324 518.256 349.135 518.367 348.896C518.479 348.658 518.612 348.338 518.766 347.936L519.23 346.704L521.795 347.532ZM525.468 349.183L524.143 348.755L523.146 351.839L522.673 351.686L523.67 348.602L522.344 348.173L522.48 347.754L525.604 348.764L525.468 349.183ZM526.427 352.936C526.09 352.827 525.81 352.653 525.588 352.415C525.367 352.172 525.223 351.89 525.155 351.568C525.087 351.247 525.108 350.916 525.219 350.574C525.329 350.232 525.506 349.951 525.749 349.73C525.992 349.509 526.273 349.367 526.593 349.304C526.913 349.241 527.241 349.263 527.579 349.372C527.916 349.482 528.196 349.655 528.418 349.894C528.64 350.132 528.783 350.412 528.846 350.731C528.914 351.052 528.893 351.384 528.782 351.726C528.672 352.068 528.495 352.349 528.252 352.57C528.014 352.792 527.734 352.937 527.413 353.004C527.093 353.068 526.765 353.045 526.427 352.936ZM526.563 352.516C526.811 352.597 527.051 352.613 527.283 352.565C527.52 352.514 527.728 352.402 527.906 352.23C528.084 352.057 528.217 351.837 528.303 351.571C528.389 351.304 528.41 351.049 528.367 350.804C528.323 350.56 528.219 350.35 528.055 350.174C527.897 349.995 527.694 349.866 527.445 349.785C527.197 349.705 526.954 349.69 526.717 349.741C526.485 349.789 526.278 349.899 526.095 350.07C525.917 350.243 525.785 350.463 525.698 350.729C525.612 350.995 525.591 351.251 525.635 351.495C525.683 351.741 525.786 351.954 525.944 352.132C526.108 352.308 526.314 352.436 526.563 352.516ZM531.003 352.657L530.204 352.398L529.7 353.957L529.227 353.804L530.359 350.301L530.832 350.453L530.335 351.992L531.141 352.253L532.87 351.112L533.383 351.278L531.456 352.531L532.351 354.814L531.791 354.633L531.003 352.657ZM534.428 355.522C534.082 355.41 533.795 355.234 533.569 354.994C533.347 354.756 533.202 354.476 533.134 354.155C533.068 353.829 533.09 353.495 533.2 353.154C533.311 352.812 533.487 352.53 533.73 352.31C533.973 352.089 534.255 351.947 534.574 351.884C534.898 351.822 535.234 351.847 535.58 351.959C535.882 352.056 536.131 352.203 536.328 352.399C536.53 352.592 536.664 352.824 536.728 353.095L536.298 353.22C536.238 353.01 536.133 352.834 535.983 352.692C535.834 352.546 535.655 352.439 535.446 352.372C535.193 352.29 534.946 352.274 534.704 352.323C534.469 352.369 534.259 352.478 534.077 352.65C533.898 352.823 533.766 353.042 533.68 353.309C533.592 353.579 533.57 353.837 533.614 354.082C533.663 354.323 533.769 354.534 533.932 354.714C534.1 354.891 534.311 355.021 534.564 355.102C534.773 355.17 534.979 355.19 535.184 355.163C535.389 355.136 535.577 355.055 535.749 354.919L536.024 355.273C535.813 355.455 535.569 355.567 535.29 355.609C535.013 355.647 534.726 355.618 534.428 355.522ZM539.073 353.088C539.531 353.236 539.844 353.464 540.014 353.774C540.185 354.08 540.198 354.457 540.053 354.905L539.351 357.076L538.898 356.93L539.075 356.384C538.909 356.531 538.706 356.623 538.464 356.657C538.227 356.693 537.966 356.666 537.682 356.574C537.291 356.447 537.01 356.254 536.84 355.993C536.669 355.731 536.633 355.448 536.732 355.141C536.828 354.844 537.013 354.638 537.285 354.525C537.561 354.413 537.935 354.434 538.405 354.586L539.518 354.945L539.586 354.732C539.684 354.43 539.674 354.174 539.555 353.964C539.438 353.75 539.217 353.59 538.893 353.486C538.671 353.414 538.446 353.383 538.217 353.392C537.99 353.397 537.782 353.44 537.594 353.522L537.495 353.1C537.722 353.006 537.972 352.96 538.246 352.96C538.522 352.956 538.798 352.999 539.073 353.088ZM537.876 356.224C538.142 356.31 538.39 356.324 538.62 356.266C538.851 356.204 539.05 356.072 539.218 355.871L539.403 355.298L538.304 354.943C537.705 354.749 537.338 354.861 537.203 355.279C537.137 355.483 537.162 355.67 537.279 355.84C537.397 356.006 537.596 356.134 537.876 356.224ZM541.742 353.98L542.215 354.133L541.714 355.685L543.918 356.397L544.42 354.845L544.893 354.998L543.761 358.502L543.288 358.349L543.787 356.803L541.582 356.091L541.083 357.636L540.61 357.483L541.742 353.98Z" fill="black"/>
<path d="M421.716 369.813L417.202 369.687C416.826 369.681 416.534 369.615 416.325 369.489C416.116 369.363 415.96 369.173 415.854 368.918C415.787 368.754 415.749 368.591 415.742 368.427C415.735 368.263 415.762 368.108 415.823 367.962L416.254 368.034C416.152 368.277 416.152 368.52 416.252 368.762C416.316 368.917 416.413 369.031 416.544 369.103C416.677 369.179 416.866 369.222 417.112 369.231L417.504 369.244L420.272 366.319L420.469 366.798L418.107 369.275L421.529 369.36L421.716 369.813ZM423.099 373.158L419.696 374.565L419.506 374.106L422.502 372.867L421.828 371.237L420.968 371.54C420.246 371.798 419.669 371.94 419.236 371.968C418.803 371.995 418.518 371.843 418.381 371.511C418.343 371.421 418.315 371.303 418.296 371.16L418.704 371.029C418.719 371.114 418.732 371.171 418.745 371.201C418.818 371.378 418.955 371.478 419.157 371.501C419.358 371.524 419.586 371.5 419.84 371.431C420.094 371.361 420.423 371.255 420.829 371.112L422.069 370.668L423.099 373.158ZM423.639 374.464L423.829 374.923L421.125 376.041L424.767 377.194L424.936 377.601L421.533 379.008L421.343 378.549L424.047 377.431L420.407 376.285L420.236 375.871L423.639 374.464ZM423.944 383.704L422.689 384.222L422.51 383.789L423.364 383.436L422.077 380.324L425.48 378.918L425.67 379.377L422.668 380.618L423.527 382.694L426.529 381.453L426.718 381.913L423.717 383.154L423.944 383.704ZM427.818 384.5C428.002 384.944 428.031 385.331 427.905 385.661C427.783 385.989 427.504 386.243 427.068 386.423L424.96 387.295L424.778 386.855L425.308 386.636C425.088 386.606 424.887 386.51 424.704 386.348C424.523 386.191 424.375 385.974 424.261 385.698C424.104 385.318 424.07 384.979 424.158 384.68C424.247 384.381 424.44 384.17 424.737 384.047C425.026 383.927 425.302 383.934 425.564 384.068C425.829 384.207 426.055 384.504 426.244 384.961L426.691 386.042L426.898 385.956C427.191 385.835 427.379 385.661 427.463 385.435C427.55 385.207 427.529 384.935 427.399 384.62C427.309 384.405 427.187 384.213 427.032 384.045C426.881 383.875 426.713 383.745 426.529 383.654L426.787 383.305C427.005 383.417 427.202 383.578 427.38 383.787C427.562 383.995 427.708 384.233 427.818 384.5ZM424.653 385.619C424.76 385.878 424.91 386.076 425.103 386.213C425.3 386.349 425.53 386.416 425.792 386.413L426.348 386.183L425.907 385.116C425.666 384.534 425.343 384.327 424.938 384.494C424.739 384.576 424.613 384.717 424.559 384.916C424.509 385.113 424.541 385.348 424.653 385.619ZM430.739 388.449L432.108 391.761L431.701 391.929L430.526 389.09L429.045 389.702L429.657 391.183C429.879 391.718 429.936 392.169 429.83 392.536C429.726 392.907 429.465 393.179 429.047 393.352C428.611 393.532 428.215 393.52 427.857 393.314C427.501 393.113 427.207 392.732 426.975 392.171L426.21 390.321L430.739 388.449ZM427.354 392.007C427.527 392.425 427.737 392.707 427.984 392.852C428.233 393.002 428.515 393.012 428.83 392.882C429.14 392.753 429.327 392.552 429.391 392.278C429.46 392.007 429.407 391.658 429.23 391.231L428.663 389.86L426.787 390.635L427.354 392.007ZM432.021 394.664C432.204 395.109 432.233 395.496 432.107 395.826C431.985 396.154 431.706 396.408 431.271 396.588L429.162 397.46L428.98 397.02L429.511 396.801C429.291 396.77 429.09 396.674 428.907 396.513C428.725 396.355 428.578 396.138 428.464 395.862C428.307 395.483 428.273 395.144 428.361 394.844C428.449 394.545 428.642 394.334 428.94 394.211C429.229 394.092 429.505 394.099 429.767 394.233C430.031 394.371 430.258 394.669 430.447 395.126L430.893 396.206L431.1 396.121C431.394 395.999 431.582 395.826 431.665 395.599C431.753 395.371 431.731 395.1 431.601 394.785C431.512 394.569 431.39 394.378 431.234 394.209C431.083 394.04 430.916 393.909 430.732 393.819L430.989 393.47C431.207 393.582 431.405 393.743 431.582 393.952C431.764 394.16 431.91 394.397 432.021 394.664ZM428.855 395.784C428.962 396.043 429.112 396.241 429.305 396.378C429.503 396.513 429.732 396.58 429.994 396.578L430.55 396.348L430.109 395.281C429.868 394.698 429.545 394.491 429.14 394.659C428.942 394.741 428.815 394.881 428.761 395.08C428.712 395.278 428.743 395.512 428.855 395.784ZM434.266 400.167L429.752 400.041C429.376 400.035 429.083 399.969 428.875 399.843C428.666 399.718 428.509 399.527 428.404 399.273C428.336 399.109 428.299 398.945 428.292 398.782C428.285 398.618 428.312 398.463 428.372 398.317L428.804 398.388C428.702 398.632 428.702 398.875 428.802 399.116C428.866 399.272 428.963 399.385 429.094 399.457C429.227 399.534 429.416 399.577 429.662 399.586L430.054 399.598L432.821 396.674L433.019 397.153L430.657 399.629L434.078 399.715L434.266 400.167ZM433.949 402.81C434.122 403.239 434.161 403.604 434.069 403.905C433.976 404.205 433.755 404.428 433.405 404.573C433.043 404.722 432.715 404.717 432.421 404.555C432.127 404.394 431.89 404.088 431.709 403.638L431.159 402.29L434.561 400.883L434.751 401.342L433.561 401.834L433.949 402.81ZM435.931 404.195L436.121 404.654L432.718 406.061L432.528 405.602L435.931 404.195ZM432.047 403.468C432.173 403.784 432.334 403.996 432.529 404.102C432.731 404.21 432.958 404.212 433.213 404.107C433.463 404.003 433.615 403.847 433.67 403.637C433.725 403.428 433.689 403.163 433.561 402.842L433.218 401.976L431.705 402.602L432.047 403.468ZM437.412 407.704C437.544 408.024 437.59 408.343 437.551 408.662C437.515 408.98 437.396 409.266 437.194 409.522C436.991 409.777 436.722 409.974 436.386 410.113C436.045 410.254 435.713 410.306 435.389 410.268C435.065 410.23 434.777 410.112 434.523 409.914C434.276 409.718 434.085 409.459 433.951 409.135C433.837 408.859 433.79 408.586 433.809 408.315C433.835 408.047 433.928 407.797 434.089 407.563L432.194 408.347L432.004 407.888L436.661 405.962L436.843 406.402L436.17 406.68C436.452 406.725 436.699 406.835 436.913 407.01C437.128 407.188 437.294 407.42 437.412 407.704ZM434.345 408.934C434.443 409.172 434.586 409.365 434.775 409.514C434.967 409.662 435.187 409.748 435.434 409.772C435.683 409.8 435.937 409.761 436.196 409.654C436.454 409.547 436.66 409.397 436.812 409.202C436.97 409.011 437.065 408.795 437.097 408.554C437.129 408.314 437.096 408.075 436.998 407.838C436.898 407.596 436.752 407.402 436.559 407.254C436.369 407.111 436.149 407.025 435.9 406.996C435.657 406.971 435.406 407.011 435.147 407.118C434.889 407.225 434.68 407.375 434.522 407.566C434.366 407.762 434.271 407.978 434.237 408.214C434.209 408.453 434.246 408.693 434.345 408.934ZM437.789 414.04L437.484 413.302L435.971 413.928L435.781 413.469L437.295 412.843L436.99 412.106L435.045 411.69L434.818 411.14L437.077 411.638L438.261 409.83L438.467 410.329L437.384 411.943L437.689 412.68L439.183 412.062L439.373 412.521L437.879 413.139L438.184 413.877L440.093 414.262L440.299 414.76L438.177 414.319L436.936 416.264L436.709 415.714L437.789 414.04ZM441.139 416.718C441.322 417.162 441.351 417.549 441.225 417.879C441.103 418.208 440.824 418.462 440.389 418.642L438.28 419.514L438.098 419.074L438.628 418.854C438.409 418.824 438.208 418.728 438.025 418.566C437.843 418.409 437.696 418.192 437.582 417.916C437.425 417.537 437.39 417.197 437.479 416.898C437.567 416.599 437.76 416.388 438.058 416.265C438.347 416.145 438.622 416.153 438.885 416.287C439.149 416.425 439.376 416.723 439.565 417.18L440.011 418.26L440.218 418.174C440.512 418.053 440.7 417.879 440.783 417.653C440.87 417.425 440.849 417.154 440.719 416.839C440.63 416.623 440.508 416.431 440.352 416.263C440.201 416.093 440.034 415.963 439.85 415.873L440.107 415.524C440.325 415.636 440.523 415.796 440.7 416.006C440.882 416.213 441.028 416.451 441.139 416.718ZM437.973 417.838C438.08 418.096 438.23 418.294 438.423 418.432C438.621 418.567 438.85 418.634 439.112 418.632L439.668 418.402L439.227 417.334C438.986 416.752 438.663 416.545 438.258 416.712C438.06 416.794 437.933 416.935 437.879 417.134C437.83 417.331 437.861 417.566 437.973 417.838ZM442.188 419.329L442.378 419.789L440.871 420.412L441.756 422.553L443.263 421.93L443.453 422.389L440.05 423.796L439.861 423.337L441.361 422.716L440.476 420.575L438.975 421.196L438.785 420.736L442.188 419.329ZM447.808 429.735L443.28 431.607L443.09 431.148L446.713 429.65L442.93 429.131L442.837 428.905L445.129 425.874L441.525 427.364L441.336 426.905L445.864 425.032L446.027 425.427L443.483 428.782L447.645 429.341L447.808 429.735ZM444.413 434.441C444.278 434.113 444.229 433.787 444.267 433.463C444.309 433.138 444.431 432.845 444.631 432.586C444.832 432.326 445.098 432.127 445.43 431.99C445.762 431.853 446.091 431.805 446.417 431.847C446.742 431.89 447.033 432.012 447.288 432.214C447.543 432.417 447.739 432.682 447.874 433.01C448.01 433.337 448.059 433.663 448.021 433.987C447.983 434.311 447.863 434.6 447.66 434.855C447.46 435.115 447.193 435.314 446.861 435.451C446.529 435.588 446.2 435.636 445.875 435.594C445.551 435.556 445.259 435.437 445 435.236C444.744 435.033 444.549 434.768 444.413 434.441ZM444.821 434.272C444.921 434.514 445.064 434.707 445.25 434.852C445.443 435 445.662 435.086 445.91 435.11C446.157 435.134 446.41 435.092 446.669 434.985C446.927 434.878 447.136 434.729 447.294 434.537C447.452 434.346 447.545 434.131 447.572 433.892C447.606 433.656 447.573 433.417 447.473 433.176C447.373 432.934 447.227 432.739 447.035 432.592C446.849 432.447 446.631 432.36 446.382 432.331C446.135 432.307 445.882 432.349 445.623 432.456C445.364 432.563 445.156 432.712 444.998 432.904C444.841 433.1 444.746 433.316 444.713 433.552C444.685 433.79 444.721 434.031 444.821 434.272ZM450.541 439.533L447.138 440.94L446.964 440.519L449.656 439.407L446.809 438.97L446.723 438.763L448.437 436.441L445.74 437.556L445.566 437.136L448.968 435.729L449.161 436.195L447.306 438.651L450.364 439.106L450.541 439.533ZM450.469 442.767C450.641 443.196 450.681 443.561 450.588 443.861C450.496 444.162 450.275 444.385 449.925 444.529C449.563 444.679 449.235 444.674 448.941 444.512C448.647 444.351 448.41 444.045 448.229 443.595L447.679 442.247L451.081 440.84L451.271 441.299L450.081 441.791L450.469 442.767ZM452.451 444.152L452.641 444.611L449.238 446.018L449.048 445.559L452.451 444.152ZM448.567 443.425C448.693 443.741 448.854 443.953 449.049 444.059C449.25 444.167 449.478 444.169 449.733 444.064C449.983 443.96 450.135 443.804 450.19 443.594C450.245 443.385 450.208 443.12 450.081 442.799L449.738 441.933L448.224 442.559L448.567 443.425ZM455.123 450.615L451.72 452.022L449.779 447.326L453.181 445.919L453.371 446.378L450.37 447.619L451.06 449.288L454.061 448.047L454.251 448.507L451.249 449.748L451.931 451.397L454.933 450.156L455.123 450.615ZM456.861 454.818L452.347 454.692C451.971 454.686 451.678 454.62 451.47 454.494C451.261 454.369 451.104 454.178 450.999 453.924C450.931 453.76 450.894 453.596 450.887 453.433C450.88 453.269 450.907 453.114 450.967 452.968L451.398 453.039C451.297 453.283 451.297 453.526 451.396 453.767C451.461 453.923 451.558 454.036 451.689 454.108C451.822 454.185 452.011 454.228 452.257 454.237L452.649 454.249L455.416 451.325L455.614 451.804L453.252 454.28L456.673 454.366L456.861 454.818ZM458.244 458.164L454.841 459.571L454.651 459.111L457.646 457.873L456.972 456.243L456.113 456.545C455.391 456.803 454.814 456.946 454.381 456.974C453.948 457.001 453.663 456.849 453.525 456.517C453.488 456.426 453.46 456.309 453.441 456.165L453.849 456.035C453.864 456.119 453.877 456.177 453.89 456.207C453.963 456.384 454.1 456.484 454.301 456.507C454.503 456.529 454.73 456.506 454.984 456.436C455.238 456.367 455.568 456.261 455.974 456.118L457.214 455.673L458.244 458.164ZM458.171 461.397C458.344 461.825 458.383 462.19 458.291 462.491C458.198 462.792 457.977 463.015 457.628 463.159C457.265 463.309 456.937 463.303 456.643 463.142C456.349 462.981 456.112 462.675 455.931 462.225L455.381 460.876L458.784 459.47L458.974 459.929L457.783 460.421L458.171 461.397ZM460.153 462.782L460.343 463.241L456.94 464.648L456.75 464.189L460.153 462.782ZM456.269 462.054C456.395 462.371 456.556 462.582 456.751 462.688C456.953 462.797 457.181 462.799 457.435 462.693C457.685 462.59 457.838 462.434 457.892 462.224C457.947 462.015 457.911 461.749 457.783 461.429L457.44 460.563L455.927 461.189L456.269 462.054Z" fill="black"/>
<path d="M224.244 316.303L222.281 315.279L219.632 320.353L219.05 320.049L221.698 314.974L219.736 313.95L220.002 313.439L224.51 315.792L224.244 316.303ZM226.733 321.613L223.222 319.78C223.027 320.233 223.009 320.674 223.171 321.104C223.335 321.528 223.649 321.861 224.112 322.102C224.372 322.238 224.635 322.318 224.901 322.342C225.169 322.36 225.43 322.32 225.684 322.222L225.811 322.756C225.508 322.882 225.185 322.93 224.842 322.9C224.505 322.873 224.168 322.772 223.833 322.597C223.403 322.372 223.067 322.081 222.826 321.726C222.593 321.367 222.469 320.977 222.452 320.556C222.435 320.134 222.534 319.719 222.748 319.309C222.961 318.899 223.241 318.578 223.586 318.345C223.936 318.115 224.312 317.99 224.715 317.971C225.123 317.954 225.522 318.046 225.91 318.249C226.298 318.452 226.599 318.724 226.814 319.066C227.028 319.408 227.138 319.787 227.144 320.203C227.153 320.614 227.049 321.027 226.832 321.441L226.733 321.613ZM225.656 318.736C225.252 318.525 224.843 318.477 224.431 318.594C224.026 318.707 223.697 318.962 223.443 319.357L226.419 320.911C226.598 320.477 226.616 320.06 226.473 319.66C226.338 319.258 226.065 318.95 225.656 318.736ZM233.873 322.447L231.682 326.643L231.164 326.373L232.896 323.054L229.731 324.975L229.475 324.842L229.246 321.138L227.51 324.465L226.991 324.194L229.182 319.998L229.756 320.298L229.957 324.25L233.346 322.172L233.873 322.447ZM235.485 323.288L236.051 323.584L234.31 326.919L238.852 325.046L239.354 325.308L237.164 329.505L236.597 329.209L238.338 325.874L233.805 327.751L233.294 327.485L235.485 323.288ZM243.157 327.252C243.55 327.458 243.859 327.734 244.084 328.082C244.312 328.424 244.431 328.804 244.442 329.223C244.454 329.642 244.351 330.059 244.135 330.474C243.915 330.894 243.631 331.219 243.28 331.449C242.93 331.679 242.548 331.801 242.135 331.816C241.729 331.827 241.327 331.729 240.928 331.521C240.588 331.343 240.316 331.113 240.111 330.83C239.915 330.545 239.8 330.221 239.766 329.858L238.545 332.196L237.979 331.9L240.978 326.156L241.52 326.439L241.087 327.269C241.402 327.081 241.736 326.985 242.091 326.98C242.45 326.978 242.805 327.069 243.157 327.252ZM241.151 330.997C241.443 331.15 241.744 331.222 242.053 331.214C242.364 331.201 242.652 331.104 242.915 330.923C243.184 330.746 243.402 330.497 243.568 330.178C243.735 329.859 243.813 329.541 243.802 329.224C243.8 328.905 243.715 328.613 243.548 328.35C243.381 328.087 243.151 327.879 242.858 327.726C242.561 327.571 242.256 327.5 241.944 327.513C241.638 327.529 241.351 327.626 241.082 327.804C240.821 327.979 240.607 328.226 240.441 328.545C240.274 328.865 240.192 329.184 240.195 329.503C240.202 329.825 240.287 330.117 240.449 330.377C240.619 330.635 240.853 330.842 241.151 330.997ZM249.855 330.79L247.664 334.986L247.097 334.69L249.026 330.996L247.015 329.947L246.418 330.955C245.92 331.805 245.469 332.422 245.065 332.807C244.661 333.192 244.255 333.277 243.845 333.064C243.733 333.005 243.609 332.913 243.471 332.787L243.765 332.322C243.85 332.393 243.911 332.438 243.948 332.458C244.166 332.571 244.384 332.556 244.601 332.413C244.818 332.269 245.023 332.058 245.216 331.779C245.409 331.501 245.646 331.124 245.928 330.648L246.783 329.186L249.855 330.79ZM252.926 332.352C253.473 332.638 253.821 332.996 253.97 333.425C254.121 333.849 254.056 334.33 253.775 334.867L252.418 337.468L251.875 337.185L252.217 336.53C251.975 336.682 251.697 336.753 251.384 336.745C251.075 336.74 250.751 336.648 250.41 336.471C249.942 336.226 249.628 335.92 249.468 335.552C249.308 335.185 249.324 334.817 249.516 334.45C249.702 334.094 249.979 333.873 250.348 333.788C250.723 333.706 251.192 333.813 251.756 334.107L253.088 334.802L253.221 334.547C253.41 334.185 253.452 333.859 253.347 333.567C253.245 333.27 253 333.02 252.612 332.818C252.346 332.679 252.067 332.591 251.775 332.553C251.486 332.511 251.213 332.521 250.957 332.583L250.923 332.027C251.23 331.957 251.557 331.952 251.905 332.012C252.256 332.067 252.596 332.18 252.926 332.352ZM250.731 336.07C251.05 336.236 251.362 336.307 251.665 336.283C251.972 336.254 252.253 336.13 252.509 335.911L252.867 335.225L251.551 334.538C250.833 334.163 250.343 334.226 250.082 334.726C249.955 334.97 249.946 335.213 250.058 335.454C250.172 335.689 250.396 335.895 250.731 336.07ZM256.116 334.058L256.683 334.354L255.712 336.213L258.353 337.592L259.324 335.733L259.89 336.028L257.699 340.225L257.133 339.929L258.099 338.078L255.458 336.7L254.492 338.551L253.926 338.255L256.116 334.058ZM261.02 342.009C260.616 341.798 260.298 341.517 260.068 341.167C259.841 340.812 259.719 340.423 259.702 340.001C259.686 339.58 259.784 339.164 259.998 338.755C260.212 338.345 260.496 338.027 260.852 337.799C261.207 337.572 261.595 337.453 262.013 337.441C262.432 337.43 262.844 337.53 263.248 337.741C263.652 337.952 263.969 338.232 264.2 338.583C264.43 338.933 264.55 339.317 264.562 339.736C264.579 340.158 264.48 340.573 264.266 340.983C264.052 341.392 263.768 341.711 263.412 341.938C263.062 342.168 262.676 342.292 262.254 342.308C261.836 342.32 261.424 342.22 261.02 342.009ZM261.282 341.506C261.58 341.662 261.881 341.734 262.184 341.723C262.496 341.71 262.783 341.613 263.047 341.433C263.31 341.252 263.525 341.002 263.692 340.683C263.858 340.364 263.94 340.045 263.938 339.725C263.936 339.406 263.849 339.117 263.679 338.859C263.518 338.599 263.288 338.391 262.99 338.235C262.692 338.08 262.387 338.009 262.076 338.022C261.772 338.033 261.486 338.127 261.217 338.305C260.954 338.486 260.739 338.735 260.572 339.055C260.406 339.374 260.324 339.693 260.326 340.012C260.334 340.335 260.419 340.626 260.581 340.886C260.75 341.144 260.984 341.351 261.282 341.506ZM268.187 342.938C268.687 343.368 268.792 343.86 268.504 344.413C268.312 344.78 268.029 344.991 267.655 345.046C267.281 345.102 266.826 344.989 266.288 344.709L264.382 343.713L266.572 339.517L268.423 340.483C268.902 340.733 269.228 341.022 269.402 341.349C269.577 341.677 269.573 342.014 269.393 342.36C269.273 342.588 269.107 342.752 268.893 342.85C268.688 342.946 268.452 342.975 268.187 342.938ZM266.148 341.671L267.409 342.329C267.733 342.498 268.012 342.566 268.247 342.533C268.486 342.502 268.667 342.37 268.789 342.136C268.911 341.902 268.915 341.68 268.8 341.472C268.691 341.266 268.475 341.078 268.15 340.909L266.89 340.251L266.148 341.671ZM266.498 344.249C266.859 344.438 267.161 344.521 267.403 344.499C267.645 344.476 267.831 344.34 267.962 344.09C268.092 343.84 268.106 343.613 268.002 343.41C267.901 343.202 267.672 343.004 267.316 342.818L265.927 342.094L265.165 343.554L266.498 344.249ZM270.97 347.203C270.555 346.987 270.23 346.702 269.995 346.349C269.765 345.999 269.641 345.613 269.624 345.191C269.61 344.764 269.71 344.346 269.924 343.936C270.138 343.527 270.422 343.208 270.778 342.981C271.134 342.754 271.521 342.635 271.94 342.623C272.364 342.614 272.783 342.718 273.198 342.935C273.56 343.124 273.844 343.363 274.051 343.654C274.266 343.942 274.385 344.265 274.409 344.623L273.836 344.689C273.806 344.409 273.711 344.164 273.551 343.951C273.394 343.734 273.19 343.56 272.94 343.43C272.637 343.271 272.327 343.197 272.01 343.208C271.701 343.216 271.412 343.309 271.144 343.487C270.88 343.667 270.665 343.917 270.498 344.236C270.329 344.561 270.246 344.883 270.248 345.202C270.259 345.519 270.348 345.809 270.515 346.072C270.69 346.333 270.929 346.542 271.232 346.701C271.482 346.831 271.74 346.901 272.006 346.911C272.271 346.921 272.527 346.859 272.774 346.724L273.047 347.232C272.74 347.417 272.406 347.506 272.044 347.5C271.684 347.488 271.326 347.389 270.97 347.203ZM276.23 347.523L275.272 347.023L274.298 348.89L273.731 348.594L275.922 344.397L276.488 344.693L275.526 346.536L276.492 347.04L278.93 345.968L279.544 346.288L276.83 347.461L277.473 350.547L276.803 350.197L276.23 347.523ZM279.929 351.88C279.525 351.669 279.208 351.389 278.978 351.039C278.751 350.683 278.629 350.294 278.612 349.873C278.595 349.451 278.694 349.036 278.907 348.626C279.121 348.216 279.406 347.898 279.761 347.671C280.117 347.443 280.504 347.324 280.923 347.313C281.342 347.301 281.753 347.401 282.158 347.612C282.562 347.823 282.879 348.104 283.109 348.454C283.339 348.804 283.46 349.189 283.471 349.607C283.488 350.029 283.39 350.445 283.176 350.854C282.962 351.264 282.677 351.582 282.322 351.809C281.972 352.04 281.586 352.163 281.164 352.18C280.745 352.191 280.334 352.091 279.929 351.88ZM280.192 351.378C280.49 351.533 280.79 351.606 281.094 351.595C281.405 351.581 281.693 351.484 281.956 351.304C282.22 351.123 282.435 350.873 282.601 350.554C282.768 350.235 282.85 349.916 282.848 349.597C282.845 349.277 282.759 348.988 282.589 348.731C282.427 348.47 282.197 348.262 281.899 348.107C281.602 347.951 281.297 347.88 280.985 347.893C280.682 347.904 280.396 347.999 280.127 348.176C279.863 348.357 279.648 348.607 279.482 348.926C279.315 349.245 279.233 349.564 279.236 349.884C279.243 350.206 279.328 350.497 279.49 350.758C279.66 351.016 279.894 351.222 280.192 351.378ZM287.965 353.578L284.454 351.745C284.259 352.198 284.242 352.639 284.403 353.069C284.567 353.493 284.881 353.826 285.344 354.067C285.604 354.203 285.867 354.283 286.133 354.306C286.401 354.325 286.662 354.285 286.916 354.187L287.043 354.721C286.74 354.847 286.418 354.895 286.075 354.865C285.737 354.838 285.4 354.736 285.065 354.562C284.635 354.337 284.299 354.046 284.058 353.69C283.826 353.332 283.701 352.942 283.684 352.521C283.667 352.099 283.766 351.683 283.98 351.274C284.193 350.864 284.473 350.543 284.818 350.31C285.168 350.08 285.544 349.955 285.947 349.935C286.356 349.918 286.754 350.011 287.142 350.214C287.53 350.417 287.831 350.689 288.046 351.031C288.26 351.373 288.37 351.752 288.376 352.168C288.385 352.579 288.281 352.991 288.064 353.406L287.965 353.578ZM286.888 350.701C286.484 350.49 286.075 350.442 285.663 350.558C285.258 350.672 284.929 350.927 284.675 351.322L287.651 352.876C287.83 352.441 287.848 352.024 287.705 351.625C287.57 351.222 287.298 350.914 286.888 350.701ZM298.294 356.076L296.103 360.273L290.311 357.249L292.502 353.053L293.068 353.348L291.136 357.05L293.194 358.125L295.127 354.423L295.693 354.719L293.761 358.42L295.795 359.482L297.728 355.781L298.294 356.076ZM299.431 362.061C299.027 361.85 298.71 361.569 298.48 361.219C298.252 360.863 298.13 360.475 298.114 360.053C298.097 359.632 298.195 359.216 298.409 358.806C298.623 358.397 298.908 358.078 299.263 357.851C299.619 357.624 300.006 357.505 300.425 357.493C300.844 357.482 301.255 357.581 301.659 357.792C302.064 358.003 302.381 358.284 302.611 358.634C302.841 358.984 302.962 359.369 302.973 359.788C302.99 360.209 302.891 360.625 302.678 361.035C302.464 361.444 302.179 361.763 301.824 361.99C301.473 362.22 301.087 362.343 300.666 362.36C300.247 362.372 299.835 362.272 299.431 362.061ZM299.693 361.558C299.991 361.714 300.292 361.786 300.595 361.775C300.907 361.762 301.195 361.665 301.458 361.484C301.721 361.304 301.936 361.054 302.103 360.735C302.27 360.416 302.352 360.096 302.349 359.777C302.347 359.458 302.261 359.169 302.091 358.911C301.929 358.651 301.699 358.443 301.401 358.287C301.103 358.132 300.799 358.06 300.487 358.074C300.184 358.085 299.897 358.179 299.629 358.357C299.365 358.537 299.15 358.787 298.984 359.106C298.817 359.425 298.735 359.745 298.737 360.064C298.745 360.386 298.83 360.678 298.992 360.938C299.162 361.196 299.396 361.403 299.693 361.558ZM304.527 364.721C304.112 364.505 303.787 364.22 303.552 363.867C303.322 363.517 303.198 363.131 303.182 362.709C303.168 362.282 303.267 361.864 303.481 361.454C303.695 361.045 303.98 360.726 304.335 360.499C304.691 360.272 305.078 360.152 305.497 360.141C305.921 360.132 306.341 360.236 306.755 360.453C307.117 360.642 307.401 360.881 307.608 361.172C307.823 361.46 307.943 361.783 307.966 362.14L307.393 362.207C307.363 361.927 307.268 361.681 307.108 361.469C306.951 361.252 306.747 361.078 306.497 360.947C306.194 360.789 305.884 360.715 305.567 360.726C305.258 360.734 304.97 360.827 304.701 361.005C304.437 361.185 304.222 361.435 304.056 361.754C303.886 362.079 303.803 362.4 303.805 362.72C303.816 363.037 303.905 363.327 304.072 363.59C304.247 363.851 304.486 364.06 304.79 364.218C305.04 364.349 305.297 364.419 305.563 364.429C305.828 364.439 306.084 364.377 306.331 364.241L306.604 364.749C306.297 364.935 305.963 365.024 305.601 365.018C305.241 365.006 304.884 364.907 304.527 364.721ZM308.953 367.031C308.538 366.815 308.213 366.53 307.977 366.177C307.747 365.827 307.624 365.441 307.607 365.019C307.593 364.592 307.693 364.174 307.907 363.764C308.121 363.355 308.405 363.036 308.761 362.809C309.116 362.582 309.503 362.463 309.922 362.451C310.347 362.442 310.766 362.546 311.181 362.763C311.543 362.952 311.827 363.192 312.034 363.482C312.249 363.771 312.368 364.093 312.391 364.451L311.818 364.517C311.788 364.237 311.693 363.992 311.533 363.779C311.376 363.562 311.173 363.388 310.923 363.258C310.619 363.099 310.309 363.025 309.993 363.036C309.684 363.044 309.395 363.137 309.126 363.315C308.863 363.495 308.648 363.745 308.481 364.064C308.312 364.389 308.228 364.711 308.231 365.03C308.241 365.347 308.33 365.637 308.497 365.9C308.673 366.161 308.912 366.37 309.215 366.529C309.465 366.659 309.723 366.729 309.988 366.739C310.254 366.749 310.51 366.687 310.756 366.552L311.029 367.06C310.723 367.245 310.389 367.334 310.026 367.328C309.667 367.316 309.309 367.217 308.953 367.031ZM316.318 368.378L312.807 366.546C312.611 366.999 312.594 367.44 312.756 367.869C312.92 368.294 313.234 368.626 313.696 368.868C313.957 369.004 314.22 369.084 314.485 369.107C314.753 369.125 315.014 369.086 315.268 368.988L315.396 369.522C315.093 369.648 314.77 369.696 314.427 369.666C314.09 369.638 313.753 369.537 313.418 369.362C312.987 369.137 312.651 368.847 312.411 368.491C312.178 368.133 312.053 367.743 312.037 367.321C312.02 366.9 312.118 366.484 312.332 366.075C312.546 365.665 312.825 365.344 313.17 365.111C313.52 364.881 313.897 364.756 314.3 364.736C314.708 364.719 315.106 364.812 315.495 365.015C315.883 365.218 316.184 365.49 316.398 365.832C316.612 366.174 316.722 366.553 316.729 366.969C316.738 367.379 316.634 367.792 316.417 368.207L316.318 368.378ZM315.241 365.502C314.836 365.29 314.428 365.243 314.015 365.359C313.611 365.473 313.282 365.728 313.028 366.123L316.004 367.677C316.183 367.242 316.201 366.825 316.058 366.426C315.923 366.023 315.65 365.715 315.241 365.502Z" fill="black"/>
<path d="M257.154 452.79L254.309 451.508L253.082 452.596L252.52 452.342L257.156 448.289L257.688 448.529L257.72 454.687L257.151 454.43L257.154 452.79ZM257.154 452.264L257.165 448.969L254.704 451.159L257.154 452.264ZM260.127 455.816C259.748 455.645 259.445 455.409 259.218 455.107C258.996 454.808 258.866 454.472 258.83 454.099C258.796 453.721 258.863 453.345 259.032 452.97C259.201 452.596 259.437 452.299 259.741 452.079C260.045 451.859 260.382 451.733 260.753 451.702C261.129 451.672 261.507 451.743 261.886 451.914C262.217 452.063 262.481 452.261 262.68 452.509C262.885 452.754 263.008 453.034 263.047 453.35L262.542 453.438C262.501 453.192 262.404 452.978 262.251 452.798C262.1 452.613 261.911 452.469 261.682 452.366C261.405 452.241 261.126 452.192 260.846 452.217C260.572 452.24 260.321 452.337 260.091 452.509C259.867 452.682 259.688 452.915 259.557 453.207C259.423 453.504 259.366 453.793 259.384 454.077C259.41 454.357 259.503 454.61 259.665 454.835C259.834 455.058 260.057 455.231 260.334 455.356C260.563 455.459 260.795 455.509 261.031 455.504C261.267 455.499 261.491 455.431 261.703 455.298L261.971 455.735C261.709 455.915 261.417 456.011 261.095 456.024C260.775 456.032 260.453 455.963 260.127 455.816ZM264.811 455.83L263.936 455.436L263.166 457.142L262.648 456.909L264.378 453.073L264.896 453.306L264.136 454.991L265.019 455.389L267.127 454.312L267.689 454.566L265.341 455.745L266.069 458.451L265.456 458.175L264.811 455.83ZM269.878 455.517C270.378 455.743 270.705 456.043 270.859 456.416C271.015 456.784 270.982 457.214 270.76 457.705L269.688 460.083L269.192 459.859L269.462 459.261C269.255 459.408 269.013 459.486 268.734 459.495C268.46 459.505 268.167 459.441 267.856 459.301C267.428 459.108 267.134 458.852 266.973 458.534C266.812 458.216 266.807 457.889 266.959 457.553C267.106 457.228 267.341 457.018 267.664 456.924C267.992 456.832 268.414 456.902 268.929 457.134L270.147 457.683L270.252 457.45C270.401 457.119 270.422 456.827 270.314 456.574C270.208 456.316 269.978 456.106 269.623 455.946C269.38 455.837 269.128 455.773 268.867 455.755C268.608 455.732 268.367 455.754 268.143 455.823L268.083 455.331C268.352 455.254 268.643 455.232 268.955 455.268C269.268 455.298 269.576 455.381 269.878 455.517ZM268.12 458.928C268.412 459.06 268.692 459.107 268.96 459.07C269.231 459.028 269.474 458.904 269.69 458.697L269.973 458.07L268.769 457.527C268.113 457.231 267.682 457.312 267.476 457.769C267.375 457.993 267.38 458.208 267.491 458.416C267.604 458.62 267.814 458.79 268.12 458.928ZM274.786 457.73C275.146 457.892 275.434 458.122 275.651 458.419C275.871 458.711 275.996 459.042 276.028 459.413C276.059 459.784 275.99 460.16 275.819 460.539C275.645 460.923 275.409 461.226 275.11 461.448C274.811 461.67 274.479 461.798 274.112 461.832C273.753 461.863 273.391 461.796 273.027 461.632C272.715 461.492 272.462 461.301 272.266 461.061C272.077 460.818 271.959 460.536 271.91 460.216L270.947 462.353L270.429 462.119L272.796 456.868L273.292 457.092L272.95 457.85C273.22 457.668 273.512 457.565 273.826 457.543C274.145 457.523 274.465 457.585 274.786 457.73ZM273.197 461.156C273.465 461.277 273.735 461.325 274.009 461.303C274.285 461.275 274.535 461.174 274.759 461C274.989 460.829 275.169 460.597 275.301 460.305C275.432 460.014 275.485 459.728 275.46 459.447C275.441 459.164 275.351 458.909 275.189 458.684C275.028 458.459 274.813 458.286 274.546 458.166C274.273 458.043 273.999 457.996 273.723 458.023C273.453 458.053 273.202 458.154 272.973 458.326C272.75 458.494 272.574 458.725 272.442 459.016C272.31 459.308 272.254 459.596 272.272 459.879C272.296 460.165 272.386 460.419 272.543 460.642C272.707 460.862 272.925 461.033 273.197 461.156ZM277.633 463.709C277.263 463.542 276.967 463.309 276.745 463.01C276.525 462.706 276.397 462.368 276.361 461.994C276.324 461.621 276.39 461.247 276.559 460.873C276.728 460.498 276.964 460.201 277.268 459.981C277.572 459.762 277.91 459.636 278.281 459.604C278.652 459.573 279.022 459.64 279.392 459.807C279.761 459.973 280.057 460.206 280.279 460.505C280.501 460.804 280.628 461.139 280.66 461.51C280.696 461.884 280.63 462.258 280.461 462.632C280.292 463.006 280.056 463.303 279.752 463.523C279.453 463.745 279.117 463.875 278.743 463.911C278.372 463.943 278.002 463.875 277.633 463.709ZM277.84 463.249C278.112 463.372 278.382 463.421 278.651 463.396C278.927 463.368 279.177 463.267 279.402 463.093C279.626 462.92 279.804 462.687 279.936 462.395C280.067 462.104 280.124 461.816 280.105 461.533C280.087 461.249 279.996 460.998 279.832 460.777C279.675 460.555 279.46 460.382 279.188 460.259C278.916 460.136 278.642 460.089 278.366 460.117C278.097 460.142 277.848 460.24 277.618 460.411C277.394 460.585 277.216 460.818 277.084 461.11C276.953 461.401 276.896 461.689 276.915 461.972C276.938 462.258 277.028 462.512 277.185 462.735C277.349 462.955 277.567 463.126 277.84 463.249ZM284.04 464.167C284.506 464.523 284.625 464.954 284.397 465.46C284.245 465.795 284.005 465.997 283.676 466.065C283.347 466.133 282.937 466.056 282.446 465.835L280.703 465.049L282.432 461.213L284.124 461.976C284.562 462.173 284.866 462.413 285.038 462.695C285.209 462.977 285.223 463.276 285.081 463.592C284.986 463.801 284.847 463.954 284.662 464.052C284.485 464.148 284.277 464.186 284.04 464.167ZM282.166 463.146L283.319 463.666C283.615 463.8 283.866 463.846 284.072 463.804C284.283 463.764 284.437 463.638 284.533 463.424C284.63 463.21 284.622 463.013 284.51 462.834C284.402 462.657 284.2 462.501 283.904 462.368L282.752 461.848L282.166 463.146ZM282.608 465.417C282.939 465.566 283.211 465.624 283.424 465.592C283.638 465.559 283.796 465.429 283.899 465.2C284.002 464.972 284.002 464.77 283.9 464.595C283.8 464.415 283.587 464.252 283.261 464.105L281.992 463.533L281.39 464.868L282.608 465.417ZM288.203 463.779C288.703 464.005 289.031 464.305 289.184 464.678C289.34 465.047 289.307 465.477 289.085 465.968L288.013 468.345L287.517 468.122L287.787 467.524C287.58 467.67 287.338 467.748 287.059 467.757C286.785 467.768 286.492 467.703 286.181 467.563C285.753 467.37 285.459 467.114 285.298 466.796C285.137 466.478 285.133 466.151 285.284 465.816C285.431 465.49 285.666 465.28 285.989 465.186C286.317 465.094 286.739 465.164 287.254 465.397L288.472 465.946L288.577 465.712C288.726 465.382 288.747 465.09 288.639 464.836C288.533 464.578 288.303 464.369 287.948 464.209C287.705 464.099 287.453 464.035 287.192 464.017C286.933 463.994 286.692 464.017 286.468 464.085L286.408 463.594C286.678 463.516 286.968 463.495 287.28 463.53C287.594 463.56 287.901 463.644 288.203 463.779ZM286.445 467.191C286.737 467.322 287.017 467.369 287.285 467.332C287.556 467.29 287.799 467.166 288.015 466.959L288.298 466.332L287.094 465.79C286.438 465.494 286.007 465.574 285.801 466.031C285.7 466.255 285.705 466.471 285.816 466.679C285.929 466.882 286.139 467.052 286.445 467.191Z" fill="black"/>
<path d="M320.317 545.212L324.182 546.856L324.01 547.259L320.499 545.765L319.458 548.211L322.97 549.705L322.798 550.108L318.933 548.463L320.317 545.212ZM322.408 542.905C322.524 542.632 322.691 542.412 322.91 542.245C323.126 542.076 323.372 541.976 323.65 541.947C323.928 541.917 324.21 541.963 324.497 542.086C324.788 542.209 325.019 542.381 325.19 542.602C325.362 542.823 325.463 543.07 325.494 543.344C325.523 543.613 325.479 543.886 325.361 544.162C325.261 544.397 325.122 544.59 324.945 544.741C324.766 544.886 324.557 544.98 324.317 545.021L325.935 545.71L325.768 546.102L321.793 544.41L321.953 544.035L322.527 544.279C322.386 544.08 322.304 543.863 322.283 543.627C322.263 543.388 322.304 543.148 322.408 542.905ZM325.002 544.041C325.088 543.839 325.12 543.635 325.099 543.43C325.073 543.224 324.994 543.038 324.86 542.872C324.728 542.703 324.551 542.571 324.33 542.477C324.11 542.384 323.894 542.348 323.684 542.372C323.472 542.39 323.283 542.462 323.117 542.587C322.95 542.712 322.824 542.875 322.738 543.078C322.65 543.284 322.619 543.49 322.644 543.697C322.671 543.899 322.751 544.085 322.883 544.255C323.013 544.419 323.189 544.548 323.409 544.642C323.63 544.736 323.847 544.773 324.059 544.755C324.273 544.733 324.462 544.661 324.626 544.54C324.789 544.414 324.914 544.247 325.002 544.041ZM326.845 540.675C326.726 540.955 326.556 541.18 326.336 541.351C326.111 541.521 325.859 541.623 325.58 541.656C325.301 541.689 325.019 541.645 324.736 541.525C324.452 541.404 324.226 541.232 324.056 541.007C323.887 540.783 323.787 540.532 323.757 540.254C323.728 539.976 323.772 539.698 323.891 539.418C324.011 539.138 324.18 538.913 324.401 538.742C324.622 538.57 324.871 538.47 325.149 538.44C325.428 538.407 325.709 538.451 325.993 538.571C326.276 538.692 326.503 538.864 326.672 539.089C326.844 539.309 326.946 539.559 326.979 539.839C327.009 540.116 326.964 540.395 326.845 540.675ZM326.497 540.527C326.585 540.321 326.617 540.117 326.594 539.916C326.569 539.71 326.49 539.524 326.356 539.358C326.222 539.193 326.045 539.063 325.824 538.969C325.603 538.875 325.386 538.837 325.174 538.855C324.962 538.874 324.775 538.946 324.612 539.073C324.448 539.194 324.321 539.358 324.234 539.564C324.146 539.77 324.115 539.976 324.14 540.182C324.163 540.383 324.241 540.569 324.373 540.738C324.507 540.904 324.684 541.033 324.905 541.127C325.126 541.221 325.342 541.259 325.554 541.241C325.768 541.219 325.957 541.147 326.122 541.026C326.284 540.899 326.41 540.733 326.497 540.527ZM328.346 537.149C328.224 537.436 328.051 537.667 327.829 537.842C327.609 538.013 327.359 538.115 327.079 538.148C326.796 538.18 326.513 538.136 326.23 538.015C325.946 537.894 325.72 537.722 325.55 537.498C325.38 537.273 325.281 537.022 325.251 536.744C325.223 536.463 325.27 536.179 325.392 535.892C325.499 535.641 325.643 535.44 325.826 535.287C326.006 535.129 326.214 535.033 326.45 534.999L326.525 535.376C326.34 535.41 326.182 535.486 326.049 535.604C325.913 535.72 325.808 535.864 325.734 536.037C325.645 536.247 325.612 536.457 325.636 536.667C325.658 536.872 325.734 537.059 325.867 537.228C326.001 537.394 326.178 537.524 326.399 537.618C326.623 537.713 326.842 537.752 327.054 537.733C327.264 537.71 327.452 537.635 327.618 537.51C327.782 537.38 327.909 537.21 327.998 537.001C328.072 536.828 328.105 536.653 328.098 536.476C328.09 536.299 328.035 536.132 327.932 535.975L328.256 535.767C328.395 535.961 328.472 536.178 328.487 536.419C328.498 536.659 328.451 536.902 328.346 537.149ZM327.33 531.399L330.234 532.635L330.067 533.027L327.511 531.939L326.736 533.761L329.292 534.849L329.125 535.241L326.221 534.005L327.33 531.399ZM330.459 528.415L329.425 530.844C329.736 530.95 330.03 530.938 330.307 530.808C330.58 530.677 330.785 530.451 330.922 530.131C330.998 529.951 331.038 529.772 331.039 529.594C331.037 529.415 330.997 529.244 330.919 529.08L331.267 528.967C331.367 529.162 331.415 529.374 331.413 529.603C331.413 529.829 331.363 530.058 331.265 530.29C331.138 530.588 330.962 530.826 330.739 531.005C330.513 531.178 330.26 531.282 329.981 531.315C329.701 531.348 329.42 531.305 329.137 531.184C328.853 531.063 328.625 530.895 328.452 530.678C328.281 530.457 328.178 530.213 328.144 529.947C328.111 529.676 328.152 529.407 328.266 529.138C328.381 528.869 328.546 528.655 328.762 528.495C328.978 528.334 329.224 528.241 329.5 528.215C329.773 528.188 330.052 528.235 330.34 528.357L330.459 528.415ZM328.603 529.281C328.484 529.561 328.474 529.835 328.573 530.103C328.67 530.366 328.856 530.571 329.132 530.719L330.009 528.66C329.711 528.564 329.433 528.573 329.174 528.69C328.914 528.801 328.724 528.998 328.603 529.281ZM331.318 526.503L331.036 527.166L332.328 527.716L332.161 528.108L329.257 526.872L329.424 526.48L330.699 527.023L330.983 526.355L330.143 524.79L330.324 524.365L331.245 526.107L333.263 525.518L333.065 525.982L331.318 526.503ZM331.814 521.828L331.346 522.927L333.903 524.015L333.736 524.407L331.18 523.319L330.712 524.418L330.364 524.27L331.466 521.68L331.814 521.828ZM332.017 517.72C332.227 517.226 332.509 516.89 332.864 516.711C333.218 516.531 333.602 516.529 334.014 516.705C334.426 516.88 334.691 517.158 334.807 517.538C334.92 517.916 334.871 518.352 334.662 518.845L334.22 519.883L335.44 520.402L335.266 520.811L331.402 519.166L332.017 517.72ZM334.298 518.703C334.461 518.321 334.503 517.993 334.423 517.72C334.34 517.445 334.146 517.243 333.84 517.113C333.527 516.98 333.245 516.979 332.993 517.111C332.738 517.242 332.529 517.498 332.366 517.881L331.929 518.908L333.861 519.73L334.298 518.703ZM336.615 513.949L335.581 516.379C335.892 516.485 336.186 516.473 336.463 516.343C336.737 516.212 336.941 515.986 337.078 515.666C337.154 515.485 337.194 515.306 337.195 515.129C337.193 514.95 337.153 514.778 337.075 514.615L337.423 514.502C337.523 514.697 337.571 514.909 337.569 515.138C337.569 515.364 337.519 515.593 337.421 515.825C337.294 516.123 337.118 516.361 336.895 516.54C336.669 516.713 336.416 516.817 336.137 516.85C335.857 516.883 335.576 516.839 335.293 516.719C335.009 516.598 334.781 516.429 334.608 516.212C334.437 515.992 334.334 515.748 334.3 515.481C334.267 515.211 334.308 514.941 334.422 514.673C334.537 514.404 334.702 514.189 334.918 514.029C335.134 513.869 335.38 513.776 335.656 513.75C335.929 513.723 336.208 513.77 336.496 513.892L336.615 513.949ZM334.759 514.816C334.64 515.096 334.63 515.37 334.729 515.638C334.826 515.901 335.012 516.106 335.288 516.254L336.165 514.195C335.867 514.098 335.589 514.108 335.33 514.224C335.07 514.335 334.88 514.533 334.759 514.816ZM338.861 512.44C338.739 512.727 338.567 512.958 338.345 513.133C338.124 513.304 337.874 513.406 337.595 513.439C337.312 513.471 337.028 513.427 336.745 513.306C336.462 513.185 336.235 513.013 336.065 512.789C335.896 512.564 335.796 512.313 335.766 512.035C335.738 511.754 335.785 511.47 335.908 511.183C336.014 510.932 336.159 510.731 336.341 510.578C336.521 510.42 336.73 510.324 336.966 510.29L337.04 510.667C336.856 510.701 336.697 510.777 336.565 510.895C336.429 511.011 336.324 511.155 336.25 511.328C336.161 511.538 336.128 511.748 336.152 511.958C336.173 512.163 336.25 512.35 336.382 512.519C336.516 512.685 336.693 512.815 336.914 512.909C337.139 513.004 337.357 513.043 337.569 513.024C337.779 513.001 337.967 512.926 338.133 512.801C338.298 512.671 338.424 512.501 338.514 512.292C338.587 512.119 338.62 511.944 338.613 511.767C338.606 511.59 338.551 511.423 338.448 511.266L338.771 511.058C338.91 511.252 338.987 511.469 339.002 511.71C339.013 511.95 338.966 512.193 338.861 512.44ZM337.846 506.69L340.75 507.926L340.583 508.318L338.027 507.23L337.251 509.052L339.808 510.14L339.641 510.532L336.737 509.296L337.846 506.69ZM339.37 503.108L342.004 505.944C342.226 506.177 342.362 506.396 342.41 506.599C342.458 506.802 342.436 507.012 342.344 507.229C342.284 507.369 342.206 507.49 342.111 507.593C342.015 507.696 341.904 507.772 341.778 507.823L341.563 507.516C341.773 507.432 341.922 507.287 342.009 507.08C342.066 506.948 342.077 506.82 342.042 506.697C342.009 506.57 341.922 506.428 341.78 506.272L341.552 506.025L338.101 506.089L338.275 505.68L341.208 505.638L339.206 503.494L339.37 503.108ZM340.283 501.163C340.397 500.894 340.559 500.681 340.77 500.523C340.979 500.359 341.217 500.265 341.484 500.24C341.748 500.213 342.017 500.258 342.294 500.375C342.577 500.496 342.802 500.666 342.97 500.885C343.135 501.099 343.232 501.342 343.259 501.615C343.287 501.887 343.24 502.167 343.117 502.454C342.912 502.936 342.584 503.238 342.133 503.359C341.681 503.48 341.157 503.413 340.561 503.159C339.939 502.895 339.513 502.574 339.282 502.198C339.052 501.817 338.986 501.35 339.083 500.796L339.339 499.366L339.726 499.452L339.486 500.798C339.401 501.253 339.435 501.628 339.587 501.923C339.736 502.217 340.035 502.47 340.483 502.683C340.309 502.47 340.204 502.231 340.168 501.968C340.129 501.704 340.167 501.435 340.283 501.163ZM342.796 502.304C342.882 502.102 342.913 501.902 342.889 501.705C342.862 501.502 342.783 501.32 342.651 501.16C342.521 500.996 342.349 500.869 342.135 500.778C341.922 500.687 341.715 500.651 341.516 500.671C341.316 500.69 341.138 500.762 340.981 500.886C340.821 501.005 340.698 501.168 340.61 501.374C340.522 501.58 340.49 501.784 340.513 501.985C340.534 502.181 340.606 502.359 340.729 502.52C340.853 502.677 341.022 502.801 341.236 502.892C341.449 502.983 341.659 503.02 341.866 503.004C342.075 502.984 342.261 502.913 342.426 502.792C342.587 502.669 342.71 502.507 342.796 502.304ZM342.164 496.543L345.068 497.779L344.901 498.171L342.345 497.083L341.753 498.474L342.454 498.818C343.045 499.105 343.479 499.372 343.756 499.62C344.033 499.869 344.111 500.134 343.99 500.418C343.958 500.495 343.903 500.583 343.826 500.681L343.501 500.51C343.544 500.45 343.571 500.407 343.582 500.381C343.646 500.23 343.625 500.086 343.518 499.949C343.411 499.813 343.26 499.688 343.065 499.574C342.87 499.461 342.607 499.323 342.276 499.16L341.259 498.669L342.164 496.543ZM342.638 495.429L342.805 495.037L345.113 496.019L343.63 493.099L343.778 492.751L346.682 493.987L346.515 494.379L344.207 493.397L345.692 496.311L345.542 496.665L342.638 495.429ZM346.317 491.259L346.035 491.922L347.326 492.472L347.16 492.864L344.256 491.628L344.422 491.236L345.698 491.779L345.982 491.111L345.141 489.547L345.322 489.121L346.244 490.863L348.262 490.274L348.064 490.738L346.317 491.259ZM345.621 488.42L345.788 488.028L348.095 489.01L346.612 486.09L346.76 485.742L349.664 486.978L349.498 487.37L347.19 486.388L348.675 489.302L348.525 489.656L345.621 488.42Z" fill="black"/>
<path d="M364.159 396.237L365.122 399.154L364.763 399.272L363.937 396.771L362.633 397.202L363.063 398.506C363.219 398.977 363.24 399.366 363.126 399.674C363.014 399.984 362.774 400.201 362.405 400.322C362.022 400.449 361.684 400.413 361.391 400.215C361.099 400.021 360.872 399.676 360.709 399.183L360.171 397.553L364.159 396.237ZM361.043 399.066C361.165 399.434 361.326 399.689 361.528 399.828C361.732 399.972 361.972 399.998 362.249 399.906C362.523 399.816 362.695 399.656 362.767 399.426C362.843 399.198 362.819 398.897 362.695 398.521L362.297 397.313L360.644 397.858L361.043 399.066ZM363.744 403.764L362.916 401.257C362.612 401.382 362.399 401.585 362.277 401.866C362.158 402.145 362.154 402.45 362.263 402.78C362.324 402.966 362.413 403.127 362.529 403.261C362.649 403.394 362.792 403.496 362.959 403.568L362.772 403.882C362.568 403.802 362.392 403.675 362.242 403.501C362.093 403.331 361.979 403.127 361.9 402.887C361.799 402.58 361.773 402.285 361.823 402.003C361.878 401.724 362 401.479 362.188 401.27C362.375 401.06 362.615 400.907 362.908 400.811C363.2 400.714 363.483 400.69 363.756 400.739C364.031 400.792 364.269 400.907 364.471 401.085C364.674 401.266 364.821 401.496 364.913 401.773C365.004 402.05 365.022 402.32 364.965 402.583C364.909 402.846 364.785 403.078 364.595 403.28C364.409 403.481 364.167 403.63 363.871 403.728L363.744 403.764ZM364.565 401.888C364.47 401.599 364.296 401.386 364.045 401.25C363.799 401.117 363.523 401.086 363.218 401.157L363.92 403.282C364.207 403.158 364.409 402.967 364.527 402.709C364.649 402.454 364.662 402.18 364.565 401.888ZM365.665 404.129L365.799 404.533L363.417 405.319L366.459 406.533L366.577 406.892L363.58 407.881L363.447 407.477L365.828 406.691L362.788 405.483L362.668 405.118L365.665 404.129ZM366.548 405.347C366.462 405.089 366.459 404.863 366.538 404.668C366.617 404.474 366.774 404.336 367.008 404.254L367.104 404.545C366.957 404.597 366.855 404.69 366.798 404.823C366.744 404.954 366.744 405.101 366.798 405.265C366.852 405.428 366.94 405.547 367.061 405.62C367.187 405.697 367.325 405.712 367.474 405.667L367.57 405.958C367.334 406.032 367.125 406.012 366.944 405.899C366.765 405.79 366.633 405.606 366.548 405.347ZM367.365 409.529C367.457 409.806 367.476 410.074 367.422 410.331C367.373 410.592 367.257 410.82 367.073 411.015C366.893 411.21 366.66 411.354 366.375 411.448C366.083 411.544 365.801 411.566 365.531 411.512C365.265 411.46 365.032 411.341 364.832 411.155C364.631 410.968 364.482 410.727 364.384 410.431C364.22 409.933 364.267 409.49 364.526 409.101C364.785 408.712 365.223 408.416 365.838 408.213C366.48 408.001 367.012 407.96 367.434 408.091C367.857 408.225 368.216 408.532 368.509 409.012L369.261 410.255L368.913 410.446L368.205 409.277C367.968 408.879 367.695 408.62 367.385 408.498C367.08 408.376 366.688 408.383 366.211 408.52C366.483 408.565 366.719 408.674 366.92 408.848C367.124 409.021 367.273 409.248 367.365 409.529ZM364.724 410.331C364.793 410.54 364.902 410.711 365.051 410.843C365.205 410.977 365.384 411.061 365.589 411.095C365.795 411.132 366.008 411.114 366.228 411.041C366.449 410.969 366.627 410.859 366.764 410.713C366.901 410.566 366.988 410.395 367.024 410.197C367.065 410.003 367.05 409.799 366.98 409.586C366.91 409.374 366.8 409.199 366.65 409.064C366.504 408.93 366.333 408.844 366.134 408.804C365.937 408.768 365.728 408.786 365.508 408.859C365.288 408.932 365.105 409.043 364.961 409.192C364.817 409.344 364.724 409.52 364.68 409.72C364.64 409.919 364.655 410.122 364.724 410.331ZM368.2 411.807L368.333 412.212L365.952 412.998L368.993 414.211L369.112 414.57L366.115 415.56L365.981 415.155L368.363 414.369L365.323 413.161L365.203 412.796L368.2 411.807ZM369.832 417.956L369.457 416.822L366.819 417.693L366.686 417.289L369.324 416.418L368.949 415.284L369.308 415.166L370.19 417.838L369.832 417.956ZM371.749 422.559L368.752 423.548L367.387 419.412L370.384 418.423L370.517 418.827L367.873 419.7L368.359 421.17L371.002 420.297L371.136 420.702L368.492 421.574L368.972 423.027L371.616 422.155L371.749 422.559ZM372.13 423.714L372.264 424.119L369.882 424.905L372.924 426.119L373.043 426.477L370.046 427.467L369.912 427.062L372.294 426.276L369.254 425.068L369.133 424.703L372.13 423.714ZM374.234 430.087L371.237 431.076L371.104 430.672L373.741 429.801L373.268 428.365L372.514 428.57C371.881 428.745 371.378 428.831 371.006 428.827C370.635 428.823 370.4 428.675 370.304 428.383C370.277 428.303 370.261 428.201 370.253 428.077L370.61 427.991C370.618 428.064 370.626 428.114 370.635 428.141C370.686 428.297 370.797 428.391 370.968 428.423C371.138 428.455 371.334 428.449 371.556 428.405C371.777 428.362 372.066 428.292 372.422 428.195L373.51 427.893L374.234 430.087ZM374.614 431.237L374.747 431.641L372.366 432.427L375.407 433.641L375.526 434L372.529 434.989L372.395 434.585L374.777 433.799L371.737 432.591L371.617 432.226L374.614 431.237ZM374.604 436.797L374.378 436.113L373.045 436.553L372.912 436.149L375.908 435.159L376.042 435.564L374.726 435.998L374.953 436.688L376.618 437.307L376.762 437.746L374.92 437.046L373.794 438.821L373.636 438.342L374.604 436.797Z" fill="black"/>
<rect x="287.633" y="321" width="11.734" height="9.66133" transform="rotate(28.6494 287.633 321)" fill="#506369"/>
<g clip-path="url(#clip1_36_55)">
<path d="M300.617 309.374C299.841 308.972 299.219 308.275 298.934 307.378C298.366 305.586 299.362 303.664 301.155 303.095C302.023 302.82 302.947 302.899 303.756 303.318C304.565 303.738 305.162 304.447 305.438 305.316C306.006 307.109 305.01 309.03 303.217 309.599C302.321 309.883 301.392 309.776 300.617 309.374ZM303.134 304.517C302.666 304.274 302.104 304.21 301.563 304.382C300.479 304.725 299.877 305.887 300.22 306.971C300.387 307.495 300.748 307.924 301.237 308.178C301.726 308.431 302.285 308.479 302.809 308.313C303.893 307.969 304.495 306.807 304.151 305.724C303.98 305.182 303.603 304.76 303.134 304.517Z" fill="#506369"/>
<path d="M295.255 319.736L295.073 318.952C294.968 318.492 292.506 307.65 295.055 302.731C297.084 298.817 301.919 297.284 305.832 299.312C309.746 301.341 311.28 306.176 309.251 310.089C306.827 314.767 296.436 319.233 295.995 319.42L295.255 319.736ZM305.211 300.51C301.958 298.824 297.94 300.099 296.253 303.352C295.306 305.18 295.024 308.391 295.44 312.638C295.655 314.842 296.009 316.797 296.218 317.843C297.205 317.391 299.041 316.513 300.989 315.391C304.714 313.246 307.157 311.198 308.053 309.468C309.739 306.215 308.465 302.197 305.211 300.51V300.51Z" fill="#506369"/>
</g>
<g clip-path="url(#clip2_36_55)">
<path d="M279.883 266.522L285.079 269.334C287.635 270.718 289.571 269.845 290.734 267.746C291.711 265.992 291.528 263.527 289.098 262.211L283.776 259.33L282.645 258.718L283.227 257.641L289.68 261.135C292.865 262.859 293.208 266.079 291.958 268.437C290.651 270.903 287.914 272.205 284.708 270.47L286.76 279.041L285.272 278.236L283.291 269.786L279.289 267.619L276.2 273.325L275.069 272.713L278.752 265.909L279.883 266.522V266.522Z" fill="#506369"/>
<path d="M300.323 266.896L301.434 267.497L293.275 282.568L292.164 281.967L300.323 266.896Z" fill="#506369"/>
<path d="M322.35 288.549C320.53 291.963 320.83 296.412 324.999 298.669C329.189 300.938 333.1 298.768 334.942 295.366C336.83 291.878 336.471 287.536 332.26 285.256C328.049 282.976 324.252 284.986 322.35 288.549V288.549ZM336.02 295.977C333.854 299.927 329.34 302.412 324.416 299.746C319.493 297.081 319.095 291.91 321.251 287.927C323.442 283.879 327.898 281.503 332.843 284.18C337.787 286.856 338.243 291.919 336.02 295.977Z" fill="#506369"/>
<path d="M361.264 299.885L362.375 300.486L354.216 315.558L353.106 314.956L361.264 299.885Z" fill="#506369"/>
<path d="M306.846 281.089L308.065 271.059L306.85 270.401L305.675 280.455L306.846 281.089Z" fill="#506369"/>
<path d="M318.918 276.934L306.033 287.776L306.286 285.69L305.136 285.067L304.703 288.782L305.918 289.44L320.134 277.592L318.918 276.934Z" fill="#506369"/>
<path d="M347.355 292.356L346.224 291.743L341.749 300.011L342.88 300.624L347.355 292.356Z" fill="#506369"/>
<path d="M339.791 306.329L340.827 304.416L339.696 303.803L338.065 306.815L347.452 311.896L348.046 310.798L339.791 306.329Z" fill="#506369"/>
</g>
<path d="M417.656 279.4V285H417.072V279.912H413.528V285H412.944V279.4H417.656ZM420.858 280.76C421.407 280.76 421.828 280.899 422.122 281.176C422.415 281.448 422.562 281.853 422.562 282.392V285H422.018V284.344C421.89 284.563 421.7 284.733 421.45 284.856C421.204 284.979 420.911 285.04 420.57 285.04C420.1 285.04 419.727 284.928 419.45 284.704C419.172 284.48 419.034 284.184 419.034 283.816C419.034 283.459 419.162 283.171 419.418 282.952C419.679 282.733 420.092 282.624 420.658 282.624H421.994V282.368C421.994 282.005 421.892 281.731 421.69 281.544C421.487 281.352 421.191 281.256 420.802 281.256C420.535 281.256 420.279 281.301 420.034 281.392C419.788 281.477 419.578 281.597 419.402 281.752L419.146 281.328C419.359 281.147 419.615 281.008 419.914 280.912C420.212 280.811 420.527 280.76 420.858 280.76ZM420.658 284.592C420.978 284.592 421.252 284.52 421.482 284.376C421.711 284.227 421.882 284.013 421.994 283.736V283.048H420.674C419.954 283.048 419.594 283.299 419.594 283.8C419.594 284.045 419.687 284.24 419.874 284.384C420.06 284.523 420.322 284.592 420.658 284.592ZM426.242 280.76C426.636 280.76 426.994 280.851 427.314 281.032C427.634 281.208 427.884 281.459 428.066 281.784C428.247 282.109 428.338 282.48 428.338 282.896C428.338 283.317 428.247 283.691 428.066 284.016C427.884 284.341 427.634 284.595 427.314 284.776C426.999 284.952 426.642 285.04 426.242 285.04C425.9 285.04 425.591 284.971 425.314 284.832C425.042 284.688 424.818 284.48 424.642 284.208V286.552H424.074V280.792H424.618V281.624C424.788 281.347 425.012 281.133 425.29 280.984C425.572 280.835 425.89 280.76 426.242 280.76ZM426.202 284.536C426.495 284.536 426.762 284.469 427.002 284.336C427.242 284.197 427.428 284.003 427.562 283.752C427.7 283.501 427.77 283.216 427.77 282.896C427.77 282.576 427.7 282.293 427.562 282.048C427.428 281.797 427.242 281.603 427.002 281.464C426.762 281.325 426.495 281.256 426.202 281.256C425.903 281.256 425.634 281.325 425.394 281.464C425.159 281.603 424.972 281.797 424.834 282.048C424.7 282.293 424.634 282.576 424.634 282.896C424.634 283.216 424.7 283.501 424.834 283.752C424.972 284.003 425.159 284.197 425.394 284.336C425.634 284.469 425.903 284.536 426.202 284.536ZM431.086 283.128H430.126V285H429.558V280.792H430.126V282.64H431.094L432.574 280.792H433.19L431.534 282.832L433.31 285H432.638L431.086 283.128ZM436.3 280.792H436.868V284.136L439.676 280.792H440.18V285H439.612V281.656L436.812 285H436.3V280.792ZM446.512 280.792V285H445.992V281.672L444.288 284.488H444.032L442.328 281.664V285H441.808V280.792H442.384L444.168 283.824L445.984 280.792H446.512ZM448.168 285.04C448.051 285.04 447.95 284.997 447.864 284.912C447.784 284.827 447.744 284.723 447.744 284.6C447.744 284.477 447.784 284.376 447.864 284.296C447.95 284.211 448.051 284.168 448.168 284.168C448.286 284.168 448.387 284.211 448.472 284.296C448.558 284.376 448.6 284.477 448.6 284.6C448.6 284.723 448.558 284.827 448.472 284.912C448.387 284.997 448.286 285.04 448.168 285.04ZM455.637 283.504H452.517L451.845 285H451.229L453.789 279.4H454.373L456.933 285H456.309L455.637 283.504ZM455.421 283.024L454.077 280.016L452.733 283.024H455.421ZM459.832 280.896C460.222 280.896 460.568 280.984 460.872 281.16C461.182 281.331 461.422 281.573 461.592 281.888C461.763 282.197 461.848 282.552 461.848 282.952C461.848 283.363 461.758 283.728 461.576 284.048C461.4 284.363 461.152 284.608 460.832 284.784C460.512 284.96 460.144 285.048 459.728 285.048C459.03 285.048 458.488 284.803 458.104 284.312C457.72 283.821 457.528 283.144 457.528 282.28C457.528 281.379 457.699 280.688 458.04 280.208C458.387 279.728 458.926 279.403 459.656 279.232L461.544 278.8L461.64 279.32L459.864 279.728C459.262 279.861 458.819 280.099 458.536 280.44C458.254 280.776 458.099 281.275 458.072 281.936C458.243 281.611 458.48 281.357 458.784 281.176C459.088 280.989 459.438 280.896 459.832 280.896ZM459.744 284.576C460.038 284.576 460.299 284.509 460.528 284.376C460.763 284.237 460.944 284.045 461.072 283.8C461.206 283.555 461.272 283.277 461.272 282.968C461.272 282.659 461.208 282.387 461.08 282.152C460.952 281.917 460.771 281.736 460.536 281.608C460.307 281.475 460.043 281.408 459.744 281.408C459.446 281.408 459.179 281.475 458.944 281.608C458.715 281.736 458.534 281.917 458.4 282.152C458.272 282.387 458.208 282.659 458.208 282.968C458.208 283.277 458.272 283.555 458.4 283.8C458.534 284.045 458.718 284.237 458.952 284.376C459.187 284.509 459.451 284.576 459.744 284.576ZM464.49 280.76C465.04 280.76 465.461 280.899 465.754 281.176C466.048 281.448 466.194 281.853 466.194 282.392V285H465.65V284.344C465.522 284.563 465.333 284.733 465.082 284.856C464.837 284.979 464.544 285.04 464.202 285.04C463.733 285.04 463.36 284.928 463.082 284.704C462.805 284.48 462.666 284.184 462.666 283.816C462.666 283.459 462.794 283.171 463.05 282.952C463.312 282.733 463.725 282.624 464.29 282.624H465.626V282.368C465.626 282.005 465.525 281.731 465.322 281.544C465.12 281.352 464.824 281.256 464.434 281.256C464.168 281.256 463.912 281.301 463.666 281.392C463.421 281.477 463.21 281.597 463.034 281.752L462.778 281.328C462.992 281.147 463.248 281.008 463.546 280.912C463.845 280.811 464.16 280.76 464.49 280.76ZM464.29 284.592C464.61 284.592 464.885 284.52 465.114 284.376C465.344 284.227 465.514 284.013 465.626 283.736V283.048H464.306C463.586 283.048 463.226 283.299 463.226 283.8C463.226 284.045 463.32 284.24 463.506 284.384C463.693 284.523 463.954 284.592 464.29 284.592ZM470.938 280.792V285H470.418V283.608H469.098H468.938L467.962 285H467.346L468.394 283.528C468.069 283.437 467.818 283.283 467.642 283.064C467.466 282.845 467.378 282.568 467.378 282.232C467.378 281.763 467.538 281.405 467.858 281.16C468.178 280.915 468.616 280.792 469.17 280.792H470.938ZM467.954 282.248C467.954 282.872 468.352 283.184 469.146 283.184H470.418V281.296H469.186C468.365 281.296 467.954 281.613 467.954 282.248Z" fill="black"/>
</g>
<rect x="2.5" y="2.5" width="558" height="652" stroke="#506369" stroke-width="5"/>
<defs>
<clipPath id="clip0_36_55">
<rect width="563" height="657" fill="white"/>
</clipPath>
<clipPath id="clip1_36_55">
<rect width="23" height="23" fill="white" transform="translate(295.584 294) rotate(27.4005)"/>
</clipPath>
<clipPath id="clip2_36_55">
<rect width="90" height="30" fill="white" transform="translate(286.281 252) rotate(28.428)"/>
</clipPath>
</defs>
</svg>
