<svg width="23" height="23" viewBox="0 0 23 23" fill="none" xmlns="http://www.w3.org/2000/svg">
<g clip-path="url(#clip0_421_26)">
<path d="M20.0713 10.3485H19.3016C18.9177 10.3485 18.6053 10.0362 18.6053 9.65222V8.88257C18.6053 8.49862 18.9177 8.18628 19.3016 8.18628H20.0713C20.4552 8.18628 20.7676 8.49862 20.7676 8.88257V9.65222C20.7676 10.0362 20.4552 10.3485 20.0713 10.3485ZM20.0938 8.88252C20.0938 8.87013 20.0836 8.86006 20.0713 8.86006H19.3016C19.2892 8.86006 19.2791 8.87013 19.2791 8.88252V9.65217C19.2791 9.66457 19.2892 9.67463 19.3016 9.67463H20.0713C20.0836 9.67463 20.0938 9.66457 20.0938 9.65217V8.88252Z" fill="#506369"/>
<path d="M17.0947 10.3485H16.3251C15.9411 10.3485 15.6288 10.0362 15.6288 9.65222V8.88257C15.6288 8.49862 15.9411 8.18628 16.3251 8.18628H17.0947C17.4787 8.18628 17.791 8.49862 17.791 8.88257V9.65222C17.791 10.0362 17.4787 10.3485 17.0947 10.3485ZM17.1172 8.88252C17.1172 8.87013 17.1071 8.86006 17.0947 8.86006H16.3251C16.3127 8.86006 16.3026 8.87013 16.3026 8.88252V9.65217C16.3026 9.66457 16.3127 9.67463 16.3251 9.67463H17.0947C17.1071 9.67463 17.1172 9.66457 17.1172 9.65217V8.88252Z" fill="#506369"/>
<path d="M14.1162 10.3485H13.3466C12.9626 10.3485 12.6503 10.0362 12.6503 9.65222V8.88257C12.6503 8.49862 12.9626 8.18628 13.3466 8.18628H14.1162C14.5002 8.18628 14.8125 8.49862 14.8125 8.88257V9.65222C14.8125 10.0362 14.5002 10.3485 14.1162 10.3485ZM14.1387 8.88252C14.1387 8.87013 14.1286 8.86006 14.1162 8.86006H13.3466C13.3342 8.86006 13.3241 8.87013 13.3241 8.88252V9.65217C13.3241 9.66457 13.3342 9.67463 13.3466 9.67463H14.1162C14.1286 9.67463 14.1387 9.66457 14.1387 9.65217V8.88252Z" fill="#506369"/>
<path d="M10.37 10.3485C9.98606 10.3485 9.67371 10.0362 9.67371 9.65222V8.88257C9.67371 8.49862 9.98606 8.18628 10.37 8.18628H11.1396C11.5236 8.18628 11.8359 8.49862 11.8359 8.88257V9.65222C11.8359 10.0362 11.5236 10.3485 11.1396 10.3485H10.37ZM11.1621 9.65222V8.88257C11.1621 8.87017 11.152 8.86011 11.1396 8.86011H10.37C10.3576 8.86011 10.3475 8.87017 10.3475 8.88257V9.65222C10.3475 9.66461 10.3576 9.67468 10.37 9.67468H11.1396C11.152 9.67468 11.1621 9.66461 11.1621 9.65222Z" fill="#506369"/>
<path d="M7.39344 10.3485C7.00949 10.3485 6.69715 10.0362 6.69715 9.65222V8.88257C6.69715 8.49862 7.00949 8.18628 7.39344 8.18628H8.16309C8.54703 8.18628 8.85938 8.49862 8.85938 8.88257V9.65222C8.85938 10.0362 8.54703 10.3485 8.16309 10.3485H7.39344ZM8.18555 9.65222V8.88257C8.18555 8.87017 8.17544 8.86011 8.16309 8.86011H7.39344C7.38108 8.86011 7.37098 8.87017 7.37098 8.88257V9.65222C7.37098 9.66461 7.38108 9.67468 7.39344 9.67468H8.16309C8.17548 9.67468 8.18555 9.66461 8.18555 9.65222Z" fill="#506369"/>
<path d="M4.41688 10.3485C4.03293 10.3485 3.72059 10.0362 3.72059 9.65222V8.88257C3.72059 8.49862 4.03293 8.18628 4.41688 8.18628H5.18652C5.57047 8.18628 5.88281 8.49862 5.88281 8.88257V9.65222C5.88281 10.0362 5.57047 10.3485 5.18652 10.3485H4.41688ZM5.20899 9.65222V8.88257C5.20899 8.87017 5.19888 8.86011 5.18652 8.86011H4.41688C4.40453 8.86011 4.39442 8.87017 4.39442 8.88257V9.65222C4.39442 9.66461 4.40453 9.67468 4.41688 9.67468H5.18652C5.19888 9.67468 5.20899 9.66461 5.20899 9.65222Z" fill="#506369"/>
<path d="M20.7676 12.629C20.7676 13.013 20.4552 13.3253 20.0713 13.3253H19.3016C18.9177 13.3253 18.6053 13.013 18.6053 12.629V11.8594C18.6053 11.4754 18.9177 11.1631 19.3016 11.1631H20.0713C20.4552 11.1631 20.7676 11.4754 20.7676 11.8594V12.629ZM20.0938 11.8594C20.0938 11.847 20.0836 11.8369 20.0713 11.8369H19.3016C19.2892 11.8369 19.2791 11.847 19.2791 11.8594V12.629C19.2791 12.6414 19.2892 12.6515 19.3016 12.6515H20.0713C20.0836 12.6515 20.0938 12.6414 20.0938 12.629V11.8594Z" fill="#506369"/>
<path d="M17.791 12.629C17.791 13.013 17.4787 13.3253 17.0947 13.3253H16.3251C15.9411 13.3253 15.6288 13.013 15.6288 12.629V11.8594C15.6288 11.4754 15.9411 11.1631 16.3251 11.1631H17.0947C17.4787 11.1631 17.791 11.4754 17.791 11.8594V12.629ZM17.1172 11.8594C17.1172 11.847 17.1071 11.8369 17.0947 11.8369H16.3251C16.3127 11.8369 16.3026 11.847 16.3026 11.8594V12.629C16.3026 12.6414 16.3127 12.6515 16.3251 12.6515H17.0947C17.1071 12.6515 17.1172 12.6414 17.1172 12.629V11.8594Z" fill="#506369"/>
<path d="M14.8125 12.629C14.8125 13.013 14.5002 13.3253 14.1162 13.3253H13.3466C12.9626 13.3253 12.6503 13.013 12.6503 12.629V11.8594C12.6503 11.4754 12.9626 11.1631 13.3466 11.1631H14.1162C14.5002 11.1631 14.8125 11.4754 14.8125 11.8594V12.629ZM14.1387 11.8594C14.1387 11.847 14.1286 11.8369 14.1162 11.8369H13.3466C13.3342 11.8369 13.3241 11.847 13.3241 11.8594V12.629C13.3241 12.6414 13.3342 12.6515 13.3466 12.6515H14.1162C14.1286 12.6515 14.1387 12.6414 14.1387 12.629V11.8594Z" fill="#506369"/>
<path d="M20.7676 15.6058C20.7676 15.9898 20.4552 16.3021 20.0713 16.3021H19.3016C18.9177 16.3021 18.6053 15.9898 18.6053 15.6058V14.8362C18.6053 14.4522 18.9177 14.1399 19.3016 14.1399H20.0713C20.4552 14.1399 20.7676 14.4522 20.7676 14.8362V15.6058ZM20.0938 14.8362C20.0938 14.8238 20.0836 14.8137 20.0713 14.8137H19.3016C19.2892 14.8137 19.2791 14.8238 19.2791 14.8362V15.6058C19.2791 15.6182 19.2892 15.6283 19.3016 15.6283H20.0713C20.0836 15.6283 20.0938 15.6182 20.0938 15.6058V14.8362Z" fill="#506369"/>
<path d="M17.791 15.6058C17.791 15.9898 17.4787 16.3021 17.0947 16.3021H16.3251C15.9411 16.3021 15.6288 15.9898 15.6288 15.6058V14.8362C15.6288 14.4522 15.9411 14.1399 16.3251 14.1399H17.0947C17.4787 14.1399 17.791 14.4522 17.791 14.8362V15.6058ZM17.1172 14.8362C17.1172 14.8238 17.1071 14.8137 17.0947 14.8137H16.3251C16.3127 14.8137 16.3026 14.8238 16.3026 14.8362V15.6058C16.3026 15.6182 16.3127 15.6283 16.3251 15.6283H17.0947C17.1071 15.6283 17.1172 15.6182 17.1172 15.6058V14.8362Z" fill="#506369"/>
<path d="M14.8125 15.6058C14.8125 15.9898 14.5002 16.3021 14.1162 16.3021H13.3466C12.9626 16.3021 12.6503 15.9898 12.6503 15.6058V14.8362C12.6503 14.4522 12.9626 14.1399 13.3466 14.1399H14.1162C14.5002 14.1399 14.8125 14.4522 14.8125 14.8362V15.6058ZM14.1387 14.8362C14.1387 14.8238 14.1286 14.8137 14.1162 14.8137H13.3466C13.3342 14.8137 13.3241 14.8238 13.3241 14.8362V15.6058C13.3241 15.6182 13.3342 15.6283 13.3466 15.6283H14.1162C14.1286 15.6283 14.1387 15.6182 14.1387 15.6058V14.8362Z" fill="#506369"/>
<path d="M2.23122 13.1624V3.31371C2.23122 2.30723 3.05001 1.48844 4.05653 1.48844H6.69744V1.2672C6.69744 0.568441 7.26588 0 7.9646 0C8.66331 0 9.23175 0.568441 9.23175 1.26716V1.4884H15.2563V1.26716C15.2563 0.568441 15.8247 0 16.5234 0C17.2222 0 17.7906 0.568441 17.7906 1.26716V1.4884H20.4305C21.437 1.4884 22.2559 2.30723 22.2559 3.31366V8.59355C22.2559 8.77962 22.1051 8.93047 21.9189 8.93047C21.7328 8.93047 21.582 8.77962 21.582 8.59355V7.37168H2.90505V12.5118C3.92769 11.6695 5.2368 11.1631 6.662 11.1631C7.76128 11.1631 8.79129 11.4647 9.67428 11.989V11.8721C9.67428 11.4811 9.99233 11.1631 10.3833 11.1631H11.1275C11.5184 11.1631 11.8365 11.4811 11.8365 11.8721V12.6163C11.8365 12.9737 11.5704 13.2694 11.2261 13.3176C12.0718 14.3413 12.5805 15.6531 12.5805 17.0815C12.5805 17.0933 12.5801 17.1049 12.58 17.1167H20.4305C21.0655 17.1167 21.582 16.6002 21.582 15.9653V9.94121C21.582 9.75515 21.7328 9.6043 21.9189 9.6043C22.1051 9.6043 22.2559 9.75515 22.2559 9.94121V17.4537C22.2559 18.4601 21.4371 19.2789 20.4305 19.2789H19.6154C19.4293 19.2789 19.2785 19.1281 19.2785 18.942C19.2785 18.756 19.4293 18.6051 19.6154 18.6051H20.4305C21.0655 18.6051 21.582 18.0886 21.582 17.4537V17.3802C21.2677 17.6365 20.8668 17.7905 20.4305 17.7905H12.5378C12.5045 18.0684 12.4518 18.3404 12.3813 18.6052H18.2678C18.4539 18.6052 18.6047 18.756 18.6047 18.9421C18.6047 19.1281 18.4539 19.279 18.2678 19.279H12.1572C11.2829 21.4575 9.14932 23 6.662 23C3.39856 23 0.743542 20.345 0.743542 17.0815C0.743542 15.5797 1.3061 14.207 2.23122 13.1624ZM8.55793 1.26716C8.55793 0.93999 8.29176 0.673828 7.9646 0.673828C7.63743 0.673828 7.37127 0.93999 7.37127 1.26716V3.12769C7.37127 3.45485 7.63743 3.72106 7.9646 3.72106C8.29176 3.72106 8.55793 3.4549 8.55793 3.12769V1.26716ZM17.1168 1.26716C17.1168 0.93999 16.8506 0.673828 16.5234 0.673828C16.1963 0.673828 15.9301 0.93999 15.9301 1.26716V3.12769C15.9301 3.45485 16.1963 3.72106 16.5234 3.72106C16.8506 3.72106 17.1168 3.4549 17.1168 3.12769V1.26716ZM20.4305 2.16222H17.7906V2.97679H18.1979C18.384 2.97679 18.5348 3.12764 18.5348 3.31371C18.5348 3.49977 18.384 3.65062 18.1979 3.65062H17.6772C17.4777 4.08906 17.0357 4.39484 16.5234 4.39484C16.0111 4.39484 15.5692 4.0891 15.3697 3.65062H14.849C14.6629 3.65062 14.5121 3.49977 14.5121 3.31371C14.5121 3.12764 14.6629 2.97679 14.849 2.97679H15.2563V2.16222H9.23175V2.97679H9.63906C9.82517 2.97679 9.97597 3.12764 9.97597 3.31371C9.97597 3.49977 9.82517 3.65062 9.63906 3.65062H9.11833C8.91878 4.08906 8.47684 4.39484 7.9646 4.39484C7.45235 4.39484 7.01037 4.0891 6.81087 3.65062H6.29013C6.10402 3.65062 5.95322 3.49977 5.95322 3.31371C5.95322 3.12764 6.10402 2.97679 6.29013 2.97679H6.69744V2.16222H4.05653C3.4216 2.16222 2.90505 2.67878 2.90505 3.31366V5.20941H21.582V3.31371C21.582 2.67878 21.0654 2.16222 20.4305 2.16222ZM21.582 6.69785V5.88328H2.905V6.69785H21.582ZM11.1626 11.8721C11.1626 11.8527 11.1468 11.8369 11.1275 11.8369H10.3833C10.3639 11.8369 10.3481 11.8527 10.3481 11.8721V12.4547C10.4278 12.5183 10.5057 12.5839 10.582 12.6515H11.1275C11.1469 12.6515 11.1627 12.6357 11.1627 12.6163V11.8721H11.1626ZM6.662 22.3262C9.55389 22.3262 11.9066 19.9734 11.9066 17.0815C11.9066 14.1897 9.55389 11.8369 6.662 11.8369C3.77011 11.8369 1.41737 14.1897 1.41737 17.0815C1.41737 19.9734 3.77011 22.3262 6.662 22.3262Z" fill="#506369"/>
<path d="M6.66178 12.6515C9.1045 12.6515 11.0918 14.6388 11.0918 17.0816C11.0918 19.5243 9.1045 21.5116 6.66178 21.5116C4.21902 21.5116 2.23172 19.5243 2.23172 17.0816C2.23172 14.6388 4.21902 12.6515 6.66178 12.6515ZM6.66178 20.8378C8.73299 20.8378 10.418 19.1528 10.418 17.0816C10.418 15.0103 8.73295 13.3253 6.66178 13.3253C4.59061 13.3253 2.90555 15.0103 2.90555 17.0816C2.90555 19.1528 4.59057 20.8378 6.66178 20.8378Z" fill="#506369"/>
<path d="M4.80062 16.7446H5.63405C5.7411 16.4191 5.99868 16.1615 6.32419 16.0544V14.4768C6.32419 14.2907 6.47499 14.1399 6.6611 14.1399C6.84721 14.1399 6.99801 14.2907 6.99801 14.4768V16.0544C7.42962 16.1964 7.74219 16.603 7.74219 17.0815C7.74219 17.6777 7.25721 18.1626 6.6611 18.1626C6.18259 18.1626 5.77596 17.85 5.63405 17.4184H4.80062C4.6145 17.4184 4.4637 17.2676 4.4637 17.0815C4.4637 16.8954 4.6145 16.7446 4.80062 16.7446ZM6.66114 17.4888C6.88571 17.4888 7.06841 17.3061 7.06841 17.0815C7.06841 16.8569 6.88571 16.6742 6.66114 16.6742C6.43658 16.6742 6.25388 16.8569 6.25388 17.0815C6.25388 17.3061 6.43658 17.4888 6.66114 17.4888Z" fill="#506369"/>
</g>
<defs>
<clipPath id="clip0_421_26">
<rect width="23" height="23" fill="white" transform="matrix(-1 0 0 1 23 0)"/>
</clipPath>
</defs>
</svg>
