<svg width="28" height="28" viewBox="0 0 28 28" fill="none" xmlns="http://www.w3.org/2000/svg">
    <rect x="0.5" y="0.5" width="27" height="27" stroke="#506369"/>
    <path d="M19.6226 8.32349C18.1195 6.82605 16.12 6.00085 13.9919 6C11.8687 6 9.86597 6.82446 8.35303 8.32153C6.8374 9.82117 6.00195 11.8141 6 13.9259V13.9283V13.9298C6.00024 15.208 6.33606 16.4974 6.97351 17.6744L6.02185 22L10.3972 21.0048C11.5054 21.5632 12.7418 21.8577 13.9889 21.8582H13.9921C16.115 21.8582 18.1177 21.0336 19.6309 19.5364C21.1478 18.0355 21.9836 16.0452 21.9846 13.932C21.9852 11.8337 21.1465 9.84192 19.6226 8.32349ZM13.9919 20.6094H13.9891C12.8694 20.6089 11.7599 20.3278 10.7808 19.7961L10.5739 19.6838L7.66443 20.3456L8.29639 17.4735L8.17456 17.2634C7.56885 16.2189 7.24878 15.0658 7.24878 13.9285C7.2511 10.2472 10.2758 7.24878 13.9917 7.24878C15.7869 7.24951 17.4736 7.94543 18.7412 9.20813C20.028 10.4904 20.7363 12.1678 20.7357 13.9316C20.7343 17.6138 17.709 20.6094 13.9919 20.6094Z" fill="#506369"/>
    <path d="M11.8175 10.4331H11.4672C11.3452 10.4331 11.1472 10.4788 10.9797 10.661C10.8121 10.8434 10.3398 11.2842 10.3398 12.1807C10.3398 13.0771 10.995 13.9434 11.0863 14.0651C11.1777 14.1866 12.351 16.0851 14.2091 16.8154C15.7534 17.4224 16.0677 17.3016 16.4028 17.2712C16.738 17.241 17.4845 16.8306 17.6368 16.4052C17.7892 15.9797 17.7892 15.615 17.7435 15.5388C17.6978 15.4629 17.5758 15.4174 17.3931 15.3263C17.2102 15.2351 16.3142 14.7869 16.1466 14.726C15.979 14.6653 15.8572 14.6349 15.7352 14.8174C15.6133 14.9995 15.2543 15.4209 15.1476 15.5425C15.041 15.6642 14.9343 15.6794 14.7515 15.5883C14.5686 15.4968 13.9858 15.301 13.2875 14.6804C12.7439 14.1974 12.3667 13.5814 12.26 13.399C12.1534 13.2168 12.2487 13.1182 12.3403 13.0272C12.4225 12.9457 12.5334 12.8341 12.6249 12.7278C12.7162 12.6213 12.7422 12.5454 12.8032 12.4238C12.8641 12.3022 12.8336 12.1958 12.788 12.1047C12.7422 12.0135 12.3914 11.1125 12.2288 10.7522H12.2289C12.0919 10.4487 11.9478 10.4385 11.8175 10.4331Z" fill="#506369"/>
</svg>