<svg width="318" height="221" viewBox="0 0 318 221" fill="none" xmlns="http://www.w3.org/2000/svg">
<path d="M11.2236 189.886C11.2236 190.199 11.1895 190.471 11.1211 190.701C11.0545 190.929 10.9628 191.119 10.8461 191.269C10.7295 191.419 10.5911 191.53 10.4311 191.604C10.2728 191.677 10.1028 191.714 9.92113 191.714C9.7378 191.714 9.56697 191.677 9.40863 191.604C9.25197 191.53 9.1153 191.419 8.99863 191.269C8.88197 191.119 8.7903 190.929 8.72363 190.701C8.65697 190.471 8.62363 190.199 8.62363 189.886C8.62363 189.573 8.65697 189.301 8.72363 189.071C8.7903 188.841 8.88197 188.651 8.99863 188.501C9.1153 188.349 9.25197 188.237 9.40863 188.164C9.56697 188.09 9.7378 188.054 9.92113 188.054C10.1028 188.054 10.2728 188.09 10.4311 188.164C10.5911 188.237 10.7295 188.349 10.8461 188.501C10.9628 188.651 11.0545 188.841 11.1211 189.071C11.1895 189.301 11.2236 189.573 11.2236 189.886ZM10.7611 189.886C10.7611 189.613 10.7378 189.384 10.6911 189.199C10.6461 189.012 10.5845 188.862 10.5061 188.749C10.4295 188.635 10.3403 188.554 10.2386 188.506C10.137 188.456 10.0311 188.431 9.92113 188.431C9.81113 188.431 9.7053 188.456 9.60363 188.506C9.50197 188.554 9.4128 188.635 9.33613 188.749C9.25947 188.862 9.1978 189.012 9.15113 189.199C9.10613 189.384 9.08363 189.613 9.08363 189.886C9.08363 190.159 9.10613 190.389 9.15113 190.574C9.1978 190.759 9.25947 190.908 9.33613 191.021C9.4128 191.134 9.50197 191.216 9.60363 191.266C9.7053 191.314 9.81113 191.339 9.92113 191.339C10.0311 191.339 10.137 191.314 10.2386 191.266C10.3403 191.216 10.4295 191.134 10.5061 191.021C10.5845 190.908 10.6461 190.759 10.6911 190.574C10.7378 190.389 10.7611 190.159 10.7611 189.886Z" fill="white"/>
<path d="M23.6243 214.518V214.926H21.3203V214.518H22.2413V211.587C22.2413 211.499 22.2443 211.41 22.2503 211.32L21.4853 211.977C21.4593 211.999 21.4333 212.013 21.4073 212.019C21.3813 212.023 21.3573 212.023 21.3353 212.019C21.3133 212.015 21.2923 212.007 21.2723 211.995C21.2543 211.983 21.2403 211.97 21.2303 211.956L21.0623 211.725L22.3433 210.618H22.7783V214.518H23.6243Z" fill="white"/>
<path d="M64.2042 214.419C64.2622 214.419 64.3082 214.436 64.3422 214.47C64.3762 214.504 64.3932 214.548 64.3932 214.602V214.926H61.5252V214.743C61.5252 214.705 61.5332 214.666 61.5492 214.626C61.5652 214.586 61.5902 214.549 61.6242 214.515L63.0012 213.132C63.1152 213.016 63.2192 212.905 63.3132 212.799C63.4072 212.691 63.4872 212.583 63.5532 212.475C63.6192 212.367 63.6702 212.258 63.7062 212.148C63.7422 212.036 63.7602 211.917 63.7602 211.791C63.7602 211.665 63.7402 211.555 63.7002 211.461C63.6602 211.365 63.6052 211.286 63.5352 211.224C63.4672 211.162 63.3862 211.116 63.2922 211.086C63.1982 211.054 63.0972 211.038 62.9892 211.038C62.8792 211.038 62.7782 211.054 62.6862 211.086C62.5942 211.118 62.5122 211.163 62.4402 211.221C62.3702 211.277 62.3112 211.344 62.2632 211.422C62.2152 211.5 62.1812 211.586 62.1612 211.68C62.1372 211.75 62.1042 211.797 62.0622 211.821C62.0222 211.843 61.9652 211.849 61.8912 211.839L61.6122 211.791C61.6402 211.595 61.6942 211.422 61.7742 211.272C61.8562 211.12 61.9582 210.993 62.0802 210.891C62.2042 210.789 62.3452 210.712 62.5032 210.66C62.6612 210.606 62.8322 210.579 63.0162 210.579C63.1982 210.579 63.3682 210.606 63.5262 210.66C63.6842 210.714 63.8212 210.793 63.9372 210.897C64.0532 210.999 64.1442 211.124 64.2102 211.272C64.2762 211.42 64.3092 211.588 64.3092 211.776C64.3092 211.936 64.2852 212.085 64.2372 212.223C64.1892 212.359 64.1242 212.489 64.0422 212.613C63.9602 212.737 63.8652 212.858 63.7572 212.976C63.6512 213.094 63.5382 213.213 63.4182 213.333L62.2842 214.491C62.3642 214.469 62.4452 214.452 62.5272 214.44C62.6092 214.426 62.6882 214.419 62.7642 214.419H64.2042Z" fill="white"/>
<path d="M102.302 211.791C102.33 211.595 102.384 211.422 102.464 211.272C102.544 211.12 102.645 210.993 102.767 210.891C102.891 210.789 103.032 210.712 103.19 210.66C103.35 210.606 103.522 210.579 103.706 210.579C103.888 210.579 104.056 210.605 104.21 210.657C104.364 210.709 104.496 210.783 104.606 210.879C104.718 210.975 104.805 211.091 104.867 211.227C104.929 211.363 104.96 211.514 104.96 211.68C104.96 211.816 104.942 211.938 104.906 212.046C104.872 212.152 104.822 212.245 104.756 212.325C104.692 212.405 104.614 212.473 104.522 212.529C104.43 212.585 104.327 212.631 104.213 212.667C104.493 212.739 104.703 212.863 104.843 213.039C104.985 213.213 105.056 213.431 105.056 213.693C105.056 213.891 105.018 214.069 104.942 214.227C104.868 214.385 104.766 214.52 104.636 214.632C104.506 214.742 104.354 214.827 104.18 214.887C104.008 214.945 103.823 214.974 103.625 214.974C103.397 214.974 103.202 214.946 103.04 214.89C102.878 214.832 102.741 214.753 102.629 214.653C102.517 214.553 102.425 214.435 102.353 214.299C102.281 214.161 102.22 214.012 102.17 213.852L102.401 213.756C102.461 213.73 102.519 213.723 102.575 213.735C102.633 213.747 102.675 213.78 102.701 213.834C102.727 213.89 102.759 213.957 102.797 214.035C102.837 214.113 102.891 214.188 102.959 214.26C103.027 214.332 103.113 214.393 103.217 214.443C103.323 214.493 103.457 214.518 103.619 214.518C103.769 214.518 103.9 214.494 104.012 214.446C104.126 214.396 104.22 214.332 104.294 214.254C104.37 214.176 104.427 214.089 104.465 213.993C104.503 213.897 104.522 213.802 104.522 213.708C104.522 213.592 104.507 213.486 104.477 213.39C104.447 213.294 104.391 213.211 104.309 213.141C104.227 213.071 104.114 213.016 103.97 212.976C103.828 212.936 103.645 212.916 103.421 212.916V212.529C103.605 212.527 103.761 212.507 103.889 212.469C104.019 212.431 104.124 212.379 104.204 212.313C104.286 212.247 104.345 212.168 104.381 212.076C104.419 211.984 104.438 211.882 104.438 211.77C104.438 211.646 104.418 211.538 104.378 211.446C104.34 211.354 104.287 211.278 104.219 211.218C104.151 211.158 104.07 211.113 103.976 211.083C103.884 211.053 103.784 211.038 103.676 211.038C103.568 211.038 103.467 211.054 103.373 211.086C103.281 211.118 103.199 211.163 103.127 211.221C103.057 211.277 102.998 211.344 102.95 211.422C102.902 211.5 102.868 211.586 102.848 211.68C102.822 211.75 102.789 211.797 102.749 211.821C102.711 211.843 102.655 211.849 102.581 211.839L102.302 211.791Z" fill="white"/>
<path d="M144.773 213.375V211.602C144.773 211.55 144.775 211.493 144.779 211.431C144.783 211.369 144.789 211.306 144.797 211.242L143.231 213.375H144.773ZM145.892 213.375V213.681C145.892 213.713 145.882 213.74 145.862 213.762C145.844 213.784 145.815 213.795 145.775 213.795H145.241V214.926H144.773V213.795H142.865C142.825 213.795 142.79 213.784 142.76 213.762C142.732 213.738 142.714 213.709 142.706 213.675L142.652 213.402L144.743 210.627H145.241V213.375H145.892Z" fill="white"/>
<path d="M184.336 212.25C184.56 212.202 184.766 212.178 184.954 212.178C185.178 212.178 185.376 212.211 185.548 212.277C185.72 212.343 185.863 212.434 185.977 212.55C186.093 212.666 186.18 212.803 186.238 212.961C186.298 213.119 186.328 213.291 186.328 213.477C186.328 213.705 186.288 213.911 186.208 214.095C186.13 214.279 186.021 214.437 185.881 214.569C185.743 214.699 185.58 214.799 185.392 214.869C185.204 214.939 185.001 214.974 184.783 214.974C184.657 214.974 184.536 214.961 184.42 214.935C184.304 214.911 184.195 214.878 184.093 214.836C183.993 214.794 183.9 214.746 183.814 214.692C183.728 214.638 183.652 214.581 183.586 214.521L183.751 214.293C183.787 214.241 183.834 214.215 183.892 214.215C183.932 214.215 183.977 214.231 184.027 214.263C184.077 214.293 184.138 214.327 184.21 214.365C184.282 214.403 184.366 214.438 184.462 214.47C184.56 214.5 184.676 214.515 184.81 214.515C184.96 214.515 185.095 214.491 185.215 214.443C185.335 214.395 185.438 214.327 185.524 214.239C185.61 214.149 185.676 214.042 185.722 213.918C185.768 213.794 185.791 213.655 185.791 213.501C185.791 213.367 185.771 213.246 185.731 213.138C185.693 213.03 185.634 212.938 185.554 212.862C185.476 212.786 185.378 212.727 185.26 212.685C185.142 212.643 185.004 212.622 184.846 212.622C184.738 212.622 184.625 212.631 184.507 212.649C184.391 212.667 184.272 212.696 184.15 212.736L183.814 212.637L184.159 210.627H186.196V210.861C186.196 210.937 186.172 211 186.124 211.05C186.078 211.098 185.998 211.122 185.884 211.122H184.534L184.336 212.25Z" fill="white"/>
<path d="M225.657 214.53C225.801 214.53 225.931 214.507 226.047 214.461C226.165 214.415 226.265 214.351 226.347 214.269C226.431 214.187 226.495 214.09 226.539 213.978C226.585 213.866 226.608 213.744 226.608 213.612C226.608 213.472 226.586 213.346 226.542 213.234C226.498 213.12 226.435 213.024 226.353 212.946C226.273 212.866 226.177 212.805 226.065 212.763C225.953 212.721 225.83 212.7 225.696 212.7C225.552 212.7 225.422 212.725 225.306 212.775C225.19 212.823 225.091 212.889 225.009 212.973C224.929 213.055 224.867 213.151 224.823 213.261C224.781 213.369 224.76 213.482 224.76 213.6C224.76 213.738 224.78 213.864 224.82 213.978C224.86 214.092 224.918 214.19 224.994 214.272C225.072 214.354 225.166 214.418 225.276 214.464C225.388 214.508 225.515 214.53 225.657 214.53ZM225.345 212.238C225.307 212.286 225.27 212.333 225.234 212.379C225.2 212.423 225.167 212.467 225.135 212.511C225.237 212.441 225.349 212.387 225.471 212.349C225.593 212.311 225.726 212.292 225.87 212.292C226.044 212.292 226.208 212.321 226.362 212.379C226.516 212.435 226.65 212.518 226.764 212.628C226.88 212.736 226.972 212.87 227.04 213.03C227.108 213.188 227.142 213.369 227.142 213.573C227.142 213.771 227.106 213.955 227.034 214.125C226.962 214.295 226.861 214.443 226.731 214.569C226.603 214.695 226.448 214.794 226.266 214.866C226.086 214.938 225.887 214.974 225.669 214.974C225.453 214.974 225.257 214.94 225.081 214.872C224.905 214.802 224.755 214.704 224.631 214.578C224.509 214.45 224.414 214.296 224.346 214.116C224.28 213.934 224.247 213.731 224.247 213.507C224.247 213.319 224.288 213.119 224.37 212.907C224.454 212.693 224.587 212.465 224.769 212.223L225.861 210.756C225.889 210.72 225.927 210.69 225.975 210.666C226.025 210.64 226.082 210.627 226.146 210.627H226.62L225.345 212.238Z" fill="white"/>
<path d="M267.834 210.627V210.867C267.834 210.935 267.826 210.991 267.81 211.035C267.796 211.079 267.782 211.116 267.768 211.146L265.986 214.737C265.96 214.789 265.924 214.834 265.878 214.872C265.832 214.908 265.771 214.926 265.695 214.926H265.311L267.117 211.38C267.143 211.33 267.17 211.284 267.198 211.242C267.226 211.2 267.256 211.16 267.288 211.122H265.044C265.01 211.122 264.98 211.109 264.954 211.083C264.928 211.055 264.915 211.024 264.915 210.99V210.627H267.834Z" fill="white"/>
<path d="M306.159 214.548C306.299 214.548 306.424 214.529 306.534 214.491C306.646 214.451 306.74 214.396 306.816 214.326C306.894 214.254 306.953 214.169 306.993 214.071C307.035 213.971 307.056 213.861 307.056 213.741C307.056 213.593 307.031 213.467 306.981 213.363C306.933 213.257 306.867 213.171 306.783 213.105C306.701 213.039 306.606 212.991 306.498 212.961C306.39 212.929 306.277 212.913 306.159 212.913C306.041 212.913 305.928 212.929 305.82 212.961C305.712 212.991 305.616 213.039 305.532 213.105C305.45 213.171 305.384 213.257 305.334 213.363C305.286 213.467 305.262 213.593 305.262 213.741C305.262 213.861 305.282 213.971 305.322 214.071C305.364 214.169 305.423 214.254 305.499 214.326C305.577 214.396 305.671 214.451 305.781 214.491C305.893 214.529 306.019 214.548 306.159 214.548ZM306.159 210.993C306.031 210.993 305.918 211.012 305.82 211.05C305.724 211.088 305.643 211.14 305.577 211.206C305.513 211.272 305.464 211.349 305.43 211.437C305.398 211.525 305.382 211.619 305.382 211.719C305.382 211.817 305.396 211.912 305.424 212.004C305.452 212.096 305.497 212.178 305.559 212.25C305.621 212.32 305.701 212.377 305.799 212.421C305.899 212.463 306.019 212.484 306.159 212.484C306.299 212.484 306.418 212.463 306.516 212.421C306.616 212.377 306.697 212.32 306.759 212.25C306.821 212.178 306.866 212.096 306.894 212.004C306.922 211.912 306.936 211.817 306.936 211.719C306.936 211.619 306.919 211.525 306.885 211.437C306.853 211.349 306.804 211.272 306.738 211.206C306.674 211.14 306.593 211.088 306.495 211.05C306.399 211.012 306.287 210.993 306.159 210.993ZM306.774 212.685C307.042 212.761 307.248 212.888 307.392 213.066C307.536 213.244 307.608 213.472 307.608 213.75C307.608 213.938 307.572 214.108 307.5 214.26C307.43 214.41 307.331 214.538 307.203 214.644C307.077 214.75 306.925 214.832 306.747 214.89C306.569 214.946 306.373 214.974 306.159 214.974C305.945 214.974 305.749 214.946 305.571 214.89C305.393 214.832 305.24 214.75 305.112 214.644C304.984 214.538 304.885 214.41 304.815 214.26C304.745 214.108 304.71 213.938 304.71 213.75C304.71 213.472 304.782 213.244 304.926 213.066C305.07 212.888 305.276 212.761 305.544 212.685C305.318 212.601 305.147 212.476 305.031 212.31C304.917 212.142 304.86 211.942 304.86 211.71C304.86 211.552 304.891 211.404 304.953 211.266C305.015 211.128 305.103 211.008 305.217 210.906C305.331 210.804 305.467 210.724 305.625 210.666C305.785 210.608 305.963 210.579 306.159 210.579C306.353 210.579 306.53 210.608 306.69 210.666C306.85 210.724 306.987 210.804 307.101 210.906C307.215 211.008 307.303 211.128 307.365 211.266C307.427 211.404 307.458 211.552 307.458 211.71C307.458 211.942 307.4 212.142 307.284 212.31C307.17 212.476 307 212.601 306.774 212.685Z" fill="white"/>
<path d="M6.77938 172.859V173.199H4.85938V172.859H5.62688V170.416C5.62688 170.343 5.62938 170.269 5.63438 170.194L4.99688 170.741C4.97521 170.76 4.95354 170.771 4.93188 170.776C4.91021 170.78 4.89021 170.78 4.87188 170.776C4.85354 170.773 4.83604 170.766 4.81938 170.756C4.80438 170.746 4.79271 170.736 4.78438 170.724L4.64438 170.531L5.71188 169.609H6.07438V172.859H6.77938ZM9.88477 171.409C9.88477 171.722 9.8506 171.994 9.78227 172.224C9.7156 172.452 9.62393 172.641 9.50727 172.791C9.3906 172.941 9.25227 173.053 9.09227 173.126C8.93393 173.2 8.76393 173.236 8.58227 173.236C8.39893 173.236 8.2281 173.2 8.06977 173.126C7.9131 173.053 7.77643 172.941 7.65977 172.791C7.5431 172.641 7.45143 172.452 7.38477 172.224C7.3181 171.994 7.28477 171.722 7.28477 171.409C7.28477 171.096 7.3181 170.824 7.38477 170.594C7.45143 170.364 7.5431 170.174 7.65977 170.024C7.77643 169.872 7.9131 169.76 8.06977 169.686C8.2281 169.613 8.39893 169.576 8.58227 169.576C8.76393 169.576 8.93393 169.613 9.09227 169.686C9.25227 169.76 9.3906 169.872 9.50727 170.024C9.62393 170.174 9.7156 170.364 9.78227 170.594C9.8506 170.824 9.88477 171.096 9.88477 171.409ZM9.42227 171.409C9.42227 171.136 9.39893 170.906 9.35227 170.721C9.30727 170.535 9.2456 170.385 9.16727 170.271C9.0906 170.158 9.00143 170.077 8.89977 170.029C8.7981 169.979 8.69227 169.954 8.58227 169.954C8.47227 169.954 8.36643 169.979 8.26477 170.029C8.1631 170.077 8.07393 170.158 7.99727 170.271C7.9206 170.385 7.85893 170.535 7.81227 170.721C7.76727 170.906 7.74477 171.136 7.74477 171.409C7.74477 171.682 7.76727 171.911 7.81227 172.096C7.85893 172.281 7.9206 172.431 7.99727 172.544C8.07393 172.657 8.1631 172.739 8.26477 172.789C8.36643 172.837 8.47227 172.861 8.58227 172.861C8.69227 172.861 8.7981 172.837 8.89977 172.789C9.00143 172.739 9.0906 172.657 9.16727 172.544C9.2456 172.431 9.30727 172.281 9.35227 172.096C9.39893 171.911 9.42227 171.682 9.42227 171.409Z" fill="white"/>
<path d="M6.70188 154.301C6.75021 154.301 6.78854 154.315 6.81687 154.343C6.84521 154.372 6.85938 154.408 6.85938 154.453V154.723H4.46938V154.571C4.46938 154.539 4.47604 154.507 4.48938 154.473C4.50271 154.44 4.52354 154.409 4.55188 154.381L5.69938 153.228C5.79438 153.132 5.88104 153.039 5.95938 152.951C6.03771 152.861 6.10438 152.771 6.15938 152.681C6.21438 152.591 6.25688 152.5 6.28688 152.408C6.31688 152.315 6.33188 152.216 6.33188 152.111C6.33188 152.006 6.31521 151.914 6.28188 151.836C6.24854 151.756 6.20271 151.69 6.14438 151.638C6.08771 151.587 6.02021 151.548 5.94188 151.523C5.86354 151.497 5.77938 151.483 5.68938 151.483C5.59771 151.483 5.51354 151.497 5.43688 151.523C5.36021 151.55 5.29188 151.587 5.23188 151.636C5.17354 151.682 5.12438 151.738 5.08438 151.803C5.04438 151.868 5.01604 151.94 4.99938 152.018C4.97938 152.077 4.95188 152.116 4.91688 152.136C4.88354 152.154 4.83604 152.159 4.77438 152.151L4.54188 152.111C4.56521 151.947 4.61021 151.803 4.67688 151.678C4.74521 151.552 4.83021 151.446 4.93188 151.361C5.03521 151.276 5.15271 151.212 5.28438 151.168C5.41604 151.123 5.55854 151.101 5.71188 151.101C5.86354 151.101 6.00521 151.123 6.13688 151.168C6.26854 151.213 6.38271 151.279 6.47938 151.366C6.57604 151.451 6.65188 151.555 6.70688 151.678C6.76188 151.802 6.78938 151.942 6.78938 152.098C6.78938 152.232 6.76938 152.356 6.72938 152.471C6.68938 152.584 6.63521 152.692 6.56688 152.796C6.49854 152.899 6.41938 153 6.32938 153.098C6.24104 153.197 6.14688 153.296 6.04688 153.396L5.10188 154.361C5.16854 154.342 5.23604 154.328 5.30438 154.318C5.37271 154.307 5.43854 154.301 5.50188 154.301H6.70188ZM9.88477 152.933C9.88477 153.247 9.8506 153.518 9.78227 153.748C9.7156 153.977 9.62393 154.166 9.50727 154.316C9.3906 154.466 9.25227 154.577 9.09227 154.651C8.93393 154.724 8.76393 154.761 8.58227 154.761C8.39893 154.761 8.2281 154.724 8.06977 154.651C7.9131 154.577 7.77643 154.466 7.65977 154.316C7.5431 154.166 7.45143 153.977 7.38477 153.748C7.3181 153.518 7.28477 153.247 7.28477 152.933C7.28477 152.62 7.3181 152.348 7.38477 152.118C7.45143 151.888 7.5431 151.698 7.65977 151.548C7.77643 151.397 7.9131 151.284 8.06977 151.211C8.2281 151.137 8.39893 151.101 8.58227 151.101C8.76393 151.101 8.93393 151.137 9.09227 151.211C9.25227 151.284 9.3906 151.397 9.50727 151.548C9.62393 151.698 9.7156 151.888 9.78227 152.118C9.8506 152.348 9.88477 152.62 9.88477 152.933ZM9.42227 152.933C9.42227 152.66 9.39893 152.431 9.35227 152.246C9.30727 152.059 9.2456 151.909 9.16727 151.796C9.0906 151.682 9.00143 151.602 8.89977 151.553C8.7981 151.503 8.69227 151.478 8.58227 151.478C8.47227 151.478 8.36643 151.503 8.26477 151.553C8.1631 151.602 8.07393 151.682 7.99727 151.796C7.9206 151.909 7.85893 152.059 7.81227 152.246C7.76727 152.431 7.74477 152.66 7.74477 152.933C7.74477 153.207 7.76727 153.436 7.81227 153.621C7.85893 153.806 7.9206 153.955 7.99727 154.068C8.07393 154.182 8.1631 154.263 8.26477 154.313C8.36643 154.362 8.47227 154.386 8.58227 154.386C8.69227 154.386 8.7981 154.362 8.89977 154.313C9.00143 154.263 9.0906 154.182 9.16727 154.068C9.2456 153.955 9.30727 153.806 9.35227 153.621C9.39893 153.436 9.42227 153.207 9.42227 152.933Z" fill="white"/>
<path d="M4.55938 133.633C4.58271 133.47 4.62771 133.326 4.69438 133.201C4.76104 133.074 4.84521 132.968 4.94688 132.883C5.05021 132.798 5.16771 132.734 5.29938 132.691C5.43271 132.646 5.57604 132.623 5.72938 132.623C5.88104 132.623 6.02104 132.645 6.14938 132.688C6.27771 132.732 6.38771 132.793 6.47938 132.873C6.57271 132.953 6.64521 133.05 6.69688 133.163C6.74854 133.277 6.77438 133.403 6.77438 133.541C6.77438 133.654 6.75938 133.756 6.72938 133.846C6.70104 133.934 6.65938 134.012 6.60438 134.078C6.55104 134.145 6.48604 134.202 6.40938 134.248C6.33271 134.295 6.24688 134.333 6.15188 134.363C6.38521 134.423 6.56021 134.527 6.67688 134.673C6.79521 134.818 6.85438 135 6.85438 135.218C6.85438 135.383 6.82271 135.532 6.75937 135.663C6.69771 135.795 6.61271 135.908 6.50438 136.001C6.39604 136.093 6.26938 136.163 6.12438 136.213C5.98104 136.262 5.82688 136.286 5.66188 136.286C5.47188 136.286 5.30938 136.263 5.17438 136.216C5.03938 136.168 4.92521 136.102 4.83188 136.018C4.73854 135.935 4.66188 135.837 4.60187 135.723C4.54188 135.608 4.49104 135.484 4.44938 135.351L4.64188 135.271C4.69188 135.249 4.74021 135.243 4.78688 135.253C4.83521 135.263 4.87021 135.291 4.89188 135.336C4.91354 135.383 4.94021 135.438 4.97188 135.503C5.00521 135.568 5.05021 135.631 5.10688 135.691C5.16354 135.751 5.23521 135.802 5.32188 135.843C5.41021 135.885 5.52188 135.906 5.65688 135.906C5.78188 135.906 5.89104 135.886 5.98438 135.846C6.07938 135.804 6.15771 135.751 6.21938 135.686C6.28271 135.621 6.33021 135.548 6.36188 135.468C6.39354 135.388 6.40938 135.309 6.40938 135.231C6.40938 135.134 6.39688 135.046 6.37188 134.966C6.34688 134.886 6.30021 134.817 6.23188 134.758C6.16354 134.7 6.06938 134.654 5.94938 134.621C5.83104 134.588 5.67854 134.571 5.49188 134.571V134.248C5.64521 134.247 5.77521 134.23 5.88188 134.198C5.99021 134.167 6.07771 134.123 6.14438 134.068C6.21271 134.013 6.26188 133.948 6.29188 133.871C6.32354 133.794 6.33938 133.709 6.33938 133.616C6.33938 133.513 6.32271 133.423 6.28938 133.346C6.25771 133.269 6.21354 133.206 6.15688 133.156C6.10021 133.106 6.03271 133.068 5.95438 133.043C5.87771 133.018 5.79438 133.006 5.70437 133.006C5.61438 133.006 5.53021 133.019 5.45188 133.046C5.37521 133.073 5.30688 133.11 5.24688 133.158C5.18854 133.205 5.13938 133.261 5.09938 133.326C5.05938 133.391 5.03104 133.463 5.01438 133.541C4.99271 133.599 4.96521 133.638 4.93188 133.658C4.90021 133.677 4.85354 133.682 4.79188 133.673L4.55938 133.633ZM9.88477 134.456C9.88477 134.769 9.8506 135.041 9.78227 135.271C9.7156 135.499 9.62393 135.688 9.50727 135.838C9.3906 135.988 9.25227 136.1 9.09227 136.173C8.93393 136.247 8.76393 136.283 8.58227 136.283C8.39893 136.283 8.2281 136.247 8.06977 136.173C7.9131 136.1 7.77643 135.988 7.65977 135.838C7.5431 135.688 7.45143 135.499 7.38477 135.271C7.3181 135.041 7.28477 134.769 7.28477 134.456C7.28477 134.143 7.3181 133.871 7.38477 133.641C7.45143 133.411 7.5431 133.221 7.65977 133.071C7.77643 132.919 7.9131 132.807 8.06977 132.733C8.2281 132.66 8.39893 132.623 8.58227 132.623C8.76393 132.623 8.93393 132.66 9.09227 132.733C9.25227 132.807 9.3906 132.919 9.50727 133.071C9.62393 133.221 9.7156 133.411 9.78227 133.641C9.8506 133.871 9.88477 134.143 9.88477 134.456ZM9.42227 134.456C9.42227 134.183 9.39893 133.953 9.35227 133.768C9.30727 133.582 9.2456 133.432 9.16727 133.318C9.0906 133.205 9.00143 133.124 8.89977 133.076C8.7981 133.026 8.69227 133.001 8.58227 133.001C8.47227 133.001 8.36643 133.026 8.26477 133.076C8.1631 133.124 8.07393 133.205 7.99727 133.318C7.9206 133.432 7.85893 133.582 7.81227 133.768C7.76727 133.953 7.74477 134.183 7.74477 134.456C7.74477 134.729 7.76727 134.958 7.81227 135.143C7.85893 135.328 7.9206 135.478 7.99727 135.591C8.07393 135.704 8.1631 135.786 8.26477 135.836C8.36643 135.884 8.47227 135.908 8.58227 135.908C8.69227 135.908 8.7981 135.884 8.89977 135.836C9.00143 135.786 9.0906 135.704 9.16727 135.591C9.2456 135.478 9.30727 135.328 9.35227 135.143C9.39893 134.958 9.42227 134.729 9.42227 134.456Z" fill="white"/>
<path d="M6.05938 116.475V114.997C6.05938 114.954 6.06104 114.906 6.06438 114.855C6.06771 114.803 6.07271 114.75 6.07938 114.697L4.77438 116.475H6.05938ZM6.99188 116.475V116.73C6.99188 116.756 6.98354 116.779 6.96688 116.797C6.95188 116.815 6.92771 116.825 6.89438 116.825H6.44938V117.767H6.05938V116.825H4.46938C4.43604 116.825 4.40688 116.815 4.38188 116.797C4.35854 116.777 4.34354 116.753 4.33688 116.725L4.29188 116.497L6.03438 114.185H6.44938V116.475H6.99188ZM9.88477 115.977C9.88477 116.29 9.8506 116.562 9.78227 116.792C9.7156 117.02 9.62393 117.21 9.50727 117.36C9.3906 117.51 9.25227 117.621 9.09227 117.695C8.93393 117.768 8.76393 117.805 8.58227 117.805C8.39893 117.805 8.2281 117.768 8.06977 117.695C7.9131 117.621 7.77643 117.51 7.65977 117.36C7.5431 117.21 7.45143 117.02 7.38477 116.792C7.3181 116.562 7.28477 116.29 7.28477 115.977C7.28477 115.664 7.3181 115.392 7.38477 115.162C7.45143 114.932 7.5431 114.742 7.65977 114.592C7.77643 114.44 7.9131 114.328 8.06977 114.255C8.2281 114.181 8.39893 114.145 8.58227 114.145C8.76393 114.145 8.93393 114.181 9.09227 114.255C9.25227 114.328 9.3906 114.44 9.50727 114.592C9.62393 114.742 9.7156 114.932 9.78227 115.162C9.8506 115.392 9.88477 115.664 9.88477 115.977ZM9.42227 115.977C9.42227 115.704 9.39893 115.475 9.35227 115.29C9.30727 115.103 9.2456 114.953 9.16727 114.84C9.0906 114.726 9.00143 114.645 8.89977 114.597C8.7981 114.547 8.69227 114.522 8.58227 114.522C8.47227 114.522 8.36643 114.547 8.26477 114.597C8.1631 114.645 8.07393 114.726 7.99727 114.84C7.9206 114.953 7.85893 115.103 7.81227 115.29C7.76727 115.475 7.74477 115.704 7.74477 115.977C7.74477 116.25 7.76727 116.48 7.81227 116.665C7.85893 116.85 7.9206 116.999 7.99727 117.112C8.07393 117.225 8.1631 117.307 8.26477 117.357C8.36643 117.405 8.47227 117.43 8.58227 117.43C8.69227 117.43 8.7981 117.405 8.89977 117.357C9.00143 117.307 9.0906 117.225 9.16727 117.112C9.2456 116.999 9.30727 116.85 9.35227 116.665C9.39893 116.48 9.42227 116.25 9.42227 115.977Z" fill="white"/>
<path d="M5.13938 97.0615C5.32604 97.0215 5.49771 97.0015 5.65438 97.0015C5.84104 97.0015 6.00604 97.029 6.14938 97.084C6.29271 97.139 6.41188 97.2149 6.50688 97.3115C6.60354 97.4082 6.67604 97.5224 6.72438 97.654C6.77438 97.7857 6.79938 97.929 6.79938 98.084C6.79938 98.274 6.76604 98.4457 6.69938 98.599C6.63438 98.7524 6.54354 98.884 6.42688 98.994C6.31188 99.1024 6.17604 99.1857 6.01938 99.244C5.86271 99.3024 5.69354 99.3315 5.51188 99.3315C5.40688 99.3315 5.30604 99.3207 5.20938 99.299C5.11271 99.279 5.02188 99.2515 4.93688 99.2165C4.85354 99.1815 4.77604 99.1415 4.70438 99.0965C4.63271 99.0515 4.56938 99.004 4.51438 98.954L4.65188 98.764C4.68188 98.7207 4.72104 98.699 4.76938 98.699C4.80271 98.699 4.84021 98.7124 4.88188 98.739C4.92354 98.764 4.97438 98.7924 5.03438 98.824C5.09438 98.8557 5.16438 98.8849 5.24438 98.9115C5.32604 98.9365 5.42271 98.949 5.53438 98.949C5.65938 98.949 5.77188 98.929 5.87188 98.889C5.97188 98.849 6.05771 98.7924 6.12938 98.719C6.20104 98.644 6.25604 98.5549 6.29438 98.4515C6.33271 98.3482 6.35188 98.2324 6.35188 98.104C6.35188 97.9924 6.33521 97.8915 6.30188 97.8015C6.27021 97.7115 6.22104 97.6349 6.15438 97.5715C6.08938 97.5082 6.00771 97.459 5.90938 97.424C5.81104 97.389 5.69604 97.3715 5.56438 97.3715C5.47438 97.3715 5.38021 97.379 5.28188 97.394C5.18521 97.409 5.08604 97.4332 4.98438 97.4665L4.70438 97.384L4.99188 95.709H6.68938V95.904C6.68938 95.9674 6.66938 96.0199 6.62938 96.0615C6.59104 96.1015 6.52438 96.1215 6.42938 96.1215H5.30438L5.13938 97.0615ZM9.88477 97.5015C9.88477 97.8149 9.8506 98.0865 9.78227 98.3165C9.7156 98.5449 9.62393 98.734 9.50727 98.884C9.3906 99.034 9.25227 99.1457 9.09227 99.219C8.93393 99.2924 8.76393 99.329 8.58227 99.329C8.39893 99.329 8.2281 99.2924 8.06977 99.219C7.9131 99.1457 7.77643 99.034 7.65977 98.884C7.5431 98.734 7.45143 98.5449 7.38477 98.3165C7.3181 98.0865 7.28477 97.8149 7.28477 97.5015C7.28477 97.1882 7.3181 96.9165 7.38477 96.6865C7.45143 96.4565 7.5431 96.2665 7.65977 96.1165C7.77643 95.9649 7.9131 95.8524 8.06977 95.779C8.2281 95.7057 8.39893 95.669 8.58227 95.669C8.76393 95.669 8.93393 95.7057 9.09227 95.779C9.25227 95.8524 9.3906 95.9649 9.50727 96.1165C9.62393 96.2665 9.7156 96.4565 9.78227 96.6865C9.8506 96.9165 9.88477 97.1882 9.88477 97.5015ZM9.42227 97.5015C9.42227 97.2282 9.39893 96.999 9.35227 96.814C9.30727 96.6274 9.2456 96.4774 9.16727 96.364C9.0906 96.2507 9.00143 96.1699 8.89977 96.1215C8.7981 96.0715 8.69227 96.0465 8.58227 96.0465C8.47227 96.0465 8.36643 96.0715 8.26477 96.1215C8.1631 96.1699 8.07393 96.2507 7.99727 96.364C7.9206 96.4774 7.85893 96.6274 7.81227 96.814C7.76727 96.999 7.74477 97.2282 7.74477 97.5015C7.74477 97.7749 7.76727 98.004 7.81227 98.189C7.85893 98.374 7.9206 98.5232 7.99727 98.6365C8.07393 98.7499 8.1631 98.8315 8.26477 98.8815C8.36643 98.9299 8.47227 98.954 8.58227 98.954C8.69227 98.954 8.7981 98.9299 8.89977 98.8815C9.00143 98.8315 9.0906 98.7499 9.16727 98.6365C9.2456 98.5232 9.30727 98.374 9.35227 98.189C9.39893 98.004 9.42227 97.7749 9.42227 97.5015Z" fill="white"/>
<path d="M5.67938 80.4843C5.79938 80.4843 5.90771 80.4651 6.00438 80.4268C6.10271 80.3885 6.18604 80.3351 6.25438 80.2668C6.32438 80.1985 6.37771 80.1176 6.41438 80.0243C6.45271 79.931 6.47188 79.8293 6.47188 79.7193C6.47188 79.6026 6.45354 79.4976 6.41688 79.4043C6.38021 79.3093 6.32771 79.2293 6.25938 79.1643C6.19271 79.0976 6.11271 79.0468 6.01938 79.0118C5.92604 78.9768 5.82354 78.9593 5.71188 78.9593C5.59188 78.9593 5.48354 78.9801 5.38688 79.0218C5.29021 79.0618 5.20771 79.1168 5.13938 79.1868C5.07271 79.2551 5.02104 79.3351 4.98438 79.4268C4.94938 79.5168 4.93188 79.611 4.93188 79.7093C4.93188 79.8243 4.94854 79.9293 4.98188 80.0243C5.01521 80.1193 5.06354 80.201 5.12688 80.2693C5.19188 80.3376 5.27021 80.391 5.36188 80.4293C5.45521 80.466 5.56104 80.4843 5.67938 80.4843ZM5.41938 78.5743C5.38771 78.6143 5.35688 78.6535 5.32688 78.6918C5.29854 78.7285 5.27104 78.7651 5.24438 78.8018C5.32938 78.7435 5.42271 78.6985 5.52438 78.6668C5.62604 78.6351 5.73688 78.6193 5.85688 78.6193C6.00188 78.6193 6.13854 78.6435 6.26688 78.6918C6.39521 78.7385 6.50688 78.8076 6.60188 78.8993C6.69854 78.9893 6.77521 79.101 6.83188 79.2343C6.88854 79.366 6.91688 79.5168 6.91688 79.6868C6.91688 79.8518 6.88688 80.0051 6.82688 80.1468C6.76688 80.2885 6.68271 80.4118 6.57438 80.5168C6.46771 80.6218 6.33854 80.7043 6.18688 80.7643C6.03688 80.8243 5.87104 80.8543 5.68938 80.8543C5.50938 80.8543 5.34604 80.826 5.19938 80.7693C5.05271 80.711 4.92771 80.6293 4.82438 80.5243C4.72271 80.4176 4.64354 80.2893 4.58688 80.1393C4.53188 79.9876 4.50438 79.8185 4.50438 79.6318C4.50438 79.4751 4.53854 79.3085 4.60688 79.1318C4.67688 78.9535 4.78771 78.7635 4.93938 78.5618L5.84938 77.3393C5.87271 77.3093 5.90438 77.2843 5.94438 77.2643C5.98604 77.2426 6.03354 77.2318 6.08688 77.2318H6.48188L5.41938 78.5743ZM9.88477 79.0243C9.88477 79.3376 9.8506 79.6093 9.78227 79.8393C9.7156 80.0676 9.62393 80.2568 9.50727 80.4068C9.3906 80.5568 9.25227 80.6685 9.09227 80.7418C8.93393 80.8151 8.76393 80.8518 8.58227 80.8518C8.39893 80.8518 8.2281 80.8151 8.06977 80.7418C7.9131 80.6685 7.77643 80.5568 7.65977 80.4068C7.5431 80.2568 7.45143 80.0676 7.38477 79.8393C7.3181 79.6093 7.28477 79.3376 7.28477 79.0243C7.28477 78.711 7.3181 78.4393 7.38477 78.2093C7.45143 77.9793 7.5431 77.7893 7.65977 77.6393C7.77643 77.4876 7.9131 77.3751 8.06977 77.3018C8.2281 77.2285 8.39893 77.1918 8.58227 77.1918C8.76393 77.1918 8.93393 77.2285 9.09227 77.3018C9.25227 77.3751 9.3906 77.4876 9.50727 77.6393C9.62393 77.7893 9.7156 77.9793 9.78227 78.2093C9.8506 78.4393 9.88477 78.711 9.88477 79.0243ZM9.42227 79.0243C9.42227 78.751 9.39893 78.5218 9.35227 78.3368C9.30727 78.1501 9.2456 78.0001 9.16727 77.8868C9.0906 77.7735 9.00143 77.6926 8.89977 77.6443C8.7981 77.5943 8.69227 77.5693 8.58227 77.5693C8.47227 77.5693 8.36643 77.5943 8.26477 77.6443C8.1631 77.6926 8.07393 77.7735 7.99727 77.8868C7.9206 78.0001 7.85893 78.1501 7.81227 78.3368C7.76727 78.5218 7.74477 78.751 7.74477 79.0243C7.74477 79.2976 7.76727 79.5268 7.81227 79.7118C7.85893 79.8968 7.9206 80.046 7.99727 80.1593C8.07393 80.2726 8.1631 80.3543 8.26477 80.4043C8.36643 80.4526 8.47227 80.4768 8.58227 80.4768C8.69227 80.4768 8.7981 80.4526 8.89977 80.4043C9.00143 80.3543 9.0906 80.2726 9.16727 80.1593C9.2456 80.046 9.30727 79.8968 9.35227 79.7118C9.39893 79.5268 9.42227 79.2976 9.42227 79.0243Z" fill="white"/>
<path d="M6.93688 58.7561V58.9561C6.93688 59.0128 6.93021 59.0595 6.91688 59.0961C6.90521 59.1328 6.89354 59.1636 6.88188 59.1886L5.39688 62.1811C5.37521 62.2245 5.34521 62.262 5.30688 62.2936C5.26854 62.3236 5.21771 62.3386 5.15438 62.3386H4.83438L6.33938 59.3836C6.36104 59.342 6.38354 59.3036 6.40688 59.2686C6.43021 59.2336 6.45521 59.2003 6.48188 59.1686H4.61188C4.58354 59.1686 4.55854 59.1578 4.53688 59.1361C4.51521 59.1128 4.50438 59.087 4.50438 59.0586V58.7561H6.93688ZM9.88477 60.5486C9.88477 60.862 9.8506 61.1336 9.78227 61.3636C9.7156 61.592 9.62393 61.7811 9.50727 61.9311C9.3906 62.0811 9.25227 62.1928 9.09227 62.2661C8.93393 62.3395 8.76393 62.3761 8.58227 62.3761C8.39893 62.3761 8.2281 62.3395 8.06977 62.2661C7.9131 62.1928 7.77643 62.0811 7.65977 61.9311C7.5431 61.7811 7.45143 61.592 7.38477 61.3636C7.3181 61.1336 7.28477 60.862 7.28477 60.5486C7.28477 60.2353 7.3181 59.9636 7.38477 59.7336C7.45143 59.5036 7.5431 59.3136 7.65977 59.1636C7.77643 59.012 7.9131 58.8995 8.06977 58.8261C8.2281 58.7528 8.39893 58.7161 8.58227 58.7161C8.76393 58.7161 8.93393 58.7528 9.09227 58.8261C9.25227 58.8995 9.3906 59.012 9.50727 59.1636C9.62393 59.3136 9.7156 59.5036 9.78227 59.7336C9.8506 59.9636 9.88477 60.2353 9.88477 60.5486ZM9.42227 60.5486C9.42227 60.2753 9.39893 60.0461 9.35227 59.8611C9.30727 59.6745 9.2456 59.5245 9.16727 59.4111C9.0906 59.2978 9.00143 59.217 8.89977 59.1686C8.7981 59.1186 8.69227 59.0936 8.58227 59.0936C8.47227 59.0936 8.36643 59.1186 8.26477 59.1686C8.1631 59.217 8.07393 59.2978 7.99727 59.4111C7.9206 59.5245 7.85893 59.6745 7.81227 59.8611C7.76727 60.0461 7.74477 60.2753 7.74477 60.5486C7.74477 60.822 7.76727 61.0511 7.81227 61.2361C7.85893 61.4211 7.9206 61.5703 7.99727 61.6836C8.07393 61.797 8.1631 61.8786 8.26477 61.9286C8.36643 61.977 8.47227 62.0011 8.58227 62.0011C8.69227 62.0011 8.7981 61.977 8.89977 61.9286C9.00143 61.8786 9.0906 61.797 9.16727 61.6836C9.2456 61.5703 9.30727 61.4211 9.35227 61.2361C9.39893 61.0511 9.42227 60.822 9.42227 60.5486Z" fill="white"/>
<path d="M5.68438 43.5463C5.80104 43.5463 5.90521 43.5305 5.99688 43.4988C6.09021 43.4655 6.16854 43.4197 6.23188 43.3613C6.29688 43.3013 6.34604 43.2305 6.37938 43.1488C6.41438 43.0655 6.43188 42.9738 6.43188 42.8738C6.43188 42.7505 6.41104 42.6455 6.36938 42.5588C6.32938 42.4705 6.27438 42.3988 6.20438 42.3438C6.13604 42.2888 6.05688 42.2488 5.96688 42.2238C5.87688 42.1972 5.78271 42.1838 5.68438 42.1838C5.58604 42.1838 5.49188 42.1972 5.40188 42.2238C5.31188 42.2488 5.23188 42.2888 5.16188 42.3438C5.09354 42.3988 5.03854 42.4705 4.99688 42.5588C4.95688 42.6455 4.93688 42.7505 4.93688 42.8738C4.93688 42.9738 4.95354 43.0655 4.98688 43.1488C5.02188 43.2305 5.07104 43.3013 5.13438 43.3613C5.19938 43.4197 5.27771 43.4655 5.36938 43.4988C5.46271 43.5305 5.56771 43.5463 5.68438 43.5463ZM5.68438 40.5838C5.57771 40.5838 5.48354 40.5997 5.40188 40.6313C5.32188 40.663 5.25438 40.7063 5.19938 40.7613C5.14604 40.8163 5.10521 40.8805 5.07688 40.9538C5.05021 41.0272 5.03688 41.1055 5.03688 41.1888C5.03688 41.2705 5.04854 41.3497 5.07188 41.4263C5.09521 41.503 5.13271 41.5713 5.18438 41.6313C5.23604 41.6897 5.30271 41.7372 5.38438 41.7738C5.46771 41.8088 5.56771 41.8263 5.68438 41.8263C5.80104 41.8263 5.90021 41.8088 5.98188 41.7738C6.06521 41.7372 6.13271 41.6897 6.18438 41.6313C6.23604 41.5713 6.27354 41.503 6.29688 41.4263C6.32021 41.3497 6.33188 41.2705 6.33188 41.1888C6.33188 41.1055 6.31771 41.0272 6.28938 40.9538C6.26271 40.8805 6.22188 40.8163 6.16688 40.7613C6.11354 40.7063 6.04604 40.663 5.96438 40.6313C5.88438 40.5997 5.79104 40.5838 5.68438 40.5838ZM6.19688 41.9938C6.42021 42.0572 6.59188 42.163 6.71188 42.3113C6.83188 42.4597 6.89188 42.6497 6.89188 42.8813C6.89188 43.038 6.86188 43.1797 6.80188 43.3063C6.74354 43.4313 6.66104 43.538 6.55438 43.6263C6.44938 43.7147 6.32271 43.783 6.17438 43.8313C6.02604 43.878 5.86271 43.9013 5.68438 43.9013C5.50604 43.9013 5.34271 43.878 5.19438 43.8313C5.04604 43.783 4.91854 43.7147 4.81188 43.6263C4.70521 43.538 4.62271 43.4313 4.56437 43.3063C4.50604 43.1797 4.47688 43.038 4.47688 42.8813C4.47688 42.6497 4.53688 42.4597 4.65688 42.3113C4.77688 42.163 4.94854 42.0572 5.17188 41.9938C4.98354 41.9238 4.84104 41.8197 4.74438 41.6813C4.64938 41.5413 4.60187 41.3747 4.60187 41.1813C4.60187 41.0497 4.62771 40.9263 4.67938 40.8113C4.73104 40.6963 4.80438 40.5963 4.89938 40.5113C4.99438 40.4263 5.10771 40.3597 5.23938 40.3113C5.37271 40.263 5.52104 40.2388 5.68438 40.2388C5.84604 40.2388 5.99354 40.263 6.12688 40.3113C6.26021 40.3597 6.37438 40.4263 6.46938 40.5113C6.56438 40.5963 6.63771 40.6963 6.68938 40.8113C6.74104 40.9263 6.76688 41.0497 6.76688 41.1813C6.76688 41.3747 6.71854 41.5413 6.62188 41.6813C6.52688 41.8197 6.38521 41.9238 6.19688 41.9938ZM9.88477 42.0713C9.88477 42.3847 9.8506 42.6563 9.78227 42.8863C9.7156 43.1147 9.62393 43.3038 9.50727 43.4538C9.3906 43.6038 9.25227 43.7155 9.09227 43.7888C8.93393 43.8622 8.76393 43.8988 8.58227 43.8988C8.39893 43.8988 8.2281 43.8622 8.06977 43.7888C7.9131 43.7155 7.77643 43.6038 7.65977 43.4538C7.5431 43.3038 7.45143 43.1147 7.38477 42.8863C7.3181 42.6563 7.28477 42.3847 7.28477 42.0713C7.28477 41.758 7.3181 41.4863 7.38477 41.2563C7.45143 41.0263 7.5431 40.8363 7.65977 40.6863C7.77643 40.5347 7.9131 40.4222 8.06977 40.3488C8.2281 40.2755 8.39893 40.2388 8.58227 40.2388C8.76393 40.2388 8.93393 40.2755 9.09227 40.3488C9.25227 40.4222 9.3906 40.5347 9.50727 40.6863C9.62393 40.8363 9.7156 41.0263 9.78227 41.2563C9.8506 41.4863 9.88477 41.758 9.88477 42.0713ZM9.42227 42.0713C9.42227 41.798 9.39893 41.5688 9.35227 41.3838C9.30727 41.1972 9.2456 41.0472 9.16727 40.9338C9.0906 40.8205 9.00143 40.7397 8.89977 40.6913C8.7981 40.6413 8.69227 40.6163 8.58227 40.6163C8.47227 40.6163 8.36643 40.6413 8.26477 40.6913C8.1631 40.7397 8.07393 40.8205 7.99727 40.9338C7.9206 41.0472 7.85893 41.1972 7.81227 41.3838C7.76727 41.5688 7.74477 41.798 7.74477 42.0713C7.74477 42.3447 7.76727 42.5738 7.81227 42.7588C7.85893 42.9438 7.9206 43.093 7.99727 43.2063C8.07393 43.3197 8.1631 43.4013 8.26477 43.4513C8.36643 43.4997 8.47227 43.5238 8.58227 43.5238C8.69227 43.5238 8.7981 43.4997 8.89977 43.4513C9.00143 43.4013 9.0906 43.3197 9.16727 43.2063C9.2456 43.093 9.30727 42.9438 9.35227 42.7588C9.39893 42.5738 9.42227 42.3447 9.42227 42.0713Z" fill="white"/>
<path d="M4.94188 22.8542C4.94188 22.9675 4.95771 23.0692 4.98938 23.1592C5.02271 23.2475 5.06938 23.3225 5.12938 23.3842C5.19104 23.4458 5.26521 23.4925 5.35188 23.5242C5.44021 23.5558 5.53854 23.5717 5.64687 23.5717C5.76688 23.5717 5.87271 23.5525 5.96438 23.5142C6.05771 23.4742 6.13604 23.4217 6.19938 23.3567C6.26271 23.2917 6.31104 23.2167 6.34438 23.1317C6.37771 23.0467 6.39438 22.9583 6.39438 22.8667C6.39438 22.755 6.37604 22.6542 6.33938 22.5642C6.30438 22.4725 6.25521 22.395 6.19188 22.3317C6.12854 22.2683 6.05271 22.22 5.96438 22.1867C5.87771 22.1517 5.78188 22.1342 5.67688 22.1342C5.56688 22.1342 5.46688 22.1525 5.37688 22.1892C5.28688 22.2242 5.20938 22.2733 5.14438 22.3367C5.07938 22.4 5.02938 22.4758 4.99438 22.5642C4.95938 22.6525 4.94188 22.7492 4.94188 22.8542ZM5.98188 23.9567C6.01854 23.9083 6.05271 23.8625 6.08438 23.8192C6.11604 23.7758 6.14604 23.7325 6.17438 23.6892C6.08271 23.7625 5.97938 23.8183 5.86438 23.8567C5.74938 23.895 5.62771 23.9142 5.49938 23.9142C5.36438 23.9142 5.23604 23.8917 5.11438 23.8467C4.99438 23.8017 4.88854 23.7358 4.79688 23.6492C4.70521 23.5608 4.63188 23.4533 4.57688 23.3267C4.52354 23.1983 4.49688 23.0517 4.49688 22.8867C4.49688 22.73 4.52604 22.5833 4.58438 22.4467C4.64271 22.31 4.72438 22.1908 4.82938 22.0892C4.93438 21.9875 5.05938 21.9075 5.20438 21.8492C5.34938 21.7908 5.50854 21.7617 5.68188 21.7617C5.85354 21.7617 6.00938 21.79 6.14938 21.8467C6.28938 21.9033 6.40938 21.9825 6.50938 22.0842C6.60938 22.1858 6.68604 22.3075 6.73938 22.4492C6.79438 22.5908 6.82188 22.7475 6.82188 22.9192C6.82188 23.0225 6.81188 23.1208 6.79188 23.2142C6.77354 23.3058 6.74604 23.3967 6.70938 23.4867C6.67438 23.575 6.63104 23.6633 6.57938 23.7517C6.52771 23.8383 6.46938 23.9275 6.40438 24.0192L5.53188 25.2792C5.51021 25.3108 5.47938 25.3367 5.43938 25.3567C5.39938 25.375 5.35354 25.3842 5.30188 25.3842H4.89188L5.98188 23.9567ZM9.88477 23.5942C9.88477 23.9075 9.8506 24.1792 9.78227 24.4092C9.7156 24.6375 9.62393 24.8267 9.50727 24.9767C9.3906 25.1267 9.25227 25.2383 9.09227 25.3117C8.93393 25.385 8.76393 25.4217 8.58227 25.4217C8.39893 25.4217 8.2281 25.385 8.06977 25.3117C7.9131 25.2383 7.77643 25.1267 7.65977 24.9767C7.5431 24.8267 7.45143 24.6375 7.38477 24.4092C7.3181 24.1792 7.28477 23.9075 7.28477 23.5942C7.28477 23.2808 7.3181 23.0092 7.38477 22.7792C7.45143 22.5492 7.5431 22.3592 7.65977 22.2092C7.77643 22.0575 7.9131 21.945 8.06977 21.8717C8.2281 21.7983 8.39893 21.7617 8.58227 21.7617C8.76393 21.7617 8.93393 21.7983 9.09227 21.8717C9.25227 21.945 9.3906 22.0575 9.50727 22.2092C9.62393 22.3592 9.7156 22.5492 9.78227 22.7792C9.8506 23.0092 9.88477 23.2808 9.88477 23.5942ZM9.42227 23.5942C9.42227 23.3208 9.39893 23.0917 9.35227 22.9067C9.30727 22.72 9.2456 22.57 9.16727 22.4567C9.0906 22.3433 9.00143 22.2625 8.89977 22.2142C8.7981 22.1642 8.69227 22.1392 8.58227 22.1392C8.47227 22.1392 8.36643 22.1642 8.26477 22.2142C8.1631 22.2625 8.07393 22.3433 7.99727 22.4567C7.9206 22.57 7.85893 22.72 7.81227 22.9067C7.76727 23.0917 7.74477 23.3208 7.74477 23.5942C7.74477 23.8675 7.76727 24.0967 7.81227 24.2817C7.85893 24.4667 7.9206 24.6158 7.99727 24.7292C8.07393 24.8425 8.1631 24.9242 8.26477 24.9742C8.36643 25.0225 8.47227 25.0467 8.58227 25.0467C8.69227 25.0467 8.7981 25.0225 8.89977 24.9742C9.00143 24.9242 9.0906 24.8425 9.16727 24.7292C9.2456 24.6158 9.30727 24.4667 9.35227 24.2817C9.39893 24.0967 9.42227 23.8675 9.42227 23.5942Z" fill="white"/>
<path d="M2.545 6.56695V6.90695H0.625V6.56695H1.3925V4.12445C1.3925 4.05112 1.395 3.97695 1.4 3.90195L0.7625 4.44945C0.740833 4.46779 0.719167 4.47945 0.6975 4.48445C0.675833 4.48779 0.655833 4.48779 0.6375 4.48445C0.619167 4.48112 0.601667 4.47445 0.585 4.46445C0.57 4.45445 0.558333 4.44362 0.55 4.43195L0.41 4.23945L1.4775 3.31695H1.84V6.56695H2.545ZM5.65039 5.11695C5.65039 5.43029 5.61622 5.70195 5.54789 5.93195C5.48122 6.16029 5.38956 6.34945 5.27289 6.49945C5.15622 6.64945 5.01789 6.76112 4.85789 6.83445C4.69956 6.90779 4.52956 6.94445 4.34789 6.94445C4.16456 6.94445 3.99372 6.90779 3.83539 6.83445C3.67872 6.76112 3.54206 6.64945 3.42539 6.49945C3.30872 6.34945 3.21706 6.16029 3.15039 5.93195C3.08372 5.70195 3.05039 5.43029 3.05039 5.11695C3.05039 4.80362 3.08372 4.53195 3.15039 4.30195C3.21706 4.07195 3.30872 3.88195 3.42539 3.73195C3.54206 3.58029 3.67872 3.46779 3.83539 3.39445C3.99372 3.32112 4.16456 3.28445 4.34789 3.28445C4.52956 3.28445 4.69956 3.32112 4.85789 3.39445C5.01789 3.46779 5.15622 3.58029 5.27289 3.73195C5.38956 3.88195 5.48122 4.07195 5.54789 4.30195C5.61622 4.53195 5.65039 4.80362 5.65039 5.11695ZM5.18789 5.11695C5.18789 4.84362 5.16456 4.61445 5.11789 4.42945C5.07289 4.24279 5.01122 4.09279 4.93289 3.97945C4.85622 3.86612 4.76706 3.78529 4.66539 3.73695C4.56372 3.68695 4.45789 3.66195 4.34789 3.66195C4.23789 3.66195 4.13206 3.68695 4.03039 3.73695C3.92872 3.78529 3.83956 3.86612 3.76289 3.97945C3.68622 4.09279 3.62456 4.24279 3.57789 4.42945C3.53289 4.61445 3.51039 4.84362 3.51039 5.11695C3.51039 5.39029 3.53289 5.61945 3.57789 5.80445C3.62456 5.98945 3.68622 6.13862 3.76289 6.25195C3.83956 6.36529 3.92872 6.44695 4.03039 6.49695C4.13206 6.54529 4.23789 6.56945 4.34789 6.56945C4.45789 6.56945 4.56372 6.54529 4.66539 6.49695C4.76706 6.44695 4.85622 6.36529 4.93289 6.25195C5.01122 6.13862 5.07289 5.98945 5.11789 5.80445C5.16456 5.61945 5.18789 5.39029 5.18789 5.11695ZM8.55078 5.11695C8.55078 5.43029 8.51661 5.70195 8.44828 5.93195C8.38161 6.16029 8.28995 6.34945 8.17328 6.49945C8.05661 6.64945 7.91828 6.76112 7.75828 6.83445C7.59995 6.90779 7.42995 6.94445 7.24828 6.94445C7.06495 6.94445 6.89411 6.90779 6.73578 6.83445C6.57911 6.76112 6.44245 6.64945 6.32578 6.49945C6.20911 6.34945 6.11745 6.16029 6.05078 5.93195C5.98411 5.70195 5.95078 5.43029 5.95078 5.11695C5.95078 4.80362 5.98411 4.53195 6.05078 4.30195C6.11745 4.07195 6.20911 3.88195 6.32578 3.73195C6.44245 3.58029 6.57911 3.46779 6.73578 3.39445C6.89411 3.32112 7.06495 3.28445 7.24828 3.28445C7.42995 3.28445 7.59995 3.32112 7.75828 3.39445C7.91828 3.46779 8.05661 3.58029 8.17328 3.73195C8.28995 3.88195 8.38161 4.07195 8.44828 4.30195C8.51661 4.53195 8.55078 4.80362 8.55078 5.11695ZM8.08828 5.11695C8.08828 4.84362 8.06495 4.61445 8.01828 4.42945C7.97328 4.24279 7.91161 4.09279 7.83328 3.97945C7.75661 3.86612 7.66745 3.78529 7.56578 3.73695C7.46411 3.68695 7.35828 3.66195 7.24828 3.66195C7.13828 3.66195 7.03245 3.68695 6.93078 3.73695C6.82911 3.78529 6.73995 3.86612 6.66328 3.97945C6.58661 4.09279 6.52495 4.24279 6.47828 4.42945C6.43328 4.61445 6.41078 4.84362 6.41078 5.11695C6.41078 5.39029 6.43328 5.61945 6.47828 5.80445C6.52495 5.98945 6.58661 6.13862 6.66328 6.25195C6.73995 6.36529 6.82911 6.44695 6.93078 6.49695C7.03245 6.54529 7.13828 6.56945 7.24828 6.56945C7.35828 6.56945 7.46411 6.54529 7.56578 6.49695C7.66745 6.44695 7.75661 6.36529 7.83328 6.25195C7.91161 6.13862 7.97328 5.98945 8.01828 5.80445C8.06495 5.61945 8.08828 5.39029 8.08828 5.11695Z" fill="white"/>
<path d="M21.9717 0V196.392H317.601" stroke="#8C88A2" stroke-width="0.5" stroke-miterlimit="10"/>
<path d="M62.6221 202.553V14.7666" stroke="#6C6788" stroke-width="0.25" stroke-miterlimit="10"/>
<path d="M103.272 14.7666V202.553" stroke="#6C6788" stroke-width="0.25" stroke-miterlimit="10"/>
<path d="M143.92 14.7666V202.553" stroke="#6C6788" stroke-width="0.25" stroke-miterlimit="10"/>
<path d="M184.57 14.7666V202.553" stroke="#6C6788" stroke-width="0.25" stroke-miterlimit="10"/>
<path d="M225.219 14.7666V202.553" stroke="#6C6788" stroke-width="0.25" stroke-miterlimit="10"/>
<path d="M265.869 14.7666V202.553" stroke="#6C6788" stroke-width="0.25" stroke-miterlimit="10"/>
<path d="M306.518 14.7666V202.553" stroke="#6C6788" stroke-width="0.25" stroke-miterlimit="10"/>
<path d="M308.103 141.306L265.867 116.679L225.218 142.281L184.569 108.222L143.919 144.577L103.27 69.5218L62.6206 84.2884L21.4922 61.8577" stroke="#00FFFF" stroke-miterlimit="10"/>
<path d="M308.101 164.497L265.866 102.458L225.217 120.841L184.568 97.0894L143.918 93.2739L103.269 133.097L62.6196 117.009L22.251 172.921" stroke="#0080FF" stroke-miterlimit="10"/>
<path d="M65.3627 84.2884C65.3627 82.7853 64.1405 81.5465 62.6209 81.5465C61.1178 81.5465 59.8789 82.7688 59.8789 84.2884C59.8789 85.7915 61.1013 87.0303 62.6209 87.0303C64.1239 87.0303 65.3627 85.808 65.3627 84.2884Z" fill="white"/>
<path d="M65.3627 117.34C65.3627 115.837 64.1405 114.598 62.6209 114.598C61.1178 114.598 59.8789 115.82 59.8789 117.34C59.8789 118.843 61.1013 120.082 62.6209 120.082C64.1239 120.082 65.3627 118.859 65.3627 117.34Z" fill="white"/>
<path d="M106.01 69.8687C106.01 68.3656 104.788 67.1268 103.268 67.1268C101.765 67.1268 100.526 68.3491 100.526 69.8687C100.526 71.3718 101.749 72.6106 103.268 72.6106C104.788 72.5941 106.01 71.3718 106.01 69.8687Z" fill="white"/>
<path d="M103.268 135.608C104.783 135.608 106.01 134.38 106.01 132.866C106.01 131.352 104.783 130.124 103.268 130.124C101.754 130.124 100.526 131.352 100.526 132.866C100.526 134.38 101.754 135.608 103.268 135.608Z" fill="white"/>
<path d="M146.661 144.181C146.661 142.677 145.439 141.439 143.92 141.439C142.4 141.439 141.178 142.661 141.178 144.181C141.178 145.684 142.4 146.922 143.92 146.922C145.439 146.922 146.661 145.7 146.661 144.181Z" fill="white"/>
<path d="M146.661 93.4556C146.661 91.9525 145.439 90.7137 143.92 90.7137C142.4 90.7137 141.178 91.936 141.178 93.4556C141.178 94.9587 142.4 96.1975 143.92 96.1975C145.439 96.1975 146.661 94.9587 146.661 93.4556Z" fill="white"/>
<path d="M187.459 108.503C187.459 107 186.237 105.761 184.718 105.761C183.214 105.761 181.976 106.983 181.976 108.503C181.976 110.006 183.198 111.245 184.718 111.245C186.237 111.228 187.459 110.006 187.459 108.503Z" fill="white"/>
<path d="M187.459 97.3372C187.459 95.8341 186.237 94.5953 184.718 94.5953C183.214 94.5953 181.976 95.8176 181.976 97.3372C181.976 98.8403 183.198 100.079 184.718 100.079C186.237 100.063 187.459 98.8403 187.459 97.3372Z" fill="white"/>
<path d="M227.959 141.868C227.959 140.365 226.737 139.126 225.217 139.126C223.714 139.126 222.476 140.349 222.476 141.868C222.476 143.371 223.698 144.61 225.217 144.61C226.737 144.594 227.959 143.371 227.959 141.868Z" fill="white"/>
<path d="M227.959 120.759C227.959 119.256 226.737 118.017 225.217 118.017C223.714 118.017 222.476 119.239 222.476 120.759C222.476 122.262 223.698 123.501 225.217 123.501C226.737 123.501 227.959 122.262 227.959 120.759Z" fill="white"/>
<path d="M268.774 117.042C268.774 115.539 267.551 114.301 266.032 114.301C264.529 114.301 263.29 115.523 263.29 117.042C263.29 118.562 264.512 119.784 266.032 119.784C267.551 119.768 268.774 118.546 268.774 117.042Z" fill="white"/>
<path d="M268.774 102.755C268.774 101.252 267.551 100.013 266.032 100.013C264.529 100.013 263.29 101.235 263.29 102.755C263.29 104.258 264.512 105.497 266.032 105.497C267.551 105.497 268.774 104.275 268.774 102.755Z" fill="white"/>
</svg>
