<svg width="459" height="300" viewBox="0 0 459 300" fill="none" xmlns="http://www.w3.org/2000/svg">
<path d="M0 280H459" stroke="#7B7B7B" stroke-width="2"/>
<rect x="119.5" y="69.5" width="39" height="210" fill="#0792CE" stroke="#7B7B7B"/>
<path d="M133.51 296.9V298H128.35V297.13L131.13 294.49C131.443 294.19 131.653 293.93 131.76 293.71C131.873 293.483 131.93 293.26 131.93 293.04C131.93 292.713 131.82 292.463 131.6 292.29C131.38 292.117 131.057 292.03 130.63 292.03C129.917 292.03 129.37 292.273 128.99 292.76L128.08 292.06C128.353 291.693 128.72 291.41 129.18 291.21C129.647 291.003 130.167 290.9 130.74 290.9C131.5 290.9 132.107 291.08 132.56 291.44C133.013 291.8 133.24 292.29 133.24 292.91C133.24 293.29 133.16 293.647 133 293.98C132.84 294.313 132.533 294.693 132.08 295.12L130.21 296.9H133.51ZM137.151 298.1C136.591 298.1 136.091 297.96 135.651 297.68C135.211 297.393 134.864 296.98 134.611 296.44C134.358 295.893 134.231 295.247 134.231 294.5C134.231 293.753 134.358 293.11 134.611 292.57C134.864 292.023 135.211 291.61 135.651 291.33C136.091 291.043 136.591 290.9 137.151 290.9C137.711 290.9 138.211 291.043 138.651 291.33C139.098 291.61 139.448 292.023 139.701 292.57C139.954 293.11 140.081 293.753 140.081 294.5C140.081 295.247 139.954 295.893 139.701 296.44C139.448 296.98 139.098 297.393 138.651 297.68C138.211 297.96 137.711 298.1 137.151 298.1ZM137.151 296.97C137.651 296.97 138.044 296.763 138.331 296.35C138.624 295.937 138.771 295.32 138.771 294.5C138.771 293.68 138.624 293.063 138.331 292.65C138.044 292.237 137.651 292.03 137.151 292.03C136.658 292.03 136.264 292.237 135.971 292.65C135.684 293.063 135.541 293.68 135.541 294.5C135.541 295.32 135.684 295.937 135.971 296.35C136.264 296.763 136.658 296.97 137.151 296.97ZM143.331 291V298H142.031V292.09H140.551V291H143.331ZM149.999 291V291.87L147.279 298H145.889L148.519 292.1H145.769V293.29H144.559V291H149.999Z" fill="#161616"/>
<path d="M131.355 53.948C132.555 53.948 133.435 54.176 133.995 54.632C134.563 55.08 134.847 55.696 134.847 56.48C134.847 56.976 134.727 57.424 134.487 57.824C134.255 58.216 133.899 58.528 133.419 58.76C132.947 58.984 132.363 59.096 131.667 59.096C131.075 59.096 130.503 59.008 129.951 58.832C129.399 58.648 128.943 58.396 128.583 58.076L129.135 57.128C129.423 57.4 129.791 57.62 130.239 57.788C130.687 57.948 131.159 58.028 131.655 58.028C132.287 58.028 132.775 57.896 133.119 57.632C133.471 57.36 133.647 56.992 133.647 56.528C133.647 56.024 133.455 55.644 133.071 55.388C132.687 55.124 132.031 54.992 131.103 54.992H129.195L129.639 50.6H134.379V51.644H130.647L130.419 53.948H131.355ZM143.154 56.936H141.558V59H140.394V56.936H135.726V56.096L140.022 50.6H141.318L137.202 55.904H140.43V54.08H141.558V55.904H143.154V56.936ZM146.515 50.504C147.643 50.504 148.511 50.868 149.119 51.596C149.735 52.324 150.043 53.356 150.043 54.692C150.043 55.628 149.875 56.428 149.539 57.092C149.211 57.748 148.747 58.248 148.147 58.592C147.555 58.928 146.863 59.096 146.071 59.096C145.663 59.096 145.279 59.056 144.919 58.976C144.559 58.888 144.247 58.764 143.983 58.604L144.439 57.668C144.847 57.932 145.387 58.064 146.059 58.064C146.931 58.064 147.611 57.796 148.099 57.26C148.595 56.716 148.843 55.928 148.843 54.896V54.596C148.603 54.956 148.271 55.232 147.847 55.424C147.423 55.608 146.947 55.7 146.419 55.7C145.867 55.7 145.371 55.596 144.931 55.388C144.499 55.18 144.159 54.884 143.911 54.5C143.671 54.108 143.551 53.66 143.551 53.156C143.551 52.628 143.679 52.164 143.935 51.764C144.199 51.364 144.555 51.056 145.003 50.84C145.451 50.616 145.955 50.504 146.515 50.504ZM146.623 54.728C146.999 54.728 147.335 54.656 147.631 54.512C147.927 54.368 148.155 54.172 148.315 53.924C148.483 53.676 148.567 53.4 148.567 53.096C148.567 52.8 148.487 52.532 148.327 52.292C148.175 52.044 147.947 51.848 147.643 51.704C147.347 51.552 146.987 51.476 146.563 51.476C146.011 51.476 145.563 51.624 145.219 51.92C144.883 52.216 144.715 52.612 144.715 53.108C144.715 53.604 144.887 54 145.231 54.296C145.575 54.584 146.039 54.728 146.623 54.728Z" fill="#161616"/>
<rect x="209.5" y="33.5" width="39" height="246" fill="#0792CE" stroke="#7B7B7B"/>
<path d="M225.51 296.9V298H220.35V297.13L223.13 294.49C223.443 294.19 223.653 293.93 223.76 293.71C223.873 293.483 223.93 293.26 223.93 293.04C223.93 292.713 223.82 292.463 223.6 292.29C223.38 292.117 223.057 292.03 222.63 292.03C221.917 292.03 221.37 292.273 220.99 292.76L220.08 292.06C220.353 291.693 220.72 291.41 221.18 291.21C221.647 291.003 222.167 290.9 222.74 290.9C223.5 290.9 224.107 291.08 224.56 291.44C225.013 291.8 225.24 292.29 225.24 292.91C225.24 293.29 225.16 293.647 225 293.98C224.84 294.313 224.533 294.693 224.08 295.12L222.21 296.9H225.51ZM229.151 298.1C228.591 298.1 228.091 297.96 227.651 297.68C227.211 297.393 226.864 296.98 226.611 296.44C226.358 295.893 226.231 295.247 226.231 294.5C226.231 293.753 226.358 293.11 226.611 292.57C226.864 292.023 227.211 291.61 227.651 291.33C228.091 291.043 228.591 290.9 229.151 290.9C229.711 290.9 230.211 291.043 230.651 291.33C231.098 291.61 231.448 292.023 231.701 292.57C231.954 293.11 232.081 293.753 232.081 294.5C232.081 295.247 231.954 295.893 231.701 296.44C231.448 296.98 231.098 297.393 230.651 297.68C230.211 297.96 229.711 298.1 229.151 298.1ZM229.151 296.97C229.651 296.97 230.044 296.763 230.331 296.35C230.624 295.937 230.771 295.32 230.771 294.5C230.771 293.68 230.624 293.063 230.331 292.65C230.044 292.237 229.651 292.03 229.151 292.03C228.658 292.03 228.264 292.237 227.971 292.65C227.684 293.063 227.541 293.68 227.541 294.5C227.541 295.32 227.684 295.937 227.971 296.35C228.264 296.763 228.658 296.97 229.151 296.97ZM235.331 291V298H234.031V292.09H232.551V291H235.331ZM241.259 294.32C241.626 294.487 241.906 294.713 242.099 295C242.299 295.28 242.399 295.61 242.399 295.99C242.399 296.417 242.279 296.79 242.039 297.11C241.806 297.43 241.473 297.677 241.039 297.85C240.606 298.017 240.103 298.1 239.529 298.1C238.956 298.1 238.453 298.017 238.019 297.85C237.593 297.677 237.263 297.43 237.029 297.11C236.796 296.79 236.679 296.417 236.679 295.99C236.679 295.61 236.776 295.28 236.969 295C237.163 294.713 237.439 294.487 237.799 294.32C237.519 294.167 237.303 293.967 237.149 293.72C237.003 293.467 236.929 293.177 236.929 292.85C236.929 292.457 237.036 292.113 237.249 291.82C237.469 291.527 237.776 291.3 238.169 291.14C238.563 290.98 239.016 290.9 239.529 290.9C240.049 290.9 240.506 290.98 240.899 291.14C241.293 291.3 241.599 291.527 241.819 291.82C242.039 292.113 242.149 292.457 242.149 292.85C242.149 293.177 242.073 293.463 241.919 293.71C241.766 293.957 241.546 294.16 241.259 294.32ZM239.529 291.92C239.123 291.92 238.799 292.007 238.559 292.18C238.326 292.353 238.209 292.597 238.209 292.91C238.209 293.21 238.326 293.45 238.559 293.63C238.799 293.803 239.123 293.89 239.529 293.89C239.943 293.89 240.269 293.803 240.509 293.63C240.749 293.45 240.869 293.21 240.869 292.91C240.869 292.597 240.746 292.353 240.499 292.18C240.259 292.007 239.936 291.92 239.529 291.92ZM239.529 297.08C240.009 297.08 240.389 296.98 240.669 296.78C240.949 296.58 241.089 296.303 241.089 295.95C241.089 295.603 240.949 295.33 240.669 295.13C240.389 294.93 240.009 294.83 239.529 294.83C239.049 294.83 238.673 294.93 238.399 295.13C238.126 295.33 237.989 295.603 237.989 295.95C237.989 296.303 238.126 296.58 238.399 296.78C238.673 296.98 239.049 297.08 239.529 297.08Z" fill="#161616"/>
<path d="M224.555 17.9C225.107 17.9 225.599 18.004 226.031 18.212C226.471 18.42 226.815 18.72 227.063 19.112C227.311 19.496 227.435 19.94 227.435 20.444C227.435 20.972 227.303 21.436 227.039 21.836C226.783 22.236 226.427 22.548 225.971 22.772C225.523 22.988 225.019 23.096 224.459 23.096C223.331 23.096 222.459 22.732 221.843 22.004C221.235 21.276 220.931 20.244 220.931 18.908C220.931 17.972 221.095 17.176 221.423 16.52C221.759 15.856 222.223 15.356 222.815 15.02C223.415 14.676 224.111 14.504 224.903 14.504C225.311 14.504 225.695 14.548 226.055 14.636C226.415 14.716 226.727 14.836 226.991 14.996L226.535 15.932C226.135 15.668 225.599 15.536 224.927 15.536C224.055 15.536 223.371 15.808 222.875 16.352C222.379 16.888 222.131 17.672 222.131 18.704C222.131 18.832 222.135 18.932 222.143 19.004C222.383 18.644 222.711 18.372 223.127 18.188C223.551 17.996 224.027 17.9 224.555 17.9ZM224.411 22.124C224.963 22.124 225.411 21.976 225.755 21.68C226.099 21.384 226.271 20.988 226.271 20.492C226.271 19.996 226.095 19.604 225.743 19.316C225.399 19.02 224.935 18.872 224.351 18.872C223.975 18.872 223.639 18.944 223.343 19.088C223.055 19.232 222.827 19.428 222.659 19.676C222.499 19.924 222.419 20.2 222.419 20.504C222.419 20.8 222.495 21.072 222.647 21.32C222.807 21.56 223.035 21.756 223.331 21.908C223.635 22.052 223.995 22.124 224.411 22.124ZM235.646 20.936H234.05V23H232.886V20.936H228.218V20.096L232.514 14.6H233.81L229.694 19.904H232.922V18.08H234.05V19.904H235.646V20.936ZM242.234 21.956V23H236.198V22.184L239.618 18.884C240.034 18.484 240.314 18.14 240.458 17.852C240.602 17.556 240.674 17.26 240.674 16.964C240.674 16.524 240.518 16.184 240.206 15.944C239.902 15.696 239.462 15.572 238.886 15.572C237.958 15.572 237.242 15.876 236.738 16.484L235.922 15.776C236.25 15.376 236.678 15.064 237.206 14.84C237.742 14.616 238.338 14.504 238.994 14.504C239.874 14.504 240.574 14.716 241.094 15.14C241.614 15.556 241.874 16.124 241.874 16.844C241.874 17.292 241.778 17.716 241.586 18.116C241.394 18.516 241.03 18.972 240.494 19.484L237.926 21.956H242.234Z" fill="#161616"/>
<rect x="299.5" y="37.5" width="39" height="242" fill="#0792CE" stroke="#7B7B7B"/>
<path d="M313.51 296.9V298H308.35V297.13L311.13 294.49C311.443 294.19 311.653 293.93 311.76 293.71C311.873 293.483 311.93 293.26 311.93 293.04C311.93 292.713 311.82 292.463 311.6 292.29C311.38 292.117 311.057 292.03 310.63 292.03C309.917 292.03 309.37 292.273 308.99 292.76L308.08 292.06C308.353 291.693 308.72 291.41 309.18 291.21C309.647 291.003 310.167 290.9 310.74 290.9C311.5 290.9 312.107 291.08 312.56 291.44C313.013 291.8 313.24 292.29 313.24 292.91C313.24 293.29 313.16 293.647 313 293.98C312.84 294.313 312.533 294.693 312.08 295.12L310.21 296.9H313.51ZM317.151 298.1C316.591 298.1 316.091 297.96 315.651 297.68C315.211 297.393 314.864 296.98 314.611 296.44C314.358 295.893 314.231 295.247 314.231 294.5C314.231 293.753 314.358 293.11 314.611 292.57C314.864 292.023 315.211 291.61 315.651 291.33C316.091 291.043 316.591 290.9 317.151 290.9C317.711 290.9 318.211 291.043 318.651 291.33C319.098 291.61 319.448 292.023 319.701 292.57C319.954 293.11 320.081 293.753 320.081 294.5C320.081 295.247 319.954 295.893 319.701 296.44C319.448 296.98 319.098 297.393 318.651 297.68C318.211 297.96 317.711 298.1 317.151 298.1ZM317.151 296.97C317.651 296.97 318.044 296.763 318.331 296.35C318.624 295.937 318.771 295.32 318.771 294.5C318.771 293.68 318.624 293.063 318.331 292.65C318.044 292.237 317.651 292.03 317.151 292.03C316.658 292.03 316.264 292.237 315.971 292.65C315.684 293.063 315.541 293.68 315.541 294.5C315.541 295.32 315.684 295.937 315.971 296.35C316.264 296.763 316.658 296.97 317.151 296.97ZM323.331 291V298H322.031V292.09H320.551V291H323.331ZM327.079 290.9C328.039 290.9 328.783 291.2 329.309 291.8C329.843 292.4 330.109 293.26 330.109 294.38C330.109 295.167 329.966 295.84 329.679 296.4C329.393 296.953 328.989 297.377 328.469 297.67C327.956 297.957 327.359 298.1 326.679 298.1C326.319 298.1 325.979 298.063 325.659 297.99C325.346 297.91 325.073 297.797 324.839 297.65L325.319 296.67C325.666 296.897 326.109 297.01 326.649 297.01C327.323 297.01 327.849 296.803 328.229 296.39C328.609 295.977 328.799 295.38 328.799 294.6V294.59C328.593 294.83 328.329 295.013 328.009 295.14C327.689 295.26 327.329 295.32 326.929 295.32C326.469 295.32 326.056 295.233 325.689 295.06C325.323 294.88 325.036 294.627 324.829 294.3C324.623 293.973 324.519 293.597 324.519 293.17C324.519 292.717 324.633 292.32 324.859 291.98C325.086 291.633 325.393 291.367 325.779 291.18C326.166 290.993 326.599 290.9 327.079 290.9ZM327.179 294.3C327.599 294.3 327.939 294.187 328.199 293.96C328.466 293.733 328.599 293.447 328.599 293.1C328.599 292.76 328.469 292.48 328.209 292.26C327.956 292.033 327.603 291.92 327.149 291.92C326.743 291.92 326.413 292.03 326.159 292.25C325.906 292.463 325.779 292.75 325.779 293.11C325.779 293.477 325.906 293.767 326.159 293.98C326.413 294.193 326.753 294.3 327.179 294.3Z" fill="#161616"/>
<path d="M314.343 21.9C314.895 21.9 315.387 22.004 315.819 22.212C316.259 22.42 316.603 22.72 316.851 23.112C317.099 23.496 317.223 23.94 317.223 24.444C317.223 24.972 317.091 25.436 316.827 25.836C316.571 26.236 316.215 26.548 315.759 26.772C315.311 26.988 314.807 27.096 314.247 27.096C313.119 27.096 312.247 26.732 311.631 26.004C311.023 25.276 310.719 24.244 310.719 22.908C310.719 21.972 310.883 21.176 311.211 20.52C311.547 19.856 312.011 19.356 312.603 19.02C313.203 18.676 313.899 18.504 314.691 18.504C315.099 18.504 315.483 18.548 315.843 18.636C316.203 18.716 316.515 18.836 316.779 18.996L316.323 19.932C315.923 19.668 315.387 19.536 314.715 19.536C313.843 19.536 313.159 19.808 312.663 20.352C312.167 20.888 311.919 21.672 311.919 22.704C311.919 22.832 311.923 22.932 311.931 23.004C312.171 22.644 312.499 22.372 312.915 22.188C313.339 21.996 313.815 21.9 314.343 21.9ZM314.199 26.124C314.751 26.124 315.199 25.976 315.543 25.68C315.887 25.384 316.059 24.988 316.059 24.492C316.059 23.996 315.883 23.604 315.531 23.316C315.187 23.02 314.723 22.872 314.139 22.872C313.763 22.872 313.427 22.944 313.131 23.088C312.843 23.232 312.615 23.428 312.447 23.676C312.287 23.924 312.207 24.2 312.207 24.504C312.207 24.8 312.283 25.072 312.435 25.32C312.595 25.56 312.823 25.756 313.119 25.908C313.423 26.052 313.783 26.124 314.199 26.124ZM321.341 22.128C322.165 22.208 322.793 22.464 323.225 22.896C323.657 23.32 323.873 23.864 323.873 24.528C323.873 25.008 323.753 25.444 323.513 25.836C323.273 26.22 322.913 26.528 322.433 26.76C321.961 26.984 321.381 27.096 320.693 27.096C320.093 27.096 319.517 27.008 318.965 26.832C318.413 26.648 317.961 26.396 317.609 26.076L318.161 25.128C318.449 25.4 318.817 25.62 319.265 25.788C319.713 25.948 320.189 26.028 320.693 26.028C321.317 26.028 321.801 25.896 322.145 25.632C322.497 25.368 322.673 25.004 322.673 24.54C322.673 24.076 322.501 23.716 322.157 23.46C321.813 23.204 321.293 23.076 320.597 23.076H319.925V22.236L322.037 19.644H317.993V18.6H323.537V19.416L321.341 22.128ZM327.596 18.6V27H326.408V19.644H324.512V18.6H327.596Z" fill="#161616"/>
<rect x="389.5" y="22.5" width="39" height="257" fill="#0792CE" stroke="#7B7B7B"/>
<path d="M403.51 296.9V298H398.35V297.13L401.13 294.49C401.443 294.19 401.653 293.93 401.76 293.71C401.873 293.483 401.93 293.26 401.93 293.04C401.93 292.713 401.82 292.463 401.6 292.29C401.38 292.117 401.057 292.03 400.63 292.03C399.917 292.03 399.37 292.273 398.99 292.76L398.08 292.06C398.353 291.693 398.72 291.41 399.18 291.21C399.647 291.003 400.167 290.9 400.74 290.9C401.5 290.9 402.107 291.08 402.56 291.44C403.013 291.8 403.24 292.29 403.24 292.91C403.24 293.29 403.16 293.647 403 293.98C402.84 294.313 402.533 294.693 402.08 295.12L400.21 296.9H403.51ZM407.151 298.1C406.591 298.1 406.091 297.96 405.651 297.68C405.211 297.393 404.864 296.98 404.611 296.44C404.358 295.893 404.231 295.247 404.231 294.5C404.231 293.753 404.358 293.11 404.611 292.57C404.864 292.023 405.211 291.61 405.651 291.33C406.091 291.043 406.591 290.9 407.151 290.9C407.711 290.9 408.211 291.043 408.651 291.33C409.098 291.61 409.448 292.023 409.701 292.57C409.954 293.11 410.081 293.753 410.081 294.5C410.081 295.247 409.954 295.893 409.701 296.44C409.448 296.98 409.098 297.393 408.651 297.68C408.211 297.96 407.711 298.1 407.151 298.1ZM407.151 296.97C407.651 296.97 408.044 296.763 408.331 296.35C408.624 295.937 408.771 295.32 408.771 294.5C408.771 293.68 408.624 293.063 408.331 292.65C408.044 292.237 407.651 292.03 407.151 292.03C406.658 292.03 406.264 292.237 405.971 292.65C405.684 293.063 405.541 293.68 405.541 294.5C405.541 295.32 405.684 295.937 405.971 296.35C406.264 296.763 406.658 296.97 407.151 296.97ZM415.981 296.9V298H410.821V297.13L413.601 294.49C413.914 294.19 414.124 293.93 414.231 293.71C414.344 293.483 414.401 293.26 414.401 293.04C414.401 292.713 414.291 292.463 414.071 292.29C413.851 292.117 413.527 292.03 413.101 292.03C412.387 292.03 411.841 292.273 411.461 292.76L410.551 292.06C410.824 291.693 411.191 291.41 411.651 291.21C412.117 291.003 412.637 290.9 413.211 290.9C413.971 290.9 414.577 291.08 415.031 291.44C415.484 291.8 415.711 292.29 415.711 292.91C415.711 293.29 415.631 293.647 415.471 293.98C415.311 294.313 415.004 294.693 414.551 295.12L412.681 296.9H415.981ZM419.622 298.1C419.062 298.1 418.562 297.96 418.122 297.68C417.682 297.393 417.335 296.98 417.082 296.44C416.828 295.893 416.702 295.247 416.702 294.5C416.702 293.753 416.828 293.11 417.082 292.57C417.335 292.023 417.682 291.61 418.122 291.33C418.562 291.043 419.062 290.9 419.622 290.9C420.182 290.9 420.682 291.043 421.122 291.33C421.568 291.61 421.918 292.023 422.172 292.57C422.425 293.11 422.552 293.753 422.552 294.5C422.552 295.247 422.425 295.893 422.172 296.44C421.918 296.98 421.568 297.393 421.122 297.68C420.682 297.96 420.182 298.1 419.622 298.1ZM419.622 296.97C420.122 296.97 420.515 296.763 420.802 296.35C421.095 295.937 421.242 295.32 421.242 294.5C421.242 293.68 421.095 293.063 420.802 292.65C420.515 292.237 420.122 292.03 419.622 292.03C419.128 292.03 418.735 292.237 418.442 292.65C418.155 293.063 418.012 293.68 418.012 294.5C418.012 295.32 418.155 295.937 418.442 296.35C418.735 296.763 419.128 296.97 419.622 296.97Z" fill="#161616"/>
<path d="M403.567 6.9C404.119 6.9 404.611 7.004 405.043 7.212C405.483 7.42 405.827 7.72 406.075 8.112C406.323 8.496 406.447 8.94 406.447 9.444C406.447 9.972 406.315 10.436 406.051 10.836C405.795 11.236 405.439 11.548 404.983 11.772C404.535 11.988 404.031 12.096 403.471 12.096C402.343 12.096 401.471 11.732 400.855 11.004C400.247 10.276 399.943 9.244 399.943 7.908C399.943 6.972 400.107 6.176 400.435 5.52C400.771 4.856 401.235 4.356 401.827 4.02C402.427 3.676 403.123 3.504 403.915 3.504C404.323 3.504 404.707 3.548 405.067 3.636C405.427 3.716 405.739 3.836 406.003 3.996L405.547 4.932C405.147 4.668 404.611 4.536 403.939 4.536C403.067 4.536 402.383 4.808 401.887 5.352C401.391 5.888 401.143 6.672 401.143 7.704C401.143 7.832 401.147 7.932 401.155 8.004C401.395 7.644 401.723 7.372 402.139 7.188C402.563 6.996 403.039 6.9 403.567 6.9ZM403.423 11.124C403.975 11.124 404.423 10.976 404.767 10.68C405.111 10.384 405.283 9.988 405.283 9.492C405.283 8.996 405.107 8.604 404.755 8.316C404.411 8.02 403.947 7.872 403.363 7.872C402.987 7.872 402.651 7.944 402.355 8.088C402.067 8.232 401.839 8.428 401.671 8.676C401.511 8.924 401.431 9.2 401.431 9.504C401.431 9.8 401.507 10.072 401.659 10.32C401.819 10.56 402.047 10.756 402.343 10.908C402.647 11.052 403.007 11.124 403.423 11.124ZM413.387 3.6V4.416L409.991 12H408.719L412.043 4.644H408.203V6.144H407.051V3.6H413.387ZM417.637 12.096C416.973 12.096 416.381 11.928 415.861 11.592C415.349 11.248 414.945 10.752 414.649 10.104C414.353 9.456 414.205 8.688 414.205 7.8C414.205 6.912 414.353 6.144 414.649 5.496C414.945 4.848 415.349 4.356 415.861 4.02C416.381 3.676 416.973 3.504 417.637 3.504C418.293 3.504 418.877 3.676 419.389 4.02C419.909 4.356 420.317 4.848 420.613 5.496C420.909 6.144 421.057 6.912 421.057 7.8C421.057 8.688 420.909 9.456 420.613 10.104C420.317 10.752 419.909 11.248 419.389 11.592C418.877 11.928 418.293 12.096 417.637 12.096ZM417.637 11.028C418.309 11.028 418.845 10.752 419.245 10.2C419.653 9.648 419.857 8.848 419.857 7.8C419.857 6.752 419.653 5.952 419.245 5.4C418.845 4.848 418.309 4.572 417.637 4.572C416.957 4.572 416.413 4.848 416.005 5.4C415.605 5.952 415.405 6.752 415.405 7.8C415.405 8.848 415.605 9.648 416.005 10.2C416.413 10.752 416.957 11.028 417.637 11.028Z" fill="#161616"/>
<path d="M29.5 130.5H68.5V279.5H29.5V130.5Z" fill="#0792CE" stroke="#7B7B7B"/>
<path d="M41.51 296.9V298H36.35V297.13L39.13 294.49C39.4433 294.19 39.6533 293.93 39.76 293.71C39.8733 293.483 39.93 293.26 39.93 293.04C39.93 292.713 39.82 292.463 39.6 292.29C39.38 292.117 39.0567 292.03 38.63 292.03C37.9167 292.03 37.37 292.273 36.99 292.76L36.08 292.06C36.3533 291.693 36.72 291.41 37.18 291.21C37.6467 291.003 38.1667 290.9 38.74 290.9C39.5 290.9 40.1067 291.08 40.56 291.44C41.0133 291.8 41.24 292.29 41.24 292.91C41.24 293.29 41.16 293.647 41 293.98C40.84 294.313 40.5333 294.693 40.08 295.12L38.21 296.9H41.51ZM45.151 298.1C44.591 298.1 44.091 297.96 43.651 297.68C43.211 297.393 42.8643 296.98 42.611 296.44C42.3577 295.893 42.231 295.247 42.231 294.5C42.231 293.753 42.3577 293.11 42.611 292.57C42.8643 292.023 43.211 291.61 43.651 291.33C44.091 291.043 44.591 290.9 45.151 290.9C45.711 290.9 46.211 291.043 46.651 291.33C47.0977 291.61 47.4477 292.023 47.701 292.57C47.9543 293.11 48.081 293.753 48.081 294.5C48.081 295.247 47.9543 295.893 47.701 296.44C47.4477 296.98 47.0977 297.393 46.651 297.68C46.211 297.96 45.711 298.1 45.151 298.1ZM45.151 296.97C45.651 296.97 46.0443 296.763 46.331 296.35C46.6243 295.937 46.771 295.32 46.771 294.5C46.771 293.68 46.6243 293.063 46.331 292.65C46.0443 292.237 45.651 292.03 45.151 292.03C44.6577 292.03 44.2643 292.237 43.971 292.65C43.6843 293.063 43.541 293.68 43.541 294.5C43.541 295.32 43.6843 295.937 43.971 296.35C44.2643 296.763 44.6577 296.97 45.151 296.97ZM51.3307 291V298H50.0307V292.09H48.5507V291H51.3307ZM55.8993 293.68C56.3593 293.68 56.7726 293.77 57.1393 293.95C57.506 294.123 57.7926 294.373 57.9993 294.7C58.206 295.027 58.3093 295.403 58.3093 295.83C58.3093 296.283 58.196 296.683 57.9693 297.03C57.7426 297.37 57.436 297.633 57.0493 297.82C56.6626 298.007 56.2293 298.1 55.7493 298.1C54.7893 298.1 54.0426 297.8 53.5093 297.2C52.9826 296.6 52.7193 295.74 52.7193 294.62C52.7193 293.833 52.8626 293.163 53.1493 292.61C53.436 292.05 53.836 291.627 54.3493 291.34C54.8693 291.047 55.4693 290.9 56.1493 290.9C56.5093 290.9 56.846 290.94 57.1593 291.02C57.4793 291.093 57.756 291.203 57.9893 291.35L57.5093 292.33C57.1626 292.103 56.7193 291.99 56.1793 291.99C55.506 291.99 54.9793 292.197 54.5993 292.61C54.2193 293.023 54.0293 293.62 54.0293 294.4V294.41C54.236 294.17 54.4993 293.99 54.8193 293.87C55.1393 293.743 55.4993 293.68 55.8993 293.68ZM55.6793 297.08C56.086 297.08 56.416 296.973 56.6693 296.76C56.9226 296.54 57.0493 296.25 57.0493 295.89C57.0493 295.523 56.9226 295.233 56.6693 295.02C56.416 294.807 56.076 294.7 55.6493 294.7C55.2293 294.7 54.886 294.813 54.6193 295.04C54.3593 295.267 54.2293 295.553 54.2293 295.9C54.2293 296.24 54.356 296.523 54.6093 296.75C54.8693 296.97 55.226 297.08 55.6793 297.08Z" fill="#161616"/>
<path d="M41.794 110.128C42.618 110.208 43.246 110.464 43.678 110.896C44.11 111.32 44.326 111.864 44.326 112.528C44.326 113.008 44.206 113.444 43.966 113.836C43.726 114.22 43.366 114.528 42.886 114.76C42.414 114.984 41.834 115.096 41.146 115.096C40.546 115.096 39.97 115.008 39.418 114.832C38.866 114.648 38.414 114.396 38.062 114.076L38.614 113.128C38.902 113.4 39.27 113.62 39.718 113.788C40.166 113.948 40.642 114.028 41.146 114.028C41.77 114.028 42.254 113.896 42.598 113.632C42.95 113.368 43.126 113.004 43.126 112.54C43.126 112.076 42.954 111.716 42.61 111.46C42.266 111.204 41.746 111.076 41.05 111.076H40.378V110.236L42.49 107.644H38.446V106.6H43.99V107.416L41.794 110.128ZM50.5811 110.596C51.0611 110.78 51.4291 111.044 51.6851 111.388C51.9411 111.732 52.0691 112.144 52.0691 112.624C52.0691 113.128 51.9331 113.568 51.6611 113.944C51.3891 114.312 51.0011 114.596 50.4971 114.796C49.9931 114.996 49.4011 115.096 48.7211 115.096C48.0491 115.096 47.4611 114.996 46.9571 114.796C46.4611 114.596 46.0771 114.312 45.8051 113.944C45.5331 113.568 45.3971 113.128 45.3971 112.624C45.3971 112.144 45.5211 111.732 45.7691 111.388C46.0251 111.044 46.3931 110.78 46.8731 110.596C46.4891 110.412 46.1971 110.168 45.9971 109.864C45.7971 109.56 45.6971 109.2 45.6971 108.784C45.6971 108.32 45.8211 107.916 46.0691 107.572C46.3251 107.228 46.6811 106.964 47.1371 106.78C47.5931 106.596 48.1211 106.504 48.7211 106.504C49.3291 106.504 49.8611 106.596 50.3171 106.78C50.7811 106.964 51.1371 107.228 51.3851 107.572C51.6411 107.916 51.7691 108.32 51.7691 108.784C51.7691 109.192 51.6651 109.552 51.4571 109.864C51.2571 110.168 50.9651 110.412 50.5811 110.596ZM48.7211 107.476C48.1531 107.476 47.7051 107.6 47.3771 107.848C47.0491 108.088 46.8851 108.416 46.8851 108.832C46.8851 109.248 47.0451 109.576 47.3651 109.816C47.6931 110.056 48.1451 110.176 48.7211 110.176C49.3051 110.176 49.7611 110.056 50.0891 109.816C50.4251 109.576 50.5931 109.248 50.5931 108.832C50.5931 108.416 50.4211 108.088 50.0771 107.848C49.7411 107.6 49.2891 107.476 48.7211 107.476ZM48.7211 114.124C49.3851 114.124 49.9091 113.988 50.2931 113.716C50.6771 113.436 50.8691 113.06 50.8691 112.588C50.8691 112.124 50.6771 111.76 50.2931 111.496C49.9091 111.224 49.3851 111.088 48.7211 111.088C48.0571 111.088 47.5371 111.224 47.1611 111.496C46.7851 111.76 46.5971 112.124 46.5971 112.588C46.5971 113.06 46.7851 113.436 47.1611 113.716C47.5371 113.988 48.0571 114.124 48.7211 114.124ZM55.8918 106.504C57.0198 106.504 57.8878 106.868 58.4958 107.596C59.1118 108.324 59.4198 109.356 59.4198 110.692C59.4198 111.628 59.2518 112.428 58.9158 113.092C58.5878 113.748 58.1238 114.248 57.5238 114.592C56.9318 114.928 56.2398 115.096 55.4478 115.096C55.0398 115.096 54.6558 115.056 54.2958 114.976C53.9358 114.888 53.6238 114.764 53.3598 114.604L53.8158 113.668C54.2238 113.932 54.7638 114.064 55.4358 114.064C56.3078 114.064 56.9878 113.796 57.4758 113.26C57.9718 112.716 58.2198 111.928 58.2198 110.896V110.596C57.9798 110.956 57.6478 111.232 57.2238 111.424C56.7998 111.608 56.3238 111.7 55.7958 111.7C55.2438 111.7 54.7478 111.596 54.3078 111.388C53.8758 111.18 53.5358 110.884 53.2878 110.5C53.0478 110.108 52.9278 109.66 52.9278 109.156C52.9278 108.628 53.0558 108.164 53.3118 107.764C53.5758 107.364 53.9318 107.056 54.3798 106.84C54.8278 106.616 55.3318 106.504 55.8918 106.504ZM55.9998 110.728C56.3758 110.728 56.7118 110.656 57.0078 110.512C57.3038 110.368 57.5318 110.172 57.6918 109.924C57.8598 109.676 57.9438 109.4 57.9438 109.096C57.9438 108.8 57.8638 108.532 57.7038 108.292C57.5518 108.044 57.3238 107.848 57.0198 107.704C56.7238 107.552 56.3638 107.476 55.9398 107.476C55.3878 107.476 54.9398 107.624 54.5958 107.92C54.2598 108.216 54.0918 108.612 54.0918 109.108C54.0918 109.604 54.2638 110 54.6078 110.296C54.9518 110.584 55.4158 110.728 55.9998 110.728Z" fill="#161616"/>
</svg>
