<svg width="560" height="397" viewBox="0 0 560 397" fill="none" xmlns="http://www.w3.org/2000/svg">
<path d="M37.2701 212.397C36.6761 212.397 36.1004 212.313 35.5431 212.144C34.9931 211.976 34.5567 211.752 34.2341 211.473L34.7291 210.362C35.0444 210.612 35.4294 210.817 35.8841 210.978C36.3461 211.132 36.8081 211.209 37.2701 211.209C37.8421 211.209 38.2674 211.118 38.5461 210.934C38.8321 210.751 38.9751 210.509 38.9751 210.208C38.9751 209.988 38.8944 209.809 38.7331 209.669C38.5791 209.523 38.3811 209.409 38.1391 209.328C37.8971 209.248 37.5671 209.156 37.1491 209.053C36.5624 208.914 36.0857 208.775 35.7191 208.635C35.3597 208.496 35.0481 208.28 34.7841 207.986C34.5274 207.686 34.3991 207.282 34.3991 206.776C34.3991 206.351 34.5127 205.966 34.7401 205.621C34.9747 205.269 35.3231 204.991 35.7851 204.785C36.2544 204.58 36.8264 204.477 37.5011 204.477C37.9704 204.477 38.4324 204.536 38.8871 204.653C39.3417 204.771 39.7341 204.939 40.0641 205.159L39.6131 206.27C39.2757 206.072 38.9237 205.922 38.5571 205.819C38.1904 205.717 37.8347 205.665 37.4901 205.665C36.9254 205.665 36.5037 205.761 36.2251 205.951C35.9537 206.142 35.8181 206.395 35.8181 206.71C35.8181 206.93 35.8951 207.11 36.0491 207.249C36.2104 207.389 36.4121 207.499 36.6541 207.579C36.8961 207.66 37.2261 207.752 37.6441 207.854C38.2161 207.986 38.6854 208.126 39.0521 208.272C39.4187 208.412 39.7304 208.628 39.9871 208.921C40.2511 209.215 40.3831 209.611 40.3831 210.109C40.3831 210.535 40.2657 210.92 40.0311 211.264C39.8037 211.609 39.4554 211.884 38.9861 212.089C38.5167 212.295 37.9447 212.397 37.2701 212.397ZM43.913 206.347C44.7784 206.347 45.4384 206.556 45.893 206.974C46.355 207.385 46.586 208.008 46.586 208.844V212.287H45.288V211.572C45.1194 211.829 44.8774 212.027 44.562 212.166C44.254 212.298 43.88 212.364 43.44 212.364C43 212.364 42.615 212.291 42.285 212.144C41.955 211.99 41.6984 211.781 41.515 211.517C41.339 211.246 41.251 210.942 41.251 210.604C41.251 210.076 41.4454 209.655 41.834 209.339C42.23 209.017 42.8497 208.855 43.693 208.855H45.211V208.767C45.211 208.357 45.0864 208.041 44.837 207.821C44.595 207.601 44.232 207.491 43.748 207.491C43.418 207.491 43.0917 207.543 42.769 207.645C42.4537 207.748 42.186 207.891 41.966 208.074L41.427 207.073C41.735 206.839 42.1054 206.659 42.538 206.534C42.9707 206.41 43.429 206.347 43.913 206.347ZM43.726 211.363C44.0707 211.363 44.375 211.286 44.639 211.132C44.9104 210.971 45.101 210.744 45.211 210.45V209.768H43.792C43 209.768 42.604 210.029 42.604 210.549C42.604 210.799 42.703 210.997 42.901 211.143C43.099 211.29 43.374 211.363 43.726 211.363ZM55.7647 206.347C56.5053 206.347 57.092 206.564 57.5247 206.996C57.9573 207.422 58.1737 208.063 58.1737 208.921V212.287H56.7987V209.097C56.7987 208.584 56.685 208.199 56.4577 207.942C56.2303 207.678 55.904 207.546 55.4787 207.546C55.0167 207.546 54.6463 207.7 54.3677 208.008C54.089 208.309 53.9497 208.742 53.9497 209.306V212.287H52.5747V209.097C52.5747 208.584 52.461 208.199 52.2337 207.942C52.0063 207.678 51.68 207.546 51.2547 207.546C50.7853 207.546 50.4113 207.697 50.1327 207.997C49.8613 208.298 49.7257 208.734 49.7257 209.306V212.287H48.3507V206.413H49.6597V207.161C49.8797 206.897 50.1547 206.696 50.4847 206.556C50.8147 206.417 51.1813 206.347 51.5847 206.347C52.0247 206.347 52.4133 206.432 52.7507 206.6C53.0953 206.762 53.3667 207.004 53.5647 207.326C53.8067 207.018 54.1183 206.78 54.4997 206.611C54.881 206.435 55.3027 206.347 55.7647 206.347ZM61.7458 212.364C61.2691 212.364 60.8034 212.302 60.3488 212.177C59.8941 212.053 59.5311 211.895 59.2598 211.704L59.7878 210.659C60.0518 210.835 60.3671 210.978 60.7338 211.088C61.1078 211.191 61.4744 211.242 61.8338 211.242C62.6551 211.242 63.0658 211.026 63.0658 210.593C63.0658 210.388 62.9594 210.245 62.7468 210.164C62.5414 210.084 62.2078 210.007 61.7458 209.933C61.2618 209.86 60.8658 209.776 60.5578 209.68C60.2571 209.585 59.9931 209.42 59.7658 209.185C59.5458 208.943 59.4358 208.61 59.4358 208.184C59.4358 207.627 59.6668 207.183 60.1288 206.853C60.5981 206.516 61.2288 206.347 62.0208 206.347C62.4241 206.347 62.8274 206.395 63.2308 206.49C63.6341 206.578 63.9641 206.699 64.2208 206.853L63.6928 207.898C63.1941 207.605 62.6331 207.458 62.0098 207.458C61.6064 207.458 61.2984 207.521 61.0858 207.645C60.8804 207.763 60.7778 207.92 60.7778 208.118C60.7778 208.338 60.8878 208.496 61.1078 208.591C61.3351 208.679 61.6834 208.764 62.1528 208.844C62.6221 208.918 63.0071 209.002 63.3078 209.097C63.6084 209.193 63.8651 209.354 64.0778 209.581C64.2978 209.809 64.4078 210.131 64.4078 210.549C64.4078 211.099 64.1694 211.539 63.6928 211.869C63.2161 212.199 62.5671 212.364 61.7458 212.364ZM71.2789 206.413V212.287H69.9699V211.539C69.7499 211.803 69.4749 212.009 69.1449 212.155C68.8149 212.295 68.4592 212.364 68.0779 212.364C67.2932 212.364 66.6736 212.148 66.2189 211.715C65.7716 211.275 65.5479 210.626 65.5479 209.768V206.413H66.9229V209.581C66.9229 210.109 67.0402 210.505 67.2749 210.769C67.5169 211.026 67.8579 211.154 68.2979 211.154C68.7892 211.154 69.1779 211.004 69.4639 210.703C69.7572 210.395 69.9039 209.955 69.9039 209.383V206.413H71.2789ZM76.4122 206.347C77.1529 206.347 77.7469 206.564 78.1942 206.996C78.6415 207.429 78.8652 208.071 78.8652 208.921V212.287H77.4902V209.097C77.4902 208.584 77.3692 208.199 77.1272 207.942C76.8852 207.678 76.5405 207.546 76.0932 207.546C75.5872 207.546 75.1875 207.7 74.8942 208.008C74.6009 208.309 74.4542 208.745 74.4542 209.317V212.287H73.0792V206.413H74.3882V207.172C74.6155 206.901 74.9015 206.696 75.2462 206.556C75.5909 206.417 75.9795 206.347 76.4122 206.347ZM86.4932 206.413V211.396C86.4932 213.464 85.4372 214.498 83.3252 214.498C82.7605 214.498 82.2252 214.425 81.7192 214.278C81.2132 214.139 80.7952 213.934 80.4652 213.662L81.0812 212.628C81.3378 212.841 81.6605 213.01 82.0492 213.134C82.4452 213.266 82.8448 213.332 83.2482 213.332C83.8935 213.332 84.3665 213.186 84.6672 212.892C84.9678 212.599 85.1182 212.152 85.1182 211.55V211.242C84.8835 211.499 84.5975 211.693 84.2602 211.825C83.9228 211.957 83.5525 212.023 83.1492 212.023C82.5918 212.023 82.0858 211.906 81.6312 211.671C81.1838 211.429 80.8282 211.092 80.5642 210.659C80.3075 210.227 80.1792 209.732 80.1792 209.174C80.1792 208.617 80.3075 208.126 80.5642 207.7C80.8282 207.268 81.1838 206.934 81.6312 206.699C82.0858 206.465 82.5918 206.347 83.1492 206.347C83.5745 206.347 83.9595 206.417 84.3042 206.556C84.6562 206.696 84.9495 206.908 85.1842 207.194V206.413H86.4932ZM83.3582 210.857C83.8788 210.857 84.3042 210.703 84.6342 210.395C84.9715 210.08 85.1402 209.673 85.1402 209.174C85.1402 208.683 84.9715 208.283 84.6342 207.975C84.3042 207.667 83.8788 207.513 83.3582 207.513C82.8302 207.513 82.3975 207.667 82.0602 207.975C81.7302 208.283 81.5652 208.683 81.5652 209.174C81.5652 209.673 81.7302 210.08 82.0602 210.395C82.3975 210.703 82.8302 210.857 83.3582 210.857Z" fill="#517DEE"/>
<path d="M453.153 363.047L451.063 360.121L448.995 363.047H447.367L450.227 359.12L447.521 355.347H449.138L451.107 358.086L453.054 355.347H454.605L451.91 359.065L454.803 363.047H453.153ZM455.689 357.173H457.064V363.047H455.689V357.173ZM456.382 356.205C456.133 356.205 455.924 356.128 455.755 355.974C455.586 355.813 455.502 355.615 455.502 355.38C455.502 355.146 455.586 354.951 455.755 354.797C455.924 354.636 456.133 354.555 456.382 354.555C456.631 354.555 456.84 354.632 457.009 354.786C457.178 354.933 457.262 355.12 457.262 355.347C457.262 355.589 457.178 355.795 457.009 355.963C456.848 356.125 456.639 356.205 456.382 356.205ZM461.113 357.107C461.978 357.107 462.638 357.316 463.093 357.734C463.555 358.145 463.786 358.768 463.786 359.604V363.047H462.488V362.332C462.319 362.589 462.077 362.787 461.762 362.926C461.454 363.058 461.08 363.124 460.64 363.124C460.2 363.124 459.815 363.051 459.485 362.904C459.155 362.75 458.898 362.541 458.715 362.277C458.539 362.006 458.451 361.702 458.451 361.364C458.451 360.836 458.645 360.415 459.034 360.099C459.43 359.777 460.049 359.615 460.893 359.615H462.411V359.527C462.411 359.117 462.286 358.801 462.037 358.581C461.795 358.361 461.432 358.251 460.948 358.251C460.618 358.251 460.291 358.303 459.969 358.405C459.653 358.508 459.386 358.651 459.166 358.834L458.627 357.833C458.935 357.599 459.305 357.419 459.738 357.294C460.17 357.17 460.629 357.107 461.113 357.107ZM460.926 362.123C461.27 362.123 461.575 362.046 461.839 361.892C462.11 361.731 462.301 361.504 462.411 361.21V360.528H460.992C460.2 360.528 459.804 360.789 459.804 361.309C459.804 361.559 459.903 361.757 460.101 361.903C460.299 362.05 460.574 362.123 460.926 362.123ZM468.244 363.124C467.65 363.124 467.115 362.996 466.638 362.739C466.161 362.483 465.787 362.127 465.516 361.672C465.252 361.21 465.12 360.69 465.12 360.11C465.12 359.531 465.252 359.014 465.516 358.559C465.787 358.105 466.161 357.749 466.638 357.492C467.115 357.236 467.65 357.107 468.244 357.107C468.845 357.107 469.384 357.236 469.861 357.492C470.338 357.749 470.708 358.105 470.972 358.559C471.243 359.014 471.379 359.531 471.379 360.11C471.379 360.69 471.243 361.21 470.972 361.672C470.708 362.127 470.338 362.483 469.861 362.739C469.384 362.996 468.845 363.124 468.244 363.124ZM468.244 361.947C468.75 361.947 469.168 361.779 469.498 361.441C469.828 361.104 469.993 360.66 469.993 360.11C469.993 359.56 469.828 359.117 469.498 358.779C469.168 358.442 468.75 358.273 468.244 358.273C467.738 358.273 467.32 358.442 466.99 358.779C466.667 359.117 466.506 359.56 466.506 360.11C466.506 360.66 466.667 361.104 466.99 361.441C467.32 361.779 467.738 361.947 468.244 361.947ZM480.108 357.107C480.849 357.107 481.435 357.324 481.868 357.756C482.301 358.182 482.517 358.823 482.517 359.681V363.047H481.142V359.857C481.142 359.344 481.028 358.959 480.801 358.702C480.574 358.438 480.247 358.306 479.822 358.306C479.36 358.306 478.99 358.46 478.711 358.768C478.432 359.069 478.293 359.502 478.293 360.066V363.047H476.918V359.857C476.918 359.344 476.804 358.959 476.577 358.702C476.35 358.438 476.023 358.306 475.598 358.306C475.129 358.306 474.755 358.457 474.476 358.757C474.205 359.058 474.069 359.494 474.069 360.066V363.047H472.694V357.173H474.003V357.921C474.223 357.657 474.498 357.456 474.828 357.316C475.158 357.177 475.525 357.107 475.928 357.107C476.368 357.107 476.757 357.192 477.094 357.36C477.439 357.522 477.71 357.764 477.908 358.086C478.15 357.778 478.462 357.54 478.843 357.371C479.224 357.195 479.646 357.107 480.108 357.107ZM484.274 357.173H485.649V363.047H484.274V357.173ZM484.967 356.205C484.718 356.205 484.509 356.128 484.34 355.974C484.171 355.813 484.087 355.615 484.087 355.38C484.087 355.146 484.171 354.951 484.34 354.797C484.509 354.636 484.718 354.555 484.967 354.555C485.216 354.555 485.425 354.632 485.594 354.786C485.763 354.933 485.847 355.12 485.847 355.347C485.847 355.589 485.763 355.795 485.594 355.963C485.433 356.125 485.224 356.205 484.967 356.205Z" fill="#27C0E4"/>
<path d="M507.985 174.508C507.2 174.508 506.492 174.339 505.862 174.002C505.231 173.657 504.736 173.184 504.377 172.583C504.017 171.974 503.838 171.296 503.838 170.548C503.838 169.8 504.017 169.125 504.377 168.524C504.736 167.915 505.231 167.442 505.862 167.105C506.492 166.76 507.2 166.588 507.985 166.588C508.769 166.588 509.477 166.76 510.108 167.105C510.738 167.442 511.233 167.912 511.593 168.513C511.952 169.114 512.132 169.793 512.132 170.548C512.132 171.303 511.952 171.982 511.593 172.583C511.233 173.184 510.738 173.657 510.108 174.002C509.477 174.339 508.769 174.508 507.985 174.508ZM507.985 173.254C508.498 173.254 508.96 173.14 509.371 172.913C509.781 172.678 510.104 172.356 510.339 171.945C510.573 171.527 510.691 171.061 510.691 170.548C510.691 170.035 510.573 169.573 510.339 169.162C510.104 168.744 509.781 168.421 509.371 168.194C508.96 167.959 508.498 167.842 507.985 167.842C507.471 167.842 507.009 167.959 506.599 168.194C506.188 168.421 505.865 168.744 505.631 169.162C505.396 169.573 505.279 170.035 505.279 170.548C505.279 171.061 505.396 171.527 505.631 171.945C505.865 172.356 506.188 172.678 506.599 172.913C507.009 173.14 507.471 173.254 507.985 173.254ZM516.815 166.698C517.483 166.698 518.062 166.808 518.553 167.028C519.052 167.248 519.433 167.563 519.697 167.974C519.961 168.385 520.093 168.872 520.093 169.437C520.093 169.994 519.961 170.482 519.697 170.9C519.433 171.311 519.052 171.626 518.553 171.846C518.062 172.066 517.483 172.176 516.815 172.176H515.077V174.398H513.647V166.698H516.815ZM516.749 170.966C517.373 170.966 517.846 170.834 518.168 170.57C518.491 170.306 518.652 169.928 518.652 169.437C518.652 168.946 518.491 168.568 518.168 168.304C517.846 168.04 517.373 167.908 516.749 167.908H515.077V170.966H516.749ZM524.689 166.698C525.357 166.698 525.936 166.808 526.427 167.028C526.926 167.248 527.307 167.563 527.571 167.974C527.835 168.385 527.967 168.872 527.967 169.437C527.967 169.994 527.835 170.482 527.571 170.9C527.307 171.311 526.926 171.626 526.427 171.846C525.936 172.066 525.357 172.176 524.689 172.176H522.951V174.398H521.521V166.698H524.689ZM524.623 170.966C525.247 170.966 525.72 170.834 526.042 170.57C526.365 170.306 526.526 169.928 526.526 169.437C526.526 168.946 526.365 168.568 526.042 168.304C525.72 168.04 525.247 167.908 524.623 167.908H522.951V170.966H524.623ZM533.1 174.508C532.315 174.508 531.607 174.339 530.977 174.002C530.346 173.657 529.851 173.184 529.492 172.583C529.132 171.974 528.953 171.296 528.953 170.548C528.953 169.8 529.132 169.125 529.492 168.524C529.851 167.915 530.346 167.442 530.977 167.105C531.607 166.76 532.315 166.588 533.1 166.588C533.884 166.588 534.592 166.76 535.223 167.105C535.853 167.442 536.348 167.912 536.708 168.513C537.067 169.114 537.247 169.793 537.247 170.548C537.247 171.303 537.067 171.982 536.708 172.583C536.348 173.184 535.853 173.657 535.223 174.002C534.592 174.339 533.884 174.508 533.1 174.508ZM533.1 173.254C533.613 173.254 534.075 173.14 534.486 172.913C534.896 172.678 535.219 172.356 535.454 171.945C535.688 171.527 535.806 171.061 535.806 170.548C535.806 170.035 535.688 169.573 535.454 169.162C535.219 168.744 534.896 168.421 534.486 168.194C534.075 167.959 533.613 167.842 533.1 167.842C532.586 167.842 532.124 167.959 531.714 168.194C531.303 168.421 530.98 168.744 530.746 169.162C530.511 169.573 530.394 170.035 530.394 170.548C530.394 171.061 530.511 171.527 530.746 171.945C530.98 172.356 531.303 172.678 531.714 172.913C532.124 173.14 532.586 173.254 533.1 173.254Z" fill="#BB25E8"/>
<path d="M464.292 70.062V77.762H462.862V74.462H458.88V77.762H457.45V70.062H458.88V73.241H462.862V70.062H464.292ZM471.91 71.888V77.762H470.601V77.014C470.381 77.278 470.106 77.4833 469.776 77.63C469.446 77.7693 469.091 77.839 468.709 77.839C467.925 77.839 467.305 77.6226 466.85 77.19C466.403 76.75 466.179 76.101 466.179 75.243V71.888H467.554V75.056C467.554 75.584 467.672 75.98 467.906 76.244C468.148 76.5006 468.489 76.629 468.929 76.629C469.421 76.629 469.809 76.4786 470.095 76.178C470.389 75.87 470.535 75.43 470.535 74.858V71.888H471.91ZM475.955 71.822C476.82 71.822 477.48 72.031 477.935 72.449C478.397 72.8596 478.628 73.483 478.628 74.319V77.762H477.33V77.047C477.161 77.3036 476.919 77.5016 476.604 77.641C476.296 77.773 475.922 77.839 475.482 77.839C475.042 77.839 474.657 77.7656 474.327 77.619C473.997 77.465 473.74 77.256 473.557 76.992C473.381 76.7206 473.293 76.4163 473.293 76.079C473.293 75.551 473.487 75.1293 473.876 74.814C474.272 74.4913 474.891 74.33 475.735 74.33H477.253V74.242C477.253 73.8313 477.128 73.516 476.879 73.296C476.637 73.076 476.274 72.966 475.79 72.966C475.46 72.966 475.133 73.0173 474.811 73.12C474.495 73.2226 474.228 73.3656 474.008 73.549L473.469 72.548C473.777 72.3133 474.147 72.1336 474.58 72.009C475.012 71.8843 475.471 71.822 475.955 71.822ZM475.768 76.838C476.112 76.838 476.417 76.761 476.681 76.607C476.952 76.4456 477.143 76.2183 477.253 75.925V75.243H475.834C475.042 75.243 474.646 75.5033 474.646 76.024C474.646 76.2733 474.745 76.4713 474.943 76.618C475.141 76.7646 475.416 76.838 475.768 76.838ZM489.448 71.888L487.281 77.762H485.961L484.443 73.714L482.903 77.762H481.583L479.427 71.888H480.725L482.276 76.222L483.893 71.888H485.048L486.632 76.244L488.227 71.888H489.448ZM495.754 74.858C495.754 74.9533 495.747 75.089 495.732 75.265H491.123C491.204 75.6976 491.413 76.0423 491.75 76.299C492.095 76.5483 492.52 76.673 493.026 76.673C493.671 76.673 494.203 76.4603 494.621 76.035L495.358 76.882C495.094 77.1973 494.76 77.4356 494.357 77.597C493.954 77.7583 493.499 77.839 492.993 77.839C492.348 77.839 491.779 77.7106 491.288 77.454C490.797 77.1973 490.415 76.8416 490.144 76.387C489.88 75.925 489.748 75.4043 489.748 74.825C489.748 74.253 489.876 73.7396 490.133 73.285C490.397 72.823 490.76 72.4636 491.222 72.207C491.684 71.9503 492.205 71.822 492.784 71.822C493.356 71.822 493.866 71.9503 494.313 72.207C494.768 72.4563 495.12 72.812 495.369 73.274C495.626 73.7286 495.754 74.2566 495.754 74.858ZM492.784 72.922C492.344 72.922 491.97 73.054 491.662 73.318C491.361 73.5746 491.178 73.9193 491.112 74.352H494.445C494.386 73.9266 494.207 73.582 493.906 73.318C493.605 73.054 493.231 72.922 492.784 72.922ZM497.075 71.888H498.45V77.762H497.075V71.888ZM497.768 70.92C497.519 70.92 497.31 70.843 497.141 70.689C496.972 70.5276 496.888 70.3296 496.888 70.095C496.888 69.8603 496.972 69.666 497.141 69.512C497.31 69.3506 497.519 69.27 497.768 69.27C498.017 69.27 498.226 69.347 498.395 69.501C498.564 69.6476 498.648 69.8346 498.648 70.062C498.648 70.304 498.564 70.5093 498.395 70.678C498.234 70.8393 498.025 70.92 497.768 70.92Z" fill="#E39EF4"/>
<path d="M421.981 34.5404H418.131L417.372 36.3224H415.898L419.363 28.6224H420.771L424.247 36.3224H422.751L421.981 34.5404ZM421.508 33.4184L420.056 30.0524L418.615 33.4184H421.508ZM428.35 30.3824C428.922 30.3824 429.432 30.5071 429.879 30.7564C430.334 31.0057 430.69 31.3577 430.946 31.8124C431.203 32.2671 431.331 32.7914 431.331 33.3854C431.331 33.9794 431.203 34.5074 430.946 34.9694C430.69 35.4241 430.334 35.7761 429.879 36.0254C429.432 36.2747 428.922 36.3994 428.35 36.3994C427.558 36.3994 426.931 36.1354 426.469 35.6074V38.4564H425.094V30.4484H426.403V31.2184C426.631 30.9397 426.909 30.7307 427.239 30.5914C427.577 30.4521 427.947 30.3824 428.35 30.3824ZM428.196 35.2224C428.702 35.2224 429.117 35.0537 429.439 34.7164C429.769 34.3791 429.934 33.9354 429.934 33.3854C429.934 32.8354 429.769 32.3917 429.439 32.0544C429.117 31.7171 428.702 31.5484 428.196 31.5484C427.866 31.5484 427.569 31.6254 427.305 31.7794C427.041 31.9261 426.832 32.1387 426.678 32.4174C426.524 32.6961 426.447 33.0187 426.447 33.3854C426.447 33.7521 426.524 34.0747 426.678 34.3534C426.832 34.6321 427.041 34.8484 427.305 35.0024C427.569 35.1491 427.866 35.2224 428.196 35.2224ZM435.891 30.3824C436.463 30.3824 436.973 30.5071 437.42 30.7564C437.875 31.0057 438.231 31.3577 438.487 31.8124C438.744 32.2671 438.872 32.7914 438.872 33.3854C438.872 33.9794 438.744 34.5074 438.487 34.9694C438.231 35.4241 437.875 35.7761 437.42 36.0254C436.973 36.2747 436.463 36.3994 435.891 36.3994C435.099 36.3994 434.472 36.1354 434.01 35.6074V38.4564H432.635V30.4484H433.944V31.2184C434.172 30.9397 434.45 30.7307 434.78 30.5914C435.118 30.4521 435.488 30.3824 435.891 30.3824ZM435.737 35.2224C436.243 35.2224 436.658 35.0537 436.98 34.7164C437.31 34.3791 437.475 33.9354 437.475 33.3854C437.475 32.8354 437.31 32.3917 436.98 32.0544C436.658 31.7171 436.243 31.5484 435.737 31.5484C435.407 31.5484 435.11 31.6254 434.846 31.7794C434.582 31.9261 434.373 32.1387 434.219 32.4174C434.065 32.6961 433.988 33.0187 433.988 33.3854C433.988 33.7521 434.065 34.0747 434.219 34.3534C434.373 34.6321 434.582 34.8484 434.846 35.0024C435.11 35.1491 435.407 35.2224 435.737 35.2224ZM440.176 28.1604H441.551V36.3224H440.176V28.1604ZM448.878 33.4184C448.878 33.5137 448.871 33.6494 448.856 33.8254H444.247C444.328 34.2581 444.537 34.6027 444.874 34.8594C445.219 35.1087 445.644 35.2334 446.15 35.2334C446.795 35.2334 447.327 35.0207 447.745 34.5954L448.482 35.4424C448.218 35.7577 447.884 35.9961 447.481 36.1574C447.078 36.3187 446.623 36.3994 446.117 36.3994C445.472 36.3994 444.903 36.2711 444.412 36.0144C443.921 35.7577 443.539 35.4021 443.268 34.9474C443.004 34.4854 442.872 33.9647 442.872 33.3854C442.872 32.8134 443 32.3001 443.257 31.8454C443.521 31.3834 443.884 31.0241 444.346 30.7674C444.808 30.5107 445.329 30.3824 445.908 30.3824C446.48 30.3824 446.99 30.5107 447.437 30.7674C447.892 31.0167 448.244 31.3724 448.493 31.8344C448.75 32.2891 448.878 32.8171 448.878 33.4184ZM445.908 31.4824C445.468 31.4824 445.094 31.6144 444.786 31.8784C444.485 32.1351 444.302 32.4797 444.236 32.9124H447.569C447.51 32.4871 447.331 32.1424 447.03 31.8784C446.729 31.6144 446.355 31.4824 445.908 31.4824Z" fill="#5EEE51"/>
<path d="M345.358 8.79V11.639H344.038V10H338.131V11.639H336.8L336.811 8.79H337.141C337.625 8.768 337.963 8.41233 338.153 7.723C338.351 7.02633 338.472 6.03267 338.516 4.742L338.604 2.3H344.247V8.79H345.358ZM339.77 4.874C339.734 5.87133 339.653 6.70367 339.528 7.371C339.404 8.031 339.206 8.504 338.934 8.79H342.839V3.51H339.825L339.77 4.874ZM349.807 4.06C350.379 4.06 350.889 4.18467 351.336 4.434C351.791 4.68333 352.146 5.03533 352.403 5.49C352.66 5.94467 352.788 6.469 352.788 7.063C352.788 7.657 352.66 8.185 352.403 8.647C352.146 9.10167 351.791 9.45367 351.336 9.703C350.889 9.95233 350.379 10.077 349.807 10.077C349.015 10.077 348.388 9.813 347.926 9.285V12.134H346.551V4.126H347.86V4.896C348.087 4.61733 348.366 4.40833 348.696 4.269C349.033 4.12967 349.404 4.06 349.807 4.06ZM349.653 8.9C350.159 8.9 350.573 8.73133 350.896 8.394C351.226 8.05667 351.391 7.613 351.391 7.063C351.391 6.513 351.226 6.06933 350.896 5.732C350.573 5.39467 350.159 5.226 349.653 5.226C349.323 5.226 349.026 5.303 348.762 5.457C348.498 5.60367 348.289 5.81633 348.135 6.095C347.981 6.37367 347.904 6.69633 347.904 7.063C347.904 7.42967 347.981 7.75233 348.135 8.031C348.289 8.30967 348.498 8.526 348.762 8.68C349.026 8.82667 349.323 8.9 349.653 8.9ZM359.539 4.126L356.789 10.473C356.533 11.111 356.221 11.5583 355.854 11.815C355.488 12.079 355.044 12.211 354.523 12.211C354.23 12.211 353.94 12.1633 353.654 12.068C353.368 11.9727 353.134 11.8407 352.95 11.672L353.5 10.66C353.632 10.7847 353.786 10.8837 353.962 10.957C354.146 11.0303 354.329 11.067 354.512 11.067C354.754 11.067 354.952 11.0047 355.106 10.88C355.268 10.7553 355.414 10.5463 355.546 10.253L355.645 10.022L353.082 4.126H354.512L356.36 8.471L358.219 4.126H359.539ZM365.004 5.292H361.869V10H360.494V4.126H365.004V5.292ZM366.005 4.126H367.38V7.998L370.625 4.126H371.879V10H370.504V6.128L367.27 10H366.005V4.126ZM379.229 7.096C379.229 7.19133 379.221 7.327 379.207 7.503H374.598C374.678 7.93567 374.887 8.28033 375.225 8.537C375.569 8.78633 375.995 8.911 376.501 8.911C377.146 8.911 377.678 8.69833 378.096 8.273L378.833 9.12C378.569 9.43533 378.235 9.67367 377.832 9.835C377.428 9.99633 376.974 10.077 376.468 10.077C375.822 10.077 375.254 9.94867 374.763 9.692C374.271 9.43533 373.89 9.07967 373.619 8.625C373.355 8.163 373.223 7.64233 373.223 7.063C373.223 6.491 373.351 5.97767 373.608 5.523C373.872 5.061 374.235 4.70167 374.697 4.445C375.159 4.18833 375.679 4.06 376.259 4.06C376.831 4.06 377.34 4.18833 377.788 4.445C378.242 4.69433 378.594 5.05 378.844 5.512C379.1 5.96667 379.229 6.49467 379.229 7.096ZM376.259 5.16C375.819 5.16 375.445 5.292 375.137 5.556C374.836 5.81267 374.653 6.15733 374.587 6.59H377.92C377.861 6.16467 377.681 5.82 377.381 5.556C377.08 5.292 376.706 5.16 376.259 5.16Z" fill="#EEC251"/>
<path d="M301.035 40C277.422 40 254.045 44.6972 232.265 53.8182C210.485 62.9392 190.736 76.3018 174.17 93.1279C157.604 109.954 144.55 129.908 135.769 151.827C126.987 173.746 122.654 197.193 123.022 220.803C123.389 244.413 128.449 267.715 137.908 289.35C147.366 310.986 161.034 330.524 178.116 346.827C195.198 363.129 215.352 375.871 237.405 384.311C259.458 392.75 282.97 396.718 306.572 395.983L305.021 346.158C288.028 346.686 271.1 343.83 255.221 337.753C239.343 331.677 224.832 322.503 212.533 310.765C200.234 299.027 190.393 284.96 183.583 269.382C176.773 253.804 173.13 237.027 172.865 220.028C172.601 203.029 175.721 186.147 182.043 170.365C188.366 154.583 197.764 140.217 209.692 128.102C221.62 115.987 235.839 106.366 251.52 99.7988C267.202 93.2317 284.033 89.8497 301.035 89.8497V40Z" fill="#517DEE"/>
<path d="M306.572 395.983C347.563 394.708 386.857 379.32 417.813 352.419C448.769 325.519 469.489 288.756 476.471 248.344L427.349 239.857C422.322 268.954 407.404 295.424 385.115 314.792C362.827 334.16 334.535 345.239 305.021 346.158L306.572 395.983Z" fill="#27C0E4"/>
<path d="M476.471 248.344C483.453 207.932 476.268 166.348 456.132 130.621L412.705 155.097C427.203 180.82 432.376 210.76 427.349 239.857L476.471 248.344Z" fill="#BB25E8"/>
<path d="M456.131 130.621C445.224 111.267 430.79 94.1265 413.576 80.0833L382.064 118.71C394.458 128.821 404.851 141.162 412.704 155.097L456.131 130.621Z" fill="#E39EF4"/>
<path d="M413.577 80.0832C402.119 70.7362 389.542 62.8529 376.136 56.6155L355.107 101.813C364.76 106.304 373.816 111.98 382.065 118.71L413.577 80.0832Z" fill="#5EEE51"/>
<path d="M376.136 56.6155C352.612 45.6708 326.981 40 301.035 40L301.035 89.8497C319.716 89.8497 338.171 93.9327 355.108 101.813L376.136 56.6155Z" fill="#EEC251"/>
<path d="M141.835 212.625C142.95 212.625 143.76 212.826 144.266 213.23C144.78 213.626 145.036 214.183 145.036 214.902C145.036 215.349 144.93 215.749 144.717 216.101C144.512 216.453 144.2 216.731 143.782 216.937C143.364 217.135 142.851 217.234 142.242 217.234C141.692 217.234 141.168 217.146 140.669 216.97C140.178 216.786 139.782 216.544 139.481 216.244L139.866 215.617C140.123 215.881 140.46 216.097 140.878 216.266C141.296 216.427 141.747 216.508 142.231 216.508C142.869 216.508 143.361 216.365 143.705 216.079C144.057 215.793 144.233 215.411 144.233 214.935C144.233 214.407 144.035 214.007 143.639 213.736C143.251 213.464 142.591 213.329 141.659 213.329H140.02L140.416 209.468H144.629V210.172H141.109L140.845 212.625H141.835ZM148.176 209.468V217.168H147.384V210.172H145.569V209.468H148.176ZM151.644 213.593C151.124 213.593 150.702 213.402 150.379 213.021C150.064 212.632 149.906 212.126 149.906 211.503C149.906 210.879 150.064 210.377 150.379 209.996C150.702 209.607 151.124 209.413 151.644 209.413C152.158 209.413 152.576 209.603 152.898 209.985C153.221 210.366 153.382 210.872 153.382 211.503C153.382 212.133 153.221 212.639 152.898 213.021C152.576 213.402 152.158 213.593 151.644 213.593ZM156.308 209.468H156.957L151.699 217.168H151.05L156.308 209.468ZM151.644 213.098C152.004 213.098 152.29 212.958 152.502 212.68C152.722 212.394 152.832 212.001 152.832 211.503C152.832 211.004 152.722 210.615 152.502 210.337C152.29 210.051 152.004 209.908 151.644 209.908C151.278 209.908 150.988 210.051 150.775 210.337C150.563 210.623 150.456 211.011 150.456 211.503C150.456 211.994 150.563 212.383 150.775 212.669C150.988 212.955 151.278 213.098 151.644 213.098ZM156.363 217.223C155.85 217.223 155.432 217.032 155.109 216.651C154.787 216.262 154.625 215.756 154.625 215.133C154.625 214.509 154.787 214.007 155.109 213.626C155.432 213.237 155.85 213.043 156.363 213.043C156.884 213.043 157.302 213.237 157.617 213.626C157.94 214.007 158.101 214.509 158.101 215.133C158.101 215.756 157.94 216.262 157.617 216.651C157.302 217.032 156.884 217.223 156.363 217.223ZM156.363 216.728C156.73 216.728 157.02 216.585 157.232 216.299C157.445 216.013 157.551 215.624 157.551 215.133C157.551 214.641 157.445 214.253 157.232 213.967C157.02 213.681 156.73 213.538 156.363 213.538C156.004 213.538 155.714 213.681 155.494 213.967C155.282 214.245 155.175 214.634 155.175 215.133C155.175 215.631 155.282 216.024 155.494 216.31C155.714 216.588 156.004 216.728 156.363 216.728Z" fill="white"/>
<path d="M397.971 329.759V330.463H392.57V329.902L395.771 326.767C396.174 326.371 396.446 326.03 396.585 325.744C396.732 325.45 396.805 325.157 396.805 324.864C396.805 324.409 396.647 324.057 396.332 323.808C396.024 323.551 395.58 323.423 395.001 323.423C394.099 323.423 393.399 323.709 392.9 324.281L392.339 323.797C392.64 323.445 393.021 323.173 393.483 322.983C393.952 322.792 394.48 322.697 395.067 322.697C395.852 322.697 396.471 322.884 396.926 323.258C397.388 323.624 397.619 324.13 397.619 324.776C397.619 325.172 397.531 325.553 397.355 325.92C397.179 326.286 396.845 326.708 396.354 327.185L393.736 329.759H397.971ZM404.223 329.759V330.463H398.822V329.902L402.023 326.767C402.426 326.371 402.697 326.03 402.837 325.744C402.983 325.45 403.057 325.157 403.057 324.864C403.057 324.409 402.899 324.057 402.584 323.808C402.276 323.551 401.832 323.423 401.253 323.423C400.351 323.423 399.65 323.709 399.152 324.281L398.591 323.797C398.891 323.445 399.273 323.173 399.735 322.983C400.204 322.792 400.732 322.697 401.319 322.697C402.103 322.697 402.723 322.884 403.178 323.258C403.64 323.624 403.871 324.13 403.871 324.776C403.871 325.172 403.783 325.553 403.607 325.92C403.431 326.286 403.097 326.708 402.606 327.185L399.988 329.759H404.223ZM406.952 326.888C406.432 326.888 406.01 326.697 405.687 326.316C405.372 325.927 405.214 325.421 405.214 324.798C405.214 324.174 405.372 323.672 405.687 323.291C406.01 322.902 406.432 322.708 406.952 322.708C407.466 322.708 407.884 322.898 408.206 323.28C408.529 323.661 408.69 324.167 408.69 324.798C408.69 325.428 408.529 325.934 408.206 326.316C407.884 326.697 407.466 326.888 406.952 326.888ZM411.616 322.763H412.265L407.007 330.463H406.358L411.616 322.763ZM406.952 326.393C407.312 326.393 407.598 326.253 407.81 325.975C408.03 325.689 408.14 325.296 408.14 324.798C408.14 324.299 408.03 323.91 407.81 323.632C407.598 323.346 407.312 323.203 406.952 323.203C406.586 323.203 406.296 323.346 406.083 323.632C405.871 323.918 405.764 324.306 405.764 324.798C405.764 325.289 405.871 325.678 406.083 325.964C406.296 326.25 406.586 326.393 406.952 326.393ZM411.671 330.518C411.158 330.518 410.74 330.327 410.417 329.946C410.095 329.557 409.933 329.051 409.933 328.428C409.933 327.804 410.095 327.302 410.417 326.921C410.74 326.532 411.158 326.338 411.671 326.338C412.192 326.338 412.61 326.532 412.925 326.921C413.248 327.302 413.409 327.804 413.409 328.428C413.409 329.051 413.248 329.557 412.925 329.946C412.61 330.327 412.192 330.518 411.671 330.518ZM411.671 330.023C412.038 330.023 412.328 329.88 412.54 329.594C412.753 329.308 412.859 328.919 412.859 328.428C412.859 327.936 412.753 327.548 412.54 327.262C412.328 326.976 412.038 326.833 411.671 326.833C411.312 326.833 411.022 326.976 410.802 327.262C410.59 327.54 410.483 327.929 410.483 328.428C410.483 328.926 410.59 329.319 410.802 329.605C411.022 329.883 411.312 330.023 411.671 330.023Z" fill="white"/>
<path d="M444.468 175.35V183.05H443.676V176.054H441.861V175.35H444.468ZM448.443 175.35V183.05H447.651V176.054H445.836V175.35H448.443ZM451.911 179.475C451.391 179.475 450.969 179.284 450.646 178.903C450.331 178.514 450.173 178.008 450.173 177.385C450.173 176.762 450.331 176.259 450.646 175.878C450.969 175.489 451.391 175.295 451.911 175.295C452.425 175.295 452.843 175.486 453.165 175.867C453.488 176.248 453.649 176.754 453.649 177.385C453.649 178.016 453.488 178.522 453.165 178.903C452.843 179.284 452.425 179.475 451.911 179.475ZM456.575 175.35H457.224L451.966 183.05H451.317L456.575 175.35ZM451.911 178.98C452.271 178.98 452.557 178.841 452.769 178.562C452.989 178.276 453.099 177.884 453.099 177.385C453.099 176.886 452.989 176.498 452.769 176.219C452.557 175.933 452.271 175.79 451.911 175.79C451.545 175.79 451.255 175.933 451.042 176.219C450.83 176.505 450.723 176.894 450.723 177.385C450.723 177.876 450.83 178.265 451.042 178.551C451.255 178.837 451.545 178.98 451.911 178.98ZM456.63 183.105C456.117 183.105 455.699 182.914 455.376 182.533C455.054 182.144 454.892 181.638 454.892 181.015C454.892 180.392 455.054 179.889 455.376 179.508C455.699 179.119 456.117 178.925 456.63 178.925C457.151 178.925 457.569 179.119 457.884 179.508C458.207 179.889 458.368 180.392 458.368 181.015C458.368 181.638 458.207 182.144 457.884 182.533C457.569 182.914 457.151 183.105 456.63 183.105ZM456.63 182.61C456.997 182.61 457.287 182.467 457.499 182.181C457.712 181.895 457.818 181.506 457.818 181.015C457.818 180.524 457.712 180.135 457.499 179.849C457.287 179.563 456.997 179.42 456.63 179.42C456.271 179.42 455.981 179.563 455.761 179.849C455.549 180.128 455.442 180.516 455.442 181.015C455.442 181.514 455.549 181.906 455.761 182.192C455.981 182.471 456.271 182.61 456.63 182.61Z" fill="white"/>
<path d="M413.531 113.83C414.037 113.83 414.484 113.926 414.873 114.116C415.269 114.307 415.577 114.578 415.797 114.93C416.017 115.275 416.127 115.678 416.127 116.14C416.127 116.61 416.013 117.024 415.786 117.383C415.558 117.743 415.243 118.021 414.84 118.219C414.444 118.41 413.996 118.505 413.498 118.505C412.478 118.505 411.697 118.172 411.155 117.504C410.612 116.83 410.341 115.88 410.341 114.655C410.341 113.797 410.487 113.071 410.781 112.477C411.074 111.883 411.485 111.436 412.013 111.135C412.541 110.827 413.157 110.673 413.861 110.673C414.623 110.673 415.232 110.813 415.687 111.091L415.368 111.729C415.001 111.487 414.502 111.366 413.872 111.366C413.021 111.366 412.354 111.638 411.87 112.18C411.386 112.716 411.144 113.497 411.144 114.523C411.144 114.707 411.155 114.916 411.177 115.15C411.367 114.732 411.672 114.41 412.09 114.182C412.508 113.948 412.988 113.83 413.531 113.83ZM413.465 117.834C414.022 117.834 414.473 117.684 414.818 117.383C415.17 117.075 415.346 116.668 415.346 116.162C415.346 115.656 415.17 115.253 414.818 114.952C414.473 114.652 414.004 114.501 413.41 114.501C413.021 114.501 412.676 114.575 412.376 114.721C412.082 114.868 411.851 115.07 411.683 115.326C411.514 115.583 411.43 115.869 411.43 116.184C411.43 116.478 411.507 116.749 411.661 116.998C411.822 117.248 412.057 117.449 412.365 117.603C412.673 117.757 413.039 117.834 413.465 117.834ZM418.457 114.864C417.936 114.864 417.515 114.674 417.192 114.292C416.877 113.904 416.719 113.398 416.719 112.774C416.719 112.151 416.877 111.649 417.192 111.267C417.515 110.879 417.936 110.684 418.457 110.684C418.97 110.684 419.388 110.875 419.711 111.256C420.034 111.638 420.195 112.144 420.195 112.774C420.195 113.405 420.034 113.911 419.711 114.292C419.388 114.674 418.97 114.864 418.457 114.864ZM423.121 110.739H423.77L418.512 118.439H417.863L423.121 110.739ZM418.457 114.369C418.816 114.369 419.102 114.23 419.315 113.951C419.535 113.665 419.645 113.273 419.645 112.774C419.645 112.276 419.535 111.887 419.315 111.608C419.102 111.322 418.816 111.179 418.457 111.179C418.09 111.179 417.801 111.322 417.588 111.608C417.375 111.894 417.269 112.283 417.269 112.774C417.269 113.266 417.375 113.654 417.588 113.94C417.801 114.226 418.09 114.369 418.457 114.369ZM423.176 118.494C422.663 118.494 422.245 118.304 421.922 117.922C421.599 117.534 421.438 117.028 421.438 116.404C421.438 115.781 421.599 115.279 421.922 114.897C422.245 114.509 422.663 114.314 423.176 114.314C423.697 114.314 424.115 114.509 424.43 114.897C424.753 115.279 424.914 115.781 424.914 116.404C424.914 117.028 424.753 117.534 424.43 117.922C424.115 118.304 423.697 118.494 423.176 118.494ZM423.176 117.999C423.543 117.999 423.832 117.856 424.045 117.57C424.258 117.284 424.364 116.896 424.364 116.404C424.364 115.913 424.258 115.524 424.045 115.238C423.832 114.952 423.543 114.809 423.176 114.809C422.817 114.809 422.527 114.952 422.307 115.238C422.094 115.517 421.988 115.906 421.988 116.404C421.988 116.903 422.094 117.295 422.307 117.581C422.527 117.86 422.817 117.999 423.176 117.999Z" fill="white"/>
<path d="M380.243 87.2824H378.703V89.3064H377.911V87.2824H373.566V86.7104L377.647 81.6064H378.527L374.589 86.5784H377.933V84.7964H378.703V86.5784H380.243V87.2824ZM382.265 85.7314C381.745 85.7314 381.323 85.5407 381 85.1594C380.685 84.7707 380.527 84.2647 380.527 83.6414C380.527 83.0181 380.685 82.5157 381 82.1344C381.323 81.7457 381.745 81.5514 382.265 81.5514C382.779 81.5514 383.197 81.7421 383.519 82.1234C383.842 82.5047 384.003 83.0107 384.003 83.6414C384.003 84.2721 383.842 84.7781 383.519 85.1594C383.197 85.5407 382.779 85.7314 382.265 85.7314ZM386.929 81.6064H387.578L382.32 89.3064H381.671L386.929 81.6064ZM382.265 85.2364C382.625 85.2364 382.911 85.0971 383.123 84.8184C383.343 84.5324 383.453 84.1401 383.453 83.6414C383.453 83.1427 383.343 82.7541 383.123 82.4754C382.911 82.1894 382.625 82.0464 382.265 82.0464C381.899 82.0464 381.609 82.1894 381.396 82.4754C381.184 82.7614 381.077 83.1501 381.077 83.6414C381.077 84.1327 381.184 84.5214 381.396 84.8074C381.609 85.0934 381.899 85.2364 382.265 85.2364ZM386.984 89.3614C386.471 89.3614 386.053 89.1707 385.73 88.7894C385.408 88.4007 385.246 87.8947 385.246 87.2714C385.246 86.6481 385.408 86.1457 385.73 85.7644C386.053 85.3757 386.471 85.1814 386.984 85.1814C387.505 85.1814 387.923 85.3757 388.238 85.7644C388.561 86.1457 388.722 86.6481 388.722 87.2714C388.722 87.8947 388.561 88.4007 388.238 88.7894C387.923 89.1707 387.505 89.3614 386.984 89.3614ZM386.984 88.8664C387.351 88.8664 387.641 88.7234 387.853 88.4374C388.066 88.1514 388.172 87.7627 388.172 87.2714C388.172 86.7801 388.066 86.3914 387.853 86.1054C387.641 85.8194 387.351 85.6764 386.984 85.6764C386.625 85.6764 386.335 85.8194 386.115 86.1054C385.903 86.3841 385.796 86.7727 385.796 87.2714C385.796 87.7701 385.903 88.1624 386.115 88.4484C386.335 88.7271 386.625 88.8664 386.984 88.8664Z" fill="white"/>
<path d="M331.607 58.9475V59.5085L328.384 66.6475H327.526L330.694 59.6515H326.734V61.0925H325.953V58.9475H331.607ZM334.3 63.0725C333.78 63.0725 333.358 62.8818 333.035 62.5005C332.72 62.1118 332.562 61.6058 332.562 60.9825C332.562 60.3591 332.72 59.8568 333.035 59.4755C333.358 59.0868 333.78 58.8925 334.3 58.8925C334.814 58.8925 335.232 59.0831 335.554 59.4645C335.877 59.8458 336.038 60.3518 336.038 60.9825C336.038 61.6131 335.877 62.1191 335.554 62.5005C335.232 62.8818 334.814 63.0725 334.3 63.0725ZM338.964 58.9475H339.613L334.355 66.6475H333.706L338.964 58.9475ZM334.3 62.5775C334.66 62.5775 334.946 62.4381 335.158 62.1595C335.378 61.8735 335.488 61.4811 335.488 60.9825C335.488 60.4838 335.378 60.0951 335.158 59.8165C334.946 59.5305 334.66 59.3875 334.3 59.3875C333.934 59.3875 333.644 59.5305 333.431 59.8165C333.219 60.1025 333.112 60.4911 333.112 60.9825C333.112 61.4738 333.219 61.8625 333.431 62.1485C333.644 62.4345 333.934 62.5775 334.3 62.5775ZM339.019 66.7025C338.506 66.7025 338.088 66.5118 337.765 66.1305C337.443 65.7418 337.281 65.2358 337.281 64.6125C337.281 63.9891 337.443 63.4868 337.765 63.1055C338.088 62.7168 338.506 62.5225 339.019 62.5225C339.54 62.5225 339.958 62.7168 340.273 63.1055C340.596 63.4868 340.757 63.9891 340.757 64.6125C340.757 65.2358 340.596 65.7418 340.273 66.1305C339.958 66.5118 339.54 66.7025 339.019 66.7025ZM339.019 66.2075C339.386 66.2075 339.676 66.0645 339.888 65.7785C340.101 65.4925 340.207 65.1038 340.207 64.6125C340.207 64.1211 340.101 63.7325 339.888 63.4465C339.676 63.1605 339.386 63.0175 339.019 63.0175C338.66 63.0175 338.37 63.1605 338.15 63.4465C337.938 63.7251 337.831 64.1138 337.831 64.6125C337.831 65.1111 337.938 65.5035 338.15 65.7895C338.37 66.0681 338.66 66.2075 339.019 66.2075Z" fill="white"/>
<path d="M237.414 174.8C238.427 174.8 239.307 174.971 240.054 175.312C240.8 175.643 241.376 176.123 241.782 176.752C242.187 177.371 242.39 178.101 242.39 178.944C242.39 179.787 242.187 180.517 241.782 181.136C241.376 181.755 240.8 182.235 240.054 182.576C239.307 182.907 238.427 183.072 237.414 183.072H235.462V186H232.294V174.8H237.414ZM237.222 180.576C237.872 180.576 238.363 180.437 238.694 180.16C239.024 179.872 239.19 179.467 239.19 178.944C239.19 178.421 239.024 178.016 238.694 177.728C238.363 177.44 237.872 177.296 237.222 177.296H235.462V180.576H237.222ZM247.107 177.184C248.547 177.184 249.646 177.515 250.403 178.176C251.16 178.827 251.539 179.829 251.539 181.184V186H248.707V184.88C248.27 185.723 247.416 186.144 246.147 186.144C245.475 186.144 244.894 186.027 244.403 185.792C243.912 185.557 243.539 185.243 243.283 184.848C243.038 184.443 242.915 183.984 242.915 183.472C242.915 182.651 243.23 182.016 243.859 181.568C244.488 181.109 245.459 180.88 246.771 180.88H248.499C248.446 179.963 247.832 179.504 246.659 179.504C246.243 179.504 245.822 179.573 245.395 179.712C244.968 179.84 244.606 180.021 244.307 180.256L243.283 178.192C243.763 177.872 244.344 177.627 245.027 177.456C245.72 177.275 246.414 177.184 247.107 177.184ZM246.995 184.224C247.347 184.224 247.656 184.139 247.923 183.968C248.19 183.797 248.382 183.547 248.499 183.216V182.464H247.187C246.302 182.464 245.859 182.757 245.859 183.344C245.859 183.611 245.96 183.824 246.163 183.984C246.366 184.144 246.643 184.224 246.995 184.224ZM257.72 186.144C256.76 186.144 255.901 185.952 255.144 185.568C254.386 185.184 253.794 184.651 253.368 183.968C252.952 183.285 252.744 182.512 252.744 181.648C252.744 180.784 252.952 180.016 253.368 179.344C253.794 178.661 254.386 178.133 255.144 177.76C255.901 177.376 256.76 177.184 257.72 177.184C258.701 177.184 259.549 177.397 260.264 177.824C260.978 178.24 261.485 178.821 261.784 179.568L259.432 180.768C259.037 179.989 258.461 179.6 257.704 179.6C257.16 179.6 256.706 179.781 256.344 180.144C255.992 180.507 255.816 181.008 255.816 181.648C255.816 182.299 255.992 182.811 256.344 183.184C256.706 183.547 257.16 183.728 257.704 183.728C258.461 183.728 259.037 183.339 259.432 182.56L261.784 183.76C261.485 184.507 260.978 185.093 260.264 185.52C259.549 185.936 258.701 186.144 257.72 186.144ZM272.015 177.328V186H268.991V179.744H266.079V186H263.055V177.328H272.015ZM279.543 177.184C280.332 177.184 281.047 177.371 281.687 177.744C282.337 178.107 282.849 178.629 283.223 179.312C283.607 179.984 283.799 180.768 283.799 181.664C283.799 182.56 283.607 183.349 283.223 184.032C282.849 184.704 282.337 185.227 281.687 185.6C281.047 185.963 280.332 186.144 279.543 186.144C278.529 186.144 277.724 185.84 277.127 185.232V189.104H274.087V177.328H276.983V178.192C277.548 177.52 278.401 177.184 279.543 177.184ZM278.903 183.728C279.436 183.728 279.873 183.547 280.215 183.184C280.556 182.811 280.727 182.304 280.727 181.664C280.727 181.024 280.556 180.523 280.215 180.16C279.873 179.787 279.436 179.6 278.903 179.6C278.369 179.6 277.932 179.787 277.591 180.16C277.249 180.523 277.079 181.024 277.079 181.664C277.079 182.304 277.249 182.811 277.591 183.184C277.932 183.547 278.369 183.728 278.903 183.728ZM294.042 181.68C294.042 181.701 294.026 181.952 293.994 182.432H287.69C287.818 182.88 288.064 183.227 288.426 183.472C288.8 183.707 289.264 183.824 289.818 183.824C290.234 183.824 290.592 183.765 290.89 183.648C291.2 183.531 291.509 183.339 291.818 183.072L293.418 184.736C292.576 185.675 291.344 186.144 289.722 186.144C288.709 186.144 287.818 185.952 287.05 185.568C286.282 185.184 285.685 184.651 285.258 183.968C284.842 183.285 284.634 182.512 284.634 181.648C284.634 180.795 284.837 180.032 285.242 179.36C285.658 178.677 286.229 178.144 286.954 177.76C287.68 177.376 288.496 177.184 289.402 177.184C290.266 177.184 291.05 177.365 291.754 177.728C292.458 178.08 293.013 178.597 293.418 179.28C293.834 179.952 294.042 180.752 294.042 181.68ZM289.418 179.344C288.949 179.344 288.554 179.477 288.234 179.744C287.925 180.011 287.728 180.373 287.642 180.832H291.194C291.109 180.373 290.906 180.011 290.586 179.744C290.277 179.477 289.888 179.344 289.418 179.344ZM305.874 183.568V187.792H303.058V186H297.602V187.792H294.77V183.568H295.09C295.612 183.557 295.975 183.275 296.178 182.72C296.38 182.155 296.503 181.365 296.546 180.352L296.658 177.328H304.674V183.568H305.874ZM299.282 180.576C299.25 181.355 299.191 181.979 299.106 182.448C299.02 182.917 298.86 183.291 298.626 183.568H301.634V179.744H299.314L299.282 180.576ZM315.964 181.68C315.964 181.701 315.948 181.952 315.916 182.432H309.612C309.74 182.88 309.986 183.227 310.348 183.472C310.722 183.707 311.186 183.824 311.74 183.824C312.156 183.824 312.514 183.765 312.812 183.648C313.122 183.531 313.431 183.339 313.74 183.072L315.34 184.736C314.498 185.675 313.266 186.144 311.644 186.144C310.631 186.144 309.74 185.952 308.972 185.568C308.204 185.184 307.607 184.651 307.18 183.968C306.764 183.285 306.556 182.512 306.556 181.648C306.556 180.795 306.759 180.032 307.164 179.36C307.58 178.677 308.151 178.144 308.876 177.76C309.602 177.376 310.418 177.184 311.324 177.184C312.188 177.184 312.972 177.365 313.676 177.728C314.38 178.08 314.935 178.597 315.34 179.28C315.756 179.952 315.964 180.752 315.964 181.68ZM311.34 179.344C310.871 179.344 310.476 179.477 310.156 179.744C309.847 180.011 309.65 180.373 309.564 180.832H313.116C313.031 180.373 312.828 180.011 312.508 179.744C312.199 179.477 311.81 179.344 311.34 179.344ZM326.372 177.328V186H323.332V179.744H321.14L321.076 181.072C321.033 182.203 320.921 183.136 320.74 183.872C320.558 184.608 320.26 185.184 319.844 185.6C319.428 186.005 318.857 186.208 318.132 186.208C317.758 186.208 317.268 186.139 316.66 186L316.788 183.52C316.98 183.541 317.108 183.552 317.172 183.552C317.502 183.552 317.753 183.445 317.924 183.232C318.094 183.019 318.212 182.736 318.276 182.384C318.34 182.021 318.382 181.541 318.404 180.944L318.532 177.328H326.372ZM337.199 181.68C337.199 181.701 337.183 181.952 337.151 182.432H330.847C330.975 182.88 331.22 183.227 331.583 183.472C331.956 183.707 332.42 183.824 332.975 183.824C333.391 183.824 333.748 183.765 334.047 183.648C334.356 183.531 334.665 183.339 334.975 183.072L336.575 184.736C335.732 185.675 334.5 186.144 332.879 186.144C331.865 186.144 330.975 185.952 330.207 185.568C329.439 185.184 328.841 184.651 328.415 183.968C327.999 183.285 327.791 182.512 327.791 181.648C327.791 180.795 327.993 180.032 328.399 179.36C328.815 178.677 329.385 178.144 330.111 177.76C330.836 177.376 331.652 177.184 332.559 177.184C333.423 177.184 334.207 177.365 334.911 177.728C335.615 178.08 336.169 178.597 336.575 179.28C336.991 179.952 337.199 180.752 337.199 181.68ZM332.575 179.344C332.105 179.344 331.711 179.477 331.391 179.744C331.081 180.011 330.884 180.373 330.799 180.832H334.351C334.265 180.373 334.063 180.011 333.743 179.744C333.433 179.477 333.044 179.344 332.575 179.344ZM338.805 177.328H341.829V180.544H344.949V177.328H347.989V186H344.949V182.96H341.829V186H338.805V177.328ZM350.04 177.328H353.064V181.872L356.696 177.328H359.496V186H356.456V181.44L352.856 186H350.04V177.328ZM370.324 181.68C370.324 181.701 370.308 181.952 370.276 182.432H363.972C364.1 182.88 364.345 183.227 364.708 183.472C365.081 183.707 365.545 183.824 366.1 183.824C366.516 183.824 366.873 183.765 367.172 183.648C367.481 183.531 367.79 183.339 368.1 183.072L369.7 184.736C368.857 185.675 367.625 186.144 366.004 186.144C364.99 186.144 364.1 185.952 363.332 185.568C362.564 185.184 361.966 184.651 361.54 183.968C361.124 183.285 360.916 182.512 360.916 181.648C360.916 180.795 361.118 180.032 361.524 179.36C361.94 178.677 362.51 178.144 363.236 177.76C363.961 177.376 364.777 177.184 365.684 177.184C366.548 177.184 367.332 177.365 368.036 177.728C368.74 178.08 369.294 178.597 369.7 179.28C370.116 179.952 370.324 180.752 370.324 181.68ZM365.7 179.344C365.23 179.344 364.836 179.477 364.516 179.744C364.206 180.011 364.009 180.373 363.924 180.832H367.476C367.39 180.373 367.188 180.011 366.868 179.744C366.558 179.477 366.169 179.344 365.7 179.344ZM251.96 207.568V211.792H249.144V210H243.688V211.792H240.856V207.568H241.176C241.698 207.557 242.061 207.275 242.264 206.72C242.466 206.155 242.589 205.365 242.632 204.352L242.744 201.328H250.76V207.568H251.96ZM245.368 204.576C245.336 205.355 245.277 205.979 245.192 206.448C245.106 206.917 244.946 207.291 244.712 207.568H247.72V203.744H245.4L245.368 204.576ZM257.538 210.144C256.61 210.144 255.773 209.952 255.026 209.568C254.28 209.184 253.693 208.651 253.266 207.968C252.85 207.285 252.642 206.512 252.642 205.648C252.642 204.795 252.85 204.027 253.266 203.344C253.693 202.661 254.274 202.133 255.01 201.76C255.757 201.376 256.6 201.184 257.538 201.184C258.477 201.184 259.32 201.376 260.066 201.76C260.813 202.133 261.394 202.661 261.81 203.344C262.226 204.016 262.434 204.784 262.434 205.648C262.434 206.512 262.226 207.285 261.81 207.968C261.394 208.651 260.813 209.184 260.066 209.568C259.32 209.952 258.477 210.144 257.538 210.144ZM257.538 207.728C258.072 207.728 258.509 207.547 258.85 207.184C259.192 206.811 259.362 206.299 259.362 205.648C259.362 205.008 259.192 204.507 258.85 204.144C258.509 203.781 258.072 203.6 257.538 203.6C257.005 203.6 256.568 203.781 256.226 204.144C255.885 204.507 255.714 205.008 255.714 205.648C255.714 206.299 255.885 206.811 256.226 207.184C256.568 207.547 257.005 207.728 257.538 207.728ZM272.536 201.328V210H269.496V203.744H267.304L267.24 205.072C267.197 206.203 267.085 207.136 266.904 207.872C266.722 208.608 266.424 209.184 266.008 209.6C265.592 210.005 265.021 210.208 264.296 210.208C263.922 210.208 263.432 210.139 262.824 210L262.952 207.52C263.144 207.541 263.272 207.552 263.336 207.552C263.666 207.552 263.917 207.445 264.088 207.232C264.258 207.019 264.376 206.736 264.44 206.384C264.504 206.021 264.546 205.541 264.568 204.944L264.696 201.328H272.536ZM274.579 201.328H277.603V205.872L281.235 201.328H284.035V210H280.995V205.44L277.395 210H274.579V201.328ZM296.191 201.184C296.98 201.184 297.695 201.371 298.335 201.744C298.986 202.107 299.498 202.629 299.871 203.312C300.255 203.984 300.447 204.768 300.447 205.664C300.447 206.56 300.255 207.349 299.871 208.032C299.498 208.704 298.986 209.227 298.335 209.6C297.695 209.963 296.98 210.144 296.191 210.144C295.178 210.144 294.372 209.84 293.775 209.232V213.104H290.735V201.328H293.631V202.192C294.196 201.52 295.05 201.184 296.191 201.184ZM295.551 207.728C296.084 207.728 296.522 207.547 296.863 207.184C297.204 206.811 297.375 206.304 297.375 205.664C297.375 205.024 297.204 204.523 296.863 204.16C296.522 203.787 296.084 203.6 295.551 203.6C295.018 203.6 294.58 203.787 294.239 204.16C293.898 204.523 293.727 205.024 293.727 205.664C293.727 206.304 293.898 206.811 294.239 207.184C294.58 207.547 295.018 207.728 295.551 207.728ZM306.867 204.016C308.008 204.027 308.867 204.283 309.443 204.784C310.019 205.285 310.307 206 310.307 206.928C310.307 207.899 309.971 208.656 309.299 209.2C308.637 209.744 307.699 210.011 306.483 210H301.907V201.328H304.931V204.016H306.867ZM311.043 201.328H314.067V210H311.043V201.328ZM306.179 207.92C306.947 207.92 307.331 207.573 307.331 206.88C307.331 206.539 307.235 206.288 307.043 206.128C306.851 205.968 306.563 205.883 306.179 205.872H304.931V207.904L306.179 207.92ZM316.126 201.328H319.15V204.544H322.27V201.328H325.31V210H322.27V206.96H319.15V210H316.126V201.328ZM331.424 206.912H330.4V210H327.36V201.328H330.4V204.528H331.488L333.616 201.328H336.832L333.92 205.488L337.024 210H333.44L331.424 206.912ZM341.412 201.184C342.852 201.184 343.95 201.515 344.708 202.176C345.465 202.827 345.844 203.829 345.844 205.184V210H343.012V208.88C342.574 209.723 341.721 210.144 340.452 210.144C339.78 210.144 339.198 210.027 338.708 209.792C338.217 209.557 337.844 209.243 337.588 208.848C337.342 208.443 337.22 207.984 337.22 207.472C337.22 206.651 337.534 206.016 338.164 205.568C338.793 205.109 339.764 204.88 341.076 204.88H342.804C342.75 203.963 342.137 203.504 340.964 203.504C340.548 203.504 340.126 203.573 339.7 203.712C339.273 203.84 338.91 204.021 338.612 204.256L337.588 202.192C338.068 201.872 338.649 201.627 339.332 201.456C340.025 201.275 340.718 201.184 341.412 201.184ZM341.3 208.224C341.652 208.224 341.961 208.139 342.228 207.968C342.494 207.797 342.686 207.547 342.804 207.216V206.464H341.492C340.606 206.464 340.164 206.757 340.164 207.344C340.164 207.611 340.265 207.824 340.468 207.984C340.67 208.144 340.948 208.224 341.3 208.224ZM359.321 205.456C360.313 205.787 360.809 206.469 360.809 207.504C360.809 208.283 360.505 208.896 359.897 209.344C359.289 209.781 358.393 210 357.209 210H352.329V201.328H356.985C358.115 201.328 358.99 201.525 359.609 201.92C360.238 202.315 360.553 202.869 360.553 203.584C360.553 204 360.446 204.368 360.233 204.688C360.019 205.008 359.715 205.264 359.321 205.456ZM355.049 204.816H356.713C357.417 204.816 357.769 204.555 357.769 204.032C357.769 203.531 357.417 203.28 356.713 203.28H355.049V204.816ZM356.937 208.032C357.673 208.032 358.041 207.765 358.041 207.232C358.041 206.699 357.683 206.432 356.969 206.432H355.049V208.032H356.937ZM271.98 225.184C272.769 225.184 273.484 225.371 274.124 225.744C274.775 226.107 275.287 226.629 275.66 227.312C276.044 227.984 276.236 228.768 276.236 229.664C276.236 230.56 276.044 231.349 275.66 232.032C275.287 232.704 274.775 233.227 274.124 233.6C273.484 233.963 272.769 234.144 271.98 234.144C270.967 234.144 270.161 233.84 269.564 233.232V237.104H266.524V225.328H269.42V226.192C269.985 225.52 270.839 225.184 271.98 225.184ZM271.34 231.728C271.873 231.728 272.311 231.547 272.652 231.184C272.993 230.811 273.164 230.304 273.164 229.664C273.164 229.024 272.993 228.523 272.652 228.16C272.311 227.787 271.873 227.6 271.34 227.6C270.807 227.6 270.369 227.787 270.028 228.16C269.687 228.523 269.516 229.024 269.516 229.664C269.516 230.304 269.687 230.811 270.028 231.184C270.369 231.547 270.807 231.728 271.34 231.728ZM281.044 225.184C282.484 225.184 283.583 225.515 284.34 226.176C285.098 226.827 285.476 227.829 285.476 229.184V234H282.644V232.88C282.207 233.723 281.354 234.144 280.084 234.144C279.412 234.144 278.831 234.027 278.34 233.792C277.85 233.557 277.476 233.243 277.22 232.848C276.975 232.443 276.852 231.984 276.852 231.472C276.852 230.651 277.167 230.016 277.796 229.568C278.426 229.109 279.396 228.88 280.708 228.88H282.436C282.383 227.963 281.77 227.504 280.596 227.504C280.18 227.504 279.759 227.573 279.332 227.712C278.906 227.84 278.543 228.021 278.244 228.256L277.22 226.192C277.7 225.872 278.282 225.627 278.964 225.456C279.658 225.275 280.351 225.184 281.044 225.184ZM280.932 232.224C281.284 232.224 281.594 232.139 281.86 231.968C282.127 231.797 282.319 231.547 282.436 231.216V230.464H281.124C280.239 230.464 279.796 230.757 279.796 231.344C279.796 231.611 279.898 231.824 280.1 231.984C280.303 232.144 280.58 232.224 280.932 232.224ZM293.386 229.504C293.887 229.664 294.271 229.909 294.538 230.24C294.815 230.56 294.954 230.944 294.954 231.392C294.954 231.968 294.751 232.469 294.346 232.896C293.951 233.312 293.407 233.632 292.714 233.856C292.031 234.069 291.263 234.176 290.41 234.176C288.938 234.176 287.626 233.925 286.474 233.424L287.258 231.376C288.175 231.76 289.194 231.952 290.314 231.952C290.794 231.952 291.173 231.883 291.45 231.744C291.738 231.605 291.882 231.408 291.882 231.152C291.882 230.917 291.797 230.747 291.626 230.64C291.455 230.533 291.194 230.48 290.842 230.48H288.97V228.704H290.57C291.285 228.704 291.642 228.485 291.642 228.048C291.642 227.589 291.167 227.36 290.218 227.36C289.397 227.36 288.479 227.552 287.466 227.936L286.746 225.936C288.005 225.413 289.247 225.152 290.474 225.152C291.701 225.152 292.714 225.371 293.514 225.808C294.314 226.235 294.714 226.837 294.714 227.616C294.714 228.011 294.597 228.373 294.362 228.704C294.127 229.035 293.802 229.301 293.386 229.504ZM301.902 225.184C302.691 225.184 303.406 225.371 304.046 225.744C304.697 226.107 305.209 226.629 305.582 227.312C305.966 227.984 306.158 228.768 306.158 229.664C306.158 230.56 305.966 231.349 305.582 232.032C305.209 232.704 304.697 233.227 304.046 233.6C303.406 233.963 302.691 234.144 301.902 234.144C300.889 234.144 300.083 233.84 299.486 233.232V237.104H296.446V225.328H299.342V226.192C299.907 225.52 300.761 225.184 301.902 225.184ZM301.262 231.728C301.795 231.728 302.233 231.547 302.574 231.184C302.915 230.811 303.086 230.304 303.086 229.664C303.086 229.024 302.915 228.523 302.574 228.16C302.233 227.787 301.795 227.6 301.262 227.6C300.729 227.6 300.291 227.787 299.95 228.16C299.609 228.523 299.438 229.024 299.438 229.664C299.438 230.304 299.609 230.811 299.95 231.184C300.291 231.547 300.729 231.728 301.262 231.728ZM316.402 229.68C316.402 229.701 316.386 229.952 316.354 230.432H310.05C310.178 230.88 310.423 231.227 310.786 231.472C311.159 231.707 311.623 231.824 312.178 231.824C312.594 231.824 312.951 231.765 313.25 231.648C313.559 231.531 313.868 231.339 314.178 231.072L315.778 232.736C314.935 233.675 313.703 234.144 312.082 234.144C311.068 234.144 310.178 233.952 309.41 233.568C308.642 233.184 308.044 232.651 307.618 231.968C307.202 231.285 306.994 230.512 306.994 229.648C306.994 228.795 307.196 228.032 307.602 227.36C308.018 226.677 308.588 226.144 309.314 225.76C310.039 225.376 310.855 225.184 311.762 225.184C312.626 225.184 313.41 225.365 314.114 225.728C314.818 226.08 315.372 226.597 315.778 227.28C316.194 227.952 316.402 228.752 316.402 229.68ZM311.778 227.344C311.308 227.344 310.914 227.477 310.594 227.744C310.284 228.011 310.087 228.373 310.002 228.832H313.554C313.468 228.373 313.266 228.011 312.946 227.744C312.636 227.477 312.247 227.344 311.778 227.344ZM324.074 229.504C324.575 229.664 324.959 229.909 325.226 230.24C325.503 230.56 325.642 230.944 325.642 231.392C325.642 231.968 325.439 232.469 325.034 232.896C324.639 233.312 324.095 233.632 323.402 233.856C322.719 234.069 321.951 234.176 321.098 234.176C319.626 234.176 318.314 233.925 317.162 233.424L317.946 231.376C318.863 231.76 319.882 231.952 321.002 231.952C321.482 231.952 321.86 231.883 322.138 231.744C322.426 231.605 322.57 231.408 322.57 231.152C322.57 230.917 322.484 230.747 322.314 230.64C322.143 230.533 321.882 230.48 321.53 230.48H319.658V228.704H321.258C321.972 228.704 322.33 228.485 322.33 228.048C322.33 227.589 321.855 227.36 320.906 227.36C320.084 227.36 319.167 227.552 318.154 227.936L317.434 225.936C318.692 225.413 319.935 225.152 321.161 225.152C322.388 225.152 323.402 225.371 324.202 225.808C325.002 226.235 325.402 226.837 325.402 227.616C325.402 228.011 325.284 228.373 325.05 228.704C324.815 229.035 324.49 229.301 324.074 229.504ZM335.917 229.68C335.917 229.701 335.901 229.952 335.869 230.432H329.565C329.693 230.88 329.939 231.227 330.301 231.472C330.675 231.707 331.139 231.824 331.693 231.824C332.109 231.824 332.467 231.765 332.765 231.648C333.075 231.531 333.384 231.339 333.693 231.072L335.293 232.736C334.451 233.675 333.219 234.144 331.597 234.144C330.584 234.144 329.693 233.952 328.925 233.568C328.157 233.184 327.56 232.651 327.133 231.968C326.717 231.285 326.509 230.512 326.509 229.648C326.509 228.795 326.712 228.032 327.117 227.36C327.533 226.677 328.104 226.144 328.829 225.76C329.555 225.376 330.371 225.184 331.277 225.184C332.141 225.184 332.925 225.365 333.629 225.728C334.333 226.08 334.888 226.597 335.293 227.28C335.709 227.952 335.917 228.752 335.917 229.68ZM331.293 227.344C330.824 227.344 330.429 227.477 330.109 227.744C329.8 228.011 329.603 228.373 329.517 228.832H333.069C332.984 228.373 332.781 228.011 332.461 227.744C332.152 227.477 331.763 227.344 331.293 227.344ZM224.882 249.328V258H221.858V251.744H218.946V258H215.922V249.328H224.882ZM232.41 249.184C233.199 249.184 233.914 249.371 234.554 249.744C235.204 250.107 235.716 250.629 236.09 251.312C236.474 251.984 236.666 252.768 236.666 253.664C236.666 254.56 236.474 255.349 236.09 256.032C235.716 256.704 235.204 257.227 234.554 257.6C233.914 257.963 233.199 258.144 232.41 258.144C231.396 258.144 230.591 257.84 229.994 257.232V261.104H226.954V249.328H229.85V250.192C230.415 249.52 231.268 249.184 232.41 249.184ZM231.77 255.728C232.303 255.728 232.74 255.547 233.082 255.184C233.423 254.811 233.594 254.304 233.594 253.664C233.594 253.024 233.423 252.523 233.082 252.16C232.74 251.787 232.303 251.6 231.77 251.6C231.236 251.6 230.799 251.787 230.458 252.16C230.116 252.523 229.946 253.024 229.946 253.664C229.946 254.304 230.116 254.811 230.458 255.184C230.799 255.547 231.236 255.728 231.77 255.728ZM242.398 258.144C241.47 258.144 240.632 257.952 239.886 257.568C239.139 257.184 238.552 256.651 238.126 255.968C237.71 255.285 237.502 254.512 237.502 253.648C237.502 252.795 237.71 252.027 238.126 251.344C238.552 250.661 239.134 250.133 239.87 249.76C240.616 249.376 241.459 249.184 242.398 249.184C243.336 249.184 244.179 249.376 244.926 249.76C245.672 250.133 246.254 250.661 246.67 251.344C247.086 252.016 247.294 252.784 247.294 253.648C247.294 254.512 247.086 255.285 246.67 255.968C246.254 256.651 245.672 257.184 244.926 257.568C244.179 257.952 243.336 258.144 242.398 258.144ZM242.398 255.728C242.931 255.728 243.368 255.547 243.71 255.184C244.051 254.811 244.222 254.299 244.222 253.648C244.222 253.008 244.051 252.507 243.71 252.144C243.368 251.781 242.931 251.6 242.398 251.6C241.864 251.6 241.427 251.781 241.086 252.144C240.744 252.507 240.574 253.008 240.574 253.648C240.574 254.299 240.744 254.811 241.086 255.184C241.427 255.547 241.864 255.728 242.398 255.728ZM248.719 249.328H251.743V253.872L255.375 249.328H258.175V258H255.135V253.44L251.535 258H248.719V249.328ZM266.3 253.504C266.801 253.664 267.185 253.909 267.452 254.24C267.729 254.56 267.868 254.944 267.868 255.392C267.868 255.968 267.665 256.469 267.26 256.896C266.865 257.312 266.321 257.632 265.628 257.856C264.945 258.069 264.177 258.176 263.324 258.176C261.852 258.176 260.54 257.925 259.388 257.424L260.172 255.376C261.089 255.76 262.108 255.952 263.228 255.952C263.708 255.952 264.087 255.883 264.364 255.744C264.652 255.605 264.796 255.408 264.796 255.152C264.796 254.917 264.711 254.747 264.54 254.64C264.369 254.533 264.108 254.48 263.756 254.48H261.884V252.704H263.484C264.199 252.704 264.556 252.485 264.556 252.048C264.556 251.589 264.081 251.36 263.132 251.36C262.311 251.36 261.393 251.552 260.38 251.936L259.66 249.936C260.919 249.413 262.161 249.152 263.388 249.152C264.615 249.152 265.628 249.371 266.428 249.808C267.228 250.235 267.628 250.837 267.628 251.616C267.628 252.011 267.511 252.373 267.276 252.704C267.041 253.035 266.716 253.301 266.3 253.504ZM276.352 253.456C277.344 253.787 277.84 254.469 277.84 255.504C277.84 256.283 277.536 256.896 276.928 257.344C276.32 257.781 275.424 258 274.24 258H269.36V249.328H274.016C275.147 249.328 276.021 249.525 276.64 249.92C277.269 250.315 277.584 250.869 277.584 251.584C277.584 252 277.477 252.368 277.264 252.688C277.051 253.008 276.747 253.264 276.352 253.456ZM272.08 252.816H273.744C274.448 252.816 274.8 252.555 274.8 252.032C274.8 251.531 274.448 251.28 273.744 251.28H272.08V252.816ZM273.968 256.032C274.704 256.032 275.072 255.765 275.072 255.232C275.072 254.699 274.715 254.432 274 254.432H272.08V256.032H273.968ZM283.648 258.144C282.72 258.144 281.882 257.952 281.136 257.568C280.389 257.184 279.802 256.651 279.376 255.968C278.96 255.285 278.752 254.512 278.752 253.648C278.752 252.795 278.96 252.027 279.376 251.344C279.802 250.661 280.384 250.133 281.12 249.76C281.866 249.376 282.709 249.184 283.648 249.184C284.586 249.184 285.429 249.376 286.176 249.76C286.922 250.133 287.504 250.661 287.92 251.344C288.336 252.016 288.544 252.784 288.544 253.648C288.544 254.512 288.336 255.285 287.92 255.968C287.504 256.651 286.922 257.184 286.176 257.568C285.429 257.952 284.586 258.144 283.648 258.144ZM283.648 255.728C284.181 255.728 284.618 255.547 284.96 255.184C285.301 254.811 285.472 254.299 285.472 253.648C285.472 253.008 285.301 252.507 284.96 252.144C284.618 251.781 284.181 251.6 283.648 251.6C283.114 251.6 282.677 251.781 282.336 252.144C281.994 252.507 281.824 253.008 281.824 253.648C281.824 254.299 281.994 254.811 282.336 255.184C282.677 255.547 283.114 255.728 283.648 255.728ZM300.069 255.568V259.792H297.253V258H291.797V259.792H288.965V255.568H289.285C289.808 255.557 290.17 255.275 290.373 254.72C290.576 254.155 290.698 253.365 290.741 252.352L290.853 249.328H298.869V255.568H300.069ZM293.477 252.576C293.445 253.355 293.386 253.979 293.301 254.448C293.216 254.917 293.056 255.291 292.821 255.568H295.829V251.744H293.509L293.477 252.576ZM301.376 249.328H304.4V253.872L308.032 249.328H310.832V258H307.792V253.44L304.192 258H301.376V249.328ZM320.62 251.744H317.836V258H314.812V251.744H312.012V249.328H320.62V251.744ZM330.238 253.68C330.238 253.701 330.222 253.952 330.19 254.432H323.886C324.014 254.88 324.259 255.227 324.622 255.472C324.995 255.707 325.459 255.824 326.014 255.824C326.43 255.824 326.787 255.765 327.086 255.648C327.395 255.531 327.704 255.339 328.014 255.072L329.614 256.736C328.771 257.675 327.539 258.144 325.918 258.144C324.904 258.144 324.014 257.952 323.246 257.568C322.478 257.184 321.88 256.651 321.454 255.968C321.038 255.285 320.83 254.512 320.83 253.648C320.83 252.795 321.032 252.032 321.438 251.36C321.854 250.677 322.424 250.144 323.15 249.76C323.875 249.376 324.691 249.184 325.598 249.184C326.462 249.184 327.246 249.365 327.95 249.728C328.654 250.08 329.208 250.597 329.614 251.28C330.03 251.952 330.238 252.752 330.238 253.68ZM325.614 251.344C325.144 251.344 324.75 251.477 324.43 251.744C324.12 252.011 323.923 252.373 323.838 252.832H327.39C327.304 252.373 327.102 252.011 326.782 251.744C326.472 251.477 326.083 251.344 325.614 251.344ZM340.645 249.328V258H337.605V251.744H335.413L335.349 253.072C335.306 254.203 335.194 255.136 335.013 255.872C334.832 256.608 334.533 257.184 334.117 257.6C333.701 258.005 333.13 258.208 332.405 258.208C332.032 258.208 331.541 258.139 330.933 258L331.061 255.52C331.253 255.541 331.381 255.552 331.445 255.552C331.776 255.552 332.026 255.445 332.197 255.232C332.368 255.019 332.485 254.736 332.549 254.384C332.613 254.021 332.656 253.541 332.677 252.944L332.805 249.328H340.645ZM351.472 253.68C351.472 253.701 351.456 253.952 351.424 254.432H345.12C345.248 254.88 345.493 255.227 345.856 255.472C346.229 255.707 346.693 255.824 347.248 255.824C347.664 255.824 348.021 255.765 348.32 255.648C348.629 255.531 348.939 255.339 349.248 255.072L350.848 256.736C350.005 257.675 348.773 258.144 347.152 258.144C346.139 258.144 345.248 257.952 344.48 257.568C343.712 257.184 343.115 256.651 342.688 255.968C342.272 255.285 342.064 254.512 342.064 253.648C342.064 252.795 342.267 252.032 342.672 251.36C343.088 250.677 343.659 250.144 344.384 249.76C345.109 249.376 345.925 249.184 346.832 249.184C347.696 249.184 348.48 249.365 349.184 249.728C349.888 250.08 350.443 250.597 350.848 251.28C351.264 251.952 351.472 252.752 351.472 253.68ZM346.848 251.344C346.379 251.344 345.984 251.477 345.664 251.744C345.355 252.011 345.157 252.373 345.072 252.832H348.624C348.539 252.373 348.336 252.011 348.016 251.744C347.707 251.477 347.317 251.344 346.848 251.344ZM353.079 249.328H356.103V253.872L359.735 249.328H362.535V258H359.495V253.44L355.895 258H353.079V249.328ZM357.607 248.496C356.583 248.496 355.825 248.283 355.335 247.856C354.855 247.419 354.609 246.752 354.599 245.856H356.567C356.577 246.229 356.663 246.512 356.823 246.704C356.983 246.885 357.239 246.976 357.591 246.976C357.943 246.976 358.204 246.88 358.375 246.688C358.556 246.496 358.647 246.219 358.647 245.856H360.647C360.647 246.752 360.396 247.419 359.895 247.856C359.404 248.283 358.641 248.496 357.607 248.496ZM365.827 254.544C366.349 254.544 366.781 254.709 367.123 255.04C367.464 255.371 367.635 255.803 367.635 256.336C367.635 256.581 367.603 256.827 367.539 257.072C367.475 257.317 367.331 257.685 367.107 258.176L366.099 260.512H364.195L364.947 257.904C364.648 257.765 364.413 257.563 364.243 257.296C364.083 257.019 364.003 256.699 364.003 256.336C364.003 255.803 364.173 255.371 364.515 255.04C364.856 254.709 365.293 254.544 365.827 254.544ZM375.958 252.864C375.116 252.864 374.428 252.587 373.894 252.032C373.361 251.477 373.094 250.72 373.094 249.76C373.094 249.131 373.217 248.581 373.462 248.112C373.708 247.643 374.044 247.285 374.47 247.04C374.908 246.784 375.404 246.656 375.958 246.656C376.812 246.656 377.505 246.939 378.038 247.504C378.572 248.059 378.838 248.811 378.838 249.76C378.838 250.72 378.572 251.477 378.038 252.032C377.505 252.587 376.812 252.864 375.958 252.864ZM382.582 246.8H384.886L377.238 258H374.934L382.582 246.8ZM375.958 251.344C376.246 251.344 376.476 251.216 376.646 250.96C376.817 250.704 376.902 250.304 376.902 249.76C376.902 249.216 376.817 248.816 376.646 248.56C376.476 248.304 376.246 248.176 375.958 248.176C375.681 248.176 375.452 248.309 375.27 248.576C375.1 248.832 375.014 249.227 375.014 249.76C375.014 250.293 375.1 250.693 375.27 250.96C375.452 251.216 375.681 251.344 375.958 251.344ZM383.862 258.144C383.009 258.144 382.316 257.867 381.782 257.312C381.26 256.757 380.998 256 380.998 255.04C380.998 254.091 381.265 253.339 381.798 252.784C382.332 252.219 383.02 251.936 383.862 251.936C384.716 251.936 385.409 252.219 385.942 252.784C386.476 253.339 386.742 254.091 386.742 255.04C386.742 256 386.476 256.757 385.942 257.312C385.409 257.867 384.716 258.144 383.862 258.144ZM383.862 256.624C384.15 256.624 384.38 256.496 384.55 256.24C384.721 255.984 384.806 255.584 384.806 255.04C384.806 254.496 384.721 254.096 384.55 253.84C384.38 253.584 384.15 253.456 383.862 253.456C383.574 253.456 383.345 253.584 383.174 253.84C383.004 254.096 382.918 254.496 382.918 255.04C382.918 255.584 383.004 255.984 383.174 256.24C383.345 256.496 383.574 256.624 383.862 256.624Z" fill="white"/>
</svg>
